<?xml version="1.0" encoding="UTF-8" standalone="no"?>
<!-- Created with Inkscape (http://www.inkscape.org/) -->

<svg
   xmlns:dc="http://purl.org/dc/elements/1.1/"
   xmlns:cc="http://creativecommons.org/ns#"
   xmlns:rdf="http://www.w3.org/1999/02/22-rdf-syntax-ns#"
   xmlns:svg="http://www.w3.org/2000/svg"
   xmlns="http://www.w3.org/2000/svg"
   version="1.1"
   width="220"
   height="169.36"
   id="svg12082">
  <defs
     id="defs12084" />
  <metadata
     id="metadata12087">
    <rdf:RDF>
      <cc:Work
         rdf:about="">
        <dc:format>image/svg+xml</dc:format>
        <dc:type
           rdf:resource="http://purl.org/dc/dcmitype/StillImage" />
        <dc:title></dc:title>
      </cc:Work>
    </rdf:RDF>
  </metadata>
  <g
     transform="translate(0,-5.4498)"
     id="layer3"
     style="display:inline">
    <path
       d="m 136.77,149.45 -18.41,25.36 79.22,0 L 159.73,5.4498 107,5.4498 0,174.78 l 84.427,0 -12.09,-25.45 26.073,-43.76 c 0.7,2.71 2.04,8.02 2.25,8.84 -1.33,2.32 -21.556,37.27 -21.556,37.27 0,0 29.816,-24.64 31.186,-25.79 0.49,0.61 22.07,26.78 22.07,26.78 0,0 -10.15,-33.86 -10.85,-36.16 0.52,-0.83 3.9,-6.2 6.05,-9.65 l 9.21,42.56 z m -37.43,-45.44 16.63,-27.892 4.92,0 6.05,27.892 -27.6,0 z"
       id="path30"
       style="fill:#efe4bc;fill-opacity:1;fill-rule:nonzero;stroke:none" />
    <path
       d="M 52,111.2 85.142,90.417 73.751,70.001 105.81,54.543 95.47,36.32 120.12,25.341 109.02,9.0556 6.101,171.39 62.406,135.96 52,111.2 z"
       id="path34"
       style="fill:#1d0b09;fill-opacity:1;fill-rule:nonzero;stroke:none" />
    <path
       d="m 117.76,116.01 c 0.87,-1.36 5.39,-8.54 5.39,-8.54 l -20.71,0 c 0,0 1.58,6.11 1.93,7.48 -0.96,1.64 -12.68,21.88 -12.68,21.88 0,0 16.71,-13.81 19.05,-15.77 1.65,1.99 13.42,16.27 13.42,16.27 0,0 -5.83,-19.46 -6.41,-21.32"
       id="path46"
       style="fill:#b91134;fill-opacity:1;fill-rule:nonzero;stroke:none" />
    <path
       d="m 188.89,168.12 -34.76,-156.013 -39.25,0 9.67,14.854 -24.36,10.948 10.49,18.19 -32.02,15.332 10.724,19.876 -33.173,20.883 10.231,25.05 -49.712,30.8 55.94,0 -9.008,-18.53 48.308,-79.445 14.97,0 18.08,80.995 -12.6,17.06 56.47,0 z"
       id="path50"
       style="fill:#b91134;fill-opacity:1;fill-rule:nonzero;stroke:none" />
    <path
       d="M 193.27,171.45 157.05,8.6585 l -44.42,0 2.25,3.4635 39.25,0 34.76,156.008 -56.47,0 12.61,-17.05 -18.09,-80.999 -14.97,0 -48.308,79.439 9.024,18.54 -55.956,0 -5.481,3.42 67.475,0 -10.662,-22.03 45.788,-76.382 9.98,0 17.28,77.172 -15.53,21.24 67.69,0 z"
       id="path54"
       style="fill:#1d0b09;fill-opacity:1;fill-rule:nonzero;stroke:none" />
    <path
       d="m 209.09,161.29 0,1.21 -3.41,0 0,8.91 -1.4,0 0,-8.91 -3.4,0 0,-1.21 8.21,0 z"
       id="path58"
       style="fill:#231f20;fill-opacity:1;fill-rule:nonzero;stroke:none" />
    <path
       d="m 210.29,161.29 1.97,0 2.89,8.55 2.89,-8.55 1.96,0 0,10.12 -1.32,0 0,-5.97 c 0,-0.19 0,-0.54 0,-1.04 0,-0.47 0,-0.96 0,-1.53 l -2.89,8.54 -1.36,0 -2.91,-8.54 0,0.31 c 0,0.26 0,0.64 0,1.13 0,0.51 0,0.89 0,1.13 l 0,5.97 -1.32,0 0,-10.12 z"
       id="path70"
       style="fill:#231f20;fill-opacity:1;fill-rule:nonzero;stroke:none" />
  </g>
</svg>
