<?xml version="1.0" encoding="utf-8"?>
<!-- Generator: Adobe Illustrator 14.0.0, SVG Export Plug-In . SVG Version: 6.00 Build 43363)  -->
<!DOCTYPE svg PUBLIC "-//W3C//DTD SVG 1.1//EN" "http://www.w3.org/Graphics/SVG/1.1/DTD/svg11.dtd">
<svg version="1.1" id="Layer_1" xmlns="http://www.w3.org/2000/svg" xmlns:xlink="http://www.w3.org/1999/xlink" x="0px" y="0px"
	 width="250px" height="250px" viewBox="0 0 250 250" enable-background="new 0 0 250 250" xml:space="preserve">
<g>
	<rect y="0.02" fill="#021540" width="250" height="250"/>
	<path fill="#FFFFFF" d="M41.401,10.457c33.588,29.602,77.992,29.602,117.847,9.109c7.973,15.946,22.773,31.021,35.689,35.866
		c-5.806,5.409-7.789,7.973-8.36,15.938v93.369c0.29,10.254,2.272,14.235,10.246,23.308c-23.621,4.028-43.839,15.403-55.794,35.34
		c-19.355-16.801-42.068-22.332-60.574-20.156c-31.937,3.791-42.709,39.383-42.9,38.979c-2.987-6.302,0-34.768,19.447-49.927
		c18.666-14.511,47.714-16.777,77.771-1.923c8.537-7.4,18.211-13.092,26.184-15.365V59.986l-11.383-11.383
		c-38.719,13.657-94.509,2.563-112.728-37.01C34.283,6.024,38.063,7.512,41.401,10.457"/>
	<path fill="#FFFFFF" d="M85.808,83.897c0-10.528,6.249-23.56,15.938-31.311c2.846-2.281-7.771-6.927-12.81-2.563
		C75.707,61.505,67.947,67.952,66.242,82.234c-10.895,0.809-22.564,8.774-26.264,16.174c-4.215,8.438,2.025,8.598,6.264,5.699
		c5.409-3.7,13.092-5.119,19.638-4.845l-0.008,10.582c-10.895,0.809-21.625,8.781-25.326,16.182
		c-4.215,8.432,2.029,8.592,6.26,5.691c5.413-3.699,12.528-5.691,19.074-5.408v31.883c0,12.527-6.26,18.783-9.96,22.201
		c-3.7,3.426-1.651,6.988,3.701,4.846c12.81-5.127,26.188-18.219,26.188-38.438"/>
	<path fill="#FFFFFF" d="M98.332,158.191c0,12.527-6.264,18.783-9.964,22.201c-3.701,3.426-2.789,6.416,2.563,4.272
		c12.81-5.119,27.325-19.073,27.325-39.283V83.897c0-10.528,0.843-24.132,10.532-31.875c2.846-2.281-1.511-6.363-6.546-1.999
		c-13.233,11.482-23.911,19.928-23.838,36.194"/>
	<path fill="#FFFFFF" d="M115.982,96.425c12.239,5.401,35.301,5.401,48.683,0v-9.682c-13.382,5.41-36.444,5.41-48.683,0"/>
	<path fill="#FFFFFF" d="M115.982,126.025c12.239-5.408,35.301-5.408,48.683,0v9.683c-13.382-5.409-36.444-5.409-48.683,0"/>
	<path fill="#FFFFFF" d="M104.023,70.233c-6.546-2.281-12.237-3.273-17.933-2.991l-3.7,8.964c6.546-1.709,13.947-1.419,19.356,1.145
		"/>
	<path fill="#FFFFFF" d="M84.026,153.639c5.409,0.854,12.81,0.854,16.51-0.283l-1.068-8.256c-3.7,1.139-11.101,1.139-16.51,0.283"/>
	<path fill="#FFFFFF" d="M200.424,205.654h-3.242v8.582h-2.556v-8.582h-3.242v-2.067h9.04 M213.997,214.236h-2.319v-8.582
		l-3.136,8.582h-1.366l-3.143-8.582v8.582h-2.319v-10.649h3.746l2.396,6.31l2.403-6.31h3.738V214.236z"/>
</g>
</svg>
