<?xml version="1.0" encoding="UTF-8" standalone="no"?>
<!-- Created with Inkscape (http://www.inkscape.org/) -->

<svg
   xmlns:dc="http://purl.org/dc/elements/1.1/"
   xmlns:cc="http://creativecommons.org/ns#"
   xmlns:rdf="http://www.w3.org/1999/02/22-rdf-syntax-ns#"
   xmlns:svg="http://www.w3.org/2000/svg"
   xmlns="http://www.w3.org/2000/svg"
   version="1.1"
   width="250"
   height="250"
   id="svg2995">
  <metadata
     id="metadata3001">
    <rdf:RDF>
      <cc:Work
         rdf:about="">
        <dc:format>image/svg+xml</dc:format>
        <dc:type
           rdf:resource="http://purl.org/dc/dcmitype/StillImage" />
        <dc:title></dc:title>
      </cc:Work>
    </rdf:RDF>
  </metadata>
  <defs
     id="defs2999" />
  <g
     transform="translate(0,-250)"
     id="layer2"
     style="display:inline">
    <path
       d="m 488.98,254.76 a 239.75,235.76 0 1 1 -479.5,0 239.75,235.76 0 1 1 479.5,0 z"
       transform="matrix(0.47966,0,0,0.48771,5.4528,250.77)"
       id="path3024"
       style="fill:#072854;fill-opacity:1;stroke:none;display:inline" />
    <path
       d="m 220.44,472.36 -1.58,0 0,-6.15 0,0 -2.25,6.15 -1.52,0 -2.16,-6.15 0,0 0,6.15 -1.59,0 0,-7.73 2.74,0 1.81,5.05 0,0 1.88,-5.05 2.72,0 0,7.73 z m -10.58,-6.35 -2.34,0 0,6.35 -1.58,0 0,-6.35 -2.33,0 0,-1.38 6.25,0 0,1.38 z"
       id="path196-6"
       style="fill:#0e2b58;fill-opacity:1;fill-rule:nonzero;stroke:none;display:inline" />
  </g>
  <g
     transform="translate(0,-250)"
     id="layer7"
     style="display:inline">
    <path
       d="m 124.56,265.85 c -60.442,0 -109.485,49.05 -109.485,109.56 0,60.51 49.043,109.55 109.485,109.55 60.44,0 109.54,-49.04 109.54,-109.55 0,-60.51 -49.1,-109.56 -109.54,-109.56 z m 0,4.35 c 58.17,0 105.27,47.09 105.27,105.21 0,58.11 -47.1,105.21 -105.27,105.21 -58.175,0 -105.224,-47.1 -105.224,-105.21 0,-58.12 47.049,-105.21 105.224,-105.21 z"
       id="path3802"
       style="fill:#ea5b18;fill-opacity:1" />
    <path
       d="m 124.85,305.12 c -38.612,0 -69.978,31.33 -69.978,70.01 0,38.68 31.366,70.05 69.978,70.05 38.62,0 70.02,-31.37 70.02,-70.05 0,-38.68 -31.4,-70.01 -70.02,-70.01 z m 0,4.33 c 36.35,0 65.73,29.4 65.73,65.68 0,36.28 -29.38,65.69 -65.73,65.69 -36.346,0 -65.729,-29.41 -65.729,-65.69 0,-36.28 29.383,-65.68 65.729,-65.68 z"
       id="path3802-4"
       style="fill:#ea5b18;fill-opacity:1" />
  </g>
  <g
     transform="translate(0,-250)"
     id="layer5"
     style="display:inline">
    <path
       d="m 124.98,306.11 -15.55,47.45 -49.724,0 40.614,29.47 -15.668,47.5 40.328,-29.5 40.44,29.52 -15.5,-47.42 41.1,-29.57 -50.85,0 z"
       id="path4132"
       style="fill:#f48412;fill-opacity:1;stroke:none;display:inline" />
    <path
       d="m 180.1,357.11 -40.98,0 1.05,-3.55 -15.19,-47.45 0,68.91 -40.328,55.51 40.328,-29.5 40.44,29.52 -15.5,-47.42 41.1,-29.57 z"
       id="path4137"
       style="fill:#ea5b18;fill-opacity:1;stroke:none;display:inline" />
    <path
       d="m 100.32,383.03 4.34,-1.41 -33.81,-24.18 -11.144,-3.88 z"
       id="path4147"
       style="fill:#ec6e1c;fill-opacity:1;stroke:none;display:inline" />
  </g>
  <g
     id="layer9"
     style="display:inline">
    <path
       d="m 155.21,149.04 -2.06,-6.4 0,5.67 z"
       id="path4131"
       style="fill:#072854;fill-opacity:1;stroke:none" />
    <path
       d="m 94.776,149.73 2.053,-6.4 0,5.67 z"
       id="path4131-5"
       style="fill:#072854;fill-opacity:1;stroke:none" />
  </g>
  <g
     transform="translate(0,-250)"
     id="layer4"
     style="display:inline">
    <path
       d="m 87.826,401.41 0,11.29 32.304,0 0,-11.29 -8.92,-3.19 0,-13.7 27.55,0 0,13.7 -8.92,3.19 0,11.29 32.32,0 0,-11.28 -8.91,-3.19 0,-41.88 8.91,-3.19 0,-11.31 -32.32,0 0,11.31 8.92,3.19 0,13.7 -27.56,0 0,-13.7 8.9,-3.19 0,-11.3 0,0 -6.91,0 -25.403,0 0,11.31 8.919,3.18 0,19.45 0,4.35 0,18.09 z"
       id="path164"
       style="fill:#ffffff;fill-opacity:1;fill-rule:nonzero;stroke:none;display:inline" />
  </g>
  <g
     id="layer6"
     style="display:inline">
    <path
       d="m 162.18,103.15 0,-11.302 -2.87,2.885 0,6.387 -8.91,3.19 0,45.94 2.87,-2.03 0,-18.08 0,-23.47 0,-0.33 8.91,-3.19 z"
       id="path168"
       style="fill:#cac9c9;fill-opacity:1;stroke:none;display:inline" />
    <path
       d="m 162.18,151.41 -2.87,2.02 0,6.39 -26.56,0 -2.89,2.88 32.32,0 z"
       id="path172"
       style="fill:#cac9c9;fill-opacity:1;stroke:none;display:inline" />
    <path
       d="m 111.23,134.52 6.25,0 21.3,0 2.88,-2.87 -33.31,0 0,18.59 2.88,-2.01 0,-5.06 0,-8.65 z"
       id="path176"
       style="fill:#cac9c9;fill-opacity:1;stroke:none;display:inline" />
    <path
       d="m 120.14,154.2 0,-2.79 -2.88,2.01 0,6.41 -26.563,0 -2.863,2.87 2.384,0 6.897,0 11.325,0 11.7,0 0,-8.5 z"
       id="path180"
       style="fill:#cac9c9;fill-opacity:1;stroke:none;display:inline" />
    <path
       d="m 99.612,104.33 -8.922,-3.19 -2.867,2.03 8.919,3.19 2.87,-2.03 z"
       id="path184"
       style="fill:#cac9c9;fill-opacity:1;fill-rule:nonzero;stroke:none;display:inline" />
    <path
       d="m 132.74,101.13 -2.88,2.03 8.92,3.19 2.88,-2.02 -8.92,-3.2 z"
       id="path188"
       style="fill:#cac9c9;fill-opacity:1;stroke:none;display:inline" />
    <path
       d="m 120.16,103.15 0,-11.297 -2.88,2.879 0,6.388 -8.91,3.19 0,18.6 2.88,-2.87 0,-13.7 8.91,-3.19 z"
       id="path192"
       style="fill:#cac9c9;fill-opacity:1;stroke:none;display:inline" />
  </g>
  <g
     transform="translate(0,-250)"
     id="layer3"
     style="display:inline">
    <g
       transform="matrix(0.47909,0,0,0.47909,5.2095,255.25)"
       id="g4149"
       style="stroke:none;display:inline" />
    <g
       transform="matrix(0.47909,0,0,0.47909,5.1777,255.46)"
       id="g3807"
       style="stroke:none;display:inline">
      <g
         transform="translate(1.1908,0)"
         id="g3944"
         style="stroke:none">
        <g
           id="g3935"
           style="stroke:none" />
      </g>
    </g>
    <path
       d="m 170.01,458.91 -4.06,2.06 -0.74,-0.26 -6.32,-12.49 0.25,-0.75 4.06,-2.05 0.74,0.25 6.32,12.5 -0.25,0.74 z m -7.09,-17.34 -6.71,3.38 -1.16,3.55 7.63,15.15 3.55,1.16 6.71,-3.38 1.17,-3.55 -7.64,-15.15 -3.55,-1.16 z"
       id="path56-9-8"
       style="fill:#ffffff;fill-opacity:1;fill-rule:nonzero;stroke:none;display:inline" />
    <path
       d="m 104.87,455.54 2.62,0.42 1.22,-2.43 2.16,0.34 -2.34,15.01 -1.58,0.46 -0.43,2.76 6.49,1.01 0.43,-2.76 -1.38,-0.91 2.34,-15.02 2.16,0.33 0.42,2.68 2.62,0.41 0.95,-6.07 -14.74,-2.3 -0.94,6.07 z"
       id="path60-4-5"
       style="fill:#ffffff;fill-opacity:1;fill-rule:nonzero;stroke:none;display:inline" />
    <path
       d="m 83.767,442.88 -3.418,6.81 1.178,3.55 5.257,2.64 0.253,0.74 -2.092,4.17 -0.747,0.25 -4.506,-2.26 0.204,-2.2 -2.402,-1.22 -2.52,5.05 8.944,4.49 3.55,-1.18 3.419,-6.82 -1.176,-3.54 -5.263,-2.65 -0.25,-0.74 2.089,-4.17 0.75,-0.25 4.504,2.26 -0.211,2.21 2.405,1.2 2.532,-5.03 -8.958,-4.49 -3.542,1.18 z"
       id="path64-8-7"
       style="fill:#ffffff;fill-opacity:1;fill-rule:nonzero;stroke:none;display:inline" />
    <path
       d="m 188.03,433.47 -4.2,4.14 -0.78,0 -3.28,-3.34 0,-0.78 3.59,-3.53 2.01,0.91 1.93,-1.9 -3.96,-4 -7.13,7.02 0,3.75 5.35,5.42 3.74,0 4.19,-4.13 0.79,0 3.27,3.32 0,0.79 -3.58,3.53 -2.02,-0.91 -1.92,1.9 3.95,4.01 7.13,-7.04 0,-3.73 -5.35,-5.43 -3.73,0 z"
       id="path68-8-6"
       style="fill:#ffffff;fill-opacity:1;fill-rule:nonzero;stroke:none;display:inline" />
    <path
       d="m 140.71,459.43 -4.9,0.77 -0.91,-5.7 4.91,-0.77 0.63,0.46 0.72,4.6 -0.45,0.64 z m 4.98,8.31 -2.63,-5.48 1.85,-2.56 -1.18,-7.53 -3.02,-2.19 -11.37,1.79 0.43,2.76 1.59,0.45 2.39,15.08 -1.38,0.93 0.44,2.76 6.49,-1.03 -0.44,-2.76 -1.59,-0.45 -0.9,-5.78 3.2,-0.5 2.53,5.26 -1.15,0.77 0.43,2.76 6.49,-1.02 -0.44,-2.76 -1.74,-0.5 z"
       id="path72-2-1"
       style="fill:#ffffff;fill-opacity:1;fill-rule:nonzero;stroke:none;display:inline" />
    <path
       d="m 60.708,437.06 7.569,-5.52 1.046,1.02 -5.384,7.68 -3.231,-3.18 z m 7.912,-10.18 -15.357,11.22 -1.544,-0.55 -1.959,1.99 4.693,4.6 1.953,-2 -0.572,-1.52 1.953,-1.42 4.075,3.99 -1.392,2 -1.529,-0.55 -1.959,1.98 4.693,4.6 1.96,-1.99 -0.579,-1.53 10.93,-15.56 -5.366,-5.26 z"
       id="path76-45-8"
       style="fill:#ffffff;fill-opacity:1;fill-rule:nonzero;stroke:none;display:inline" />
    <path
       d="m 57.422,332.17 2.209,1.71 4.03,-5.18 -2.203,-1.72 -1.471,0.76 -4.618,-3.59 3.388,-4.36 4.621,3.59 -0.377,1.61 2.207,1.72 4.033,-5.18 -2.207,-1.73 -1.474,0.77 -12.054,-9.38 0.377,-1.6 -2.203,-1.72 -4.033,5.18 2.212,1.73 1.465,-0.77 4.612,3.59 -3.382,4.36 -4.624,-3.59 0.38,-1.61 -2.21,-1.72 -4.036,5.19 2.216,1.72 1.461,-0.76 12.061,9.37 -0.38,1.61 z"
       id="path80-5-9"
       style="fill:#ffffff;fill-opacity:1;fill-rule:nonzero;stroke:none;display:inline" />
    <path
       d="m 176.67,295.21 0.76,-0.13 3.75,2.58 0.13,0.77 -7.97,11.52 -0.76,0.14 -3.75,-2.59 -0.14,-0.77 7.98,-11.52 z m -4.92,18.65 3.68,-0.67 9.65,-13.94 -0.66,-3.68 -6.17,-4.28 -3.68,0.68 -9.65,13.94 0.67,3.68 6.16,4.27 z"
       id="path84-1-2"
       style="fill:#ffffff;fill-opacity:1;fill-rule:nonzero;stroke:none;display:inline" />
    <path
       d="m 68.726,297.71 3.741,-2.59 0.771,0.14 7.985,11.51 -0.139,0.77 -3.737,2.59 -0.775,-0.14 -7.985,-11.49 0.139,-0.79 z m 9.444,16.19 6.158,-4.28 0.666,-3.67 -9.673,-13.94 -3.674,-0.66 -6.168,4.27 -0.672,3.69 9.679,13.93 3.684,0.66 z"
       id="path88-7-7"
       style="fill:#ffffff;fill-opacity:1;fill-rule:nonzero;stroke:none;display:inline" />
    <path
       d="m 90.368,285.63 4.817,15.38 3.312,1.72 7.163,-2.24 1.73,-3.32 -4.81,-15.38 1.22,-1.1 -0.84,-2.67 -6.271,1.96 0.844,2.68 1.634,0.2 4.383,13.97 -0.37,0.7 -4.336,1.36 -0.699,-0.36 -4.377,-13.97 1.23,-1.11 -0.841,-2.67 -6.267,1.97 0.835,2.66 1.643,0.22 z"
       id="path92-1-9"
       style="fill:#ffffff;fill-opacity:1;fill-rule:nonzero;stroke:none;display:inline" />
    <path
       d="m 145.5,297.92 -0.84,2.68 6.27,1.95 0.83,-2.67 -1.22,-1.11 4.52,-14.5 2.09,0.64 0,2.72 2.53,0.79 1.84,-5.87 -14.24,-4.44 -1.83,5.86 2.53,0.8 1.56,-2.22 2.09,0.66 -4.52,14.5 -1.64,0.21 z"
       id="path96-1-5"
       style="fill:#ffffff;fill-opacity:1;fill-rule:nonzero;stroke:none;display:inline" />
    <path
       d="m 131.33,295.45 0,-7.62 -2.64,-2.64 -5.89,0 -0.55,-0.56 0,-4.66 0.55,-0.56 5.05,0 0.79,2.06 2.69,0 0,-5.62 -10.01,0 -2.64,2.63 0,7.64 2.64,2.63 5.89,0 0.55,0.56 0,4.66 -0.55,0.56 -5.04,0 -0.8,-2.06 -2.69,0 0,5.62 10.01,0 2.64,-2.64 z"
       id="path100-52-4"
       style="fill:#ffffff;fill-opacity:1;fill-rule:nonzero;stroke:none;display:inline" />
    <path
       d="m 203.98,315.14 -2.2,1.73 0.37,1.6 -8.21,6.39 7.66,-12.77 -3.48,-4.47 -2.21,1.73 0.38,1.59 -12.05,9.39 -1.46,-0.74 -2.22,1.71 4.04,5.18 2.21,-1.72 -0.37,-1.61 8.2,-6.4 -7.65,12.78 2.56,3.29 14.79,-11.54 1.47,0.77 2.21,-1.73 -4.04,-5.18 z"
       id="path104-7-3"
       style="fill:#ffffff;fill-opacity:1;fill-rule:nonzero;stroke:none;display:inline" />
  </g>
</svg>
