<?xml version="1.0" encoding="UTF-8" standalone="no"?>
<svg width="210px" height="108px" viewBox="0 0 210 108" version="1.1" xmlns="http://www.w3.org/2000/svg" xmlns:xlink="http://www.w3.org/1999/xlink">
    <!-- Generator: Sketch 3.6 (26304) - http://www.bohemiancoding.com/sketch -->
    <title>mlb</title>
    <desc>Created with Sketch.</desc>
    <defs></defs>
    <g id="Page-1" stroke="none" stroke-width="1" fill="none" fill-rule="evenodd">
        <g id="mlb" transform="translate(0.000000, -1.000000)">
            <g id="Group">
                <g id="Layer1" transform="translate(0.039910, 0.696260)">
                    <g id="path302" transform="translate(130.186475, 54.541909) scale(1, -1) translate(-130.186475, -54.541909) translate(54.888549, 0.785771)" fill="#FFFFFF">
                        <path d="M138.092432,107.396544 L12.4318361,107.396544 C5.66294892,107.396544 0.167438808,100.10445 0.167438808,91.1194488 L0.167438808,16.5315742 C0.167438808,7.54525758 5.66294892,0.259410355 12.4318361,0.259410355 L138.092432,0.259410355 C144.869246,0.259410355 150.358068,7.54525758 150.358068,16.5315742 L150.358068,91.1194488 C150.358068,100.10445 144.869246,107.396544 138.092432,107.396544" id="Shape"></path>
                    </g>
                    <g id="path304" transform="translate(177.747290, 54.329003) scale(1, -1) translate(-177.747290, -54.329003) translate(145.566980, 0.573258)" fill="#CC0000">
                        <path d="M52.1211323,0.0987350434 C58.7802625,0.0987350434 64.1960624,5.53684182 64.1960624,12.1732995 L64.1960624,95.1253633 C64.1960624,98.3550963 62.9454186,101.381874 60.6598852,103.653146 C58.3780086,105.938679 55.3501339,107.190054 52.1211323,107.190054 L0.263293449,107.190054 L30.0849334,57.4125993 L32.8202598,57.0769001 L34.4073342,54.7913667 L34.4073342,52.6444281 L36.3418097,52.2930044 L38.0532171,49.908736 L38.0641876,47.8605324 L39.9876926,47.520445 C39.9876926,47.520445 41.922168,45.4737041 41.922168,45.3636328 L41.922168,40.7011447 C41.922168,40.7011447 46.1202358,36.8427986 49.8904517,35.368721 C52.5014451,34.345899 52.8378756,30.1474656 54.326215,27.8721714 C56.3740529,24.6881491 59.0947519,23.3267025 58.5352533,21.5055895 C57.171247,16.6200333 52.1759851,8.44074915 47.5061833,7.97925424 C47.5061833,7.97925424 35.9139578,7.96499252 29.0939261,7.96499252 L29.1048967,0.0987350434 L52.1211323,0.0987350434" id="Shape"></path>
                    </g>
                    <g id="path306" transform="translate(82.851943, 54.329003) scale(1, -1) translate(-82.851943, -54.329003) translate(0.024212, 0.573258)" fill="#000088">
                        <path d="M128.128831,107.197368 L12.1389251,107.197368 C8.90919208,107.197368 5.88241447,105.935753 3.60821731,103.660459 C1.31281039,101.378948 0.0643606209,98.3507081 0.0643606209,95.1224378 L0.0643606209,12.170374 C0.0643606209,8.94064102 1.31281039,5.90252717 3.60821731,3.63125548 C5.88241447,1.34572207 8.90919208,0.0958095606 12.1389251,0.0958095606 L87.4792484,0.0958095606 C85.5776846,3.24692018 83.4640233,6.82807678 82.8204171,7.91635636 L73.8318713,7.91635636 C73.8172439,30.187691 81.4271559,42.5767448 90.4193586,44.9749093 C91.6553751,45.2137018 91.0812491,51.3345432 89.4941747,53.1556562 C89.4941747,53.1556562 85.1754307,53.0430251 84.2612174,53.2799892 C83.1239359,53.6171511 83.9138163,54.7427306 83.9138163,54.7427306 L88.1228546,63.8376908 L87.5596992,66.3462923 L71.9741898,66.3345903 C71.7474648,66.3345903 84.8243728,75.3169195 84.8243728,75.3169195 C85.4899201,98.9478722 109.694633,100.783613 124.347645,91.0271276 C133.010731,85.2302835 133.698219,73.8640516 133.025358,65.9074699 C132.911996,65.4463406 130.739825,65.7835025 130.739825,65.7835025 C130.739825,65.7835025 129.277083,57.152597 133.135064,57.152597 L150.172344,57.152597 C157.116709,57.3870013 163.823378,52.7387749 163.823378,52.7387749 L165.534785,58.6482501 L128.128831,107.197368" id="Shape"></path>
                    </g>
                    <g id="path312" transform="translate(25.073658, 82.669618) scale(1, -1) translate(-25.073658, -82.669618) translate(16.480053, 74.076012)" fill="#FFFFFF">
                        <path d="M8.55082044,16.9429334 C3.98121636,16.9202609 0.266950302,13.2162341 0.278652233,8.63785355 C0.278652233,4.05545048 3.98121636,0.34410991 8.56069394,0.34410991 C13.142,0.3543491 16.8544376,4.06678673 16.8544376,8.65942899 C16.8544376,13.2162341 13.1189618,16.9429334 8.55082044,16.9429334" id="Shape"></path>
                    </g>
                </g>
            </g>
        </g>
    </g>
</svg>