<?xml version="1.0" standalone="no"?>
<!DOCTYPE svg PUBLIC "-//W3C//DTD SVG 1.1//EN" "http://www.w3.org/Graphics/SVG/1.1/DTD/svg11.dtd">
<svg width="100%" height="100%" viewBox="0 0 210 130" version="1.1" xmlns="http://www.w3.org/2000/svg" xmlns:xlink="http://www.w3.org/1999/xlink" xml:space="preserve" style="fill-rule:evenodd;clip-rule:evenodd;stroke-linejoin:round;stroke-miterlimit:1.41421;">
    <g transform="matrix(1,0,0,1,-3,-0)">
        <g>
            <g id="Layer1" transform="matrix(1.02965,0,0,1.02965,-3.13799,-5.45199)">
                <g id="path302" transform="matrix(0.240558,0,0,-0.319316,-156.232,186.496)">
                    <path d="M1453.52,565.648L946.191,565.648C918.863,565.648 896.676,543.469 896.676,516.141L896.676,289.281C896.676,261.949 918.863,239.789 946.191,239.789L1453.52,239.789C1480.88,239.789 1503.04,261.949 1503.04,289.281L1503.04,516.141C1503.04,543.469 1480.88,565.648 1453.52,565.648" style="fill:white;fill-rule:nonzero;"/>
                </g>
                <g id="path304" transform="matrix(0.355155,0,0,-0.355155,-318.233,200.892)">
                    <path d="M1453.53,256.27C1471.74,256.27 1486.55,271.141 1486.55,289.289L1486.55,516.129C1486.55,524.961 1483.13,533.238 1476.88,539.449C1470.64,545.699 1462.36,549.121 1453.53,549.121L1311.72,549.121L1393.27,413L1400.75,412.082L1405.09,405.832L1405.09,399.961L1410.38,399L1415.06,392.48L1415.09,386.879L1420.35,385.949C1420.35,385.949 1425.64,380.352 1425.64,380.051L1425.64,367.301C1425.64,367.301 1437.12,356.75 1447.43,352.719C1454.57,349.922 1455.49,338.441 1459.56,332.219C1465.16,323.512 1472.6,319.789 1471.07,314.809C1467.34,301.449 1453.68,279.082 1440.91,277.82C1440.91,277.82 1409.21,277.781 1390.56,277.781L1390.59,256.27L1453.53,256.27" style="fill:rgb(204,0,0);fill-rule:nonzero;"/>
                </g>
                <g id="path306" transform="matrix(0.355155,0,0,-0.355155,-318.233,200.892)">
                    <path d="M1263.38,549.141L946.195,549.141C937.363,549.141 929.086,545.691 922.867,539.469C916.59,533.23 913.176,524.949 913.176,516.121L913.176,289.281C913.176,280.449 916.59,272.141 922.867,265.93C929.086,259.68 937.363,256.262 946.195,256.262L1152.22,256.262C1147.02,264.879 1141.24,274.672 1139.48,277.648L1114.9,277.648C1114.86,338.551 1135.67,372.43 1160.26,378.988C1163.64,379.641 1162.07,396.379 1157.73,401.359C1157.73,401.359 1145.92,401.051 1143.42,401.699C1140.31,402.621 1142.47,405.699 1142.47,405.699L1153.98,430.57L1152.44,437.43L1109.82,437.398C1109.2,437.398 1144.96,461.961 1144.96,461.961C1146.78,526.582 1212.97,531.602 1253.04,504.922C1276.73,489.07 1278.61,457.988 1276.77,436.23C1276.46,434.969 1270.52,435.891 1270.52,435.891C1270.52,435.891 1266.52,412.289 1277.07,412.289L1323.66,412.289C1342.65,412.93 1360.99,400.219 1360.99,400.219L1365.67,416.379L1263.38,549.141" style="fill:rgb(0,0,136);fill-rule:nonzero;"/>
                </g>
                <g id="path312" transform="matrix(0.355155,0,0,-0.355155,-318.233,200.892)">
                    <path d="M981.383,348.332C968.887,348.27 958.73,338.141 958.762,325.621C958.762,313.09 968.887,302.941 981.41,302.941C993.938,302.969 1004.09,313.121 1004.09,325.68C1004.09,338.141 993.875,348.332 981.383,348.332" style="fill:white;fill-rule:nonzero;"/>
                </g>
            </g>
            <g transform="matrix(2.40786,0,0,2.00268,-51.2076,-114.029)">
                <g id="Layer2">
                    <g>
                        <path d="M25.439,121.546L24.611,116.002L24.563,115.63L24.491,115.63L24.491,121.546L23.291,121.546L23.291,112.726L24.875,112.726L25.643,116.758L25.703,117.226L25.727,117.226L25.787,116.758L26.555,112.726L28.139,112.726L28.139,121.546L26.939,121.546L26.939,115.63L26.867,115.63L26.819,116.002L25.991,121.546L25.439,121.546Z" style="fill:black;fill-rule:nonzero;"/>
                        <path d="M28.979,121.546L30.311,112.726L31.895,112.726L33.227,121.546L31.967,121.546L31.727,119.746L30.479,119.746L30.239,121.546L28.979,121.546ZM31.175,115.594L31.139,115.366L31.067,115.366L31.031,115.594L30.659,118.378L31.547,118.378L31.175,115.594Z" style="fill:black;fill-rule:nonzero;"/>
                        <path d="M33.659,120.358C33.911,120.394 34.103,120.334 34.247,120.142C34.319,120.058 34.355,119.914 34.355,119.71L34.355,112.726L35.651,112.726L35.651,119.914C35.651,120.394 35.531,120.838 35.231,121.162C34.931,121.486 34.427,121.678 33.659,121.63L33.659,120.358Z" style="fill:black;fill-rule:nonzero;"/>
                        <path d="M40.163,119.734C40.151,120.094 40.079,120.418 39.947,120.694C39.839,120.934 39.671,121.162 39.431,121.342C39.191,121.534 38.867,121.642 38.435,121.642C38.003,121.642 37.667,121.534 37.427,121.342C37.187,121.162 37.031,120.934 36.923,120.694C36.791,120.418 36.719,120.094 36.707,119.734L36.707,114.538C36.719,114.19 36.791,113.866 36.923,113.59C37.031,113.35 37.187,113.11 37.427,112.93C37.667,112.75 38.003,112.63 38.435,112.63C38.867,112.63 39.191,112.75 39.431,112.93C39.671,113.11 39.839,113.35 39.947,113.59C40.079,113.866 40.151,114.19 40.163,114.538L40.163,119.734ZM38.867,114.538C38.867,114.298 38.819,114.13 38.699,113.986C38.639,113.926 38.543,113.89 38.435,113.89C38.207,113.89 38.099,114.058 38.051,114.214C38.015,114.31 38.003,114.418 38.003,114.538L38.003,119.734C38.003,119.986 38.063,120.154 38.183,120.286C38.243,120.346 38.327,120.382 38.435,120.382C38.663,120.382 38.771,120.238 38.819,120.058C38.855,119.974 38.867,119.866 38.867,119.734L38.867,114.538Z" style="fill:black;fill-rule:nonzero;"/>
                        <path d="M43.595,121.546L42.923,117.826L42.575,117.826L42.575,121.546L41.279,121.546L41.279,112.726L42.575,112.726C44.123,112.726 44.783,113.602 44.783,115.27C44.783,116.146 44.555,116.938 44.063,117.274L44.891,121.546L43.595,121.546ZM42.575,116.626C42.755,116.626 42.995,116.602 43.187,116.434C43.379,116.266 43.535,115.942 43.535,115.318C43.535,114.694 43.379,114.358 43.187,114.19C42.995,114.022 42.755,114.01 42.575,114.01L42.575,116.626Z" style="fill:black;fill-rule:nonzero;"/>
                        <path d="M47.939,112.726L49.235,112.726L49.235,120.346L50.951,120.346L50.951,121.546L47.939,121.546L47.939,112.726Z" style="fill:black;fill-rule:nonzero;"/>
                        <path d="M51.719,112.726L54.683,112.726L54.683,114.058L53.015,114.058L53.015,116.374L54.215,116.374L54.215,117.79L53.015,117.79L53.015,120.214L54.683,120.214L54.683,121.546L51.719,121.546L51.719,112.726Z" style="fill:black;fill-rule:nonzero;"/>
                        <path d="M55.307,121.546L56.639,112.726L58.223,112.726L59.555,121.546L58.295,121.546L58.055,119.746L56.807,119.746L56.567,121.546L55.307,121.546ZM57.503,115.594L57.467,115.366L57.395,115.366L57.359,115.594L56.987,118.378L57.875,118.378L57.503,115.594Z" style="fill:black;fill-rule:nonzero;"/>
                        <path d="M62.471,115.894L62.471,114.538C62.471,114.298 62.423,114.13 62.303,113.986C62.243,113.926 62.147,113.89 62.039,113.89C61.811,113.89 61.703,114.058 61.655,114.214C61.619,114.31 61.607,114.418 61.607,114.538L61.607,119.842C61.607,120.094 61.667,120.262 61.787,120.394C61.847,120.454 61.931,120.49 62.039,120.49C62.267,120.49 62.375,120.346 62.423,120.166C62.459,120.082 62.471,119.974 62.471,119.842L62.471,118.246L61.955,118.246L61.955,117.154L63.767,117.154L63.767,121.546L62.999,121.546L62.843,121.126C62.603,121.426 62.255,121.642 61.835,121.642C61.415,121.642 61.127,121.534 60.911,121.342C60.695,121.162 60.551,120.934 60.455,120.694C60.347,120.418 60.299,120.094 60.311,119.734L60.311,114.538C60.323,114.19 60.395,113.866 60.527,113.59C60.635,113.35 60.791,113.11 61.031,112.93C61.271,112.75 61.607,112.63 62.039,112.63C62.471,112.63 62.795,112.75 63.035,112.93C63.275,113.11 63.443,113.35 63.551,113.59C63.683,113.866 63.755,114.19 63.767,114.538L63.767,115.894L62.471,115.894Z" style="fill:black;fill-rule:nonzero;"/>
                        <path d="M68.399,112.726L68.399,119.734C68.387,120.094 68.315,120.418 68.183,120.694C68.075,120.934 67.907,121.162 67.667,121.342C67.427,121.534 67.103,121.642 66.671,121.642C66.239,121.642 65.903,121.534 65.663,121.342C65.423,121.162 65.267,120.934 65.159,120.694C65.027,120.418 64.955,120.094 64.943,119.734L64.943,112.726L66.239,112.726L66.239,119.734C66.239,119.986 66.299,120.154 66.419,120.286C66.479,120.346 66.563,120.382 66.671,120.382C66.899,120.382 67.007,120.238 67.055,120.058C67.091,119.974 67.103,119.866 67.103,119.734L67.103,112.726L68.399,112.726Z" style="fill:black;fill-rule:nonzero;"/>
                        <path d="M69.587,112.726L72.551,112.726L72.551,114.058L70.883,114.058L70.883,116.374L72.083,116.374L72.083,117.79L70.883,117.79L70.883,120.214L72.551,120.214L72.551,121.546L69.587,121.546L69.587,112.726Z" style="fill:black;fill-rule:nonzero;"/>
                        <path d="M75.599,121.546L75.599,112.726L76.739,112.726C77.507,112.726 78.107,112.87 78.503,113.242C78.899,113.614 79.103,114.19 79.103,115.066C79.103,115.486 79.067,115.798 78.935,116.086C78.803,116.374 78.599,116.614 78.299,116.89C78.623,117.07 78.863,117.406 79.055,117.97C79.151,118.246 79.199,118.606 79.199,119.05C79.199,119.71 79.079,120.298 78.779,120.754C78.479,121.21 77.963,121.51 77.195,121.546L75.599,121.546ZM76.895,116.362C77.003,116.362 77.255,116.374 77.471,116.23C77.687,116.086 77.855,115.798 77.855,115.186C77.855,114.574 77.687,114.286 77.471,114.142C77.255,113.998 77.003,114.01 76.895,114.01L76.895,116.362ZM76.895,120.262C77.003,120.262 77.255,120.286 77.471,120.13C77.687,119.974 77.855,119.626 77.855,118.906C77.855,118.186 77.687,117.838 77.471,117.682C77.255,117.526 77.003,117.55 76.895,117.55L76.895,120.262Z" style="fill:black;fill-rule:nonzero;"/>
                        <path d="M79.847,121.546L81.179,112.726L82.763,112.726L84.095,121.546L82.835,121.546L82.595,119.746L81.347,119.746L81.107,121.546L79.847,121.546ZM82.043,115.594L82.007,115.366L81.935,115.366L81.899,115.594L81.527,118.378L82.415,118.378L82.043,115.594Z" style="fill:black;fill-rule:nonzero;"/>
                        <path d="M86.963,115.09C86.963,114.802 86.951,114.478 86.867,114.226C86.783,113.986 86.651,113.818 86.447,113.818C86.111,113.83 86.003,114.178 86.003,114.694C86.003,114.994 86.135,115.306 86.327,115.642C86.519,115.978 86.771,116.326 87.023,116.698C87.323,117.142 87.623,117.598 87.851,118.042C88.079,118.486 88.235,118.942 88.235,119.422C88.235,120.01 88.139,120.562 87.863,120.97C87.587,121.378 87.143,121.642 86.435,121.642C85.607,121.642 85.139,121.33 84.875,120.85C84.611,120.37 84.551,119.734 84.551,119.074L85.823,118.954C85.823,119.326 85.835,119.698 85.931,119.974C86.015,120.262 86.159,120.454 86.435,120.454C86.819,120.454 86.963,120.046 86.963,119.482C86.963,119.194 86.819,118.858 86.627,118.51C86.519,118.342 86.411,118.162 86.291,117.982C86.039,117.622 85.763,117.214 85.475,116.77C85.187,116.326 84.971,115.87 84.839,115.402C84.767,115.174 84.731,114.934 84.731,114.694C84.731,114.214 84.839,113.698 85.115,113.302C85.391,112.918 85.811,112.642 86.423,112.63C87.203,112.618 87.659,112.942 87.911,113.41C88.163,113.89 88.235,114.478 88.235,114.97L86.963,115.09Z" style="fill:black;fill-rule:nonzero;"/>
                        <path d="M89.171,112.726L92.135,112.726L92.135,114.058L90.467,114.058L90.467,116.374L91.667,116.374L91.667,117.79L90.467,117.79L90.467,120.214L92.135,120.214L92.135,121.546L89.171,121.546L89.171,112.726Z" style="fill:black;fill-rule:nonzero;"/>
                        <path d="M93.095,121.546L93.095,112.726L94.235,112.726C95.003,112.726 95.603,112.87 95.999,113.242C96.395,113.614 96.599,114.19 96.599,115.066C96.599,115.486 96.563,115.798 96.431,116.086C96.299,116.374 96.095,116.614 95.795,116.89C96.119,117.07 96.359,117.406 96.551,117.97C96.647,118.246 96.695,118.606 96.695,119.05C96.695,119.71 96.575,120.298 96.275,120.754C95.975,121.21 95.459,121.51 94.691,121.546L93.095,121.546ZM94.391,116.362C94.499,116.362 94.751,116.374 94.967,116.23C95.183,116.086 95.351,115.798 95.351,115.186C95.351,114.574 95.183,114.286 94.967,114.142C94.751,113.998 94.499,114.01 94.391,114.01L94.391,116.362ZM94.391,120.262C94.499,120.262 94.751,120.286 94.967,120.13C95.183,119.974 95.351,119.626 95.351,118.906C95.351,118.186 95.183,117.838 94.967,117.682C94.751,117.526 94.499,117.55 94.391,117.55L94.391,120.262Z" style="fill:black;fill-rule:nonzero;"/>
                        <path d="M97.343,121.546L98.675,112.726L100.259,112.726L101.591,121.546L100.331,121.546L100.091,119.746L98.843,119.746L98.603,121.546L97.343,121.546ZM99.539,115.594L99.503,115.366L99.431,115.366L99.395,115.594L99.023,118.378L99.911,118.378L99.539,115.594Z" style="fill:black;fill-rule:nonzero;"/>
                        <path d="M102.431,112.726L103.727,112.726L103.727,120.346L105.443,120.346L105.443,121.546L102.431,121.546L102.431,112.726Z" style="fill:black;fill-rule:nonzero;"/>
                        <path d="M106.211,112.726L107.507,112.726L107.507,120.346L109.223,120.346L109.223,121.546L106.211,121.546L106.211,112.726Z" style="fill:black;fill-rule:nonzero;"/>
                    </g>
                </g>
            </g>
        </g>
    </g>
</svg>
