<?xml version="1.0" encoding="utf-8"?>
<!DOCTYPE svg PUBLIC "-//W3C//DTD SVG 1.1//EN" "http://www.w3.org/Graphics/SVG/1.1/DTD/svg11.dtd">
<svg version="1.1" xmlns:svg="http://www.w3.org/2000/svg" xmlns:rdf="http://www.w3.org/1999/02/22-rdf-syntax-ns#" xmlns="http://www.w3.org/2000/svg" xmlns:xlink="http://www.w3.org/1999/xlink" x="0px" y="0px" width="480.004px" height="480.004px" viewBox="10.001 9.999 480.004 480.004" enable-background="new 10.001 9.999 480.004 480.004" xml:space="preserve">
<path fill="#1C3465" d="M490.006,250.002c0,31.414-6.245,62.821-18.268,91.846c-12.021,29.023-29.81,55.647-52.026,77.858c-22.211,22.217-48.835,40.006-77.858,52.027c-29.024,12.024-60.432,18.27-91.851,18.27c-31.413,0-62.815-6.245-91.839-18.27c-29.029-12.021-55.648-29.811-77.865-52.027c-22.217-22.211-40.005-48.835-52.026-77.858c-12.023-29.024-18.271-60.432-18.271-91.846c0-31.418,6.247-62.821,18.271-91.845c12.021-29.024,29.81-55.648,52.026-77.865s48.835-40.004,77.865-52.026c29.024-12.022,60.426-18.268,91.839-18.268c31.419,0,62.827,6.246,91.851,18.268c29.023,12.022,55.647,29.81,77.858,52.026c22.217,22.217,40.005,48.841,52.026,77.865C483.761,187.181,490.006,218.583,490.006,250.002z"/>
<path fill="#1C3465" d="M414.039,456.674v-9.345h-3.338v-1.898h8.94v1.898h-3.333v9.345H414.039L414.039,456.674z M421.954,456.674v-11.243h3.398l2.04,7.668l2.018-7.668h3.404v11.243h-2.105v-8.854l-2.236,8.854h-2.182l-2.226-8.854v8.854H421.954z"/>
<path fill="#FFFFFF" d="M249.659,80.096c-22.064,0-44.112,4.38-64.49,12.829c-20.384,8.444-39.061,20.929-54.655,36.53c-15.601,15.6-28.075,34.288-36.513,54.666c-8.438,20.378-12.808,42.404-12.802,64.458l0,0c0,22.053,4.364,44.079,12.802,64.457c8.438,20.379,20.913,39.066,36.513,54.667c15.595,15.601,34.271,28.091,54.655,36.535c20.378,8.443,42.426,12.823,64.49,12.823c22.063,0,44.095-4.38,64.479-12.823l0.109-0.055c20.341-8.444,38.979-20.913,54.546-36.485c15.596-15.601,28.075-34.289,36.508-54.667c8.438-20.378,12.808-42.404,12.803-64.457l0,0c0-22.053-4.364-44.079-12.803-64.458c-8.433-20.378-20.913-39.066-36.508-54.666c-15.6-15.6-34.276-28.086-54.655-36.53l-0.207-0.082c-20.323-8.389-42.284-12.747-64.271-12.747V80.096z M249.659,87.498c21.071,0,42.153,4.194,61.621,12.262c19.473,8.067,37.337,20.008,52.238,34.916l0,0c14.896,14.907,26.837,32.782,34.894,52.255c8.067,19.473,12.251,40.566,12.245,61.643l0,0c0,21.082-4.178,42.169-12.245,61.647c-8.057,19.474-20.002,37.354-34.904,52.262c-14.902,14.902-32.766,26.848-52.239,34.915c-19.468,8.062-40.55,12.256-61.621,12.256c-21.077,0-42.159-4.194-61.626-12.256c-19.467-8.067-37.348-20.013-52.25-34.915l-0.142-0.153c-14.749-14.798-26.597-32.504-34.631-51.797l-0.131-0.312c-8.062-19.479-12.251-40.565-12.246-61.647l0,0c0-21.077,4.184-42.17,12.246-61.643c8.062-19.478,20.007-37.358,34.904-52.261c14.902-14.907,32.782-26.848,52.25-34.915c19.468-8.067,40.55-12.262,61.626-12.262L249.659,87.498z"/>
<path fill="#FFFFFF" d="M249.801,21.055c-29.766,0-59.51,5.918-87.012,17.308c-27.497,11.395-52.708,28.239-73.763,49.293c-21.05,21.049-37.899,46.255-49.291,73.763c-11.393,27.502-17.305,57.247-17.305,87.018c0,29.771,5.913,59.526,17.305,87.034c11.392,27.502,28.241,52.713,49.291,73.763c21.055,21.05,46.266,37.894,73.763,49.286c27.502,11.393,57.246,17.31,87.012,17.31c29.766,0,59.499-5.917,86.996-17.31c27.426-11.36,52.577-28.144,73.588-49.111l0.175-0.175c21.049-21.05,37.904-46.261,49.293-73.763c11.396-27.508,17.308-57.263,17.308-87.034c0-29.771-5.912-59.515-17.308-87.018c-11.389-27.507-28.244-52.713-49.293-73.763c-21.05-21.055-46.261-37.899-73.763-49.293C309.3,26.974,279.566,21.055,249.801,21.055L249.801,21.055z M249.801,28.49c28.789,0,57.59,5.738,84.187,16.757c26.597,11.018,50.995,27.322,71.353,47.673c20.351,20.356,36.666,44.771,47.684,71.368c11.014,26.591,16.74,55.365,16.74,84.148c0,28.778-5.727,57.568-16.74,84.159l-0.07,0.164c-11.014,26.531-27.301,50.892-47.613,71.205c-20.357,20.356-44.756,36.654-71.353,47.673c-26.597,11.018-55.397,16.742-84.187,16.742c-28.79,0-57.584-5.725-84.181-16.742c-26.603-11.019-51.012-27.316-71.369-47.673c-20.356-20.357-36.671-44.771-47.685-71.369c-11.014-26.591-16.744-55.381-16.744-84.159c0-28.74,5.708-57.47,16.69-84.028l0.055-0.12c11.012-26.597,27.327-51.012,47.684-71.368c20.357-20.351,44.766-36.655,71.369-47.673C192.216,34.228,221.011,28.49,249.801,28.49L249.801,28.49z"/>
<path fill="#FFFFFF" d="M55.943,202.503c-0.333,1.173-0.742,2.029-1.222,2.563c-0.48,0.54-1.364,0.649-2.64,0.322c-0.955-0.152-1.593-0.6-1.915-1.342c-0.322-0.736-0.186-2.264,0.409-4.576c0.382-1.778,0.851-3.017,1.407-3.709c0.556-0.692,1.653-0.818,3.284-0.387l2.187-8.52L56.08,186.5c-3.016-0.736-5.345-0.666-6.987,0.213c-1.635,0.883-2.869,2.302-3.694,4.254c-0.826,1.953-1.528,4.162-2.103,6.638c-0.797,2.896-1.27,5.444-1.413,7.642c-0.143,2.198,0.367,4.047,1.53,5.553c1.165,1.5,3.311,2.662,6.438,3.48c3.12,0.791,5.493,0.851,7.118,0.175c1.631-0.671,2.875-1.926,3.742-3.77c0.867-1.838,1.718-4.113,2.547-6.829l0.638-1.915c0.584-2.002,1.107-3.251,1.571-3.747c0.458-0.497,1.375-0.535,2.727-0.115c1.358,0.316,2.117,0.938,2.269,1.871c0.158,0.927-0.054,2.416-0.627,4.462c-0.491,2.149-1.075,3.573-1.746,4.271c-0.676,0.692-1.844,0.807-3.507,0.338l-2.188,8.52c3.579,0.906,6.306,0.971,8.188,0.213c1.876-0.764,3.268-2.149,4.173-4.167c0.911-2.013,1.691-4.451,2.356-7.309c1.195-4.8,1.538-8.351,1.025-10.664c-0.518-2.308-1.543-3.884-3.087-4.724c-1.549-0.835-3.262-1.451-5.154-1.838c-3.666-1.053-6.338-0.867-8.019,0.556c-1.68,1.424-3.251,4.517-4.724,9.278L55.943,202.503L55.943,202.503z M85.835,165.788l6.104,0.922l4.015-8.444l-35.526-5.313l-5.973,12.583l26.608,24.061l4.091-8.607l-4.609-4.069L85.835,165.788z M79.005,164.572l-3.66,7.702l-11.657-10.162l0.055-0.082l15.278,2.542H79.005z M82.077,132.499l0.224-0.294l26.831,8.417l9.54-12.376l-27.224-20.973l-5.591,7.255l21.24,15.676l-0.224,0.289l-26.918-8.307l-9.453,12.273L97.72,155.43l5.597-7.26L82.077,132.499L82.077,132.499z M136.187,112.093l15.393-10.527c3.9-2.651,5.979-5.449,6.246-8.384c0.268-2.94-0.949-6.322-3.66-10.151l-4.059-5.935c-2.706-3.999-5.563-6.213-8.575-6.649c-3.016-0.431-6.469,0.72-10.375,3.453l-14.373,9.83L136.187,112.093L136.187,112.093z M128.85,85.136l6.622-4.527c1.282-0.944,2.444-1.326,3.469-1.146c1.037,0.18,2.155,1.167,3.376,2.962l4.058,5.935c1.053,1.5,1.571,2.875,1.565,4.129c0,1.254-0.698,2.362-2.073,3.322l-6.616,4.527L128.85,85.136L128.85,85.136z M160.558,57.356l-8.236,4.02l15.06,30.884l8.236-4.015L160.558,57.356z M182,56.811l14.831-4.904l-2.356-7.135l-23.537,7.778l10.784,32.629l23.842-7.876l-2.356-7.14l-15.142,5.007l-2.1-6.354l13.926-4.598l-2.002-6.049l-13.92,4.604L182,56.811L182,56.811z M239.159,48.235c-0.48-3.534-1.457-5.994-2.935-7.375c-1.473-1.375-3.365-2.089-5.667-2.138c-2.302-0.055-4.931,0.142-7.882,0.595c-3.354,0.376-6.196,1.031-8.531,1.958c-2.329,0.933-4.026,2.411-5.089,4.451c-1.058,2.035-1.353,4.909-0.895,8.618l1.135,8.814c0.469,3.639,1.423,6.306,2.869,8.013c1.445,1.702,3.409,2.716,5.885,3.038c2.482,0.328,5.509,0.235,9.077-0.267c4.025-0.469,7.091-1.195,9.202-2.166c2.105-0.971,3.453-2.499,4.042-4.577c0.589-2.073,0.622-5.002,0.098-8.787l-0.769-5.951l-15.497,1.991l0.813,6.316l6.273-0.808c0.344,2.302,0.142,3.906-0.594,4.811c-0.737,0.911-2.248,1.479-4.527,1.718c-2.335,0.398-4.107,0.262-5.318-0.409c-1.206-0.671-1.991-2.476-2.356-5.4l-0.709-5.542c-0.437-2.706-0.36-4.686,0.24-5.94c0.595-1.249,2.466-2.062,5.613-2.433c1.413-0.256,2.728-0.289,3.938-0.093c1.206,0.196,1.996,1.113,2.362,2.749L239.159,48.235L239.159,48.235z M262.357,73.038c4.707,0.479,8.569,0,11.58-1.489c3.006-1.473,4.74-4.778,5.198-9.911l0.714-9.688c0.295-5.149-0.938-8.673-3.697-10.571c-2.76-1.898-6.508-2.951-11.236-3.164c-4.708-0.48-8.564,0-11.575,1.489c-3.011,1.473-4.746,4.778-5.204,9.917l-0.709,9.682c-0.3,5.149,0.933,8.673,3.693,10.571C253.887,71.772,257.628,72.825,262.357,73.038z M262.946,65.085c-2.345-0.082-3.977-0.502-4.893-1.254c-0.911-0.748-1.293-2.362-1.14-4.838l0.566-7.724c0.213-2.449,0.824-3.977,1.833-4.582c1.015-0.6,2.689-0.774,5.019-0.518c2.356,0.087,4.004,0.507,4.941,1.254c0.938,0.747,1.305,2.346,1.092,4.795l-0.568,7.718c-0.152,2.477-0.746,4.021-1.783,4.626C266.972,65.167,265.287,65.341,262.946,65.085z M308.945,82.447l3.142-8.22l7.577,2.896c4.342,1.724,7.631,1.958,9.851,0.704c2.22-1.26,4.129-4.14,5.732-8.635c1.631-4.146,1.947-7.473,0.955-9.982c-0.993-2.509-3.464-4.5-7.418-5.973l-16.141-6.164l-12.257,32.101L308.945,82.447L308.945,82.447z M314.929,66.781l3.432-8.989l5.863,2.242c1.637,0.589,2.574,1.304,2.825,2.138c0.251,0.829,0.055,2.051-0.621,3.654c-0.715,2.019-1.424,3.218-2.128,3.589c-0.698,0.371-1.871,0.24-3.507-0.393L314.929,66.781L314.929,66.781z M351.993,97.437l-1.604,5.956l7.937,4.942l9.283-34.697l-11.825-7.358l-26.908,23.733l8.09,5.035l4.565-4.124L351.993,97.437z M353.974,90.787l-7.239-4.505l11.406-10.44l0.082,0.055l-4.249,14.896V90.787z M360.514,110.271l13.565,12.791c3.426,3.24,6.6,4.68,9.529,4.315c2.924-0.366,5.973-2.28,9.131-5.738l4.937-5.236c3.321-3.497,4.882-6.759,4.663-9.797c-0.218-3.033-2.078-6.164-5.585-9.398l-12.671-11.94L360.514,110.271L360.514,110.271z M385.283,97.354l5.836,5.498c1.194,1.059,1.816,2.105,1.86,3.153c0.055,1.042-0.677,2.351-2.171,3.922l-4.937,5.236c-1.238,1.342-2.477,2.144-3.704,2.405s-2.454-0.18-3.688-1.314l-5.831-5.498L385.283,97.354z M406.06,133.666l7.599-5.362l4.096,5.798c0.873,1.194,1.233,2.182,1.08,2.956c-0.158,0.769-0.861,1.582-2.11,2.427c-1.522,1.178-2.733,1.86-3.628,2.04c-0.895,0.175-1.876-0.507-2.945-2.062L406.06,133.666L406.06,133.666z M386.811,136.033l5.285,7.489l7.451-5.258l4.091,5.798c0.774,1.129,1.015,2.16,0.726,3.093c-0.289,0.938-0.982,1.756-2.078,2.46l-3.928,2.776l5.285,7.489l5.651-3.993c1.582-1.14,2.466-2.455,2.667-3.944c0.202-1.489-0.218-3.027-1.254-4.62l0.3-0.212c2.405,2.116,4.511,2.951,6.311,2.509c1.806-0.442,3.835-1.543,6.088-3.3c3.409-2.406,5.122-4.811,5.138-7.222c0-2.411-1.14-5.22-3.458-8.433l-10.2-14.449L386.811,136.033L386.811,136.033z M434.794,162.614l6.459,14.226l6.84-3.109l-10.249-22.571l-31.288,14.214l10.386,22.86l6.84-3.109l-6.595-14.515l6.093-2.771l6.061,13.353l5.798-2.634l-6.06-13.353L434.794,162.614L434.794,162.614z M442.676,201.172c-0.256-1.194-0.3-2.138-0.131-2.842c0.17-0.698,0.895-1.211,2.172-1.527c0.916-0.316,1.69-0.224,2.323,0.278c0.633,0.496,1.232,1.903,1.806,4.227c0.502,1.746,0.676,3.055,0.513,3.933c-0.169,0.873-1.075,1.5-2.717,1.893l2.101,8.542l1.38-0.338c3.005-0.774,5.023-1.936,6.049-3.485c1.031-1.555,1.445-3.387,1.249-5.493c-0.19-2.111-0.622-4.391-1.276-6.846c-0.671-2.935-1.456-5.4-2.367-7.407c-0.911-2.002-2.236-3.393-3.971-4.167c-1.74-0.78-4.179-0.786-7.32,0c-3.12,0.78-5.242,1.844-6.36,3.208c-1.112,1.358-1.62,3.054-1.517,5.089c0.109,2.029,0.432,4.44,0.982,7.222l0.349,1.991c0.426,2.04,0.557,3.387,0.382,4.047c-0.174,0.655-0.96,1.118-2.351,1.391c-1.348,0.36-2.308,0.169-2.886-0.578c-0.572-0.748-1.091-2.155-1.549-4.233c-0.584-2.122-0.747-3.655-0.48-4.587c0.263-0.933,1.238-1.582,2.924-1.958l-2.095-8.542c-3.583,0.9-6.016,2.127-7.314,3.682c-1.293,1.56-1.865,3.442-1.713,5.646c0.153,2.204,0.611,4.718,1.381,7.555c1.21,4.794,2.591,8.084,4.134,9.878c1.544,1.794,3.196,2.694,4.953,2.706c1.757,0,3.557-0.256,5.411-0.813c3.73-0.802,5.994-2.231,6.802-4.276s0.736-5.515-0.218-10.407l-0.645-3.758V201.172z"/>
<path fill="#FFFFFF" d="M85.917,377.248l8.427,9.245c1.62,1.909,3.186,3.065,4.68,3.475s3.278-0.327,5.356-2.214c1.14-0.972,1.876-1.975,2.215-3.012c0.333-1.031,0-2.22-1.064-3.562l0.186-0.169c1.211,0.943,2.329,1.287,3.354,1.031c1.025-0.263,2.078-0.912,3.158-1.953c1.838-1.702,2.618-3.301,2.329-4.789c-0.284-1.489-1.244-3.082-2.885-4.779l-8.34-9.146L85.917,377.248L85.917,377.248z M103.759,369.491l3.556,3.899c0.557,0.645,0.802,1.162,0.742,1.555c-0.06,0.393-0.36,0.813-0.895,1.261c-0.665,0.638-1.238,0.916-1.724,0.84c-0.485-0.076-1.085-0.523-1.789-1.337l-3.049-3.344L103.759,369.491z M97.371,375.312l3.284,3.6c0.698,0.726,1.085,1.343,1.162,1.844c0.071,0.507-0.24,1.075-0.949,1.702c-0.688,0.639-1.314,0.9-1.871,0.785c-0.556-0.114-1.172-0.551-1.843-1.314l-3.197-3.508L97.371,375.312L97.371,375.312z M121.797,406.124l-1.631,3.906l4.953,4.074l9.437-22.751l-7.375-6.066l-20.433,13.703l5.051,4.156l3.475-2.395L121.797,406.124z M123.739,401.782l-4.511-3.714l8.695-6.066l0.054,0.055l-4.233,9.742L123.739,401.782z M148.481,412.19c-0.698-0.464-1.172-0.906-1.429-1.331c-0.25-0.426-0.142-1.025,0.333-1.789c0.3-0.595,0.726-0.922,1.271-0.982c0.551-0.055,1.521,0.35,2.913,1.211c1.085,0.616,1.794,1.173,2.133,1.681c0.338,0.507,0.202,1.254-0.42,2.23l5.122,3.186l0.513-0.829c1.107-1.822,1.538-3.36,1.298-4.609c-0.24-1.254-0.911-2.356-2.018-3.294c-1.107-0.944-2.411-1.854-3.911-2.744c-1.729-1.118-3.3-1.947-4.707-2.493c-1.407-0.545-2.728-0.594-3.949-0.142c-1.222,0.453-2.422,1.615-3.6,3.497c-1.156,1.876-1.686,3.414-1.582,4.62c0.109,1.199,0.671,2.274,1.696,3.218c1.026,0.943,2.34,1.969,3.944,3.076l1.124,0.808c1.189,0.791,1.904,1.396,2.127,1.8c0.234,0.403,0.071,1.009-0.485,1.812c-0.485,0.823-1.047,1.188-1.691,1.096c-0.638-0.087-1.571-0.534-2.788-1.331c-1.309-0.764-2.116-1.435-2.433-2.018c-0.322-0.584-0.153-1.375,0.497-2.362l-5.127-3.186c-1.32,2.154-1.931,3.928-1.816,5.313c0.109,1.38,0.731,2.579,1.86,3.583c1.135,1.01,2.564,2.023,4.298,3.05c2.891,1.767,5.149,2.722,6.764,2.863c1.62,0.137,2.858-0.213,3.726-1.053c0.867-0.835,1.625-1.833,2.264-2.989c1.445-2.182,1.871-3.971,1.287-5.356c-0.583-1.396-2.285-3.06-5.1-5.002L148.481,412.19L148.481,412.19z M174.582,421.927l9.796,4.342l2.089-4.707l-15.535-6.896l-9.562,21.541l15.742,6.981l2.089-4.713l-9.993-4.429l1.86-4.194l9.191,4.074l1.767-3.993l-9.191-4.074L174.582,421.927L174.582,421.927z M189.445,447.705l12.065,3.3c2.395,0.745,4.331,0.888,5.81,0.433c1.483-0.459,2.596-2.036,3.344-4.736c0.441-1.435,0.529-2.678,0.256-3.73c-0.268-1.053-1.2-1.865-2.804-2.438l0.065-0.245c1.533,0.152,2.662-0.158,3.387-0.922c0.726-0.77,1.266-1.882,1.62-3.344c0.644-2.422,0.453-4.184-0.589-5.291c-1.042-1.107-2.706-1.937-5.002-2.493l-11.94-3.262L189.445,447.705L189.445,447.705z M200.366,431.604l5.089,1.391c0.813,0.251,1.304,0.551,1.457,0.916c0.158,0.365,0.136,0.884-0.077,1.544c-0.218,0.895-0.556,1.439-1.009,1.631c-0.453,0.196-1.195,0.142-2.226-0.169l-4.364-1.189L200.366,431.604z M198.085,439.938l4.696,1.287c0.982,0.235,1.637,0.546,1.969,0.934c0.338,0.387,0.371,1.036,0.109,1.947c-0.24,0.905-0.627,1.461-1.156,1.663c-0.535,0.202-1.287,0.164-2.258-0.125l-4.576-1.249L198.085,439.938L198.085,439.938z M235.155,452.651l0.796,4.159l6.376,0.669l-4.659-24.186l-9.496-0.998l-9.497,22.695l6.497,0.684l1.576-3.907L235.155,452.651z M234.386,447.956l-5.809-0.611l3.911-9.856h0.065l1.838,10.462L234.386,447.956z M258.113,433.627l-6.277,0.294l1.117,23.54l16.098-0.764l-0.257-5.461l-9.824,0.465L258.113,433.627L258.113,433.627z M282.087,430.894l-6.169,1.206l4.511,23.128l15.823-3.085l-1.047-5.365l-9.654,1.882L282.087,430.894L282.087,430.894z M334.909,428.21l0.3,0.622c0.578,1.2,0.655,2.095,0.224,2.679c-0.425,0.589-1.238,1.14-2.433,1.658c-1.625,0.796-2.804,0.948-3.529,0.452s-1.429-1.544-2.116-3.152l-1.587-3.312c-0.774-1.467-1.086-2.607-0.949-3.42c0.137-0.808,0.992-1.576,2.559-2.302c0.96-0.502,1.805-0.774,2.525-0.829c0.725-0.055,1.363,0.35,1.909,1.217l0.397,0.817l5.837-2.798l-0.398-0.818c-1.036-2.078-2.111-3.464-3.224-4.162c-1.112-0.697-2.367-0.889-3.78-0.572c-1.407,0.316-3.076,0.954-5.002,1.92c-2.1,0.966-3.807,1.996-5.11,3.093c-1.31,1.097-2.084,2.411-2.324,3.955c-0.24,1.543,0.186,3.475,1.287,5.792l2.635,5.493c1.233,2.536,2.553,4.173,3.96,4.909s2.924,0.89,4.561,0.458c1.636-0.431,3.414-1.135,5.335-2.11c1.254-0.563,2.416-1.195,3.485-1.898c1.068-0.704,1.903-1.669,2.509-2.891c0.534-1.255,0.665-2.444,0.382-3.567c-0.278-1.124-0.715-2.259-1.314-3.404l-0.3-0.622L334.909,428.21L334.909,428.21z M347.242,404.183l-5.247,3.464l12.981,19.664l13.451-8.881l-3.011-4.56l-8.209,5.416L347.242,404.183L347.242,404.183z M372.923,384.48l10.015,11.569c0.884,0.998,1.238,1.806,1.053,2.428c-0.181,0.621-0.786,1.347-1.812,2.171c-0.965,0.91-1.816,1.488-2.547,1.739c-0.726,0.251-1.517-0.104-2.356-1.068l-10.194-11.782l-4.751,4.113l10.276,11.874c1.194,1.451,2.351,2.481,3.469,3.082c1.118,0.6,2.428,0.622,3.928,0.06c1.494-0.556,3.414-1.854,5.754-3.884c2.635-2.203,4.168-4.265,4.599-6.18c0.437-1.92-0.365-4.036-2.4-6.354l-10.281-11.881L372.923,384.48L372.923,384.48z M402.345,388.997l8.144-9.491c1.696-1.844,2.656-3.535,2.875-5.067c0.224-1.532-0.726-3.218-2.848-5.046c-1.107-1.014-2.192-1.619-3.262-1.826c-1.063-0.208-2.203,0.289-3.403,1.488l-0.191-0.164c0.786-1.319,0.993-2.471,0.611-3.457c-0.382-0.982-1.156-1.947-2.324-2.896c-1.914-1.615-3.589-2.193-5.034-1.729s-2.907,1.62-4.391,3.452l-8.063,9.394L402.345,388.997L402.345,388.997z M392.461,372.24l3.437-4.004c0.572-0.633,1.059-0.943,1.456-0.927c0.393,0,0.846,0.257,1.358,0.736c0.715,0.578,1.063,1.112,1.042,1.604c0,0.497-0.382,1.14-1.102,1.942l-2.946,3.436L392.461,372.24L392.461,372.24z M399.023,377.869l3.169-3.697c0.633-0.781,1.194-1.244,1.69-1.381c0.491-0.137,1.091,0.109,1.8,0.736c0.721,0.605,1.053,1.189,1.01,1.762c-0.055,0.568-0.404,1.228-1.08,1.986l-3.088,3.6l-3.507-3.006H399.023z"/>
<path fill="#FFFFFF" stroke="#FFFFFF" stroke-width="0.16" d="M325.282,187.754c-6.944-6.224-19.113-14.329-36.655-14.329c-9.18,0-87.885,0.055-87.885,0.055v1.571c0,0,2.024,0.071,2.722,0.055c3.043,0.054,4.909,1.178,6.605,2.989c1.696,1.806,2.689,2.389,2.689,7.119c0,9.824,0,31.811,0,31.811h-24.605c-1.708,0-2.968-0.769-3.873-1.8c-0.9-1.031-1.227-2.051-1.227-3.535v-44.521c0-4.816,1.593-8.105,4.058-11.351c2.46-3.24,7.767-6.191,13.167-6.191h59.063c1.544,0,2.858,0.409,3.96,1.533c1.107,1.118,1.576,2.192,1.576,3.431s-0.256,2.815-2.258,4.32c-2.27,1.533-4.985,1.489-4.985,1.489v1.664h33.786v-12.251c0-6.813-2.193-12.856-7.566-17.722c-5.367-4.866-10.701-7.266-23.64-7.266h-58.272l-0.022-0.006c-13.276,0-24.949,6.137-32.204,14.177c-7.254,8.04-11.465,19.042-11.465,29.962v43.495c0,8.417,3.917,16.162,9.043,20.924c5.133,4.762,11.4,8.4,21.398,8.406c24.05,0,70.572,0,72.891,0c1.429,0,2.836,0.714,3.714,1.712c0.879,0.999,1.305,2.188,1.305,3.256v40.489c0,4.343-1.812,8.619-4.305,11.472c-2.492,2.858-6.943,6.213-13.696,6.213h-11.045v-53.821h-24.819v53.821h-24.605c-1.577,0-2.744-0.616-3.676-1.55c-0.933-0.932-1.424-2.273-1.424-3.551c0-1.652,0.093-23.623,0.093-23.623s0-2.548,0.671-3.938c0.556-1.151,1.129-2.341,2.002-3.272c1.069-1.141,2.373-2.123,3.818-2.706c1.713-0.692,5.487-0.84,5.487-0.84v-1.653h-36.846v36.033c0,6.885,2.487,14.951,8.585,21.066c6.098,6.114,13.336,8.875,21.295,8.875h24.606v32.673c0,2.417-0.971,4.991-3.164,7.129c-2.193,2.144-4.926,2.962-6.159,3.272c-1.227,0.312-1.478,0.36-3.676,0.649v1.407l88.485-0.055c14.521,0,29.559-6.201,39.421-16.691c7.642-8.133,15.207-19.898,15.207-37.768c0-9.633-0.393-73.757,0-93.563C343.211,208.804,332.231,193.972,325.282,187.754z M318.027,324.021c0,6.916-2.902,13.756-7.609,18.388c-4.707,4.626-11.863,7.604-18.514,7.604h-54.349V329.76H251.9c8.651,0,18.852-2.559,27.765-11.139c8.918-8.586,11.733-19.99,11.733-28.129v-42.83c0-8.771-2.914-16.238-8.668-21.933c-5.755-5.694-13.354-8.716-21.322-8.716h-23.853v-18.66h53.843c8.039,0,14.477,2.853,19.184,7.893c4.713,5.045,7.445,11.651,7.445,17.33V324.021z"/>
</svg>
