<svg id="Layer_1" data-name="Layer 1" xmlns="http://www.w3.org/2000/svg" viewBox="0 0 598.82 53.42"><defs><style>.cls-1{fill:#fff;}.cls-2{fill:#00aeef;}</style></defs><title>sc-text</title><path class="cls-1" d="M364.09,296.36a9.83,9.83,0,0,0-1.79.16,5.4,5.4,0,0,0-1.54.51,3.25,3.25,0,0,0-1.08.89,2,2,0,0,0-.41,1.28,2.58,2.58,0,0,0,.57,1.78,4.67,4.67,0,0,0,1.72,1.12,25.47,25.47,0,0,0,2.88,1q1.72,0.48,4,1.26a28.35,28.35,0,0,1,5.38,2.43,17.3,17.3,0,0,1,4.16,3.37,15.09,15.09,0,0,1,2.08,16.52,16.79,16.79,0,0,1-4.17,5.27,19.42,19.42,0,0,1-6,3.43,20.74,20.74,0,0,1-7.07,1.23,19,19,0,0,1-5.95-.92,19.61,19.61,0,0,1-5.19-2.58,18.91,18.91,0,0,1-4.14-3.94,18.55,18.55,0,0,1-2.77-5l3.69-2.13a9.35,9.35,0,0,1,1.9-.8,7.11,7.11,0,0,1,2-.3,5.86,5.86,0,0,1,2.75.64q1.23,0.64,2.4,1.39t2.42,1.38a6.12,6.12,0,0,0,2.84.64,9,9,0,0,0,2.33-.34,9.33,9.33,0,0,0,2.34-1,6.1,6.1,0,0,0,1.79-1.58,3.53,3.53,0,0,0,.71-2.18,2.8,2.8,0,0,0-.66-1.92,5.68,5.68,0,0,0-1.78-1.3,18.65,18.65,0,0,0-2.58-1q-1.46-.46-3.05-1.1-2.63-1-5.19-2.17a19.66,19.66,0,0,1-4.58-2.89,12.66,12.66,0,0,1-4.55-10.32A13,13,0,0,1,349,293a14.09,14.09,0,0,1,3.71-4.53,16.76,16.76,0,0,1,5.27-2.82,19.34,19.34,0,0,1,6.09-1,13.12,13.12,0,0,1,4.42.76,20,20,0,0,1,4.07,2,24.81,24.81,0,0,1,3.59,2.79,34.49,34.49,0,0,1,3,3.2l-3.59,3a6.65,6.65,0,0,1-2.22,1.31,8,8,0,0,1-2.58.39,6.3,6.3,0,0,1-2-.28,16.46,16.46,0,0,1-1.6-.62q-0.75-.34-1.49-0.62A4.55,4.55,0,0,0,364.09,296.36Z" transform="translate(-344.77 -284.71)"/><path class="cls-1" d="M401.21,336.1H389.59V285.2h20.53a15.9,15.9,0,0,1,6.7,1.44,17.66,17.66,0,0,1,5.47,3.87,18.43,18.43,0,0,1,3.68,5.65,17.46,17.46,0,0,1,0,13.46,18.42,18.42,0,0,1-3.68,5.65,17.66,17.66,0,0,1-5.47,3.87,15.9,15.9,0,0,1-6.7,1.44h-8.92V336.1Zm9-27.17a4.31,4.31,0,0,0,2.06-.53A6.41,6.41,0,0,0,414,307a7,7,0,0,0,1.23-1.94,5.4,5.4,0,0,0,0-4.37,7,7,0,0,0-1.23-1.94,6.41,6.41,0,0,0-1.76-1.38,4.31,4.31,0,0,0-2.06-.53h-9v12.08h9Z" transform="translate(-344.77 -284.71)"/><path class="cls-1" d="M432.14,310.63a25.19,25.19,0,0,1,.94-6.91,26,26,0,0,1,12-15.49,26.57,26.57,0,0,1,6.25-2.61,26.43,26.43,0,0,1,13.85,0,26.6,26.6,0,0,1,6.25,2.61,26,26,0,0,1,12,15.49,25.82,25.82,0,0,1,0,13.82,26,26,0,0,1-12,15.49,26.52,26.52,0,0,1-6.25,2.61,26.49,26.49,0,0,1-13.87,0,26.56,26.56,0,0,1-6.23-2.61,26,26,0,0,1-12-15.49A25.19,25.19,0,0,1,432.14,310.63Zm11.61,0a13.42,13.42,0,0,0,1.17,5.56,14.77,14.77,0,0,0,7.78,7.64,14.41,14.41,0,0,0,11.13,0,14.72,14.72,0,0,0,7.8-7.64,13.77,13.77,0,0,0,0-11.12,14.69,14.69,0,0,0-3.16-4.55,15.2,15.2,0,0,0-4.64-3.07,14.2,14.2,0,0,0-11.13,0,15.24,15.24,0,0,0-4.62,3.07,14.65,14.65,0,0,0-3.16,4.55A13.42,13.42,0,0,0,443.76,310.63Z" transform="translate(-344.77 -284.71)"/><path class="cls-1" d="M504.38,336.1H492.77V285.2h20a17.77,17.77,0,0,1,9.71,2.75,16.28,16.28,0,0,1,3.48,3,18.26,18.26,0,0,1,2.52,3.69A18.63,18.63,0,0,1,530,298.7a17.4,17.4,0,0,1,.51,4.16,18.61,18.61,0,0,1-.44,4,17,17,0,0,1-1.4,3.92,17.58,17.58,0,0,1-2.49,3.68,20.47,20.47,0,0,1-3.69,3.29L536,336.1h-9.91A9,9,0,0,1,525,336a7.31,7.31,0,0,1-1.72-.5,9.58,9.58,0,0,1-2-1.17,9,9,0,0,1-2-2.17l-8.52-11.54h-6.36V336.1Zm9-27.17a4.31,4.31,0,0,0,2.06-.53,6.4,6.4,0,0,0,1.76-1.38,7,7,0,0,0,1.22-1.94,5.4,5.4,0,0,0,0-4.37,7,7,0,0,0-1.22-1.94,6.4,6.4,0,0,0-1.76-1.38,4.31,4.31,0,0,0-2.06-.53h-9v12.08h9Z" transform="translate(-344.77 -284.71)"/><path class="cls-1" d="M534.22,296V285.17h39.92V296H560V336.1H548.39V296H534.22Z" transform="translate(-344.77 -284.71)"/><path class="cls-1" d="M594.74,296.36a9.83,9.83,0,0,0-1.79.16,5.4,5.4,0,0,0-1.54.51,3.25,3.25,0,0,0-1.08.89,2,2,0,0,0-.41,1.28,2.58,2.58,0,0,0,.57,1.78,4.67,4.67,0,0,0,1.72,1.12,25.47,25.47,0,0,0,2.88,1q1.72,0.48,4,1.26a28.35,28.35,0,0,1,5.38,2.43,17.3,17.3,0,0,1,4.16,3.37,15.09,15.09,0,0,1,2.08,16.52,16.79,16.79,0,0,1-4.17,5.27,19.42,19.42,0,0,1-6,3.43,20.74,20.74,0,0,1-7.07,1.23,19,19,0,0,1-5.95-.92,19.61,19.61,0,0,1-5.19-2.58,18.91,18.91,0,0,1-4.14-3.94,18.55,18.55,0,0,1-2.77-5l3.69-2.13a9.35,9.35,0,0,1,1.9-.8,7.11,7.11,0,0,1,2-.3,5.86,5.86,0,0,1,2.75.64q1.23,0.64,2.4,1.39t2.42,1.38a6.12,6.12,0,0,0,2.84.64,9,9,0,0,0,2.33-.34,9.33,9.33,0,0,0,2.34-1,6.1,6.1,0,0,0,1.79-1.58,3.53,3.53,0,0,0,.71-2.18A2.8,2.8,0,0,0,600,318a5.68,5.68,0,0,0-1.78-1.3,18.65,18.65,0,0,0-2.58-1q-1.46-.46-3.05-1.1-2.63-1-5.19-2.17a19.66,19.66,0,0,1-4.58-2.89,12.66,12.66,0,0,1-4.55-10.32,13,13,0,0,1,1.4-6.13,14.09,14.09,0,0,1,3.71-4.53,16.76,16.76,0,0,1,5.27-2.82,19.34,19.34,0,0,1,6.09-1,13.12,13.12,0,0,1,4.42.76,20,20,0,0,1,4.07,2,24.81,24.81,0,0,1,3.59,2.79,34.49,34.49,0,0,1,3,3.2l-3.59,3a6.65,6.65,0,0,1-2.22,1.31,8,8,0,0,1-2.58.39,6.3,6.3,0,0,1-2-.28,16.46,16.46,0,0,1-1.6-.62q-0.75-.34-1.49-0.62A4.55,4.55,0,0,0,594.74,296.36Z" transform="translate(-344.77 -284.71)"/><path class="cls-1" d="M648.09,310.63a13.41,13.41,0,0,0,1.17,5.56,14.76,14.76,0,0,0,7.78,7.64,14.08,14.08,0,0,0,5.58,1.12,13,13,0,0,0,4.28-.69,16.06,16.06,0,0,0,3.75-1.87,7.41,7.41,0,0,1,4.26-1.28,7.73,7.73,0,0,1,3.16.59,8.05,8.05,0,0,1,2.42,1.69l3,3a38.13,38.13,0,0,1-4.67,4.23,31.63,31.63,0,0,1-5.12,3.2,27.17,27.17,0,0,1-5.45,2,22.93,22.93,0,0,1-5.65.71,25.86,25.86,0,0,1-6.93-.92,26.47,26.47,0,0,1-6.25-2.61,26,26,0,0,1-12-15.49,25.82,25.82,0,0,1,0-13.82,26,26,0,0,1,12-15.49,26.56,26.56,0,0,1,6.25-2.61,25.86,25.86,0,0,1,6.93-.92,22.93,22.93,0,0,1,5.65.71,27.29,27.29,0,0,1,5.45,2,31.7,31.7,0,0,1,5.12,3.2,38.21,38.21,0,0,1,4.67,4.23l-3,3a8.17,8.17,0,0,1-2.45,1.69,7.54,7.54,0,0,1-3.12.62,7.38,7.38,0,0,1-4.26-1.31,15.46,15.46,0,0,0-3.78-1.88,13.22,13.22,0,0,0-4.24-.68,13.91,13.91,0,0,0-5.58,1.14,15.24,15.24,0,0,0-4.62,3.07,14.65,14.65,0,0,0-3.16,4.55A13.4,13.4,0,0,0,648.09,310.63Z" transform="translate(-344.77 -284.71)"/><path class="cls-1" d="M705.7,285.2h10l22.23,50.9h-7.49a8.37,8.37,0,0,1-2.26-.3,7.46,7.46,0,0,1-2-.89,7.9,7.9,0,0,1-1.67-1.42,7,7,0,0,1-1.21-1.9l-2.49-5.65H700.58l-2.42,5.65a6.41,6.41,0,0,1-1.19,1.78,9.13,9.13,0,0,1-1.72,1.44,8.14,8.14,0,0,1-2.06,1,7.45,7.45,0,0,1-2.2.34h-7.53Zm-0.46,30.19H716.1l-4.44-10.66a11.07,11.07,0,0,1-.5-1.38c-0.12-.43-0.21-0.8-0.28-1.14a6.21,6.21,0,0,1-.18-1.07q-0.07.5-.21,1.1t-0.3,1.14q-0.2.64-.48,1.35Z" transform="translate(-344.77 -284.71)"/><path class="cls-1" d="M788.63,336.1H777.09l-24.33-35.2v35.2H741.18V285.2h11.44a8.51,8.51,0,0,1,3,.5,4.18,4.18,0,0,1,2,1.53l17.79,26.07a7,7,0,0,1,.67,1.24q0.28,0.68.5,1.26t0.32,1a3.17,3.17,0,0,1,.11.53V285.2h11.58v50.9Z" transform="translate(-344.77 -284.71)"/><path class="cls-1" d="M814.17,285.2h10l22.23,50.9h-7.49a8.37,8.37,0,0,1-2.26-.3,7.46,7.46,0,0,1-2-.89,7.9,7.9,0,0,1-1.67-1.42,7,7,0,0,1-1.21-1.9l-2.49-5.65H809.05l-2.42,5.65a6.41,6.41,0,0,1-1.19,1.78,9.13,9.13,0,0,1-1.72,1.44,8.14,8.14,0,0,1-2.06,1,7.45,7.45,0,0,1-2.2.34h-7.53Zm-0.46,30.19h10.87l-4.44-10.66a11.07,11.07,0,0,1-.5-1.38c-0.12-.43-0.21-0.8-0.28-1.14a6.21,6.21,0,0,1-.18-1.07q-0.07.5-.21,1.1t-0.3,1.14q-0.2.64-.48,1.35Z" transform="translate(-344.77 -284.71)"/><path class="cls-1" d="M861.87,336.1H850.25V285.2h20a17.77,17.77,0,0,1,9.71,2.75,16.28,16.28,0,0,1,3.48,3,18.26,18.26,0,0,1,2.52,3.69,18.63,18.63,0,0,1,1.53,4.07,17.4,17.4,0,0,1,.51,4.16,18.61,18.61,0,0,1-.44,4,17,17,0,0,1-1.4,3.92,17.58,17.58,0,0,1-2.49,3.68,20.47,20.47,0,0,1-3.69,3.29l13.57,18.33H883.6a9,9,0,0,1-1.08-.11,7.31,7.31,0,0,1-1.72-.5,9.58,9.58,0,0,1-2-1.17,9,9,0,0,1-2-2.17l-8.52-11.54h-6.36V336.1Zm9-27.17a4.31,4.31,0,0,0,2.06-.53,6.4,6.4,0,0,0,1.76-1.38,7,7,0,0,0,1.22-1.94,5.4,5.4,0,0,0,0-4.37,7,7,0,0,0-1.22-1.94,6.4,6.4,0,0,0-1.76-1.38,4.31,4.31,0,0,0-2.06-.53h-9v12.08h9Z" transform="translate(-344.77 -284.71)"/><path class="cls-1" d="M922.71,336.1H911.09V314.51a3.14,3.14,0,0,0-.46-1.53q-0.46-.82-1.07-1.67L890.25,285.2h9.48a9.35,9.35,0,0,1,7.92,3.94l8.06,10.94a6.37,6.37,0,0,1,.57.94q0.21,0.44.36,0.83t0.25,0.82q0.11-.39.25-0.82t0.36-.83a6.37,6.37,0,0,1,.57-0.94l8-10.87a8.34,8.34,0,0,1,3.32-3,10.31,10.31,0,0,1,4.63-1h9.55l-19.36,26.18a18.36,18.36,0,0,0-1.08,1.6,3,3,0,0,0-.44,1.53V336.1Z" transform="translate(-344.77 -284.71)"/><path class="cls-1" d="M490,338.12l-0.09-.08,0.09,0.07h0Zm-15.42-5.91a19,19,0,0,0-4.66,1,24.47,24.47,0,1,1,12.56-15.71l0.07,0.06a19.24,19.24,0,0,0,5.06,18.54A19.38,19.38,0,0,0,474.54,332.22Z" transform="translate(-344.77 -284.71)"/><circle class="cls-2" cx="113.58" cy="25.91" r="14.47"/></svg>