<svg id="Layer_1" data-name="Layer 1" xmlns="http://www.w3.org/2000/svg" viewBox="0 0 102.83 55.37"><defs><style>.cls-1{fill:#fff;}.cls-2{fill:#002b5c;}.cls-3{fill:#bec0c2;}.cls-4{fill:#e03a3e;}</style></defs><title>atlanta-hawks</title><path class="cls-1" d="M439.83,274.73l0,0.55c-0.14,2.11-.87,3-2.08,4.39l-0.05.06c-0.9,1.06-4,3.08-14.49,4.77a123.94,123.94,0,0,1-14.11,1.14,2.76,2.76,0,0,1-2.37-1.09l0.36-.37,0.26-.24-1.56-1,0.46-.46-0.27-.19a10.82,10.82,0,0,0-11.88,0l-0.28.19,0.46,0.46-1.55,1,0.61,0.62a2.76,2.76,0,0,1-2.37,1.09,123.68,123.68,0,0,1-14.11-1.14c-10.52-1.69-13.59-3.71-14.49-4.77l-0.05-.06c-1.21-1.42-1.94-2.28-2.08-4.39l0-.55-0.42.35a5.45,5.45,0,0,0-2.13,4.25,4.49,4.49,0,0,0,.06.72,7.6,7.6,0,0,1-3.64-3.17l-0.27-.46-0.23.48a3.57,3.57,0,0,0-.38,1.59,4.89,4.89,0,0,0,.91,2.63,7,7,0,0,1-3.44-1.54l-0.53-.42,0.07,0.67a5.09,5.09,0,0,0,1.77,3.81,6,6,0,0,1-2.65-.83l-0.44-.32,0,0.54s0,0.05,0,.08a4.76,4.76,0,0,0,2.31,3.55,6.73,6.73,0,0,1-2-.34l-0.56-.17,0.21,0.54a6,6,0,0,0,3.88,3.44,2.79,2.79,0,0,1-1.44-.2l-0.72-.35,0.34,0.72c0.73,1.55,2,2.52,4.23,3.13a4.74,4.74,0,0,1-1.22,0l-0.51-.09,0.2,0.48c0.61,1.48,2.52,3,6.08,2.92,0.06,0.37.35,1.91,0.35,1.91l1.85,0.07,0.59,1.92,1.93-.13,0.8,1.86,1.94-.32,1,1.78,1.91-.51,1.15,1.63,1.85-.76,1.29,1.34L376,304.4l1.14,1.08h0.11a30,30,0,0,0,10.23-1.37l0.14,0,0-.14a7.06,7.06,0,0,1,3.11-3.37,2.06,2.06,0,0,1,.59,1.36,1.12,1.12,0,0,1,0,.13,2.7,2.7,0,0,0-2.31.79,3.18,3.18,0,0,0-1,2.37,4.14,4.14,0,0,0,.15,1,4.21,4.21,0,0,0-3.09,1.82,3.52,3.52,0,0,0-.45,1.7,3,3,0,0,0,1,2.22l-5.05,5.62,4.59-.6,1.88,2.21,1-.61a12.45,12.45,0,0,0,24,0l0.94,0.59,1.88-2.21,4.59,0.6L414.38,312a3,3,0,0,0,1-2.22,3.52,3.52,0,0,0-.45-1.7,4.2,4.2,0,0,0-3.09-1.82,4.06,4.06,0,0,0,.15-1,3.18,3.18,0,0,0-1-2.37,2.72,2.72,0,0,0-2.35-.79,1.12,1.12,0,0,1,0-.13,2.06,2.06,0,0,1,.59-1.36,7,7,0,0,1,3.11,3.38l0,0.14,0.14,0a30.05,30.05,0,0,0,10.23,1.37h0.11L424,304.4l1.72,1.09,1.29-1.34,1.85,0.76,1.15-1.63,1.91,0.51,1-1.78,1.94,0.32,0.8-1.86,1.93,0.13,0.59-1.92,1.85-.07,0.35-1.91c3.56,0.08,5.48-1.44,6.08-2.92l0.19-.48-0.51.09a4.75,4.75,0,0,1-1.22,0c2.2-.6,3.51-1.57,4.23-3.13l0.34-.72-0.72.35a2.79,2.79,0,0,1-1.44.2,6,6,0,0,0,3.88-3.44l0.21-.54-0.56.17a6.75,6.75,0,0,1-2,.34,4.76,4.76,0,0,0,2.31-3.55V283l0-.54-0.44.32a6,6,0,0,1-2.65.83,5.1,5.1,0,0,0,1.77-3.81l0.07-.67-0.53.42a7,7,0,0,1-3.44,1.54,4.91,4.91,0,0,0,.91-2.63,3.55,3.55,0,0,0-.38-1.59l-0.23-.48-0.27.46a7.58,7.58,0,0,1-3.64,3.17,4.48,4.48,0,0,0,.06-0.72,5.46,5.46,0,0,0-2.13-4.25Z" transform="translate(-348.59 -272.31)"/><path class="cls-2" d="M450.94,286.6a6.62,6.62,0,0,1-3,.29c1.33-.68,3-2.21,2.94-3.85a7.18,7.18,0,0,1-3.74.95,4.84,4.84,0,0,0,2.4-4.19,7.2,7.2,0,0,1-4.2,1.69c1-1.37,1.64-2.89.87-4.46a7.81,7.81,0,0,1-4.29,3.51,4.91,4.91,0,0,0-1.85-5.23c-0.15,2.23-1,3.16-2.2,4.61s-5.21,3.35-14.66,4.87A124.54,124.54,0,0,1,409,285.92a3,3,0,0,1-2.73-1.39l0.53-.54a17.56,17.56,0,0,0-1.55-1l0.48-.48a10.53,10.53,0,0,0-11.55,0L394.7,283c-0.7.41-1.1,0.63-1.55,1l0.53,0.54a3,3,0,0,1-2.73,1.39,124.54,124.54,0,0,1-14.16-1.14c-9.46-1.52-13.41-3.4-14.66-4.87s-2-2.38-2.2-4.61a4.91,4.91,0,0,0-1.84,5.23,7.81,7.81,0,0,1-4.29-3.51c-0.77,1.57-.17,3.09.87,4.46a7.2,7.2,0,0,1-4.2-1.69,4.84,4.84,0,0,0,2.4,4.19,7.19,7.19,0,0,1-3.74-.95c0,1.64,1.6,3.18,2.94,3.85a6.63,6.63,0,0,1-3-.29c0.75,1.93,2.29,2.84,4.6,3.6a3.22,3.22,0,0,1-2.54,0c0.9,1.93,2.7,2.78,5.35,3.27a5.7,5.7,0,0,1-2.65.22c0.6,1.47,2.54,2.89,6.05,2.74l0.36,1.93,1.83,0.07,0.59,1.89,1.91-.13,0.79,1.84,1.92-.31,1,1.76,1.89-.51,1.13,1.6,1.82-.75,1.26,1.31L376,304l1.22,1.16a29.83,29.83,0,0,0,10.14-1.35,7.4,7.4,0,0,1,3.44-3.67,2.23,2.23,0,0,1,.77,2.18,2.43,2.43,0,0,0-2.4.68,3.16,3.16,0,0,0-.67,3.45,3.89,3.89,0,0,0-3.2,1.71A2.88,2.88,0,0,0,386,312l-4.72,5.25,4-.52,1.82,2.14,1-.64a12.21,12.21,0,0,0,23.67,0l1.06,0.66,1.82-2.14,4,0.52L413.94,312a2.88,2.88,0,0,0,.67-3.77,3.88,3.88,0,0,0-3.2-1.71,3.16,3.16,0,0,0-.67-3.45,2.4,2.4,0,0,0-2.36-.68,2.23,2.23,0,0,1,.77-2.18,7.43,7.43,0,0,1,3.44,3.67,29.82,29.82,0,0,0,10.14,1.35L424,304l1.71,1.09,1.26-1.31,1.82,0.75,1.13-1.6,1.89,0.51,1-1.76,1.92,0.31,0.79-1.84,1.91,0.13,0.58-1.89,1.83-.07,0.36-1.93c3.52,0.15,5.45-1.27,6.05-2.74a5.71,5.71,0,0,1-2.65-.22c2.65-.49,4.45-1.35,5.35-3.27a3.22,3.22,0,0,1-2.54,0c2.31-.76,3.85-1.67,4.6-3.6" transform="translate(-348.59 -272.31)"/><path class="cls-3" d="M397.35,319.2a4.93,4.93,0,0,1-1,2.64,5.91,5.91,0,0,1-3.08,2.09,11.12,11.12,0,0,0,6.11,2.23v-6.8a20.32,20.32,0,0,1-2-.15" transform="translate(-348.59 -272.31)"/><path class="cls-3" d="M395.36,321.15a4,4,0,0,0,.84-2.13,18.75,18.75,0,0,1-7.34-3,11.17,11.17,0,0,0,3.34,7,4.66,4.66,0,0,0,3.16-1.86" transform="translate(-348.59 -272.31)"/><path class="cls-3" d="M394,312.46a15.82,15.82,0,0,0-2-2,4.79,4.79,0,0,1-1.4-1l-0.19-.2a11.07,11.07,0,0,0-1.13,2.63,5.23,5.23,0,0,0,4,2.18,4.35,4.35,0,0,1-4.37-.1c0,0.16,0,.33,0,0.49a17.29,17.29,0,0,0,7.42,3.33,9.12,9.12,0,0,0-2.25-5.38" transform="translate(-348.59 -272.31)"/><path class="cls-3" d="M391.85,307.47a4.38,4.38,0,0,0,3.94,3.16,4.27,4.27,0,0,1-1.61.3c0.18,0.19.36,0.39,0.54,0.6A10.75,10.75,0,0,1,397.4,318a19.71,19.71,0,0,0,2,.16V303.82a11.26,11.26,0,0,0-2.11.32,1.75,1.75,0,0,1-1.43,1,4.6,4.6,0,0,0,2.71,4.21,4.47,4.47,0,0,1-3.83-1.82,7.79,7.79,0,0,1-1-1.75c-0.29.2-.57,0.41-0.84,0.63a1.4,1.4,0,0,1-1,1.09" transform="translate(-348.59 -272.31)"/><path class="cls-3" d="M402.65,319.2a4.91,4.91,0,0,0,1,2.64,5.9,5.9,0,0,0,3.07,2.09,11.12,11.12,0,0,1-6.11,2.23v-6.8a20.28,20.28,0,0,0,2-.15" transform="translate(-348.59 -272.31)"/><path class="cls-3" d="M404.64,321.15a4.05,4.05,0,0,1-.84-2.13,18.76,18.76,0,0,0,7.34-3,11.17,11.17,0,0,1-3.34,7,4.66,4.66,0,0,1-3.16-1.86" transform="translate(-348.59 -272.31)"/><path class="cls-3" d="M406,312.46a15.76,15.76,0,0,1,2-2,4.81,4.81,0,0,0,1.4-1l0.19-.2a11.19,11.19,0,0,1,1.13,2.63,5.24,5.24,0,0,1-4,2.18,4.35,4.35,0,0,0,4.37-.1c0,0.16,0,.33,0,0.49a17.29,17.29,0,0,1-7.42,3.33,9.11,9.11,0,0,1,2.25-5.38" transform="translate(-348.59 -272.31)"/><path class="cls-3" d="M408.15,307.47a4.39,4.39,0,0,1-3.95,3.16,4.27,4.27,0,0,0,1.62.3c-0.18.19-.36,0.39-0.54,0.6a10.74,10.74,0,0,0-2.67,6.49,19.78,19.78,0,0,1-2,.16V303.82a11.24,11.24,0,0,1,2.11.32,1.76,1.76,0,0,0,1.43,1,4.59,4.59,0,0,1-2.71,4.21,4.47,4.47,0,0,0,3.83-1.82,7.85,7.85,0,0,0,1-1.75c0.29,0.2.57,0.41,0.84,0.63a1.4,1.4,0,0,0,1,1.09" transform="translate(-348.59 -272.31)"/><path class="cls-2" d="M383.91,272.75l0.19-.43H381l0.19,0.43L380,277.93l-0.3.43h1.77l-0.17-.41,0.17-.73h2l0.15,0.73-0.17.41h1.79l-0.31-.43Zm-2.16,3.36,0.57-2.69h0.41l0.58,2.69h-1.56Zm-3.25,1.15,0.5-.16v1.27h-3.84l0.17-.43v-5.2l-0.17-.42h1.71l-0.23.45v4.49h1.86ZM369,272.75l0.19-.43h-3.15l0.2,0.43-1.12,5.19-0.3.42h1.78l-0.17-.41,0.17-.73h2l0.15,0.73-0.17.41h1.79l-0.3-.43Zm-2.16,3.36,0.57-2.69h0.41l0.58,2.69h-1.56Zm3.26-3.79h4.3v1.27l-0.5-.17h-1v4.49l0.21,0.46h-1.74l0.22-.46v-4.49h-1l-0.5.17v-1.27Zm24.43,5.59,0.21,0.46H393l0.22-.46v-4.49h-1l-0.5.17v-1.27H396v1.27l-0.5-.17h-1v4.49Zm5.36-5.16,0.19-.43h-3.15l0.19,0.43L396,277.93l-0.29.43h1.77l-0.17-.41,0.17-.73h2l0.14,0.73-0.16.41h1.79l-0.31-.43Zm-2.17,3.36,0.57-2.69h0.41l0.58,2.69h-1.56Zm-7-3.34v5.13l0.21,0.46h-1.72l0.21-.46v-1.25l-1.85-2.36v3.62l0.31,0.44h-1.82l0.22-.43V272.7l-0.22-.38H388l-0.11.31,1.59,2v-1.89l-0.21-.45H391Z" transform="translate(-348.59 -272.31)"/><path class="cls-3" d="M390.49,278.1h-0.7v-1.53l-2.46-3.12v4.65h-0.7v-5.53h0.85l2.3,2.93v-2.93h0.7v5.53m-6.92-5.53,1.17,5.53H384L383.8,277h-2.53L381,278.1h-0.7l1.19-5.53h2.08Zm0.1,3.79-0.69-3.2h-0.91l-0.68,3.2h2.28Zm15.9-3.79,1.17,5.53H400L399.79,277h-2.53L397,278.1h-0.7l1.19-5.53h2.08Zm0.1,3.79-0.69-3.2h-0.92l-0.67,3.2h2.28Zm-29.24-3.2h1.5v4.94h0.71v-4.94h1.49v-0.59h-3.7v0.59Zm21.62,0h1.5v4.94h0.7v-4.94h1.48v-0.59H392v0.59h0Zm-23.36-.59,1.18,5.53h-0.71L368.92,277h-2.54l-0.26,1.15h-0.7l1.19-5.53h2.07Zm0.1,3.79-0.68-3.2h-0.92l-0.68,3.2h2.28Zm7.55-3.79h-0.7v5.53h3.06v-0.59h-2.36v-4.94Z" transform="translate(-348.59 -272.31)"/><path class="cls-2" d="M390.63,278.22h-0.7v-1.67l-2.46-3.12v4.78h-0.69v-5.53h0.85l2.3,2.93v-2.93h0.7v5.53m-6.92-5.53,1.17,5.53H384.2L384,277.07H381.4l-0.26,1.15h-0.7l1.19-5.53h2.07Zm0.13,3.79-0.69-3.2H382.2l-0.67,3.2h2.31Zm15.87-3.79,1.18,5.53h-0.67L400,277.07H397.4l-0.26,1.15h-0.7l1.19-5.53h2.07Zm0.14,3.79-0.69-3.2h-1l-0.68,3.2h2.32Zm-29.28-3.2h1.5v4.94h0.71v-4.94h1.48v-0.59h-3.69v0.59Zm21.61,0h1.5v4.94h0.71v-4.94h1.49v-0.59h-3.7v0.59Zm-23.36-.59,1.19,5.53h-0.68l-0.24-1.15h-2.57l-0.26,1.15h-0.71l1.19-5.53h2.08Zm0.13,3.79-0.69-3.2h-0.95l-0.68,3.2H369Zm7.52-3.79h-0.69v5.53h3.06v-0.59h-2.36v-4.93Z" transform="translate(-348.59 -272.31)"/><path class="cls-2" d="M434.5,278.36h-4.25a10.82,10.82,0,0,1-.21-1.77h1.29c0,0.14,0,.51,0,0.67h2a7.15,7.15,0,0,0,0-1L430.13,275a6,6,0,0,1,.15-2.68h4.19a9.49,9.49,0,0,1,.23,1.69h-1.28c0-.14,0-0.43,0-0.59h-2a4.17,4.17,0,0,0,0,.73l3.29,1.24a8.72,8.72,0,0,1-.11,3m-25.11-6h-1.73l0.22,0.45v1.68h-1.74v-1.68l0.21-.45h-1.74l0.21,0.45v5.13l-0.22.46h1.73l-0.2-.46v-2.35h1.73v2.35l-0.22.46h1.73l-0.21-.46v-5.14ZM422,272.77l-0.73,3.32-1-3.32,0.24-.45H418.7l0.22,0.45-1,3.32-0.72-3.32,0.12-.45h-1.74l0.32,0.45L417,277.9l-0.12.46h1.88l-0.09-.46,0.89-3,0.89,3-0.09.46h1.88l-0.12-.46,1.12-5.13,0.32-.45h-1.74Zm5.74,1.51,1.56-2h-1.89l0,0.31-1.59,2v-1.89l0.21-.45h-1.72l0.21,0.45v5.13l-0.21.46H426l-0.21-.46v-1.25l0.93-1.18,1,2.43-0.12.46h1.78Zm-12.29,3.65,0.31,0.43h-1.79l0.16-.41-0.15-.73h-2l-0.17.73,0.17,0.41h-1.77l0.29-.43,1.11-5.18-0.19-.43h3.14l-0.19.43Zm-1.71-1.82-0.58-2.69h-0.41l-0.56,2.69h1.55Z" transform="translate(-348.59 -272.31)"/><path class="cls-3" d="M411.89,272.57l-1.18,5.53h0.69l0.26-1.15h2.54l0.23,1.15h0.71L414,272.57h-2.08Zm-0.1,3.79,0.67-3.2h0.92l0.69,3.2h-2.29Zm17.13,1.74h-0.79l-1.28-3.2-1.32,1.67v1.53h-0.7v-5.53h0.7v2.93l2.29-2.93h0.89l-1.33,1.67Zm5.47-1.69a9.9,9.9,0,0,1-.14,1.64v0.06h-3.74a0.26,0.26,0,0,1,0-.05c-0.06-.38-0.1-0.87-0.12-1.21H431l0,0.67h2.6l0-.23c0-.22,0-0.51,0-0.74a2.57,2.57,0,0,0,0-.32v-0.15l-3.29-1.24a4.27,4.27,0,0,1-.06-0.76,8.35,8.35,0,0,1,.14-1.43s0,0,0-.06h3.74v0.05c0.07,0.4.11,0.85,0.12,1.14h-0.66c0-.12,0-0.59,0-0.59h-2.6l0,0.23a5.16,5.16,0,0,0,0,.53c0,0.07,0,.15,0,0.24v0.16l3.29,1.24a5.53,5.53,0,0,1,.06.85m-12.08-3.84H423l-1.21,5.53h-0.95l-1.26-4.24-1.26,4.24h-0.94l-1.22-5.53h0.69l1,4.7,1.39-4.7h0.6l1.38,4.69Zm-13.43,5.53h-0.7v-2.8h-2.34v2.8h-0.71v-5.53h0.71v2.13h2.34v-2.13h0.7v5.53Z" transform="translate(-348.59 -272.31)"/><path class="cls-2" d="M412,272.69l-1.18,5.53h0.69l0.27-1.15h2.57l0.23,1.15h0.68l-1.17-5.53H412Zm-0.1,3.79,0.68-3.2h1l0.68,3.2h-2.32Zm17.13,1.74H428.3L427,275l-1.35,1.67v1.53H425v-5.53h0.7v2.84l2.22-2.84h1l-1.34,1.67Zm5.47-1.69a9.52,9.52,0,0,1-.15,1.64v0.05h-3.74v-0.05c-0.06-.39-0.1-0.87-0.13-1.21h0.66c0,0.09,0,.67,0,0.67h2.61l0-.23a6.62,6.62,0,0,0,0-.74c0-.13,0-0.24,0-0.32v-0.16l-3.29-1.24a4.45,4.45,0,0,1-.07-0.75,8.46,8.46,0,0,1,.15-1.43v-0.06h3.74s0,0.06,0,.06c0.06,0.4.11,0.84,0.13,1.13h-0.66c0-.12,0-0.59,0-0.59h-2.6l0,0.23a4.89,4.89,0,0,0,0,.53,2.06,2.06,0,0,0,0,.24v0.22l3.29,1.24a4.9,4.9,0,0,1,.07.78m-12.08-3.84h0.69l-1.21,5.53H421l-1.29-4.32-1.29,4.32h-0.9l-1.21-5.53H417l1,4.71,1.4-4.71H420l1.38,4.69ZM409,278.22h-0.7v-2.79H406v2.79h-0.71v-5.53H406v2.13h2.35v-2.13H409v5.53Z" transform="translate(-348.59 -272.31)"/><path class="cls-1" d="M403.42,284.17a2.29,2.29,0,0,1-.25.44,0.88,0.88,0,0,1-.18,1.15,1.1,1.1,0,0,0-.26-0.65,1.68,1.68,0,0,1-.74.38,1,1,0,0,0,.9.57,1,1,0,0,0,1-1,1,1,0,0,0-.48-0.87" transform="translate(-348.59 -272.31)"/><path class="cls-1" d="M396.58,284.17a2.19,2.19,0,0,0,.25.44,0.88,0.88,0,0,0,.18,1.15,1.12,1.12,0,0,1,.26-0.65,1.69,1.69,0,0,0,.74.38,1,1,0,0,1-1.91-.45,1,1,0,0,1,.48-0.87" transform="translate(-348.59 -272.31)"/><path class="cls-3" d="M400,284.92a1.68,1.68,0,0,0-1.35.74,1.58,1.58,0,0,0-.29.87,1,1,0,0,0,0,.28l-1.62,1.3-0.38.31a0.17,0.17,0,0,0-.08.13,0.13,0.13,0,0,0,0,.07,0.15,0.15,0,0,0,.21,0l0.27-.18a3.15,3.15,0,0,1,1.74-.77c0.55,0,.91.52,1.43,1.63v-4.41h0Z" transform="translate(-348.59 -272.31)"/><path class="cls-3" d="M401.64,288.19c-0.64,0-1.26,1.23-1.59,1.89a1.28,1.28,0,0,1-.06.13,1.36,1.36,0,0,0-.08-0.14c-0.33-.65-0.95-1.86-1.59-1.88a1.33,1.33,0,0,0-1.16.55l-0.08.1,0.1,0c0.59,0.1,1.6,1.34,2.4,3l0.07,0.14,0.34-.8,0.32,0.8,0.07-.14c0.8-1.61,1.81-2.86,2.4-3l0.12,0-0.1-.13a1.32,1.32,0,0,0-1.16-.55" transform="translate(-348.59 -272.31)"/><path class="cls-3" d="M386.53,307.48l-0.19.05,0.81,0.36-0.78.68,0.6,0.19c0,0.1,0,1.08,0,1.08l0.12-.1a1,1,0,0,1,.81-0.16,1.28,1.28,0,0,1,.87.58l0.07,0.11,0.06-.12a2.19,2.19,0,0,0-.1-2.1,2,2,0,0,0-2.23-.59" transform="translate(-348.59 -272.31)"/><path class="cls-3" d="M402.55,301.88a2,2,0,0,0,1.23,1.93l0.12,0,0-.13a1.44,1.44,0,0,1,.25-1.27,1.29,1.29,0,0,1,1-.38h0.12l-0.21-.49,0.29-.37-0.7-.45,0.33-.45h-0.13c-1.76-.13-2.23.77-2.31,1.55" transform="translate(-348.59 -272.31)"/><path class="cls-3" d="M407.68,303.49a1.84,1.84,0,0,0-.27,1.52,1.78,1.78,0,0,0,.81,1.13l0.15,0.07,0-.16a1.33,1.33,0,0,1,.37-1.29,1.16,1.16,0,0,1,1.3-.15l0.1,0s0-.4,0-0.47l0.45-.26-0.59-.42,0.35-.21-0.1-.06a1.81,1.81,0,0,0-2.52.25" transform="translate(-348.59 -272.31)"/><path class="cls-3" d="M395.14,300.33H395l0.33,0.45-0.7.45,0.29,0.37-0.2.49h0.12a1.28,1.28,0,0,1,1,.38,1.43,1.43,0,0,1,.25,1.27l0,0.13,0.12,0a2,2,0,0,0,1.23-1.93c-0.08-.78-0.55-1.68-2.31-1.55" transform="translate(-348.59 -272.31)"/><path class="cls-3" d="M389.8,303.23l-0.1.06,0.36,0.21-0.59.42,0.45,0.26,0,0.47,0.1,0a1.16,1.16,0,0,1,1.3.15,1.32,1.32,0,0,1,.37,1.29l0,0.16,0.15-.07a1.78,1.78,0,0,0,.81-1.13,1.84,1.84,0,0,0-.27-1.52,1.82,1.82,0,0,0-2.52-.25" transform="translate(-348.59 -272.31)"/><path class="cls-3" d="M411.24,308.07a2.18,2.18,0,0,0-.1,2.1l0.06,0.12,0.07-.12a1.28,1.28,0,0,1,.87-0.58,1,1,0,0,1,.81.16l0.12,0.1s0-1,0-1.08l0.6-.19-0.78-.69,0.81-.36-0.19-.05a2,2,0,0,0-2.23.59" transform="translate(-348.59 -272.31)"/><path class="cls-1" d="M394.71,302.18a5,5,0,0,0,0,3,7.81,7.81,0,0,0,1.83,3.21,6.28,6.28,0,0,1-2.34-3,4.74,4.74,0,0,1-.37-2.4,1.17,1.17,0,0,1,.85-0.86" transform="translate(-348.59 -272.31)"/><path class="cls-1" d="M389.9,304.71a4.78,4.78,0,0,0,.65,3.16,6.34,6.34,0,0,0,3,2.64,5.55,5.55,0,0,1-3.3-2.25,5.36,5.36,0,0,1-1-2.74,0.82,0.82,0,0,1,.6-0.81" transform="translate(-348.59 -272.31)"/><path class="cls-1" d="M387,309.93a6,6,0,0,0,.92,2.08,6.85,6.85,0,0,0,2.9,2.18,5.33,5.33,0,0,1-3.3-1.83,3.7,3.7,0,0,1-.9-1.67,1.37,1.37,0,0,1,.38-0.76" transform="translate(-348.59 -272.31)"/><path class="cls-1" d="M405.29,302.18a5,5,0,0,1,0,3,7.86,7.86,0,0,1-1.84,3.21,6.29,6.29,0,0,0,2.34-3,4.75,4.75,0,0,0,.37-2.4,1.17,1.17,0,0,0-.85-0.86" transform="translate(-348.59 -272.31)"/><path class="cls-1" d="M410.1,304.71a4.78,4.78,0,0,1-.65,3.16,6.33,6.33,0,0,1-3,2.64,5.55,5.55,0,0,0,3.3-2.25,5.41,5.41,0,0,0,1-2.74,0.82,0.82,0,0,0-.6-0.81" transform="translate(-348.59 -272.31)"/><path class="cls-1" d="M413,309.93a6,6,0,0,1-.92,2.08,6.85,6.85,0,0,1-2.9,2.18,5.32,5.32,0,0,0,3.3-1.83,3.68,3.68,0,0,0,.9-1.67,1.37,1.37,0,0,0-.38-0.76" transform="translate(-348.59 -272.31)"/><path class="cls-1" d="M404,310.66a0.75,0.75,0,0,1,.39.92l-0.82-.86,0.5-1.08a0.8,0.8,0,0,1-.08,1" transform="translate(-348.59 -272.31)"/><path class="cls-1" d="M406.56,314.17a0.75,0.75,0,0,1,.39.92l-0.82-.86,0.5-1.08a0.79,0.79,0,0,1-.07,1" transform="translate(-348.59 -272.31)"/><path class="cls-1" d="M401.28,309.36a0.75,0.75,0,0,1,.56.82l-1-.68,0.28-1.16a0.8,0.8,0,0,1,.13,1" transform="translate(-348.59 -272.31)"/><path class="cls-1" d="M396,310.66a0.75,0.75,0,0,0-.39.92l0.82-.86-0.5-1.08a0.79,0.79,0,0,0,.07,1" transform="translate(-348.59 -272.31)"/><path class="cls-1" d="M393.44,314.17a0.76,0.76,0,0,0-.39.92l0.82-.86-0.5-1.08a0.8,0.8,0,0,0,.07,1" transform="translate(-348.59 -272.31)"/><path class="cls-1" d="M398.72,309.36a0.75,0.75,0,0,0-.56.82l1-.68-0.28-1.16a0.79,0.79,0,0,0-.12,1" transform="translate(-348.59 -272.31)"/><path class="cls-1" d="M370.75,301.54s-0.35.64-.35,0.64l0,0.09,0.79,0.08s3.14-2.23,3.14-2.23Z" transform="translate(-348.59 -272.31)"/><polygon class="cls-1" points="28.02 30.3 28 30.32 27.93 30.99 28.63 31.04 30.49 28.82 28.02 30.3"/><polygon class="cls-1" points="12.16 23.09 12.13 23.09 11.76 23.61 12.3 24 14.64 23.06 12.16 23.09"/><polygon class="cls-1" points="7.44 19.02 7.03 19.45 7.5 19.93 9.95 19.36 7.46 19 7.44 19.02"/><polygon class="cls-1" points="16.97 26.44 16.94 26.45 16.61 27.04 17.24 27.37 19.81 26.06 16.97 26.44"/><path class="cls-4" d="M404.16,283.39l-0.44.4,0.07,0.05a1.4,1.4,0,0,1,.62,1.16,1.5,1.5,0,0,1-1.54,1.45l-0.47-.06,0,0a0.58,0.58,0,0,0-.05.22,1.81,1.81,0,0,0,1,1l1.15,0.85a6.62,6.62,0,0,0-2.12,1.45,15.62,15.62,0,0,0-1.09,1.39,1.24,1.24,0,1,1-2.49,0,15.66,15.66,0,0,0-1.09-1.39,6.6,6.6,0,0,0-2.12-1.45l1.15-.85a1.81,1.81,0,0,0,1-1,0.52,0.52,0,0,0-.05-0.22l0,0-0.48.06a1.5,1.5,0,0,1-1.54-1.45,1.41,1.41,0,0,1,.62-1.16l0.07-.05-0.5-.46,0,0.07a7.36,7.36,0,0,0-1.51,4.31v0.07H395a2.63,2.63,0,0,0-.1.69,5.48,5.48,0,0,0,.8,2.69l0,0h0a1.1,1.1,0,0,1,.86.17,0.84,0.84,0,0,1,.27.48,0.93,0.93,0,0,0-.55-0.27,0.94,0.94,0,0,0-.67.31,7,7,0,0,1-1.21-1.1l-0.06-.08-0.06.08a7.93,7.93,0,0,0-1.28,4.57,8.86,8.86,0,0,0,1.31,4.94l0,0,0.05,0a3.15,3.15,0,0,1,3.1.1,3.07,3.07,0,0,1,1.17,2l0,0.21,1.23-.08v-8.41a1.24,1.24,0,0,1-.91-0.87,1.54,1.54,0,0,0,.93.36c0.78,0,1.49-.82,2.11-1.52a3.07,3.07,0,0,1,1.16-1,0.55,0.55,0,0,1,.65.39l0,0.12,0.08-.09a5.16,5.16,0,0,0,1.09-3.09,2.59,2.59,0,0,0-.09-0.69h0.73v-0.07a7.36,7.36,0,0,0-1.51-4.31l0-.07Z" transform="translate(-348.59 -272.31)"/><path class="cls-4" d="M406.23,293.41l-0.65,1.18,0.6,1.45-0.86,1.15,0.37,1.21-0.79,1a3.44,3.44,0,0,0-2.54.66,3.53,3.53,0,0,0-1.2,2.54v0.07h0.15l0.15,0,0-.07a3.79,3.79,0,0,1,.91-1.9,3.21,3.21,0,0,1,3.13-.52l0.06,0,0-.06a9.81,9.81,0,0,0,.77-6.74l0-.17Z" transform="translate(-348.59 -272.31)"/><path class="cls-4" d="M399.49,281.56a11,11,0,0,0-3.25.68l-0.09,0,0.06,0.07a2.61,2.61,0,0,0,.93.61,1.83,1.83,0,0,0-.08.49,2,2,0,0,0,1.12,1.73l0.06,0,0,0a2.23,2.23,0,0,1,3.45,0l0,0,0.05,0a2,2,0,0,0,1.12-1.73,1.79,1.79,0,0,0-.08-0.49,2.6,2.6,0,0,0,.93-0.61l0.05-.07-0.08,0a10.44,10.44,0,0,0-3.17-.68h0s-0.44.73-.54,0.9c-0.1-.17-0.47-0.9-0.47-0.9h0Z" transform="translate(-348.59 -272.31)"/><path class="cls-2" d="M394.39,291.89L395,292.6a7,7,0,0,0-.9,2.94,10.47,10.47,0,0,0,.37,3.45l-0.1.2a10.78,10.78,0,0,1-.73-3.85,8.36,8.36,0,0,1,.8-3.45" transform="translate(-348.59 -272.31)"/><path class="cls-4" d="M392.5,292.66a4.06,4.06,0,0,0-2.36-3.07,4,4,0,0,1,2.15.29l0.14,0.05-0.05-.15a3.93,3.93,0,0,0-1.62-1.88,21.14,21.14,0,0,0-4.82-1.72l-2.65-.46c-1.47-.12-3-0.27-4.27-0.42,0.23,2.14,2.8,4,3.82,4.64-1.3-.4-4.84-1.79-5.66-4.88l-0.44-.07-1.93-.33c1.92,6.36,9.09,8.88,11.24,9.5-2.47-.16-11.45-1.27-14.27-8.95a6.53,6.53,0,0,1-.27-1.22q-1.28-.29-2.35-0.58c0.07,2.49,2.22,4.82,3.07,5.65-1.21-.66-4.55-2.78-4.57-6.08-3.44-1.07-5-2.12-5.73-2.95l-0.05-.06a10.63,10.63,0,0,1-1.63-2.27,4.25,4.25,0,0,0-.58,2,3,3,0,0,0,1.33,2.44,7.13,7.13,0,0,1-3.91-1l-0.23-.15L357,281.3a10.46,10.46,0,0,0,4.41,4.23,6,6,0,0,1-4.83-.66l-0.15-.07,0.06,0.16c0.34,1,1.68,3.42,6.58,4-1.31,1.4-4.42.32-4.45,0.31l-0.18-.07,0.1,0.17c1.65,2.89,5.72,3.57,8.15,3.34-0.74,1.41-4.29,1.19-4.32,1.18l-0.27,0,0.22,0.15c2.53,1.68,6.36,1.69,9.12.95a3.52,3.52,0,0,1-3.29,1.7H368l0.14,0.12c1,0.83,5.15.91,8.11,0.17a3.63,3.63,0,0,1-3.06,1.62l-0.25,0,0.22,0.12c1.76,0.92,4.47.7,7.82-.61-0.11.92-1.8,1.75-1.82,1.76l0,0.13c8.87,0,12.6-4.32,12.64-4.37a3.19,3.19,0,0,0,.77-2.11,5.93,5.93,0,0,0-.07-0.86" transform="translate(-348.59 -272.31)"/><path class="cls-4" d="M443.42,284.87a6,6,0,0,1-4.84.66A10.48,10.48,0,0,0,443,281.3l0.13-.24-0.23.15a7.13,7.13,0,0,1-3.92,1,3.19,3.19,0,0,0,1.36-2.51,4.3,4.3,0,0,0-.57-2,10.29,10.29,0,0,1-1.65,2.32l0,0.06c-0.71.83-2.29,1.88-5.73,2.95-0.05,3.26-3.35,5.4-4.56,6.08,0.86-.84,3-3.18,3.08-5.65-0.72.19-1.5,0.39-2.36,0.58a6.87,6.87,0,0,1-.27,1.22c-2.82,7.7-11.84,8.79-14.29,9,2.13-.63,9.34-3.18,11.28-9.51l-2,.33-0.42.06c-0.84,3.06-4.4,4.47-5.7,4.89,1-.66,3.55-2.53,3.85-4.64-1.32.15-2.81,0.3-4.29,0.42l-2.64.46a21.05,21.05,0,0,0-4.82,1.72,3.91,3.91,0,0,0-1.62,1.88l-0.05.15,0.14-.05a3.94,3.94,0,0,1,2.15-.29,4.06,4.06,0,0,0-2.35,3.07,5.82,5.82,0,0,0-.07.87,3.18,3.18,0,0,0,.77,2.1S412,300,420.84,300l0-.13s-1.7-.84-1.82-1.76c3.35,1.31,6.06,1.52,7.82.61l0.22-.12-0.25,0a3.64,3.64,0,0,1-3.06-1.62c3,0.73,7.14.66,8.11-.17l0.14-.12h-0.19a3.51,3.51,0,0,1-3.29-1.7c2.75,0.74,6.58.73,9.12-.95l0.22-.15-0.27,0s-3.58.23-4.32-1.18c2.43,0.23,6.5-.45,8.15-3.34l0.09-.17-0.18.06s-3.14,1.09-4.45-.31c4.9-.58,6.24-3,6.58-4l0.06-.16Z" transform="translate(-348.59 -272.31)"/><path class="cls-3" d="M400.88,286.48a1.41,1.41,0,0,0-.15-0.85,1.23,1.23,0,0,1,.56.61,2,2,0,0,0-.42.24" transform="translate(-348.59 -272.31)"/><path class="cls-2" d="M399.17,286.58a1.53,1.53,0,0,1,.17-0.94,1.39,1.39,0,0,0-.63.67,2.12,2.12,0,0,1,.47.26" transform="translate(-348.59 -272.31)"/><path class="cls-1" d="M429.25,301.54s0.35,0.64.35,0.64l0,0.09-0.79.08c-0.05,0-3.14-2.23-3.14-2.23Z" transform="translate(-348.59 -272.31)"/><polygon class="cls-1" points="74.8 30.3 74.83 30.32 74.9 30.99 74.2 31.04 72.33 28.82 74.8 30.3"/><polygon class="cls-1" points="90.67 23.09 90.7 23.09 91.06 23.61 90.52 24 88.19 23.06 90.67 23.09"/><polygon class="cls-1" points="95.37 19 92.88 19.36 95.33 19.93 95.8 19.45 95.39 19.02 95.37 19"/><polygon class="cls-1" points="85.86 26.44 85.89 26.45 86.21 27.04 85.59 27.37 83.01 26.06 85.86 26.44"/></svg>