<svg id="Layer_1" data-name="Layer 1" xmlns="http://www.w3.org/2000/svg" viewBox="0 0 79.36 88.22"><defs><style>.cls-1{fill:#231f20;}.cls-2{fill:#061922;}.cls-3{fill:#008248;}.cls-11,.cls-12,.cls-13,.cls-4,.cls-7,.cls-9{fill:none;stroke-width:0.31px;}.cls-4{stroke:#008248;}.cls-5{fill:#fff;}.cls-6{fill:#a63732;}.cls-7{stroke:#a63732;}.cls-8{fill:#ba9653;}.cls-9{stroke:#ba9653;}.cls-10{fill:#f9b282;}.cls-11,.cls-12{stroke:#f9b282;}.cls-11{stroke-linecap:round;}.cls-13{stroke:#00a55c;}</style></defs><title>boston-celtics</title><path class="cls-1" d="M439.68,297.37a39.69,39.69,0,0,0-35.39-39.45,4.29,4.29,0,0,0-.71-0.57c-3.18-2-5.83-.52-7.67.37l-0.46.23a39.35,39.35,0,0,0-9.92,2.47,10.26,10.26,0,0,0-1.28-1.56,10.15,10.15,0,0,0-15.08,13.55,39.71,39.71,0,0,0,15.3,61.5,6.73,6.73,0,0,0,.46,4.1,2.08,2.08,0,0,0-.92,1.35c-0.92,1.26,1.32,2.85,2.24,3.56,1.89,1.45,2.88,1.2,4.36,1.13,1.82-.08,3.53-2.21,4.51-3.59,2-.28,2.33,0,2.39.28a10.32,10.32,0,0,0,2.64-.74c2.65-1.12,1.9-2.48,1.63-2.73a0.86,0.86,0,0,1-.18-0.26,39.37,39.37,0,0,0,17.7-5,6.77,6.77,0,0,1,.58.74c0.58,0.86.89,3.65,1,5.09a19.74,19.74,0,0,0,1.07,4.69c0.71,2.27,1,.61,1,0s0.15-2.82.06-4.42a18.71,18.71,0,0,1,.19-4.88,1.12,1.12,0,0,0-.4-1.41,15.12,15.12,0,0,1-.4-1.5,2,2,0,0,1-.06-0.22,40.18,40.18,0,0,0,5.69-4.73,39.43,39.43,0,0,0,11.62-28.06" transform="translate(-360.32 -255.89)"/><path class="cls-2" d="M439.68,297.37a39.69,39.69,0,0,0-35.39-39.45,4.29,4.29,0,0,0-.71-0.57c-3.18-2-5.83-.52-7.67.37l-0.46.23a39.35,39.35,0,0,0-9.92,2.47,10.26,10.26,0,0,0-1.28-1.56,10.15,10.15,0,0,0-15.08,13.55,39.71,39.71,0,0,0,15.3,61.5,6.73,6.73,0,0,0,.46,4.1,2.08,2.08,0,0,0-.92,1.35c-0.92,1.26,1.32,2.85,2.24,3.56,1.89,1.45,2.88,1.2,4.36,1.13,1.82-.08,3.53-2.21,4.51-3.59,2-.28,2.33,0,2.39.28a10.32,10.32,0,0,0,2.64-.74c2.65-1.12,1.9-2.48,1.63-2.73a0.86,0.86,0,0,1-.18-0.26,39.37,39.37,0,0,0,17.7-5,6.77,6.77,0,0,1,.58.74c0.58,0.86.89,3.65,1,5.09a19.74,19.74,0,0,0,1.07,4.69c0.71,2.27,1,.61,1,0s0.15-2.82.06-4.42a18.71,18.71,0,0,1,.19-4.88,1.12,1.12,0,0,0-.4-1.41,15.12,15.12,0,0,1-.4-1.5,2,2,0,0,1-.06-0.22,40.18,40.18,0,0,0,5.69-4.73,39.43,39.43,0,0,0,11.62-28.06" transform="translate(-360.32 -255.89)"/><path class="cls-3" d="M390.62,334.4a15.78,15.78,0,0,0,4.46-.92c0.12,0,.32.15,0.63,0.28a11.58,11.58,0,0,0-.86-4c-0.23-.62-0.46-1-0.74-1.69a14.38,14.38,0,0,1-2.59-.91c0,0.58.11,2.1,0.23,3.11a12.47,12.47,0,0,1-1.26.06c0.06,1.11.18,3.1,0.12,4" transform="translate(-360.32 -255.89)"/><path class="cls-4" d="M390.62,334.4a15.78,15.78,0,0,0,4.46-.92c0.12,0,.32.15,0.63,0.28a11.58,11.58,0,0,0-.86-4c-0.23-.62-0.46-1-0.74-1.69a14.38,14.38,0,0,1-2.59-.91c0,0.58.11,2.1,0.23,3.11a12.47,12.47,0,0,1-1.26.06C390.56,331.48,390.68,333.48,390.62,334.4Z" transform="translate(-360.32 -255.89)"/><path class="cls-3" d="M418.37,331.15c-0.28-.28.34-1.13,0.61-2.73s0.31-4.26-.86-5.77a5.28,5.28,0,0,1-.94-1.52A29,29,0,0,1,405,326.28a1.94,1.94,0,0,1-.15.24A11,11,0,0,1,402,329a16.08,16.08,0,0,1-2.58,1,13.81,13.81,0,0,0,0,3.93,18.17,18.17,0,0,1,1.63,1.69l0.11,0.23a38.3,38.3,0,0,0,17.32-4.69l-0.08-.07" transform="translate(-360.32 -255.89)"/><path class="cls-4" d="M418.37,331.15c-0.28-.28.34-1.13,0.61-2.73s0.31-4.26-.86-5.77a5.28,5.28,0,0,1-.94-1.52A29,29,0,0,1,405,326.28a1.94,1.94,0,0,1-.15.24A11,11,0,0,1,402,329a16.08,16.08,0,0,1-2.58,1,13.81,13.81,0,0,0,0,3.93,18.17,18.17,0,0,1,1.63,1.69l0.11,0.23a38.3,38.3,0,0,0,17.32-4.69Z" transform="translate(-360.32 -255.89)"/><path class="cls-3" d="M427.26,270.11a38.26,38.26,0,0,0-22.08-10.95A9.78,9.78,0,0,1,406,263c1.2-.52,2.12-0.8,2.61-1.59a0.87,0.87,0,0,1,1.59-.06c0.43,0.58.43,1.32-.7,2a18.69,18.69,0,0,1-2.21,1.17c-0.25.12,0,.34,0.25,0.8a7.86,7.86,0,0,1,1.1,4s0,0,0,.07a29.36,29.36,0,0,1,17.75,40.79,3.65,3.65,0,0,1,.71,2.2,3.82,3.82,0,0,1-.15,1.72,17.16,17.16,0,0,1-2.36,3.25,0.88,0.88,0,0,1-1.2-.18c-0.28-.4-0.31-0.18-0.52,0s-1,1.29-1.14,1.56a1.33,1.33,0,0,0-.4,1.66c0.4,1.1.86,1.93,0.7,2.55s-0.21.8,0.61,1.5a1.56,1.56,0,0,1,.43,2.12,6.45,6.45,0,0,0-.73,2.22,38.54,38.54,0,0,0,4.9-58.66" transform="translate(-360.32 -255.89)"/><path class="cls-4" d="M427.26,270.11a38.26,38.26,0,0,0-22.08-10.95A9.78,9.78,0,0,1,406,263c1.2-.52,2.12-0.8,2.61-1.59a0.87,0.87,0,0,1,1.59-.06c0.43,0.58.43,1.32-.7,2a18.69,18.69,0,0,1-2.21,1.17c-0.25.12,0,.34,0.25,0.8a7.86,7.86,0,0,1,1.1,4s0,0,0,.07a29.36,29.36,0,0,1,17.75,40.79,3.65,3.65,0,0,1,.71,2.2,3.82,3.82,0,0,1-.15,1.72,17.16,17.16,0,0,1-2.36,3.25,0.88,0.88,0,0,1-1.2-.18c-0.28-.4-0.31-0.18-0.52,0s-1,1.29-1.14,1.56a1.33,1.33,0,0,0-.4,1.66c0.4,1.1.86,1.93,0.7,2.55s-0.21.8,0.61,1.5a1.56,1.56,0,0,1,.43,2.12,6.45,6.45,0,0,0-.73,2.22A38.54,38.54,0,0,0,427.26,270.11Z" transform="translate(-360.32 -255.89)"/><path class="cls-3" d="M383,325.84a7.77,7.77,0,0,1,.46-4.26,29.66,29.66,0,0,1-4.18-3.47,29.29,29.29,0,0,1,.62-42,1.65,1.65,0,0,1,.2-0.33,10.2,10.2,0,0,1-3,.45,10.08,10.08,0,0,1-7.16-3,38.6,38.6,0,0,0,14.74,59.53,17.91,17.91,0,0,1,.8-2.7,5.34,5.34,0,0,0-1-4,8.89,8.89,0,0,0-1.44-.22" transform="translate(-360.32 -255.89)"/><path class="cls-4" d="M383,325.84a7.77,7.77,0,0,1,.46-4.26,29.66,29.66,0,0,1-4.18-3.47,29.29,29.29,0,0,1,.62-42,1.65,1.65,0,0,1,.2-0.33,10.2,10.2,0,0,1-3,.45,10.08,10.08,0,0,1-7.16-3,38.6,38.6,0,0,0,14.74,59.53,17.91,17.91,0,0,1,.8-2.7,5.34,5.34,0,0,0-1-4A8.89,8.89,0,0,0,383,325.84Z" transform="translate(-360.32 -255.89)"/><path class="cls-3" d="M393.2,259.41a38.2,38.2,0,0,0-7.1,2,10.16,10.16,0,0,1-.83,10.64,29.15,29.15,0,0,1,6.83-2.89l0.47-.44a8,8,0,0,1-1-7,5.18,5.18,0,0,1,1.67-2.27" transform="translate(-360.32 -255.89)"/><path class="cls-4" d="M393.2,259.41a38.2,38.2,0,0,0-7.1,2,10.16,10.16,0,0,1-.83,10.64,29.15,29.15,0,0,1,6.83-2.89l0.47-.44a8,8,0,0,1-1-7A5.18,5.18,0,0,1,393.2,259.41Z" transform="translate(-360.32 -255.89)"/><path class="cls-5" d="M408.62,271a2.6,2.6,0,0,1,1.44,3.1,11.15,11.15,0,0,1-.8,1.66,21.53,21.53,0,0,1-1.37,1.85,2,2,0,0,0-.26,1.39h0a8,8,0,0,0,2.21,1.29c0.48,0.17.45,0.3,0.25,0.61a1.26,1.26,0,0,1,.83.61c0.34,0.4,1.23.15,1.78-.12a1.37,1.37,0,0,1,1.81.31,11.34,11.34,0,0,1,1.78,3.1,15.69,15.69,0,0,0,1,2.3c0.12,0.18-.43,3.56-0.58,4.91s-0.28,1.93-.31,2.15,0.86-.77.89,0.4a45.62,45.62,0,0,0,1,6.12c0.13,0.56.26,1.07,0.39,1.49,0.37,0.06.67,0.8,0.89,1.93s0.67,1.84.71,2.39a0.67,0.67,0,0,0,.37.74c0.18,0.09.12,0.37-.43,1a5,5,0,0,1,.43.4c0.16-.15.58-0.64,0.58-0.64s1.69,0.67,2.05.8,0.8-.79,1.9-0.31a2.39,2.39,0,0,1,.87,1,28.67,28.67,0,0,0-17.3-39.4c0,0.42,0,.82,0,1" transform="translate(-360.32 -255.89)"/><path class="cls-5" d="M417.48,319.28c-0.43-.21-0.71.1-0.92-1.59a3,3,0,0,0-.77-1.44,1.41,1.41,0,0,1-.18-1.38,5.81,5.81,0,0,0,.27-2.09,1.63,1.63,0,0,1,1-1.75,2.66,2.66,0,0,1-.55-1.1c-1.26-.42-1.51-0.45-1.76-1.06a16.15,16.15,0,0,1-.82-3.33,8.65,8.65,0,0,1-.12-1.11c-0.4-.76-1.3-2.45-2-3.73-0.26-.48-0.48-0.89-0.65-1.18-0.61-1.07,0-2.48.31-3.31a3.45,3.45,0,0,0,.28-2.39,6.7,6.7,0,0,1-.34-1.35c-0.06-.34-0.34-0.77-0.71.4s-1.07,2.88-1.47,4.66a12,12,0,0,0-.33,3.18,6,6,0,0,0,.54,2.31c0.8,1.66,1.75,3.19,1.63,4.11a2.84,2.84,0,0,1-.34,1.1,32.41,32.41,0,0,1-1.32,6.17,56.93,56.93,0,0,0-2.3,6,39,39,0,0,1-1.57,5.08,28.53,28.53,0,0,0,12.34-5.61,0.44,0.44,0,0,0-.18-0.63" transform="translate(-360.32 -255.89)"/><path class="cls-5" d="M383.4,279a4,4,0,0,0,1.36,1.14c1.5,0.77,1.81,1.32,1.81,2.64s0.25,4,.67,4.48a4.8,4.8,0,0,0,.64-0.8,8.87,8.87,0,0,0,2.67,3.19,0.85,0.85,0,0,0,.28.46c0.46,0.12,3.44.58,3.53,1.2a11.22,11.22,0,0,0,1.78-2.67,15.57,15.57,0,0,1,2.05-3.1,3.16,3.16,0,0,1,0-.68,4,4,0,0,1-1,.86c-0.49.21-2.21,1-3.43,1.56-0.43.21-1.2,0.46-1.5-1.78a7.67,7.67,0,0,1,.21-3.93,1.08,1.08,0,0,1,1.38-.77,22.31,22.31,0,0,0,2.33.67c0.06-.25.28-0.71-0.55-0.8a4.72,4.72,0,0,1-3-1.69,3.21,3.21,0,0,1-.62-1.83c-1.75.28-5.77,0.8-6.66,1s-1.64.4-1.93-1.63c-0.12-.86-0.34-2.05.28-1.63a2.84,2.84,0,0,1,2.36-.61,0.89,0.89,0,0,1,.58.39,2.88,2.88,0,0,1-.21,1.24c-0.26.82-.78,1.41,0.89,1s4-.74,4.55-0.86a5,5,0,0,1,1.15-2.19,2.7,2.7,0,0,0,.71-1.44c0-.21-0.17-0.26-0.46,0a2.81,2.81,0,0,1-2.3.67,3,3,0,0,1-1.07-1.2,10.45,10.45,0,0,1,1.33-1.88,28.35,28.35,0,0,0-9,4.85,7.53,7.53,0,0,0,.25,2,5.77,5.77,0,0,0,1,2.08" transform="translate(-360.32 -255.89)"/><path class="cls-5" d="M385.53,320.93a2.38,2.38,0,0,1,3.22.83c0.28,0.37.49,1.44,2.85,0.49a14.8,14.8,0,0,1-2.7-5.67c-1.09-3.77-3.54-8.07-2.64-10-0.52-.49-1.13-2.39-1.78-2.18-0.43.14-1,.15-0.55-1.29a8.82,8.82,0,0,1,1.27-2.38,21.58,21.58,0,0,1,4.31-4.19c0.18-.15.21-0.28,0.09-0.4a3.63,3.63,0,0,0-.64-0.58,0.48,0.48,0,0,0-.61.12,4.93,4.93,0,0,1-.67.52c-0.18.12-1.66-1.32-2.42-2.36a4.53,4.53,0,0,0-1.81-1.5c0.31-.34,1-1.07.74-1a1.89,1.89,0,0,1-2.09-.61c-1-1.07-.61-1.63-0.83-1.78a2.75,2.75,0,0,1-2.15-1.2c-0.83-1.29-1.16-1.85-.49-2.76a1.36,1.36,0,0,0,.37-1.26,1.67,1.67,0,0,1,.77-1.69c0.77-.74,1.23-1.41,1.56-1.35s-0.51-.93-1-1.66a3.81,3.81,0,0,1-.28-0.51,4.68,4.68,0,0,1-.36-1.36,28.64,28.64,0,0,0,0,40.47,29.07,29.07,0,0,0,4.09,3.4,1.15,1.15,0,0,1,1.7-.1" transform="translate(-360.32 -255.89)"/><path class="cls-6" d="M369.23,260.44a10.15,10.15,0,0,1,5.23,3.81c0.21,0.29.43,0.25,0.52,0a10.13,10.13,0,0,0,.55-3.07,8.63,8.63,0,0,1,1-4.79,9.62,9.62,0,0,0-7.3,4" transform="translate(-360.32 -255.89)"/><path class="cls-7" d="M369.23,260.44a10.15,10.15,0,0,1,5.23,3.81c0.21,0.29.43,0.25,0.52,0a10.13,10.13,0,0,0,.55-3.07,8.63,8.63,0,0,1,1-4.79A9.62,9.62,0,0,0,369.23,260.44Z" transform="translate(-360.32 -255.89)"/><path class="cls-6" d="M367.71,268.33c4.72,0.43,6.19-2.21,6.5-2.61s-0.06-.64-0.21-0.86a9.85,9.85,0,0,0-5.16-3.81,9.63,9.63,0,0,0-1.12,7.28" transform="translate(-360.32 -255.89)"/><path class="cls-7" d="M367.71,268.33c4.72,0.43,6.19-2.21,6.5-2.61s-0.06-.64-0.21-0.86a9.85,9.85,0,0,0-5.16-3.81A9.63,9.63,0,0,0,367.71,268.33Z" transform="translate(-360.32 -255.89)"/><path class="cls-6" d="M386.45,268.15a6,6,0,0,0-6,1.41c-1.69,1.47-2.54,2.6-3.13,6.1h-0.21a9.57,9.57,0,0,1-6.48-2.51,17.43,17.43,0,0,0,8-4.63,16.32,16.32,0,0,0,4.45-7c0.37-1.41-.15-0.58-0.43.06a20.22,20.22,0,0,1-4.63,6.29,19.89,19.89,0,0,1-7.85,4.87,9.59,9.59,0,0,1-2.19-3.56c1,0.06,4.07-.3,5.62-1.56,2-1.67,2.27-3.65,2.55-6.47s0.69-3.66,1.36-4.73a9.62,9.62,0,0,1,8.94,11.73" transform="translate(-360.32 -255.89)"/><path class="cls-7" d="M386.45,268.15a6,6,0,0,0-6,1.41c-1.69,1.47-2.54,2.6-3.13,6.1h-0.21a9.57,9.57,0,0,1-6.48-2.51,17.43,17.43,0,0,0,8-4.63,16.32,16.32,0,0,0,4.45-7c0.37-1.41-.15-0.58-0.43.06a20.22,20.22,0,0,1-4.63,6.29,19.89,19.89,0,0,1-7.85,4.87,9.59,9.59,0,0,1-2.19-3.56c1,0.06,4.07-.3,5.62-1.56,2-1.67,2.27-3.65,2.55-6.47s0.69-3.66,1.36-4.73A9.62,9.62,0,0,1,386.45,268.15Z" transform="translate(-360.32 -255.89)"/><path class="cls-6" d="M386.18,269.11c-0.46-.64-2.1-1-4.71.68-0.24.15-.41,0.26-0.12,0.55a9.58,9.58,0,0,1,2,3,9.64,9.64,0,0,0,2.86-4.23" transform="translate(-360.32 -255.89)"/><path class="cls-7" d="M386.18,269.11c-0.46-.64-2.1-1-4.71.68-0.24.15-.41,0.26-0.12,0.55a9.58,9.58,0,0,1,2,3A9.64,9.64,0,0,0,386.18,269.11Z" transform="translate(-360.32 -255.89)"/><path class="cls-6" d="M382.55,273.94a13.36,13.36,0,0,0-1.53-3c-0.28-.36-0.34-0.52-0.86-0.06a8.37,8.37,0,0,0-2.31,4.75,9.57,9.57,0,0,0,4.71-1.69" transform="translate(-360.32 -255.89)"/><path class="cls-7" d="M382.55,273.94a13.36,13.36,0,0,0-1.53-3c-0.28-.36-0.34-0.52-0.86-0.06a8.37,8.37,0,0,0-2.31,4.75A9.57,9.57,0,0,0,382.55,273.94Z" transform="translate(-360.32 -255.89)"/><path class="cls-8" d="M394.37,334.27a0.77,0.77,0,0,1,.6-0.12c0.12,0.09.86,0.61,1.32,1s0.61,0.52.25,0.74-0.71.43-.64,0.25a0.62,0.62,0,0,0-.09-0.71c-0.25-.25-0.85-0.71-1.1-0.92l-0.32-.25" transform="translate(-360.32 -255.89)"/><path class="cls-9" d="M394.37,334.27a0.77,0.77,0,0,1,.6-0.12c0.12,0.09.86,0.61,1.32,1s0.61,0.52.25,0.74-0.71.43-.64,0.25a0.62,0.62,0,0,0-.09-0.71c-0.25-.25-0.85-0.71-1.1-0.92Z" transform="translate(-360.32 -255.89)"/><path class="cls-8" d="M392.64,334.78a0.36,0.36,0,0,0,0,.55c0.18,0.18,1.21,1,1.38,1.21a0.72,0.72,0,0,0,.69.17c0.28-.06-0.32.34-0.55,0.38a0.77,0.77,0,0,1-.74-0.18l-1.9-1.79c-0.28-.26.08-0.26,0.32-0.29s0.46,0,.8,0" transform="translate(-360.32 -255.89)"/><path class="cls-9" d="M392.64,334.78a0.36,0.36,0,0,0,0,.55c0.18,0.18,1.21,1,1.38,1.21a0.72,0.72,0,0,0,.69.17c0.28-.06-0.32.34-0.55,0.38a0.77,0.77,0,0,1-.74-0.18l-1.9-1.79c-0.28-.26.08-0.26,0.32-0.29S392.3,334.81,392.64,334.78Z" transform="translate(-360.32 -255.89)"/><path class="cls-8" d="M390.92,326.93c0.09,0.28.12,0.54-.31,0.47s-2.24-.23-2.76-0.23c-0.12,0-.08-0.31-0.26-0.18a0.83,0.83,0,0,0-.11.7c0,0.31,0,.49,0,0.71a0.91,0.91,0,0,0,1,.81,4,4,0,0,0,1.86-.22c0.25-.17,0-0.44-0.25-0.44a11.33,11.33,0,0,1-1.9,0c-0.29-.11-0.48-0.44-0.28-0.58a3,3,0,0,1,1.2,0,6.19,6.19,0,0,1,1.1,0c0.12,0.08.29,0,.29,0.63a0.45,0.45,0,0,0,.43.17c0.14,0,.2.23,0.18,0.54s0,0.37-.54.37l-3.28,0c-0.14,0-.15-0.11-0.17-0.38s-0.11-2.19-.14-2.35,0.37-.17.69-0.11A9.48,9.48,0,0,0,389,327c0.52,0,1.32.11,1.32,0.11a0.61,0.61,0,0,0,.44-0.08c0-.12.17-0.15,0.2-0.06" transform="translate(-360.32 -255.89)"/><path class="cls-9" d="M390.92,326.93c0.09,0.28.12,0.54-.31,0.47s-2.24-.23-2.76-0.23c-0.12,0-.08-0.31-0.26-0.18a0.83,0.83,0,0,0-.11.7c0,0.31,0,.49,0,0.71a0.91,0.91,0,0,0,1,.81,4,4,0,0,0,1.86-.22c0.25-.17,0-0.44-0.25-0.44a11.33,11.33,0,0,1-1.9,0c-0.29-.11-0.48-0.44-0.28-0.58a3,3,0,0,1,1.2,0,6.19,6.19,0,0,1,1.1,0c0.12,0.08.29,0,.29,0.63a0.45,0.45,0,0,0,.43.17c0.14,0,.2.23,0.18,0.54s0,0.37-.54.37l-3.28,0c-0.14,0-.15-0.11-0.17-0.38s-0.11-2.19-.14-2.35,0.37-.17.69-0.11A9.48,9.48,0,0,0,389,327c0.52,0,1.32.11,1.32,0.11a0.61,0.61,0,0,0,.44-0.08C390.77,326.87,390.89,326.84,390.92,326.93Z" transform="translate(-360.32 -255.89)"/><path class="cls-10" d="M379.91,284.71a0.92,0.92,0,0,0-.89.71,1.28,1.28,0,0,0,.18,1.59c0.58,0.83.95,1.32,2,1.26a1.6,1.6,0,0,0,1.07-.61c0.15-.21.18,0.15-0.06,0.52a1.68,1.68,0,0,0,0,1.81,1.94,1.94,0,0,0,2.67.34,5.07,5.07,0,0,0,2-2,0.61,0.61,0,0,0,0-.83,6.93,6.93,0,0,1-1.07-3.71c-0.09-1.38.15-2.27-.71-2.76s-2.82-1.65-3.07-3.93c-0.09-.86,0-2.18-0.89-1.47a2.24,2.24,0,0,0-1,1.72,2.69,2.69,0,0,0,.7,1.72,17.84,17.84,0,0,0,1.13,1.84,1.82,1.82,0,0,0,.83.52,15.08,15.08,0,0,1,1.66.12c0.28,0.09.43,0.43-.25,0.43a18.9,18.9,0,0,0-2.18.24,1.06,1.06,0,0,0-1.1,1c-0.21.92-.52,2-0.55,2.33s-0.21.52-.21,0.71,0.37,1.07,1.2.18a6.19,6.19,0,0,0,1.32-2.21c0.15-.43.34-0.37,0.18,0.31a6.14,6.14,0,0,0,.12,2.94,1.46,1.46,0,0,0,1.93.83,1.49,1.49,0,0,1,.74-0.22c0.25,0,0,.46-0.26.64s-0.92,1-2.16-.15a2.83,2.83,0,0,1-.83-1.66,0.29,0.29,0,0,0-.52-0.12c-0.15.21-1,1-1.56,0.43a1.57,1.57,0,0,1-.49-2c0.06-.21.18-0.44,0-0.49" transform="translate(-360.32 -255.89)"/><path class="cls-11" d="M379.91,284.71a0.92,0.92,0,0,0-.89.71,1.28,1.28,0,0,0,.18,1.59c0.58,0.83.95,1.32,2,1.26a1.6,1.6,0,0,0,1.07-.61c0.15-.21.18,0.15-0.06,0.52a1.68,1.68,0,0,0,0,1.81,1.94,1.94,0,0,0,2.67.34,5.07,5.07,0,0,0,2-2,0.61,0.61,0,0,0,0-.83,6.93,6.93,0,0,1-1.07-3.71c-0.09-1.38.15-2.27-.71-2.76s-2.82-1.65-3.07-3.93c-0.09-.86,0-2.18-0.89-1.47a2.24,2.24,0,0,0-1,1.72,2.69,2.69,0,0,0,.7,1.72,17.84,17.84,0,0,0,1.13,1.84,1.82,1.82,0,0,0,.83.52,15.08,15.08,0,0,1,1.66.12c0.28,0.09.43,0.43-.25,0.43a18.9,18.9,0,0,0-2.18.24,1.06,1.06,0,0,0-1.1,1c-0.21.92-.52,2-0.55,2.33s-0.21.52-.21,0.71,0.37,1.07,1.2.18a6.19,6.19,0,0,0,1.32-2.21c0.15-.43.34-0.37,0.18,0.31a6.14,6.14,0,0,0,.12,2.94,1.46,1.46,0,0,0,1.93.83,1.49,1.49,0,0,1,.74-0.22c0.25,0,0,.46-0.26.64s-0.92,1-2.16-.15a2.83,2.83,0,0,1-.83-1.66,0.29,0.29,0,0,0-.52-0.12c-0.15.21-1,1-1.56,0.43a1.57,1.57,0,0,1-.49-2C379.94,285,380.06,284.76,379.91,284.71Z" transform="translate(-360.32 -255.89)"/><path class="cls-10" d="M380.53,283c-0.13.4-.25,0.92-0.31,1.1s-0.34.58-.58,0.06a1,1,0,0,1,.15-1.32c0.12-.12.31-0.37,0.43-0.25a0.83,0.83,0,0,1,.31.4" transform="translate(-360.32 -255.89)"/><path class="cls-11" d="M380.53,283c-0.13.4-.25,0.92-0.31,1.1s-0.34.58-.58,0.06a1,1,0,0,1,.15-1.32c0.12-.12.31-0.37,0.43-0.25A0.83,0.83,0,0,1,380.53,283Z" transform="translate(-360.32 -255.89)"/><path class="cls-10" d="M381.91,281.58a1.5,1.5,0,0,0-1,.55c-0.12.28-.61,0-0.37-0.37a1.08,1.08,0,0,1,.58-0.4c0.15-.09.21-0.37,0.52-0.22s0.37,0.37.25,0.43" transform="translate(-360.32 -255.89)"/><path class="cls-11" d="M381.91,281.58a1.5,1.5,0,0,0-1,.55c-0.12.28-.61,0-0.37-0.37a1.08,1.08,0,0,1,.58-0.4c0.15-.09.21-0.37,0.52-0.22S382,281.52,381.91,281.58Z" transform="translate(-360.32 -255.89)"/><path class="cls-10" d="M402.12,266.4a5.65,5.65,0,0,0-2.45,1.17c-0.8.55-3.68,3-4.35,3.47,0.71,0.37.89,1.1,0.64,2.33-0.05.27,0,.37,0.18,0.18a3.27,3.27,0,0,0,1-1.84,2.24,2.24,0,0,0-.43-1.26c-0.06-.09.25-0.46,0.58,0.31a2.87,2.87,0,0,1-.77,3,4.11,4.11,0,0,1-2.24,1.38,0.76,0.76,0,0,0-.46,1.2,1,1,0,0,0,1.47.18,2.27,2.27,0,0,1,1.72-.37c1,0.09,1.31-.53.64-1.2-0.21-.21-0.77-0.71-0.09-0.71,0.4,0,.89.89,1.16,1.14a3.32,3.32,0,0,0,1.72.4c0.83,0.06,2.12.37,2.12,1.17,0,0.49-.26.63-0.61,0.25-0.14-.15-0.33.09-0.49,0.25a8.82,8.82,0,0,1-2.81,2.18c-1,.25-1.3,0-2.56-0.71s-2.42-1.35-2.76-1.56-1-.71-0.71.28a4.17,4.17,0,0,0,2.82,2.55,11.81,11.81,0,0,1,2.27.92c0.37,0.18.15,0.37-.34,0.31s-0.89-.43-0.52.4a2.19,2.19,0,0,0,2.61,1.5c1.69-.21,1.74-0.57,2.79-2.33,0.18-.31.37-0.09,0.25,0.71a8.06,8.06,0,0,1,1.78-.64,4.09,4.09,0,0,0,2.61-2.12,2.74,2.74,0,0,0,.58-1.9,2.54,2.54,0,0,1,.89-1.35c0.46-.43,1.72-2.05,1.07-3.22s-1.72-.58-2.24.28a6.13,6.13,0,0,0-1.13,3.28,0.78,0.78,0,0,0-.92.31c-0.09.15-1.44,0-1.9,0.09s-0.61-.15-0.12-0.8,2.22-3,2.12-4.72a2.69,2.69,0,0,1,.12-1c0.11-.51.15-0.51-0.48-0.86a1.76,1.76,0,0,1-.5-1.35c-0.08-.52-0.18-0.52-0.77-0.4a1.77,1.77,0,0,1-1.5-.89" transform="translate(-360.32 -255.89)"/><path class="cls-12" d="M402.12,266.4a5.65,5.65,0,0,0-2.45,1.17c-0.8.55-3.68,3-4.35,3.47,0.71,0.37.89,1.1,0.64,2.33-0.05.27,0,.37,0.18,0.18a3.27,3.27,0,0,0,1-1.84,2.24,2.24,0,0,0-.43-1.26c-0.06-.09.25-0.46,0.58,0.31a2.87,2.87,0,0,1-.77,3,4.11,4.11,0,0,1-2.24,1.38,0.76,0.76,0,0,0-.46,1.2,1,1,0,0,0,1.47.18,2.27,2.27,0,0,1,1.72-.37c1,0.09,1.31-.53.64-1.2-0.21-.21-0.77-0.71-0.09-0.71,0.4,0,.89.89,1.16,1.14a3.32,3.32,0,0,0,1.72.4c0.83,0.06,2.12.37,2.12,1.17,0,0.49-.26.63-0.61,0.25-0.14-.15-0.33.09-0.49,0.25a8.82,8.82,0,0,1-2.81,2.18c-1,.25-1.3,0-2.56-0.71s-2.42-1.35-2.76-1.56-1-.71-0.71.28a4.17,4.17,0,0,0,2.82,2.55,11.81,11.81,0,0,1,2.27.92c0.37,0.18.15,0.37-.34,0.31s-0.89-.43-0.52.4a2.19,2.19,0,0,0,2.61,1.5c1.69-.21,1.74-0.57,2.79-2.33,0.18-.31.37-0.09,0.25,0.71a8.06,8.06,0,0,1,1.78-.64,4.09,4.09,0,0,0,2.61-2.12,2.74,2.74,0,0,0,.58-1.9,2.54,2.54,0,0,1,.89-1.35c0.46-.43,1.72-2.05,1.07-3.22s-1.72-.58-2.24.28a6.13,6.13,0,0,0-1.13,3.28,0.78,0.78,0,0,0-.92.31c-0.09.15-1.44,0-1.9,0.09s-0.61-.15-0.12-0.8,2.22-3,2.12-4.72a2.69,2.69,0,0,1,.12-1c0.11-.51.15-0.51-0.48-0.86a1.76,1.76,0,0,1-.5-1.35c-0.08-.52-0.18-0.52-0.77-0.4A1.77,1.77,0,0,1,402.12,266.4Z" transform="translate(-360.32 -255.89)"/><path class="cls-10" d="M398.53,276a1.46,1.46,0,0,1-1.7.63c-0.54-.06-1.06-0.07-1.15.35s-0.31.28-.64,0.26a1.19,1.19,0,0,0-.75,0,9.93,9.93,0,0,0,2,1.26,4.39,4.39,0,0,0,1.84.72c0.8-.08,1.49-0.47,2.67-1.72,0.48-.51.87-0.78,0.41-1a2.34,2.34,0,0,0-1-.18,3.33,3.33,0,0,1-1.64-.34" transform="translate(-360.32 -255.89)"/><path class="cls-12" d="M398.53,276a1.46,1.46,0,0,1-1.7.63c-0.54-.06-1.06-0.07-1.15.35s-0.31.28-.64,0.26a1.19,1.19,0,0,0-.75,0,9.93,9.93,0,0,0,2,1.26,4.39,4.39,0,0,0,1.84.72c0.8-.08,1.49-0.47,2.67-1.72,0.48-.51.87-0.78,0.41-1a2.34,2.34,0,0,0-1-.18A3.33,3.33,0,0,1,398.53,276Z" transform="translate(-360.32 -255.89)"/><path class="cls-10" d="M392.81,276c-0.41,0-.46-0.32-0.18-0.78a3.93,3.93,0,0,1,.9-1.17,1,1,0,0,0,.37.55,1.43,1.43,0,0,0-.51,1.23" transform="translate(-360.32 -255.89)"/><path class="cls-12" d="M392.81,276c-0.41,0-.46-0.32-0.18-0.78a3.93,3.93,0,0,1,.9-1.17,1,1,0,0,0,.37.55,1.43,1.43,0,0,0-.51,1.23Z" transform="translate(-360.32 -255.89)"/><path class="cls-2" d="M399.7,271.49c0.08-.43,0-0.78-0.61-0.28-0.58-.43-1.1-1-1.29-1.07a0.3,0.3,0,0,1-.06-0.52c0.21-.22.6,0.16,0.51-0.48,0-.21.47-0.08,0.6-0.14s-0.06-.36.52-0.21a0.94,0.94,0,0,1,.48-0.25c0.37,0.06.55,0.2,0.63-.09s0.16-.47.63-0.18,0.44,0.08.47-.08,0.32-.06.58,0.09a5.65,5.65,0,0,1,1.67,1.37c0.18,0.21.28,0.44,0.15,0.47s-0.26,0-.29.25-0.15.46-.29,0.18a1.46,1.46,0,0,1-.28-0.24c-0.11-.29-0.25.11-0.32-0.09a1.57,1.57,0,0,0-.29-0.18,1.08,1.08,0,0,1-.43,0c-0.09-.17-0.29.18-0.44,0s-0.15.22-.4,0.12a3.57,3.57,0,0,1-.38.12c-0.25-.11-0.17.31-0.4,0.25s-0.21,0-.26.31a12.91,12.91,0,0,0-.14,1.52c0,0.25.52,0.18,1.29,0.08a6.69,6.69,0,0,0,2.82-1.1,0.46,0.46,0,0,1,.57-0.14,0.61,0.61,0,0,1-.28.49,3.63,3.63,0,0,1-1.9.94,14.1,14.1,0,0,1-2.36.37c-0.2,0,.08.29,0.43,0.21,0.19,0,.58.69,1.23,0.69a3.37,3.37,0,0,0,1.52-.75c0.21-.17,1-0.52.48,0a3,3,0,0,1-1.62,1.1,3.68,3.68,0,0,1-2-.57,1.06,1.06,0,0,1-.69-1.23c0.11-.61.12-0.74,0.15-0.9" transform="translate(-360.32 -255.89)"/><path class="cls-12" d="M399.7,271.49c0.08-.43,0-0.78-0.61-0.28-0.58-.43-1.1-1-1.29-1.07a0.3,0.3,0,0,1-.06-0.52c0.21-.22.6,0.16,0.51-0.48,0-.21.47-0.08,0.6-0.14s-0.06-.36.52-0.21a0.94,0.94,0,0,1,.48-0.25c0.37,0.06.55,0.2,0.63-.09s0.16-.47.63-0.18,0.44,0.08.47-.08,0.32-.06.58,0.09a5.65,5.65,0,0,1,1.67,1.37c0.18,0.21.28,0.44,0.15,0.47s-0.26,0-.29.25-0.15.46-.29,0.18a1.46,1.46,0,0,1-.28-0.24c-0.11-.29-0.25.11-0.32-0.09a1.57,1.57,0,0,0-.29-0.18,1.08,1.08,0,0,1-.43,0c-0.09-.17-0.29.18-0.44,0s-0.15.22-.4,0.12a3.57,3.57,0,0,1-.38.12c-0.25-.11-0.17.31-0.4,0.25s-0.21,0-.26.31a12.91,12.91,0,0,0-.14,1.52c0,0.25.52,0.18,1.29,0.08a6.69,6.69,0,0,0,2.82-1.1,0.46,0.46,0,0,1,.57-0.14,0.61,0.61,0,0,1-.28.49,3.63,3.63,0,0,1-1.9.94,14.1,14.1,0,0,1-2.36.37c-0.2,0,.08.29,0.43,0.21,0.19,0,.58.69,1.23,0.69a3.37,3.37,0,0,0,1.52-.75c0.21-.17,1-0.52.48,0a3,3,0,0,1-1.62,1.1,3.68,3.68,0,0,1-2-.57,1.06,1.06,0,0,1-.69-1.23C399.65,271.78,399.67,271.66,399.7,271.49Z" transform="translate(-360.32 -255.89)"/><path class="cls-2" d="M408.62,273.42a0.91,0.91,0,0,0-.58.77,2.51,2.51,0,0,1-.28,1.23c-0.21.08-.18-0.4-0.25-0.25s-0.35.12-.43-0.08-0.8-.08-0.18-1a3.91,3.91,0,0,1,1.38-1.41c0.4-.18,1.07.18,0.34,0.71" transform="translate(-360.32 -255.89)"/><path class="cls-12" d="M408.62,273.42a0.91,0.91,0,0,0-.58.77,2.51,2.51,0,0,1-.28,1.23c-0.21.08-.18-0.4-0.25-0.25s-0.35.12-.43-0.08-0.8-.08-0.18-1a3.91,3.91,0,0,1,1.38-1.41C408.68,272.54,409.36,272.9,408.62,273.42Z" transform="translate(-360.32 -255.89)"/><path class="cls-10" d="M423.63,309.88c-0.14-.36.11-1,0.87-0.54s1.35,0.8.8,2.48-0.95,2.67-1.16,3.37-1,1.59-.77.4a10.9,10.9,0,0,0,.31-3.37c-0.21-1.35.22-1.27,0.08-1.89a3.35,3.35,0,0,0-.12-0.46" transform="translate(-360.32 -255.89)"/><path class="cls-11" d="M423.63,309.88c-0.14-.36.11-1,0.87-0.54s1.35,0.8.8,2.48-0.95,2.67-1.16,3.37-1,1.59-.77.4a10.9,10.9,0,0,0,.31-3.37c-0.21-1.35.22-1.27,0.08-1.89A3.35,3.35,0,0,0,423.63,309.88Z" transform="translate(-360.32 -255.89)"/><path class="cls-10" d="M426.53,311.33a4.53,4.53,0,0,1,.09,2.79,23.81,23.81,0,0,1-1.93,2.73c-0.43.43-.77,0.25-0.49-0.21a4.85,4.85,0,0,0,.64-1.29,2,2,0,0,1,.34-1.17,30.1,30.1,0,0,0,1.07-3.25c0.06-.18.22,0.22,0.28,0.4" transform="translate(-360.32 -255.89)"/><path class="cls-11" d="M426.53,311.33a4.53,4.53,0,0,1,.09,2.79,23.81,23.81,0,0,1-1.93,2.73c-0.43.43-.77,0.25-0.49-0.21a4.85,4.85,0,0,0,.64-1.29,2,2,0,0,1,.34-1.17,30.1,30.1,0,0,0,1.07-3.25C426.32,310.75,426.47,311.15,426.53,311.33Z" transform="translate(-360.32 -255.89)"/><path class="cls-10" d="M418.62,317a8.36,8.36,0,0,0-.58-1.81c0.25-.67,1.05-2.49,2.42-3a0.27,0.27,0,0,0,.18-0.34c-0.06-.12.18-0.21,0.31,0.21s0.34,1.66.34,1.66a2.31,2.31,0,0,1-.12.86,5.65,5.65,0,0,0-.12,1.63c0.09,0.43.25,0.74,1.11,0.55,0.43-.09.4-0.22,0.52-0.58s0.46-1.41.58-2a7.43,7.43,0,0,0-.11-2.38c-0.12-.37,0-1.61,0-1.86a1.15,1.15,0,0,0-.92-0.86c-0.77-.24-1-0.3-1.5.22s-0.71.74-1,1-0.86,0-.34-0.46,1-1,1.17-1.13l-0.15-.4h-0.28a5.69,5.69,0,0,1-2.67,1.47c-0.28.06-.8,0.09-0.43,0.58,0.09,0.12.12,0.46,0.34,0.34s0.55-.68.86-0.43-0.06.83-.43,1.1a10.27,10.27,0,0,1-1,.71,0.7,0.7,0,0,0-.4.8,5,5,0,0,1-.21,2.05,1.17,1.17,0,0,0,.12,1.32,4.58,4.58,0,0,1,.77,1.6c0.12,0.74.18,0.92,0.67,0.86a1,1,0,0,0,.86-0.58" transform="translate(-360.32 -255.89)"/><path class="cls-11" d="M418.62,317a8.36,8.36,0,0,0-.58-1.81c0.25-.67,1.05-2.49,2.42-3a0.27,0.27,0,0,0,.18-0.34c-0.06-.12.18-0.21,0.31,0.21s0.34,1.66.34,1.66a2.31,2.31,0,0,1-.12.86,5.65,5.65,0,0,0-.12,1.63c0.09,0.43.25,0.74,1.11,0.55,0.43-.09.4-0.22,0.52-0.58s0.46-1.41.58-2a7.43,7.43,0,0,0-.11-2.38c-0.12-.37,0-1.61,0-1.86a1.15,1.15,0,0,0-.92-0.86c-0.77-.24-1-0.3-1.5.22s-0.71.74-1,1-0.86,0-.34-0.46,1-1,1.17-1.13l-0.15-.4h-0.28a5.69,5.69,0,0,1-2.67,1.47c-0.28.06-.8,0.09-0.43,0.58,0.09,0.12.12,0.46,0.34,0.34s0.55-.68.86-0.43-0.06.83-.43,1.1a10.27,10.27,0,0,1-1,.71,0.7,0.7,0,0,0-.4.8,5,5,0,0,1-.21,2.05,1.17,1.17,0,0,0,.12,1.32,4.58,4.58,0,0,1,.77,1.6c0.12,0.74.18,0.92,0.67,0.86a1,1,0,0,0,.86-0.58Z" transform="translate(-360.32 -255.89)"/><path class="cls-6" d="M418.8,318.42a3.31,3.31,0,0,0-.58,1.47c0,0.52-.52,1.07-0.46,1.32s0.74,0.89,1.13,1.57a6.17,6.17,0,0,1,.92,3.37,23.23,23.23,0,0,1-.61,4.29,0.79,0.79,0,0,0,.24,1,4.78,4.78,0,0,1,1.47,3,12,12,0,0,0,.58,2.85,0.69,0.69,0,0,1,.09.58,11.8,11.8,0,0,0,.52,2.64c0.21,0.37.18-2.09,0.15-2.79a43.66,43.66,0,0,1,.15-4.57,1.82,1.82,0,0,0-.18-1.66,3.61,3.61,0,0,1-.61-3.47c0.55-1.78,1.44-1.75,1.17-2.45a5.11,5.11,0,0,0-1.14-1.59c-0.37-.4-0.08-1.35-0.09-1.75,0-.74-0.61-0.86-0.67-1.69a3,3,0,0,1,.49-2.33c0.61-.83-0.22-0.8-0.49-1.32a3.19,3.19,0,0,1-.18-2.3c0.12-.55.06-0.71-0.09-0.77s-0.8-.18-0.8-0.18l-1,1.9a3.79,3.79,0,0,1,.21,1.29" transform="translate(-360.32 -255.89)"/><path class="cls-7" d="M418.8,318.42a3.31,3.31,0,0,0-.58,1.47c0,0.52-.52,1.07-0.46,1.32s0.74,0.89,1.13,1.57a6.17,6.17,0,0,1,.92,3.37,23.23,23.23,0,0,1-.61,4.29,0.79,0.79,0,0,0,.24,1,4.78,4.78,0,0,1,1.47,3,12,12,0,0,0,.58,2.85,0.69,0.69,0,0,1,.09.58,11.8,11.8,0,0,0,.52,2.64c0.21,0.37.18-2.09,0.15-2.79a43.66,43.66,0,0,1,.15-4.57,1.82,1.82,0,0,0-.18-1.66,3.61,3.61,0,0,1-.61-3.47c0.55-1.78,1.44-1.75,1.17-2.45a5.11,5.11,0,0,0-1.14-1.59c-0.37-.4-0.08-1.35-0.09-1.75,0-.74-0.61-0.86-0.67-1.69a3,3,0,0,1,.49-2.33c0.61-.83-0.22-0.8-0.49-1.32a3.19,3.19,0,0,1-.18-2.3c0.12-.55.06-0.71-0.09-0.77s-0.8-.18-0.8-0.18l-1,1.9a3.79,3.79,0,0,1,.21,1.29Z" transform="translate(-360.32 -255.89)"/><path class="cls-5" d="M409.94,281.09a24.79,24.79,0,0,0-2.48,5.15c-0.55,1.59-1.81,5.4-.92,7.91s2.64,0.92,3,0,1-2.58,1.2-3,0.28-.68.61,0.34a29.6,29.6,0,0,1,.83,3.65,15.51,15.51,0,0,1-.7,1.78c-0.37,1-.58,1.63-0.22,2.21s1.81,3.07,2.27,4.14a0.86,0.86,0,0,0,1.26.58,27,27,0,0,0,3-1c0.52-.25.28-0.67,0.12-1.2-0.23-.79-1.16-5.21-1.16-5.8s0.16-1.35-.61-0.49c-0.28.31-.64,0-0.55-0.43s1-6.41,1.07-7.15c-0.52-1.14-2.06-4.72-2.49-5.37s-0.58-.67-1.23-0.34-2.08.86-2.61-.37c-0.09-.21-0.25-0.71.12-0.77l-0.28-.09a2.68,2.68,0,0,0-.31.31" transform="translate(-360.32 -255.89)"/><path class="cls-5" d="M418,303.14a15.49,15.49,0,0,1-3.31,1.29c-0.82.13-.61,0.34-0.46,1s0.61,2.46.86,3.1a1,1,0,0,0,1.23.61,6.37,6.37,0,0,0,3.83-1.56,12.64,12.64,0,0,1-1.1-3.13c-0.18-.86-0.18-1.75-1-1.26" transform="translate(-360.32 -255.89)"/><path class="cls-5" d="M400.4,285.45a0.84,0.84,0,0,1-.77.49,1.17,1.17,0,0,0-1.2.28,16.47,16.47,0,0,0-2.36,3.74c0.37,0.77.86,2.15,1.23,3.13,1.2-1,5-4.74,5.74-5.46,0.28-.28.31-0.52-0.09-0.8s-1.87-1.2-2.12-1.35-0.37-.15-0.43,0" transform="translate(-360.32 -255.89)"/><path class="cls-5" d="M390.74,290.84a15.34,15.34,0,0,1-1.47,3.9,2.53,2.53,0,0,0,.92,1.07,23.61,23.61,0,0,0,2.94-2.67,6.29,6.29,0,0,0,1-1.56c0-.18-0.21-0.25-0.49-0.18s-1.41-.39-2.51-0.61c-0.31-.06-0.4-0.06-0.43.06" transform="translate(-360.32 -255.89)"/><path class="cls-5" d="M390.07,289.92a6.71,6.71,0,0,1-1.9-2c-0.4-.67-0.46-0.61-0.61-0.12a9.35,9.35,0,0,1-1.13,2.08c-0.4.52-1.44,1.87-1.72,2.18s0,0.43.25,0.67,1.5,1.78,1.78,2.12,0.58,1,1.32.28a7.91,7.91,0,0,0,2-3.16c0.4-1.26.43-1.92,0.77-1.84l0-.26-0.09-.15-0.18-.15a0.31,0.31,0,0,1,0,.32,0.5,0.5,0,0,1-.48,0" transform="translate(-360.32 -255.89)"/><path class="cls-5" d="M408.83,261.71c-0.83,1-2.48,1.84-5.27,2.55a18.51,18.51,0,0,0-6.59,3.62,32.71,32.71,0,0,1-5.37,3.86c-0.37.15-1.15,0.67-.15,0.8,0.74,0.09,1.26-.34,2.85-1.5a35.69,35.69,0,0,0,4-3.19,13.3,13.3,0,0,1,5.4-2.76c2.21-.61,5.11-1.58,6-2.48,0.4-.43.43-0.64,0.06-1s-0.58-.28-0.92.12" transform="translate(-360.32 -255.89)"/><path class="cls-5" d="M394.76,271.35a1.61,1.61,0,0,0-.61,1.17,1.7,1.7,0,0,0,0,1.63,0.8,0.8,0,0,0,.54.17c0.09,0,.18,0,0.17-0.23a2.07,2.07,0,0,1,.8-1.87c0.15-.09,0-0.73-0.57-0.64-0.18,0,0-.38-0.31-0.21" transform="translate(-360.32 -255.89)"/><path class="cls-5" d="M385.28,274.87c0.43,0,.71,0,0.67.49s-0.25,1.17-.28,1.63,0,0.64.25,0.64-0.4.28-.77,0.34-0.93.27-1.23-1.29c-0.09-.49-0.06-1.26-0.12-1.44a3.71,3.71,0,0,1,1.47-.37" transform="translate(-360.32 -255.89)"/><path class="cls-5" d="M393.43,276.18c0.11,0.62.28,0.61,0.16,0.7a2.71,2.71,0,0,0-.75-0.15c-0.48.08-4.34,0.68-4.62,0.71-0.86.09-.9,0-0.11-0.22s3.71-.7,4.58-0.87" transform="translate(-360.32 -255.89)"/><path class="cls-5" d="M388.78,323.08c0.4,0.25,1.35.52,3-.15s3.44-.21,3.71,1a4.64,4.64,0,0,1-.21,3.31,1,1,0,0,1-1.32.34c-0.89-.28-2.94-1.23-3.53-1.5a6.18,6.18,0,0,0-2.27-.58,2.91,2.91,0,0,1-.06-2c0.18-.37.18-0.74,0.34-0.64l0.37,0.25" transform="translate(-360.32 -255.89)"/><path class="cls-5" d="M395.22,328.51a1.37,1.37,0,0,1,1.35.89c0.18,0.58,1.38.74,1.9,0.71s0.43,0.24.4,0.55-0.12,1.23-.12,1.59a17,17,0,0,0,.15,1.9c0.06,0.25-.15.37-0.43,0.49a2.22,2.22,0,0,1-1.93,0c-0.34-.24-0.74-0.58-0.34-0.61s-0.49-3.5-.74-4.11-1-1.38-.25-1.38" transform="translate(-360.32 -255.89)"/><path class="cls-5" d="M384.67,321.27a0.8,0.8,0,0,1,.37.43,0.46,0.46,0,0,1,0,.61,6.51,6.51,0,0,0-.67,3.25,2.29,2.29,0,0,0-.92-0.09,10.24,10.24,0,0,1,.28-3.47c0.31-.67.61-0.86,1-0.74" transform="translate(-360.32 -255.89)"/><path class="cls-5" d="M384.73,340a11.8,11.8,0,0,0,3.28,2.64,5,5,0,0,0,2.73.52c0.77-.07.61,0.24,0,0.34a5.54,5.54,0,0,1-2.94-.4,9.6,9.6,0,0,1-3.31-2.73c-0.22-.31,0-0.64.24-0.37" transform="translate(-360.32 -255.89)"/><path class="cls-5" d="M400.71,337.83a17.23,17.23,0,0,1-2.88,1.13,4.8,4.8,0,0,1,.15,1,7.16,7.16,0,0,0,3-1.13,0.42,0.42,0,0,0,.25-0.55c-0.09-.21-0.21-0.55-0.55-0.4" transform="translate(-360.32 -255.89)"/><path class="cls-5" d="M393.44,335.32c-0.15-.15.72-0.34,0.9-0.34a6.34,6.34,0,0,1,.75.63c0.09,0.09,0,.15,0,0.22a3.32,3.32,0,0,1-.87.21c-0.28-.25-0.66-0.64-0.74-0.72" transform="translate(-360.32 -255.89)"/><path class="cls-5" d="M395.06,322.56c-0.25-.18-0.22-0.28-0.09-0.46a1,1,0,0,1,.37-0.37,0.38,0.38,0,0,1,.52.22c0.21,0.31,1.38,2.24,1.63,2.76s0.55,0.18.43-.12a10.64,10.64,0,0,0-.46-1,14.15,14.15,0,0,0,.67-3.68,6.77,6.77,0,0,0-.43-2.45,14.8,14.8,0,0,0,3.34-.21c0.71-.21.12-0.28-0.15-0.25a27.09,27.09,0,0,1-3.71-.15,10.1,10.1,0,0,1-5.77-2.7c-0.12-.15-0.86-0.09-0.25.4a9.64,9.64,0,0,0,4.48,2.36c0.52,0.09,1.35.24,1.47,2.15a20.1,20.1,0,0,1-.06,3.31c0,0.18-.12.25-0.28,0a5.2,5.2,0,0,0-1-1.07,0.56,0.56,0,0,0-.71.06,6,6,0,0,0-.77.74" transform="translate(-360.32 -255.89)"/><path class="cls-5" d="M390.13,328.55a11.33,11.33,0,0,1-1.9,0c-0.29-.11-0.48-0.44-0.28-0.58a3,3,0,0,1,1.2,0,6.18,6.18,0,0,1,1.1,0c0.12,0.08.29,0,.29,0.63" transform="translate(-360.32 -255.89)"/><path class="cls-5" d="M386.78,337c-0.4-.25-0.86-1.38-1-3.65a8.21,8.21,0,0,1,.52-2.67c0.25-.61-0.15-0.37-0.25-0.15a8.77,8.77,0,0,0-.49,1.72,8.52,8.52,0,0,0,0,3c0.25,1.38.37,1.81,0.43,2.05" transform="translate(-360.32 -255.89)"/><path class="cls-8" d="M399.34,261.65c0.06-.15.11-0.31,0.17-0.44l-0.64.35c0.13,0.19.32,0.49,0.47,0.1" transform="translate(-360.32 -255.89)"/><path class="cls-9" d="M399.34,261.65c0.06-.15.11-0.31,0.17-0.44l-0.64.35C399,261.74,399.19,262,399.34,261.65Z" transform="translate(-360.32 -255.89)"/><path class="cls-8" d="M404.88,262c-0.09-.32-0.38.18-0.77,0.64a0.59,0.59,0,0,1-1,0,2.58,2.58,0,0,0-.51-0.94c-0.34-.44.32-1.06,0.6-1.13a3.47,3.47,0,0,0,.72-0.21,2.26,2.26,0,0,0-.13-0.87,23.25,23.25,0,0,0-3.63,1.48,0.87,0.87,0,0,1,.21.94c0,0.11-.17.72,0.11,0.35a1.27,1.27,0,0,1,.67-0.6c0.29-.09.61-0.08,0.63,0.35a1.38,1.38,0,0,1-.25.67c-0.06.28,0,.26,0.14,0.32a0.39,0.39,0,0,1,.12.54,0.91,0.91,0,0,1-1,.28c-0.41,0-.46,0-0.32.15a1.34,1.34,0,0,1,.32.61,16.91,16.91,0,0,1,4.08-1.27,4.24,4.24,0,0,0,0-1.27" transform="translate(-360.32 -255.89)"/><path class="cls-9" d="M404.88,262c-0.09-.32-0.38.18-0.77,0.64a0.59,0.59,0,0,1-1,0,2.58,2.58,0,0,0-.51-0.94c-0.34-.44.32-1.06,0.6-1.13a3.47,3.47,0,0,0,.72-0.21,2.26,2.26,0,0,0-.13-0.87,23.25,23.25,0,0,0-3.63,1.48,0.87,0.87,0,0,1,.21.94c0,0.11-.17.72,0.11,0.35a1.27,1.27,0,0,1,.67-0.6c0.29-.09.61-0.08,0.63,0.35a1.38,1.38,0,0,1-.25.67c-0.06.28,0,.26,0.14,0.32a0.39,0.39,0,0,1,.12.54,0.91,0.91,0,0,1-1,.28c-0.41,0-.46,0-0.32.15a1.34,1.34,0,0,1,.32.61,16.91,16.91,0,0,1,4.08-1.27A4.24,4.24,0,0,0,404.88,262Z" transform="translate(-360.32 -255.89)"/><path class="cls-8" d="M395.19,268c-0.14-.28-0.34-0.32-0.41-0.11a1.76,1.76,0,0,1-.71,1.13,3.08,3.08,0,0,1-.36.13,3.46,3.46,0,0,0,.56.49c0.38-.4.73-0.76,1.06-1.09a1.46,1.46,0,0,0-.14-0.55" transform="translate(-360.32 -255.89)"/><path class="cls-9" d="M395.19,268c-0.14-.28-0.34-0.32-0.41-0.11a1.76,1.76,0,0,1-.71,1.13,3.08,3.08,0,0,1-.36.13,3.46,3.46,0,0,0,.56.49c0.38-.4.73-0.76,1.06-1.09A1.46,1.46,0,0,0,395.19,268Z" transform="translate(-360.32 -255.89)"/><path class="cls-8" d="M399.77,264.35c-0.17-.06-0.31.2-0.41,0.38a0.76,0.76,0,0,1-.74.45,0.59,0.59,0,0,1-.6-0.52,0.61,0.61,0,0,0-.64-0.44c-0.29,0-.49-0.35-0.18-0.72a0.81,0.81,0,0,1,.86-0.2c0.25,0,.37-0.26.17-0.4a1.38,1.38,0,0,1-.49-0.66,28,28,0,0,0-3.22,2.45,1.94,1.94,0,0,1,.54.13,0.55,0.55,0,0,1,.35.52c0,0.28.06,0.34,0.23,0.15a1.23,1.23,0,0,1,.54-1c0.57-.21.64,0.22,0.61,0.51a0.58,0.58,0,0,0,.29.69c0.29,0.12.63,0.6,0,.88a8,8,0,0,1-1.26.41c-0.26.08-.2,0.34,0,0.51a3.15,3.15,0,0,1,.3.28,19.5,19.5,0,0,1,2.44-2c0.47-.32.91-0.61,1.36-0.87,0.07-.28.1-0.54-0.15-0.63" transform="translate(-360.32 -255.89)"/><path class="cls-9" d="M399.77,264.35c-0.17-.06-0.31.2-0.41,0.38a0.76,0.76,0,0,1-.74.45,0.59,0.59,0,0,1-.6-0.52,0.61,0.61,0,0,0-.64-0.44c-0.29,0-.49-0.35-0.18-0.72a0.81,0.81,0,0,1,.86-0.2c0.25,0,.37-0.26.17-0.4a1.38,1.38,0,0,1-.49-0.66,28,28,0,0,0-3.22,2.45,1.94,1.94,0,0,1,.54.13,0.55,0.55,0,0,1,.35.52c0,0.28.06,0.34,0.23,0.15a1.23,1.23,0,0,1,.54-1c0.57-.21.64,0.22,0.61,0.51a0.58,0.58,0,0,0,.29.69c0.29,0.12.63,0.6,0,.88a8,8,0,0,1-1.26.41c-0.26.08-.2,0.34,0,0.51a3.15,3.15,0,0,1,.3.28,19.5,19.5,0,0,1,2.44-2c0.47-.32.91-0.61,1.36-0.87C400,264.7,400,264.44,399.77,264.35Z" transform="translate(-360.32 -255.89)"/><path class="cls-8" d="M393.76,267.21a0.44,0.44,0,0,0-.37-0.46,1,1,0,0,1-.42-0.44,5.34,5.34,0,0,0-.4.61c0.07,0.21.13,0.4,0.2,0.58a1,1,0,0,0,1-.29" transform="translate(-360.32 -255.89)"/><path class="cls-9" d="M393.76,267.21a0.44,0.44,0,0,0-.37-0.46,1,1,0,0,1-.42-0.44,5.34,5.34,0,0,0-.4.61c0.07,0.21.13,0.4,0.2,0.58A1,1,0,0,0,393.76,267.21Z" transform="translate(-360.32 -255.89)"/><path class="cls-8" d="M406.72,281.52a8.19,8.19,0,0,0-3.34.58,0.85,0.85,0,0,0,.83.25c0.58-.2.78,0.41,0.51,0.58s-0.37.6,0.15,0.28,1,0.14.77,0.47-0.49.08-.43,0.55a0.75,0.75,0,0,1-.47,1c-0.43.08-.52-0.57-0.72-0.52a4.18,4.18,0,0,0,0,1.15,1.55,1.55,0,0,0-.74.47l0,0c1.69,1.21,2.12.55,2.36,0a21.5,21.5,0,0,0,1-3.22,5.49,5.49,0,0,0,.15-1.56" transform="translate(-360.32 -255.89)"/><path class="cls-9" d="M406.72,281.52a8.19,8.19,0,0,0-3.34.58,0.85,0.85,0,0,0,.83.25c0.58-.2.78,0.41,0.51,0.58s-0.37.6,0.15,0.28,1,0.14.77,0.47-0.49.08-.43,0.55a0.75,0.75,0,0,1-.47,1c-0.43.08-.52-0.57-0.72-0.52a4.18,4.18,0,0,0,0,1.15,1.55,1.55,0,0,0-.74.47l0,0c1.69,1.21,2.12.55,2.36,0a21.5,21.5,0,0,0,1-3.22A5.49,5.49,0,0,0,406.72,281.52Z" transform="translate(-360.32 -255.89)"/><path class="cls-8" d="M403.05,284.86c0.09-.23-0.15-0.43-0.41-0.26s-0.64.41-.91,0,0.29-.49.32-0.71a1.29,1.29,0,0,1-.08-0.6c0.11-.35.49-0.25,0.77-0.06s0.23-.29.18-0.49a1,1,0,0,1,0-.42,8.59,8.59,0,0,0-1,.51c-1.58,1-1.63,1.78-1.26,2.09s1,0.4,2.15,1.15a4.82,4.82,0,0,1,.23-1.18" transform="translate(-360.32 -255.89)"/><path class="cls-9" d="M403.05,284.86c0.09-.23-0.15-0.43-0.41-0.26s-0.64.41-.91,0,0.29-.49.32-0.71a1.29,1.29,0,0,1-.08-0.6c0.11-.35.49-0.25,0.77-0.06s0.23-.29.18-0.49a1,1,0,0,1,0-.42,8.59,8.59,0,0,0-1,.51c-1.58,1-1.63,1.78-1.26,2.09s1,0.4,2.15,1.15A4.82,4.82,0,0,1,403.05,284.86Z" transform="translate(-360.32 -255.89)"/><path class="cls-8" d="M398,283.94a4.35,4.35,0,0,1-1.72-1.87s0-.12-0.15-0.12a6.92,6.92,0,0,1-2-.46c-1.13-.4-1.29-0.15-1.44.34a11.36,11.36,0,0,0-.31,2.85c0,1.47.61,2.39,1,2.24,0.19-.07.7-0.32,1.23-0.59,0-.29,0-0.8.06-1s-0.32-.22-0.48,0a1,1,0,0,1-.72.44,0.91,0.91,0,0,1-.41-1c0-.46-0.49-0.64-0.15-1.26s0.61,0.15.9,0.09,0.14-.21,0-0.69,0.43-.62.8-0.28,0.34-.26.67-0.2a0.39,0.39,0,0,1,.34.63c-0.15.26-.26,0.87,0,0.55s0.58-.52.86-0.31a0.81,0.81,0,0,1,0,.89c-0.08.23,0.49,0.51,0.09,0.78s-0.84-.2-1.07-0.14-0.28.34,0,.55a3.08,3.08,0,0,0,.56.31,9.34,9.34,0,0,0,1.63-.79l0.4,0a1,1,0,0,0-.18-0.95" transform="translate(-360.32 -255.89)"/><path class="cls-9" d="M398,283.94a4.35,4.35,0,0,1-1.72-1.87s0-.12-0.15-0.12a6.92,6.92,0,0,1-2-.46c-1.13-.4-1.29-0.15-1.44.34a11.36,11.36,0,0,0-.31,2.85c0,1.47.61,2.39,1,2.24,0.19-.07.7-0.32,1.23-0.59,0-.29,0-0.8.06-1s-0.32-.22-0.48,0a1,1,0,0,1-.72.44,0.91,0.91,0,0,1-.41-1c0-.46-0.49-0.64-0.15-1.26s0.61,0.15.9,0.09,0.14-.21,0-0.69,0.43-.62.8-0.28,0.34-.26.67-0.2a0.39,0.39,0,0,1,.34.63c-0.15.26-.26,0.87,0,0.55s0.58-.52.86-0.31a0.81,0.81,0,0,1,0,.89c-0.08.23,0.49,0.51,0.09,0.78s-0.84-.2-1.07-0.14-0.28.34,0,.55a3.08,3.08,0,0,0,.56.31,9.34,9.34,0,0,0,1.63-.79l0.4,0A1,1,0,0,0,398,283.94Z" transform="translate(-360.32 -255.89)"/><path class="cls-8" d="M395.77,290.69c-0.25-.55-0.33-0.13-1,1a22.88,22.88,0,0,1-2.3,2.7c0.75,0.15,2.38.55,1.41,1.35s-0.58.8-.12,0.74,1.23,0.21.64,1.26a5.77,5.77,0,0,1-1.53,2.12,1,1,0,0,1-1.53-.49c-0.18-.8-0.71,0-0.74.52a11.09,11.09,0,0,0,0,1.72l-1.17-.06a10.16,10.16,0,0,1,.06-1.93c0.09-.46.06-1-0.64-0.8a1.16,1.16,0,0,1-.94-0.07,13,13,0,0,0-2.53,2.81,1.44,1.44,0,0,0,1.51.3c0.67-.28,1.78.06,1.1,1.1s-0.64,1.56,0,.92,1.76-1.75,2.09-.58c0.21,0.77-.49,1-0.46,1.63s0.64,1.23-.21,2-1.23-.52-1.81-0.34a0.63,0.63,0,0,0-.4.72c0.76,1.08,1.88,2.61,2.27,3.27,0.61,1,.61,2.24.86,2.06s0.83-.74,1-0.89a0.6,0.6,0,0,0,.28-0.67,13,13,0,0,1-.34-3.4,11,11,0,0,1,1.29-3.92c0.47-.87,1.9-3.65,2.24-4.39a15.31,15.31,0,0,0,1.1-2.27c0.15-.67.74-2.24,1-3a13.5,13.5,0,0,0-1.1-3.31" transform="translate(-360.32 -255.89)"/><path class="cls-9" d="M395.77,290.69c-0.25-.55-0.33-0.13-1,1a22.88,22.88,0,0,1-2.3,2.7c0.75,0.15,2.38.55,1.41,1.35s-0.58.8-.12,0.74,1.23,0.21.64,1.26a5.77,5.77,0,0,1-1.53,2.12,1,1,0,0,1-1.53-.49c-0.18-.8-0.71,0-0.74.52a11.09,11.09,0,0,0,0,1.72l-1.17-.06a10.16,10.16,0,0,1,.06-1.93c0.09-.46.06-1-0.64-0.8a1.16,1.16,0,0,1-.94-0.07,13,13,0,0,0-2.53,2.81,1.44,1.44,0,0,0,1.51.3c0.67-.28,1.78.06,1.1,1.1s-0.64,1.56,0,.92,1.76-1.75,2.09-.58c0.21,0.77-.49,1-0.46,1.63s0.64,1.23-.21,2-1.23-.52-1.81-0.34a0.63,0.63,0,0,0-.4.72c0.76,1.08,1.88,2.61,2.27,3.27,0.61,1,.61,2.24.86,2.06s0.83-.74,1-0.89a0.6,0.6,0,0,0,.28-0.67,13,13,0,0,1-.34-3.4,11,11,0,0,1,1.29-3.92c0.47-.87,1.9-3.65,2.24-4.39a15.31,15.31,0,0,0,1.1-2.27c0.15-.67.74-2.24,1-3A13.5,13.5,0,0,0,395.77,290.69Z" transform="translate(-360.32 -255.89)"/><path class="cls-8" d="M409.14,304.31a5.94,5.94,0,0,1-1.07-3.19,15.79,15.79,0,0,1,.12-3,0.45,0.45,0,0,0-.57.38,6.51,6.51,0,0,1-.49,1.84,1.26,1.26,0,0,1-1.17.43c-0.37,0-.37-0.22-0.12-0.77a2,2,0,0,0,.28-1.29c-0.06-.49-0.31-0.06-0.52.37a1.9,1.9,0,0,1-1.53,1.2c-0.71-.09-0.52-1.17-0.46-1.53s-0.15-.43-0.43-0.49-0.83-.18-0.52-1.07,0.64-.8,1.07-0.64,0.49-.12.09-0.28a1.07,1.07,0,0,1-.8-0.92,0.92,0.92,0,0,1,1.35-.92,1.74,1.74,0,0,0,1.5-.62l0-.08c-0.82-3.12.74-7,1.17-8a53.42,53.42,0,0,1,2.65-5l-1.56-.8c-0.44-.23-0.69-0.34-0.81-0.17s-0.28.26-.49,0.57c-0.43.61-.06,0.52,0.06,0.52a3.3,3.3,0,0,1,.74.83,0.93,0.93,0,0,1-.21.77c-0.28.64-.46,2.12-0.71,3-0.74,2.69-1.9,2.42-2.42,2.09s-0.67.18-1.2,0.92a10.1,10.1,0,0,1-.85.92c0.5,0.22,1.18.87,0.36,1.5s-1.14,1.13-.67,1,0.92-.8,1.44-0.31-0.18,1-.46,1.2a0.94,0.94,0,0,0-.68,1c0.15,0.58.25,1.38-.52,1.56a1,1,0,0,1-1.29-.55c-0.21-.4-0.43-0.12-0.52.37a7.49,7.49,0,0,0-.15,1c0,0.18-.55-0.09-0.8-0.34s-0.55.43-.83,0.09,0.34-1.38.55-1.75,0.12-.83-1.1-0.26a17.1,17.1,0,0,0-1.2,3.12,34,34,0,0,1-2.84,5.87,10.26,10.26,0,0,0-1.7,6.73c0.24,1.56.46,1.44,0.8,1.44s1.17,1,1.72,1.69,0.77,0.37,1,.15a30,30,0,0,1,5.18-3,33.09,33.09,0,0,1,3.89-1.5,10.73,10.73,0,0,1,.21-1.54c0.06-.31-0.25-0.4-0.55,0s-1.13,1.38-1.69,1.14a1.06,1.06,0,0,1-.71-1.38c0.31-.52-0.12-0.68-0.34-1s-0.22-1.35.46-1.44,0.89,0.49,1.35.64,0.83,0.12.25-.52-1.29-.4-0.92-1.29a1,1,0,0,1,1.5-.64,1.37,1.37,0,0,0,1.32-.43,1.28,1.28,0,0,1,1.75,0c0.55,0.64-.4,1.23-0.61,1.44-0.42.42-.49,1.2,0,0.74s1.25-2.12,1.78-.74c0.31,0.8-.28,1.1-0.18,1.6s0.92,1.17.24,1.78a1.56,1.56,0,0,1-2-.28c-0.4-.37-0.83-0.55-0.65.12a5.7,5.7,0,0,1,.21,1.34,11.19,11.19,0,0,1,3.11-.54c0.87,0.08,1.53.34,1.5-.46s-0.46-1.35-1.26-2.67m-10.89,5.49a1.51,1.51,0,0,1-1.35-.31c-0.49-.18-0.52.24-0.18,0.77s0.71,1,.31,1a0.64,0.64,0,0,0-.77.37c-0.06.31-.71-0.06-0.86-0.71s-0.31-1.87-.64-1.26-0.64,1.62-1.5,1.16-0.28-1.07-.7-1.5a1.34,1.34,0,0,1-.4-1.75c0.43-.77.8-0.12,1.2-0.12s0.46-.37.09-0.64-0.83-1.6.86-1.5a3,3,0,0,0,1.9-.58c0.55-.4,2-0.18,1.41.83s-0.4,1.23-.06.86,0.77-1,1.41-.86,0.37,0.67,0,1.23a0.72,0.72,0,0,0,.15,1.13c0.31,0.21.87,1.38-.83,1.87m3.13-7.24a5.31,5.31,0,0,1-1.23-.12,6.74,6.74,0,0,1-1.2,2.27,0.52,0.52,0,0,1-.55,0c-0.15-.12-0.58-0.34-0.25-0.71a2.61,2.61,0,0,0,.8-1.47c-0.09-.34-0.34-0.64-0.7-0.18s-1,1.41-1.6,1.44a0.88,0.88,0,0,1-1-1.14,1,1,0,0,0,0-1.41c-0.43-.52-0.27-1.19.64-1.59a1.22,1.22,0,0,1,1.1.28c0.34,0.28.52,0,.06-0.28a1.57,1.57,0,0,1-.89-1.23,0.76,0.76,0,0,1,1.1-.86,1.43,1.43,0,0,0,1.63-.21c0.34-.28,1.78-0.62,1.56.64a5.18,5.18,0,0,1-.71,1.44c-0.12.49,0.25,0.18,0.46-.18s0.71-1.87,1.72-.74a1.1,1.1,0,0,1-.15,1.26,0.89,0.89,0,0,0,.12,1.1,1.07,1.07,0,0,1-.92,1.72" transform="translate(-360.32 -255.89)"/><path class="cls-9" d="M401.38,302.56a5.31,5.31,0,0,1-1.23-.12,6.74,6.74,0,0,1-1.2,2.27,0.52,0.52,0,0,1-.55,0c-0.15-.12-0.58-0.34-0.25-0.71a2.61,2.61,0,0,0,.8-1.47c-0.09-.34-0.34-0.64-0.7-0.18s-1,1.41-1.6,1.44a0.88,0.88,0,0,1-1-1.14,1,1,0,0,0,0-1.41c-0.43-.52-0.27-1.19.64-1.59a1.22,1.22,0,0,1,1.1.28c0.34,0.28.52,0,.06-0.28a1.57,1.57,0,0,1-.89-1.23,0.76,0.76,0,0,1,1.1-.86,1.43,1.43,0,0,0,1.63-.21c0.34-.28,1.78-0.62,1.56.64a5.18,5.18,0,0,1-.71,1.44c-0.12.49,0.25,0.18,0.46-.18s0.71-1.87,1.72-.74a1.1,1.1,0,0,1-.15,1.26,0.89,0.89,0,0,0,.12,1.1A1.07,1.07,0,0,1,401.38,302.56Z" transform="translate(-360.32 -255.89)"/><path class="cls-9" d="M398.25,309.8a1.51,1.51,0,0,1-1.35-.31c-0.49-.18-0.52.24-0.18,0.77s0.71,1,.31,1a0.64,0.64,0,0,0-.77.37c-0.06.31-.71-0.06-0.86-0.71s-0.31-1.87-.64-1.26-0.64,1.62-1.5,1.16-0.28-1.07-.7-1.5a1.34,1.34,0,0,1-.4-1.75c0.43-.77.8-0.12,1.2-0.12s0.46-.37.09-0.64-0.83-1.6.86-1.5a3,3,0,0,0,1.9-.58c0.55-.4,2-0.18,1.41.83s-0.4,1.23-.06.86,0.77-1,1.41-.86,0.37,0.67,0,1.23a0.72,0.72,0,0,0,.15,1.13C399.39,308.14,400,309.3,398.25,309.8Z" transform="translate(-360.32 -255.89)"/><path class="cls-9" d="M409.14,304.31a5.94,5.94,0,0,1-1.07-3.19,15.79,15.79,0,0,1,.12-3,0.45,0.45,0,0,0-.57.38,6.51,6.51,0,0,1-.49,1.84,1.26,1.26,0,0,1-1.17.43c-0.37,0-.37-0.22-0.12-0.77a2,2,0,0,0,.28-1.29c-0.06-.49-0.31-0.06-0.52.37a1.9,1.9,0,0,1-1.53,1.2c-0.71-.09-0.52-1.17-0.46-1.53s-0.15-.43-0.43-0.49-0.83-.18-0.52-1.07,0.64-.8,1.07-0.64,0.49-.12.09-0.28a1.07,1.07,0,0,1-.8-0.92,0.92,0.92,0,0,1,1.35-.92,1.74,1.74,0,0,0,1.5-.62l0-.08c-0.82-3.12.74-7,1.17-8a53.48,53.48,0,0,1,2.65-5l-1.56-.8c-0.44-.23-0.69-0.34-0.81-0.17s-0.28.26-.49,0.57c-0.43.61-.06,0.52,0.06,0.52a3.3,3.3,0,0,1,.74.83,0.93,0.93,0,0,1-.21.77c-0.28.64-.46,2.12-0.71,3-0.74,2.69-1.9,2.42-2.42,2.09s-0.67.18-1.2,0.92a10.1,10.1,0,0,1-.85.92c0.5,0.22,1.18.87,0.36,1.5s-1.14,1.13-.67,1,0.92-.8,1.44-0.31-0.18,1-.46,1.2a0.94,0.94,0,0,0-.68,1c0.15,0.58.25,1.38-.52,1.56a1,1,0,0,1-1.29-.55c-0.21-.4-0.43-0.12-0.52.37a7.49,7.49,0,0,0-.15,1c0,0.18-.55-0.09-0.8-0.34s-0.55.43-.83,0.09,0.34-1.38.55-1.75,0.12-.83-1.1-0.26a17.1,17.1,0,0,0-1.2,3.12,34,34,0,0,1-2.84,5.87,10.26,10.26,0,0,0-1.7,6.73c0.24,1.56.46,1.44,0.8,1.44s1.17,1,1.72,1.69,0.77,0.37,1,.15a30,30,0,0,1,5.18-3,33.09,33.09,0,0,1,3.89-1.5,10.73,10.73,0,0,1,.21-1.54c0.06-.31-0.25-0.4-0.55,0s-1.13,1.38-1.69,1.14a1.06,1.06,0,0,1-.71-1.38c0.31-.52-0.12-0.68-0.34-1s-0.22-1.35.46-1.44,0.89,0.49,1.35.64,0.83,0.12.25-.52-1.29-.4-0.92-1.29a1,1,0,0,1,1.5-.64,1.37,1.37,0,0,0,1.32-.43,1.28,1.28,0,0,1,1.75,0c0.55,0.64-.4,1.23-0.61,1.44-0.42.42-.49,1.2,0,0.74s1.25-2.12,1.78-.74c0.31,0.8-.28,1.1-0.18,1.6s0.92,1.17.24,1.78a1.56,1.56,0,0,1-2-.28c-0.4-.37-0.83-0.55-0.65.12a5.7,5.7,0,0,1,.21,1.34,11.19,11.19,0,0,1,3.11-.54c0.87,0.08,1.53.34,1.5-.46S409.94,305.63,409.14,304.31Z" transform="translate(-360.32 -255.89)"/><path class="cls-3" d="M400.81,263.73a0.91,0.91,0,0,0,1-.28,0.39,0.39,0,0,0-.12-0.54c-0.14-.06-0.2,0-0.14-0.32a1.38,1.38,0,0,0,.25-0.67c0-.43-0.34-0.45-0.63-0.35a1.26,1.26,0,0,0-.67.6c-0.28.37-.15-0.25-0.11-0.35a0.83,0.83,0,0,0-.22-0.93l-0.63.32c-0.07.13-.12,0.29-0.18,0.45-0.15.4-.34,0.1-0.48-0.09h0c-0.41.23-.77,0.44-1,0.62l-0.09.06a1.29,1.29,0,0,0,.49.66c0.2,0.14.08,0.4-.17,0.4a0.81,0.81,0,0,0-.86.2c-0.31.37-.11,0.72,0.18,0.72a0.61,0.61,0,0,1,.64.44,0.59,0.59,0,0,0,.6.52,0.76,0.76,0,0,0,.74-0.45c0.11-.18.25-0.44,0.41-0.38s0.22,0.35.14,0.63c0.29-.17.58-0.33,0.9-0.48a1.3,1.3,0,0,0-.32-0.61c-0.14-.14-0.09-0.2.32-0.15" transform="translate(-360.32 -255.89)"/><path class="cls-13" d="M400.81,263.73a0.91,0.91,0,0,0,1-.28,0.39,0.39,0,0,0-.12-0.54c-0.14-.06-0.2,0-0.14-0.32a1.38,1.38,0,0,0,.25-0.67c0-.43-0.34-0.45-0.63-0.35a1.26,1.26,0,0,0-.67.6c-0.28.37-.15-0.25-0.11-0.35a0.83,0.83,0,0,0-.22-0.93l-0.63.32c-0.07.13-.12,0.29-0.18,0.45-0.15.4-.34,0.1-0.48-0.09h0c-0.41.23-.77,0.44-1,0.62l-0.09.06a1.29,1.29,0,0,0,.49.66c0.2,0.14.08,0.4-.17,0.4a0.81,0.81,0,0,0-.86.2c-0.31.37-.11,0.72,0.18,0.72a0.61,0.61,0,0,1,.64.44,0.59,0.59,0,0,0,.6.52,0.76,0.76,0,0,0,.74-0.45c0.11-.18.25-0.44,0.41-0.38s0.22,0.35.14,0.63c0.29-.17.58-0.33,0.9-0.48a1.3,1.3,0,0,0-.32-0.61C400.35,263.75,400.4,263.69,400.81,263.73Z" transform="translate(-360.32 -255.89)"/><path class="cls-3" d="M404.23,259.29l-0.44.12a2.27,2.27,0,0,1,.14.87,3.47,3.47,0,0,1-.72.21c-0.28.08-.94,0.69-0.6,1.13a2.59,2.59,0,0,1,.51.94,0.59,0.59,0,0,0,1,0c0.38-.46.68-1,0.77-0.64a4.22,4.22,0,0,1,0,1.28l0.24,0a5.9,5.9,0,0,0-.89-3.9" transform="translate(-360.32 -255.89)"/><path class="cls-13" d="M404.23,259.29l-0.44.12a2.27,2.27,0,0,1,.14.87,3.47,3.47,0,0,1-.72.21c-0.28.08-.94,0.69-0.6,1.13a2.59,2.59,0,0,1,.51.94,0.59,0.59,0,0,0,1,0c0.38-.46.68-1,0.77-0.64a4.22,4.22,0,0,1,0,1.28l0.24,0A5.9,5.9,0,0,0,404.23,259.29Z" transform="translate(-360.32 -255.89)"/><path class="cls-3" d="M395.82,267.52c-0.21-.17-0.28-0.43,0-0.51a7.93,7.93,0,0,0,1.26-.41c0.64-.28.31-0.75,0-0.87a0.58,0.58,0,0,1-.29-0.69c0-.29,0-0.72-0.61-0.51a1.24,1.24,0,0,0-.54,1c-0.17.18-.26,0.12-0.23-0.15a0.55,0.55,0,0,0-.35-0.52,2,2,0,0,0-.54-0.12,11.52,11.52,0,0,0-1.53,1.63,1,1,0,0,0,.42.43,0.44,0.44,0,0,1,.37.46,1,1,0,0,1-1,.29,4.83,4.83,0,0,0,.93,1.67l0.36-.13a1.76,1.76,0,0,0,.7-1.13c0.08-.21.28-0.17,0.41,0.11a1.42,1.42,0,0,1,.14.55l0.79-.76a3.23,3.23,0,0,0-.31-0.27" transform="translate(-360.32 -255.89)"/><path class="cls-13" d="M395.82,267.52c-0.21-.17-0.28-0.43,0-0.51a7.93,7.93,0,0,0,1.26-.41c0.64-.28.31-0.75,0-0.87a0.58,0.58,0,0,1-.29-0.69c0-.29,0-0.72-0.61-0.51a1.24,1.24,0,0,0-.54,1c-0.17.18-.26,0.12-0.23-0.15a0.55,0.55,0,0,0-.35-0.52,2,2,0,0,0-.54-0.12,11.52,11.52,0,0,0-1.53,1.63,1,1,0,0,0,.42.43,0.44,0.44,0,0,1,.37.46,1,1,0,0,1-1,.29,4.83,4.83,0,0,0,.93,1.67l0.36-.13a1.76,1.76,0,0,0,.7-1.13c0.08-.21.28-0.17,0.41,0.11a1.42,1.42,0,0,1,.14.55l0.79-.76A3.23,3.23,0,0,0,395.82,267.52Z" transform="translate(-360.32 -255.89)"/><path class="cls-3" d="M404,285.85a4.18,4.18,0,0,1,0-1.15c0.2,0,.29.6,0.72,0.52a0.75,0.75,0,0,0,.48-1c-0.06-.48.22-0.21,0.43-0.55s-0.25-.8-0.77-0.47-0.43-.11-0.15-0.28,0.08-.78-0.51-0.58a0.86,0.86,0,0,1-.84-0.24l-0.46.19a0.89,0.89,0,0,0,0,.42c0,0.2.14,0.71-.18,0.49s-0.66-.29-0.77.06a1.29,1.29,0,0,0,.08.6c0,0.21-.58.26-0.32,0.71s0.64,0.2.91,0,0.5,0,.41.26a4.73,4.73,0,0,0-.23,1.18l0.39,0.26a1.55,1.55,0,0,1,.75-0.46" transform="translate(-360.32 -255.89)"/><path class="cls-13" d="M404,285.85a4.18,4.18,0,0,1,0-1.15c0.2,0,.29.6,0.72,0.52a0.75,0.75,0,0,0,.48-1c-0.06-.48.22-0.21,0.43-0.55s-0.25-.8-0.77-0.47-0.43-.11-0.15-0.28,0.08-.78-0.51-0.58a0.86,0.86,0,0,1-.84-0.24l-0.46.19a0.89,0.89,0,0,0,0,.42c0,0.2.14,0.71-.18,0.49s-0.66-.29-0.77.06a1.29,1.29,0,0,0,.08.6c0,0.21-.58.26-0.32,0.71s0.64,0.2.91,0,0.5,0,.41.26a4.73,4.73,0,0,0-.23,1.18l0.39,0.26A1.55,1.55,0,0,1,404,285.85Z" transform="translate(-360.32 -255.89)"/><path class="cls-3" d="M395.6,284.79c0.23-.06.68,0.41,1.07,0.14s-0.17-.55-0.09-0.78a0.81,0.81,0,0,0,0-.89c-0.28-.21-0.57,0-0.86.31s-0.19-.29,0-0.55,0-.57-0.34-0.63-0.44.41-.67,0.2-0.94-.2-0.8.28,0.29,0.63,0,.69-0.57-.71-0.91-0.09,0.2,0.8.15,1.26a0.91,0.91,0,0,0,.41,1,1,1,0,0,0,.72-0.44c0.15-.18.52-0.32,0.48,0s0,0.75-.06,1a16.35,16.35,0,0,1,1.5-.67h0a2.89,2.89,0,0,1-.58-0.31c-0.31-.22-0.26-0.49,0-0.55" transform="translate(-360.32 -255.89)"/><path class="cls-13" d="M395.6,284.79c0.23-.06.68,0.41,1.07,0.14s-0.17-.55-0.09-0.78a0.81,0.81,0,0,0,0-.89c-0.28-.21-0.57,0-0.86.31s-0.19-.29,0-0.55,0-.57-0.34-0.63-0.44.41-.67,0.2-0.94-.2-0.8.28,0.29,0.63,0,.69-0.57-.71-0.91-0.09,0.2,0.8.15,1.26a0.91,0.91,0,0,0,.41,1,1,1,0,0,0,.72-0.44c0.15-.18.52-0.32,0.48,0s0,0.75-.06,1a16.35,16.35,0,0,1,1.5-.67h0a2.89,2.89,0,0,1-.58-0.31C395.33,285.13,395.37,284.85,395.6,284.79Z" transform="translate(-360.32 -255.89)"/><path class="cls-3" d="M388.81,298.76c0.71-.21.74,0.34,0.64,0.8a10.07,10.07,0,0,0-.06,1.93l1.16,0.06a11.11,11.11,0,0,1,0-1.72c0-.52.55-1.32,0.74-0.52a1,1,0,0,0,1.53.49,5.76,5.76,0,0,0,1.53-2.12c0.58-1-.18-1.32-0.65-1.26s-0.92.12,0.12-.74-0.66-1.2-1.41-1.35c-1.24,1.3-2.75,2.77-4.11,3.93l-0.49.43a1.17,1.17,0,0,0,.95.06" transform="translate(-360.32 -255.89)"/><path class="cls-13" d="M388.81,298.76c0.71-.21.74,0.34,0.64,0.8a10.07,10.07,0,0,0-.06,1.93l1.16,0.06a11.11,11.11,0,0,1,0-1.72c0-.52.55-1.32,0.74-0.52a1,1,0,0,0,1.53.49,5.76,5.76,0,0,0,1.53-2.12c0.58-1-.18-1.32-0.65-1.26s-0.92.12,0.12-.74-0.66-1.2-1.41-1.35c-1.24,1.3-2.75,2.77-4.11,3.93l-0.49.43A1.17,1.17,0,0,0,388.81,298.76Z" transform="translate(-360.32 -255.89)"/><path class="cls-3" d="M387.58,306.49c0.58-.19,1,1.07,1.81.34s0.25-1.35.21-2,0.67-.86.46-1.63c-0.33-1.17-1.41-.06-2.08.58s-0.71.12,0-.92-0.43-1.38-1.1-1.1a1.42,1.42,0,0,1-1.5-.31,12,12,0,0,0-.64,1.2c-0.58,1.2-.18,1.23.25,1.23s1.35,1.81,1.47,2.15a11.67,11.67,0,0,0,.77,1.17,0.63,0.63,0,0,1,.39-0.74" transform="translate(-360.32 -255.89)"/><path class="cls-13" d="M387.58,306.49c0.58-.19,1,1.07,1.81.34s0.25-1.35.21-2,0.67-.86.46-1.63c-0.33-1.17-1.41-.06-2.08.58s-0.71.12,0-.92-0.43-1.38-1.1-1.1a1.42,1.42,0,0,1-1.5-.31,12,12,0,0,0-.64,1.2c-0.58,1.2-.18,1.23.25,1.23s1.35,1.81,1.47,2.15a11.67,11.67,0,0,0,.77,1.17A0.63,0.63,0,0,1,387.58,306.49Z" transform="translate(-360.32 -255.89)"/><path class="cls-3" d="M396.57,298.39a0.75,0.75,0,0,1,1.1-.86,1.43,1.43,0,0,0,1.62-.21c0.34-.28,1.78-0.62,1.56.64a5.16,5.16,0,0,1-.71,1.44c-0.12.49,0.25,0.18,0.46-.18s0.71-1.87,1.72-.74a1.1,1.1,0,0,1-.15,1.26,0.89,0.89,0,0,0,.12,1.11,1.07,1.07,0,0,1-.92,1.72,5.31,5.31,0,0,1-1.23-.12,6.74,6.74,0,0,1-1.2,2.27,0.52,0.52,0,0,1-.55,0c-0.15-.12-0.58-0.34-0.25-0.71a2.61,2.61,0,0,0,.8-1.47c-0.09-.34-0.34-0.64-0.7-0.18s-1,1.41-1.6,1.44a0.88,0.88,0,0,1-1-1.13,1,1,0,0,0,0-1.41c-0.43-.52-0.27-1.19.64-1.59a1.22,1.22,0,0,1,1.1.28c0.34,0.28.52,0,.06-0.28a1.56,1.56,0,0,1-.89-1.23" transform="translate(-360.32 -255.89)"/><path class="cls-13" d="M396.57,298.39a0.75,0.75,0,0,1,1.1-.86,1.43,1.43,0,0,0,1.62-.21c0.34-.28,1.78-0.62,1.56.64a5.16,5.16,0,0,1-.71,1.44c-0.12.49,0.25,0.18,0.46-.18s0.71-1.87,1.72-.74a1.1,1.1,0,0,1-.15,1.26,0.89,0.89,0,0,0,.12,1.11,1.07,1.07,0,0,1-.92,1.72,5.31,5.31,0,0,1-1.23-.12,6.74,6.74,0,0,1-1.2,2.27,0.52,0.52,0,0,1-.55,0c-0.15-.12-0.58-0.34-0.25-0.71a2.61,2.61,0,0,0,.8-1.47c-0.09-.34-0.34-0.64-0.7-0.18s-1,1.41-1.6,1.44a0.88,0.88,0,0,1-1-1.13,1,1,0,0,0,0-1.41c-0.43-.52-0.27-1.19.64-1.59a1.22,1.22,0,0,1,1.1.28c0.34,0.28.52,0,.06-0.28A1.56,1.56,0,0,1,396.57,298.39Z" transform="translate(-360.32 -255.89)"/><path class="cls-3" d="M404.36,294.4a0.92,0.92,0,0,0-1.35.92,1.07,1.07,0,0,0,.8.92c0.4,0.15.34,0.43-.09,0.28s-0.77-.25-1.07.64,0.25,1,.52,1.07,0.49,0.12.43,0.49-0.25,1.44.46,1.53a1.9,1.9,0,0,0,1.53-1.2c0.22-.43.46-0.86,0.52-0.37a2,2,0,0,1-.28,1.29c-0.25.55-.25,0.8,0.12,0.77a1.26,1.26,0,0,0,1.17-.43,6.51,6.51,0,0,0,.49-1.84,0.44,0.44,0,0,1,.57-0.38c0.07-.62.16-1.23,0.25-1.76-1.2.18-2.23-1.29-2.58-2.56a1.73,1.73,0,0,1-1.49.63" transform="translate(-360.32 -255.89)"/><path class="cls-13" d="M404.36,294.4a0.92,0.92,0,0,0-1.35.92,1.07,1.07,0,0,0,.8.92c0.4,0.15.34,0.43-.09,0.28s-0.77-.25-1.07.64,0.25,1,.52,1.07,0.49,0.12.43,0.49-0.25,1.44.46,1.53a1.9,1.9,0,0,0,1.53-1.2c0.22-.43.46-0.86,0.52-0.37a2,2,0,0,1-.28,1.29c-0.25.55-.25,0.8,0.12,0.77a1.26,1.26,0,0,0,1.17-.43,6.51,6.51,0,0,0,.49-1.84,0.44,0.44,0,0,1,.57-0.38c0.07-.62.16-1.23,0.25-1.76-1.2.18-2.23-1.29-2.58-2.56A1.73,1.73,0,0,1,404.36,294.4Z" transform="translate(-360.32 -255.89)"/><path class="cls-3" d="M398.62,294.19c-0.21.37-.83,1.41-0.55,1.75s0.58-.34.83-0.09,0.8,0.52.8,0.34a7.62,7.62,0,0,1,.15-1c0.09-.49.31-0.77,0.52-0.37a1,1,0,0,0,1.29.55c0.77-.18.67-1,0.52-1.56a0.94,0.94,0,0,1,.67-1c0.28-.15,1-0.71.46-1.2s-1,.22-1.44.31-0.28-.31.67-1,0.13-1.27-.37-1.49c-1.32,1.33-3.66,3.49-4.17,4a2.92,2.92,0,0,0-.49.63c1.23-.58,1.31-0.09,1.1.26" transform="translate(-360.32 -255.89)"/><path class="cls-13" d="M398.62,294.19c-0.21.37-.83,1.41-0.55,1.75s0.58-.34.83-0.09,0.8,0.52.8,0.34a7.62,7.62,0,0,1,.15-1c0.09-.49.31-0.77,0.52-0.37a1,1,0,0,0,1.29.55c0.77-.18.67-1,0.52-1.56a0.94,0.94,0,0,1,.67-1c0.28-.15,1-0.71.46-1.2s-1,.22-1.44.31-0.28-.31.67-1,0.13-1.27-.37-1.49c-1.32,1.33-3.66,3.49-4.17,4a2.92,2.92,0,0,0-.49.63C398.75,293.36,398.83,293.84,398.62,294.19Z" transform="translate(-360.32 -255.89)"/><path class="cls-3" d="M406.23,306.52a1.56,1.56,0,0,0,2,.28c0.68-.61-0.15-1.29-0.24-1.78s0.49-.8.18-1.59c-0.53-1.39-1.32.28-1.78,0.73s-0.38-.32,0-0.73c0.21-.22,1.17-0.8.61-1.44a1.28,1.28,0,0,0-1.75,0,1.36,1.36,0,0,1-1.32.43,1,1,0,0,0-1.5.64c-0.37.89,0.34,0.64,0.92,1.29s0.21,0.67-.25.52-0.67-.74-1.35-0.64-0.68,1.17-.46,1.44,0.64,0.43.34,1a1.06,1.06,0,0,0,.71,1.38c0.55,0.24,1.38-.74,1.69-1.13s0.61-.31.55,0a10.38,10.38,0,0,0-.22,1.54l1.37-.41a5.64,5.64,0,0,0-.21-1.34c-0.18-.68.25-0.49,0.64-0.12" transform="translate(-360.32 -255.89)"/><path class="cls-13" d="M406.23,306.52a1.56,1.56,0,0,0,2,.28c0.68-.61-0.15-1.29-0.24-1.78s0.49-.8.18-1.59c-0.53-1.39-1.32.28-1.78,0.73s-0.38-.32,0-0.73c0.21-.22,1.17-0.8.61-1.44a1.28,1.28,0,0,0-1.75,0,1.36,1.36,0,0,1-1.32.43,1,1,0,0,0-1.5.64c-0.37.89,0.34,0.64,0.92,1.29s0.21,0.67-.25.52-0.67-.74-1.35-0.64-0.68,1.17-.46,1.44,0.64,0.43.34,1a1.06,1.06,0,0,0,.71,1.38c0.55,0.24,1.38-.74,1.69-1.13s0.61-.31.55,0a10.38,10.38,0,0,0-.22,1.54l1.37-.41a5.64,5.64,0,0,0-.21-1.34C405.4,306,405.83,306.15,406.23,306.52Z" transform="translate(-360.32 -255.89)"/><path class="cls-3" d="M394.3,305.32a3.06,3.06,0,0,0,1.9-.58c0.55-.4,2-0.18,1.41.83s-0.4,1.23-.06.86,0.77-1,1.41-.86,0.37,0.67,0,1.23a0.72,0.72,0,0,0,.15,1.14c0.31,0.21.87,1.38-.83,1.87a1.52,1.52,0,0,1-1.35-.31c-0.49-.18-0.52.24-0.18,0.77s0.71,1,.31,1a0.64,0.64,0,0,0-.77.37c-0.06.31-.71-0.06-0.86-0.71s-0.31-1.87-.64-1.26-0.64,1.62-1.5,1.16-0.28-1.07-.7-1.5a1.34,1.34,0,0,1-.4-1.75c0.43-.77.8-0.12,1.2-0.12s0.46-.37.09-0.64-0.83-1.6.86-1.5" transform="translate(-360.32 -255.89)"/><path class="cls-13" d="M394.3,305.32a3.06,3.06,0,0,0,1.9-.58c0.55-.4,2-0.18,1.41.83s-0.4,1.23-.06.86,0.77-1,1.41-.86,0.37,0.67,0,1.23a0.72,0.72,0,0,0,.15,1.14c0.31,0.21.87,1.38-.83,1.87a1.52,1.52,0,0,1-1.35-.31c-0.49-.18-0.52.24-0.18,0.77s0.71,1,.31,1a0.64,0.64,0,0,0-.77.37c-0.06.31-.71-0.06-0.86-0.71s-0.31-1.87-.64-1.26-0.64,1.62-1.5,1.16-0.28-1.07-.7-1.5a1.34,1.34,0,0,1-.4-1.75c0.43-.77.8-0.12,1.2-0.12s0.46-.37.09-0.64S392.61,305.23,394.3,305.32Z" transform="translate(-360.32 -255.89)"/><path class="cls-8" d="M400.37,283.85c-0.18.49-.43,1.1-0.55,1.41s-0.69.19-.64,0c0.09-.46-0.56-0.16-0.49-0.52s-0.06-.8.28-0.8,1-.06,1.41-0.06" transform="translate(-360.32 -255.89)"/><path class="cls-9" d="M400.37,283.85c-0.18.49-.43,1.1-0.55,1.41s-0.69.19-.64,0c0.09-.46-0.56-0.16-0.49-0.52s-0.06-.8.28-0.8S399.94,283.85,400.37,283.85Z" transform="translate(-360.32 -255.89)"/><path class="cls-8" d="M399.34,261.65c0.06-.15.11-0.31,0.17-0.44l-0.64.35c0.13,0.19.32,0.49,0.47,0.1" transform="translate(-360.32 -255.89)"/><path class="cls-8" d="M404.88,262c-0.09-.32-0.38.18-0.77,0.64a0.59,0.59,0,0,1-1,0,2.58,2.58,0,0,0-.51-0.94c-0.34-.44.32-1.06,0.6-1.13a3.47,3.47,0,0,0,.72-0.21,2.26,2.26,0,0,0-.13-0.87,23.25,23.25,0,0,0-3.63,1.48,0.87,0.87,0,0,1,.21.94c0,0.11-.17.72,0.11,0.35a1.27,1.27,0,0,1,.67-0.6c0.29-.09.61-0.08,0.63,0.35a1.38,1.38,0,0,1-.25.67c-0.06.28,0,.26,0.14,0.32a0.39,0.39,0,0,1,.12.54,0.91,0.91,0,0,1-1,.28c-0.41,0-.46,0-0.32.15a1.34,1.34,0,0,1,.32.61,16.91,16.91,0,0,1,4.08-1.27,4.24,4.24,0,0,0,0-1.27" transform="translate(-360.32 -255.89)"/><path class="cls-8" d="M395.19,268c-0.14-.28-0.34-0.32-0.41-0.11a1.76,1.76,0,0,1-.71,1.13,3.08,3.08,0,0,1-.36.13,3.46,3.46,0,0,0,.56.49c0.38-.4.73-0.76,1.06-1.09a1.46,1.46,0,0,0-.14-0.55" transform="translate(-360.32 -255.89)"/><path class="cls-8" d="M399.77,264.35c-0.17-.06-0.31.2-0.41,0.38a0.76,0.76,0,0,1-.74.45,0.59,0.59,0,0,1-.6-0.52,0.61,0.61,0,0,0-.64-0.44c-0.29,0-.49-0.35-0.18-0.72a0.81,0.81,0,0,1,.86-0.2c0.25,0,.37-0.26.17-0.4a1.38,1.38,0,0,1-.49-0.66,28,28,0,0,0-3.22,2.45,1.94,1.94,0,0,1,.54.13,0.55,0.55,0,0,1,.35.52c0,0.28.06,0.34,0.23,0.15a1.23,1.23,0,0,1,.54-1c0.57-.21.64,0.22,0.61,0.51a0.58,0.58,0,0,0,.29.69c0.29,0.12.63,0.6,0,.88a8,8,0,0,1-1.26.41c-0.26.08-.2,0.34,0,0.51a3.15,3.15,0,0,1,.3.28,19.5,19.5,0,0,1,2.44-2c0.47-.32.91-0.61,1.36-0.87,0.07-.28.1-0.54-0.15-0.63" transform="translate(-360.32 -255.89)"/><path class="cls-8" d="M393.76,267.21a0.44,0.44,0,0,0-.37-0.46,1,1,0,0,1-.42-0.44,5.34,5.34,0,0,0-.4.61c0.07,0.21.13,0.4,0.2,0.58a1,1,0,0,0,1-.29" transform="translate(-360.32 -255.89)"/><path class="cls-8" d="M406.72,281.52a8.19,8.19,0,0,0-3.34.58,0.85,0.85,0,0,0,.83.25c0.58-.2.78,0.41,0.51,0.58s-0.37.6,0.15,0.28,1,0.14.77,0.47-0.49.08-.43,0.55a0.75,0.75,0,0,1-.47,1c-0.43.08-.52-0.57-0.72-0.52a4.18,4.18,0,0,0,0,1.15,1.55,1.55,0,0,0-.74.47l0,0c1.69,1.21,2.12.55,2.36,0a21.5,21.5,0,0,0,1-3.22,5.49,5.49,0,0,0,.15-1.56" transform="translate(-360.32 -255.89)"/><path class="cls-8" d="M403.05,284.86c0.09-.23-0.15-0.43-0.41-0.26s-0.64.41-.91,0,0.29-.49.32-0.71a1.29,1.29,0,0,1-.08-0.6c0.11-.35.49-0.25,0.77-0.06s0.23-.29.18-0.49a1,1,0,0,1,0-.42,8.59,8.59,0,0,0-1,.51c-1.58,1-1.63,1.78-1.26,2.09s1,0.4,2.15,1.15a4.82,4.82,0,0,1,.23-1.18" transform="translate(-360.32 -255.89)"/><path class="cls-8" d="M398,283.94a4.35,4.35,0,0,1-1.72-1.87s0-.12-0.15-0.12a6.92,6.92,0,0,1-2-.46c-1.13-.4-1.29-0.15-1.44.34a11.36,11.36,0,0,0-.31,2.85c0,1.47.61,2.39,1,2.24,0.19-.07.7-0.32,1.23-0.59,0-.29,0-0.8.06-1s-0.32-.22-0.48,0a1,1,0,0,1-.72.44,0.91,0.91,0,0,1-.41-1c0-.46-0.49-0.64-0.15-1.26s0.61,0.15.9,0.09,0.14-.21,0-0.69,0.43-.62.8-0.28,0.34-.26.67-0.2a0.39,0.39,0,0,1,.34.63c-0.15.26-.26,0.87,0,0.55s0.58-.52.86-0.31a0.81,0.81,0,0,1,0,.89c-0.08.23,0.49,0.51,0.09,0.78s-0.84-.2-1.07-0.14-0.28.34,0,.55a3.08,3.08,0,0,0,.56.31,9.34,9.34,0,0,0,1.63-.79l0.4,0a1,1,0,0,0-.18-0.95" transform="translate(-360.32 -255.89)"/><path class="cls-8" d="M395.77,290.69c-0.25-.55-0.33-0.13-1,1a22.88,22.88,0,0,1-2.3,2.7c0.75,0.15,2.38.55,1.41,1.35s-0.58.8-.12,0.74,1.23,0.21.64,1.26a5.77,5.77,0,0,1-1.53,2.12,1,1,0,0,1-1.53-.49c-0.18-.8-0.71,0-0.74.52a11.09,11.09,0,0,0,0,1.72l-1.17-.06a10.16,10.16,0,0,1,.06-1.93c0.09-.46.06-1-0.64-0.8a1.16,1.16,0,0,1-.94-0.07,13,13,0,0,0-2.53,2.81,1.44,1.44,0,0,0,1.51.3c0.67-.28,1.78.06,1.1,1.1s-0.64,1.56,0,.92,1.76-1.75,2.09-.58c0.21,0.77-.49,1-0.46,1.63s0.64,1.23-.21,2-1.23-.52-1.81-0.34a0.63,0.63,0,0,0-.4.72c0.76,1.08,1.88,2.61,2.27,3.27,0.61,1,.61,2.24.86,2.06s0.83-.74,1-0.89a0.6,0.6,0,0,0,.28-0.67,13,13,0,0,1-.34-3.4,11,11,0,0,1,1.29-3.92c0.47-.87,1.9-3.65,2.24-4.39a15.31,15.31,0,0,0,1.1-2.27c0.15-.67.74-2.24,1-3a13.5,13.5,0,0,0-1.1-3.31" transform="translate(-360.32 -255.89)"/><path class="cls-8" d="M409.14,304.31a5.94,5.94,0,0,1-1.07-3.19,15.79,15.79,0,0,1,.12-3,0.45,0.45,0,0,0-.57.38,6.51,6.51,0,0,1-.49,1.84,1.26,1.26,0,0,1-1.17.43c-0.37,0-.37-0.22-0.12-0.77a2,2,0,0,0,.28-1.29c-0.06-.49-0.31-0.06-0.52.37a1.9,1.9,0,0,1-1.53,1.2c-0.71-.09-0.52-1.17-0.46-1.53s-0.15-.43-0.43-0.49-0.83-.18-0.52-1.07,0.64-.8,1.07-0.64,0.49-.12.09-0.28a1.07,1.07,0,0,1-.8-0.92,0.92,0.92,0,0,1,1.35-.92,1.74,1.74,0,0,0,1.5-.62l0-.08c-0.82-3.12.74-7,1.17-8a53.42,53.42,0,0,1,2.65-5l-1.56-.8c-0.44-.23-0.69-0.34-0.81-0.17s-0.28.26-.49,0.57c-0.43.61-.06,0.52,0.06,0.52a3.3,3.3,0,0,1,.74.83,0.93,0.93,0,0,1-.21.77c-0.28.64-.46,2.12-0.71,3-0.74,2.69-1.9,2.42-2.42,2.09s-0.67.18-1.2,0.92a10.1,10.1,0,0,1-.85.92c0.5,0.22,1.18.87,0.36,1.5s-1.14,1.13-.67,1,0.92-.8,1.44-0.31-0.18,1-.46,1.2a0.94,0.94,0,0,0-.68,1c0.15,0.58.25,1.38-.52,1.56a1,1,0,0,1-1.29-.55c-0.21-.4-0.43-0.12-0.52.37a7.49,7.49,0,0,0-.15,1c0,0.18-.55-0.09-0.8-0.34s-0.55.43-.83,0.09,0.34-1.38.55-1.75,0.12-.83-1.1-0.26a17.1,17.1,0,0,0-1.2,3.12,34,34,0,0,1-2.84,5.87,10.26,10.26,0,0,0-1.7,6.73c0.24,1.56.46,1.44,0.8,1.44s1.17,1,1.72,1.69,0.77,0.37,1,.15a30,30,0,0,1,5.18-3,33.09,33.09,0,0,1,3.89-1.5,10.73,10.73,0,0,1,.21-1.54c0.06-.31-0.25-0.4-0.55,0s-1.13,1.38-1.69,1.14a1.06,1.06,0,0,1-.71-1.38c0.31-.52-0.12-0.68-0.34-1s-0.22-1.35.46-1.44,0.89,0.49,1.35.64,0.83,0.12.25-.52-1.29-.4-0.92-1.29a1,1,0,0,1,1.5-.64,1.37,1.37,0,0,0,1.32-.43,1.28,1.28,0,0,1,1.75,0c0.55,0.64-.4,1.23-0.61,1.44-0.42.42-.49,1.2,0,0.74s1.25-2.12,1.78-.74c0.31,0.8-.28,1.1-0.18,1.6s0.92,1.17.24,1.78a1.56,1.56,0,0,1-2-.28c-0.4-.37-0.83-0.55-0.65.12a5.7,5.7,0,0,1,.21,1.34,11.19,11.19,0,0,1,3.11-.54c0.87,0.08,1.53.34,1.5-.46s-0.46-1.35-1.26-2.67m-10.89,5.49a1.51,1.51,0,0,1-1.35-.31c-0.49-.18-0.52.24-0.18,0.77s0.71,1,.31,1a0.64,0.64,0,0,0-.77.37c-0.06.31-.71-0.06-0.86-0.71s-0.31-1.87-.64-1.26-0.64,1.62-1.5,1.16-0.28-1.07-.7-1.5a1.34,1.34,0,0,1-.4-1.75c0.43-.77.8-0.12,1.2-0.12s0.46-.37.09-0.64-0.83-1.6.86-1.5a3,3,0,0,0,1.9-.58c0.55-.4,2-0.18,1.41.83s-0.4,1.23-.06.86,0.77-1,1.41-.86,0.37,0.67,0,1.23a0.72,0.72,0,0,0,.15,1.13c0.31,0.21.87,1.38-.83,1.87m3.13-7.24a5.31,5.31,0,0,1-1.23-.12,6.74,6.74,0,0,1-1.2,2.27,0.52,0.52,0,0,1-.55,0c-0.15-.12-0.58-0.34-0.25-0.71a2.61,2.61,0,0,0,.8-1.47c-0.09-.34-0.34-0.64-0.7-0.18s-1,1.41-1.6,1.44a0.88,0.88,0,0,1-1-1.14,1,1,0,0,0,0-1.41c-0.43-.52-0.27-1.19.64-1.59a1.22,1.22,0,0,1,1.1.28c0.34,0.28.52,0,.06-0.28a1.57,1.57,0,0,1-.89-1.23,0.76,0.76,0,0,1,1.1-.86,1.43,1.43,0,0,0,1.63-.21c0.34-.28,1.78-0.62,1.56.64a5.18,5.18,0,0,1-.71,1.44c-0.12.49,0.25,0.18,0.46-.18s0.71-1.87,1.72-.74a1.1,1.1,0,0,1-.15,1.26,0.89,0.89,0,0,0,.12,1.1,1.07,1.07,0,0,1-.92,1.72" transform="translate(-360.32 -255.89)"/><polyline class="cls-5" points="69.29 20.37 68.38 21.02 70.47 23.97 69.28 24.82 67.25 21.8 66.31 22.47 68.17 25.28 66.97 26.13 63.98 21.87 69.41 18.02 72.71 22.64 71.52 23.49"/><polyline class="cls-5" points="70.79 29.46 72.02 32.12 70.24 32.94 68.32 28.61 74.2 26.06 74.95 27.72"/><polyline class="cls-5" points="71.48 37.39 71.3 35.75 75.24 35.28 75.09 32.9 76.86 32.77 77.35 38.51 75.58 38.64 75.43 36.92"/><polyline class="cls-5" points="71.52 43.3 71.5 41.34 77.3 41.33 77.32 43.28"/><path class="cls-5" d="M434.9,307.12a1.67,1.67,0,0,0,.86-1.22,1.92,1.92,0,0,0-1.53-2.38,1.86,1.86,0,0,0-2.2,1.37,2.21,2.21,0,0,0,0,1.43l-1.53.51a5.07,5.07,0,0,1-.19-2.2,3,3,0,0,1,1.25-2.1,3.79,3.79,0,0,1,2.93-.59,3.14,3.14,0,0,1,2.23,1.49,3.67,3.67,0,0,1,.56,2.76,3.52,3.52,0,0,1-1.49,2.06" transform="translate(-360.32 -255.89)"/><path class="cls-5" d="M431.86,312.2a8.21,8.21,0,0,1-3,1.89,1,1,0,0,1-1.17-1.08,4.71,4.71,0,0,1,.24-2.13,4.07,4.07,0,0,1,1.2-1.65l1,0.43a2.88,2.88,0,0,0-1.07,1.54c-0.15.44-.28,1.12,0.16,1.27s1.57-.91,1.87-1.21c0.53-.51,1.63-1.4,2.44-1.19,0.53,0.14,1.52,1.25,1.14,3.07a4.19,4.19,0,0,1-1,2.1l-1.31-.88a3.14,3.14,0,0,0,.75-1.43,0.94,0.94,0,0,0-.19-1.08,1,1,0,0,0-1,.36" transform="translate(-360.32 -255.89)"/><path class="cls-5" d="M424.7,271.81a1.67,1.67,0,0,0-.64-1.34,2,2,0,0,0-2.82.42,1.92,1.92,0,0,0,.34,2.57,2.22,2.22,0,0,0,1.33.54l-0.16,1.61a5.06,5.06,0,0,1-2.08-.73,3,3,0,0,1-1.4-2,3.8,3.8,0,0,1,.67-2.91,3.73,3.73,0,0,1,2.45-1.51,3.27,3.27,0,0,1,2.69.73,4.23,4.23,0,0,1,1.11,2.37" transform="translate(-360.32 -255.89)"/><path class="cls-5" d="M365.47,304.51c0-1.71.88-2.56,1.35-2.66a1.66,1.66,0,0,1,1.72.43,3,3,0,0,1,1,1.78,4,4,0,0,1,0,2l-1.24.13a2.59,2.59,0,0,0-.06-1.75,0.83,0.83,0,0,0-.86-0.81c-0.47.1-.45,0.9-0.49,1.34-0.14,1.41-.6,2.32-1.47,2.42s-1.83-.45-2.18-2.12a6.19,6.19,0,0,1,.1-2.52h1.29a4.41,4.41,0,0,0-.22,1.94,0.88,0.88,0,0,0,.72.78,1,1,0,0,0,.38-1" transform="translate(-360.32 -255.89)"/><polyline class="cls-5" points="8.51 40.56 8.53 42 3.96 42.05 3.97 44.13 2.51 44.15 2.45 38.68 3.91 38.66 3.93 40.62"/><polyline class="cls-5" points="11.79 24.32 7.86 21.85 8.73 20.49 14.5 23.82 13.38 25.54 8.7 25.62 8.69 25.64 12.23 27.68 11.35 29.22 5.68 25.92 6.42 24.48"/><path class="cls-5" d="M363.27,288.76a3.54,3.54,0,1,1,3.54,3.54,3.55,3.55,0,0,1-3.54-3.54m3.54,1.85a1.85,1.85,0,1,0-1.85-1.85,1.85,1.85,0,0,0,1.85,1.85" transform="translate(-360.32 -255.89)"/><path class="cls-5" d="M365.56,312.08a3.54,3.54,0,1,1,3.54,3.55,3.55,3.55,0,0,1-3.54-3.55m3.54,1.85a1.85,1.85,0,1,0-1.85-1.85,1.85,1.85,0,0,0,1.85,1.85" transform="translate(-360.32 -255.89)"/><path class="cls-5" d="M373.07,318.54a2,2,0,0,1,.29-2.4c1.1-1,2.95,1.26,3.62,2.1l1.91,2.22-4.71,3.89-1.77-1.75c-1.27-1.27-2.82-2.87-1.54-4a2.39,2.39,0,0,1,2.21-.08m3.66,1-0.15-.18c-0.35-.43-1.61-2-2.11-1.55s0.78,1.91,1.17,2.38l0.12,0.15Zm-2.28,1.92c-0.17-.21-1.57-1.92-2.14-1.38s0.8,1.66,1.27,2.22Z" transform="translate(-360.32 -255.89)"/></svg>