<svg id="Layer_1" data-name="Layer 1" xmlns="http://www.w3.org/2000/svg" viewBox="0 0 55.55 73.45"><defs><style>.cls-1,.cls-2,.cls-3,.cls-4{stroke:#000;}.cls-1,.cls-3,.cls-4,.cls-5{stroke-width:0.32px;}.cls-2{stroke-width:0.3px;}.cls-3,.cls-5,.cls-6{fill:#fff;}.cls-4{fill:none;}.cls-5{stroke:#fff;}</style></defs><title>brooklyn-nets</title><g id="layer2"><path id="path2997" class="cls-1" d="M399.8,263.43c-15.93.12-27.31,5.85-27.42,6,0,11.3,1.83,21.73,6.28,30.24C383.58,309,393,317.74,400,319.83c8.57-2.85,17-11.39,21.44-20.17,4.29-8.49,6.17-18.77,6.17-30.19a64,64,0,0,0-27.81-6h0Zm0,0.92a62.86,62.86,0,0,1,26.87,5.73c0.1,11.57-2.06,21.34-6.09,29.17-5,9.67-13.64,17.38-20.57,19.7-7.77-2.35-16.49-11.65-20.61-19.54-6.07-11.64-6.37-24.82-6-29.47,0.1-.11,11.08-5.47,26.43-5.59h0Z" transform="translate(-372.23 -263.27)"/><path id="path2997-1-7" class="cls-2" d="M425.86,270.53c-15.89-7.32-37.84-7-51.68.05-0.22,13.61,3.3,23.58,6.54,29.5,3.66,6.67,12,15.6,19.37,18,10-3.46,19-15.4,22-24C425,285.58,425.82,280.51,425.86,270.53Z" transform="translate(-372.23 -263.27)"/><path id="path3825" class="cls-3" d="M378,289l0-17.28s-0.06-.18.24-0.3l2.34-.87s0.26-.1.32,0.05l5.22,13.15L386,269.3a0.33,0.33,0,0,1,.25-0.32l1.79-.39a0.19,0.19,0,0,1,.23.21c0,0.25,0,17.33,0,17.33a0.39,0.39,0,0,1-.26.34l-2.51.59a0.32,0.32,0,0,1-.37-0.17L380,274s0.08,14.39.07,14.4a0.32,0.32,0,0,1-.2.32l-1.68.58A0.26,0.26,0,0,1,378,289h0Z" transform="translate(-372.23 -263.27)"/><path id="path3829" class="cls-3" d="M390.15,268.42s-0.09-.25.36-0.3a54.69,54.69,0,0,1,8.68-.74s0.4-.09.4,0.19v1.22a0.25,0.25,0,0,1-.25.28,42,42,0,0,0-6.82.52l0,6a31.79,31.79,0,0,1,5.6-.44s0.21-.12.21,0.2v1.17s0,0.33-.25.3a40.25,40.25,0,0,0-5.59.43V284a49.59,49.59,0,0,1,6.82-.49,0.23,0.23,0,0,1,.29.26v1.08a0.27,0.27,0,0,1-.29.35,59.7,59.7,0,0,0-8.77.74s-0.33,0-.33-0.18Z" transform="translate(-372.23 -263.27)"/><path id="path2996" class="cls-3" d="M405.13,285.14V269.26a34.89,34.89,0,0,0-4.14-.2,0.21,0.21,0,0,1-.24-0.23c0-.25,0-1.27,0-1.27s-0.06-.21.23-0.2a69.93,69.93,0,0,1,10.71,1,0.31,0.31,0,0,1,.26.26v1.21s0,0.32-.28.27-2-.39-4.17-0.63v15.81a0.22,0.22,0,0,1-.22.28l-1.83-.15a0.26,0.26,0,0,1-.28-0.26h0Z" transform="translate(-372.23 -263.27)"/><path id="path3009" class="cls-3" d="M420.32,276.21a0.35,0.35,0,0,1-.2-0.27c0-.16,0-2.35,0-2.35a2.63,2.63,0,0,0-1.55-2A4.88,4.88,0,0,0,416,271a1.17,1.17,0,0,0-1,1.34,4.39,4.39,0,0,0,.57,2.39,27.39,27.39,0,0,0,2.25,2.59l2,2.14a16.91,16.91,0,0,1,2.31,2.94,5.78,5.78,0,0,1,.59,2.79s0.23,2.93-2.12,3.05c0,0-1.77.36-5.16-1.07,0,0-3.14-1.11-3.4-4.05l0-2.73a0.24,0.24,0,0,1,.26-0.26l1.86,0.36a0.23,0.23,0,0,1,.21.27v2.63s0.09,2.41,4.35,3.05a1.28,1.28,0,0,0,1.69-1.24v-1.38s0-1.29-1.92-3.14l-4.1-4.11a6.8,6.8,0,0,1-1.75-3.4,6,6,0,0,1,.5-2.89s1.38-2.4,6.33,0a4.65,4.65,0,0,1,2.83,3.5l0.13,2.93a0.25,0.25,0,0,1-.28.25c-0.26,0-1.85-.69-1.85-0.69h0Z" transform="translate(-372.23 -263.27)"/><path id="path2999" class="cls-4" d="M398.58,293.49s-0.09,0-.09.1,0,5.49,0,5.49a0.09,0.09,0,0,0,.1.1H400a1.63,1.63,0,0,0,1.46-1.49v-3a1.19,1.19,0,0,0-1.51-1.24h-1.33Z" transform="translate(-372.23 -263.27)"/><path id="path3001" class="cls-4" d="M398.58,301.11a0.09,0.09,0,0,0-.1.1s0,6.79,0,6.79a0.12,0.12,0,0,0,.13.12l2,0c0.17-.09,1.53.24,1.53-1.92v-3.42c0-.29-0.15-1.75-2.42-1.71h-1.12Z" transform="translate(-372.23 -263.27)"/><path id="path3772" class="cls-5" d="M396.36,288.47a12.79,12.79,0,0,0-6.84,4.79c2.8-.44,5.1,1.1,6,1.46l0,0.91A12.29,12.29,0,0,0,389.1,294c-0.63.57-2,4.06-1.84,7.42,0.47,0.28.85,2.25,8.19,4l0,1.1s-5.35-.57-8.09-4.16c0.32,3.09,2.75,8.18,7.36,9.73,4,0.58,6.43-.75,10.09-2.57,4-2.1,3.92-2.23,5.21-2.84a12.24,12.24,0,0,0,.37-2.29,24.57,24.57,0,0,1-5.28,1.69v-0.9a25.47,25.47,0,0,0,5.34-1.74,15.57,15.57,0,0,0-.17-2.72c-1.92,1.15-5.24-.05-5.75-0.17a1.06,1.06,0,0,0-.57-0.64,0.76,0.76,0,0,0,.3-0.73c1.58,0.84,4.2,1.31,5.78.57-1.81-7.45-8.39-11.94-13.65-11.21h0Z" transform="translate(-372.23 -263.27)"/><path id="path3002" class="cls-6" d="M395.77,312.62c1.78,1.3,11.91,1.7,14-5.13-4.53,2.82-8.8,5.87-14,5.13h0Z" transform="translate(-372.23 -263.27)"/><path id="path3003" class="cls-6" d="M409.38,309.3s1.69-1.88,1.74-2.57c-0.14-.13-0.39.08-0.58,0.21A8.66,8.66,0,0,1,409.38,309.3Z" transform="translate(-372.23 -263.27)"/><path id="path3010" class="cls-6" d="M411.27,303.79a8.29,8.29,0,0,1-.45,2.45,0.45,0.45,0,0,1,.64.15,10.38,10.38,0,0,0,1.21-4.14,3.24,3.24,0,0,1-1.4,1.54h0Z" transform="translate(-372.23 -263.27)"/><path id="path2998" class="cls-1" d="M396.39,292q0,8.84,0,17.67c0.25,0.67,1.22.23,1.8,0.35,1.06,0,2.13,0,3.2,0a3.1,3.1,0,0,0,2.7-2.74q0-2.55,0-5.11a2.69,2.69,0,0,0-1.73-2.15,2.6,2.6,0,0,0,1.11-2.56c0-1.13,0-2.26-.07-3.38a2.54,2.54,0,0,0-1.79-2.29,12.09,12.09,0,0,0-2.73-.14c-0.76,0-1.52,0-2.27,0a0.36,0.36,0,0,0-.24.38h0Z" transform="translate(-372.23 -263.27)"/><path id="path3777" class="cls-3" d="M398.55,293.49a0.1,0.1,0,0,0-.08.1c0,0.08,0,5.5,0,5.5a0.07,0.07,0,0,0,.09.07h1.38a1.47,1.47,0,0,0,1.46-1.55v-3a1,1,0,0,0-1.14-1.07h-1.73Z" transform="translate(-372.23 -263.27)"/><path id="path3779" class="cls-3" d="M398.49,301.08V308s0,0.12.16,0.12h2.05s1.4,0.17,1.39-1.84v-3.68s-0.16-1.55-2.3-1.53h-1.3Z" transform="translate(-372.23 -263.27)"/><path id="path3793" class="cls-6" d="M412.34,297.48a8.39,8.39,0,0,1,.46,3.35,4,4,0,0,1-1.55,2.15,10.83,10.83,0,0,0-.3-2.91,4.73,4.73,0,0,0,1.38-2.59h0Z" transform="translate(-372.23 -263.27)"/><path id="path3795" class="cls-5" d="M411.61,295.94c-0.84-4.23-6.63-8.67-12.8-8,7.41,0.78,10.95,8,11.91,11.13,1-.52.89-3.1,0.89-3.1h0Z" transform="translate(-372.23 -263.27)"/><path id="path3011" class="cls-1" d="M376.85,323.13v13.08a0.19,0.19,0,0,0,.05.16h3.34a2.31,2.31,0,0,0,1.92-2.05v-3.54a1.75,1.75,0,0,0-1.39-1.55,1.84,1.84,0,0,0,.94-1.57v-2.8a1.71,1.71,0,0,0-1.67-1.71Z" transform="translate(-372.23 -263.27)"/><path id="path3012" class="cls-3" d="M378.14,324.29a0.07,0.07,0,0,0,0,.08c0,0.08,0,4.28,0,4.28a0,0,0,0,0,0,.06H379a1.27,1.27,0,0,0,1.42-1.13v-2.43s0.11-.83-1-0.84h-1.26Z" transform="translate(-372.23 -263.27)"/><path id="path3014" class="cls-3" d="M378.16,329.85a0.1,0.1,0,0,0,0,.09v5.24s0,0.06,0,.06h1.58a1.25,1.25,0,0,0,1.21-1.51v-2.36a1.42,1.42,0,0,0-1.61-1.51h-1.18Z" transform="translate(-372.23 -263.27)"/><path id="path3784" class="cls-1" d="M382.92,323.18l0.05,13s0,0.16.09,0.14,1,0,1,0a0.17,0.17,0,0,0,.14-0.17c0-.16,0-6.06,0-6.06l1.08,0,2.35,6.25h1.15a0.14,0.14,0,0,0,.1-0.09v-0.2L386.6,330a2.3,2.3,0,0,0,1.71-1.87V325a2.1,2.1,0,0,0-2.33-1.82h-3Z" transform="translate(-372.23 -263.27)"/><path id="path3013" class="cls-3" d="M384.19,324.29v4.65h1.89a1,1,0,0,0,.91-1v-2.4a1.07,1.07,0,0,0-1.08-1.21h-1.72Z" transform="translate(-372.23 -263.27)"/><path id="path3015" class="cls-1" d="M389.12,325.82l0,8c0,3.64,5.57,3.7,5.55,0l0-8.06C394.71,321.88,389.1,322.15,389.12,325.82Z" transform="translate(-372.23 -263.27)"/><path id="path3017" class="cls-3" d="M390.37,325.65v8.13a1.54,1.54,0,1,0,3.08,0v-8a1.54,1.54,0,0,0-3.08-.09h0Z" transform="translate(-372.23 -263.27)"/><path id="path3015-1" class="cls-1" d="M395.46,325.79l0,8c0,3.64,5.57,3.7,5.55,0l0-8.06c0-3.9-5.57-3.64-5.55,0h0Z" transform="translate(-372.23 -263.27)"/><path id="path3017-7" class="cls-3" d="M396.71,325.62v8.13a1.54,1.54,0,1,0,3.08,0v-8A1.54,1.54,0,0,0,396.71,325.62Z" transform="translate(-372.23 -263.27)"/><path id="path3786" class="cls-1" d="M402.93,323.05h-1s-0.18,0-.15.16l0,13a0.13,0.13,0,0,0,.11.14h1a0.13,0.13,0,0,0,.16-0.15v-4.94l0.68-1.23,2.25,6.19a0.13,0.13,0,0,0,.13.11h1.06a0.1,0.1,0,0,0,.12-0.09c0-.11,0-0.24,0-0.24l-2.72-7.57,2.71-5.14s0.06-.21-0.1-0.2H406a0.09,0.09,0,0,0-.08.05l-2.86,5.62v-5.55s0-.14-0.09-0.13h-0.06Z" transform="translate(-372.23 -263.27)"/><path id="path3019" class="cls-1" d="M409,323.11h-1s-0.15,0-.15.22v12.87a0.25,0.25,0,0,0,.14.13h4.38a0.17,0.17,0,0,0,.11-0.17v-0.83s0-.14-0.15-0.14h-3.16V323.24a0.18,0.18,0,0,0-.15-0.14h0Z" transform="translate(-372.23 -263.27)"/><path id="path3021" class="cls-1" d="M411.94,323.11h-1a0.23,0.23,0,0,0-.14.23c0,0.15,2.56,7.26,2.56,7.26l0,5.6s0,0.12.06,0.13,1,0,1,0a0.13,0.13,0,0,0,.13-0.13v-5.59l2.68-7.31a0.14,0.14,0,0,0-.15-0.21c-0.25,0-1,0-1,0a0.21,0.21,0,0,0-.19.18c0,0.18-1.9,5.59-1.9,5.59l-1.9-5.63a0.28,0.28,0,0,0-.23-0.14h0Z" transform="translate(-372.23 -263.27)"/><path id="path3023" class="cls-1" d="M419.18,323.1h-1.34a0.16,0.16,0,0,0-.14.17c0,0.17,0,12.94,0,12.94a0.11,0.11,0,0,0,.1.15h0.95a0.17,0.17,0,0,0,.17-0.18c0-.18,0-10.6,0-10.6l2.63,10.66a0.27,0.27,0,0,0,.17.11h1.39s0.13,0,.13-0.15v-13a0.16,0.16,0,0,0-.17-0.12h-0.95a0.13,0.13,0,0,0-.14.13l0.17,11.07-2.76-11.09a0.14,0.14,0,0,0-.16-0.12h0Z" transform="translate(-372.23 -263.27)"/></g></svg>