<svg id="Layer_1" data-name="Layer 1" xmlns="http://www.w3.org/2000/svg" xmlns:xlink="http://www.w3.org/1999/xlink" viewBox="0 0 82.85 60.6"><defs><style>.cls-1,.cls-10,.cls-12,.cls-8{fill:none;}.cls-2,.cls-5{fill:#005b89;}.cls-10,.cls-2,.cls-3{stroke:#005b89;}.cls-2,.cls-3,.cls-4{stroke-width:0.28px;}.cls-4{fill:#f15a31;stroke:#f15a31;}.cls-6{fill:#fff;}.cls-7{fill:#c4ced4;}.cls-8{stroke:#c4ced4;}.cls-10,.cls-12,.cls-8{stroke-width:0.14px;}.cls-9{clip-path:url(#clip-path);}.cls-11{clip-path:url(#clip-path-2);}.cls-12{stroke:#000;}</style><clipPath id="clip-path" transform="translate(-358.58 -269.7)"><path class="cls-1" d="M370,278.33h67.47l-8.2,17.85H362.25Zm34.31,7.85,3-6.87H406.8l-1.42,1-2,5.07,0.41,0.8h0.58Zm-14.59,1.17,0.16-.43-1-.08L386,293.39l1,0.05,0.21-.37Zm2.16-7.06-2.72,5.77,1.11,0.11,0.1-.28,2.29-5.23,0.1-.4Zm35,8.46h-0.58l-0.65.38-1.78,4,0.81,0.37,0.23-.46Zm4.41-8.09,0-.36s-1.81-.12-2.13.59l-2.25,5.17,1.07,0.28,0.15-.38,2-4.53A1.44,1.44,0,0,1,431.29,280.67Zm-6.17-.9c-0.51.33-1.33,0.85-.56,1.77h0.58a3.71,3.71,0,0,1,2.31-2.23h-0.58A9.43,9.43,0,0,0,425.12,279.78ZM378,293.06l5.21-11.75a1.23,1.23,0,0,1,1.1-.63l0-.29s-1.64-.57-2,0.17L377,293.31l0.77,0.26Zm33.65-11.91a1.12,1.12,0,0,1,1-.47v-0.48s-1.83.29-2.05,0.78l-2.25,5.41,1,0.11,0.08-.28Zm-9.85.22a1.68,1.68,0,0,1,1.37-.69l0.06-.54s-2.09-.11-2.38.55l-5.6,12.78,1.16,0.06,0.2-.46Zm0.82,7.57-0.77.32-2.36,3a9.08,9.08,0,0,0-2,2.33h0.58a4.13,4.13,0,0,0,3.3-1.56l1.81-4.13h-0.58Zm14-9.62-1,.53-4.88,11.05,0.52,0.89,0.46,0.28c0.44-1,1.48-3.61,5.49-12.75h-0.58Zm-7.85,8.08-0.83,0-2.11,3.55a43.08,43.08,0,0,1-3,3.72v0a4,4,0,0,0,4.07-2.82l1.78-4Zm14.71-6.22-0.89-.06-4.44,8.59,0.42,1.12,0.41,0.38,4.35-9.67Zm11.82-1.86-0.73.49-2.09,4.79,0.3,0.43h0.58l2.52-5.71h-0.58Zm-3.75,7.07-2.94,6.1a13.28,13.28,0,0,0-2.63,2.16h0.58a3.91,3.91,0,0,0,3.11-1.39l3.22-7.29h-0.58Zm-37.26,1.79c0.27-.88-0.68-1.18-1.17-1.27h0.25a2,2,0,0,0,1.84-.88l1.92-4.48,0.42-.94a1,1,0,0,0-1-1.29h-0.58l0.16,1.37-0.48.94-1.94,4.19a1.94,1.94,0,0,1-1,.42l-1,.5a1.15,1.15,0,0,1,1.08,1.39l-0.44.72-1.22,3.52a3.51,3.51,0,0,1-.8.55s-0.83,0-2.19,1.77h0.58a4.49,4.49,0,0,0,2.84-1,2.77,2.77,0,0,0,.59-0.63l1.83-4.25Zm-23.12-.82,0.14-.43-1.16.06-2.64,6.4,0.92,0.11,0.2-.43Zm2.22-7.06-2.55,5.85,0.75,0.06,0.24-.31,2.29-5.23,0.05-.29Zm14.23-1H387l-1,1.84-5.16,10.78s-0.91,1.25-1.93,2.71h0.58a4,4,0,0,0,3.26-1.61l5.31-12.1S388.77,279.32,387.55,279.32Zm-12,8.86c0.27-.88-0.68-1.18-1.17-1.27h0.25a2,2,0,0,0,1.84-.88l1.92-4.48,0.42-.94a1,1,0,0,0-1-1.29h-0.58l-0.6,1.38L375,285.35l-0.91,1.17-0.94.43,0.91,1.2-0.24.65-1.31,3.55-0.81.15s-1,.15-2.21,2.2H370a4.49,4.49,0,0,0,2.84-1,2.81,2.81,0,0,0,.59-0.63l1.83-4.25Z"/></clipPath><clipPath id="clip-path-2" transform="translate(-358.58 -269.7)"><path class="cls-1" d="M403.78,286.18l-0.41-.8,2-5.07,1.42-1h0.58l-3,6.86h-0.58Zm-14,1.18,0.16-.43-1-.08L386,293.39l1,0.05,0.21-.37Zm2.16-7.06-2.72,5.77,1.11,0.11,0.1-.28,2.29-5.23,0.1-.4Zm35,8.46h-0.58l-0.65.38-1.78,4,0.81,0.37,0.23-.46Zm4.41-8.09,0-.36s-1.81-.12-2.13.59l-2.25,5.17,1.07,0.28,0.15-.38,2-4.53A1.44,1.44,0,0,1,431.29,280.67Zm-6.17-.9c-0.51.33-1.33,0.85-.56,1.77h0.58a3.71,3.71,0,0,1,2.31-2.23h-0.58A9.43,9.43,0,0,0,425.12,279.78ZM378,293.06l5.21-11.75a1.23,1.23,0,0,1,1.1-.63l0-.29s-1.64-.57-2,0.17L377,293.31l0.77,0.26Zm33.65-11.91a1.12,1.12,0,0,1,1-.47v-0.48s-1.83.29-2.05,0.78l-2.25,5.41,1,0.11,0.08-.28Zm-9.85.22a1.68,1.68,0,0,1,1.37-.69l0.06-.54s-2.09-.11-2.38.55l-5.6,12.78,1.16,0.06,0.2-.46Zm0.82,7.57-0.77.32-2.36,3a9.08,9.08,0,0,0-2,2.33h0.58a4.13,4.13,0,0,0,3.3-1.56l1.81-4.13h-0.58Zm14-9.62-1,.53-4.88,11.05,0.52,0.89,0.46,0.28c0.44-1,1.48-3.61,5.49-12.75h-0.58Zm-7.85,8.08-0.83,0-2.11,3.55a43.08,43.08,0,0,1-3,3.72v0a4,4,0,0,0,4.07-2.82l1.78-4Zm14.71-6.22-0.89-.06-4.44,8.59,0.42,1.12,0.41,0.38,4.35-9.67Zm11.82-1.86-0.73.49-2.09,4.79,0.3,0.43h0.58l2.52-5.71h-0.58Zm-3.75,7.07-2.94,6.1a13.28,13.28,0,0,0-2.63,2.16h0.58a3.91,3.91,0,0,0,3.11-1.39l3.22-7.29h-0.58Zm-37.26,1.79c0.27-.88-0.68-1.18-1.17-1.27h0.25a2,2,0,0,0,1.84-.88l1.92-4.48,0.42-.94a1,1,0,0,0-1-1.29h-0.58l0.16,1.37-0.48.94-1.94,4.19a1.94,1.94,0,0,1-1,.42l-1,.5a1.15,1.15,0,0,1,1.08,1.39l-0.44.72-1.22,3.52a3.51,3.51,0,0,1-.8.55s-0.83,0-2.19,1.77h0.58a4.49,4.49,0,0,0,2.84-1,2.77,2.77,0,0,0,.59-0.63l1.83-4.25Zm-23.12-.82,0.14-.43-1.16.06-2.64,6.4,0.92,0.11,0.2-.43Zm2.22-7.06-2.55,5.85,0.75,0.06,0.24-.31,2.29-5.23,0.05-.29Zm14.23-1H387l-1,1.84-5.16,10.78s-0.91,1.25-1.93,2.71h0.58a4,4,0,0,0,3.26-1.61l5.31-12.1S388.77,279.32,387.55,279.32Zm-12,8.86c0.27-.88-0.68-1.18-1.17-1.27h0.25a2,2,0,0,0,1.84-.88l1.92-4.48,0.42-.94a1,1,0,0,0-1-1.29h-0.58l-0.6,1.38L375,285.35l-0.91,1.17-0.94.43,0.91,1.2-0.24.65-1.31,3.55-0.81.15s-1,.15-2.21,2.2H370a4.49,4.49,0,0,0,2.84-1,2.81,2.81,0,0,0,.59-0.63l1.83-4.25Z"/></clipPath></defs><title>charlotte-bobcats</title><path d="M363,275.72l2.64,2.16a1.88,1.88,0,0,1,.46,2.51l0,0-7.51,17.3,1.39,0.35c7,1.77,20.27,5.52,31.29,10.71,8.72,4.11,19,10.6,18.44,18.15l-0.25,3.35,2.34-2.42c1.92-2,5.37-4.63,7-4.31a1.13,1.13,0,0,1,.84.89l0.23,0.59,0.61,0.15c2.83,0.7,8.76.7,11.69-4.09,1.23-.2,3.83-0.88,5.14-3.06a4.22,4.22,0,0,0,2.1-2,4.61,4.61,0,0,0,.45-2.06,8.42,8.42,0,0,0-.81-3.35l0,0,0,0a5.82,5.82,0,0,1-.78-2.49,4.79,4.79,0,0,1,.26-1.24l-0.29-.4a30.43,30.43,0,0,0-8.19-7.55,14.68,14.68,0,0,0,3.21-4.45v0l8.2-18.68H363Z" transform="translate(-358.58 -269.7)"/><path class="cls-2" d="M437.2,307.14s-4.06-5.65-9.41-8a12.79,12.79,0,0,0,4.33-5.2l7.44-17H366.42a3.11,3.11,0,0,1,.76,4l-6.92,15.93c15.36,3.91,51.77,14.82,50.64,30.13,0,0,7.86-8.13,9.86-3,0,0,7.55,1.88,10.64-4,0,0,3.79-.24,5-2.91,0,0,3.68-.92,1.47-5.93C437.93,311.15,436.49,308.54,437.2,307.14Z" transform="translate(-358.58 -269.7)"/><polygon class="cls-3" points="45.77 16.49 48.81 9.62 48.23 9.62 46.81 10.61 44.79 15.68 45.2 16.48 45.77 16.49"/><polygon class="cls-3" points="31.18 17.66 31.34 17.23 30.37 17.15 27.43 23.69 28.43 23.74 28.64 23.37 31.18 17.66"/><polygon class="cls-3" points="33.34 10.61 30.62 16.37 31.73 16.48 31.83 16.2 34.12 10.97 34.23 10.58 33.34 10.61"/><polygon class="cls-3" points="68.31 19.07 67.73 19.07 67.08 19.45 65.31 23.46 66.12 23.83 66.35 23.37 68.31 19.07"/><path class="cls-3" d="M431.29,280.67l0-.36s-1.81-.12-2.13.59l-2.25,5.17,1.07,0.28,0.15-.38,2-4.53A1.44,1.44,0,0,1,431.29,280.67Z" transform="translate(-358.58 -269.7)"/><path class="cls-3" d="M425.12,279.78c-0.51.33-1.33,0.85-.56,1.77h0.58a3.71,3.71,0,0,1,2.31-2.23h-0.58A9.43,9.43,0,0,0,425.12,279.78Z" transform="translate(-358.58 -269.7)"/><path class="cls-3" d="M378,293.06l5.21-11.75a1.23,1.23,0,0,1,1.1-.63l0-.29s-1.64-.57-2,0.17L377,293.31l0.77,0.26Z" transform="translate(-358.58 -269.7)"/><path class="cls-3" d="M411.62,281.14a1.12,1.12,0,0,1,1-.47v-0.48s-1.83.29-2.05,0.78l-2.25,5.41,1,0.11,0.08-.28Z" transform="translate(-358.58 -269.7)"/><path class="cls-3" d="M401.76,281.37a1.68,1.68,0,0,1,1.37-.69l0.06-.54s-2.09-.11-2.38.55l-5.6,12.78,1.16,0.06,0.2-.46Z" transform="translate(-358.58 -269.7)"/><path class="cls-3" d="M402.59,288.94l-0.77.32-2.36,3a9.08,9.08,0,0,0-2,2.33h0.58a4.13,4.13,0,0,0,3.3-1.56l1.81-4.13h-0.58Z" transform="translate(-358.58 -269.7)"/><path class="cls-3" d="M416.54,279.32l-1,.53-4.88,11.05,0.52,0.89,0.46,0.28c0.44-1,1.48-3.61,5.49-12.75h-0.58Z" transform="translate(-358.58 -269.7)"/><path class="cls-3" d="M408.69,287.4l-0.83,0-2.11,3.55a43.08,43.08,0,0,1-3,3.72v0a4,4,0,0,0,4.07-2.82l1.78-4Z" transform="translate(-358.58 -269.7)"/><polygon class="cls-3" points="64.82 11.48 63.94 11.43 59.5 20.02 59.92 21.14 60.33 21.52 64.68 11.85 64.82 11.48"/><polygon class="cls-3" points="76.65 9.62 75.91 10.11 73.82 14.9 74.12 15.34 74.7 15.34 77.22 9.62 76.65 9.62"/><path class="cls-3" d="M431.48,286.39l-2.94,6.1a13.28,13.28,0,0,0-2.63,2.16h0.58a3.91,3.91,0,0,0,3.11-1.39l3.22-7.29h-0.58Z" transform="translate(-358.58 -269.7)"/><path class="cls-3" d="M394.21,288.18c0.27-.88-0.68-1.18-1.17-1.27h0.25a2,2,0,0,0,1.84-.88l1.92-4.48,0.42-.94a1,1,0,0,0-1-1.29h-0.58l0.16,1.37-0.48.94-1.94,4.19a1.94,1.94,0,0,1-1,.42l-1,.5a1.15,1.15,0,0,1,1.08,1.39l-0.44.72-1.22,3.52a3.51,3.51,0,0,1-.8.55s-0.83,0-2.19,1.77h0.58a4.49,4.49,0,0,0,2.84-1,2.77,2.77,0,0,0,.59-0.63l1.83-4.25Z" transform="translate(-358.58 -269.7)"/><polygon class="cls-3" points="12.52 17.66 12.66 17.23 11.49 17.29 8.86 23.69 9.78 23.8 9.98 23.37 12.52 17.66"/><polygon class="cls-3" points="14.74 10.61 12.19 16.45 12.94 16.51 13.17 16.2 15.46 10.97 15.51 10.69 14.74 10.61"/><path class="cls-3" d="M387.55,279.32H387l-1,1.84-5.16,10.78s-0.91,1.25-1.93,2.71h0.58a4,4,0,0,0,3.26-1.61l5.31-12.1S388.77,279.32,387.55,279.32Z" transform="translate(-358.58 -269.7)"/><path class="cls-3" d="M375.55,288.18c0.27-.88-0.68-1.18-1.17-1.27h0.25a2,2,0,0,0,1.84-.88l1.92-4.48,0.42-.94a1,1,0,0,0-1-1.29h-0.58l-0.6,1.38L375,285.35l-0.91,1.17-0.94.43,0.91,1.2-0.24.65-1.31,3.55-0.81.15s-1,.15-2.21,2.2H370a4.49,4.49,0,0,0,2.84-1,2.81,2.81,0,0,0,.59-0.63l1.83-4.25Z" transform="translate(-358.58 -269.7)"/><path class="cls-4" d="M436.76,312.59a10.88,10.88,0,0,0-.87-2.06,4.42,4.42,0,0,1-.73-3c-0.47-1.18-3-4-5.58-5.47a39.84,39.84,0,0,0-6.32-2.8,144,144,0,0,1-15.26-7c-0.6,1.93-1,5.82.61,8l-3.76-3.27h-36.6c32.7,3.38,33.27,5.2,33.27,5.2H383l0.14,0c4.46,0.17,15.7.95,26.19,4.44H394.15c20.1,9.29,18.31,16.53,18.31,16.53,7-6.38,9.75-.76,9.75-0.76,0.81,0.46,3.62.44,4.32-.57a16.62,16.62,0,0,1-5.62-6.91,21.2,21.2,0,0,1,7.81-.84,6,6,0,0,0,2.43,2.65c0.64,0.37,2.74,1.14,3.7-.54a8.7,8.7,0,0,0-.35-3.16s0.86,0.08,1.38.18C436.53,313.3,436.87,313,436.76,312.59Zm-19.07-13.73-3.77.53c2.72-.61-4.12-4.12-4.12-4.12C411.64,296,417.69,298.87,417.69,298.87Zm0.06,11.87c0.48,0.41,1.56,1.55,1.56,1.55-5.18,1.73-5.67,7.12-5.67,7.12a7.43,7.43,0,0,1,2.91-7.75l-1.73-1.32c10-5,16.61,4.66,16.61,4.66C424.06,307.63,417.75,310.73,417.75,310.73Zm1.7-3.24a12.52,12.52,0,0,1,12.94,7.16A16.8,16.8,0,0,0,419.45,307.5Zm3.23-.92h0c8.17-.18,10.84,7.49,10.84,7.49C429,307.17,423.54,306.6,422.68,306.58Zm7.84,1.6c2.07-4.73-19.71-6.05-19.71-6.05,15.7,0,19.59,3.41,19.59,3.41a7.21,7.21,0,0,1,3.42,5.9A17.87,17.87,0,0,0,430.53,308.19Zm3.5,1.16-0.23-1.87,0.75,0.89Z" transform="translate(-358.58 -269.7)"/><path class="cls-4" d="M415.66,290.77a12,12,0,0,1-1.48,2.61s6.63,3,8.28,3.88C422.46,297.25,418.73,294.07,415.66,290.77Z" transform="translate(-358.58 -269.7)"/><path class="cls-5" d="M375.87,270.46a1.22,1.22,0,0,0-.57-0.11h-1.09a0.39,0.39,0,0,0-.41.25l-0.92,2.14c-0.08.19,0,.25,0.19,0.25h0.86a2,2,0,0,0,1-.15l-0.48.8H372c-0.65,0-.88-0.31-0.51-1.16l0.7-1.63a1.58,1.58,0,0,1,1.51-1.16h2.4Z" transform="translate(-358.58 -269.7)"/><path class="cls-5" d="M382,271.28l0.39-.9a1.37,1.37,0,0,0,.17-0.68h1.77a2.12,2.12,0,0,0-.42.68l-1.12,2.6a1.37,1.37,0,0,0-.17.68h-1.77a2.09,2.09,0,0,0,.42-0.68l0.45-1h-1.14l-0.45,1a1.36,1.36,0,0,0-.17.68h-1.77a2.15,2.15,0,0,0,.42-0.68l1.12-2.6a1.34,1.34,0,0,0,.17-0.68h1.77a2.12,2.12,0,0,0-.42.68l-0.39.9H382Z" transform="translate(-358.58 -269.7)"/><path class="cls-5" d="M387.83,272.59l-0.5.54a0.86,0.86,0,0,0-.16.24,0.35,0.35,0,0,0,0,.29H386a5.71,5.71,0,0,0,.76-0.72l2.76-3-0.08-.22h1.8l0,3.41a1.24,1.24,0,0,0,.11.54h-2a0.79,0.79,0,0,0,.2-0.26,0.86,0.86,0,0,0,.07-0.3v-0.51h-1.75m1.77-.65V270.6l-1.19,1.34h1.18Z" transform="translate(-358.58 -269.7)"/><path class="cls-5" d="M397.12,271.94l-0.45,1a1.37,1.37,0,0,0-.17.68h-1.77a2.08,2.08,0,0,0,.42-0.68l1.12-2.6a0.94,0.94,0,0,0,.13-0.68h3.28c0.7,0,.94.21,0.66,0.87l-0.32.73a0.87,0.87,0,0,1-.89.64l0.06,1.11a2,2,0,0,0,.07.61h-1.7l0-1.72h-0.47m0.28-.66h0.86a0.3,0.3,0,0,0,.35-0.22l0.21-.48c0.08-.19,0-0.22-0.15-0.22H397.8Z" transform="translate(-358.58 -269.7)"/><path class="cls-5" d="M406.17,273a1.82,1.82,0,0,0,.71-0.13l-0.47.79H403a2.13,2.13,0,0,0,.42-0.68l1.12-2.6a1.37,1.37,0,0,0,.17-0.68h1.77a2.12,2.12,0,0,0-.42.68L404.9,273h1.27Z" transform="translate(-358.58 -269.7)"/><path class="cls-5" d="M411.31,270.86a1.57,1.57,0,0,1,1.51-1.16h2.29c0.65,0,.88.31,0.51,1.16l-0.7,1.63a1.57,1.57,0,0,1-1.51,1.16h-2.28c-0.65,0-.88-0.31-0.51-1.16l0.71-1.63m0.71,1.89c-0.08.19,0,.25,0.19,0.25h0.66a0.39,0.39,0,0,0,.41-0.25l0.92-2.14c0.08-.19,0-0.25-0.19-0.25h-0.66a0.39,0.39,0,0,0-.41.25Z" transform="translate(-358.58 -269.7)"/><path class="cls-5" d="M423.63,269.7l-0.23.82a0.63,0.63,0,0,0-.5-0.16h-0.69L421.08,273a1.42,1.42,0,0,0-.17.68h-1.77a2,2,0,0,0,.42-0.68l1.13-2.62H420a1.23,1.23,0,0,0-.64.16l0.48-.82h3.79Z" transform="translate(-358.58 -269.7)"/><path class="cls-5" d="M431,269.7l-0.23.82a0.62,0.62,0,0,0-.5-0.16h-0.69L428.44,273a1.36,1.36,0,0,0-.17.68H426.5a2.07,2.07,0,0,0,.42-0.68l1.13-2.62h-0.69a1.23,1.23,0,0,0-.64.16l0.48-.82H431Z" transform="translate(-358.58 -269.7)"/><path class="cls-5" d="M436.2,273a2.39,2.39,0,0,0,.73-0.11l-0.47.76h-3.52a2.13,2.13,0,0,0,.42-0.68l1.12-2.6a1.35,1.35,0,0,0,.17-0.68h3.46l-0.2.76a1.65,1.65,0,0,0-.65-0.11H436l-0.4.93h1.09a2.39,2.39,0,0,0,.73-0.11l-0.37.87a1.63,1.63,0,0,0-.64-0.11h-1.09L434.87,273h1.33Z" transform="translate(-358.58 -269.7)"/><path class="cls-6" d="M435.71,315.31a2.44,2.44,0,0,0-.56-1.5l0.48,0.3,1,0.43Z" transform="translate(-358.58 -269.7)"/><path class="cls-6" d="M424,317.38l0.17,1,0.89,0.44,0.27,1a14.9,14.9,0,0,1-2.64-3.2,0.67,0.67,0,0,1,.39-1.08l0.16,0a0.22,0.22,0,0,1,.07.23,9,9,0,0,0-.05,1Z" transform="translate(-358.58 -269.7)"/><path class="cls-6" d="M427.67,315.4l-0.19-.61H428a10.4,10.4,0,0,0,2,2.18l-1.18-.32-0.23-.78Z" transform="translate(-358.58 -269.7)"/><path class="cls-6" d="M428.86,318.84a6.69,6.69,0,0,0,1.66-1.49l0.23,0.14a5.13,5.13,0,0,0,1,.44,4,4,0,0,1-1.84.83A4.82,4.82,0,0,1,428.86,318.84Z" transform="translate(-358.58 -269.7)"/><path class="cls-6" d="M433,309.31a3.92,3.92,0,0,0-.17-0.42,1.36,1.36,0,0,1-.87.08,9.57,9.57,0,0,0,.88.79C433.13,309.9,433.13,309.62,433,309.31Z" transform="translate(-358.58 -269.7)"/><path class="cls-6" d="M432.06,307.59c-0.15-.2-0.32-0.42-0.51-0.63a1.8,1.8,0,0,1-.46,1.27,6.53,6.53,0,0,1,.62.5A1.73,1.73,0,0,0,432.06,307.59Z" transform="translate(-358.58 -269.7)"/><path class="cls-6" d="M425.62,320.13a10.92,10.92,0,0,0,1.37,1.11,6,6,0,0,0,1.46-.86A7.91,7.91,0,0,1,425.62,320.13Z" transform="translate(-358.58 -269.7)"/><path class="cls-7" d="M424.56,281.55a3.71,3.71,0,0,1,2.31-2.23h-8.38l-1,2.23h2l-3.35,7.63,2.17,2,4.35-9.67h1.88M375,288.18c0.27-.88-0.68-1.18-1.17-1.27h0.25a2,2,0,0,0,1.84-.88l1.92-4.48,0.42-.94a1,1,0,0,0-1-1.29H370.6a1.13,1.13,0,0,1,.06,1.27l-6.2,14.1h5a4.51,4.51,0,0,0,2.84-1,2.81,2.81,0,0,0,.59-0.63l1.83-4.25,0.26-.62M371.8,288l-2,4.63a0.88,0.88,0,0,1-.43.33,1.06,1.06,0,0,1-.38.06h-1l2.54-5.71h0.83a0.44,0.44,0,0,1,.45.69m0.29-2.15h-0.92l2.29-5.23h1.1s0.54,0,.28.55L373,285.35a1,1,0,0,1-1,.55m21.55,2.28c0.27-.88-0.68-1.18-1.17-1.27h0.25a2,2,0,0,0,1.84-.88l1.92-4.48,0.42-.94a1,1,0,0,0-1-1.29h-6.73a1,1,0,0,1,.16,1.27l-6.2,14.1h5a4.5,4.5,0,0,0,2.84-1,2.79,2.79,0,0,0,.59-0.63l1.83-4.25,0.26-.62m-3.18-.13-2,4.63a0.89,0.89,0,0,1-.43.33,1.06,1.06,0,0,1-.38.06h-1l2.54-5.71H390c0.25,0,.7.12,0.45,0.69m0.29-2.15h-0.92l2.29-5.23h1.1s0.54,0,.28.55l-1.79,4.13a1,1,0,0,1-1,.55M387,279.32H383s-2.35-.08-3.07,1.46l-6.07,13.87h5a4,4,0,0,0,3.26-1.61l5.31-12.1s0.73-1.62-.49-1.62m-7.6,13.11a2.3,2.3,0,0,1-1.6.64h-0.39l5.22-11.77a1.41,1.41,0,0,1,1.36-.63h0.56l-5.16,11.76M432.7,285l2.52-5.71h-4.84s-2.85,0-3.82,2.23l-2.65,6.05h4.63l-2.1,4.76a1.67,1.67,0,0,1-1.45.71h-0.64l2-4.3H423.4l-1.73,4c-0.92,2,2.29,1.93,2.29,1.93h2a3.91,3.91,0,0,0,3.11-1.39l3.22-7.29h-4.7l2-4.53a1.44,1.44,0,0,1,1.14-.77h1L429.81,285h2.89m-21.3-5.71a3.84,3.84,0,0,0-3.11,1.39l-6.13,14a4,4,0,0,0,4.06-2.82l1.78-4h1.69l-1.12,2.77,2.47,1.49c0.44-1,1.48-3.61,5.49-12.75H411.4m-0.94,6.88H408.8l2.24-5.06a1.16,1.16,0,0,1,1-.47h0.87l-2.46,5.53m-10.74,2.73-1.61,3.66a1.79,1.79,0,0,1-1.21.47H396l5.18-11.71a1.67,1.67,0,0,1,1.37-.69h0.8l-2.42,5.49,2.83,0,3-6.87h-5s-2.5-.08-3.19,1.49l-6.06,13.82h4.94a4.12,4.12,0,0,0,3.3-1.56l1.81-4.13h-2.86Z" transform="translate(-358.58 -269.7)"/><path class="cls-8" d="M424.56,281.55a3.71,3.71,0,0,1,2.31-2.23h-8.38l-1,2.23h2l-3.35,7.63,2.17,2,4.35-9.67h1.88M375,288.18c0.27-.88-0.68-1.18-1.17-1.27h0.25a2,2,0,0,0,1.84-.88l1.92-4.48,0.42-.94a1,1,0,0,0-1-1.29H370.6a1.13,1.13,0,0,1,.06,1.27l-6.2,14.1h5a4.51,4.51,0,0,0,2.84-1,2.81,2.81,0,0,0,.59-0.63l1.83-4.25,0.26-.62M371.8,288l-2,4.63a0.88,0.88,0,0,1-.43.33,1.06,1.06,0,0,1-.38.06h-1l2.54-5.71h0.83a0.44,0.44,0,0,1,.45.69m0.29-2.15h-0.92l2.29-5.23h1.1s0.54,0,.28.55L373,285.35a1,1,0,0,1-1,.55m21.55,2.28c0.27-.88-0.68-1.18-1.17-1.27h0.25a2,2,0,0,0,1.84-.88l1.92-4.48,0.42-.94a1,1,0,0,0-1-1.29h-6.73a1,1,0,0,1,.16,1.27l-6.2,14.1h5a4.5,4.5,0,0,0,2.84-1,2.79,2.79,0,0,0,.59-0.63l1.83-4.25,0.26-.62m-3.18-.13-2,4.63a0.89,0.89,0,0,1-.43.33,1.06,1.06,0,0,1-.38.06h-1l2.54-5.71H390c0.25,0,.7.12,0.45,0.69m0.29-2.15h-0.92l2.29-5.23h1.1s0.54,0,.28.55l-1.79,4.13a1,1,0,0,1-1,.55M387,279.32H383s-2.35-.08-3.07,1.46l-6.07,13.87h5a4,4,0,0,0,3.26-1.61l5.31-12.1s0.73-1.62-.49-1.62m-7.6,13.11a2.3,2.3,0,0,1-1.6.64h-0.39l5.22-11.77a1.41,1.41,0,0,1,1.36-.63h0.56l-5.16,11.76M432.7,285l2.52-5.71h-4.84s-2.85,0-3.82,2.23l-2.65,6.05h4.63l-2.1,4.76a1.67,1.67,0,0,1-1.45.71h-0.64l2-4.3H423.4l-1.73,4c-0.92,2,2.29,1.93,2.29,1.93h2a3.91,3.91,0,0,0,3.11-1.39l3.22-7.29h-4.7l2-4.53a1.44,1.44,0,0,1,1.14-.77h1L429.81,285h2.89m-21.3-5.71a3.84,3.84,0,0,0-3.11,1.39l-6.13,14a4,4,0,0,0,4.06-2.82l1.78-4h1.69l-1.12,2.77,2.47,1.49c0.44-1,1.48-3.61,5.49-12.75H411.4m-0.94,6.88H408.8l2.24-5.06a1.16,1.16,0,0,1,1-.47h0.87l-2.46,5.53m-10.74,2.73-1.61,3.66a1.79,1.79,0,0,1-1.21.47H396l5.18-11.71a1.67,1.67,0,0,1,1.37-.69h0.8l-2.42,5.49,2.83,0,3-6.87h-5s-2.5-.08-3.19,1.49l-6.06,13.82h4.94a4.12,4.12,0,0,0,3.3-1.56l1.81-4.13h-2.86Z" transform="translate(-358.58 -269.7)"/><g class="cls-9"><path class="cls-10" d="M424.56,281.55a3.71,3.71,0,0,1,2.31-2.23h-8.38l-1,2.23h2l-3.35,7.63,2.17,2,4.35-9.67h1.88M375,288.18c0.27-.88-0.68-1.18-1.17-1.27h0.25a2,2,0,0,0,1.84-.88l1.92-4.48,0.42-.94a1,1,0,0,0-1-1.29H370.6a1.13,1.13,0,0,1,.06,1.27l-6.2,14.1h5a4.51,4.51,0,0,0,2.84-1,2.81,2.81,0,0,0,.59-0.63l1.83-4.25,0.26-.62M371.8,288l-2,4.63a0.88,0.88,0,0,1-.43.33,1.06,1.06,0,0,1-.38.06h-1l2.54-5.71h0.83a0.44,0.44,0,0,1,.45.69m0.29-2.15h-0.92l2.29-5.23h1.1s0.54,0,.28.55L373,285.35a1,1,0,0,1-1,.55m21.55,2.28c0.27-.88-0.68-1.18-1.17-1.27h0.25a2,2,0,0,0,1.84-.88l1.92-4.48,0.42-.94a1,1,0,0,0-1-1.29h-6.73a1,1,0,0,1,.16,1.27l-6.2,14.1h5a4.5,4.5,0,0,0,2.84-1,2.79,2.79,0,0,0,.59-0.63l1.83-4.25,0.26-.62m-3.18-.13-2,4.63a0.89,0.89,0,0,1-.43.33,1.06,1.06,0,0,1-.38.06h-1l2.54-5.71H390c0.25,0,.7.12,0.45,0.69m0.29-2.15h-0.92l2.29-5.23h1.1s0.54,0,.28.55l-1.79,4.13a1,1,0,0,1-1,.55M387,279.32H383s-2.35-.08-3.07,1.46l-6.07,13.87h5a4,4,0,0,0,3.26-1.61l5.31-12.1s0.73-1.62-.49-1.62m-7.6,13.11a2.3,2.3,0,0,1-1.6.64h-0.39l5.22-11.77a1.41,1.41,0,0,1,1.36-.63h0.56l-5.16,11.76M432.7,285l2.52-5.71h-4.84s-2.85,0-3.82,2.23l-2.65,6.05h4.63l-2.1,4.76a1.67,1.67,0,0,1-1.45.71h-0.64l2-4.3H423.4l-1.73,4c-0.92,2,2.29,1.93,2.29,1.93h2a3.91,3.91,0,0,0,3.11-1.39l3.22-7.29h-4.7l2-4.53a1.44,1.44,0,0,1,1.14-.77h1L429.81,285h2.89m-21.3-5.71a3.84,3.84,0,0,0-3.11,1.39l-6.13,14a4,4,0,0,0,4.06-2.82l1.78-4h1.69l-1.12,2.77,2.47,1.49c0.44-1,1.48-3.61,5.49-12.75H411.4m-0.94,6.88H408.8l2.24-5.06a1.16,1.16,0,0,1,1-.47h0.87l-2.46,5.53m-10.74,2.73-1.61,3.66a1.79,1.79,0,0,1-1.21.47H396l5.18-11.71a1.67,1.67,0,0,1,1.37-.69h0.8l-2.42,5.49,2.83,0,3-6.87h-5s-2.5-.08-3.19,1.49l-6.06,13.82h4.94a4.12,4.12,0,0,0,3.3-1.56l1.81-4.13h-2.86Z" transform="translate(-358.58 -269.7)"/></g><g class="cls-11"><path class="cls-12" d="M424.56,281.55a3.71,3.71,0,0,1,2.31-2.23h-8.38l-1,2.23h2l-3.35,7.63,2.17,2,4.35-9.67h1.88M375,288.18c0.27-.88-0.68-1.18-1.17-1.27h0.25a2,2,0,0,0,1.84-.88l1.92-4.48,0.42-.94a1,1,0,0,0-1-1.29H370.6a1.13,1.13,0,0,1,.06,1.27l-6.2,14.1h5a4.51,4.51,0,0,0,2.84-1,2.81,2.81,0,0,0,.59-0.63l1.83-4.25,0.26-.62M371.8,288l-2,4.63a0.88,0.88,0,0,1-.43.33,1.06,1.06,0,0,1-.38.06h-1l2.54-5.71h0.83a0.44,0.44,0,0,1,.45.69m0.29-2.15h-0.92l2.29-5.23h1.1s0.54,0,.28.55L373,285.35a1,1,0,0,1-1,.55m21.55,2.28c0.27-.88-0.68-1.18-1.17-1.27h0.25a2,2,0,0,0,1.84-.88l1.92-4.48,0.42-.94a1,1,0,0,0-1-1.29h-6.73a1,1,0,0,1,.16,1.27l-6.2,14.1h5a4.5,4.5,0,0,0,2.84-1,2.79,2.79,0,0,0,.59-0.63l1.83-4.25,0.26-.62m-3.18-.13-2,4.63a0.89,0.89,0,0,1-.43.33,1.06,1.06,0,0,1-.38.06h-1l2.54-5.71H390c0.25,0,.7.12,0.45,0.69m0.29-2.15h-0.92l2.29-5.23h1.1s0.54,0,.28.55l-1.79,4.13a1,1,0,0,1-1,.55M387,279.32H383s-2.35-.08-3.07,1.46l-6.07,13.87h5a4,4,0,0,0,3.26-1.61l5.31-12.1s0.73-1.62-.49-1.62m-7.6,13.11a2.3,2.3,0,0,1-1.6.64h-0.39l5.22-11.77a1.41,1.41,0,0,1,1.36-.63h0.56l-5.16,11.76M432.7,285l2.52-5.71h-4.84s-2.85,0-3.82,2.23l-2.65,6.05h4.63l-2.1,4.76a1.67,1.67,0,0,1-1.45.71h-0.64l2-4.3H423.4l-1.73,4c-0.92,2,2.29,1.93,2.29,1.93h2a3.91,3.91,0,0,0,3.11-1.39l3.22-7.29h-4.7l2-4.53a1.44,1.44,0,0,1,1.14-.77h1L429.81,285h2.89m-21.3-5.71a3.84,3.84,0,0,0-3.11,1.39l-6.13,14a4,4,0,0,0,4.06-2.82l1.78-4h1.69l-1.12,2.77,2.47,1.49c0.44-1,1.48-3.61,5.49-12.75H411.4m-0.94,6.88H408.8l2.24-5.06a1.16,1.16,0,0,1,1-.47h0.87l-2.46,5.53m-10.74,2.73-1.61,3.66a1.79,1.79,0,0,1-1.21.47H396l5.18-11.71a1.67,1.67,0,0,1,1.37-.69h0.8l-2.42,5.49,2.83,0,3-6.87h-5s-2.5-.08-3.19,1.49l-6.06,13.82h4.94a4.12,4.12,0,0,0,3.3-1.56l1.81-4.13h-2.86Z" transform="translate(-358.58 -269.7)"/></g></svg>