<svg id="Layer_1" data-name="Layer 1" xmlns="http://www.w3.org/2000/svg" viewBox="0 0 67.86 68.34"><defs><style>.cls-1{fill:#1c2524;}.cls-2{fill:#d2153a;}.cls-3{fill:#fff;}</style></defs><title>chicago-bulls</title><g id="layer1"><g id="g8"><path id="path10" class="cls-1" d="M427.93,292.16c-0.2-4.09-2-7.84-3.14-10l-0.61-1.23,0.07,1.09c0.14,1.43.48,6.48-1,9.34-1.91,3.89-7.37,3.55-9.21,3.41h-0.13c-2.93-.2-12.55-0.55-15.55-0.55-3.89,0-8.18.34-11.66,0.61-1.71.14-3.14,0.2-4.16,0.27h-0.34c-4.84.48-7.91-1-9.14-4.23-0.75-2-.68-6-0.68-7.91v-1.36l-0.41.68a25.83,25.83,0,0,0-3.14,10c-0.34,6.21,2.86,8.39,5.25,9.48a16.56,16.56,0,0,0,6,1.43h0.07a1.7,1.7,0,0,1,.55.07,3.31,3.31,0,0,1,.82.07c-0.41.07-1,.21-1.57,0.27a11.42,11.42,0,0,0-1.36.27,44.61,44.61,0,0,0-4.37,1.09c-1.09.41-2.32,1-2.32,1l-0.21.14,0.14,0.2a10.32,10.32,0,0,0,.82,1,7.92,7.92,0,0,0,6.14,2,12.57,12.57,0,0,0,4-1.09c0.2,0.48.54,1.64,0.89,2.52,1,2.59,3.41,7.57,4.3,9.28,0.75,1.36,1.43,2.59,1.91,3.41l0.21,0.27a2.54,2.54,0,0,1-.82,1.16c-0.07.07-.14,0.07-0.21,0.14L389,325v0.07a11.7,11.7,0,0,0,2.8,7.91l0.07,0.07a19.6,19.6,0,0,0,13.09-.07v-0.07H405a14.5,14.5,0,0,0,3-7.37v-0.07l-0.07-.07c-0.07-.07-0.14-0.07-0.21-0.14a3.27,3.27,0,0,1-.89-1.57c0.21-.41.68-1.43,1.09-2.25,0.27-.48.41-0.89,0.54-1.09,0.82-1.7,3.34-7.09,4.37-9.62A16.49,16.49,0,0,1,414,308a10.9,10.9,0,0,0,3.89,1,7.79,7.79,0,0,0,6.41-2.73l0.41-.41,0.13-.21-0.2-.14a1.21,1.21,0,0,1-.55-0.2l-3.27-1a29.57,29.57,0,0,0-3.82-.89l-1.09-.27,0.34-.07C419.61,302.52,428.47,301,427.93,292.16Z" transform="translate(-366.07 -265.83)"/></g><g id="g12"><path id="path14" class="cls-2" d="M371.94,283.29a26.2,26.2,0,0,0,.48,7c-0.48-.41-1-1-1.5-1.36-0.48.48-.89,1-1.36,1.5A28.91,28.91,0,0,1,371.94,283.29Z" transform="translate(-366.07 -265.83)"/></g><g id="g16"><path id="path18" class="cls-2" d="M427,289.36l0.14,0.61-1.16-.82a17.34,17.34,0,0,0-1.57.82,28.31,28.31,0,0,0,.34-6.82A33.7,33.7,0,0,1,427,289.36Z" transform="translate(-366.07 -265.83)"/></g><g id="g20"><path id="path22" class="cls-2" d="M398.4,311a5,5,0,0,0,5.59,1.91,10.83,10.83,0,0,0,2.25-.75,20.17,20.17,0,0,0-1,6.48,19.31,19.31,0,0,0,.89,5.66c-0.27-.14-0.54-0.34-0.89-0.48a16.57,16.57,0,0,0-14.25.14c0.2-.68.41-1.36,0.55-2a16.91,16.91,0,0,0-.89-9.41c2.25,1,5.46,1.16,7.3-1A3.87,3.87,0,0,0,398.4,311Z" transform="translate(-366.07 -265.83)"/></g><g id="g24"><path id="path26" class="cls-2" d="M389.05,312.55a2.46,2.46,0,0,1-1.36,2.25,2,2,0,0,1-2-.75,2.26,2.26,0,0,1-.48-0.89c1.16,0.75,2.73.14,3.75-.61h0.07Z" transform="translate(-366.07 -265.83)"/></g><g id="g28"><path id="path30" class="cls-2" d="M411.56,312.69a2.55,2.55,0,0,1-1.84,1.77,1.56,1.56,0,0,1-1.57-.75,2.28,2.28,0,0,1-.34-1A3.41,3.41,0,0,0,411.56,312.69Z" transform="translate(-366.07 -265.83)"/></g><g id="g32"><path id="path34" class="cls-2" d="M409.24,315a2.82,2.82,0,0,0,1.3-.14,91,91,0,0,1-4.09,8.66,11.34,11.34,0,0,1-.27-4.57,29.6,29.6,0,0,1,1.23-5.52A2.66,2.66,0,0,0,409.24,315Z" transform="translate(-366.07 -265.83)"/></g><g id="g36"><path id="path38" class="cls-2" d="M390.55,323.53a67.94,67.94,0,0,1-4.5-8.53,2.26,2.26,0,0,0,2.18.07,3,3,0,0,0,1.16-1.71A16.16,16.16,0,0,1,390.55,323.53Z" transform="translate(-366.07 -265.83)"/></g><g id="g40"><path id="path42" class="cls-2" d="M407.4,325.85a13,13,0,0,1-2.86,6.75,17.31,17.31,0,0,1-12.41.07,11.3,11.3,0,0,1-2.66-7.3A15.32,15.32,0,0,1,407.4,325.85Z" transform="translate(-366.07 -265.83)"/></g><g id="g44"><path id="path46" class="cls-2" d="M422.68,305.32a31.82,31.82,0,0,0-10.43-2,32.54,32.54,0,0,0-1.5-8.25c-1.7-.14-9.48-0.41-12.41-0.41s-10.57.48-12.34,0.55a34,34,0,0,0-1.84,8.32A42.89,42.89,0,0,0,373,305.87a4.77,4.77,0,0,0-.68.34,7.14,7.14,0,0,0,5.39,2.66,12.39,12.39,0,0,0,4.23-.68,9.64,9.64,0,0,1,1-.48s0.2,0.41.34,0.75c0.34,1,.75,2.32,1,2.93a2.75,2.75,0,0,0,2.39,1.64,2.84,2.84,0,0,0,1.91-1c-3-.2-4.23-1.77-4.43-4.23-0.75-.14-1-0.21-1-0.55a2,2,0,0,1,.34-1.29c0.34-.41.89-0.89,2.32-0.41a5.23,5.23,0,0,1,2.18,1.36,44.21,44.21,0,0,0,3.55,3.07c1.16,0.68,3.34,1.3,4.77-.14a5.81,5.81,0,0,0,1.77-3.21,66.81,66.81,0,0,1-6.82-.61c-0.61-.07-0.34-0.68.14-0.54a61.56,61.56,0,0,0,6.75.54v-1.5a43.15,43.15,0,0,1-7-.75c-0.55-.13-0.48-0.75.07-0.61a44.94,44.94,0,0,0,7,.75V302a38.68,38.68,0,0,1-6.89-.61c-0.55-.07-0.48-0.54,0-0.54a47.91,47.91,0,0,0,6.89.54v-1.5c0-.55.48-0.61,0.48,0,0,0.2.07,0.75,0.07,1.5a47.1,47.1,0,0,0,6.48-.61c0.68-.14.61,0.41,0.27,0.48a48.25,48.25,0,0,1-6.82.75c0,0.55.07,1.3,0.07,1.84a36.3,36.3,0,0,0,6.62-.61c0.75-.14.82,0.48,0.14,0.54a63.43,63.43,0,0,1-6.75.75,10.54,10.54,0,0,0,.07,1.5,61.92,61.92,0,0,0,7-.61c0.55-.14.68,0.48,0.07,0.55a66.32,66.32,0,0,1-7,.61c0.27,0.89.27,2.11,1.5,3.14a4.23,4.23,0,0,0,4.64.14,26,26,0,0,0,3.41-3.07,5.32,5.32,0,0,1,3.41-1.57c1.57,0,1.64.89,1.71,1.09a0.84,0.84,0,0,1-.21,1,3.81,3.81,0,0,1-.82.27,5.47,5.47,0,0,1-1.7,3.61,6.4,6.4,0,0,1-2.86,1l0.34,0.34a2.27,2.27,0,0,0,1.57.41,3.47,3.47,0,0,0,1.91-1,16.58,16.58,0,0,0,1.43-3.14c0.14-.34.48-1,0.55-1.23,0.34,0.14.48,0.21,1.09,0.48a12.69,12.69,0,0,0,4,.68,8.52,8.52,0,0,0,4.71-2.11,7.42,7.42,0,0,0,.54-0.68S423,305.39,422.68,305.32Z" transform="translate(-366.07 -265.83)"/></g><g id="g48"><path id="path50" class="cls-1" d="M404.74,326.19a1.83,1.83,0,0,1-.27,1.77,2.52,2.52,0,0,1-2.59.82,2.23,2.23,0,0,1-1.43-1.09c-0.2.48,0.2,0.89,0.14,1.3a0.17,0.17,0,0,1-.27.07,2.52,2.52,0,0,1-.27-2.66A2.91,2.91,0,0,1,403,325,2.45,2.45,0,0,1,404.74,326.19Z" transform="translate(-366.07 -265.83)"/></g><g id="g52"><path id="path54" class="cls-1" d="M396.49,326.6a2.41,2.41,0,0,1-.21,2.52c-0.07.14-.14,0.27-0.27,0.14s0.07-.41.07-0.68a1,1,0,0,0,.07-0.62,2.63,2.63,0,0,1-2.66,1.09,2.27,2.27,0,0,1-1.71-1.43,1.76,1.76,0,0,1,.21-1.43,2.7,2.7,0,0,1,3.07-.75A2.4,2.4,0,0,1,396.49,326.6Z" transform="translate(-366.07 -265.83)"/></g><g id="g56"><path id="path58" class="cls-1" d="M404.67,331.78c-0.07.14-.14,0.14-0.27,0.34-0.34-.14-0.75-0.27-1.16-0.41a15.23,15.23,0,0,0-11,.41c-0.07-.14-0.14-0.21-0.2-0.34A15.91,15.91,0,0,1,404.67,331.78Z" transform="translate(-366.07 -265.83)"/></g><g id="g60"><path id="path62" class="cls-1" d="M405.29,313.64c-0.61,2.73-2.32,5.8-5.11,6.55a6.09,6.09,0,0,1-6.34-1.7,9.14,9.14,0,0,1-1.84-4.78,0.87,0.87,0,0,1,.41-0.07c0.2,2.52,1.57,5.39,4.09,6.21a6.11,6.11,0,0,0,6.41-1.91,10.93,10.93,0,0,0,2-4.43A0.38,0.38,0,0,1,405.29,313.64Z" transform="translate(-366.07 -265.83)"/></g><g id="g64"><path id="path66" class="cls-1" d="M371.73,266.58a2.85,2.85,0,0,0-2-.75c-0.75.07-3.68,1-3.68,5.39s2.66,5.73,4.23,5.73a4.05,4.05,0,0,0,3.68-3.34c0.07-.27,0-0.34-0.27-0.48l-1-.41c-0.27-.07-0.27-0.07-0.41.34s-0.55,1.57-1.64,1.57-1.5-1.57-1.5-3.21,0.27-3.14,1.57-3.14,1.57,1.36,1.7,1.91c0,0.2.07,0.2,0.27,0.2h1c0.2,0,.2,0,0.2-0.48v-3.48c0-.27,0-0.27-0.41-0.27h-0.82c-0.21,0-.21.07-0.34,0.27A0.32,0.32,0,0,1,371.73,266.58Z" transform="translate(-366.07 -265.83)"/></g><g id="g68"><path id="path70" class="cls-1" d="M410.67,268.29l2,6.27c0.07,0.27.07,0.27,0.21,0.27h0.34c0.34,0,.34,0,0.34.27v1.23c0,0.34,0,.41-0.27.41h-3.89c-0.34,0-.34-0.07-0.34-0.27v-1.23c0-.41.07-0.41,0.27-0.41h0.41c0.2,0,.2,0,0.14-0.27l-0.34-1c-0.07-.2-0.14-0.2-0.34-0.2h-2.39l0.48-1.43h1.5c0.21,0,.27,0,0.21-0.2L408.08,269c-0.07-.2-0.13-0.2-0.2,0L407,271.77c0,0.2,0,.2.27,0.2l-0.48,1.43c-0.27,0-.27,0-0.34.2l-0.34,1c-0.07.27-.07,0.27,0.14,0.27h0.41c0.27,0,.27.07,0.27,0.41v1.23c0,0.2,0,.27-0.34.27h-2.73c-0.21,0-.21-0.07-0.21-0.41v-1.23c0-.27,0-0.27.34-0.27h0.27a0.29,0.29,0,0,0,.27-0.2l2-6.34c0.07-.14.07-0.2-0.21-0.2H405.9c-0.27,0-.34,0-0.34-0.27v-1.23c0-.41.07-0.41,0.48-0.41h5.25c0.27,0,.27.07,0.27,0.41v1.16c0,0.27,0,.27-0.41.27h-0.41C410.6,268,410.6,268.08,410.67,268.29Z" transform="translate(-366.07 -265.83)"/></g><g id="g72"><path id="path74" class="cls-1" d="M420.08,273h0.68c0.34,0,.34.07,0.34,0.27a1.46,1.46,0,0,1-1.57,1.36c-1.09,0-1.5-1.57-1.5-3.21s0.27-3.14,1.57-3.14a1.59,1.59,0,0,1,1.64,1.3c0.07,0.2.07,0.2,0.34,0.2h1c0.2,0,.2,0,0.2-0.48v-2.86c0-.27-0.07-0.27-0.48-0.27h-0.82c-0.2,0-.2.07-0.27,0.27a0.38,0.38,0,0,1-.61.14,2.81,2.81,0,0,0-1.91-.75c-0.82.07-3.68,1-3.68,5.39s2.59,5.73,4.16,5.73c2.39,0,4.23-1.84,4.23-5.25,0-.34,0-0.34-0.48-0.34H420c-0.27,0-.27,0-0.27.27v1.16C419.74,273,419.74,273,420.08,273Z" transform="translate(-366.07 -265.83)"/></g><g id="g76"><path id="path78" class="cls-1" d="M429.29,266.17c-2.59,0-4.71,2.39-4.71,5.39s2.11,5.39,4.71,5.39,4.64-2.39,4.64-5.39-2.12-5.39-4.64-5.39l-0.07,1.91c1,0,1.77,1.57,1.77,3.48s-0.82,3.48-1.77,3.48-1.71-1.57-1.71-3.48,0.75-3.48,1.71-3.48Z" transform="translate(-366.07 -265.83)"/></g><g id="g80"><path id="path82" class="cls-1" d="M376.91,274.63v-6.27a0.23,0.23,0,0,0-.27-0.27h-0.27c-0.34,0-.34,0-0.34-0.2v-1.43c0-.2,0-0.27.34-0.27h3.68c0.27,0,.34.07,0.34,0.34v1.23c0,0.27,0,.27-0.34.27h-0.2c-0.14,0-.14,0-0.14.27v1.77c0,0.48,0,.48.34,0.48h2c0.41,0,.41,0,0.41-0.48v-1.77c0-.27-0.07-0.27-0.2-0.27H382c-0.34,0-.34,0-0.34-0.27v-1.23c0-.27.07-0.34,0.34-0.34h3.68c0.41,0,.41.07,0.41,0.27v1.43c0,0.2-.07.2-0.34,0.2h-0.34c-0.2,0-.2,0-0.2.27v6.27c0,0.2,0,.2.27,0.2h0.34c0.27,0,.27,0,0.27.41v1.23c0,0.2,0,.27-0.34.27h-3.89c-0.27,0-.27,0-0.27-0.41v-1.23c0-.27,0-0.27.34-0.27h0.2c0.21,0,.21,0,0.21-0.27v-1.91c0-.48,0-0.48-0.34-0.48h-2c-0.27,0-.34.07-0.34,0.48v1.91c0,0.27,0,.27.27,0.27h0.14c0.34,0,.34,0,0.34.27v1.23c0,0.34,0,.41-0.27.41h-3.82c-0.34,0-.34,0-0.34-0.27v-1.23c0-.41,0-0.41.27-0.41h0.27C376.91,274.83,376.91,274.83,376.91,274.63Z" transform="translate(-366.07 -265.83)"/></g><g id="g84"><path id="path86" class="cls-1" d="M388.85,268.29c0-.27,0-0.27-0.14-0.27H388.3c-0.27,0-.34,0-0.34-0.27v-1.23c0-.27.07-0.34,0.34-0.34H392c0.41,0,.41.07,0.41,0.27v1.43c0,0.2,0,.2-0.34.2h-0.14c-0.27,0-.27,0-0.27.27v6.27c0,0.2,0,.2.27,0.2h0.27c0.27,0,.27,0,0.27.41v1.23c0,0.2,0,.27-0.34.27h-3.89c-0.2,0-.27,0-0.27-0.41v-1.23c0-.27,0-0.27.34-0.27h0.34c0.21,0,.21,0,0.21-0.27v-6.27Z" transform="translate(-366.07 -265.83)"/></g><g id="g88"><path id="path90" class="cls-1" d="M399.49,266.58a2.68,2.68,0,0,0-1.91-.75c-0.75.07-3.68,1-3.68,5.39s2.59,5.73,4.16,5.73a3.93,3.93,0,0,0,3.68-3.34c0.14-.27.07-0.34-0.27-0.48l-1-.41c-0.2-.07-0.2-0.07-0.41.34s-0.55,1.57-1.57,1.57-1.5-1.57-1.5-3.21,0.27-3.14,1.57-3.14,1.57,1.36,1.64,1.91c0.07,0.2.07,0.2,0.34,0.2h1c0.21,0,.21,0,0.21-0.48v-3.48c0-.27-0.07-0.27-0.41-0.27h-0.89c-0.14,0-.14.07-0.27,0.27S399.83,266.79,399.49,266.58Z" transform="translate(-366.07 -265.83)"/></g><g id="g92"><path id="path94" class="cls-1" d="M376.3,281.65v6.21a0.23,0.23,0,0,1-.27.27h-0.34c-0.2,0-.27,0-0.27.27v1.3c0,0.27.07,0.27,0.34,0.27h5.73l-2-2c-0.34,0-.41,0-0.41-0.41v-1.77c0-.34.07-0.41,0.41-0.41v-1.57c-0.41,0-.41-0.07-0.41-0.41v-1.77c0-.41,0-0.41.41-0.41s1.84,0.07,1.84,1.36-1.36,1.23-1.84,1.23v1.57c0.41,0,1.84.07,1.84,1.36S380,288,379.51,288l2,2a2.6,2.6,0,0,0,2.46-2.73,2.93,2.93,0,0,0-1.64-2.59,3.14,3.14,0,0,0,1.43-2.52,2.84,2.84,0,0,0-2.59-2.66h-5.25c-0.41,0-.48,0-0.48.34v1.3c0,0.2,0,.27.34,0.27h0.34C376.3,281.38,376.3,281.38,376.3,281.65Z" transform="translate(-366.07 -265.83)"/></g><g id="g96"><path id="path98" class="cls-1" d="M393.69,281.59V287a3.13,3.13,0,0,1-3.41,3.34,3.69,3.69,0,0,1-4-3.34v-5.39c0-.2-0.07-0.2-0.27-0.2h-0.34c-0.27,0-.27-0.07-0.27-0.34v-1.16c0-.41,0-0.41.41-0.41h3.61c0.27,0,.34,0,0.34.34V281c0,0.27,0,.27-0.41.27h-0.27c-0.2,0-.2,0-0.2.2v5.25a1.56,1.56,0,0,0,1.57,1.5,1.48,1.48,0,0,0,1.64-1.5v-5.18c0-.27-0.07-0.27-0.27-0.27h-0.27c-0.34,0-.34,0-0.34-0.27v-1.23c0-.34,0-0.34.27-0.34h2.73c0.48,0,.48,0,0.48.34V281c0,0.27,0,.34-0.34.34H394C393.76,281.38,393.69,281.38,393.69,281.59Z" transform="translate(-366.07 -265.83)"/></g><g id="g100"><path id="path102" class="cls-1" d="M406.45,288.13H406.1c-0.27,0-.27,0-0.27.34v1.23c0,0.27,0,.27.27,0.27h6.75c0.27,0,.34,0,0.34-0.41v-3c0-.27,0-0.34-0.34-0.34h-1c-0.34,0-.34.07-0.34,0.41v1.09c0,0.41,0,.41-0.34.41h-1.43c-0.48,0-.48-0.07-0.48-0.34v-6.07c0-.41,0-0.41.21-0.41h0.41c0.27,0,.27-0.07.27-0.27v-1.23c0-.34,0-0.34-0.34-0.34h-3.62c-0.41,0-.41,0-0.41.34V281c0,0.27,0,.34.27,0.34h0.34c0.2,0,.27,0,0.27.34v6.07C406.72,288.06,406.65,288.13,406.45,288.13Z" transform="translate(-366.07 -265.83)"/></g><g id="g104"><path id="path106" class="cls-1" d="M422.06,287a3.28,3.28,0,0,1-3,3.21,3.09,3.09,0,0,1-1.91-.68,0.43,0.43,0,0,0-.68.14c-0.21.27-.21,0.27-0.34,0.27h-0.41c-0.48,0-.48,0-0.48-0.2v-2.93c0-.41.07-0.41,0.21-0.41h0.68c0.27,0,.27,0,0.34.2a1.94,1.94,0,0,0,1.84,1.43c0.55,0,1-.14,1-0.61,0-1-.54-1.16-1.57-1.71s-2.59-1.16-2.59-3.41A3.21,3.21,0,0,1,418,279.2a2.92,2.92,0,0,1,1.84.68,0.43,0.43,0,0,0,.68-0.14c0.14-.34.14-0.34,0.27-0.34h0.48c0.41,0,.41,0,0.41.27v2.86c0,0.48,0,.48-0.21.48H420.9c-0.27,0-.27,0-0.34-0.2a2.13,2.13,0,0,0-2-1.43,0.67,0.67,0,0,0-.75.68c0,0.61.68,1.16,1.91,1.71A3.47,3.47,0,0,1,422.06,287Z" transform="translate(-366.07 -265.83)"/></g><g id="g108"><path id="path110" class="cls-1" d="M397.1,288.13h-0.34c-0.27,0-.27,0-0.27.34v1.23c0,0.27,0,.27.27,0.27h6.75c0.27,0,.34,0,0.34-0.41v-3c0-.27,0-0.34-0.34-0.34h-1c-0.34,0-.34.07-0.34,0.41v1.09c0,0.41,0,.41-0.34.41h-1.43c-0.48,0-.48-0.07-0.48-0.34v-6.07c0-.41,0-0.41.21-0.41h0.41c0.27,0,.27-0.07.27-0.27v-1.23c0-.34,0-0.34-0.34-0.34H396.9c-0.41,0-.41,0-0.41.34V281c0,0.27,0,.34.27,0.34h0.34c0.21,0,.27,0,0.27.34v6.07C397.37,288.06,397.31,288.13,397.1,288.13Z" transform="translate(-366.07 -265.83)"/></g><g id="g112"><path id="path114" class="cls-3" d="M373,292c1.43,2.8,4.43,3.75,7.43,3.61,1.71,0,3.34-.2,5-0.34v0.14a38.71,38.71,0,0,0-1.77,7.37c-4.36.14-8.8-.2-12.07-3.14a9.29,9.29,0,0,1-2.25-8.25c0.55-.61,1.09-1.16,1.57-1.77C371.66,290.38,372.82,291,373,292Z" transform="translate(-366.07 -265.83)"/></g><g id="g116"><path id="path118" class="cls-3" d="M427.31,290.72a10.42,10.42,0,0,1,.2,1.3,8.54,8.54,0,0,1-4.16,8.18,20.63,20.63,0,0,1-10.57,2.66,6.69,6.69,0,0,1-.14-1.16,51.54,51.54,0,0,0-1.36-6.62c4.09,0,9.14,1.09,11.87-2.73,0.34-.55.68-1,1-1.57,0.61-.27,1.23-0.68,1.77-1A15.44,15.44,0,0,1,427.31,290.72Z" transform="translate(-366.07 -265.83)"/></g><g id="g120"><path id="path122" class="cls-3" d="M411.7,307.78a3.41,3.41,0,0,1-1.57,3.21,4,4,0,0,1-1.77.41,0.43,0.43,0,0,1,0-.41,2.72,2.72,0,0,0,2.32-1.09,3.61,3.61,0,0,0,.48-1.91A0.77,0.77,0,0,1,411.7,307.78Z" transform="translate(-366.07 -265.83)"/></g><g id="g124"><path id="path126" class="cls-3" d="M388.44,311.25a1.82,1.82,0,0,1-.61,0,3.05,3.05,0,0,1-3-3.27,0.74,0.74,0,0,1,.54,0c0,1.16.48,2.8,3,2.8A1.33,1.33,0,0,1,388.44,311.25Z" transform="translate(-366.07 -265.83)"/></g></g></svg>