<svg id="Layer_1" data-name="Layer 1" xmlns="http://www.w3.org/2000/svg" xmlns:xlink="http://www.w3.org/1999/xlink" viewBox="0 0 107.81 57.02"><defs><style>.cls-1,.cls-4,.cls-6{fill:none;}.cls-2{fill:#fdbb30;}.cls-3{fill:#002b60;}.cls-4{stroke:#002b60;}.cls-4,.cls-6{stroke-width:0.29px;}.cls-5{fill:#860038;}.cls-6{stroke:#860038;}.cls-7{clip-path:url(#clip-path);}.cls-8{clip-path:url(#clip-path-2);}.cls-9{clip-path:url(#clip-path-3);}.cls-10{clip-path:url(#clip-path-4);}.cls-11{clip-path:url(#clip-path-5);}.cls-12{fill:#fff;}.cls-13{clip-path:url(#clip-path-6);}</style><clipPath id="clip-path" transform="translate(-346.06 -271.56)"><path class="cls-1" d="M406,275a25.55,25.55,0,0,0-4.25.61h0a19.36,19.36,0,0,0-2.13,6.51h0a30.71,30.71,0,0,1,3.87-.61h0a9.06,9.06,0,0,1,4.32-6.55h-0.31c-0.5,0-1,0-1.51,0m-0.57,6.39c9.44-.28,18.56,3.84,25.78,10.86h0a25,25,0,0,0-20.4-17.07h0c-2.5,1-5,3-5.38,6.21m-12.81-1.57a9.13,9.13,0,0,1,1.2,4.2h0a33.62,33.62,0,0,1,4.08-1.47h0a24.09,24.09,0,0,1,1.95-6.43h0a24.93,24.93,0,0,0-7.23,3.69m-8,10a39.15,39.15,0,0,1,7.46-5h0c0.14-1.48,0-3.11-.82-3.93h0a25.11,25.11,0,0,0-6.64,8.91m20.85-6.63c0.36,3.06,2.53,7,7.81,11.75h0c5.9,5.61,12.91,12.47,15.07,18.68h0a24.86,24.86,0,0,0,4.06-15.15h0c0-.79-0.12-1.57-0.24-2.35h0c-6.83-8.25-16.17-13-25.83-13h-0.87m-6.1.81c-1.42,11.35,1.05,29.69,15,39.92h0a25,25,0,0,0,12.56-8.35h0c-2.07-6.4-9.47-13.94-15.48-19.65h0c-5.48-5-7.65-9.21-7.95-12.61h0a30,30,0,0,0-4.13.69m-5.75,2c-0.19.86-.48,1.78-0.79,2.87h0c-0.85,2.95-3.61,6.89-4.56,9.79h0c-1.77,5.43-1.26,13.57,1.36,18.75h0a24.92,24.92,0,0,0,19.27,7.45h0a25,25,0,0,0,3.36-.42h0c-13.91-10-16.16-28.34-14.63-39.95h0a31.85,31.85,0,0,0-4,1.52m-10.17,7a25,25,0,0,0-.92,8.32h0a24.84,24.84,0,0,0,3.73,11.78h0a27.64,27.64,0,0,1,.87-16.39h0c1.33-3.27,3.64-6.2,4.56-9.69h0l0-.1a37.8,37.8,0,0,0-8.27,6.08m0.09-.31a1.43,1.43,0,0,0,.17-0.55h0l-0.17.55"/></clipPath><clipPath id="clip-path-2" transform="translate(-346.06 -271.56)"><path class="cls-1" d="M405.85,272.94a27,27,0,0,0-25.43,28.54h0A27,27,0,0,0,409,326.91h0a27,27,0,0,0,25.43-28.54h0a27,27,0,0,0-27-25.48h0q-0.79,0-1.58,0m-4.13,2.66A25.55,25.55,0,0,1,406,275h0c0.6,0,1.21,0,1.81,0h0a9.06,9.06,0,0,0-4.32,6.55h0a30.71,30.71,0,0,0-3.87.61h0a19.36,19.36,0,0,1,2.13-6.51m9.05-.43a25,25,0,0,1,20.4,17.07h0c-7.21-7-16.33-11.14-25.78-10.86h0c0.4-3.17,2.88-5.21,5.38-6.21m-18.19,4.65a24.93,24.93,0,0,1,7.23-3.69h0a24.09,24.09,0,0,0-1.95,6.43h0a33.62,33.62,0,0,0-4.08,1.47h0a9.13,9.13,0,0,0-1.2-4.2m-1.4,1.11c0.85,0.82,1,2.45.82,3.93h0a39.15,39.15,0,0,0-7.46,5h0a25.12,25.12,0,0,1,6.64-8.91m22,14c-5.28-4.79-7.46-8.69-7.81-11.75h0c10-.29,19.67,4.44,26.7,12.94h0c0.12,0.77.2,1.55,0.24,2.35h0a24.86,24.86,0,0,1-4.06,15.15h0c-2.16-6.21-9.17-13.07-15.07-18.68M399.3,284a30,30,0,0,1,4.13-.69h0c0.29,3.41,2.46,7.64,7.95,12.61h0c6,5.71,13.41,13.25,15.48,19.65h0a25,25,0,0,1-12.56,8.35h0c-13.94-10.23-16.42-28.57-15-39.92m-9.73,33.39c-2.62-5.18-3.13-13.31-1.36-18.75h0c0.94-2.91,3.71-6.85,4.56-9.79h0c0.31-1.08.59-2,.79-2.87h0a31.85,31.85,0,0,1,4-1.52h0c-1.53,11.61.72,29.93,14.63,39.95h0a25,25,0,0,1-3.36.42h0q-0.73,0-1.45,0h0a24.92,24.92,0,0,1-17.81-7.49m-7.1-16.05a25,25,0,0,1,.92-8.32h0a37.78,37.78,0,0,1,8.27-6.08h0l0,0.1c-0.92,3.49-3.23,6.42-4.56,9.69h0a27.64,27.64,0,0,0-.87,16.39h0a24.84,24.84,0,0,1-3.73-11.78m1.18-9.18a1.43,1.43,0,0,1-.17.55h0l0.17-.55"/></clipPath><clipPath id="clip-path-3" transform="translate(-346.06 -271.56)"><path class="cls-1" d="M432.18,308.14a24,24,0,0,0-4.05,3.42h0a1.19,1.19,0,0,0,.18,1h0a8.08,8.08,0,0,0,.47.7h0a1.27,1.27,0,0,1,.29-0.77h0a9.87,9.87,0,0,1,8.08-4.09h0a12.16,12.16,0,0,0-7.67,5.12h0c-0.23.26-.42,0.29-0.54,0.21h0a1.18,1.18,0,0,1-.7,1.06h0a11.53,11.53,0,0,0-2,1.38h0v0.78l0.15,2.46a7.27,7.27,0,0,0,.85,2.46h0c0.56,0.7,2.2,3,4.77,3.31h0s0.18-6.25,1-8.11h0c0.78-1.86,1.82-4,3.5-4.91h0c1.68-.89,4.24-1.78,5.58-2.49h0a6.2,6.2,0,0,0,1.93-1.49h0a47.82,47.82,0,0,1-5-.48h0a18.91,18.91,0,0,0-3.07-.27h0a7.85,7.85,0,0,0-3.74.75"/></clipPath><clipPath id="clip-path-4" transform="translate(-346.06 -271.56)"><path class="cls-1" d="M401.59,292c-9.62-4.19-21.32-.9-30.5,4.52h0L364,294.77c-6.42-1.66-12.08-3.07-17.65-1.79h0c4.26,3.8,9.9,5.31,16.32,7h0l2.49,0.65A40.3,40.3,0,0,0,359,306.5h0l-1.6,2,5.8-.92c-13.37,21.14,8.63,29,23.46,10.52h0L402,314c-2.14,2.84-2.14,7.06-2.14,7.06h0l0.93-.71A32.33,32.33,0,0,1,415,313.65h0l9.86,2.59a0.42,0.42,0,0,0,0,.16h0c-0.35,5.43,2.17,9.12,7.76,10h0c0.33,0.06.57,0.12,1,.18h0a22,22,0,0,1-.05-3.23h0c4.24,3,8.92,2.49,12.78-.88h0l0.29,0.71c4.15,1,6.22-6,5.89-7.57h0a10,10,0,0,0-4.68.48h0l-10.44-2.81c1.91-1.44,8.3-3,8.38-6.38h0c0-.05,0-0.1,0-0.15h0c3.43-2.72,4.63-6.54,3.45-11.8h0l4.4-11-13.19,3.17h0l1.71-5.13-40.55,10h0Zm24.06,15c9.78-1.46,20.26-3.9,16.54-9.47h0a11,11,0,0,1-1.64-1.59h0c-2.42-3.25,1.72-7,6.37-6.66h0a6.79,6.79,0,0,1,1.13.18h0l-1.14,2.91c-0.94-1.49-4-1.84-4.37,0h0c-0.3,1.36,1.84,1.85,3.09,4.21h0c1.7,3.22-.08,6.47-3.16,8h0a28.72,28.72,0,0,1-3.69,1.59h0c-1,.27-2.11.57-3.45,0.94h0a37.9,37.9,0,0,1-6.29,1.3h0c-8,1.2-16.37,1.58-23.39,4.87h0c3.05-3.13,11.11-4.92,20-6.28m-50.58-9.23c11.28-5.68,21.77-6,26.27-1.57h0c-0.17-.06-8.89,5.1-9.79,5.77h0c4.32-8.44-3.46-6.52-9.94-2.46h0l-6.55-1.73h0Zm-10.55,6.84q2.32-1.87,4.67-3.42h0l7.55,2.07-0.36.37h0c-16.8,17.53-5.75,20.47,6.48,13.72h0a21.84,21.84,0,0,1-1.72,1.71h0c-13.6,13.35-28.43,3.29-10.32-15.89h0c-1.94.55-5.82,1.45-6.26,1.45h0"/></clipPath><clipPath id="clip-path-5" transform="translate(-346.06 -271.56)"><path class="cls-1" d="M428.7,312.16a2.05,2.05,0,0,1,.74,1.86h0a1.77,1.77,0,0,1-1.35,1.84h0a0.28,0.28,0,0,1,0,.07h0a6.19,6.19,0,0,0,1.37,3.8h0a11,11,0,0,1,5.7-8.5h0a14.13,14.13,0,0,0-4.47,11.84h0c-1.86-.37-3.41-3.5-3.95-5.15h0c0.42,2.82,2.17,6.17,4.87,6.36h0c-0.55-5.41,1.55-11,5.09-12.89h0c1.46-.78,3.51-1.28,5.76-2.73h0a29,29,0,0,1-4-.57h0a11.28,11.28,0,0,0-2-.18h0a9.21,9.21,0,0,0-7.78,4.24"/></clipPath><clipPath id="clip-path-6" transform="translate(-346.06 -271.56)"><path class="cls-1" d="M401.51,293.13c-9-4.09-20.1-1.25-29,3.77h0l17.37,4.37a4.76,4.76,0,0,1-.26.64h0l-7.67,2.35a10.39,10.39,0,0,0-1,.46h0l-14.57-3.82a39.73,39.73,0,0,0-6.6,6.22h0l5.21-.68c-14.88,23.84,9.19,26.86,20.58,10.83h0l18.9-4.74a13.48,13.48,0,0,0-3.29,6.32h0c5.6-4.84,12.9-6.34,17.28-6.65h0c2.66-.19,5.59-0.49,7.87-0.74h0l0.64-.81a11.32,11.32,0,0,1,8.28-4.54h0a11.68,11.68,0,0,1,4.4.31h0a20.1,20.1,0,0,0,4,.66h0c4.58-2.67,5.94-6.54,4.6-12.16h0l3.55-9.48s-9,2.18-12.8,3.1h0l1.71-5.13-39.17,9.72h0Z"/></clipPath></defs><title>cleveland-cavaliers</title><g id="g4974"><g id="g4980"><path id="path4982" class="cls-2" d="M379.09,301.56A28.36,28.36,0,1,1,409,328.24a28.36,28.36,0,0,1-29.94-26.68" transform="translate(-346.06 -271.56)"/></g><g id="g4984"><path id="path4986" class="cls-3" d="M434.38,298.37a27,27,0,1,1-28.54-25.43,27,27,0,0,1,28.54,25.43" transform="translate(-346.06 -271.56)"/></g><g id="g4988"><path id="path4990" class="cls-4" d="M434.38,298.37a27,27,0,1,1-28.54-25.43A27,27,0,0,1,434.38,298.37Z" transform="translate(-346.06 -271.56)"/></g><g id="g4992"><path id="path4994" class="cls-5" d="M432.33,298.49a24.86,24.86,0,0,1-4.06,15.15c-2.16-6.21-9.17-13.07-15.07-18.68-5.28-4.79-7.46-8.69-7.81-11.75,10-.29,19.67,4.44,26.7,12.94,0.12,0.77.19,1.55,0.24,2.35m-5.48,17.1a25,25,0,0,1-12.56,8.35c-13.94-10.22-16.41-28.57-15-39.92a29.87,29.87,0,0,1,4.13-.69c0.29,3.41,2.46,7.64,7.95,12.61,6,5.7,13.41,13.25,15.48,19.65m-14.66,8.85a25,25,0,0,1-22.63-7c-2.62-5.18-3.13-13.31-1.36-18.75,0.94-2.91,3.71-6.85,4.56-9.79,0.31-1.08.59-2,.79-2.87a31.79,31.79,0,0,1,4-1.52c-1.53,11.61.72,29.93,14.63,39.95m-26-11.3a25.08,25.08,0,0,1-2.82-20.1,37.8,37.8,0,0,1,8.27-6.08l0,0.1c-0.92,3.49-3.23,6.42-4.56,9.69a27.65,27.65,0,0,0-.86,16.39m-2.72-20.41,0.17-.55a1.41,1.41,0,0,1-.17.55m1.07-2.89a25.1,25.1,0,0,1,6.64-8.91c0.85,0.82,1,2.45.82,3.93a39.13,39.13,0,0,0-7.46,5m8-10a25,25,0,0,1,7.23-3.69,24.12,24.12,0,0,0-1.95,6.43,33.62,33.62,0,0,0-4.08,1.47,9.13,9.13,0,0,0-1.2-4.2m9.14-4.22A25.4,25.4,0,0,1,406,275c0.6,0,1.21,0,1.81,0a9.06,9.06,0,0,0-4.32,6.55,30.61,30.61,0,0,0-3.87.61,19.29,19.29,0,0,1,2.13-6.51m9.05-.43a25,25,0,0,1,20.4,17.07c-7.21-7-16.33-11.14-25.78-10.86,0.4-3.17,2.88-5.21,5.38-6.21" transform="translate(-346.06 -271.56)"/></g><g id="g4996"><path id="path4998" class="cls-6" d="M432.33,298.49a24.86,24.86,0,0,1-4.06,15.15c-2.16-6.21-9.17-13.07-15.07-18.68-5.28-4.79-7.46-8.69-7.81-11.75,10-.29,19.67,4.44,26.7,12.94C432.21,296.91,432.28,297.7,432.33,298.49Zm-5.48,17.1a25,25,0,0,1-12.56,8.35c-13.94-10.22-16.41-28.57-15-39.92a29.87,29.87,0,0,1,4.13-.69c0.29,3.41,2.46,7.64,7.95,12.61,6,5.7,13.41,13.25,15.48,19.65h0Zm-14.66,8.85a25,25,0,0,1-22.63-7c-2.62-5.18-3.13-13.31-1.36-18.75,0.94-2.91,3.71-6.85,4.56-9.79,0.31-1.08.59-2,.79-2.87a31.79,31.79,0,0,1,4-1.52C396,296.1,398.28,314.42,412.19,324.44Zm-26-11.3a25.08,25.08,0,0,1-2.82-20.1,37.8,37.8,0,0,1,8.27-6.08l0,0.1c-0.92,3.49-3.23,6.42-4.56,9.69A27.65,27.65,0,0,0,386.2,313.14Zm-2.72-20.41,0.17-.55A1.41,1.41,0,0,1,383.48,292.72Zm1.07-2.89a25.1,25.1,0,0,1,6.64-8.91c0.85,0.82,1,2.45.82,3.93a39.13,39.13,0,0,0-7.46,5h0Zm8-10a25,25,0,0,1,7.23-3.69,24.12,24.12,0,0,0-1.95,6.43,33.62,33.62,0,0,0-4.08,1.47A9.13,9.13,0,0,0,392.58,279.81Zm9.14-4.22A25.4,25.4,0,0,1,406,275c0.6,0,1.21,0,1.81,0a9.06,9.06,0,0,0-4.32,6.55,30.61,30.61,0,0,0-3.87.61,19.29,19.29,0,0,1,2.13-6.51h0Zm9.05-.43a25,25,0,0,1,20.4,17.07c-7.21-7-16.33-11.14-25.78-10.86,0.4-3.17,2.88-5.21,5.38-6.21h0Z" transform="translate(-346.06 -271.56)"/></g><g id="g5000"><path id="path5002" class="cls-2" d="M447.83,316.11l-10.44-2.81c1.91-1.44,8.3-3,8.38-6.38,0-.05,0-0.1,0-0.15,3.43-2.72,4.63-6.55,3.45-11.8l4.4-11-13.19,3.17,1.71-5.13-40.55,10c-9.62-4.19-21.32-.9-30.5,4.52L364,294.77c-6.42-1.66-12.08-3.07-17.65-1.79,4.26,3.8,9.9,5.31,16.32,7l2.49,0.65A40.28,40.28,0,0,0,359,306.5l-1.6,2,5.8-.92c-13.37,21.14,8.63,29,23.46,10.52L402,314c-2.14,2.84-2.14,7.06-2.14,7.06l0.93-.71A32.33,32.33,0,0,1,415,313.65l9.86,2.59a0.43,0.43,0,0,0,0,.16c-0.35,5.43,2.17,9.12,7.76,10,0.33,0.06.57,0.12,1,.18a22,22,0,0,1-.05-3.23c4.24,3,8.92,2.49,12.78-.88l0.29,0.71c4.15,1,6.22-6,5.89-7.57a10,10,0,0,0-4.68.48" transform="translate(-346.06 -271.56)"/></g></g><g id="g5004"><g class="cls-7"><g id="g5006"><g id="g5012"><path id="path5014" class="cls-2" d="M447.83,316.11l-10.44-2.81c1.91-1.44,8.3-3,8.38-6.38,0-.05,0-0.1,0-0.15,3.43-2.72,4.63-6.55,3.45-11.8l4.4-11-13.19,3.17,1.71-5.13-40.55,10c-9.62-4.19-21.32-.9-30.5,4.52L364,294.77c-6.42-1.66-12.08-3.07-17.65-1.79,4.26,3.8,9.9,5.31,16.32,7l2.49,0.65A40.28,40.28,0,0,0,359,306.5l-1.6,2,5.8-.92c-13.37,21.14,8.63,29,23.46,10.52L402,314c-2.14,2.84-2.14,7.06-2.14,7.06l0.93-.71A32.33,32.33,0,0,1,415,313.65l9.86,2.59a0.43,0.43,0,0,0,0,.16c-0.35,5.43,2.17,9.12,7.76,10,0.33,0.06.57,0.12,1,.18a22,22,0,0,1-.05-3.23c4.24,3,8.92,2.49,12.78-.88l0.29,0.71c4.15,1,6.22-6,5.89-7.57a10,10,0,0,0-4.68.48" transform="translate(-346.06 -271.56)"/></g><g id="g5016"><path id="path5018" class="cls-6" d="M447.83,316.11l-10.44-2.81c1.91-1.44,8.3-3,8.38-6.38,0-.05,0-0.1,0-0.15,3.43-2.72,4.63-6.55,3.45-11.8l4.4-11-13.19,3.17,1.71-5.13-40.55,10c-9.62-4.19-21.32-.9-30.5,4.52L364,294.77c-6.42-1.66-12.08-3.07-17.65-1.79,4.26,3.8,9.9,5.31,16.32,7l2.49,0.65A40.28,40.28,0,0,0,359,306.5l-1.6,2,5.8-.92c-13.37,21.14,8.63,29,23.46,10.52L402,314c-2.14,2.84-2.14,7.06-2.14,7.06l0.93-.71A32.33,32.33,0,0,1,415,313.65l9.86,2.59a0.43,0.43,0,0,0,0,.16c-0.35,5.43,2.17,9.12,7.76,10,0.33,0.06.57,0.12,1,.18a22,22,0,0,1-.05-3.23c4.24,3,8.92,2.49,12.78-.88l0.29,0.71c4.15,1,6.22-6,5.89-7.57A10,10,0,0,0,447.83,316.11Z" transform="translate(-346.06 -271.56)"/></g></g></g></g><g id="g5020"><g class="cls-8"><g id="g5022"><g id="g5028"><path id="path5030" class="cls-2" d="M447.83,316.11l-10.44-2.81c1.91-1.44,8.3-3,8.38-6.38,0-.05,0-0.1,0-0.15,3.43-2.72,4.63-6.55,3.45-11.8l4.4-11-13.19,3.17,1.71-5.13-40.55,10c-9.62-4.19-21.32-.9-30.5,4.52L364,294.77c-6.42-1.66-12.08-3.07-17.65-1.79,4.26,3.8,9.9,5.31,16.32,7l2.49,0.65A40.28,40.28,0,0,0,359,306.5l-1.6,2,5.8-.92c-13.37,21.14,8.63,29,23.46,10.52L402,314c-2.14,2.84-2.14,7.06-2.14,7.06l0.93-.71A32.33,32.33,0,0,1,415,313.65l9.86,2.59a0.43,0.43,0,0,0,0,.16c-0.35,5.43,2.17,9.12,7.76,10,0.33,0.06.57,0.12,1,.18a22,22,0,0,1-.05-3.23c4.24,3,8.92,2.49,12.78-.88l0.29,0.71c4.15,1,6.22-6,5.89-7.57a10,10,0,0,0-4.68.48" transform="translate(-346.06 -271.56)"/></g><g id="g5032"><path id="path5034" class="cls-4" d="M447.83,316.11l-10.44-2.81c1.91-1.44,8.3-3,8.38-6.38,0-.05,0-0.1,0-0.15,3.43-2.72,4.63-6.55,3.45-11.8l4.4-11-13.19,3.17,1.71-5.13-40.55,10c-9.62-4.19-21.32-.9-30.5,4.52L364,294.77c-6.42-1.66-12.08-3.07-17.65-1.79,4.26,3.8,9.9,5.31,16.32,7l2.49,0.65A40.28,40.28,0,0,0,359,306.5l-1.6,2,5.8-.92c-13.37,21.14,8.63,29,23.46,10.52L402,314c-2.14,2.84-2.14,7.06-2.14,7.06l0.93-.71A32.33,32.33,0,0,1,415,313.65l9.86,2.59a0.43,0.43,0,0,0,0,.16c-0.35,5.43,2.17,9.12,7.76,10,0.33,0.06.57,0.12,1,.18a22,22,0,0,1-.05-3.23c4.24,3,8.92,2.49,12.78-.88l0.29,0.71c4.15,1,6.22-6,5.89-7.57A10,10,0,0,0,447.83,316.11Z" transform="translate(-346.06 -271.56)"/></g></g></g></g><g id="g5038"><g id="g5044"><path id="path5046" class="cls-3" d="M451.83,316.5A6.07,6.07,0,0,0,448,317L437,314.11l-1.54-.41c1-1.34,2.91-1.92,4.82-2.77a17.31,17.31,0,0,0,2.82-1.4,4.63,4.63,0,0,0,1.77-1.78A22.33,22.33,0,0,1,439,307a11.66,11.66,0,0,0-3.65-.17h-0.12a11,11,0,0,0-7.75,4.56s-0.21.27-.28,0.35c-0.22.25-.54,0.63-0.54,0.63l0.93,0.24c0.65,0.11.29,1.51-.57,1.29l-4.11-1.07-4.41.35c-0.58,0-1.22.11-1.91,0.22l9.09,2.39c-0.65,5.94,2.54,9.59,7,9.95,0-.6,0-1.88,0-4.15,0,0,6.47,6.94,13.89-.52a11.27,11.27,0,0,1,.62,1.41c3.27,0.38,4.71-5.94,4.6-6" transform="translate(-346.06 -271.56)"/></g><g id="g5048"><path id="path5050" class="cls-4" d="M451.83,316.5A6.07,6.07,0,0,0,448,317L437,314.11l-1.54-.41c1-1.34,2.91-1.92,4.82-2.77a17.31,17.31,0,0,0,2.82-1.4,4.63,4.63,0,0,0,1.77-1.78A22.33,22.33,0,0,1,439,307a11.66,11.66,0,0,0-3.65-.17h-0.12a11,11,0,0,0-7.75,4.56s-0.21.27-.28,0.35c-0.22.25-.54,0.63-0.54,0.63l0.93,0.24c0.65,0.11.29,1.51-.57,1.29l-4.11-1.07-4.41.35c-0.58,0-1.22.11-1.91,0.22l9.09,2.39c-0.65,5.94,2.54,9.59,7,9.95,0-.6,0-1.88,0-4.15,0,0,6.47,6.94,13.89-.52a11.27,11.27,0,0,1,.62,1.41C450.5,322.83,451.94,316.51,451.83,316.5Z" transform="translate(-346.06 -271.56)"/></g></g><g id="g5052"><g class="cls-9"><g id="g5054"><g id="g5060"><path id="path5062" class="cls-2" d="M438.44,308.1a9.29,9.29,0,0,0-9.74,4.06,2.05,2.05,0,0,1,.74,1.86,1.77,1.77,0,0,1-1.35,1.84,0.26,0.26,0,0,1,0,.07,6.2,6.2,0,0,0,1.38,3.8,11,11,0,0,1,5.7-8.5,14.13,14.13,0,0,0-4.47,11.84c-1.86-.37-3.41-3.5-3.95-5.15,0.42,2.82,2.17,6.17,4.87,6.36-0.55-5.41,1.55-11,5.09-12.89,1.46-.78,3.51-1.28,5.76-2.73a29,29,0,0,1-4-.57" transform="translate(-346.06 -271.56)"/></g><g id="g5064"><path id="path5066" class="cls-4" d="M438.44,308.1a9.29,9.29,0,0,0-9.74,4.06,2.05,2.05,0,0,1,.74,1.86,1.77,1.77,0,0,1-1.35,1.84,0.26,0.26,0,0,1,0,.07,6.2,6.2,0,0,0,1.38,3.8,11,11,0,0,1,5.7-8.5,14.13,14.13,0,0,0-4.47,11.84c-1.86-.37-3.41-3.5-3.95-5.15,0.42,2.82,2.17,6.17,4.87,6.36-0.55-5.41,1.55-11,5.09-12.89,1.46-.78,3.51-1.28,5.76-2.73A29,29,0,0,1,438.44,308.1Z" transform="translate(-346.06 -271.56)"/></g></g></g></g><g id="g5070"><g id="g5076"><path id="path5078" class="cls-3" d="M385.63,303.07L366.06,298c-5.58-1.55-7-2.79-7.4-3.11L370,297.79l18.46,4.75c-0.84.2-2.09,0.41-2.86,0.54m66.14-17.64s-9,2.18-12.8,3.1l1.71-5.13-39.17,9.72c-9-4.09-20.1-1.25-29,3.77l17.37,4.37a4.76,4.76,0,0,1-.26.64l-26.37-6.63c-5.36-1.38-10.19-2.69-14.81-1.78,3.6,3,8.47,4.2,13.83,5.59l19.69,5.18a10.28,10.28,0,0,0-1,.46l-14.57-3.82a39.81,39.81,0,0,0-6.6,6.22l5.21-.68c-14.88,23.84,9.19,26.87,20.58,10.83l18.9-4.74a13.49,13.49,0,0,0-3.29,6.32c5.6-4.84,12.9-6.34,17.28-6.65,2.66-.19,5.59-0.49,7.87-0.74l0.64-.81a11.31,11.31,0,0,1,8.28-4.54,11.68,11.68,0,0,1,4.4.31,20.1,20.1,0,0,0,4,.66c4.58-2.67,5.94-6.54,4.6-12.16l3.55-9.48h0Z" transform="translate(-346.06 -271.56)"/></g></g><g id="g5080"><g class="cls-10"><g id="g5082"><g id="g5088"><path id="path5090" class="cls-3" d="M385.63,303.07L366.06,298c-5.58-1.55-7-2.79-7.4-3.11L370,297.79l18.46,4.75c-0.84.2-2.09,0.41-2.86,0.54m66.14-17.64s-9,2.18-12.8,3.1l1.71-5.13-39.17,9.72c-9-4.09-20.1-1.25-29,3.77l17.37,4.37a4.76,4.76,0,0,1-.26.64l-26.37-6.63c-5.36-1.38-10.19-2.69-14.81-1.78,3.6,3,8.47,4.2,13.83,5.59l19.69,5.18a10.28,10.28,0,0,0-1,.46l-14.57-3.82a39.81,39.81,0,0,0-6.6,6.22l5.21-.68c-14.88,23.84,9.19,26.87,20.58,10.83l18.9-4.74a13.49,13.49,0,0,0-3.29,6.32c5.6-4.84,12.9-6.34,17.28-6.65,2.66-.19,5.59-0.49,7.87-0.74l0.64-.81a11.31,11.31,0,0,1,8.28-4.54,11.68,11.68,0,0,1,4.4.31,20.1,20.1,0,0,0,4,.66c4.58-2.67,5.94-6.54,4.6-12.16l3.55-9.48h0Z" transform="translate(-346.06 -271.56)"/></g><g id="g5092"><path id="path5094" class="cls-4" d="M385.63,303.07L366.06,298c-5.58-1.55-7-2.79-7.4-3.11L370,297.79l18.46,4.75C387.66,302.73,386.4,302.94,385.63,303.07Zm66.14-17.64s-9,2.18-12.8,3.1l1.71-5.13-39.17,9.72c-9-4.09-20.1-1.25-29,3.77l17.37,4.37a4.76,4.76,0,0,1-.26.64l-26.37-6.63c-5.36-1.38-10.19-2.69-14.81-1.78,3.6,3,8.47,4.2,13.83,5.59l19.69,5.18a10.28,10.28,0,0,0-1,.46l-14.57-3.82a39.81,39.81,0,0,0-6.6,6.22l5.21-.68c-14.88,23.84,9.19,26.87,20.58,10.83l18.9-4.74a13.49,13.49,0,0,0-3.29,6.32c5.6-4.84,12.9-6.34,17.28-6.65,2.66-.19,5.59-0.49,7.87-0.74l0.64-.81a11.31,11.31,0,0,1,8.28-4.54,11.68,11.68,0,0,1,4.4.31,20.1,20.1,0,0,0,4,.66c4.58-2.67,5.94-6.54,4.6-12.16l3.55-9.48h0Z" transform="translate(-346.06 -271.56)"/></g></g></g></g><g id="g5098"><g id="g5104"><path id="path5106" class="cls-2" d="M448.39,317.82a8.45,8.45,0,0,1,2.54-.67,7.79,7.79,0,0,0-1.88,1.13,2.94,2.94,0,0,1-1.8,2.15,4.8,4.8,0,0,0,1.14-2.61" transform="translate(-346.06 -271.56)"/></g><g id="g5108"><path id="path5110" class="cls-4" d="M448.39,317.82a8.45,8.45,0,0,1,2.54-.67,7.79,7.79,0,0,0-1.88,1.13,2.94,2.94,0,0,1-1.8,2.15A4.8,4.8,0,0,0,448.39,317.82Z" transform="translate(-346.06 -271.56)"/></g><g id="g5112"><path id="path5114" class="cls-2" d="M433.1,319.11c1.65,3.64,6.48,4.49,9.38,3.88-1.3,1.13-7.63.89-9.54-2.82l0.15-1.05" transform="translate(-346.06 -271.56)"/></g><g id="g5116"><path id="path5118" class="cls-4" d="M433.1,319.11c1.65,3.64,6.48,4.49,9.38,3.88-1.3,1.13-7.63.89-9.54-2.82Z" transform="translate(-346.06 -271.56)"/></g><g id="g5120"><path id="path5122" class="cls-2" d="M434.88,314.48l12.51,3.24c0.41,0.1.24,1.25-.3,1.11l-12.86-3.27a3.48,3.48,0,0,1,.65-1.08" transform="translate(-346.06 -271.56)"/></g><g id="g5124"><path id="path5126" class="cls-4" d="M434.88,314.48l12.51,3.24c0.41,0.1.24,1.25-.3,1.11l-12.86-3.27A3.48,3.48,0,0,1,434.88,314.48Z" transform="translate(-346.06 -271.56)"/></g><g id="g5128"><path id="path5130" class="cls-2" d="M445.54,320c-4.52,4.46-11.6,1.39-11.56-2.22A16.7,16.7,0,0,0,445.54,320" transform="translate(-346.06 -271.56)"/></g><g id="g5132"><path id="path5134" class="cls-4" d="M445.54,320c-4.52,4.46-11.6,1.39-11.56-2.22A16.7,16.7,0,0,0,445.54,320Z" transform="translate(-346.06 -271.56)"/></g></g><g id="g5136"><g class="cls-11"><g id="g5138"><g id="g5144"><path id="path5146" class="cls-12" d="M429.07,312.46c-0.56.68-.28,1.78,0.4,1a12.16,12.16,0,0,1,7.67-5.12,9.86,9.86,0,0,0-8.08,4.09" transform="translate(-346.06 -271.56)"/></g></g></g></g><g id="g5150"><g id="g5156"><path id="path5158" class="cls-3" d="M443.38,320.87a15.79,15.79,0,0,1-8.29-1.86c0.68,2.11,5.69,3.66,8.29,1.86" transform="translate(-346.06 -271.56)"/></g><g id="g5160"><path id="path5162" class="cls-12" d="M431.56,290.06l-0.41-1.55-1,3.06-1,.25,1.55-4,1-.25L432,289l0.63-1.62,1-.25-1.55,4-1,.25,0.47-1.28m-3.34-1.2h-0.14a1,1,0,0,0-.27,0,2.59,2.59,0,0,0-.36.14l-0.16.09-0.62,1.54,1-.24,0.61-1.52h0Zm-0.75,2-1,.24-0.59,1.49-1,.26,1.37-3.47a1.54,1.54,0,0,1,.75-0.56,5,5,0,0,1,1-.36,3.06,3.06,0,0,1,.88-0.09c0.3,0,.46.09,0.41,0.24l-1.37,3.5-1,.25,0.59-1.5h0Zm-4.59-1,1-.25-1.38,3.52,1.68-.41-0.17.43-2.71.67,1.55-4h0Zm-3.29.85,2.33-.57-0.17.43-1.3.32L420,292l1.3-.32-0.17.43-1.31.32-0.57,1.47,1.3-.32-0.17.44-2.33.57Zm-7.3,1.8,2.34-.57-0.17.42-1.3.32-0.47,1.19,1.3-.32-0.17.44-1.31.32-0.58,1.47,1.31-.32-0.18.44-2.33.57,1.55-4h0Zm-3.5.89,1-.25-1.38,3.53,1.68-.41-0.17.44-2.71.66Zm-4.27,4.62a3.48,3.48,0,0,1-.81.09c-0.37,0-.57-0.07-0.51-0.24l1.18-3a1.51,1.51,0,0,1,.63-0.46,4.51,4.51,0,0,1,.94-0.39l1.66-.4-0.28.71-1,.25,0.12-.27-0.28.06a4.08,4.08,0,0,0-.61.19,0.26,0.26,0,0,0-.16.11l-1.13,2.92s0,0,.18,0l0.27,0a1.54,1.54,0,0,0,.39-0.16,0.53,0.53,0,0,0,.22-0.21l-0.06-.14,1.11-.27-0.13.33a1.6,1.6,0,0,1-.76.53,5.23,5.23,0,0,1-1,.36M435,290.31l-1.67.41,1.56-4,1.68-.41a2.1,2.1,0,0,1,.8,0c0.25,0,.4.1,0.36,0.22l-1.15,2.92a1.52,1.52,0,0,1-.63.48,4.53,4.53,0,0,1-.94.39m1.54-3.52-0.12,0-0.67.15-1.21,3.1,0.52-.13,0.27-.11,0.19-.1,1.15-2.86-0.12,0m-21.48,5,0.82-.18,0.08,2.11,1.66-2.52,1.12-.3-3.25,4.36Z" transform="translate(-346.06 -271.56)"/></g><g id="g5164"><path id="path5166" class="cls-12" d="M393.65,302.94l1.61,1c-0.83,2.36-4.43,7.37-6.49,8.88l3.6-9.57-2.76.73-4.53,11.52,5.8-1.49c0.13,0,5.21-4.07,8.12-12.42l-5.35,1.36" transform="translate(-346.06 -271.56)"/></g><g id="g5168"><path id="path5170" class="cls-12" d="M382.17,311.19l-2.27.65s1.89-3.71,3.85-4.29l-1.58,3.64m-5.36,1.87s-2.11,4.29-2.54,5.18l2.87-.75,1.94-4,2.32-.68-1.6,4,3-.78,4.7-11.64c-1.57.54-7.15,0.63-10.74,8.67" transform="translate(-346.06 -271.56)"/></g><g id="g5172"><path id="path5174" class="cls-12" d="M432.65,297.49l1.33-3.69,2.08-.56a6.76,6.76,0,0,1-3.4,4.25m2.21,1.1a2.65,2.65,0,0,1-.28-0.71l0.29-.15c1.86-1.07,3.92-4.24,3.83-6.4-2.62.7-7,1.84-7,1.87l-4.2,11.54,2.73-.7,1.81-5c0.21,0.46,1.41,3.32,3.75,3.56,2.71,0.27,4.29-2.4,4.29-2.4a4,4,0,0,1-5.18-1.65" transform="translate(-346.06 -271.56)"/></g><g id="g5176"><path id="path5178" class="cls-12" d="M402.9,305.93l-2.27.65s1.89-3.71,3.85-4.29l-1.58,3.64m-5.36,1.88s-2.08,4.22-2.51,5.1l2.9-.75,1.88-4,2.32-.68-1.59,4,3-.77,4.71-11.58c-1.38.4-7.15,0.61-10.74,8.64" transform="translate(-346.06 -271.56)"/></g><g id="g5180"><path id="path5182" class="cls-12" d="M418.73,296.39L414.21,308l2.88-.73,4.51-11.59Z" transform="translate(-346.06 -271.56)"/></g><g id="g5184"><path id="path5186" class="cls-12" d="M421.81,304.7l1.44-3.38,4-2.14-3.17.23,1.38-3.69a2.55,2.55,0,0,1,3.35,1.08l1.31-3.25-7,1.77-4.47,11.58,7.1-1.84,1.52-3.59a9.4,9.4,0,0,1-5.44,3.22" transform="translate(-346.06 -271.56)"/></g><g id="g5188"><path id="path5190" class="cls-12" d="M409.06,308l3.78-10-3,.76-4.46,11.62,7.65-2,1.69-4.12c-2,2.4-3.1,3.34-5.64,3.75" transform="translate(-346.06 -271.56)"/></g></g><g id="g5192"><g class="cls-13"><g id="g5194"><g id="g5200"><path id="path5202" class="cls-12" d="M448.06,289.52l-1.14,2.91c-0.94-1.49-4-1.84-4.37,0-0.3,1.36,1.84,1.85,3.09,4.21,1.7,3.22-.08,6.47-3.16,8a28.72,28.72,0,0,1-3.69,1.59c-1,.27-2.11.57-3.45,0.94a37.9,37.9,0,0,1-6.29,1.3c-8,1.2-16.37,1.58-23.39,4.87,3.05-3.13,11.11-4.92,20-6.28,9.78-1.46,20.26-3.9,16.54-9.47a10.92,10.92,0,0,1-1.64-1.59c-2.42-3.25,1.72-7,6.37-6.66a6.84,6.84,0,0,1,1.13.18" transform="translate(-346.06 -271.56)"/></g><g id="g5204"><path id="path5206" class="cls-12" d="M401.35,296.26c0-.14-8.89,5.09-9.79,5.77,5.65-11.05-9.41-4.35-15.17,1.66-16.8,17.53-5.75,20.47,6.48,13.72a22,22,0,0,1-1.72,1.71c-13.6,13.35-28.43,3.29-10.32-15.89a57.58,57.58,0,0,1-6.3,1.44c14.75-11.91,30.94-14.18,36.83-8.41" transform="translate(-346.06 -271.56)"/></g></g></g></g></svg>