<svg id="Layer_1" data-name="Layer 1" xmlns="http://www.w3.org/2000/svg" viewBox="0 0 85.7 85.53"><defs><style>.cls-1{fill:#fff;}.cls-2{fill:#c4ced4;}.cls-3{fill:#1061ac;}</style></defs><title>dallas-mavericks</title><path d="M363.78,263.67s1.94,23.48,10.59,41.49A69.48,69.48,0,0,1,360.25,299l14.48,37.08s7.41-4.59,14.12-5.12c0,0,7.24,9.53,10.77,11.83,3.53-2.29,10.24-12,10.24-12,6.71,0.53,13.59,4.94,13.59,4.94l15-36.72a85.7,85.7,0,0,1-12.89,6.18c7.77-18,10.42-41.67,10.42-41.67l-15.54,4.59H378.78l-15-4.41h0Z" transform="translate(-357.15 -257.24)"/><path class="cls-1" d="M378.78,269.17h41.82L434.7,265c-0.76,5.64-3.68,24.77-10.13,39.72l-1.3,3.08s13.36-4.44,19.58-7.77c-1.91,4.68-13.64,32.06-14.46,34.07-2.29-.71-13.09-4-18.45-4.44l-0.62,0-0.36.51c-1.71,2.48-6.49,9-9.35,11.28-3.51-2.75-9.83-11.05-9.9-11.14l-0.36-.47-0.59,0c-5,0-17.57,3.38-19,5-1.49-3.83-11.53-31.61-12.63-34.43,6.54,3.39,19.17,7,19.17,7l-1.1-2.68c-7.19-15-9.59-34-10.21-39.51l13.61,4h0.16Z" transform="translate(-357.15 -257.24)"/><path class="cls-2" d="M366.42,267L377,270.2h45.2l10.42-3.35s-0.88,16.07-9.53,37.25a109.37,109.37,0,0,1-23.66,35.13S382,320.17,375.08,300.92a173.13,173.13,0,0,1-8.65-33.9h0Z" transform="translate(-357.15 -257.24)"/><path class="cls-3" d="M359.72,302.86s14.65,6.53,28.78,8.12,23.13,0.18,23.13.18a107.07,107.07,0,0,0,27.72-8.3L426.8,332.17a103.17,103.17,0,0,0-16.07-3.53,126.38,126.38,0,0,0-23.13,0c-5.3.71-16.77,3.88-16.77,3.88l-11.12-29.66h0Z" transform="translate(-357.15 -257.24)"/><path class="cls-1" d="M425.34,282.64c0-13.63-11.47-24.68-25.62-24.68S374.09,269,374.09,282.64s11.47,24.68,25.62,24.68,25.62-11.05,25.62-24.68h0Z" transform="translate(-357.15 -257.24)"/><path d="M373.36,282.64c0,14,11.82,25.41,26.35,25.41s26.35-11.4,26.35-25.41-11.82-25.41-26.35-25.41-26.35,11.4-26.35,25.41h0Zm1.45,0c0-13.21,11.17-24,24.9-24s24.9,10.75,24.9,24-11.17,24-24.9,24-24.9-10.75-24.9-24h0Z" transform="translate(-357.15 -257.24)"/><path class="cls-3" d="M423.67,289.68a23.33,23.33,0,1,1-23.33-23.33,23.32,23.32,0,0,1,23.33,23.33h0Z" transform="translate(-357.15 -257.24)"/><path d="M424.54,289.68a24.19,24.19,0,1,1-7.09-17.11,24.19,24.19,0,0,1,7.09,17.11h0Zm-1.74,0a22.46,22.46,0,1,0-22.46,22.46,22.39,22.39,0,0,0,22.46-22.46h0Z" transform="translate(-357.15 -257.24)"/><path d="M398.34,264.19a3.82,3.82,0,0,0-1.08,1.82s4.56,2.4,5.55,4.15a10.53,10.53,0,0,1,3.07-.5,13.54,13.54,0,0,1,3.23.91,19.53,19.53,0,0,0-2.4,1.49,22.89,22.89,0,0,0-1.41,1.82,16.31,16.31,0,0,0,6.88,2.49,10.72,10.72,0,0,0,5.8-.83l0.75,0.33-0.25.5a17,17,0,0,1-2.65.83,20.13,20.13,0,0,1-3.65.5,24,24,0,0,1-5-.91l0.25,1.24a4,4,0,0,0-2.49-1.24v0.58a30,30,0,0,1,6.13,3.56,40.92,40.92,0,0,1,5.47,5.31,14.84,14.84,0,0,1,3.15,5.64,20.77,20.77,0,0,1,.83,5.06l0.75,0.41-1.58,3.4-0.25-1.24a24,24,0,0,0-1-5.89c-0.91-2.82-2.57-4.64-4.06-6.47s-6.13-4.89-7.13-5.39a20,20,0,0,1,1.66,4.14,6.4,6.4,0,0,0-2.57-1.57s1.16,0.91,3.65,5.06,2.24,9.7,2.24,9.7a55.75,55.75,0,0,1-.66,6.13,4.41,4.41,0,0,1-.91,2.24l-0.41-2.07a20.79,20.79,0,0,0,.41-7.29c-0.5-4-1.41-8.21-4.39-10.86a14,14,0,0,1,.5,4.06,12.84,12.84,0,0,1-1.33,3.81s-0.41-3.9-1.58-4c0,0,0,1.08-.08,1.82s-0.83,2.15-.33,3.32a44.14,44.14,0,0,1,1.33,4.56c0.08,0.33.25,1.24,0.25,1.24a0.65,0.65,0,0,1-.33.75c-0.5.41-2.24,1.91-2.24,1.91s-1.33.75-.5,1a48.28,48.28,0,0,0,5.55.25s5.31-.41,8.54-3a32.86,32.86,0,0,0,5.8-6.38l-1.08,4.72a16.26,16.26,0,0,1-6.13,7.63c-4.48,2.82-12.93,7.79-24.78,2.65a24.54,24.54,0,0,1-14.09-16.33,19,19,0,0,1-.83-4.89c0.17-1.49-.66-3.32.91-3.32,0,0,0-2.49.83-3.32l0.41-1.74s0.58-4.23,3.48-6.63c0,0,1.57-1.91,1.91-2.16a2.49,2.49,0,0,0,.5-1.16l2-1.91,1.08-.17a24.62,24.62,0,0,1,3.48-2c0.58-.08,2.32-4,8.79-3.81h0Z" transform="translate(-357.15 -257.24)"/><path class="cls-1" d="M400.49,307.54a10.63,10.63,0,0,1-5.72-2.16,8.72,8.72,0,0,1-2.82-3,6.16,6.16,0,0,0,4,.25,13.78,13.78,0,0,0,2.82-1.74,1.34,1.34,0,0,0,.33-1.41,28.58,28.58,0,0,1-.25-3.15,10.38,10.38,0,0,0-.33-2.15l-0.75,1.66-0.25-.58a9.07,9.07,0,0,1-.5-2.15c-0.08-.66-0.5-2.07-0.66-2.9s-0.5-2.9-.5-2.9-1.08-4.06-1.16-4.31a1.41,1.41,0,0,1,.17-0.75,4.1,4.1,0,0,0,1.41,1.82,4.84,4.84,0,0,0,2.07.75,30.4,30.4,0,0,1-3.4-4,21.84,21.84,0,0,1-1.57-4.89,1.16,1.16,0,0,1,.17-1.24l0.5,0.91,1.41,0.25c-1.66-5.47-.91-7.29-0.75-8a15.34,15.34,0,0,1,1.82-2.74l-0.75.08a11.55,11.55,0,0,0-3.65,2s-1.91,1.33-2,2.9-1.41,2.49-2.07,3.32a24.41,24.41,0,0,0-2.49,4.72,11.62,11.62,0,0,0-.25,6.3,11.08,11.08,0,0,0,2.4,4.06c0.58,0.58.25,0.66-.5,0.41a7.36,7.36,0,0,1-2.74-1.66c-0.66-.75-0.66-0.25-0.66.17a29,29,0,0,0,1.82,4.14c0.33,0.58-.25.33-0.83-0.17a22.71,22.71,0,0,1-1.74-1.91,22,22,0,0,0,.91,2.32,56.08,56.08,0,0,0,3.9,5.8s3.07,1.91-.08,1.08a16.24,16.24,0,0,1-4.81-2l1.08,2s4.72,6.47,9,8.37a24.07,24.07,0,0,0,10.28,1.74,29.36,29.36,0,0,0,5.31-.91,61,61,0,0,1-8.21-.42h0Zm-5.39-10.11c0.75-1.49,1.66-.41,1.82.83s0.25,2.32.25,2.32c-1.58-4.14-1.41-.75-1.41-0.75-2-.33-0.66-2.4-0.66-2.4h0Zm-2.82-28.93a8.5,8.5,0,0,1,1.16-1.49s1.74-1.16,1.49-.83-1.66,3.32-1.66,3.32h-0.41l-1.33,1.24s0.66-1.91.75-2.24h0Zm-0.91,7.29a2.41,2.41,0,0,1,.66-0.91,8.69,8.69,0,0,0,.17,2.74,11.83,11.83,0,0,0,1.49,3.23,1.89,1.89,0,0,1-1.41-.33,2.78,2.78,0,0,1-1.33-2.07,11.8,11.8,0,0,1,.41-2.65h0ZM389,278a5.38,5.38,0,0,1,.91-2.24,5.44,5.44,0,0,0-.25,3.07,9.18,9.18,0,0,0,1.82,3.32,0.92,0.92,0,0,0,.58-0.08l0.91,0.75,0.75,2.73a11.79,11.79,0,0,1-3.15-2.65A7.63,7.63,0,0,1,389,278h0Zm0.17,16.41c-1-1.66-2.32-4.06-2.32-4.06l2.57,0.58s3.15,7.13,3.4,7.29a0.83,0.83,0,0,1,.08.75l-0.5-.33a40.3,40.3,0,0,1-3.23-4.23h0Z" transform="translate(-357.15 -257.24)"/><path class="cls-2" d="M385,272.48s-0.75,1.24-.33,1.74c0,0,2.49-3,4-3.48a22.4,22.4,0,0,0-4.48,6.55,26,26,0,0,0-1.33,10.36s-1.74-4.56-.75-7.87c0,0-2.16,2-1.49,7s4.56,9.62,4.56,9.62a17,17,0,0,1-3.23-2.16,11.83,11.83,0,0,1-1.82-2.74,21.25,21.25,0,0,0,4.89,11.6,21.82,21.82,0,0,0,14.09,7.71c3.9,0.58,10.53-.33,16.41-4.23,0,0-6.05,5.22-14.09,5.39a24.14,24.14,0,0,1-17.74-7.38c-3-3.4-7.21-10.36-6.38-16,0,0,.33,4.39,2.16,6.38,0,0-1.74-7.38-1.58-10.36s1.66-6.05,2.57-6.71c0,0-1.41,3.07-.83,4.48,0,0,1.41-4.31,2.49-5.22a3.09,3.09,0,0,0,1.16-2.07,4.88,4.88,0,0,1,1.74-2.65h0Z" transform="translate(-357.15 -257.24)"/><path class="cls-2" d="M394.19,294.69l-0.16-4a6.7,6.7,0,0,0-.17-2,7.3,7.3,0,0,1,0-2.4l0.5,1.24a7.5,7.5,0,0,1,.17,1.08,5.94,5.94,0,0,0,.58,2.16,35.2,35.2,0,0,1,1.16,4.31,2.12,2.12,0,0,0-2.07-.41h0Z" transform="translate(-357.15 -257.24)"/><path class="cls-2" d="M394.61,298.34a6.64,6.64,0,0,1,.41-1.91c0.25-.25,1.24-1.08,1.82.08a5.2,5.2,0,0,1,.41,3.73s-0.33-5.72-2.65-1.91h0Z" transform="translate(-357.15 -257.24)"/><path class="cls-2" d="M403.14,270.9l0.91,1.41a1.88,1.88,0,0,1,1.24-1.41,6.88,6.88,0,0,1,2.65-.41,7.71,7.71,0,0,0-2.65-.33,9.2,9.2,0,0,0-2.16.75h0Z" transform="translate(-357.15 -257.24)"/><path class="cls-2" d="M401.32,276.21a9.79,9.79,0,0,0,1.24-2.49l0.42-1.24,0.17,1.16a28.76,28.76,0,0,1,.17,4.23,18.31,18.31,0,0,1-.58,4.14,8.65,8.65,0,0,1-1.33,2.4,16.48,16.48,0,0,0,1-4.72c0.41-3.56.16-3.56,0.16-3.56a11.76,11.76,0,0,1-1.49,2.82,12.15,12.15,0,0,0-.75-2.65,5.75,5.75,0,0,0-1.66-1.91s0.66,1.91,1.16,4a27.69,27.69,0,0,1,.33,5.8s-0.83-3.32-1.91-7.21a30.07,30.07,0,0,0-2.57-6.47,30.58,30.58,0,0,1,3.48,2.74,30.48,30.48,0,0,1,2.16,3h0Z" transform="translate(-357.15 -257.24)"/><path class="cls-2" d="M393.61,275s1.91,3.07,1.16-3.48c0,0,1.66,6,1.74,6.13s0.33,1.16-.33.58a35,35,0,0,1-2.57-3.23h0Z" transform="translate(-357.15 -257.24)"/><path class="cls-2" d="M404.55,279.94s-0.17-1.33.08-.75a8.71,8.71,0,0,1,.25,3.73,7.56,7.56,0,0,1-2,2.74s-0.08.08,0.25-.66a11.53,11.53,0,0,0,.83-2.4c0.25-1.08.58-2.65,0.58-2.65h0Z" transform="translate(-357.15 -257.24)"/><path class="cls-2" d="M400.33,305.05l3.56-2.73a1.45,1.45,0,0,0,.08-0.83c-0.08-.5-1.66-5.89-1.66-5.89a0.87,0.87,0,0,1-.08-0.83,2.46,2.46,0,0,0,.25-1.58,3.17,3.17,0,0,1,.25-1.57,5.72,5.72,0,0,0,.42-2.15c0-.83-0.17-2.24-0.17-2.24s-0.5,1.91-.58,2.65a8.52,8.52,0,0,0-.41,2.49,2.63,2.63,0,0,1-.41,1.82,1.52,1.52,0,0,0-.08,1.33c0.33,0.58,1.57,5.55,1.57,5.55a0.91,0.91,0,0,1-.17,1.08c-0.5.5-2.57,2.9-2.57,2.9h0Z" transform="translate(-357.15 -257.24)"/><path d="M384.06,266.63l1-.81a2.21,2.21,0,0,1,.52-0.34,1,1,0,0,1,.42-0.09,0.76,0.76,0,0,1,.36.09,1,1,0,0,1,.28.24,0.88,0.88,0,0,1,.21.42,0.85,0.85,0,0,1,0,.39,1.09,1.09,0,0,1-.21.36,3,3,0,0,1-.37.36l-1,.81-1.18-1.44h0Zm0.94-.22,0.65,0.79,0.16-.13a1.29,1.29,0,0,0,.27-0.27,0.34,0.34,0,0,0,0-.22,0.62,0.62,0,0,0-.15-0.29,0.48,0.48,0,0,0-.37-0.22,0.82,0.82,0,0,0-.44.22l-0.17.14h0Z" transform="translate(-357.15 -257.24)"/><path d="M391.69,263.73l-0.9.37v0.34l-0.82.34,0.26-2.12,0.88-.36,1.68,1.32-0.84.35-0.25-.23h0Zm-0.32-.3-0.54-.5,0,0.74,0.56-.23h0Z" transform="translate(-357.15 -257.24)"/><polygon points="38.78 3.73 39.64 3.63 39.8 5.03 41.15 4.87 41.2 5.33 39 5.58 38.78 3.73"/><polygon points="45.07 3.55 45.93 3.68 45.73 5.07 47.06 5.26 47 5.71 44.81 5.4 45.07 3.55"/><path d="M409.29,264.36l-0.89-.4-0.25.22-0.81-.36,1.72-1.27,0.87,0.39,0.19,2.13-0.83-.37v-0.34h0Zm0-.44v-0.74l-0.55.49,0.56,0.25h0Z" transform="translate(-357.15 -257.24)"/><path d="M413.29,266.41l0.64,0.52a0.34,0.34,0,0,0-.05.22,0.57,0.57,0,0,0,.21.34,0.58,0.58,0,0,0,.25.14,0.16,0.16,0,0,0,.16,0,0.16,0.16,0,0,0,0-.16,1.48,1.48,0,0,0-.26-0.37,2.47,2.47,0,0,1-.46-0.71,0.42,0.42,0,0,1,.05-0.43,0.39,0.39,0,0,1,.27-0.12,0.85,0.85,0,0,1,.41.1,2.61,2.61,0,0,1,.57.4,2,2,0,0,1,.53.64,0.56,0.56,0,0,1,0,.54L415,267a0.28,0.28,0,0,0,0-.23,0.59,0.59,0,0,0-.18-0.23,0.48,0.48,0,0,0-.2-0.12,0.12,0.12,0,0,0-.13,0,0.1,0.1,0,0,0,0,.1,0.9,0.9,0,0,0,.17.24,5.1,5.1,0,0,1,.5.66,0.83,0.83,0,0,1,.13.39,0.4,0.4,0,0,1-.1.28,0.46,0.46,0,0,1-.33.15,0.93,0.93,0,0,1-.46-0.1,2.45,2.45,0,0,1-.56-0.39,1.89,1.89,0,0,1-.62-0.79,0.65,0.65,0,0,1,.07-0.56h0Z" transform="translate(-357.15 -257.24)"/><path class="cls-1" d="M364.25,308.46l7.95,21.36,3.2-.94h0l3.1-.83,0,0.07,3.82-.79-0.21-.74c-0.11-.4-2.75-9.91-3.49-12.14a7.09,7.09,0,0,0-3.72-3.75l0,0h0c-0.85-.25-2.31-0.7-2.59-0.81a1.31,1.31,0,0,0-1.17,0c-0.42-.27-1-0.59-1-0.64l-0.06,0L363.71,307l0.54,1.45h0Z" transform="translate(-357.15 -257.24)"/><path class="cls-1" d="M378.15,312.44l3.73,14.9,3.1-.5,0,0.08,3.17-.56-0.14-.72c-0.06-.33-1.58-8.15-2-10-0.5-2.29-3.11-3.15-3.22-3.19h0l-4.91-1.09,0.28,1.14h0Zm1.69,0.78,2.55,0.57c0.23,0.08,1.93.73,2.22,2.11,0.34,1.54,1.45,7.26,1.85,9.29l-0.36.06-1.11-5-2.87-.18,1.46,5.5-0.63.1-3.12-12.48h0Z" transform="translate(-357.15 -257.24)"/><path class="cls-1" d="M381.7,313.45c-0.82.26-.77,1.32-0.75,1.67v0.07l1.31,5.34H385l-0.11-.82c-0.09-.65-0.55-3.94-1.18-4.94-0.47-.74-1.2-1.58-2-1.32h0Zm0.9,2.38a14.81,14.81,0,0,1,.53,2.16l-0.53-2.16h0Z" transform="translate(-357.15 -257.24)"/><path class="cls-1" d="M385.38,313.9h0c0.16,0.54,1.86,9.61,2,10.91a1.8,1.8,0,0,0,.77,1.38,1.23,1.23,0,0,0,.86.15,14.8,14.8,0,0,0,3.36-.36,2.49,2.49,0,0,0,1.44-2.6,4.66,4.66,0,0,0-.12-1.08h0c-0.1-.51-0.15-5-0.15-8v-0.7l-4-.12v-0.06l-4.6-.66,0.35,1.11h0Zm3.48,10.69c-0.11-.78-1.32-7.38-1.86-10.06l1.31,0.19c0.21,1.93.88,8.16,1,9.09a1.59,1.59,0,0,0,.55,1l-0.91,0h0a1.29,1.29,0,0,1-.07-0.29h0Zm1.57-3.79c0.07,0.56.13,1.05,0.17,1.46,0-.43-0.11-0.93-0.17-1.46h0Zm1.66,2.85a2,2,0,0,0,0-.33c0-1.46-.68-6-1-8.32l1.08,0c0,2.26,0,7,.19,7.6a3.14,3.14,0,0,1,.08.72,1.33,1.33,0,0,1-.42,1.23l-0.39.09a2,2,0,0,0,.49-1h0Z" transform="translate(-357.15 -257.24)"/><path class="cls-1" d="M393.3,316.66v0l0.27,9.41h0.7c0.09,0,2.11,0,3.29-.08,1.56-.11,2.43-2,2.52-2.26l0.05-.12,0.13-2.47h-0.2v-1.54h0.15l0.11-5.64-0.71,0s-1.94-.08-3.76-0.08a2.62,2.62,0,0,0-2.55,2.8h0Zm2.55-1.35h0.27a1.5,1.5,0,0,0-.28.18,1.55,1.55,0,0,0-.54,1.25v3.17h-0.08v4.72H395l-0.23-8a1.22,1.22,0,0,1,1.1-1.35h0Zm2.3,0.52v-0.48l0.69,0c0,0.79,0,2-.05,2.81h-0.64v-2.34h0ZM397,321.36l-0.22,1.84a0.48,0.48,0,0,1-.12.32h0v-2.17H397Zm1.73,1.24q0,0.5,0,.67a3.16,3.16,0,0,1-.88,1.13,2,2,0,0,0,.41-1l0.09-.77h0.42Z" transform="translate(-357.15 -257.24)"/><path class="cls-1" d="M405,313.7l-5.07.19-0.38,11.84,3,0.1h3.2l0.13-.57a22.16,22.16,0,0,0,.51-3.72,3.15,3.15,0,0,0-.28-1.41,4.24,4.24,0,0,0,.75-1.47v-0.1a25.76,25.76,0,0,0,.19-2.6c0-.19,0-0.37,0-0.53a2,2,0,0,0-2-1.74H405Zm0,1.45a0.66,0.66,0,0,1,.63.41c0,0.12,0,.26,0,0.41a23.2,23.2,0,0,1-.17,2.36,2,2,0,0,1-.66,1.06l-1.71.76a2.89,2.89,0,0,0-.65-0.07H401.8l-0.25,4.27-0.48,0c0-1.16.25-8,.29-9l3.67-.14h0Zm-0.58,6.47v-0.07a1.4,1.4,0,0,0-.63-1.12l1,0.29a1.49,1.49,0,0,1,.16.83,17.57,17.57,0,0,1-.36,2.84h-0.44c0.09-1,.26-2.77.26-2.77h0Z" transform="translate(-357.15 -257.24)"/><path class="cls-1" d="M402.49,314.9l-0.46.16-0.22,5.07,0.68,0.07a2.09,2.09,0,0,0,1.95-.53,1.07,1.07,0,0,0,.2-0.63,1,1,0,0,0,0-.16,23.08,23.08,0,0,0,.24-2.72,1.35,1.35,0,0,0-.55-1.15,2.17,2.17,0,0,0-1.82-.11h0Z" transform="translate(-357.15 -257.24)"/><path class="cls-1" d="M410.23,313.45l-3.25.2L405.48,326,409,326.2l2.17-12.81-0.91.06h0Zm-0.82,1.5-1.65,9.74-0.65,0,1.16-9.63,1.14-.07h0Z" transform="translate(-357.15 -257.24)"/><path class="cls-1" d="M417.84,312.13l-4.78.92-0.05,0a4.16,4.16,0,0,0-2.44,2.65c-0.42,1.58-1.7,8.46-1.75,8.76a1.49,1.49,0,0,0,.93,1.82,18.5,18.5,0,0,0,2.74.28h0.06a3.41,3.41,0,0,0,3-2.22c0.58-1.67,1-3.22,1-3.29l0.21-.76-3.77.06c0.07-.32,0,0.18,0-0.15l3.79-.12,2.2-8.18-1.14.22h0Zm-4.29,2.3a6.71,6.71,0,0,0-1.1,1.64l0,0.09,0,0.1c-0.61,2.81-1.56,7.1-1.64,7.4v0a1.07,1.07,0,0,0-.05.34,1.53,1.53,0,0,0,.43,1l0,0a8.77,8.77,0,0,1-.93-0.11s0,0,0-.06a0.78,0.78,0,0,1,0-.12c0-.07,1.33-7.12,1.73-8.65a2.68,2.68,0,0,1,1.5-1.64l0.08,0h0Zm3.42-.66-1.12,4.08-1,0,0.6-2.34v0a1.58,1.58,0,0,0,0-.23,1.26,1.26,0,0,0-.58-1.11l2.07-.4h0Zm-2.12,7.9c-0.17.59-.42,1.39-0.7,2.2a1.9,1.9,0,0,1-1.46,1.23,3.16,3.16,0,0,0,.93-1.52v0l0.46-1.83,0.77-.06h0Z" transform="translate(-357.15 -257.24)"/><path class="cls-1" d="M425.23,310.5l-2.79.85,0-.06-3.89.86-4.27,14.62,2.93,0.41v0l3.23,0.62,0.21-.58c0.05-.15,1.33-3.67,1.75-4.91a3.06,3.06,0,0,0,.16-1,2.92,2.92,0,0,0-.21-1.09,7.67,7.67,0,0,0,1.3-1.59l0-.07,2.88-8.54-1.34.41h0Zm-4.93,2.75-2.14,6.64h0l-1.72,5.72-0.32,0,3.56-12.19,0.59-.13h0Zm4-1L422.38,318a4.79,4.79,0,0,1-1.19,1.36l-0.43.13a2,2,0,0,0,.71-0.89c0.37-.88,1.48-4.76,1.83-6l1-.31h0Zm-4.08,7.48,0.61,0.76a1.4,1.4,0,0,1,.28.85,1.67,1.67,0,0,1-.09.52c-0.31.92-1.13,3.21-1.52,4.29L419,326.1l1.18-4.1a1.49,1.49,0,0,0,.2-0.72,1.2,1.2,0,0,0-.1-0.48,1.66,1.66,0,0,0-1.41-.86h0.18a2.75,2.75,0,0,0,1.13-.18h0Z" transform="translate(-357.15 -257.24)"/><path class="cls-1" d="M433.56,307.69l-4.88,1.85-0.07,0c-0.45.3-2.72,1.87-3.19,3.28-0.41,1.21-2.79,7.54-2.81,7.6l-0.36,1h0.15l-1.7,4.68a2.23,2.23,0,0,0-.18.84,1.37,1.37,0,0,0,.17.68,1.28,1.28,0,0,0,1,.61c0.93,0.08,1.85.09,1.89,0.09h0.09a4.87,4.87,0,0,0,3.35-2.18c0.93-1.61,3-7,3-7.24l0.38-1h-0.05l4.75-10.81-1.61.61h0Zm-1.1,2-3,6.87-0.69,0,1.2-3.09V313.4a2.73,2.73,0,0,0,.06-0.53,1.13,1.13,0,0,0-.31-0.85,0.86,0.86,0,0,0-.8-0.21,2.72,2.72,0,0,0-1.08.69l-0.09.09-0.06.12a46.7,46.7,0,0,0-2.13,5.34,1.27,1.27,0,0,0,.33,1.17,0.91,0.91,0,0,0,.81.21l-0.16,0,1.82-.05a64.35,64.35,0,0,1-2.55,6,3.41,3.41,0,0,1-2.25,1.46c-0.19,0-.87,0-1.57-0.07a1,1,0,0,1,.05-0.15v-0.05l1.48-4.08h0.14c-0.38.9-.89,2.12-1,2.44a2,2,0,0,0-.11.63,1.15,1.15,0,0,0,.21.69,1.17,1.17,0,0,0,1,.46,1.85,1.85,0,0,0,1.49-1.18v0l2.12-5.45-3.08-.08c0.69-1.83,2.15-5.74,2.47-6.7a8,8,0,0,1,2.55-2.49l3.11-1.18h0Z" transform="translate(-357.15 -257.24)"/><polygon class="cls-1" points="26.35 60.83 25.19 60.83 25.19 58.34 26.35 58.34 26.35 60.83"/><polygon class="cls-1" points="39.94 66.55 39.36 66.55 39.36 63.81 39.94 63.81 39.94 66.55"/><polygon class="cls-1" points="65.72 63.65 65.14 63.65 65.14 62.66 65.72 62.66 65.72 63.65"/><polygon class="cls-1" points="59.59 63.4 55.69 63.4 55.69 62.74 59.59 62.74 59.59 63.4"/><path d="M372.64,328.93l-7.71-20.72,4.72,1.66a5.9,5.9,0,0,1,1.33.83,2.11,2.11,0,0,1,.42.58v-0.75a0.54,0.54,0,0,1,.58,0c0.41,0.17,2.65.83,2.65,0.83a6.4,6.4,0,0,1,3.32,3.32c0.75,2.24,3.48,12.1,3.48,12.1l-2.4.5-3.56-12.43s-0.91-2.07-1.41-1.91,0,1.41,0,1.41l4,13.08-2.16.58s-4.64-14.57-5.06-15.06c0,0-.62-1.36-1.33-1.33-0.5,0-.17.41,0,1S375,328.24,375,328.24l-2.32.68h0Z" transform="translate(-357.15 -257.24)"/><path d="M385.55,326.09l1.76-.31s-1.58-8.12-2-10-2.74-2.65-2.74-2.65l-3.73-.83,3.56,14.26,2.07-.33-1.41-5.3,1.33,0.08,1.14,5.12h0Zm-2.71-6.28-1.16-4.73c-0.08-1.66.83-.83,1.41,0.08s1.08,4.64,1.08,4.64h-1.33Z" transform="translate(-357.15 -257.24)"/><path d="M386.07,313.67l2.9,0.42s0.91,8.54,1.08,9.61,1.16,0.83,1.33-.16-1.16-9.28-1.16-9.28l2.65,0.08s0,7.46.17,8.12,0.25,2.49-.83,2.82a15,15,0,0,1-3.23.33s-0.66.25-.83-0.91-1.91-10.53-2.07-11h0Z" transform="translate(-357.15 -257.24)"/><path d="M399.58,314.67l-0.08,4.23h-2.07v-3.07s-1.41-.25-1.41.91v3.07h3.32v0.83h-3.4v3.56a1.11,1.11,0,0,0,1.58-.91l0.17-1.41h1.82l-0.08,1.58s-0.75,1.74-1.91,1.82-3.23.08-3.23,0.08l-0.25-8.7s0-2.07,1.82-2.07,3.73,0.08,3.73.08h0Z" transform="translate(-357.15 -257.24)"/><path d="M406.21,318.48a20.27,20.27,0,0,0,.17-3,1.39,1.39,0,0,0-1.33-1.08l-4.39.17L400.33,325l1.91,0.06,0.25-4.29c1.24,0,1.24.75,1.24,0.75l-0.33,3.56h1.82a21.8,21.8,0,0,0,.5-3.56c0-1.33-.58-1.49-0.58-1.49a2.71,2.71,0,0,0,1.08-1.57h0Zm-3.65,1,0.16-3.9s1.41-.5,1.41.58a23.65,23.65,0,0,1-.25,2.73s0.33,0.75-1.33.58h0Z" transform="translate(-357.15 -257.24)"/><polygon points="50.47 57.1 53.13 56.94 51.22 68.21 49.15 68.11 50.47 57.1"/><path d="M413.92,318.65l2.49-.08,1.58-5.72-4.72.91a3.43,3.43,0,0,0-2,2.16c-0.41,1.58-1.74,8.7-1.74,8.7a0.86,0.86,0,0,0,.41,1,19.72,19.72,0,0,0,2.57.25,2.7,2.7,0,0,0,2.32-1.74c0.58-1.66,1-3.23,1-3.23l-2.32.17-0.58,2.32a2.28,2.28,0,0,1-.83,1.24c-0.5.17-.75-0.5-0.66-0.75s1.66-7.46,1.66-7.46,0.91-1.74,1.33-1.66a0.58,0.58,0,0,1,.33.66l-0.83,3.23h0Z" transform="translate(-357.15 -257.24)"/><path d="M419.14,312.76l2.24-.5-2.24,7a1.74,1.74,0,0,0,1.66-.91c0.41-1,1.91-6.3,1.91-6.3l2.74-.83-2.4,7.13s-1,1.58-1.66,1.74a2.16,2.16,0,0,1,.33,2.07C421.3,323.37,420,327,420,327l-1.84-.35,1.43-5s0.66-.91-0.83-1.08L417,326.42l-1.76-.25,3.92-13.41h0Z" transform="translate(-357.15 -257.24)"/><path d="M427.68,317.32l2.24-.08,3.9-8.87L429,310.19s-2.49,1.66-2.9,2.9-2.82,7.63-2.82,7.63l3.07,0.08-1.74,4.48a1.24,1.24,0,0,1-.83.75c-0.5,0-.58-0.33-0.42-0.83s1.41-3.4,1.41-3.4H423l-1.66,4.56s-0.5,1.08.41,1.16,1.82,0.08,1.82.08a4.15,4.15,0,0,0,2.82-1.82c0.91-1.58,3-7.13,3-7.13l-2.9.08s-0.33.08-.25-0.58,2.07-5.14,2.07-5.14a2.17,2.17,0,0,1,.75-0.5c0.33-.08.17,0.75,0.17,0.75l-1.57,4.06h0Z" transform="translate(-357.15 -257.24)"/><path class="cls-1" d="M399.43,332.35l-2.78,2,1.17-3c-0.66-1.1-3.62-1.83-3.62-1.83,0.73-.22,4.35-0.59,4.35-0.59,0.15-.58.88-2.6,0.88-2.6s0.73,2,.88,2.6c0,0,3.62.37,4.35,0.59,0,0-3,.73-3.62,1.83l1.17,3-2.78-2h0Z" transform="translate(-357.15 -257.24)"/><path d="M399.16,326.26c0,0.07-.61,1.69-0.83,2.43-0.77.08-3.55,0.38-4.21,0.58l-1,.3,1,0.26c0.76,0.19,2.76.82,3.36,1.59L396,335.17l3.41-2.46,3.41,2.46-1.47-3.77c0.6-.77,2.61-1.4,3.36-1.59l1-.26-1-.3c-0.66-.2-3.44-0.49-4.21-0.58-0.22-.74-0.8-2.35-0.83-2.43l-0.27-.75-0.27.75h0Zm-0.58,3,0.2,0,0-.2c0.08-.34.37-1.18,0.6-1.81,0.22,0.63.51,1.47,0.6,1.81l0,0.2,0.2,0c0.66,0.07,2.09.22,3.14,0.37a5.32,5.32,0,0,0-2.62,1.61l-0.07.12,0.86,2.21L399.43,332l-2.15,1.55,0.86-2.21-0.07-.12a5.32,5.32,0,0,0-2.62-1.61c1-.15,2.47-0.3,3.14-0.37h0Z" transform="translate(-357.15 -257.24)"/></svg>