<svg id="Layer_1" data-name="Layer 1" xmlns="http://www.w3.org/2000/svg" viewBox="0 0 79.77 55.14"><defs><style>.cls-1{fill:#4b90cd;}.cls-2,.cls-5,.cls-7{fill:none;}.cls-2{stroke:#fdb827;stroke-width:0.87px;}.cls-3{fill:#002d62;}.cls-4{fill:#fff;}.cls-5{stroke:#000;stroke-width:0.12px;}.cls-6{fill:#fdb827;}.cls-7{stroke:#fff;stroke-width:0.75px;}</style></defs><title>denver-nuggets</title><path class="cls-1" d="M378.82,286.61c5.85-3.61,9.24-3.65,9.24-3.65l0.25,0.29,13-10.82L413.87,283l0.43-.42a22.44,22.44,0,0,1,7.59,3.14,56.26,56.26,0,0,1,9.57,7.51h-2.93l2.06,2.56-0.13.56a31.33,31.33,0,0,1,4.51.22,7.77,7.77,0,0,1,2.54,1.14l1.74-.6v12.21h-4.8a16.1,16.1,0,0,1,2.88,2.15A7.4,7.4,0,0,1,438.4,313a5.94,5.94,0,0,1,.72,2.91v6.41a6.76,6.76,0,0,1-.73,2.56,5.3,5.3,0,0,1-2.76,2.34,8.35,8.35,0,0,1-4.58,0,9.07,9.07,0,0,1-1.79-1l-1,.91-2.4-1.3v1.65h-7.68l-2.31-1.81v1.81H405.23s-0.82-1-1.25-1.65a6.69,6.69,0,0,1-2.85,1.59,7.55,7.55,0,0,1-2.38,0,5.22,5.22,0,0,1-2.36-1.07,13.91,13.91,0,0,1-1.5-1.55,27.56,27.56,0,0,1-4.32,2.55,7,7,0,0,1-3.6-.17,10.18,10.18,0,0,1-2.89-2.41s-3.45,2.45-4.5,2.67a5.83,5.83,0,0,1-3.16-.16,6.6,6.6,0,0,1-2-1.3c-1,.6-2.43,1.49-2.43,1.49h-4.69l-0.25-.29-0.49.29h-6.32v-6.17a0.79,0.79,0,0,0,.79-0.73v-17a0.82,0.82,0,0,0-.86-0.71v-6.27h12.26l-0.82-1.71,1.54-1.63h-2.61a50.35,50.35,0,0,1,8.34-6.64" transform="translate(-360.11 -272.43)"/><path class="cls-2" d="M429.26,295.83a33.28,33.28,0,0,0-6.61-6.33c-4.68-3.58-7.85-5.63-7.85-5.63l-0.82.79,0.82-.79s3,0.45,7.47,3.42a62.64,62.64,0,0,1,6.41,4.82h-2.92M372.82,295a53.91,53.91,0,0,1,6.33-5.5c3.08-2.17,8.26-5.5,8.26-5.5l0.74,0.79L387.4,284a24.84,24.84,0,0,0-9,4.08c-4.79,3.3-5.29,4.08-5.29,4.08h2.73" transform="translate(-360.11 -272.43)"/><polygon class="cls-3" points="41.13 1.23 16.98 20.94 66.27 22.28 41.13 1.23"/><polygon class="cls-4" points="29.3 11.94 41.13 2.23 53.33 12.61 45.9 9.57 45.85 12.73 42.98 10.03 41.34 14.4 39.24 9.9 36.82 11.73 35.96 9.32 29.3 11.94"/><path class="cls-3" d="M361.48,297.66h15s14.79-3.58,24-3.58S426,296.83,426,296.83l8,0.58,1.38,10.83h-4.85l5.61,7.08-0.9,6.92-5.34,2.17-1.68,1.29-4.44-2.08-4.6,2.88h-0.74l-4.06-3-8.7,3-2.19-3-6.66-1.25L391,326l-5.13-3.58L380,326.08l-4.6-2.75-4.07,3.17-2.79-2.33-2.75,2.33-2.55-3.42-1-23.63Z" transform="translate(-360.11 -272.43)"/><path class="cls-5" d="M361.48,297.66h15s14.79-3.58,24-3.58S426,296.83,426,296.83l8,0.58,1.38,10.83h-4.85l5.61,7.08-0.9,6.92-5.34,2.17-1.68,1.29-4.44-2.08-4.6,2.88h-0.74l-4.06-3-8.7,3-2.19-3-6.66-1.25L391,326l-5.13-3.58L380,326.08l-4.6-2.75-4.07,3.17-2.79-2.33-2.75,2.33-2.55-3.42-1-23.63Z" transform="translate(-360.11 -272.43)"/><path class="cls-6" d="M361,297.67h4.1l3.41,16,0-9.61a2.9,2.9,0,0,0-.29-1.43l-0.7-.72v-4.24h4.64v4.24s-0.41.51-.62,0.72a4.16,4.16,0,0,0-.25,1.43V326.5h-3.41l-3.25-15.63v8.88a7.17,7.17,0,0,0,.37,1.58,3.42,3.42,0,0,0,.74.79v4.38H361v-4.38a3.53,3.53,0,0,0,.65-0.5,3.23,3.23,0,0,0,.33-1.42V304.06a6.12,6.12,0,0,0-.37-1.43,4.81,4.81,0,0,0-.61-0.72v-4.24Z" transform="translate(-360.11 -272.43)"/><path class="cls-7" d="M361,297.67h4.1l3.41,16,0-9.61a2.9,2.9,0,0,0-.29-1.43l-0.7-.72v-4.24h4.64v4.24s-0.41.51-.62,0.72a4.16,4.16,0,0,0-.25,1.43V326.5h-3.41l-3.25-15.63v8.88a7.17,7.17,0,0,0,.37,1.58,3.42,3.42,0,0,0,.74.79v4.38H361v-4.38a3.53,3.53,0,0,0,.65-0.5,3.23,3.23,0,0,0,.33-1.42V304.06a6.12,6.12,0,0,0-.37-1.43,4.81,4.81,0,0,0-.61-0.72v-4.24Z" transform="translate(-360.11 -272.43)"/><path class="cls-6" d="M372.61,304.46v4.25a1,1,0,0,1,.58.25,2,2,0,0,1,.25,1.33v11.46s0.37,4.79,4.6,4.79,4.6-4.88,4.6-4.88V306.54a5.73,5.73,0,0,1,.21-1.92c0.25-.29.66-0.87,0.66-0.87v-4.42s-1.11.33-2.87,1.08l-2.26,1v4.38a0.65,0.65,0,0,1,.41.42v13.38s0,1.1-.76,1.1a0.85,0.85,0,0,1-.76-1.06V307.79a3.06,3.06,0,0,1,.08-1.17,4.18,4.18,0,0,0,.33-0.75v-4.21s-1.23.54-2.92,1.5-2.14,1.29-2.14,1.29" transform="translate(-360.11 -272.43)"/><path class="cls-7" d="M372.61,304.46v4.25a1,1,0,0,1,.58.25,2,2,0,0,1,.25,1.33v11.46s0.37,4.79,4.6,4.79,4.6-4.88,4.6-4.88V306.54a5.73,5.73,0,0,1,.21-1.92c0.25-.29.66-0.87,0.66-0.87v-4.42s-1.11.33-2.87,1.08l-2.26,1v4.38a0.65,0.65,0,0,1,.41.42v13.38s0,1.1-.76,1.1a0.85,0.85,0,0,1-.76-1.06V307.79a3.06,3.06,0,0,1,.08-1.17,4.18,4.18,0,0,0,.33-0.75v-4.21s-1.23.54-2.92,1.5S372.61,304.46,372.61,304.46Z" transform="translate(-360.11 -272.43)"/><path class="cls-6" d="M393.05,299.94l0.7-.39v8.8h-4v-3.56s0.12-1.08-.74-1.08a0.89,0.89,0,0,0-.9,1v14.64s-0.08,1.32.86,1.32,0.78-1.32.78-1.32v-5.09h-0.62v-3.34h4.62v11.92s-1.5,3.71-4.83,3.71-4.72-3.5-4.72-4.08V302.58s0.53-4.67,5-4.67a4.92,4.92,0,0,1,3.88,2" transform="translate(-360.11 -272.43)"/><path class="cls-7" d="M393.05,299.94l0.7-.39v8.8h-4v-3.56s0.12-1.08-.74-1.08a0.89,0.89,0,0,0-.9,1v14.64s-0.08,1.32.86,1.32,0.78-1.32.78-1.32v-5.09h-0.62v-3.34h4.62v11.92s-1.5,3.71-4.83,3.71-4.72-3.5-4.72-4.08V302.58s0.53-4.67,5-4.67A4.92,4.92,0,0,1,393.05,299.94Z" transform="translate(-360.11 -272.43)"/><path class="cls-6" d="M404.67,298.37v10h-4v-4.64s0.08-1.33-.86-1.33-0.82,1.13-.82,1.29v15.68s-0.08,1.32.86,1.32,0.86-1.32.86-1.32v-5.09H400v-3.34h4.7v11.92s-1.46,3.68-4.74,3.68c-4,0-5-4.06-5-4.06V301a4.88,4.88,0,0,1,5-4.39,5.16,5.16,0,0,1,3.93,2.14Z" transform="translate(-360.11 -272.43)"/><path class="cls-7" d="M404.67,298.37v10h-4v-4.64s0.08-1.33-.86-1.33-0.82,1.13-.82,1.29v15.68s-0.08,1.32.86,1.32,0.86-1.32.86-1.32v-5.09H400v-3.34h4.7v11.92s-1.46,3.68-4.74,3.68c-4,0-5-4.06-5-4.06V301a4.88,4.88,0,0,1,5-4.39,5.16,5.16,0,0,1,3.93,2.14Z" transform="translate(-360.11 -272.43)"/><path class="cls-6" d="M405.61,297a24.57,24.57,0,0,1,4.55.67,35.35,35.35,0,0,1,4.52,1.08v9.64h-3s0.12-3.52-.41-4.39a2.4,2.4,0,0,0-.86-0.83v7.79h2.22v3.33h-2.3v7a1.87,1.87,0,0,0,1.23-1.54,20.24,20.24,0,0,0,.13-3.25h3v10h-9.07v-4.42a1.28,1.28,0,0,0,.81-1.37V303a2,2,0,0,0-.81-1.42V297h0Z" transform="translate(-360.11 -272.43)"/><path class="cls-7" d="M405.61,297a24.58,24.58,0,0,1,4.55.67,35.38,35.38,0,0,1,4.52,1.08v9.64h-3s0.12-3.52-.41-4.39a2.4,2.4,0,0,0-.86-0.83v7.79h2.22v3.33h-2.3v7a1.87,1.87,0,0,0,1.23-1.54,20.41,20.41,0,0,0,.12-3.25h3v10h-9.07v-4.42a1.28,1.28,0,0,0,.81-1.37V303a2,2,0,0,0-.81-1.42V297h0Z" transform="translate(-360.11 -272.43)"/><path class="cls-6" d="M415.87,299a27.35,27.35,0,0,1,5.87,2.21c3.86,1.83,5.22,2.67,5.22,2.67v4.43h-2.46a4.92,4.92,0,0,0-.16-1.52,2.69,2.69,0,0,0-.82-1.17v14.13a3.21,3.21,0,0,0,.33,1.46,5.55,5.55,0,0,0,.7.79v4.46h-6.16v-4.38a1.9,1.9,0,0,0,.7-0.58,7.11,7.11,0,0,0,.45-1.71V305a1.5,1.5,0,0,0-.94,1.51v1.85h-2.71V299Z" transform="translate(-360.11 -272.43)"/><path class="cls-7" d="M415.87,299a27.35,27.35,0,0,1,5.87,2.21c3.86,1.83,5.22,2.67,5.22,2.67v4.43h-2.46a4.92,4.92,0,0,0-.16-1.52,2.69,2.69,0,0,0-.82-1.17v14.13a3.21,3.21,0,0,0,.33,1.46,5.55,5.55,0,0,0,.7.79v4.46h-6.16v-4.38a1.9,1.9,0,0,0,.7-0.58,7.11,7.11,0,0,0,.45-1.71V305a1.5,1.5,0,0,0-.94,1.51v1.85h-2.71V299Z" transform="translate(-360.11 -272.43)"/><path class="cls-6" d="M437.14,298.87l0.95-.37v9.75h-3.82v-4s0-1.71-1.19-1.71-1.07,1.71-1.07,1.71v3.55a2.65,2.65,0,0,0,1.19,1.91,31,31,0,0,1,3.74,2.88A4.91,4.91,0,0,1,438,315v7.79c0,0.38-.74,3.67-4.93,3.67a6.49,6.49,0,0,1-3.9-1.58l-1,.79v-8.54h3.78v2.77a1.14,1.14,0,1,0,2.22,0V316.5a2.79,2.79,0,0,0-.82-1.62,24.65,24.65,0,0,1-4.11-3,5.41,5.41,0,0,1-1.11-3.21v-6.54A5,5,0,0,1,429.3,299a5.52,5.52,0,0,1,4.07-1.58,5.22,5.22,0,0,1,3.78,1.5" transform="translate(-360.11 -272.43)"/><path class="cls-7" d="M437.14,298.87l0.95-.37v9.75h-3.82v-4s0-1.71-1.19-1.71-1.07,1.71-1.07,1.71v3.55a2.65,2.65,0,0,0,1.19,1.91,31,31,0,0,1,3.74,2.88A4.91,4.91,0,0,1,438,315v7.79c0,0.38-.74,3.67-4.93,3.67a6.49,6.49,0,0,1-3.9-1.58l-1,.79v-8.54h3.78v2.77a1.14,1.14,0,1,0,2.22,0V316.5a2.79,2.79,0,0,0-.82-1.62,24.65,24.65,0,0,1-4.11-3,5.41,5.41,0,0,1-1.11-3.21v-6.54A5,5,0,0,1,429.3,299a5.52,5.52,0,0,1,4.07-1.58A5.22,5.22,0,0,1,437.14,298.87Z" transform="translate(-360.11 -272.43)"/><path class="cls-1" d="M372.82,295a61.55,61.55,0,0,1,27.73-6.5,62.6,62.6,0,0,1,28.71,7.33l-3.82,5.67a50.89,50.89,0,0,0-24.89-6.21c-14.91,0-24.15,5.54-24.15,5.54L372.82,295" transform="translate(-360.11 -272.43)"/><path class="cls-2" d="M372.82,295a61.55,61.55,0,0,1,27.73-6.5,62.6,62.6,0,0,1,28.71,7.33l-3.82,5.67a50.89,50.89,0,0,0-24.89-6.21c-14.91,0-24.15,5.54-24.15,5.54L372.82,295" transform="translate(-360.11 -272.43)"/><path class="cls-4" d="M379.93,297l1.16-.4a1.2,1.2,0,0,0,1-1.59,1.18,1.18,0,0,0-1.74-.65l-1.16.4Zm-2.35-2.45c0-.07-0.07-0.11-0.3-0.05l0-.09,3-1c1.68-.58,2.76,0,3.15,1.18s-0.19,2.33-1.89,2.92l-2.94,1,0-.09c0.22-.09.23-0.16,0.21-0.23Z" transform="translate(-360.11 -272.43)"/><path class="cls-4" d="M390.27,293.6l-0.11,0a0.25,0.25,0,0,0-.32-0.13l-1.76.36,0.15,0.74,3-.63c0.1,0,.13-0.07.12-0.28l0.11,0,0.28,1.39-0.11,0c-0.06-.13-0.1-0.16-0.21-0.14l-4.72,1,0-.1c0.23-.06.25-0.13,0.24-0.2l-0.75-3.73c0-.07-0.05-0.12-0.29-0.09l0-.1,4.72-1c0.1,0,.13-0.07.13-0.26l0.11,0,0.28,1.39-0.11,0c-0.06-.18-0.11-0.21-0.22-0.19l-3,.63L387.9,293l1.76-.36a0.26,0.26,0,0,0,.25-0.24l0.11,0Z" transform="translate(-360.11 -272.43)"/><path class="cls-4" d="M394.82,290.4c0-.07,0-0.13-0.28-0.13v-0.1l2.32-.13v0.1c-0.22,0-.27.07-0.26,0.12s1.76,1.5,2.47,2.08l-0.12-2.18c0-.1-0.08-0.13-0.21-0.13v-0.1l1.77-.1v0.1c-0.24,0-.27.09-0.26,0.16l0.21,3.8c0,0.07,0,.13.28,0.13v0.1l-1.83.1v-0.1c0.17,0,.22,0,0.22-0.1s-0.25-.2-2.93-2.46l0.14,2.56c0,0.07,0,.13.28,0.13v0.1l-1.83.1v-0.1c0.24,0,.27-0.09.26-0.16Z" transform="translate(-360.11 -272.43)"/><path class="cls-4" d="M405.24,294.4v-0.1c0.12,0,.15,0,0.15-0.06s-1.36-3.54-1.53-4a0.28,0.28,0,0,0-.2-0.25v-0.1l2,0.21v0.1c-0.15,0-.2,0-0.2.08s0.12,0.28,1.08,2.62a24.3,24.3,0,0,0,1.56-2.34c0-.06,0-0.08-0.13-0.1v-0.1l1.65,0.18v0.1a0.16,0.16,0,0,0-.16.09c-0.12.25-2.33,3.57-2.34,3.68s0,0.08.13,0.09v0.11Z" transform="translate(-360.11 -272.43)"/><path class="cls-4" d="M415.67,294.74l-0.11,0a0.25,0.25,0,0,0-.24-0.25l-1.74-.44-0.18.74,3,0.76c0.1,0,.15,0,0.23-0.2l0.11,0-0.34,1.38-0.11,0c0-.14,0-0.19-0.12-0.22l-4.68-1.19,0-.1c0.24,0,.28,0,0.3-0.08l0.91-3.69c0-.07,0-0.13-0.23-0.21l0-.1,4.68,1.19c0.1,0,.15,0,0.22-0.18l0.11,0-0.34,1.38-0.11,0c0-.19,0-0.24-0.11-0.26l-3-.76-0.16.66,1.74,0.44a0.25,0.25,0,0,0,.33-0.11l0.11,0Z" transform="translate(-360.11 -272.43)"/><path class="cls-4" d="M421.51,295.72l1.51,0.61c0.53,0.21.77,0.08,0.85-.14s0-.48-0.53-0.7l-1.51-.61Zm-0.81,2.08c0,0.07,0,.13.2,0.24l0,0.09-1.85-.74,0-.09c0.23,0.08.28,0,.3,0l1.38-3.54c0-.07,0-0.13-0.2-0.24l0-.09,3.29,1.32c1.33,0.53,1.74,1.16,1.4,2a1.44,1.44,0,0,1-1.77.73l0.57,1.69a0.35,0.35,0,0,0,.21.24l0,0.09-1.87-.75,0-.09c0.13,0,.22,0,0.25-0.06s-0.52-1.5-.57-1.71l-0.88-.35Z" transform="translate(-360.11 -272.43)"/><polygon class="cls-3" points="78.31 54.02 78 54.02 78 53.91 78.75 53.91 78.75 54.02 78.44 54.02 78.44 54.89 78.31 54.89 78.31 54.02"/><polygon class="cls-3" points="79.26 54.89 79 54.1 79 54.89 78.87 54.89 78.87 53.91 79.05 53.91 79.32 54.74 79.6 53.91 79.77 53.91 79.77 54.89 79.65 54.89 79.65 54.1 79.39 54.89 79.26 54.89"/></svg>