<svg id="Layer_1" data-name="Layer 1" xmlns="http://www.w3.org/2000/svg" viewBox="0 0 78.84 67.32"><defs><style>.cls-1{fill:#ed174c;}.cls-2{fill:#0067b1;}.cls-3{fill:#fff;}.cls-4{fill:#002d62;}</style></defs><title>detroit-pistons</title><path class="cls-1" d="M392.28,305.76c0,2.35-1.42,3.73-4.22,4.1h0c-1.83.17-3.32,0.33-4.83,0.52l-0.9.11,0-3.93,0-.6h0l1.7-.2,1.55-.2c0-.7,0-2.7,0-3.38a4.37,4.37,0,0,1-3.37-2.39,1.05,1.05,0,0,1,0-.11v9.38h0v1.44l-0.63.09c-1.27.18-2.58,0.38-4.07,0.63,4,2.85,10.46,5.65,20.44,6.21,0.15-2.57-1-5.27-2.73-8.08h-0.17v-0.28c-0.76-1.19-1.64-2.4-2.58-3.64v0.3h0Z" transform="translate(-360.58 -266.34)"/><path class="cls-1" d="M376,294l1-.16v-0.07c1.48-.27,2.91-0.5,4.39-0.72l0.72-.11v2a3.15,3.15,0,0,1,.91-1.51c-2.6-3.85-4.67-7.93-5.2-12.23a28.9,28.9,0,0,0-6.46,13.7l0.19,0,0.93-.21,0.12,0,0.26-.05h0l0.15,0a2.76,2.76,0,0,1,2.12.4h0l0.09,0.08h0l0.07,0.08,0,0,0.08,0.11V294.1Z" transform="translate(-360.58 -266.34)"/><path class="cls-1" d="M372,305.79l-0.11,0a19.23,19.23,0,0,0,3.51,3.93c0-2.06,0-4.12,0-6.15a5.06,5.06,0,0,1-3.38,2.19" transform="translate(-360.58 -266.34)"/><path class="cls-1" d="M375.43,311.32a21.51,21.51,0,0,1-3.52-3.53,29.07,29.07,0,0,0,13.53,17.37c3.94,0.66,7,.22,9.13-1.32a8,8,0,0,0,3-5.27c-11.06-.61-17.87-3.87-21.93-7l-0.24,0v-0.23Z" transform="translate(-360.58 -266.34)"/><path class="cls-1" d="M424.35,311.25L423,311l-0.83-.15-0.85-.13c-1.6-.26-3.24-0.49-5-0.71l-0.2,0a44,44,0,0,0-2,6.26,23.39,23.39,0,0,0,10.26-5" transform="translate(-360.58 -266.34)"/><path class="cls-1" d="M423.62,293.62c1.58,0.27,3.09.56,4.67,0.89a28.9,28.9,0,0,0-5.13-11.68,20.45,20.45,0,0,1,.21,10.77l0.26,0v0Z" transform="translate(-360.58 -266.34)"/><path class="cls-1" d="M385.6,292.52a0.11,0.11,0,0,0,0,0,0.08,0.08,0,0,1,0,0" transform="translate(-360.58 -266.34)"/><path class="cls-1" d="M404.22,289.62h-0.07a2,2,0,0,1-1.52-.81c0,0.06,0,.31,0,0.31s0,0.23,0,.35l-3.35,0q0-3,.08-6l-0.08.07a1.41,1.41,0,0,1-.43.23c0,1.67,0,3.3-.08,5h-0.22c0,0.26,0,.41,0,0.41s0,0.21,0,.32l-3.34.14s0.06-4.87.07-5.55l-0.78,0a0.08,0.08,0,0,0,0,0l-1.75.14c0,0.1,0,.19,0,0.28,0.47,0,.91-0.09,1.36-0.12,0,0.64,0,1.24,0,1.89h-0.23c0,0.14,0,.28,0,0.43s0,0.2,0,.3l-1.13.09c0,0.14,0,.29,0,0.43l2-.18c0,0.52,0,1,0,1.51l-0.23,0c0,0.23,0,.47,0,0.7l-0.39,0c-1.41.1-2.83,0.24-4.39,0.42l-0.52.06c0-.26,0-0.51,0-0.77a2.33,2.33,0,0,1-1.67,1c-1.25.18-2.46,0.38-3.78,0.64l-0.58.11s0.07-5.09.07-5.68a1.47,1.47,0,0,1-.65-0.25,1.14,1.14,0,0,1-.46-1s0-.08,0-0.12a0.13,0.13,0,0,1,0,0l0.08-.45,0.26-.05,0.81-.15h0c1.68-.33,3.29-0.61,5-0.86h0a2,2,0,0,1,1,.08v-0.21l0.35,0,0.76-.08v0c1.27-.15,2.48-0.26,3.73-0.36h0l0.39,0h0.29l0.43,0h0c1.54-.1,3-0.16,4.57-0.18h0.32a0.14,0.14,0,0,1,0,.06h0.43v-0.06c1,0,2.07,0,3.12,0-1.15-5.22-2.56-8.92-4.09-10.67a28.78,28.78,0,0,0-19.8,8.11c-0.32.31-.63,0.62-0.93,0.94,0.27,4.47,2.35,8.68,5.1,12.74a1.75,1.75,0,0,1,.4-0.13,16,16,0,0,1,2-.29h0l0.16,0c0.62-.08,3.55-0.36,5.9-0.51h0.12l0.31,0H393l1.82-.07c3-.13,5.86-0.16,8.87-0.1l0.67,0a2.72,2.72,0,0,1,0,.58v0.1a2.85,2.85,0,0,1-.2,1,4.14,4.14,0,0,1,1.09-.78q-0.16-1.51-.36-3l-0.75,0" transform="translate(-360.58 -266.34)"/><path class="cls-1" d="M389.94,297.12c0.24,0.08.47,0.15,0.67,0.23a3.15,3.15,0,0,1,.72.35,1.68,1.68,0,0,1,.9,1.31c0,0.21,0,.53,0,1s0,1.26,0,2.72v1c0.91,1.16,1.78,2.3,2.57,3.44V296.73l-2.64.11v-1a3.29,3.29,0,0,1-2.22,1l-0.58.05,0.45,0.15s0,0,.07,0" transform="translate(-360.58 -266.34)"/><path class="cls-1" d="M398.86,317.5c2.11,0.08,4.36.07,6.77-.07,0.26-2.48.41-5.18,0.46-8a3.82,3.82,0,0,1-3-3.87v-8.93a6.49,6.49,0,0,1,.07-0.91l-0.15.13,0,0a2.36,2.36,0,0,1-1,.64v12.8l-5.59.07c1.66,2.78,2.7,5.49,2.54,8.14" transform="translate(-360.58 -266.34)"/><path class="cls-1" d="M412.89,316.52a45,45,0,0,1,2.74-8.43V308a3.43,3.43,0,0,1-.55.66c-1.14,1-3,1.42-5.93,1.24-0.56,0-1.25-.1-2-0.22,0,2.69-.19,5.28-0.43,7.69a46.38,46.38,0,0,0,6.13-.84" transform="translate(-360.58 -266.34)"/><path class="cls-1" d="M422.19,293.74V293.4l0.09,0a19.65,19.65,0,0,0-1.19-13.07,28.89,28.89,0,0,0-20.16-9.28c1.71,2.48,3,6.65,3.83,10.73a1.16,1.16,0,0,1,1,.86,2.55,2.55,0,0,1,1.38-.54,3.45,3.45,0,0,1,.45,0l0.28,0a5.73,5.73,0,0,1,1.27,0,4.18,4.18,0,0,1,2,.49v-0.15l1.11,0.15v-0.16l2.07,0.28,0.34,0c0,0.06,0,.13,0,0.19l0.4,0.06v-0.19c1.54,0.23,3,.49,4.53.81l0.32,0.07a1.82,1.82,0,0,0,0,.25v0.05a0.94,0.94,0,0,1-.25.64,1.23,1.23,0,0,1-.63.87,1.29,1.29,0,0,1-.33.11c0,1.61,0,3.16-.07,4.78l-0.23,0c0,0.29,0,.47,0,0.47,0,0.15,0,.3,0,0.46l-3.32-.59s0.07-5,.07-5.49l-0.52-.08c0,1.52,0,3-.07,4.59l-0.22,0c0,0.15,0,.3,0,0.46s0,0.29,0,.43l-3.29-.45c0-.27,0-0.55,0-0.82l-0.2.17a4.44,4.44,0,0,1-2.8.46H408a4.87,4.87,0,0,1-1.93-.47c0.12,0.93.24,1.88,0.34,2.85,0.22-.06.45-0.11,0.69-0.15h0a6.34,6.34,0,0,1,.8-0.18,11.55,11.55,0,0,1,2.69,0h0c2,0.16,4.13.33,5,2v-1.22l1.3,0a6.51,6.51,0,0,1,1.22.09,6.27,6.27,0,0,1,3.87,1.66c0.06-.22.13-0.43,0.18-0.64" transform="translate(-360.58 -266.34)"/><path class="cls-1" d="M414.35,322.24c0.66,0.79,1.88.9,3.63,0.34,0.67-.54,1.33-1.11,2-1.72a28.89,28.89,0,0,0,6.44-9.23l-0.67-.13c-2.54,2.53-6.38,4.68-11.84,5.95-0.36,2.19-.26,3.9.49,4.8" transform="translate(-360.58 -266.34)"/><path class="cls-1" d="M413.5,323c-0.92-1.11-1.12-3-.8-5.26a48,48,0,0,1-6.06.79c-0.5,4.26-1.33,7.85-2.58,10.18A28.59,28.59,0,0,0,416,324,3.14,3.14,0,0,1,413.5,323" transform="translate(-360.58 -266.34)"/><path class="cls-1" d="M398.72,318.62a9.25,9.25,0,0,1-3.49,6.12,11.06,11.06,0,0,1-7,1.83A28.94,28.94,0,0,0,399.31,329a29.7,29.7,0,0,0,3.37-.14c1.35-2,2.29-5.69,2.84-10.28-2.42.13-4.68,0.14-6.8,0.06" transform="translate(-360.58 -266.34)"/><path class="cls-2" d="M432,305.06a10.6,10.6,0,0,1-1.34-.83,32.3,32.3,0,0,1-.72,3.72l0.21,0h0l1.86,0.44c0-.34,0-0.83,0-1.25,0-.79,0-1.62,0-2.11" transform="translate(-360.58 -266.34)"/><path class="cls-2" d="M369.06,295.42a31.12,31.12,0,0,1,61.52-.22,4.31,4.31,0,0,1,1.56.13h0l0.44,0.12h0l0.59,0.15a33.72,33.72,0,0,0-32.76-29.26,33.8,33.8,0,0,0-34,29.74l1.37-.35,1.28-.32" transform="translate(-360.58 -266.34)"/><path class="cls-2" d="M428.79,312.13V311.4h0v0.72l-0.27-.06a31.16,31.16,0,0,1-58.86-4.21v3.57h0v1.25h0l-0.47.12-0.44.1a33.69,33.69,0,0,0,62.29-.26l-1.68-.39Z" transform="translate(-360.58 -266.34)"/><path class="cls-3" d="M392.29,304v1.47c0.94,1.23,1.81,2.44,2.58,3.64v-2c-0.79-1.13-1.66-2.28-2.57-3.44V304Z" transform="translate(-360.58 -266.34)"/><path class="cls-3" d="M426.38,311.63a28.87,28.87,0,0,1-6.44,9.23c-0.63.61-1.29,1.18-2,1.72-1.75.56-3,.45-3.63-0.34s-0.85-2.6-.49-4.8c5.46-1.26,9.3-3.42,11.84-5.95l-1.35-.25a23.39,23.39,0,0,1-10.26,5,44.25,44.25,0,0,1,2-6.26l-0.45-.05v-1.84a45,45,0,0,0-2.74,8.43,46.38,46.38,0,0,1-6.13.84c0.24-2.41.38-5,.43-7.69a8.76,8.76,0,0,1-1.09-.26c-0.05,2.84-.2,5.54-0.46,8-2.42.14-4.67,0.15-6.77,0.07,0.16-2.65-.88-5.36-2.54-8.14H395c1.76,2.81,2.88,5.51,2.73,8.08-10-.56-16.41-3.36-20.44-6.21l-1,.17-0.61.1c4.07,3.18,10.87,6.44,21.93,7a8,8,0,0,1-3,5.27c-2.12,1.55-5.19,2-9.13,1.32a29.08,29.08,0,0,1-13.53-17.37,21.54,21.54,0,0,0,3.52,3.53v-0.63c0-.32,0-0.63,0-0.94a19.24,19.24,0,0,1-3.51-3.93l-2.25.49v1.53a31.69,31.69,0,0,0,29.61,23.29,31.18,31.18,0,0,0,29.25-19.05l-0.61-.13-1.53-.31M399.31,329a29,29,0,0,1-11.09-2.41,11.06,11.06,0,0,0,7-1.83,9.25,9.25,0,0,0,3.49-6.12c2.11,0.08,4.37.06,6.79-.06-0.55,4.59-1.49,8.26-2.84,10.28a29.7,29.7,0,0,1-3.37.14m4.75-.31c1.24-2.33,2.08-5.92,2.58-10.18a48.07,48.07,0,0,0,6.06-.79c-0.31,2.29-.12,4.15.8,5.26A3.14,3.14,0,0,0,416,324a28.57,28.57,0,0,1-12,4.63" transform="translate(-360.58 -266.34)"/><path class="cls-3" d="M405.57,289c0,0.11,0,.21,0,0.31v0.38l-0.59,0q0.19,1.47.36,3a5.45,5.45,0,0,1,1.06-.4q-0.16-1.45-.34-2.85a1.83,1.83,0,0,1-.49-0.39" transform="translate(-360.58 -266.34)"/><path class="cls-3" d="M428.79,302v9.38h0v-3.72l1.15,0.27a32.59,32.59,0,0,0,.72-3.72,5.93,5.93,0,0,1-1.87-2.21" transform="translate(-360.58 -266.34)"/><path class="cls-3" d="M422,294.38l0.18,0.18v-0.82c-0.06.21-.12,0.43-0.18,0.64" transform="translate(-360.58 -266.34)"/><path class="cls-3" d="M377.78,281.2c0.53,4.3,2.6,8.38,5.2,12.23a3.16,3.16,0,0,1,.91-0.61c-2.75-4.06-4.83-8.27-5.1-12.74q0.45-.48.93-0.94a28.77,28.77,0,0,1,19.8-8.11c1.52,1.75,2.94,5.45,4.09,10.67l0.85,0h0l0.26,0c-0.87-4.08-2.12-8.25-3.83-10.73a28.89,28.89,0,0,1,20.16,9.28,19.65,19.65,0,0,1,1.19,13.07l1.08,0.19a20.45,20.45,0,0,0-.21-10.77,28.91,28.91,0,0,1,5.13,11.68l0.41,0.09v0l0.09,0v1.71a2.19,2.19,0,0,1,.74-0.8,2.53,2.53,0,0,1,1.05-.36,31.12,31.12,0,0,0-61.52.22l0.25-.06,0.57-.14,1.44-.34a28.9,28.9,0,0,1,6.46-13.69" transform="translate(-360.58 -266.34)"/><path class="cls-4" d="M369.66,312.68h0v-1.25c-1.75.41-3.48,0.83-5.23,1.33V299.95a1.9,1.9,0,0,1-2.09-.67,2.59,2.59,0,0,1-.3-1.12,1.18,1.18,0,0,1,.23-0.71c0.07-.09.13-0.17,0.21-0.26q1.89-.55,3.74-1c-1.5.38-3,.84-4.65,1.3l-0.22.06a2.29,2.29,0,0,0-.75,1.58v0a2.5,2.5,0,0,0,.41,1.32,2.38,2.38,0,0,0,2,1v12.88l0.93-.26c1.63-.45,3.27-0.85,4.82-1.21l0.44-.1Z" transform="translate(-360.58 -266.34)"/><path class="cls-4" d="M367.78,295.74l1.35-.34-0.07,0-1.28.32" transform="translate(-360.58 -266.34)"/><path class="cls-4" d="M372,305.79a5.06,5.06,0,0,0,3.38-2.19c0,2,0,4.09,0,6.15,0,0.32,0,.63,0,0.94v0.86l0.24,0,0.61-.1,1-.17c1.49-.25,2.81-0.45,4.07-0.63l0.63-.09v-1.44c-1.69.24-3.34,0.51-5,.81,0-5.42,0-10.63,0-16.05l-1,.16-0.61.11v1.15c0.54,0.81.53,2.31,0.53,4.58,0,0.1,0,.2,0,0.29v0.24a3.94,3.94,0,0,1-3.43,4c-1,.21-1.87.41-2.83,0.64v1.32l2.25-.49,0.11,0" transform="translate(-360.58 -266.34)"/><path class="cls-4" d="M371.51,294.86l1-.22h-0.05l-0.93.21" transform="translate(-360.58 -266.34)"/><path class="cls-4" d="M422.19,293.74v0.82a6,6,0,0,1,1.31,2.14c0,0.12.08,0.23,0.11,0.36v-3.41l-0.26,0-1.08-.19-0.09,0v0.34h0Z" transform="translate(-360.58 -266.34)"/><path class="cls-4" d="M439.4,298.45v0c0,0.06,0,.12,0,0.19a2.1,2.1,0,0,1-.45.92,1.75,1.75,0,0,1-1.94.42l-2.49-.67v0.36A2,2,0,0,0,435.6,301l0.56,0.15a2.4,2.4,0,0,0,2.65-.64l0,0,0,0h0a2.56,2.56,0,0,0,.61-1.4Z" transform="translate(-360.58 -266.34)"/><path class="cls-4" d="M432.14,295.33a4.31,4.31,0,0,0-1.56-.13,2.52,2.52,0,0,0-1.05.35,2.18,2.18,0,0,0-.74.8v-1.71l-0.09,0v16.12c-1.64-.35-3.22-0.66-4.91-1l-1.67-4.08v3.79c-1.67-.27-3.33-0.5-5-0.71V292.73h1a6.51,6.51,0,0,0-1.22-.09l-1.3,0v1.22a4.63,4.63,0,0,1,.45,2.08v9s0,0.37,0,.38a2.64,2.64,0,0,1-.84,2c-1,.88-2.7,1.23-5.33,1.06-2.12-.17-5.33-0.42-5.35-3.65v-9a3.44,3.44,0,0,1,2.58-3.66h0c-0.24,0-.47.09-0.69,0.15a5.45,5.45,0,0,0-1.06.4,4.14,4.14,0,0,0-1.09.78,2.51,2.51,0,0,1-.7,1,3,3,0,0,1-1.63.61v12.8c-1.76,0-3.46,0-5.22.06V295.08c-0.92,0-1.74.06-2.62,0.11V291.8l0.79,0-1.82.07c0,0.19,0,.37,0,0.56s0,0.25,0,.37,0,0.23,0,.34v0a0,0,0,0,1,0,0,2.55,2.55,0,0,1-2.36,2.14c-0.83.06-1.65,0.13-2.49,0.22v0.35c0,0.56.45,0.82,1.18,1.08l0.58-.05a3.3,3.3,0,0,0,2.22-1v1l2.64-.11v12.64h1.47l5.59-.06v-12.8a2.35,2.35,0,0,0,1-.64l0,0,0.15-.13a6.65,6.65,0,0,0-.07.91v8.93a3.82,3.82,0,0,0,3,3.86,8.86,8.86,0,0,0,1.09.26c0.71,0.13,1.4.18,2,.22,2.92,0.18,4.79-.21,5.93-1.24a3.37,3.37,0,0,0,.55-0.66v1.95l0.45,0.05,0.2,0c1.78,0.22,3.43.45,5,.71l0.85,0.13L423,311l1.37,0.24,1.35,0.25,0.68,0.13,1.53,0.31,0.61,0.13,0.27,0.06V302a5.94,5.94,0,0,0,1.88,2.21,10.77,10.77,0,0,0,1.34.83c0,0.49,0,1.32,0,2.11,0,0.42,0,.91,0,1.25l1.38,0.32c0-.93,0-4.2,0-4.68a0.09,0.09,0,0,0-.06,0l-0.12-.05a6.23,6.23,0,0,1-3.26-3.17,5.75,5.75,0,0,1-.19-1.75c0-1,.15-2.32.15-2.43,0.24-1.06,1.2-1.54,2.7-1.18l-0.44-.12h0Z" transform="translate(-360.58 -266.34)"/><path class="cls-4" d="M432.6,295.45l0.79,0.2-0.19,0-0.59-.15h0" transform="translate(-360.58 -266.34)"/><path class="cls-4" d="M438.85,297.14l-0.14,0,0.46,0.15Z" transform="translate(-360.58 -266.34)"/><path class="cls-4" d="M439.36,297.32h0c0,0.27,0,.53,0,0.8Z" transform="translate(-360.58 -266.34)"/><path class="cls-4" d="M438.53,304.43c0,0.06,0,.12,0,0.18a1,1,0,0,0,0-.18" transform="translate(-360.58 -266.34)"/><path class="cls-4" d="M438.55,310.83a1.24,1.24,0,0,1-.11.41c-0.53,1-1.64,1.35-3.41,1h0c-1.68-.44-3.2-0.81-4.87-1.18v-3l-0.21,0-1.15-.27v4.44l0.57,0.13,1.68,0.39c1,0.24,2,.49,3.15.79h0c2.59,0.56,3.66-.42,4.14-1.35a1.92,1.92,0,0,0,.19-0.69v-3.3c0-.1,0-0.23,0-0.37,0,1.26,0,2.47,0,3.07v0h0Z" transform="translate(-360.58 -266.34)"/><path class="cls-4" d="M370.32,298.45l-0.48.09-0.24.05V302l1.06-.24c0-.4,0-3,0-3.13a0.24,0.24,0,0,0-.33-0.19" transform="translate(-360.58 -266.34)"/><path class="cls-4" d="M410,295.45h-0.12a2.52,2.52,0,0,0,0,.34v0.09a3.19,3.19,0,0,0,0,.36v6.91c0,0.13,0,.24,0,0.33,0,0.48.11,0.61,0.81,0.66h0.18c0-.09,0-0.47,0-0.47v-6.32a6.24,6.24,0,0,0-.12-1.74,1.34,1.34,0,0,0-.72-0.18" transform="translate(-360.58 -266.34)"/><path class="cls-4" d="M387.07,300.72h0" transform="translate(-360.58 -266.34)"/><path class="cls-4" d="M382.12,299.8a4.36,4.36,0,0,0,3.37,2.39c0,0.79,0,2.79,0,3.38l1.6-.18c0-1.58,0-3.09,0-4.67,0,0-.06,0-0.06,0H386.9a3.89,3.89,0,0,1-3.26-2,4.94,4.94,0,0,1-.19-1.7,19.93,19.93,0,0,1,.11-2.17v0.06c0-.12,0-0.24,0-0.36a2.61,2.61,0,0,1,2-2h0a4.66,4.66,0,0,1,.66-0.13h0.06a16,16,0,0,0-2,.29,2.59,2.59,0,0,0-.4.13,3.27,3.27,0,0,0-1.82,2.12v4.74a0.77,0.77,0,0,0,0,.11m3.49-7.26a0.11,0.11,0,0,1,0,0,0.08,0.08,0,0,0,0,0" transform="translate(-360.58 -266.34)"/><path class="cls-4" d="M382.25,306l0,0.6,0,3.93,0.9-.11c1.51-.19,3-0.36,4.83-0.52h0c2.8-.37,4.22-1.75,4.22-4.1V302.7c0-1.46,0-2.26,0-2.72,0,0.49,0,1.12,0,1.93s0,1.85,0,3.06c0,2.39-1.61,3.08-3.51,3.3h0c-1.67.15-3.23,0.32-4.86,0.53,0-1,0-2,0-3h0.06l-1.67.2" transform="translate(-360.58 -266.34)"/><path class="cls-1" d="M403.41,283.66v-0.05a0.59,0.59,0,0,0-.05-0.4,1,1,0,0,0-.33,0h-0.09c0,0.48,0,.95,0,1.43h0.44a0.05,0.05,0,0,0,0,0h0s0-.06,0-0.09a4.73,4.73,0,0,0,0-.56v-0.25Z" transform="translate(-360.58 -266.34)"/><path class="cls-4" d="M403.41,283.66v-0.05a0.59,0.59,0,0,0-.05-0.4,1,1,0,0,0-.33,0h-0.09c0,0.48,0,.95,0,1.43h0.44a0.05,0.05,0,0,0,0,0h0s0-.06,0-0.09a4.73,4.73,0,0,0,0-.56v-0.25Z" transform="translate(-360.58 -266.34)"/><path class="cls-1" d="M403.57,288a1,1,0,0,1,0-.48s0-.09,0-0.14c0-.29,0-0.9,0-1.11s0-.3-0.56-0.32h0c0,0.95,0,1.84,0,2.79-0.83,0-1.64,0-2.47,0,0-2.36.07-4.61,0.1-7h-0.43a1.31,1.31,0,0,1,0,.2v0a1.15,1.15,0,0,1-.28.73,1.46,1.46,0,0,1-.44.74q0,3-.08,6l3.35,0c0-.11,0-0.23,0-0.35s0-.25,0-0.31a2,2,0,0,0,1.52.81h0.07l0.75,0c0-.27-0.07-0.54-0.11-0.81a1.45,1.45,0,0,1-1.29-.88" transform="translate(-360.58 -266.34)"/><path class="cls-4" d="M403.57,288a1,1,0,0,1,0-.48s0-.09,0-0.14c0-.29,0-0.9,0-1.11s0-.3-0.56-0.32h0c0,0.95,0,1.84,0,2.79-0.83,0-1.64,0-2.47,0,0-2.36.07-4.61,0.1-7h-0.43a1.31,1.31,0,0,1,0,.2v0a1.15,1.15,0,0,1-.28.73,1.46,1.46,0,0,1-.44.74q0,3-.08,6l3.35,0c0-.11,0-0.23,0-0.35s0-.25,0-0.31a2,2,0,0,0,1.52.81h0.07l0.75,0c0-.27-0.07-0.54-0.11-0.81a1.45,1.45,0,0,1-1.29-.88" transform="translate(-360.58 -266.34)"/><path class="cls-3" d="M404.93,288.85h-0.07c0,0.27.08,0.54,0.11,0.81l0.58,0v-0.38c0-.11,0-0.21,0-0.31l-0.1-.12-0.54,0" transform="translate(-360.58 -266.34)"/><path class="cls-4" d="M404.93,288.85h-0.07c0,0.27.08,0.54,0.11,0.81l0.58,0v-0.38c0-.11,0-0.21,0-0.31l-0.1-.12-0.54,0" transform="translate(-360.58 -266.34)"/><path class="cls-1" d="M411.78,283.86c0,1.31,0,2.57-.06,3.88,0,0.05,0,.11,0,0.16a1,1,0,0,1-.26.65,1.28,1.28,0,0,1-.38.69c0,0.27,0,.55,0,0.82l3.29,0.45c0-.14,0-0.29,0-0.43s0-.3,0-0.46c-0.73-.11-1.44-0.21-2.18-0.29,0-2.3.07-4.5,0.1-6.8l-1.11-.15v0.15a1.48,1.48,0,0,1,.61,1.33" transform="translate(-360.58 -266.34)"/><path class="cls-4" d="M411.78,283.86c0,1.31,0,2.57-.06,3.88,0,0.05,0,.11,0,0.16a1,1,0,0,1-.26.65,1.28,1.28,0,0,1-.38.69c0,0.27,0,.55,0,0.82l3.29,0.45c0-.14,0-0.29,0-0.43s0-.3,0-0.46c-0.73-.11-1.44-0.21-2.18-0.29,0-2.3.07-4.5,0.1-6.8l-1.11-.15v0.15a1.48,1.48,0,0,1,.61,1.33" transform="translate(-360.58 -266.34)"/><path class="cls-1" d="M398.86,283.16c0,0.2,0,.39,0,0.59a1.39,1.39,0,0,0,.43-0.23l0.08-.07c0-.14,0-0.28,0-0.42a1.74,1.74,0,0,1-.5.14" transform="translate(-360.58 -266.34)"/><path class="cls-4" d="M398.86,283.16c0,0.2,0,.39,0,0.59a1.39,1.39,0,0,0,.43-0.23l0.08-.07c0-.14,0-0.28,0-0.42a1.74,1.74,0,0,1-.5.14" transform="translate(-360.58 -266.34)"/><path class="cls-1" d="M394.68,281.89h-0.23l-0.39,0h0l0.34,0,0.28,0" transform="translate(-360.58 -266.34)"/><path class="cls-4" d="M394.68,281.89h-0.23l-0.39,0h0l0.34,0,0.28,0" transform="translate(-360.58 -266.34)"/><path class="cls-1" d="M396.38,283.27l-1.23.08c0-.5,0-1,0-1.48l-0.43,0c0,0.5,0,1,0,1.46l-0.23,0c0,0.15,0,.3,0,0.46s0,0.18,0,.27l0.78,0c0,0.68-.07,5.55-0.07,5.55l3.34-.14c0-.11,0-0.21,0-0.32s0-.16,0-0.41c-0.76,0-1.5.05-2.25,0.1,0-1.89,0-3.68.07-5.57" transform="translate(-360.58 -266.34)"/><path class="cls-4" d="M396.38,283.27l-1.23.08c0-.5,0-1,0-1.48l-0.43,0c0,0.5,0,1,0,1.46l-0.23,0c0,0.15,0,.3,0,0.46s0,0.18,0,.27l0.78,0c0,0.68-.07,5.55-0.07,5.55l3.34-.14c0-.11,0-0.21,0-0.32s0-.16,0-0.41c-0.76,0-1.5.05-2.25,0.1,0-1.89,0-3.68.07-5.57" transform="translate(-360.58 -266.34)"/><path class="cls-1" d="M399.79,282.71a1.14,1.14,0,0,1-.16.16,1.17,1.17,0,0,1-.27.16c0,0.14,0,.28,0,0.42a1.46,1.46,0,0,0,.44-0.74" transform="translate(-360.58 -266.34)"/><path class="cls-4" d="M399.79,282.71a1.14,1.14,0,0,1-.16.16,1.17,1.17,0,0,1-.27.16c0,0.14,0,.28,0,0.42a1.46,1.46,0,0,0,.44-0.74" transform="translate(-360.58 -266.34)"/><path class="cls-4" d="M399.79,282.71a1.14,1.14,0,0,1-.16.16,1.17,1.17,0,0,1-.27.16c0,0.14,0,.28,0,0.42a1.46,1.46,0,0,0,.44-0.74" transform="translate(-360.58 -266.34)"/><path class="cls-1" d="M418.75,284.85c0,0.24,0,.48,0,0.72a1.3,1.3,0,0,0,.33-0.11,1.24,1.24,0,0,0,.63-0.87,0.94,0.94,0,0,1-.18.15,1.28,1.28,0,0,1-.77.12" transform="translate(-360.58 -266.34)"/><path class="cls-4" d="M418.75,284.85c0,0.24,0,.48,0,0.72a1.3,1.3,0,0,0,.33-0.11,1.24,1.24,0,0,0,.63-0.87,0.94,0.94,0,0,1-.18.15,1.28,1.28,0,0,1-.77.12" transform="translate(-360.58 -266.34)"/><path class="cls-1" d="M415.17,285.15c0,0.49-.07,5.49-0.07,5.49l3.32,0.59c0-.15,0-0.3,0-0.46,0,0,0-.18,0-0.47l-2.22-.39,0.07-5.49-1.22-.2c0-.43,0-0.85,0-1.28l-0.4-.06c0,0.74,0,1.46,0,2.19l0.52,0.08" transform="translate(-360.58 -266.34)"/><path class="cls-4" d="M415.17,285.15c0,0.49-.07,5.49-0.07,5.49l3.32,0.59c0-.15,0-0.3,0-0.46,0,0,0-.18,0-0.47l-2.22-.39,0.07-5.49-1.22-.2c0-.43,0-0.85,0-1.28l-0.4-.06c0,0.74,0,1.46,0,2.19l0.52,0.08" transform="translate(-360.58 -266.34)"/><path class="cls-1" d="M390.32,282.34l-0.76.08-0.35,0v0.21c0.53,0.25.51,0.93,0.49,2.12,0,1,0,2,0,3.07a1.83,1.83,0,0,1-.32,1,1.89,1.89,0,0,1-.24.53v0.77l0.52-.06c1.55-.18,3-0.32,4.39-0.42l0.39,0c0-.23,0-0.47,0-0.7-1.41.1-2.79,0.25-4.19,0.42,0-2.38.07-4.65,0.1-7" transform="translate(-360.58 -266.34)"/><path class="cls-4" d="M390.32,282.34l-0.76.08-0.35,0v0.21c0.53,0.25.51,0.93,0.49,2.12,0,1,0,2,0,3.07a1.83,1.83,0,0,1-.32,1,1.89,1.89,0,0,1-.24.53v0.77l0.52-.06c1.55-.18,3-0.32,4.39-0.42l0.39,0c0-.23,0-0.47,0-0.7-1.41.1-2.79,0.25-4.19,0.42,0-2.38.07-4.65,0.1-7" transform="translate(-360.58 -266.34)"/><path class="cls-1" d="M392.67,287.17l1.13-.09c0-.1,0-0.2,0-0.3s0-.28,0-0.43l-1.14.1c0,0.24,0,.48,0,0.72" transform="translate(-360.58 -266.34)"/><path class="cls-4" d="M392.67,287.17l1.13-.09c0-.1,0-0.2,0-0.3s0-.28,0-0.43l-1.14.1c0,0.24,0,.48,0,0.72" transform="translate(-360.58 -266.34)"/><path class="cls-1" d="M394,283.41l-1.3.11c0,0.25,0,.5,0,0.75l1.76-.14a0.11,0.11,0,0,1,0,0l-0.45,0c0-.24,0-0.48,0-0.71" transform="translate(-360.58 -266.34)"/><path class="cls-4" d="M394,283.41l-1.3.11c0,0.25,0,.5,0,0.75l1.76-.14a0.11,0.11,0,0,1,0,0l-0.45,0c0-.24,0-0.48,0-0.71" transform="translate(-360.58 -266.34)"/><path class="cls-1" d="M394.49,283.37l-0.46,0c0,0.23,0,.48,0,0.71l0.45,0c0-.09,0-0.18,0-0.27s0-.3,0-0.46" transform="translate(-360.58 -266.34)"/><path class="cls-4" d="M394.49,283.37l-0.46,0c0,0.23,0,.48,0,0.71l0.45,0c0-.09,0-0.18,0-0.27s0-.3,0-0.46" transform="translate(-360.58 -266.34)"/><path class="cls-4" d="M394.49,283.37l-0.46,0c0,0.23,0,.48,0,0.71l0.45,0c0-.09,0-0.18,0-0.27s0-.3,0-0.46" transform="translate(-360.58 -266.34)"/><path class="cls-1" d="M387.22,284.48a0,0,0,0,1,0,0,0.3,0.3,0,0,0-.06-0.22,1.44,1.44,0,0,0-.41,0c0,1.38,0,2.7-.05,4.08l0.49-.08c0-.69,0-1.54,0-2.29s0-1.3,0-1.5h0" transform="translate(-360.58 -266.34)"/><path class="cls-4" d="M387.22,284.48a0,0,0,0,1,0,0,0.3,0.3,0,0,0-.06-0.22,1.44,1.44,0,0,0-.41,0c0,1.38,0,2.7-.05,4.08l0.49-.08c0-.69,0-1.54,0-2.29s0-1.3,0-1.5h0" transform="translate(-360.58 -266.34)"/><path class="cls-1" d="M388,289.67c-1.29.19-2.52,0.41-3.81,0.65,0-1.9.06-3.72,0.08-5.61a1.28,1.28,0,0,1-.81-0.2,0.81,0.81,0,0,1-.31-0.68c0-.06,0-0.11,0-0.12s0-.15,0-0.24l-0.81.15-0.26.05-0.08.45a0.13,0.13,0,0,0,0,0s0,0.08,0,.12a1.14,1.14,0,0,0,.46,1,1.47,1.47,0,0,0,.65.25c0,0.59-.07,5.68-0.07,5.68l0.58-.11c1.32-.25,2.53-0.45,3.78-0.64a2.33,2.33,0,0,0,1.67-1c0-.09,0-0.17,0-0.26a2.09,2.09,0,0,1-1.1.52" transform="translate(-360.58 -266.34)"/><path class="cls-4" d="M388,289.67c-1.29.19-2.52,0.41-3.81,0.65,0-1.9.06-3.72,0.08-5.61a1.28,1.28,0,0,1-.81-0.2,0.81,0.81,0,0,1-.31-0.68c0-.06,0-0.11,0-0.12s0-.15,0-0.24l-0.81.15-0.26.05-0.08.45a0.13,0.13,0,0,0,0,0s0,0.08,0,.12a1.14,1.14,0,0,0,.46,1,1.47,1.47,0,0,0,.65.25c0,0.59-.07,5.68-0.07,5.68l0.58-.11c1.32-.25,2.53-0.45,3.78-0.64a2.33,2.33,0,0,0,1.67-1c0-.09,0-0.17,0-0.26a2.09,2.09,0,0,1-1.1.52" transform="translate(-360.58 -266.34)"/><path class="cls-1" d="M389.12,289.15c0,0.09,0,.17,0,0.26a1.92,1.92,0,0,0,.24-0.53,1.61,1.61,0,0,1-.23.27" transform="translate(-360.58 -266.34)"/><path class="cls-4" d="M389.12,289.15c0,0.09,0,.17,0,0.26a1.92,1.92,0,0,0,.24-0.53,1.61,1.61,0,0,1-.23.27" transform="translate(-360.58 -266.34)"/><path class="cls-4" d="M389.12,289.15c0,0.09,0,.17,0,0.26a1.92,1.92,0,0,0,.24-0.53,1.61,1.61,0,0,1-.23.27" transform="translate(-360.58 -266.34)"/><path class="cls-1" d="M405.9,284.36s0,0.08,0,.13v0.1a1.25,1.25,0,0,1-.31.88l0,0.1a1.26,1.26,0,0,1,.28.71c0,0.46,0,.91,0,1.36s0.17,1.16.24,1.75a4.86,4.86,0,0,0,1.93.47h0.09a4.43,4.43,0,0,0,2.8-.46l0.2-.17c0-.14,0-0.28,0-0.41a4.46,4.46,0,0,1-2.26.27c-0.82-.07-2.51-0.15-2.53-1.61s0-2.57.05-3.88a1.46,1.46,0,0,1,1.3-1.52,3.49,3.49,0,0,0-.46,0,2.55,2.55,0,0,0-1.38.54,7.28,7.28,0,0,1,.09,1.71" transform="translate(-360.58 -266.34)"/><path class="cls-4" d="M405.9,284.36s0,0.08,0,.13v0.1a1.25,1.25,0,0,1-.31.88l0,0.1a1.26,1.26,0,0,1,.28.71c0,0.46,0,.91,0,1.36s0.17,1.16.24,1.75a4.86,4.86,0,0,0,1.93.47h0.09a4.43,4.43,0,0,0,2.8-.46l0.2-.17c0-.14,0-0.28,0-0.41a4.46,4.46,0,0,1-2.26.27c-0.82-.07-2.51-0.15-2.53-1.61s0-2.57.05-3.88a1.46,1.46,0,0,1,1.3-1.52,3.49,3.49,0,0,0-.46,0,2.55,2.55,0,0,0-1.38.54,7.28,7.28,0,0,1,.09,1.71" transform="translate(-360.58 -266.34)"/><path class="cls-3" d="M405.79,288.89h-0.23V289a1.83,1.83,0,0,0,.49.39c-0.08-.59-0.16-1.18-0.24-1.75,0,0.41,0,.83,0,1.25" transform="translate(-360.58 -266.34)"/><path class="cls-4" d="M405.79,288.89h-0.23V289a1.83,1.83,0,0,0,.49.39c-0.08-.59-0.16-1.18-0.24-1.75,0,0.41,0,.83,0,1.25" transform="translate(-360.58 -266.34)"/><path class="cls-1" d="M409.15,287.34h0.09a1.3,1.3,0,0,0,0-.28c0-.92,0-1.8,0-2.72a3.07,3.07,0,0,0,0-.77,0.38,0.38,0,0,0-.29-0.08h-0.07c0,0.14,0,.29,0,0.45v0.16c0,0.93,0,1.82,0,2.75,0,0,0,0,0,0V287a0.36,0.36,0,0,0,.05.27,0.44,0.44,0,0,0,.28.07" transform="translate(-360.58 -266.34)"/><path class="cls-4" d="M409.15,287.34h0.09a1.3,1.3,0,0,0,0-.28c0-.92,0-1.8,0-2.72a3.07,3.07,0,0,0,0-.77,0.38,0.38,0,0,0-.29-0.08h-0.07c0,0.14,0,.29,0,0.45v0.16c0,0.93,0,1.82,0,2.75,0,0,0,0,0,0V287a0.36,0.36,0,0,0,.05.27,0.44,0.44,0,0,0,.28.07" transform="translate(-360.58 -266.34)"/><path class="cls-1" d="M405.52,285.53l0,0,0-.1-0.06.06" transform="translate(-360.58 -266.34)"/><path class="cls-4" d="M405.52,285.53l0,0,0-.1-0.06.06" transform="translate(-360.58 -266.34)"/><path class="cls-4" d="M405.52,285.53l0,0,0-.1-0.06.06" transform="translate(-360.58 -266.34)"/><path class="cls-3" d="M405.47,288.87l0.1,0.12v-0.12h-0.1" transform="translate(-360.58 -266.34)"/><path class="cls-4" d="M405.47,288.87l0.1,0.12v-0.12h-0.1" transform="translate(-360.58 -266.34)"/><path class="cls-4" d="M405.47,288.87l0.1,0.12v-0.12h-0.1" transform="translate(-360.58 -266.34)"/><path class="cls-1" d="M411.08,288.83c0,0.14,0,.27,0,0.41a1.28,1.28,0,0,0,.38-0.69,1.31,1.31,0,0,1-.37.28" transform="translate(-360.58 -266.34)"/><path class="cls-4" d="M411.08,288.83c0,0.14,0,.27,0,0.41a1.28,1.28,0,0,0,.38-0.69,1.31,1.31,0,0,1-.37.28" transform="translate(-360.58 -266.34)"/><path class="cls-4" d="M411.08,288.83c0,0.14,0,.27,0,0.41a1.28,1.28,0,0,0,.38-0.69,1.31,1.31,0,0,1-.37.28" transform="translate(-360.58 -266.34)"/><path class="cls-2" d="M403.72,284.57a7.05,7.05,0,0,0,0-.91c0-.77-0.21-0.74-0.77-0.76H402.6c0,0.67,0,1.3,0,2l0.81,0a0.32,0.32,0,0,0,.33-0.32m-0.35,0h0a0.05,0.05,0,0,1,0,0h-0.44c0-.49,0-1,0-1.43H403a1,1,0,0,1,.33,0,0.57,0.57,0,0,1,.06.4v0.31a5,5,0,0,1,0,.56s0,0.06,0,.09" transform="translate(-360.58 -266.34)"/><path class="cls-2" d="M400.49,281.67v0.06c0,2.35-.07,4.6-0.1,7,0.82,0,1.64,0,2.47,0,0-.94,0-1.84,0-2.79h0c0.57,0,.56.24,0.56,0.32s0,0.81,0,1.11c0,0.05,0,.09,0,0.14a1,1,0,0,0,0,.48,1.44,1.44,0,0,0,1.29.88h0.07l0.54,0h0.33c0-.42,0-0.84,0-1.25s0-.9,0-1.36a1.26,1.26,0,0,0-.28-0.71l0,0,0.06-.06a1.25,1.25,0,0,0,.31-0.88v-0.1s0-.08,0-0.13a7.29,7.29,0,0,0-.09-1.71,1.16,1.16,0,0,0-1-.86l-0.26,0h0l-0.85,0c-1,0-2.07,0-3.12,0m4,0.33c1.07,0.14,1.13.47,1.1,2.33v0.14s0,0.07,0,.1a1,1,0,0,1-.45.93,0.32,0.32,0,0,0,.07.08,1.33,1.33,0,0,1,.32.69c0,0.79,0,1.54,0,2.34l-0.5,0a1.15,1.15,0,0,1-1.05-.68,3.47,3.47,0,0,1,0-.42c0-.1,0-1,0-1.24,0-.42-0.4-0.57-0.89-0.59h-0.39c0,1,0,1.85,0,2.79h-1.78c0-2.19.06-4.29,0.1-6.48,1.22,0,2.4,0,3.62.06" transform="translate(-360.58 -266.34)"/><path class="cls-2" d="M414.37,289.63l0.22,0c0-1.56,0-3.06.07-4.59,0-.73,0-1.45,0-2.19,0-.06,0-0.12,0-0.19l-0.34,0-2.07-.28v0.16c0,2.3-.07,4.5-0.1,6.8,0.74,0.08,1.46.18,2.18,0.29m-1.75-6.94,1.73,0.24c0,2.17-.06,4.25-0.09,6.42l-1.74-.23c0-2.18.07-4.26,0.1-6.43" transform="translate(-360.58 -266.34)"/><path class="cls-2" d="M399.36,283a1.16,1.16,0,0,0,.27-0.16,1.14,1.14,0,0,0,.16-0.16,1.15,1.15,0,0,0,.28-0.73v0a1.46,1.46,0,0,0,0-.2,0.13,0.13,0,0,0,0-.06h-0.32c-1.57,0-3,.08-4.57.18h0c0,0.5,0,1,0,1.48l1.23-.08c0,1.89,0,3.68-.07,5.57,0.75-.05,1.49-0.08,2.25-0.1h0.22c0-1.68.05-3.31,0.07-5,0-.19,0-0.39,0-0.59a1.71,1.71,0,0,0,.5-0.14m-0.85-.12c0,1.88,0,3.68-.08,5.57l-1.78.07c0-1.88,0-3.68.08-5.56l-1.24.07c0-.32,0-0.63,0-0.94,1.43-.09,2.79-0.14,4.22-0.16a1,1,0,0,1-1.21,1" transform="translate(-360.58 -266.34)"/><path class="cls-2" d="M416.3,284.43l-0.07,5.49,2.22,0.39,0.23,0c0-1.62,0-3.17.07-4.78,0-.24,0-0.48,0-0.72a1.28,1.28,0,0,0,.77-0.12,0.92,0.92,0,0,0,.18-0.15,0.94,0.94,0,0,0,.25-0.64v-0.05a2,2,0,0,1,0-.25l-0.32-.07c-1.52-.31-3-0.58-4.53-0.81V283c0,0.43,0,.85,0,1.28l1.22,0.2m-0.87-1.34c1.42,0.22,2.77.47,4.19,0.76,0,0,.06,1-1.2.69,0,1.85-.06,3.62-0.08,5.49-0.6-.12-1.18-0.21-1.76-0.31,0-1.85,0-3.63.07-5.48l-1.22-.21c0-.32,0-0.62,0-0.93" transform="translate(-360.58 -266.34)"/><path class="cls-2" d="M394,283.41l0.46,0,0.23,0c0-.49,0-1,0-1.46h-0.06l-0.28,0-0.34,0c-1.25.1-2.46,0.22-3.73,0.36v0c0,2.38-.07,4.66-0.1,7,1.41-.17,2.79-0.32,4.19-0.42l0.23,0c0-.51,0-1,0-1.51l-2,.18c0-.14,0-0.29,0-0.43s0-.48,0-0.72l1.14-.1h0.23c0-.65,0-1.25,0-1.89-0.45,0-.9.07-1.36,0.12,0-.1,0-0.19,0-0.28,0-.25,0-0.5,0-0.75l1.3-.11m-1.65-.13c0,0.54,0,1.05,0,1.58l1.36-.12c0,0.45,0,.89,0,1.34l-1.37.12c0,0.58,0,1.12,0,1.7,0.69-.07,1.33-0.13,2-0.18,0,0.32,0,.64,0,1l-1.85.17-1.88.2c0-2.2.06-4.31,0.09-6.52,1.25-.14,2.47-0.25,3.73-0.35,0,0.31,0,.61,0,0.92l-2,.17" transform="translate(-360.58 -266.34)"/><path class="cls-2" d="M383.15,283.82a0.81,0.81,0,0,0,.31.68,1.28,1.28,0,0,0,.81.2c0,1.9,0,3.71-.08,5.62,1.3-.25,2.52-0.46,3.81-0.65a2.1,2.1,0,0,0,1.1-.52,1.58,1.58,0,0,0,.23-0.27,1.82,1.82,0,0,0,.32-1c0-1,0-2,0-3.07,0-1.19,0-1.88-.49-2.12a2,2,0,0,0-1-.08h0c-1.71.25-3.32,0.53-5,.86h0c0,0.09,0,.16,0,0.24s0,0.06,0,.12m0.35-.16c1.6-.31,3.11-0.57,4.68-0.8,1.27-.15,1.21.29,1.18,2.18,0,1,0,1.89,0,2.86a1.5,1.5,0,0,1-1.3,1.49c-1.18.17-2.29,0.37-3.47,0.58,0-1.89.05-3.7,0.08-5.59-1.29.19-1.12-.73-1.12-0.73" transform="translate(-360.58 -266.34)"/><path class="cls-2" d="M387.56,284.41a0.4,0.4,0,0,0-.26-0.44,2.61,2.61,0,0,0-.89.11c0,1.56,0,3.05-.06,4.62l1.17-.19s0.1-3.53,0-4.1M387.23,286c0,0.75,0,1.6,0,2.29l-0.49.08c0-1.38,0-2.7.05-4.08a1.47,1.47,0,0,1,.41,0,0.3,0.3,0,0,1,.06.22,0,0,0,0,0,0,0h0c0,0.19,0,.78,0,1.5" transform="translate(-360.58 -266.34)"/><path class="cls-2" d="M409.14,287.62a2.83,2.83,0,0,0,.4,0,1.4,1.4,0,0,0,.06-0.51c0-.92,0-1.8,0-2.73s0-1.08-.67-1.15a2.12,2.12,0,0,0-.37,0,3.21,3.21,0,0,0-.08.86c0,0.93,0,1.82,0,2.76a0.6,0.6,0,0,0,.67.76m-0.33-.62v-0.11s0,0,0,0c0-.93,0-1.82,0-2.75V284c0-.16,0-0.31,0-0.45H409a0.38,0.38,0,0,1,.29.08,3.07,3.07,0,0,1,0,.77c0,0.92,0,1.8,0,2.72a1.3,1.3,0,0,1,0,.28h-0.09a0.45,0.45,0,0,1-.28-0.07,0.36,0.36,0,0,1-.05-0.27" transform="translate(-360.58 -266.34)"/><path class="cls-2" d="M406.34,283.61c0,1.31,0,2.57-.05,3.88s1.71,1.54,2.53,1.61a4.46,4.46,0,0,0,2.26-.27,1.33,1.33,0,0,0,.37-0.28,1,1,0,0,0,.26-0.65c0-.05,0-0.11,0-0.16,0-1.31,0-2.57.06-3.88a1.48,1.48,0,0,0-.61-1.33,4.17,4.17,0,0,0-2-.49,5.71,5.71,0,0,0-1.27,0l-0.28,0a1.46,1.46,0,0,0-1.3,1.52m1.67-1.3a5.59,5.59,0,0,1,1.18,0c1.3,0.12,2.23.22,2.24,1.51s0,2.57,0,3.88c0,0.05,0,.11,0,0.16,0,0.89-1.14,1.08-2.55,1s-2.17-.35-2.19-1.31c0-1.31,0-2.56.05-3.89A1.26,1.26,0,0,1,408,282.3" transform="translate(-360.58 -266.34)"/><path class="cls-3" d="M400.73,288.42h1.78c0-.94,0-1.83,0-2.79h0.39c0.49,0,.9.18,0.89,0.59,0,0.26,0,1.14,0,1.24a3.47,3.47,0,0,0,0,.42,1.15,1.15,0,0,0,1.05.68l0.5,0c0-.8,0-1.55,0-2.34a1.34,1.34,0,0,0-.32-0.7,0.32,0.32,0,0,1-.07-0.08,1,1,0,0,0,.45-0.93s0-.07,0-0.1v-0.14c0-1.86,0-2.19-1.1-2.33s-2.4-.06-3.62-0.06c0,2.19-.06,4.28-0.1,6.48m1.87-5.52H403c0.56,0,.79,0,0.77.76a7,7,0,0,1,0,.91,0.32,0.32,0,0,1-.33.32l-0.81,0c0-.67,0-1.31,0-2" transform="translate(-360.58 -266.34)"/><path class="cls-3" d="M414.35,282.92l-1.73-.24c0,2.17-.06,4.25-0.1,6.43l1.74,0.23c0-2.17.06-4.25,0.09-6.42" transform="translate(-360.58 -266.34)"/><path class="cls-3" d="M399.73,282c-1.42,0-2.79.07-4.22,0.16,0,0.32,0,.62,0,0.94l1.24-.07c0,1.88-.05,3.68-0.08,5.56l1.78-.07c0-1.89.06-3.69,0.08-5.57a1,1,0,0,0,1.21-1" transform="translate(-360.58 -266.34)"/><path class="cls-3" d="M416.57,289.7c0.58,0.1,1.16.2,1.76,0.31,0-1.86.06-3.64,0.08-5.49,1.27,0.29,1.2-.69,1.2-0.69-1.42-.29-2.78-0.54-4.19-0.76,0,0.31,0,.62,0,0.93l1.22,0.21c0,1.86,0,3.63-.07,5.48" transform="translate(-360.58 -266.34)"/><path class="cls-3" d="M394.39,282.19c-1.26.1-2.47,0.21-3.73,0.35,0,2.2-.06,4.32-0.09,6.52l1.88-.2,1.85-.17c0-.32,0-0.64,0-1-0.66.05-1.3,0.1-2,.18,0-.57,0-1.12,0-1.7l1.37-.12c0-.45,0-0.89,0-1.34l-1.36.12c0-.53,0-1,0-1.58l2-.17c0-.31,0-0.62,0-0.92" transform="translate(-360.58 -266.34)"/><path class="cls-3" d="M384.62,284.39c0,1.89,0,3.7-.08,5.58,1.18-.22,2.29-0.41,3.47-0.58a1.5,1.5,0,0,0,1.3-1.49c0-1,0-1.89,0-2.86,0-1.89.09-2.33-1.18-2.18-1.58.23-3.09,0.49-4.68,0.8,0,0-.17.91,1.12,0.73m1.78-.31a2.61,2.61,0,0,1,.89-0.11,0.4,0.4,0,0,1,.26.44c0.05,0.57,0,4.1,0,4.1l-1.17.19c0-1.56,0-3.05.06-4.62" transform="translate(-360.58 -266.34)"/><path class="cls-3" d="M406.64,287.51c0,1,.82,1.2,2.19,1.31s2.53-.07,2.55-1c0-.05,0-0.11,0-0.16,0-1.31,0-2.57,0-3.88s-0.94-1.39-2.24-1.51a5.59,5.59,0,0,0-1.18,0,1.26,1.26,0,0,0-1.32,1.32c0,1.32,0,2.57-.05,3.89m1.84-.66c0-.94,0-1.83,0-2.76a3.17,3.17,0,0,1,.09-0.86,2.12,2.12,0,0,1,.37,0c0.67,0.07.68,0.24,0.67,1.15s0,1.8,0,2.73a1.4,1.4,0,0,1-.06.51,2.77,2.77,0,0,1-.4,0,0.6,0.6,0,0,1-.66-0.76" transform="translate(-360.58 -266.34)"/><path class="cls-2" d="M382.07,299.68v-6.75l-0.72.11c-1.47.22-2.9,0.46-4.39,0.72v0.07c0,5.42,0,10.63,0,16.05,1.69-.29,3.34-0.56,5-0.81h0v-9.38Zm-0.72,8.87c-1.23.19-2.41,0.37-3.65,0.59,0-5,0-9.86,0-14.9,1.24-.22,2.44-0.4,3.67-0.59v14.91Z" transform="translate(-360.58 -266.34)"/><path class="cls-2" d="M392.5,291.87h-0.12c-2.35.15-5.28,0.43-5.9,0.51l-0.16,0h0a4.64,4.64,0,0,0-.66.13h0a2.6,2.6,0,0,0-2,2c0,0.12,0,.23,0,0.36v-0.06a19.58,19.58,0,0,0-.11,2.17,5,5,0,0,0,.19,1.7,3.89,3.89,0,0,0,3.26,2H387s0,0,.06,0h0c0,1.58,0,3.09,0,4.67l-1.6.18-1.55.2h-0.1c0,1,0,2,0,3,1.63-.21,3.19-0.38,4.86-0.53h0c1.91-.22,3.51-0.91,3.51-3.3,0-1.21,0-2.2,0-3.06s0-1.44,0-1.93,0-.76,0-1a1.68,1.68,0,0,0-.9-1.31,3.15,3.15,0,0,0-.72-0.35c-0.2-.08-0.43-0.16-0.67-0.23,0,0-.07,0-0.07,0l-0.45-.15c-0.73-.27-1.18-0.52-1.18-1.08v-0.35c0.84-.09,1.66-0.16,2.49-0.22a2.55,2.55,0,0,0,2.36-2.14h0v0c0-.11,0-0.22,0-0.34s0-.24,0-0.37,0-.36,0-0.56h0l-0.53,0m-0.13,1.24a2.28,2.28,0,0,1-.3.77,1.7,1.7,0,0,1-1.35.8c-1.08.08-2.13,0.17-3.21,0.29v1c0,1.08,1,1.42,2,1.74l0.72,0.25a4.36,4.36,0,0,1,.62.29,1.16,1.16,0,0,1,.62.89c0.08,1.12,0,6.12,0,6.12a3.54,3.54,0,0,1-.14.88c-0.44,1-1.44,1.34-2.68,1.51-1.44.12-2.74,0.29-4.14,0.47,0-.61,0-1.2,0-1.8,1.12-.15,2.17-0.26,3.25-0.37,0-1.89,0-3.69,0-5.58a0.54,0.54,0,0,0-.34-0.22,3.29,3.29,0,0,0-.35-0.05c-1.32-.21-2.3-0.58-2.79-1.7a14.57,14.57,0,0,1,0-3.61,0.62,0.62,0,0,1,0-.25,2,2,0,0,1,2-1.5,0.72,0.72,0,0,1,.17,0c0.77-.09,4.79-0.44,5.87-0.5a1.49,1.49,0,0,1,0,.62" transform="translate(-360.58 -266.34)"/><path class="cls-2" d="M428.29,294.52c-1.57-.33-3.09-0.62-4.67-0.89v3.44c0-.13-0.08-0.23-0.11-0.36a6,6,0,0,0-1.31-2.14l-0.18-.18a6.27,6.27,0,0,0-3.87-1.66h-1v16.06c1.68,0.21,3.33.44,5,.71v-3.79l1.67,4.08c1.68,0.29,3.27.6,4.91,1V294.6l-0.41-.09M428,310c-1.23-.26-2.41-0.49-3.69-0.71-1-2.39-1.92-4.66-2.87-7v6.53c-1.24-.19-2.34-0.35-3.59-0.51,0-5,0-9.87,0-14.92a5.24,5.24,0,0,1,5,3.42c0.44,1.3.83,2.54,1.23,3.83,0.13,0.32.17,0.62,0.29,0.93v-7.16c1.23,0.23,2.4.45,3.64,0.71V310h0Z" transform="translate(-360.58 -266.34)"/><path class="cls-2" d="M434.52,299.63v-0.36l2.49,0.67a1.75,1.75,0,0,0,1.94-.42,2.1,2.1,0,0,0,.45-0.92c0-.06,0-0.12,0-0.19s0-.2,0-0.3c0-.27,0-0.54,0-0.8h0l-0.19-.06-0.46-.15-0.07,0c-1.64-.49-4-1.11-5.25-1.42l-0.79-.2h0c-1.5-.36-2.46.12-2.7,1.18,0,0.12-.17,1.48-0.15,2.44a5.75,5.75,0,0,0,.19,1.75,6.23,6.23,0,0,0,3.26,3.17l0.12,0.05a0.09,0.09,0,0,1,.06,0c0,0.48,0,3.75,0,4.68l-1.38-.33-1.86-.44h0v3c1.67,0.37,3.19.75,4.87,1.18h0c1.77,0.38,2.89,0,3.41-1a1.25,1.25,0,0,0,.11-0.41v0c0-.6,0-1.81,0-3.07v-0.15c0-1.17,0-2.29,0-3,0-.06,0-0.12,0-0.18s0-.18,0-0.26a2.53,2.53,0,0,0-.89-1.62,4.67,4.67,0,0,0-.73-0.6c-0.2-.16-0.44-0.31-0.64-0.46l-0.1-.07L435.6,301a2,2,0,0,1-1.08-1.41m1.32,2.28,0.73,0.5,0.62,0.51a1.82,1.82,0,0,1,.63,1.1c0.07,1.12,0,6.17,0,6.61a0.35,0.35,0,0,1-.07.22c-0.4.89-1.24,1.15-2.75,0.74s-2.75-.69-4.14-1v-1.8c1.08,0.25,2.16.5,3.24,0.78,0-1.89,0-3.71,0-5.59a1.08,1.08,0,0,0-.34-0.33l-0.34-.18a5.08,5.08,0,0,1-2.79-2.69,14.75,14.75,0,0,1-.05-3.62,1.38,1.38,0,0,1,0-.24c0.21-.82.91-1.06,2-0.79,0,0,4.74,1.23,6,1.6,0,0.2,0,.41,0,0.62a1.78,1.78,0,0,1-.33.68,1.23,1.23,0,0,1-1.33.29c-1.07-.29-2.13-0.58-3.21-0.85v1c0,1.08,1.07,1.79,2,2.46" transform="translate(-360.58 -266.34)"/><path class="cls-2" d="M404.45,292.27a2.71,2.71,0,0,0,0-.58l-0.67,0c-3-.06-5.89,0-8.87.1l-0.79,0v3.39c0.88,0,1.7-.09,2.62-0.11v12.77c1.76-.06,3.46-0.08,5.22-0.06V295a3,3,0,0,0,1.63-.61,2.52,2.52,0,0,0,.7-1,2.87,2.87,0,0,0,.2-1v-0.1h0Zm-3.26,2.12v12.79c-1.27,0-2.51,0-3.79,0V294.45c-0.88,0-1.7,0-2.62.09v-2.16c3-.15,5.91-0.17,8.95-0.1,0,0,.21,2.25-2.55,2.11" transform="translate(-360.58 -266.34)"/><path class="cls-2" d="M362.26,297.44a1.18,1.18,0,0,0-.23.71,2.6,2.6,0,0,0,.3,1.12,1.89,1.89,0,0,0,2.09.67v12.81c1.75-.5,3.48-0.92,5.23-1.33h0V305c1-.23,1.87-0.43,2.83-0.64a3.94,3.94,0,0,0,3.43-4v-0.24c0-.1,0-0.19,0-0.29,0-2.27,0-3.77-.53-4.58l-0.08-.11,0,0-0.07-.08h0l-0.09-.08h0a2.76,2.76,0,0,0-2.12-.4l-0.15,0h0l-0.26.05h-0.07l-1,.22-0.19,0-1.44.33-0.57.14-0.17,0-1.35.34-1.37.35-0.21.05q-1.85.49-3.74,1c-0.08.09-.14,0.17-0.21,0.26m0.52,0.27c3.39-1,6.64-1.81,10-2.54,2.25-.22,2.4.45,2.4,4.77,0,0.12,0,.22,0,0.32v0.23a3.1,3.1,0,0,1-2.71,3.23c-1.2.27-2.34,0.52-3.55,0.81V311c-1.28.3-2.53,0.62-3.8,1,0-4.31,0-8.46,0-12.77-2.75.8-2.36-1.45-2.36-1.45" transform="translate(-360.58 -266.34)"/><path class="cls-2" d="M371.34,302.21c0-.07,0-0.16,0-0.24,0-.79,0-2.6,0-2.6,0-.17,0-0.34,0-0.51a2.42,2.42,0,0,0,0-.52,0.75,0.75,0,0,0-.92-0.51,5.68,5.68,0,0,0-.69.14c-0.27,0-.55.12-0.83,0.19v4.66c0.68-.17,1.31-0.32,2-0.47l0.47-.13M369.6,302V298.6l0.24-.05,0.48-.09a0.24,0.24,0,0,1,.33.19c0,0.1,0,2.73,0,3.13l-1.06.24" transform="translate(-360.58 -266.34)"/><path class="cls-3" d="M377.7,309.14c1.24-.22,2.42-0.39,3.65-0.59V293.65c-1.23.19-2.43,0.37-3.67,0.59,0,5,0,9.86,0,14.9" transform="translate(-360.58 -266.34)"/><path class="cls-3" d="M386.5,293a0.71,0.71,0,0,0-.17,0,2,2,0,0,0-2,1.5,0.63,0.63,0,0,0,0,.25,14.58,14.58,0,0,0,0,3.61c0.49,1.12,1.48,1.49,2.79,1.7a3.33,3.33,0,0,1,.35.05,0.54,0.54,0,0,1,.34.22c0,1.89,0,3.69,0,5.58-1.08.1-2.12,0.22-3.25,0.37,0,0.6,0,1.19,0,1.8,1.4-.18,2.71-0.35,4.14-0.47,1.24-.17,2.24-0.49,2.68-1.51a3.54,3.54,0,0,0,.14-0.88s0-5,0-6.12a1.16,1.16,0,0,0-.62-0.89,4.25,4.25,0,0,0-.62-0.29l-0.72-.25c-1-.32-2-0.66-2-1.74v-1c1.09-.12,2.13-0.2,3.21-0.29a1.7,1.7,0,0,0,1.35-.8,2.28,2.28,0,0,0,.3-0.77,1.49,1.49,0,0,0,0-.62c-1.08.06-5.11,0.4-5.87,0.5" transform="translate(-360.58 -266.34)"/><path class="cls-2" d="M410.61,291.86h0a11.54,11.54,0,0,0-2.69,0,6.18,6.18,0,0,0-.8.18,3.44,3.44,0,0,0-2.58,3.66v9c0,3.24,3.23,3.49,5.35,3.65,2.63,0.17,4.38-.18,5.33-1.06a2.63,2.63,0,0,0,.84-2s0-.38,0-0.38v-9a4.62,4.62,0,0,0-.45-2.08c-0.89-1.72-3-1.89-5-2M415.34,305c0,0.12,0,.25,0,0.37,0,2.05-2.38,2.5-5.38,2.31s-4.66-.69-4.68-2.92v-9a2.85,2.85,0,0,1,2.76-3.13,11.06,11.06,0,0,1,2.52,0c2.76,0.22,4.76.41,4.79,3.4v9h0Z" transform="translate(-360.58 -266.34)"/><path class="cls-2" d="M410.07,294.72a4.17,4.17,0,0,0-.68,0,0.51,0.51,0,0,1-.13.1,3.69,3.69,0,0,0-.13,1,7.48,7.48,0,0,0,0,.95v6.39c0,0.85,0,1.63,1.48,1.75a5.65,5.65,0,0,0,.76,0l0.13-.1c0-.19,0-0.36.08-0.56s0-.37,0-0.55v-6.32c0-2.1,0-2.51-1.5-2.64m0.77,9s0,0.38,0,.47h-0.18c-0.7-.06-0.8-0.18-0.8-0.66,0-.1,0-0.21,0-0.34v-6.91a3.47,3.47,0,0,1,0-.36v-0.09a2.51,2.51,0,0,1,0-.34H410a1.35,1.35,0,0,1,.72.18,6.24,6.24,0,0,1,.12,1.74v6.32h0Z" transform="translate(-360.58 -266.34)"/><path class="cls-3" d="M410.55,292.59a11.06,11.06,0,0,0-2.52,0,2.85,2.85,0,0,0-2.76,3.13v9c0,2.23,1.76,2.69,4.68,2.92s5.36-.26,5.38-2.31c0-.12,0-0.25,0-0.37v-9c0-3-2-3.18-4.79-3.4m1,11.1c0,0.19,0,.37,0,0.55s0,0.37-.08.56l-0.13.1a5.65,5.65,0,0,1-.76,0c-1.49-.12-1.51-0.91-1.48-1.76v-6.39a7.49,7.49,0,0,1,0-.95,3.69,3.69,0,0,1,.13-1,0.52,0.52,0,0,0,.13-0.1,4.17,4.17,0,0,1,.68,0c1.49,0.13,1.5.55,1.5,2.65v6.32h0Z" transform="translate(-360.58 -266.34)"/><path class="cls-3" d="M424.34,301.52c-0.12-.31-0.17-0.61-0.29-0.93-0.39-1.29-.79-2.53-1.23-3.83a5.25,5.25,0,0,0-5-3.42c0,5,0,9.87,0,14.92,1.24,0.16,2.35.33,3.59,0.51v-6.53c1,2.37,1.91,4.64,2.87,7,1.28,0.22,2.45.46,3.69,0.71V295.07c-1.24-.26-2.41-0.48-3.64-0.71v7.16h0Z" transform="translate(-360.58 -266.34)"/><path class="cls-3" d="M433.8,299.45v-1c1.08,0.27,2.13.55,3.21,0.85a1.23,1.23,0,0,0,1.33-.29,1.78,1.78,0,0,0,.33-0.68c0-.21,0-0.42,0-0.62-1.27-.37-6-1.6-6-1.6-1.13-.28-1.83,0-2,0.79a1.53,1.53,0,0,0,0,.24,14.75,14.75,0,0,0,.05,3.62,5.09,5.09,0,0,0,2.79,2.69l0.34,0.18a1.09,1.09,0,0,1,.34.33c0,1.89,0,3.7,0,5.59-1.08-.28-2.16-0.53-3.24-0.78v1.8c1.39,0.33,2.74.64,4.13,1s2.35,0.15,2.75-.74a0.35,0.35,0,0,0,.07-0.22c0-.44,0-5.49,0-6.61a1.83,1.83,0,0,0-.63-1.1l-0.62-.51-0.73-.5c-1-.67-2-1.38-2-2.46" transform="translate(-360.58 -266.34)"/><path class="cls-3" d="M394.78,292.39v2.15c0.92,0,1.74-.07,2.62-0.09v12.77c1.28,0,2.51-.05,3.79,0V294.39c2.75,0.14,2.55-2.11,2.55-2.11-3-.07-5.92,0-8.95.1" transform="translate(-360.58 -266.34)"/><path class="cls-3" d="M365.13,299.17c0,4.32,0,8.47,0,12.77,1.27-.34,2.53-0.67,3.8-1v-6.44c1.2-.29,2.35-0.54,3.55-0.81a3.1,3.1,0,0,0,2.71-3.23v-0.23c0-.1,0-0.2,0-0.32,0-4.32-.15-5-2.4-4.77-3.4.73-6.65,1.56-10,2.54,0,0-.39,2.26,2.36,1.45m3.75-1c0.28-.07.56-0.14,0.83-0.19a5.67,5.67,0,0,1,.69-0.14,0.76,0.76,0,0,1,.92.51,2.42,2.42,0,0,1,0,.52c0,0.18,0,.34,0,0.51,0,0,0,1.67,0,2.6,0,0.08,0,.17,0,0.24l-0.47.13c-0.68.15-1.3,0.3-2,.47v-4.66h0Z" transform="translate(-360.58 -266.34)"/></svg>