<svg id="Layer_1" data-name="Layer 1" xmlns="http://www.w3.org/2000/svg" viewBox="0 0 78.94 96.71"><defs><style>.cls-1{fill:#1a64b7;}.cls-2{fill:#fbbf16;}</style></defs><title>golden-state-warriors</title><g id="layer1"><g id="g5225"><g id="g3199"><path id="path3201" class="cls-1" d="M370.11,330.47l-5.32,2.68a1.67,1.67,0,0,0-.5.27,0.54,0.54,0,0,0,.09.68l-0.15.17-2.3-2.06,0.15-.17a0.47,0.47,0,0,0,.66,0,3,3,0,0,0,.27-0.6l2.66-7.11a2.33,2.33,0,0,0,.2-0.78,0.81,0.81,0,0,0-.19-0.5l0.16-.17,2.49,2.22-0.15.16a0.46,0.46,0,0,0-.61,0,1.64,1.64,0,0,0-.22.42l-2,5,4.93-2.44a1.56,1.56,0,0,0,.39-0.23,0.45,0.45,0,0,0-.08-0.63l0.16-.17,2.59,2.33-0.15.17a0.5,0.5,0,0,0-.66,0,1.42,1.42,0,0,0-.2.4l-1.92,5.09,4.74-2.46a1.7,1.7,0,0,0,.48-0.32,0.48,0.48,0,0,0-.1-0.64l0.14-.17,2.46,2.2L378,334a1,1,0,0,0-.53-0.13,2.34,2.34,0,0,0-.73.29L370,337.63a2.13,2.13,0,0,0-.59.37,0.46,0.46,0,0,0,.08.65l-0.14.17L367,336.74l0.15-.17a0.48,0.48,0,0,0,.69,0,2.83,2.83,0,0,0,.25-0.61l2-5.46" transform="translate(-360.53 -251.65)"/></g><g id="g3203"><path id="path3205" class="cls-1" d="M367.09,336.73l2.22,2,0.06-.06a0.69,0.69,0,0,1-.16-0.41,0.43,0.43,0,0,1,.11-0.29,2.5,2.5,0,0,1,.61-0.39l6.77-3.44a2.84,2.84,0,0,1,.75-0.31h0.08a1,1,0,0,1,.45.13l0.06-.07-2.34-2.1-0.06.07a0.76,0.76,0,0,1,.17.42,0.43,0.43,0,0,1-.1.27,1.66,1.66,0,0,1-.5.33l-4.91,2.55,2-5.27a1.91,1.91,0,0,1,.21-0.41,0.43,0.43,0,0,1,.35-0.16,0.85,0.85,0,0,1,.35.09l0.06-.07-2.48-2.22-0.06.06a0.68,0.68,0,0,1,.14.38,0.37,0.37,0,0,1-.11.28,1.54,1.54,0,0,1-.41.26l-5.11,2.52,2-5.22a1.24,1.24,0,0,1,.25-0.44,0.38,0.38,0,0,1,.32-0.16,0.69,0.69,0,0,1,.32.09l0.06-.07L365.84,323l-0.06.07a0.87,0.87,0,0,1,.17.5,2.76,2.76,0,0,1-.2.81l-2.67,7.11a2.89,2.89,0,0,1-.29.63,0.51,0.51,0,0,1-.37.18,0.72,0.72,0,0,1-.33-0.1l-0.06.07,2.2,2,0.05-.07a0.93,0.93,0,0,1-.15-0.45,0.47,0.47,0,0,1,.11-0.29,2,2,0,0,1,.52-0.29l5.32-2.67,0.17-.09L368.15,336a2.63,2.63,0,0,1-.27.64,0.53,0.53,0,0,1-.36.18,0.69,0.69,0,0,1-.36-0.11Zm-0.21,0,0-.06,0.19-.22,0.06,0a0.61,0.61,0,0,0,.33.12,0.31,0.31,0,0,0,.25-0.12,2,2,0,0,0,.25-0.59l2-5.28-5.15,2.59a2,2,0,0,0-.48.25,0.26,0.26,0,0,0-.07.18,0.77,0.77,0,0,0,.17.41l0,0,0,0-0.21.22-2.4-2.16,0-.05,0.19-.21,0.06,0a0.6,0.6,0,0,0,.31.1,0.36,0.36,0,0,0,.26-0.13,3.28,3.28,0,0,0,.26-0.58l2.67-7.11a2.68,2.68,0,0,0,.19-0.75,0.73,0.73,0,0,0-.18-0.46l0-.05,0,0,0.2-.23,2.6,2.32,0,0.05-0.18.21-0.06,0a0.61,0.61,0,0,0-.3-0.09,0.24,0.24,0,0,0-.21.09,1.36,1.36,0,0,0-.21.39l-1.9,4.87,4.76-2.35a1.18,1.18,0,0,0,.36-0.22,0.23,0.23,0,0,0,.07-0.18,0.63,0.63,0,0,0-.15-0.35l0,0,0-.05,0.19-.22,2.72,2.42-0.06.05-0.19.22,0,0a0.77,0.77,0,0,0-.34-0.1,0.28,0.28,0,0,0-.23.1,1.39,1.39,0,0,0-.18.38l-1.86,4.9,4.56-2.37a1.86,1.86,0,0,0,.46-0.3,0.27,0.27,0,0,0,.06-0.17,0.67,0.67,0,0,0-.17-0.37l0-.06,0-.05,0.2-.22,2.57,2.29,0,0.06-0.19.2,0,0a1,1,0,0,0-.44-0.13h-0.06a2.88,2.88,0,0,0-.71.28L370,337.7a2.48,2.48,0,0,0-.57.35,0.28,0.28,0,0,0-.08.19,0.63,0.63,0,0,0,.17.37l0,0,0,0.05-0.2.23-2.44-2.19" transform="translate(-360.53 -251.65)"/></g><g id="g3207"><path id="path3209" class="cls-1" d="M379.88,340.38l0.1-3.75L377.06,339Zm0,1.44-3.91-1.91-1.18.93a1.12,1.12,0,0,0-.31.34,0.5,0.5,0,0,0,.24.59l-0.11.2-2.84-1.4,0.09-.2a0.81,0.81,0,0,0,.47,0,1.77,1.77,0,0,0,.54-0.34l6.41-5.07a1.44,1.44,0,0,0,.39-0.43,0.5,0.5,0,0,0-.16-0.6l0.1-.2,3.06,1.49-0.11.2a0.45,0.45,0,0,0-.54.19,1,1,0,0,0-.09.47l0,8.25a2.47,2.47,0,0,0,.09.75,0.84,0.84,0,0,0,.33.41l-0.1.2-3.17-1.55,0.1-.21a0.45,0.45,0,0,0,.61-0.19,1,1,0,0,0,.06-0.46v-1.5" transform="translate(-360.53 -251.65)"/></g><g id="g3211"><path id="path3213" class="cls-1" d="M377.19,339l2.6,1.28,0.1-3.48Zm2.68,1.4,0-.07Zm-3-1.36,3.13-2.55-0.1,3.91v0.12Zm2.24,5.11,3,1.49,0-.08a1,1,0,0,1-.3-0.41,2.46,2.46,0,0,1-.08-0.78l0-8.22a0,0,0,0,1,0,0,1,1,0,0,1,.09-0.51,0.46,0.46,0,0,1,.45-0.25c0.05,0,.11,0,0.09.06l0.07-.14-2.91-1.43,0,0.09a0.61,0.61,0,0,1,.18.42,0.56,0.56,0,0,1,0,.22,1.39,1.39,0,0,1-.42.46l-6.41,5.06a2,2,0,0,1-.56.36,0.69,0.69,0,0,1-.22,0,0.83,0.83,0,0,1-.23,0l0,0.08,2.72,1.33,0-.09a0.67,0.67,0,0,1-.25-0.45,0.46,0.46,0,0,1,0-.19,1.27,1.27,0,0,1,.34-0.37l1.25-.93,3.91,1.91,0,0.07h0.07v1.5a1.11,1.11,0,0,1-.07.49,0.46,0.46,0,0,1-.44.27l-0.2,0Zm-0.2.07,0-.06,0.13-.26,0,0,0.23,0a0.33,0.33,0,0,0,.31-0.18,1.36,1.36,0,0,0,0-.43v-1.46L376,340l-1.17.93a1.21,1.21,0,0,0-.3.31,0.26,0.26,0,0,0,0,.12,0.54,0.54,0,0,0,.25.38l0,0,0,0.05-0.14.27-3-1.46,0-.07,0.13-.25,0.06,0a1,1,0,0,0,.25,0l0.18,0a1.93,1.93,0,0,0,.52-0.34l6.41-5.07a1.5,1.5,0,0,0,.38-0.4,0.34,0.34,0,0,0,0-.15,0.51,0.51,0,0,0-.19-0.36l0,0,0,0,0.13-.27,3.2,1.56,0,0.07-0.19.24-0.15,0a0.33,0.33,0,0,0-.32.17,1.06,1.06,0,0,0-.08.44h0l0,8.24a2.52,2.52,0,0,0,.08.73,0.79,0.79,0,0,0,.3.37l0,0,0,0.06-0.13.27L379,344.2" transform="translate(-360.53 -251.65)"/></g><g id="g3215"><path id="path3217" class="cls-1" d="M387,341.16l3.16,0.66a6.92,6.92,0,0,0,1,.16,1.32,1.32,0,0,0,.56-0.06,1.26,1.26,0,0,0,.43-2,1.6,1.6,0,0,0-.49-0.29,7.65,7.65,0,0,0-1-.24l-3.17-.67Zm-0.33,1.54-0.64,3.12a0.43,0.43,0,0,0,0,.33,0.68,0.68,0,0,0,.3.25l0,0.22-2.93-.62,0-.22a0.72,0.72,0,0,0,.38-0.1,0.51,0.51,0,0,0,.17-0.3l1.66-8a0.46,0.46,0,0,0,0-.34,0.72,0.72,0,0,0-.3-0.25l0-.21,5.87,1.23a9.37,9.37,0,0,1,1.68.48,3.15,3.15,0,0,1,1,.66,2.23,2.23,0,0,1,.61,1.14,3.07,3.07,0,0,1,0,1.32c-0.31,1.53-1.35,2.25-3.11,2.15l1.28,3a5.71,5.71,0,0,0,.52,1,0.89,0.89,0,0,0,.51.33l-0.06.22-3.39-.7,0-.22c0.24,0,.38,0,0.4-0.17a1.92,1.92,0,0,0-.2-0.67l-1.32-3.16-2.51-.52" transform="translate(-360.53 -251.65)"/></g><g id="g3219"><path id="path3221" class="cls-1" d="M390.2,341.74a8.66,8.66,0,0,0,1,.17h0.11a1.5,1.5,0,0,0,.42-0.07,1,1,0,0,0,.69-0.85,2,2,0,0,0,0-.32,0.86,0.86,0,0,0-.32-0.72,1.72,1.72,0,0,0-.46-0.28,7.18,7.18,0,0,0-1-.23l-3.09-.65-0.49,2.31Zm1,0.31a7.85,7.85,0,0,1-1-.17l-3.16-.66-0.08,0,0.54-2.61,3.24,0.68a8.74,8.74,0,0,1,1,.25,1.51,1.51,0,0,1,.51.3,1,1,0,0,1,.37.84,1.63,1.63,0,0,1,0,.36,1.18,1.18,0,0,1-.79,1,1.89,1.89,0,0,1-.47.06h-0.12m-4.5.72v0Zm3.68,4.62,3.25,0.67V348a1,1,0,0,1-.46-0.34,5.41,5.41,0,0,1-.53-1l-1.33-3.08h0.41a2.47,2.47,0,0,0,2.75-2.1,3.44,3.44,0,0,0,.07-0.68,2.62,2.62,0,0,0-.06-0.61,2.25,2.25,0,0,0-.58-1.11,3.08,3.08,0,0,0-1-.64,9.54,9.54,0,0,0-1.66-.48l-5.83-1.22,0,0.07a0.83,0.83,0,0,1,.33.28,0.57,0.57,0,0,1,.05.24c0,0.06,0,.11,0,0.16l-1.67,8a0.56,0.56,0,0,1-.2.34,0.34,0.34,0,0,1-.35.06l0,0.15,2.81,0.59,0-.07a0.81,0.81,0,0,1-.34-0.28A0.52,0.52,0,0,1,386,346a1.23,1.23,0,0,1,0-.15l0.65-3.11,0-.07,2.63,0.58,1.32,3.16a2.31,2.31,0,0,1,.21.66v0a0.37,0.37,0,0,1-.42.23v0.09Zm-0.18.12v-0.07l0.12-.28h0.06c0.19,0,.26,0,0.27-0.1v0a2.2,2.2,0,0,0-.2-0.61l-1.27-3.12-2.43-.51-0.64,3.05a0.61,0.61,0,0,0,0,.11,0.41,0.41,0,0,0,0,.17,1.8,1.8,0,0,0,.31.29l-0.06.3-3.07-.65V346l0.12-.28a0.67,0.67,0,0,0,.34-0.09,0.49,0.49,0,0,0,.14-0.25l1.66-8a1.23,1.23,0,0,0,0-.13,0.28,0.28,0,0,0,0-.16,1.21,1.21,0,0,0-.32-0.3l0.07-.29,5.94,1.24a10.93,10.93,0,0,1,1.69.48,3.22,3.22,0,0,1,1,.69,2.33,2.33,0,0,1,.63,1.17,3.39,3.39,0,0,1,.06.64,3.69,3.69,0,0,1-.07.71,2.61,2.61,0,0,1-2.89,2.22h-0.18l1.23,2.87a5.69,5.69,0,0,0,.52,1,0.79,0.79,0,0,0,.45.3l0.07,0V348l-0.06.29-3.54-.73" transform="translate(-360.53 -251.65)"/></g><g id="g3223"><path id="path3225" class="cls-1" d="M398.28,342.77l3.23-.13a7.52,7.52,0,0,0,1-.08,1.58,1.58,0,0,0,.54-0.2,1.28,1.28,0,0,0-.07-2.09,1.74,1.74,0,0,0-.55-0.15,8.36,8.36,0,0,0-1,0l-3.23.12Zm0.06,1.57,0.13,3.18a0.47,0.47,0,0,0,.11.32,0.7,0.7,0,0,0,.35.16v0.23l-3,.11v-0.23a0.76,0.76,0,0,0,.35-0.2,0.46,0.46,0,0,0,.08-0.33l-0.32-8.11a0.49,0.49,0,0,0-.11-0.33,0.75,0.75,0,0,0-.36-0.17v-0.22l6-.24a8.61,8.61,0,0,1,1.74.06,3.15,3.15,0,0,1,1.13.39,2.24,2.24,0,0,1,.87,1,3.38,3.38,0,0,1,.31,1.28c0.06,1.56-.77,2.51-2.5,2.84l2,2.58a5.14,5.14,0,0,0,.75.87,0.88,0.88,0,0,0,.57.2v0.22l-3.45.13v-0.21a0.34,0.34,0,0,0,.35-0.27A1.84,1.84,0,0,0,403,347l-2.05-2.75-2.56.1" transform="translate(-360.53 -251.65)"/></g><g id="g3227"><path id="path3229" class="cls-1" d="M401.42,340.2l-3.16,0,0.1,2.44,3.15-.13a8.59,8.59,0,0,0,1-.08,1.57,1.57,0,0,0,.51-0.18,1,1,0,0,0,.45-0.92V341.3a1,1,0,0,0-.53-1,1.5,1.5,0,0,0-.52-0.15l-0.38,0-0.62,0m-3.14,2.57h-0.07l0-2.59,3.23-.13h1a1.75,1.75,0,0,1,.57.17,1.16,1.16,0,0,1,.62,1.09v0.08a1.13,1.13,0,0,1-.53,1,1.49,1.49,0,0,1-.56.21q-0.3,0-1,.08l-3.24.12v-0.07Zm5,4.82h0m-7.28.7,2.92,0,0-.16a0.66,0.66,0,0,1-.39-0.18,0.53,0.53,0,0,1-.14-0.37l-0.12-3.18h0.07v-0.08l2.62-.06,2,2.74a1.26,1.26,0,0,1,.34.65h0a0.27,0.27,0,0,1-.34.26L403,348l3.39-.06,0.07-.15a1,1,0,0,1-.62-0.21,7.47,7.47,0,0,1-.77-0.88L403,344l0.12,0c1.64-.33,2.43-1.18,2.44-2.62a0.94,0.94,0,0,0,0-.16,3.1,3.1,0,0,0-.3-1.25,2.18,2.18,0,0,0-.83-0.93,3.09,3.09,0,0,0-1.11-.39,7.52,7.52,0,0,0-1.14-.07l-0.6,0-5.93.16,0,0.16a0.89,0.89,0,0,1,.4.18,0.57,0.57,0,0,1,.13.38l0.32,8.13v0a0.54,0.54,0,0,1-.1.34,0.38,0.38,0,0,1-.33.15Zm0-.22a0.68,0.68,0,0,0,.31-0.17,0.34,0.34,0,0,0,.08-0.25,0,0,0,0,1,0,0L396,339.49a0.4,0.4,0,0,0-.09-0.27,1.44,1.44,0,0,0-.38-0.22l0.06-.3,6-.24h0.6a8,8,0,0,1,1.15.07,3.11,3.11,0,0,1,1.17.41,2.34,2.34,0,0,1,.9,1,3.44,3.44,0,0,1,.31,1.32c0,0.05,0,.11,0,0.16a2.66,2.66,0,0,1-2.45,2.74l1.9,2.48a6,6,0,0,0,.74.85,1.44,1.44,0,0,0,.6.26l-0.07.31-3.54.06,0-.3c0.23,0,.29-0.12.29-0.19s0,0,0,0a2.05,2.05,0,0,0-.34-0.55l-2-2.71-2.48.1,0.12,3.1a0.4,0.4,0,0,0,.1.28,1.1,1.1,0,0,0,.37.21l-0.06.31-3.08,0,0-.3" transform="translate(-360.53 -251.65)"/></g><g id="g3231"><path id="path3233" class="cls-1" d="M408.53,346.53l-1.75-7.93a0.47,0.47,0,0,0-.17-0.29,0.68,0.68,0,0,0-.39-0.11l0-.22,2.92-.64,0.05,0.22a0.72,0.72,0,0,0-.31.25,0.54,0.54,0,0,0,0,.35l1.75,7.92a0.45,0.45,0,0,0,.17.31,0.64,0.64,0,0,0,.37.1l0.05,0.22-2.93.64,0-.22a0.68,0.68,0,0,0,.31-0.26,0.48,0.48,0,0,0,0-.34" transform="translate(-360.53 -251.65)"/></g><g id="g3235"><path id="path3237" class="cls-1" d="M408.62,346.68a0.47,0.47,0,0,1,0,.22,0.37,0.37,0,0,1-.29.2l0,0.14,2.8-.62v-0.08a0.77,0.77,0,0,1-.42-0.11,0.55,0.55,0,0,1-.2-0.35l-1.74-7.93a0.6,0.6,0,0,1,0-.17,0.56,0.56,0,0,1,.05-0.23,0.36,0.36,0,0,1,.3-0.2l0-.14-2.8.61v0.08a0.7,0.7,0,0,1,.42.12,0.53,0.53,0,0,1,.2.33l1.75,7.94-0.08,0,0.08,0a0.88,0.88,0,0,1,0,.17m-0.44.68v-0.31a0.65,0.65,0,0,0,.28-0.22,0.36,0.36,0,0,0,0-.16,1.34,1.34,0,0,0,0-.14l-1.75-7.94a0.39,0.39,0,0,0-.13-0.24,1.61,1.61,0,0,0-.42-0.15l-0.06-.3,3.07-.68,0,0.07v0.3a0.67,0.67,0,0,0-.27.22,0.3,0.3,0,0,0,0,.15,0.6,0.6,0,0,0,0,.13l1.75,7.93a0.4,0.4,0,0,0,.15.26,1.18,1.18,0,0,0,.4.15l0.07,0.29-3.07.68,0-.07" transform="translate(-360.53 -251.65)"/></g><g id="g3239"><path id="path3241" class="cls-1" d="M415.3,336.74a3.24,3.24,0,0,0-1.8,4.39,3.22,3.22,0,0,0,2,1.89,3.33,3.33,0,0,0,2.43-.16,3.25,3.25,0,0,0,1.79-1.65,3.18,3.18,0,0,0,.3-1.42,3.42,3.42,0,0,0-.27-1.29,3.23,3.23,0,0,0-2-1.93,3.47,3.47,0,0,0-2.44.16m-0.65-1.5a5.67,5.67,0,0,1,4.2-.32,5,5,0,0,1,3.18,5.43,5.21,5.21,0,0,1-3.47,4,5.64,5.64,0,0,1-4.17.3,4.65,4.65,0,0,1-1.78-1.12,5.18,5.18,0,0,1-1.07-1.59,4.9,4.9,0,0,1-.35-2.71,5.24,5.24,0,0,1,3.47-4" transform="translate(-360.53 -251.65)"/></g><g id="g3243"><path id="path3245" class="cls-1" d="M413.58,338.42a3,3,0,0,0-.3,1.31,3.46,3.46,0,0,0,.29,1.37,3.15,3.15,0,0,0,1.94,1.85,3,3,0,0,0,1,.16,3.74,3.74,0,0,0,1.42-.31,3.21,3.21,0,0,0,1.75-1.61,3,3,0,0,0,.29-1.35v0a3.47,3.47,0,0,0-2.22-3.14,3.17,3.17,0,0,0-1-.15,3.76,3.76,0,0,0-1.44.3,3.27,3.27,0,0,0-1.75,1.61m1.89,4.67a3.28,3.28,0,0,1-2-1.93,3.54,3.54,0,0,1-.31-1.43,3.13,3.13,0,0,1,.32-1.38,3.39,3.39,0,0,1,1.81-1.68l0,0.07,0-.07a3.81,3.81,0,0,1,1.5-.32,3.33,3.33,0,0,1,1,.16,3.29,3.29,0,0,1,2.05,2,3.41,3.41,0,0,1,.28,1.34v0a3.29,3.29,0,0,1-.3,1.41,3.34,3.34,0,0,1-1.82,1.69,3.82,3.82,0,0,1-1.48.32,3.18,3.18,0,0,1-1-.17m-0.78-7.78c-2,.9-3.16,2.21-3.42,3.95a3.77,3.77,0,0,0-.06.73,5,5,0,0,0,1.46,3.51,4.73,4.73,0,0,0,3.33,1.37,6.51,6.51,0,0,0,2.53-.57,5.1,5.1,0,0,0,3.43-4,4.83,4.83,0,0,0,.06-0.78,4.89,4.89,0,0,0-3.2-4.55,4.5,4.5,0,0,0-1.57-.27,6.69,6.69,0,0,0-2.56.58h0Zm-0.32,9.43a4.73,4.73,0,0,1-1.81-1.14A5.17,5.17,0,0,1,411,340a4.59,4.59,0,0,1,.06-0.76,5.3,5.3,0,0,1,3.51-4.06,6.69,6.69,0,0,1,2.62-.59,4.72,4.72,0,0,1,1.62.28,4.84,4.84,0,0,1,2.92,2.8,4.94,4.94,0,0,1,.39,1.9,5.79,5.79,0,0,1-.06.81,5.26,5.26,0,0,1-3.52,4.07,6.65,6.65,0,0,1-2.6.59,4.78,4.78,0,0,1-1.63-.28" transform="translate(-360.53 -251.65)"/></g><g id="g3247"><path id="path3249" class="cls-1" d="M424.14,334.93l2.55-2a7.73,7.73,0,0,0,.78-0.65,1.63,1.63,0,0,0,.32-0.47,1.27,1.27,0,0,0-1.27-1.65,1.53,1.53,0,0,0-.54.19c-0.16.1-.43,0.29-0.82,0.59l-2.56,2Zm1,1.25,2,2.52a0.48,0.48,0,0,0,.27.19,0.68,0.68,0,0,0,.39-0.07l0.14,0.18-2.37,1.83-0.14-.17a0.76,0.76,0,0,0,.16-0.37,0.48,0.48,0,0,0-.11-0.32l-5-6.42a0.49,0.49,0,0,0-.28-0.21,0.9,0.9,0,0,0-.39.07l-0.14-.17,4.75-3.66a9.91,9.91,0,0,1,1.45-1,3.13,3.13,0,0,1,1.16-.33,2.26,2.26,0,0,1,1.26.28,3.33,3.33,0,0,1,1,.87c0.95,1.24.82,2.5-.4,3.77l3.1,1a6.72,6.72,0,0,0,1.11.27,1,1,0,0,0,.58-0.17l0.14,0.17L431,336.55l-0.13-.18c0.17-.17.21-0.31,0.13-0.41a1.7,1.7,0,0,0-.64-0.28l-3.27-1.05-2,1.56" transform="translate(-360.53 -251.65)"/></g><g id="g3251"><path id="path3253" class="cls-1" d="M426.53,330.27a1.35,1.35,0,0,0-.5.17,8,8,0,0,0-.82.59l-2.5,1.92,1.44,1.88,2.5-1.93a6.37,6.37,0,0,0,.76-0.65,1.52,1.52,0,0,0,.31-0.45,1,1,0,0,0,.08-0.36,1.19,1.19,0,0,0-.28-0.71,1.07,1.07,0,0,0-.85-0.48,0.51,0.51,0,0,0-.15,0m-2.39,4.66,0.06,0Zm-1.64-2,2.61-2a10.19,10.19,0,0,1,.83-0.59,1.43,1.43,0,0,1,.56-0.19,0.59,0.59,0,0,1,.17,0,1.19,1.19,0,0,1,1,.54,1.36,1.36,0,0,1,.31.8,1,1,0,0,1-.09.43,1.74,1.74,0,0,1-.34.5,8.81,8.81,0,0,1-.78.66l-2.56,2-0.07,0Zm3,7.8,2.25-1.73-0.06-.08a0.85,0.85,0,0,1-.29.06h-0.08a0.5,0.5,0,0,1-.31-0.22L425,336.23l-0.05-.06,2.16-1.61,3.27,1a1.75,1.75,0,0,1,.67.31,0.23,0.23,0,0,1,.06.16,0.52,0.52,0,0,1-.14.31l0,0.07,2.62-2-0.05-.07a1.06,1.06,0,0,1-.5.13h-0.06a5.31,5.31,0,0,1-1.13-.27l-3.21-1,0.08-.08a3.07,3.07,0,0,0,1-2.07,2.62,2.62,0,0,0-.61-1.59,3.47,3.47,0,0,0-1-.85,2.14,2.14,0,0,0-1.07-.28H427a3,3,0,0,0-1.13.34,8.65,8.65,0,0,0-1.45.95l-4.69,3.62,0.06,0.07a0.78,0.78,0,0,1,.29-0.06h0.09a0.57,0.57,0,0,1,.33.23l5,6.43a0.59,0.59,0,0,1,.13.34v0a0.74,0.74,0,0,1-.15.36Zm-0.07.16-0.17-.23,0,0a0.69,0.69,0,0,0,.16-0.31h0a0.41,0.41,0,0,0-.11-0.25l-5-6.43a0.45,0.45,0,0,0-.24-0.18h-0.06a0.74,0.74,0,0,0-.29.07l-0.05,0,0,0-0.18-.23,4.81-3.71a9.26,9.26,0,0,1,1.47-1,3.06,3.06,0,0,1,1.18-.34h0.18a2.24,2.24,0,0,1,1.13.29,3.35,3.35,0,0,1,1,.89,2.77,2.77,0,0,1,.64,1.69,3.11,3.11,0,0,1-1,2.08l3,0.93a6.33,6.33,0,0,0,1.09.26h0.05a0.79,0.79,0,0,0,.48-0.15l0.07,0,0,0,0.19,0.24L431,336.65l0-.06-0.18-.24,0,0a0.44,0.44,0,0,0,.16-0.25,0.25,0.25,0,0,0,0-.06,1.86,1.86,0,0,0-.6-0.25l-3.2-1.07-2,1.52,1.9,2.46a0.43,0.43,0,0,0,.24.17h0a0.81,0.81,0,0,0,.29-0.07l0.05,0,0,0L428,339l-2.49,1.92,0-.05" transform="translate(-360.53 -251.65)"/></g><g id="g3255"><path id="path3257" class="cls-1" d="M433.85,320.54l1,2.32-0.21.08-0.08-.08a0.74,0.74,0,0,0-.66,0,5,5,0,0,0-2.52,1.73,4.19,4.19,0,0,0-.68,1.14,1.51,1.51,0,0,0-.1.79,0.87,0.87,0,0,0,.32.58,0.75,0.75,0,0,0,1,0,9.13,9.13,0,0,0,1.08-1l0.79-.79a9,9,0,0,1,1.22-1,3.74,3.74,0,0,1,1.08-.51,2.41,2.41,0,0,1,1.19,0,2.56,2.56,0,0,1,1.1.54,2.72,2.72,0,0,1,1,1.64,3.54,3.54,0,0,1-.34,2.09,7.31,7.31,0,0,1-1,1.71A8.49,8.49,0,0,1,434.9,332a2.07,2.07,0,0,0-.44.24,0.62,0.62,0,0,0-.06.32l-0.21.1L433,330.38l0.2-.1,0.07,0.06a0.81,0.81,0,0,0,.65.14,3.85,3.85,0,0,0,1.43-.67,5.9,5.9,0,0,0,1.37-1.21,3.81,3.81,0,0,0,.76-1.45,1.46,1.46,0,0,0,0-.74,1,1,0,0,0-.33-0.55,0.71,0.71,0,0,0-.85,0,6.1,6.1,0,0,0-1.12,1l-0.77.77c-0.52.51-.89,0.87-1.13,1.06a4.46,4.46,0,0,1-.82.49,2.32,2.32,0,0,1-1.38.18,2.52,2.52,0,0,1-1.22-.56,2.63,2.63,0,0,1-1-1.92,4.62,4.62,0,0,1,1.26-3.22,7.31,7.31,0,0,1,1.22-1.21,12.24,12.24,0,0,1,1.79-1.11,2.26,2.26,0,0,0,.43-0.29,0.58,0.58,0,0,0,.1-0.37l0.21-.09" transform="translate(-360.53 -251.65)"/></g><g id="g3259"><path id="path3261" class="cls-1" d="M433.11,330.42l1.12,2.17h0.09a0.63,0.63,0,0,1,.08-0.37,1.57,1.57,0,0,1,.46-0.26,8.47,8.47,0,0,0,3-2.33,7.24,7.24,0,0,0,1-1.69,4,4,0,0,0,.37-1.57,2.35,2.35,0,0,0,0-.48,2.69,2.69,0,0,0-2-2.12,2.69,2.69,0,0,0-.54-0.06,2.26,2.26,0,0,0-.59.08,3.88,3.88,0,0,0-1.06.51,8.57,8.57,0,0,0-1.22,1l-0.78.79a10.77,10.77,0,0,1-1.09,1,1.11,1.11,0,0,1-.6.21,0.7,0.7,0,0,1-.47-0.18,0.92,0.92,0,0,1-.34-0.63,1,1,0,0,1,0-.22,1.72,1.72,0,0,1,.12-0.6,4.4,4.4,0,0,1,.7-1.16,5,5,0,0,1,2.57-1.75,1.26,1.26,0,0,1,.41-0.07,0.44,0.44,0,0,1,.31.09s0.06,0,0,.06l0.14-.06-1-2.19h-0.09a0.69,0.69,0,0,1-.11.42,2.49,2.49,0,0,1-.46.3,14.66,14.66,0,0,0-1.78,1.09,8.49,8.49,0,0,0-1.21,1.21,4.73,4.73,0,0,0-1.25,2.92c0,0.07,0,.16,0,0.24a2.6,2.6,0,0,0,1,1.87,2.49,2.49,0,0,0,1.19.55l0.38,0a2.27,2.27,0,0,0,.94-0.21,3.88,3.88,0,0,0,.81-0.49,15.35,15.35,0,0,0,1.12-1l0.77-.77a6.43,6.43,0,0,1,1.13-1,0.94,0.94,0,0,1,.47-0.14,0.68,0.68,0,0,1,.46.18,1.07,1.07,0,0,1,.36.59,1.61,1.61,0,0,1,0,.37,1.77,1.77,0,0,1,0,.41,3.71,3.71,0,0,1-.77,1.47,6.24,6.24,0,0,1-1.39,1.23,3.85,3.85,0,0,1-1.46.67l-0.2,0a0.79,0.79,0,0,1-.5-0.16s0,0,0,0Zm-0.2-.07,0.07,0,0.29-.1a0.2,0.2,0,0,0,.07.06,0.6,0.6,0,0,0,.41.14h0.18a3.8,3.8,0,0,0,1.4-.65,6,6,0,0,0,1.36-1.2,3.72,3.72,0,0,0,.74-1.41,1.63,1.63,0,0,0,0-.38,1.48,1.48,0,0,0,0-.33,1,1,0,0,0-.31-0.5,0.57,0.57,0,0,0-.37-0.14,0.76,0.76,0,0,0-.4.12,6.58,6.58,0,0,0-1.09,1l-0.78.77c-0.51.52-.89,0.87-1.13,1.07a3.84,3.84,0,0,1-.84.5,2.3,2.3,0,0,1-1,.22,2.81,2.81,0,0,1-.4,0,2.66,2.66,0,0,1-1.26-.58,2.71,2.71,0,0,1-1.07-2c0-.09,0-0.17,0-0.25a4.89,4.89,0,0,1,1.29-3,7.31,7.31,0,0,1,1.24-1.22,13.44,13.44,0,0,1,1.8-1.12,2,2,0,0,0,.41-0.26,0.88,0.88,0,0,0,.12-0.39l0.21-.09,0.07,0,1.09,2.44-0.07,0-0.29.08-0.08-.08a0.36,0.36,0,0,0-.22-0.06,1.28,1.28,0,0,0-.37.06,4.94,4.94,0,0,0-2.49,1.72,4.32,4.32,0,0,0-.68,1.11,1.82,1.82,0,0,0-.1.55,1,1,0,0,0,0,.2,0.82,0.82,0,0,0,.28.53,0.6,0.6,0,0,0,.38.15,0.94,0.94,0,0,0,.51-0.19,8.1,8.1,0,0,0,1.06-1l0.79-.78a9,9,0,0,1,1.23-1.06,4.11,4.11,0,0,1,1.1-.53,2.57,2.57,0,0,1,1.22,0,2.71,2.71,0,0,1,1.14.56,2.77,2.77,0,0,1,1,1.68,2.24,2.24,0,0,1,.05.51,4.16,4.16,0,0,1-.38,1.63A7.3,7.3,0,0,1,438,329.7a8.5,8.5,0,0,1-3.1,2.37,3.85,3.85,0,0,0-.41.23,1.34,1.34,0,0,0-.08.35l-0.28.12-1.24-2.42" transform="translate(-360.53 -251.65)"/></g><g id="g3263"><path id="path3265" class="cls-1" d="M437.64,297.61a38.44,38.44,0,1,1-38.44-38.45,38.44,38.44,0,0,1,38.44,38.45" transform="translate(-360.53 -251.65)"/></g><g id="g3267"><path id="path3269" class="cls-2" d="M399.18,329.53a33.14,33.14,0,1,1,33.14-33.14,33.14,33.14,0,0,1-33.14,33.14m0-68.5a35.37,35.37,0,1,0,35.37,35.37A35.37,35.37,0,0,0,399.18,261" transform="translate(-360.53 -251.65)"/></g><g id="g3271"><path id="path3273" class="cls-2" d="M379.74,279.64s19.71,26.33,51,32.32l-5.65,1.62s-19.59-4.53-45.24-33.17" transform="translate(-360.53 -251.65)"/></g><g id="g3275"><path id="path3277" class="cls-2" d="M370.44,316.71a323.64,323.64,0,0,1,53.6-3.52l5.63-1.21-3,6.63s-29.66-1-51.63,1.29c-3.91-.54-3.4-2-3.4-2l-1.17-1.22" transform="translate(-360.53 -251.65)"/></g><g id="g3279"><path id="path3281" class="cls-2" d="M374.22,320.33s33.24-1.45,50.1.79c0.45,0.06,1.37-1.52,1.37-1.52s-12.24-1.69-49.71-.39c-6.08.21-1.76,1.11-1.76,1.11" transform="translate(-360.53 -251.65)"/></g><g id="g3283"><path id="path3285" class="cls-2" d="M378.12,282.48c-6.06,14.36-13.22,20.09-13.22,20.09l0.41,2.89a115.39,115.39,0,0,0,12.81-21.68c2.71-6.32,0-1.3,0-1.3" transform="translate(-360.53 -251.65)"/></g><g id="g3287"><path id="path3289" class="cls-2" d="M378.66,278.54l-0.86.21s-0.84,41-.29,45.51c0.05,0.4,2,0,2,0s0.68,2.78,2,1.62c-1.15-14.51-1.43-48.23-1.43-48.23h-1.42l0,0.85" transform="translate(-360.53 -251.65)"/></g><g id="g3291"><path id="path3293" class="cls-2" d="M380.63,279.27l1-.83,1,0.46s1,38.6,2.88,49.42l-1-.08s-2-.12-2.15-1.38c-0.81-7.23-1.72-47.6-1.72-47.6" transform="translate(-360.53 -251.65)"/></g><g id="g3295"><path id="path3297" class="cls-2" d="M375.17,317.56l-0.69-.12,2.86-16.11,0.69,0.12Z" transform="translate(-360.53 -251.65)"/></g><g id="g3299"><path id="path3301" class="cls-2" d="M372.63,317.25l-0.68-.13,5.75-32.47,0.69,0.12Z" transform="translate(-360.53 -251.65)"/></g><g id="g3303"><path id="path3305" class="cls-2" d="M370.57,315.12l-0.53-.69,4-22.78,1-1.55Z" transform="translate(-360.53 -251.65)"/></g><g id="g3307"><path id="path3309" class="cls-2" d="M387.3,315.78l0.67-.21-6.37-20.24,0.55,4.24Z" transform="translate(-360.53 -251.65)"/></g><g id="g3311"><path id="path3313" class="cls-2" d="M389.77,315.16l0.67-.21-8.6-27.66,0.06,2.78Z" transform="translate(-360.53 -251.65)"/></g><g id="g3315"><path id="path3317" class="cls-2" d="M392.65,314.63l0.67-.21L384,284.75l-1.15-1.21Z" transform="translate(-360.53 -251.65)"/></g><g id="g3319"><path id="path3321" class="cls-2" d="M386.93,287.83l8.52,26.73,0.67-.22-8-25.36-0.42-.42" transform="translate(-360.53 -251.65)"/></g><g id="g3323"><path id="path3325" class="cls-2" d="M391.12,291.8l7.22,22.78,0.67-.21-6.84-21.66-0.94-.9" transform="translate(-360.53 -251.65)"/></g><g id="g3327"><path id="path3329" class="cls-2" d="M401,314.1l0.67-.21-5.75-18-0.94-.72Z" transform="translate(-360.53 -251.65)"/></g><g id="g3331"><path id="path3333" class="cls-2" d="M403.93,314l0.67-.21L400,299.16l-1.08-1Z" transform="translate(-360.53 -251.65)"/></g><g id="g3335"><path id="path3337" class="cls-2" d="M402.63,301l4.11,12.86,0.67-.21-3.73-11.86-0.65-.38" transform="translate(-360.53 -251.65)"/></g><g id="g3339"><path id="path3341" class="cls-2" d="M406.49,304l3.15,10,0.66-.21-2.91-9.18-0.8-.25" transform="translate(-360.53 -251.65)"/></g><g id="g3343"><path id="path3345" class="cls-2" d="M413.66,317.31l0.67-.21-3.15-10.18L410,305.51Z" transform="translate(-360.53 -251.65)"/></g><g id="g3347"><path id="path3349" class="cls-2" d="M413.49,307.66l2.79,8.92,0.67-.22-2.4-7.67Z" transform="translate(-360.53 -251.65)"/></g><g id="g3351"><path id="path3353" class="cls-2" d="M417.08,309.87l2,6.44,0.67-.21-1.71-5.36Z" transform="translate(-360.53 -251.65)"/></g><g id="g3355"><path id="path3357" class="cls-2" d="M367.16,308.82l-0.83-.65,2.16-8.42,0.69,0.08Z" transform="translate(-360.53 -251.65)"/></g><g id="g3359"><path id="path3361" class="cls-2" d="M369,311.19l-0.53-.69L371,296.41l0.9-1.3Z" transform="translate(-360.53 -251.65)"/></g><g id="g3363"><path id="path3365" class="cls-1" d="M364.21,270.15l-0.18.14a0.42,0.42,0,0,0-.09-0.1,0.37,0.37,0,0,0-.36,0,2,2,0,0,0-.48.28,4.33,4.33,0,0,0-.51.47,6.46,6.46,0,0,0-.45.54,2.8,2.8,0,0,0-.38.72,2.1,2.1,0,0,0-.13.79,1.79,1.79,0,0,0,.21.78,2.07,2.07,0,0,0,.64.71,2,2,0,0,0,.86.39,1.79,1.79,0,0,0,.81,0,2.09,2.09,0,0,0,.71-0.37,2.9,2.9,0,0,0,.57-0.58,5.31,5.31,0,0,0,.58-1,7.54,7.54,0,0,0,.32-0.82l-0.76-.56-0.83,1.14a0.33,0.33,0,0,0-.08.23,0.43,0.43,0,0,0,.17.25l-0.12.16-1.13-.83,0.12-.16a0.32,0.32,0,0,0,.25.06,0.41,0.41,0,0,0,.18-0.16l1.62-2.21,0.16,0.12a0.66,0.66,0,0,0-.1.27,0.23,0.23,0,0,0,.12.16l1,0.73a0.15,0.15,0,0,0,.16,0l0.15-.08,0.14,0.1a4,4,0,0,1-.11.86,5.14,5.14,0,0,1-.27.81,4.79,4.79,0,0,1-.39.73c-0.15.23-.3,0.45-0.46,0.66a4.7,4.7,0,0,1-1,1,3,3,0,0,1-1.1.53,2.61,2.61,0,0,1-1.15,0,3.21,3.21,0,0,1-2-1.46,2.66,2.66,0,0,1-.34-1.11,3.11,3.11,0,0,1,.16-1.22,4.56,4.56,0,0,1,.66-1.25,6.49,6.49,0,0,1,.6-0.71c0.21-.21.4-0.39,0.58-0.54l0.46-.36a1.74,1.74,0,0,0,.22-0.18,0.25,0.25,0,0,0,.05-0.15,0.89,0.89,0,0,1,0-.14l0.14-.06,0.79,1.38" transform="translate(-360.53 -251.65)"/></g><g id="g3367"><path id="path3369" class="cls-1" d="M367.82,265.29a2.6,2.6,0,0,0-.3.79,2,2,0,0,0,0,.82,1.73,1.73,0,0,0,1.11,1.22,1.94,1.94,0,0,0,.81.08,2.53,2.53,0,0,0,.81-0.23,2.63,2.63,0,0,0,.7-0.46,2.75,2.75,0,0,0,.53-0.66,2.58,2.58,0,0,0,.3-0.79,2,2,0,0,0,0-.81,1.59,1.59,0,0,0-.4-0.75,1.63,1.63,0,0,0-.71-0.47,2,2,0,0,0-.81-0.08,2.48,2.48,0,0,0-.81.23,2.74,2.74,0,0,0-.7.46,2.83,2.83,0,0,0-.53.66m0.88-2.1a3.81,3.81,0,0,1,1.21-.37,2.9,2.9,0,0,1,1.24.11,2.77,2.77,0,0,1,1.77,1.93,2.93,2.93,0,0,1,0,1.25,3.47,3.47,0,0,1-.49,1.16,4.74,4.74,0,0,1-.79,1,5.05,5.05,0,0,1-1,.71,3.54,3.54,0,0,1-1.2.38,3,3,0,0,1-1.24-.11,2.78,2.78,0,0,1-1.77-1.94,2.91,2.91,0,0,1,0-1.25,3.76,3.76,0,0,1,.48-1.17,4.4,4.4,0,0,1,.79-1,4.45,4.45,0,0,1,1-.69" transform="translate(-360.53 -251.65)"/></g><g id="g3371"><path id="path3373" class="cls-1" d="M380.11,262.12l-0.24.12L375.43,265l-0.1-.17c0.18-.12.25-0.23,0.18-0.34l-2.62-4.23c-0.07-.11-0.2-0.11-0.38,0l-0.1-.17,1.6-1,0.11,0.17q-0.26.16-.16,0.33l2.3,3.71,3.09-1.92a0.46,0.46,0,0,0,.19-0.21,0.25,0.25,0,0,0,0-.23l0.17-.1,0.79,1.28-0.17.1a0.16,0.16,0,0,0-.19-0.1" transform="translate(-360.53 -251.65)"/></g><g id="g3375"><path id="path3377" class="cls-1" d="M383.9,259.42a4.09,4.09,0,0,0,.8-0.41,1.41,1.41,0,0,0,.48-0.53,1.39,1.39,0,0,0,.13-0.69,3,3,0,0,0-.23-0.92,3,3,0,0,0-.46-0.83,1.39,1.39,0,0,0-.57-0.42,1.42,1.42,0,0,0-.71-0.05,4.08,4.08,0,0,0-.87.25l-1.58.63,1.44,3.61Zm-1.37-4.65a3.51,3.51,0,0,1,1.11-.25,2.52,2.52,0,0,1,1,.16,2.49,2.49,0,0,1,.89.61,3.43,3.43,0,0,1,.68,1.11,3.38,3.38,0,0,1,.26,1.27,2.45,2.45,0,0,1-.23,1.06,2.49,2.49,0,0,1-.64.83,3.57,3.57,0,0,1-1,.58l-3.38,1.34-0.07-.18a0.2,0.2,0,0,0,.16-0.28l-1.84-4.63a0.21,0.21,0,0,0-.31-0.09l-0.08-.19,3.39-1.34" transform="translate(-360.53 -251.65)"/></g><g id="g3379"><path id="path3381" class="cls-1" d="M393.28,253.15a0.21,0.21,0,0,0-.13-0.16,0.59,0.59,0,0,0-.33,0l-3.48.68L389.6,255l2.11-.41a0.79,0.79,0,0,0,.32-0.12,0.34,0.34,0,0,0,.06-0.33l0.19,0,0.32,1.68-0.19,0a0.34,0.34,0,0,0-.18-0.3,0.67,0.67,0,0,0-.35,0l-2.11.41,0.29,1.49,3.6-.7a0.44,0.44,0,0,0,.25-0.13,0.25,0.25,0,0,0,.06-0.23l0.19,0,0.29,1.47-0.19,0a0.16,0.16,0,0,0-.14-0.16,1.2,1.2,0,0,0-.27,0l-5,1,0-.19a0.22,0.22,0,0,0,.13-0.07,0.19,0.19,0,0,0,0-.16l-1-4.89a0.18,0.18,0,0,0-.09-0.14,0.22,0.22,0,0,0-.14,0l0-.19,4.91-1a0.54,0.54,0,0,0,.3-0.13,0.24,0.24,0,0,0,.06-0.21l0.19,0,0.28,1.42-0.19,0" transform="translate(-360.53 -251.65)"/></g><g id="g3383"><path id="path3385" class="cls-1" d="M396.08,257.22a0.18,0.18,0,0,0,.21-0.2v-5a0.18,0.18,0,0,0-.21-0.2v-0.2H398v0.2a0.09,0.09,0,0,0-.09.11,0.62,0.62,0,0,0,.22.31l3.15,3.27V252c0-.13-0.09-0.2-0.29-0.2v-0.2h1.66v0.2a0.18,0.18,0,0,0-.21.2v5a0.18,0.18,0,0,0,.21.2v0.2h-1.78v-0.2c0.09,0,.14,0,0.14-0.1a0.52,0.52,0,0,0-.17-0.25l-3.35-3.49V257c0,0.13.08,0.2,0.25,0.2v0.2h-1.62v-0.2" transform="translate(-360.53 -251.65)"/></g><g id="g3387"><path id="path3389" class="cls-1" d="M408.78,256.59l0.09,0.08a0.34,0.34,0,0,0,0,.18,0.78,0.78,0,0,0,.22.33,2.92,2.92,0,0,0,.43.35,4.41,4.41,0,0,0,.54.32,3.1,3.1,0,0,0,.53.21l0.47,0.1a2.61,2.61,0,0,0,.59,0,1.57,1.57,0,0,0,.54-0.1,0.47,0.47,0,0,0,.31-0.34,0.41,0.41,0,0,0-.08-0.41,1.4,1.4,0,0,0-.44-0.3,4.93,4.93,0,0,0-.67-0.26l-0.77-.27a7.31,7.31,0,0,1-.76-0.33,2.21,2.21,0,0,1-.62-0.44,1.46,1.46,0,0,1-.35-0.61,1.54,1.54,0,0,1,0-.84,1.52,1.52,0,0,1,.33-0.6,1.65,1.65,0,0,1,.63-0.43,2.71,2.71,0,0,1,.91-0.17,4,4,0,0,1,1.18.17,5.21,5.21,0,0,1,.95.36,6.82,6.82,0,0,1,.66.38l0.45,0.32a1,1,0,0,0,.32.18,0.3,0.3,0,0,0,.23,0l0.1,0.12-1.1,1.12-0.09-.07a0.59,0.59,0,0,0,0-.27,1,1,0,0,0-.21-0.33,2.37,2.37,0,0,0-.4-0.34,3.85,3.85,0,0,0-.53-0.31,3.62,3.62,0,0,0-.6-0.23,3.54,3.54,0,0,0-.49-0.09,2.36,2.36,0,0,0-.48,0,1,1,0,0,0-.39.1,0.4,0.4,0,0,0-.22.27,0.45,0.45,0,0,0,.08.43,1.42,1.42,0,0,0,.43.33,4.79,4.79,0,0,0,.66.28l0.78,0.27a7,7,0,0,1,.75.33,2.35,2.35,0,0,1,.61.44,1.44,1.44,0,0,1,.36.61,1.52,1.52,0,0,1,0,.82,1.37,1.37,0,0,1-.54.82,2.08,2.08,0,0,1-.87.35,3.33,3.33,0,0,1-1,0,7.49,7.49,0,0,1-1-.19,6.34,6.34,0,0,1-1-.35,3.77,3.77,0,0,1-.63-0.36,4.39,4.39,0,0,1-.38-0.3,0.64,0.64,0,0,0-.25-0.15,0.18,0.18,0,0,0-.16,0l-0.12-.12,0.94-1.12" transform="translate(-360.53 -251.65)"/></g><g id="g3391"><path id="path3393" class="cls-1" d="M417.93,261.59l-0.09.18-1.52-.73,0.08-.18a0.2,0.2,0,0,0,.15,0,0.18,0.18,0,0,0,.12-0.1l1.87-3.95L416.9,256a0.42,0.42,0,0,0-.2,0,0.23,0.23,0,0,0-.17.15l-0.18-.08,0.66-1.39,0.18,0.09a0.23,0.23,0,0,0,0,.23,0.35,0.35,0,0,0,.15.13l4.4,2.09a0.36,0.36,0,0,0,.2,0,0.23,0.23,0,0,0,.17-0.15l0.18,0.08-0.66,1.39-0.18-.09a0.23,0.23,0,0,0,0-.23,0.4,0.4,0,0,0-.15-0.13l-1.64-.77-1.87,3.94a0.2,0.2,0,0,0,.13.28" transform="translate(-360.53 -251.65)"/></g><g id="g3395"><path id="path3397" class="cls-1" d="M424.27,263l0.38-2.21-2,1.11Zm-4.57-.62a0.32,0.32,0,0,0,.27,0l0.29-.14,4.07-2.4,0.26-.14a0.5,0.5,0,0,0,.17-0.14,0.17,0.17,0,0,0,0-.17,0.61,0.61,0,0,0-.1-0.15l0.11-.16,1.54,1-0.11.16-0.16,0a0.16,0.16,0,0,0-.15.09,0.48,0.48,0,0,0-.07.17c0,0.06,0,.15,0,0.26l-0.61,5a0.4,0.4,0,0,0,0,.23,2.21,2.21,0,0,0,.12.21l-0.11.16-1.6-1.08,0.11-.16a0.23,0.23,0,0,0,.11,0,0.11,0.11,0,0,0,.11,0,0.7,0.7,0,0,0,.09-0.29l0.11-.9-2.22-1.5-0.76.42a0.89,0.89,0,0,0-.27.21c0,0.07,0,.14.1,0.22l-0.11.16-1.29-.87,0.11-.16" transform="translate(-360.53 -251.65)"/></g><g id="g3399"><path id="path3401" class="cls-1" d="M428.05,268.73l-0.13.15-1.24-1.14,0.14-.15a0.23,0.23,0,0,0,.13.06,0.18,0.18,0,0,0,.14-0.07l3-3.21-1.33-1.23a0.36,0.36,0,0,0-.18-0.09,0.22,0.22,0,0,0-.21.09l-0.15-.13,1-1.13,0.15,0.13a0.22,0.22,0,0,0-.07.22,0.35,0.35,0,0,0,.1.17l3.58,3.3a0.37,0.37,0,0,0,.18.09,0.22,0.22,0,0,0,.21-0.09l0.14,0.13-1,1.13-0.15-.13a0.21,0.21,0,0,0,.07-0.22,0.37,0.37,0,0,0-.1-0.17L431,265.22l-3,3.21a0.2,0.2,0,0,0,0,.31" transform="translate(-360.53 -251.65)"/></g><g id="g3403"><path id="path3405" class="cls-1" d="M437.31,272.82a0.21,0.21,0,0,0,.09-0.18,0.64,0.64,0,0,0-.15-0.29l-2.17-2.81-1.08.83,1.31,1.7a0.78,0.78,0,0,0,.26.23,0.31,0.31,0,0,0,.32-0.09l0.12,0.16-1.36,1-0.12-.16a0.36,0.36,0,0,0,.19-0.29,0.71,0.71,0,0,0-.15-0.31l-1.31-1.7-1.2.92,2.24,2.9a0.43,0.43,0,0,0,.22.17,0.25,0.25,0,0,0,.23,0l0.12,0.16-1.19.92-0.12-.16a0.16,0.16,0,0,0,.09-0.2,1.15,1.15,0,0,0-.15-0.23l-3.12-4,0.16-.12a0.21,0.21,0,0,0,.12.08,0.18,0.18,0,0,0,.16,0l3.94-3a0.17,0.17,0,0,0,.08-0.14,0.23,0.23,0,0,0,0-.14l0.16-.12,3.05,4a0.56,0.56,0,0,0,.26.21,0.23,0.23,0,0,0,.21,0l0.12,0.16-1.15.89-0.12-.16" transform="translate(-360.53 -251.65)"/></g></g></g></svg>