<svg id="Layer_1" data-name="Layer 1" xmlns="http://www.w3.org/2000/svg" viewBox="0 0 100.65 53.8"><defs><style>.cls-1{fill:#261c02;}.cls-2{fill:#d31145;}</style></defs><title>houston-rockets</title><g id="g5693"><g id="g5699"><path id="path5701" class="cls-1" d="M389,290.15a11.82,11.82,0,0,1,.51-2.82l-0.28.27a11.63,11.63,0,0,0-.51,2.82v1.88l0.28,0.36v-2.52Z" transform="translate(-349.67 -273.1)"/></g><g id="g5703"><path id="path5705" class="cls-1" d="M386.62,291.94l3.13,4.14,0.28-.27-3.4-4.51v0.64Z" transform="translate(-349.67 -273.1)"/></g><g id="g5707"><path id="path5709" class="cls-1" d="M386.33,295.84l0.27-.27-1,.73v-8.08l-0.27.27v8.08Z" transform="translate(-349.67 -273.1)"/></g><g id="g5711"><path id="path5713" class="cls-1" d="M382.11,296.06a1.61,1.61,0,0,0,1.8-1.72,1.45,1.45,0,0,1-1.53,1.45H381a1.45,1.45,0,0,1-1.53-1.45v-4.67a1.47,1.47,0,0,1,1.53-1.45,1.7,1.7,0,0,0-1.8,1.72v4.67a1.45,1.45,0,0,0,1.52,1.45h1.42Z" transform="translate(-349.67 -273.1)"/></g><g id="g5715"><path id="path5717" class="cls-1" d="M382.44,290.15v4.29a1.24,1.24,0,0,1-.19.68l0,0,0.05,0h0a0.59,0.59,0,0,0,.12-0.11l0,0,0-.05,0-.06v0l0-.06h0l0-.06h0a0.06,0.06,0,0,0,0,0h0v0h0v0h0v0h0v0h0s0,0,0-.06h0a0.17,0.17,0,0,0,0,0h0v0h0v0h0v0h0v0h0a0.22,0.22,0,0,0,0,0v-4.29a1,1,0,0,0-1-1.12h-0.5l0,0H381l-0.06.05h0v0h0v0h0v0h0v0a1.16,1.16,0,0,1,.6-0.15,1,1,0,0,1,1,1.12" transform="translate(-349.67 -273.1)"/></g><g id="g5719"><path id="path5721" class="cls-1" d="M411,286.43l-0.27.28a10.42,10.42,0,0,0-.41,1.54l0.23,0a10.78,10.78,0,0,1,.46-1.77" transform="translate(-349.67 -273.1)"/></g><g id="g5723"><path id="path5725" class="cls-1" d="M413.53,292.63c0-.65-1.21-0.8-2-0.83v0.29c0.77,0.05,1.74.24,1.72,0.82l0,3.11,1.1,0.64,0.28-.28-1.1-.64Z" transform="translate(-349.67 -273.1)"/></g><g id="g5727"><path id="path5729" class="cls-1" d="M410.18,288.92c0,0.08,0,.16,0,0.24l0,7.49,1.16-.64,0.27-.27-1.16.64,0-7.49c0-.08,0-0.16,0-0.25-1.09,0-2,.08-2,0.08l-0.27.27s0.94-.09,2-0.08" transform="translate(-349.67 -273.1)"/></g><g id="g5731"><path id="path5733" class="cls-1" d="M413.5,291.58a4.24,4.24,0,0,0,.74-0.6,3.55,3.55,0,0,1-1.32.67,3.31,3.31,0,0,1,.58-0.07" transform="translate(-349.67 -273.1)"/></g><g id="g5735"><path id="path5737" class="cls-1" d="M411.51,289c1,0.12,1.88.39,2,1a1.46,1.46,0,0,1-.29,1.12h0l0.07-.06,0,0,0.06-.06,0,0,0.05-.06,0-.06,0-.06,0-.07,0-.07,0-.08,0-.07a0.76,0.76,0,0,0,0-.1,0.35,0.35,0,0,0,0-.06c0-.05,0-0.11,0-0.17v0h0a0.06,0.06,0,0,0,0,0v0h0v0h0v0h0v0h0v0h0v0h0a0,0,0,0,0,0,0h0v0h0a0.07,0.07,0,0,1,0,0h0v0h0v0c-0.08-.65-1.11-0.92-2.24-1,0,0.07,0,.13,0,0.2V289Z" transform="translate(-349.67 -273.1)"/></g><g id="g5739"><path id="path5741" class="cls-1" d="M418.75,288.75h-0.5l-0.07,0h-0.11l0,0L418,289h0l0,0h0l0,0h0v0h0l0,0a1.14,1.14,0,0,1,.6-0.15,1,1,0,0,1,1,1.12v4.29a1.23,1.23,0,0,1-.18.67l0,0,0,0,0.11-.1,0-.05h0l0-.05h0v0l0,0v0h0l0-.06h0l0-.06h0v0h0v0h0v0h0v0h0a0.18,0.18,0,0,1,0,0h0a0.34,0.34,0,0,0,0-.06h0v0h0v0h0s0,0,0,0h0a0.22,0.22,0,0,0,0,0h0v0h0v-4.32a1,1,0,0,0-1-1.12" transform="translate(-349.67 -273.1)"/></g><g id="g5743"><path id="path5745" class="cls-1" d="M419.45,295.78H418a1.45,1.45,0,0,1-1.52-1.45v-4.66a1.47,1.47,0,0,1,1.52-1.45,1.65,1.65,0,0,0-1.8,1.72v4.67a1.45,1.45,0,0,0,1.52,1.45h1.42a1.61,1.61,0,0,0,1.79-1.58,1.46,1.46,0,0,1-1.51,1.3" transform="translate(-349.67 -273.1)"/></g><g id="g5747"><path id="path5749" class="cls-1" d="M425.46,295.1l0,0h0l0,0,0,0,0,0,0,0h0l0,0h0l0,0h0v0h0l0,0h0v0h0l0-.05h0l0-.06h0v0h0v0h0v0h0v0h0a0.2,0.2,0,0,1,0,0h0v0a0.24,0.24,0,0,1,0,0h0a0.06,0.06,0,0,0,0,0h0s0,0,0,0h0v0h0v0h0a0.12,0.12,0,0,1,0,0h0v-0.44l-0.28.28v0.41a1.29,1.29,0,0,1-.18.68h0" transform="translate(-349.67 -273.1)"/></g><g id="g5751"><path id="path5753" class="cls-1" d="M425.9,289.87a1,1,0,0,0-1-1.12h-0.49l-0.08,0h-0.11l-0.11.1h0v0h0l0,0h0l0,0h0l0,0a1.15,1.15,0,0,1,.6-0.15,1,1,0,0,1,1,1.12v0.41h1.19l0.28-.27H425.9v-0.41Z" transform="translate(-349.67 -273.1)"/></g><g id="g5755"><path id="path5757" class="cls-1" d="M427.05,294.68v0h0v0h0a0,0,0,0,1,0,0h0v0h0a0,0,0,0,1,0,0h0v0h0v0h0v0h0v0h0v0h0v0h0v0h0v0h0a1.09,1.09,0,0,1-.13.21v0h0v0h-0.09a1.34,1.34,0,0,1-.24.18h-0.09a1.75,1.75,0,0,1-.27.11H426l-0.19,0h-1.69a1.46,1.46,0,0,1-1.52-1.45v-4.66a1.47,1.47,0,0,1,1.52-1.45,1.66,1.66,0,0,0-1.8,1.72v4.67a1.46,1.46,0,0,0,1.53,1.45h1.42a1.6,1.6,0,0,0,1.79-1.52c0,0.05,0,.1,0,0.14" transform="translate(-349.67 -273.1)"/></g><g id="g5759"><path id="path5761" class="cls-1" d="M448.84,295.12l0.06,0h0l0.05,0h0l0,0h0l0,0h0l0-.05h0l0-.06h0l0-.06h0l0-.07h0a0.34,0.34,0,0,0,0-.07h0a0.52,0.52,0,0,1,0-.08h0v-0.08h0s0-.05,0-0.08h0s0-.06,0-0.09h0s0-.06,0-0.09h0s0-.06,0-0.09h0v-1.14c0-1-.69-1-1.81-1-1.46,0-1.51-.33-1.51-1.37v-1.15s0,0,0,0h0a0.11,0.11,0,0,1,0,0v-0.2a0,0,0,0,1,0,0,0,0,0,0,0,0,0v0h0l0-.08h0v0h0v0h0v0h0v0h0l0,0h0a1.07,1.07,0,0,1,.16-0.2l0,0h0l0,0h0l0.14-.1h0.16l0.15-.06h0l0.13,0h0l0.09,0h0.15a1.54,1.54,0,0,0-1.55,1.47v1.16c0,1,0,1.37,1.51,1.37,1.12,0,1.81,0,1.81,1v1.09a2.07,2.07,0,0,1-.13.85h0Z" transform="translate(-349.67 -273.1)"/></g><g id="g5763"><path id="path5765" class="cls-1" d="M449.21,289.82a0.93,0.93,0,0,0-1.11-1.09h-1a1.62,1.62,0,0,1,.73-0.13,0.93,0.93,0,0,1,1.12,1.09v0.4l1.07-.56,0.27-.28-1.07.56v-0.4Z" transform="translate(-349.67 -273.1)"/></g><g id="g5767"><path id="path5769" class="cls-1" d="M436.08,289.28h0l0,0.06h0v0a1.4,1.4,0,0,1,.64-0.16h2c0.17-.18.28-0.28,0.28-0.28h-2a1.21,1.21,0,0,0-.86.33" transform="translate(-349.67 -273.1)"/></g><g id="g5771"><path id="path5773" class="cls-1" d="M437.45,295.79h-1.24a1.52,1.52,0,0,1-1.61-1.46v-4.55a1.45,1.45,0,0,1,.26-0.88,1.35,1.35,0,0,0-.54,1.16v4.55a1.52,1.52,0,0,0,1.61,1.46h1.24s1.67,0.07,1.79-1c-0.14.83-1.52,0.68-1.52,0.68" transform="translate(-349.67 -273.1)"/></g><g id="g5775"><path id="path5777" class="cls-1" d="M435.84,292.29v0.27H436a8.87,8.87,0,0,0,2.69-.53l0.28-.28a9,9,0,0,1-2.69.53h-0.41Z" transform="translate(-349.67 -273.1)"/></g><g id="g5779"><path id="path5781" class="cls-1" d="M442.78,289.24v0.28h0.14a5.69,5.69,0,0,0,2.18-.49l0.28-.28a5.66,5.66,0,0,1-2.19.49h-0.42Z" transform="translate(-349.67 -273.1)"/></g><g id="g5783"><path id="path5785" class="cls-1" d="M441.64,289.24h-1.83v-1l-0.28.28v1h1.83v6.25l1.14,0.76,0.27-.28-1.14-.76v-6.25Z" transform="translate(-349.67 -273.1)"/></g><g id="g5787"><path id="path5789" class="cls-1" d="M428.64,287.46l-0.27.27v8.78l1.16-.75,0.28-.27-1.16.75v-8.78Z" transform="translate(-349.67 -273.1)"/></g><g id="g5791"><path id="path5793" class="cls-1" d="M429.8,291.72v0.71l2.19,3.48h1.27l0.28-.27h-1.27Z" transform="translate(-349.67 -273.1)"/></g><g id="g5795"><path id="path5797" class="cls-1" d="M432.13,288.26l-0.28.27-2,2.92v0.12Z" transform="translate(-349.67 -273.1)"/></g><g id="g5799"><path id="path5801" class="cls-1" d="M359,295.79h-1.42a1.45,1.45,0,0,1-1.52-1.45v-4.67a1.3,1.3,0,0,1,.7-1.23,1.53,1.53,0,0,0-1,1.51v4.67a1.45,1.45,0,0,0,1.53,1.45h1.42a1.64,1.64,0,0,0,1.79-1.55c0-.05,0-0.11,0-0.17a1.45,1.45,0,0,1-1.52,1.45" transform="translate(-349.67 -273.1)"/></g><g id="g5803"><path id="path5805" class="cls-1" d="M358.34,288.75h-0.49l-0.1.05h0l0,0h-0.06a0.85,0.85,0,0,0-.13.12l0,0-0.05.08a1.15,1.15,0,0,1,.6-0.15,1,1,0,0,1,1,1.12v4.29a1.22,1.22,0,0,1-.19.68h0l0.05,0h0l0,0h0l0,0h0l0,0h0l0,0h0l0,0h0l0,0h0l0,0h0l0,0h0l0,0h0l0,0h0v0h0l0-.05h0v0h0v0h0v0h0v0h0v0h0v0h0v0h0v0h0a0.13,0.13,0,0,0,0,0h0a0.1,0.1,0,0,1,0,0h0a0.09,0.09,0,0,1,0,0h0v0h0a0.11,0.11,0,0,0,0,0h0v0h0v-4.33a1,1,0,0,0-1-1.12" transform="translate(-349.67 -273.1)"/></g><g id="g5807"><path id="path5809" class="cls-1" d="M365.41,294.16v-5.24l-0.28.28v5.23a1.32,1.32,0,0,1-.17.7,1,1,0,0,0,.45-1" transform="translate(-349.67 -273.1)"/></g><g id="g5811"><path id="path5813" class="cls-1" d="M371.4,289.82a0.93,0.93,0,0,0-1.12-1.09h-0.67l0,0H369.5l0,0h-0.06l0,0h-0.11A1.58,1.58,0,0,1,370,289a0.93,0.93,0,0,1,1.12,1.09v0.4l1.08-.56,0.28-.27-1.08.56v-0.4Z" transform="translate(-349.67 -273.1)"/></g><g id="g5815"><path id="path5817" class="cls-1" d="M371.08,295.09l0.05,0,0,0,0-.05,0-.05h0l0-.06,0-.06h0a0.27,0.27,0,0,0,0-.07h0l0-.07h0a0.38,0.38,0,0,0,0-.08h0a0.26,0.26,0,0,0,0-.08h0s0-.05,0-0.09h0s0-.06,0-0.09h0s0-.06,0-0.09h0v-0.09h0v-1.14c0-1-.69-1-1.81-1-1.46,0-1.51-.34-1.51-1.37v-1.16a1.06,1.06,0,0,1,.58-1,1.34,1.34,0,0,0-.86,1.26v1.16c0,1,0,1.37,1.51,1.37,1.12,0,1.81,0,1.81,1v1.09a2,2,0,0,1-.13.85l0.09,0" transform="translate(-349.67 -273.1)"/></g><g id="g5819"><path id="path5821" class="cls-1" d="M376.24,289.4v0.28h0.14a5.51,5.51,0,0,0,2.15-.48l0.28-.27a5.56,5.56,0,0,1-2.15.48h-0.41Z" transform="translate(-349.67 -273.1)"/></g><g id="g5823"><path id="path5825" class="cls-1" d="M375.13,289.4h-1.8v-1l-0.27.27v1h1.8v6.15l1.12,0.74,0.27-.28-1.12-.75V289.4Z" transform="translate(-349.67 -273.1)"/></g><g id="g5827"><path id="path5829" class="cls-1" d="M353.47,292.33H351v0.27h2.19l0,3.53,1.08,0.59,0.27-.28-1.07-.59Z" transform="translate(-349.67 -273.1)"/></g><g id="g5831"><path id="path5833" class="cls-1" d="M353.49,289.51a7.14,7.14,0,0,1,.5-2.28l-0.28.28a7.3,7.3,0,0,0-.5,2.28v1.75h0.27v-2Z" transform="translate(-349.67 -273.1)"/></g><g id="g5835"><path id="path5837" class="cls-1" d="M350,289.51a8.51,8.51,0,0,1,.5-2.28l-0.28.28a8.54,8.54,0,0,0-.5,2.28l0,6.94,1.07-.59,0.28-.28-1.08.59Z" transform="translate(-349.67 -273.1)"/></g><g id="g5839"><path id="path5841" class="cls-1" d="M406.17,314.18h0v0h0v0h0v0h0v0h0v0h0v0h0a0.06,0.06,0,0,0,0,0h0v0h0v0h0v0h0v0H406l0,0h-0.06l-0.07,0h-0.18l-0.06,0h0l0,0,0,0,0,0.05,0,0,0,0.08h0c0.2,0,.42.19,0.44,0.66l0.33,12.41,0.28-.27-0.33-12.41v0Z" transform="translate(-349.67 -273.1)"/></g><g id="g5843"><path id="path5845" class="cls-1" d="M394.92,308.83h0v0h0v0h0v0h0v0h0v0h0a0.11,0.11,0,0,1,0,0v0h0v0h0v0h0v0h0v0h-0.16l0,0h-0.15l0,0h0l0,0v0l0,0v0l0,0.08h0a0.49,0.49,0,0,1,.35.59l0.24,9.34,0.27-.28-0.24-9.34v0Z" transform="translate(-349.67 -273.1)"/></g><g id="g5847"><path id="path5849" class="cls-1" d="M396.42,310.5h0v0h0v0h0a0.1,0.1,0,0,1,0,0h0v0h0v0h0v0h0a0,0,0,0,0,0,0h0v0h0v0h0l0-.05h0v0h0v0h0v0h0v0H396l-0.05,0v0l0,0,0,0,0,0.07v0l0,0c0.18,0,.35.24,0.34,0.69l0.26,9.73,0.28-.27-0.26-9.73v0Z" transform="translate(-349.67 -273.1)"/></g><g id="g5851"><path id="path5853" class="cls-1" d="M400.18,305.81c-1,0-2,0-3-.05V306c0.9,0,1.82,0,2.76,0s1.93,0,2.87,0l0.46,14.77,0.28-.27-0.46-14.77q-1.41,0-2.87,0" transform="translate(-349.67 -273.1)"/></g><g id="g5855"><path id="path5857" class="cls-1" d="M404.59,312.71h0v0h0v0h0v0h0a0.1,0.1,0,0,1,0,0h0v0h0a0.05,0.05,0,0,1,0,0h0v0h0v0h0v0h0v0h0v0h0v0h-0.1l-0.06-.05H404.2l-0.07,0,0,0,0,0,0,0,0,0.06,0,0a0,0,0,0,1,0,0,0.58,0.58,0,0,1,.33.66l0.4,10.84,0.28-.28-0.4-10.84v0Z" transform="translate(-349.67 -273.1)"/></g><g id="g5859"><path id="path5861" class="cls-1" d="M393.37,281.9c-3.73-.05-7,0.24-7,0.24l-0.28.28s3.27-.29,7-0.24c-0.41,4.25,0,8.29,0,15.93h0.28c0-7.83-.41-11.91,0-16.21" transform="translate(-349.67 -273.1)"/></g><g id="g5863"><path id="path5865" class="cls-1" d="M407,305.56v0.24c6.56-.57,11.54-1.88,12.83-3.4-1.65,1.42-6.54,2.62-12.83,3.14v0Z" transform="translate(-349.67 -273.1)"/></g><g id="g5867"><path id="path5869" class="cls-1" d="M395.34,273.1l-0.28.27a44.89,44.89,0,0,0-1.76,7.14l0.24,0a43.84,43.84,0,0,1,1.8-7.37" transform="translate(-349.67 -273.1)"/></g><g id="g5871"><path id="path5873" class="cls-1" d="M380.13,301.36a1.24,1.24,0,0,1,.33-0.85,1.43,1.43,0,0,0-.61,1.12c0.07,1.84,5.54,3.54,13.24,4.18l0.33,10.45,0.27-.27-0.33-10.45c-7.69-.65-13.17-2.34-13.24-4.18" transform="translate(-349.67 -273.1)"/></g><g id="g5875"><path id="path5877" class="cls-1" d="M402.92,290.67a8.74,8.74,0,0,0,3.75-2.18h0a10.35,10.35,0,0,1-5,2.29c0.31,0,.75-0.09,1.26-0.1" transform="translate(-349.67 -273.1)"/></g><g id="g5879"><path id="path5881" class="cls-1" d="M403.77,285.47a4.09,4.09,0,0,1-1,3.49h0l0.09-.09,0.15-.15,0.1-.11,0.12-.14,0.09-.12,0.11-.15,0.08-.13,0.1-.17,0.07-.13c0-.06.06-0.12,0.09-0.18l0.05-.13a1.69,1.69,0,0,0,.08-0.22l0-.12a3,3,0,0,0,.09-0.35h0a0.27,0.27,0,0,0,0-.05h0v-0.07s0,0,0,0v-0.09a0.32,0.32,0,0,1,0,0v0a0.34,0.34,0,0,1,0,0V286.3a0.17,0.17,0,0,1,0,0,0.35,0.35,0,0,1,0,0,0,0,0,0,0,0,0v0h0s0-.07,0-0.1V286s0,0,0,0v-0.07s0,0,0,0v-0.08a0.19,0.19,0,0,0,0,0s0,0,0,0v-0.08a0.32,0.32,0,0,0,0,0,0.19,0.19,0,0,0,0,0s0,0,0,0v0s0,0,0,0v0a0.34,0.34,0,0,0,0-.05,0.11,0.11,0,0,0,0,0s0-.05,0-0.08c-0.26-1.91-3.37-2.76-6.91-3.1,0,0.1,0,.2,0,0.31,3.41,0.36,6.35,1.21,6.6,3.07" transform="translate(-349.67 -273.1)"/></g><g id="g5883"><path id="path5885" class="cls-1" d="M397.42,291.44c0,0.1,0,.2,0,0.31,2.48,0.28,5.5,1,5.45,2.73L402.78,304h0.27l0.09-9.75c0.05-1.81-3.2-2.5-5.72-2.76" transform="translate(-349.67 -273.1)"/></g><g id="g5887"><path id="path5889" class="cls-1" d="M407.09,298.15v0.31c5,0.65,9,1.37,9,2.56a1,1,0,0,1-.22.57h0l0.13-.12,0,0,0.1-.11h0l0.09-.12,0,0,0.06-.13h0v0h0v0h0v0h0v0h0v0h0v0h0v0h0v0h0a0.06,0.06,0,0,1,0,0h0v0c0-1.21-4.19-1.94-9.27-2.59" transform="translate(-349.67 -273.1)"/></g><g id="g5891"><path id="path5893" class="cls-1" d="M384.24,300.43c1.19-.89,5-1.44,8.85-2,0,1.49,0,3.11-.07,4.89v0.38h0l0.28,0,0-.68c0-1.78.07-3.4,0.07-4.89-4.22.63-8.43,1.24-9.13,2.29" transform="translate(-349.67 -273.1)"/></g><g id="g5895"><path id="path5897" class="cls-1" d="M449,295.78h-1.68s-1.4,0-1.4-1.15v-0.82l-0.27.28v0.82c0,1.15,1.4,1.15,1.4,1.15h1.67a1.51,1.51,0,0,0,1.59-1.61,1.33,1.33,0,0,1-1.31,1.33" transform="translate(-349.67 -273.1)"/></g><g id="g5899"><path id="path5901" class="cls-1" d="M365,295.79h-1.49a1.45,1.45,0,0,1-1.43-1.39v-6.17l-0.27.27v6.18a1.45,1.45,0,0,0,1.42,1.39h1.48a1.66,1.66,0,0,0,1.84-1.58h0a1.55,1.55,0,0,1-1.55,1.31" transform="translate(-349.67 -273.1)"/></g><g id="g5903"><path id="path5905" class="cls-1" d="M372.49,294.67h0a0.11,0.11,0,0,0,0,0h0v0h0a0.08,0.08,0,0,1,0,0v0a0.1,0.1,0,0,1,0,0h0a0,0,0,0,1,0,0v0h0v0h0v0a1.3,1.3,0,0,1-1.12.87h-1.78s-1.4,0-1.4-1.16v-0.82l-0.28.28v0.82c0,1.15,1.4,1.15,1.4,1.15h1.67a1.5,1.5,0,0,0,1.59-1.62,1.93,1.93,0,0,1,0,.2v0" transform="translate(-349.67 -273.1)"/></g><g id="g5907"><path id="path5909" class="cls-2" d="M413.73,289.71v0h0v0h0a0.05,0.05,0,0,0,0,0h0v0h0a0,0,0,0,1,0,0h0v0h0v0h0v0h0v0h0v0h0v0a0.06,0.06,0,0,1,0,0h0v0c0,0.06,0,.12,0,0.17l0,0.06,0,0.1,0,0.07,0,0.08,0,0.07,0,0.07,0,0.06,0,0.06-0.05.06,0,0-0.06.06,0,0-0.07.06h0a3.25,3.25,0,0,1-1.25.55h0l-0.2,0h0l-0.19,0,0-2.74v-0.11c0-.07,0-0.13,0-0.2,1.13,0.1,2.16.37,2.24,1m-3.28-1.07c0,0.08,0,.16,0,0.24l0,7.49,1.16-.64,0-3.65V291.8c0.79,0,2,.17,2,0.83l0,3.11,1.1,0.64,0-4s0-.08,0-0.12v0a0.34,0.34,0,0,0,0-.07v0l0-.06v0l0-.07v0l-0.05-.07h0l-0.05-.05h0l0,0h0l-0.07,0h0a1.26,1.26,0,0,0-.27-0.1h0a2.1,2.1,0,0,0-.48,0,3.22,3.22,0,0,0-.58.07,3.54,3.54,0,0,0,1.32-.67,2.08,2.08,0,0,0,.53-0.66h0a1.83,1.83,0,0,0,.14-0.4v0a1.25,1.25,0,0,0,0-.21v0a1.17,1.17,0,0,0,0-.23c-0.07-1.06-1.21-1.58-3.26-1.38l-0.27,0a7.25,7.25,0,0,0-.45-1.62,10.37,10.37,0,0,0-.46,1.77l-0.23,0a14.87,14.87,0,0,0-1.87.48s1-.09,2-0.08" transform="translate(-349.67 -273.1)"/></g><g id="g5911"><path id="path5913" class="cls-2" d="M419.79,294.16v0h0v0h0a0.22,0.22,0,0,1,0,0h0v0h0v0h0s0,0,0,0h0a0.38,0.38,0,0,1,0,.06h0a0.12,0.12,0,0,0,0,0h0v0h0v0h0v0h0v0h0l0,0.06h0l0,0.06h0v0l0,0v0h0l0,0.05h0l0,0.05-0.11.1,0,0,0,0a1.06,1.06,0,0,1-.41.15h-0.18a1,1,0,0,1-1-1.12v-4.29c0-.07,0-0.13,0-0.19v0a1.1,1.1,0,0,1,.08-0.32v0a1.06,1.06,0,0,1,.07-0.14l0,0h0v0h0l0,0h0l0,0h0L418,289l0,0h0.11l0.07,0h0.5a1,1,0,0,1,1,1.12v4.29Zm-0.33-5.93H418a1.47,1.47,0,0,0-1.52,1.45v4.67a1.45,1.45,0,0,0,1.52,1.45h1.42a1.46,1.46,0,0,0,1.51-1.3,1,1,0,0,0,0-.15v-4.67a1.47,1.47,0,0,0-1.52-1.45" transform="translate(-349.67 -273.1)"/></g><g id="g5915"><path id="path5917" class="cls-2" d="M425.56,288.23h-1.42a1.47,1.47,0,0,0-1.52,1.45v4.66a1.46,1.46,0,0,0,1.52,1.45h1.69l0.19,0h0.1a1.81,1.81,0,0,0,.27-0.11h0.08a1.28,1.28,0,0,0,.24-0.18h0.09v0h0v0A1.21,1.21,0,0,0,427,295h0v0h0v0h0v0h0v0h0v0h0v0h0v0h0v0h0v0h0v0h0a0,0,0,0,0,0,0h0v0h0v0s0-.09,0-0.14,0-.13,0-0.2v-0.59H425.9v0.44h0a0.15,0.15,0,0,0,0,0h0v0h0v0h0s0,0,0,0h0a0.05,0.05,0,0,1,0,0h0a0.27,0.27,0,0,0,0,0,0.16,0.16,0,0,0,0,0h0s0,0,0,0h0v0h0v0h0v0h0v0h0l0,0.06h0l0,0.06h0v0h0l0,0h0v0h0l0,0h0l0,0h0l0,0,0,0,0,0,0,0h0l0,0h0a1,1,0,0,1-.41.15h-0.18a1,1,0,0,1-1-1.12v-4.29a1.58,1.58,0,0,1,0-.19v0a1.32,1.32,0,0,1,.07-0.32v0a0.87,0.87,0,0,1,.07-0.13l0,0h0l0,0h0l0,0h0v0h0l0.11-.1h0.1l0.08,0h0.49a1,1,0,0,1,1,1.12v0.41h1.19v-0.61a1.47,1.47,0,0,0-1.52-1.45" transform="translate(-349.67 -273.1)"/></g><g id="g5919"><path id="path5921" class="cls-2" d="M450.33,292.67c0-1.29-.62-1.38-2-1.38-1,0-1.29,0-1.29-.86v-0.74s0-.1,0-0.15v0a1.17,1.17,0,0,1,0-.27,0.62,0.62,0,0,1,0-.12h1a0.93,0.93,0,0,1,1.11,1.09v0.4l1.08-.56v-0.14a1.26,1.26,0,0,0-1.28-1.31h-2l-0.09,0h0l-0.13,0h0l-0.15.06h-0.16l-0.14.1h0l0,0h0l0,0a1,1,0,0,0-.16.2h0l0,0h0v0h0v0h0v0h0v0h0l0,0.08h0v0a0,0,0,0,1,0,0,0,0,0,0,0,0,0v0.2a0.11,0.11,0,0,0,0,0v0s0,0,0,0v1.15c0,1,0,1.37,1.51,1.37,1.12,0,1.81,0,1.81,1v1.14h0s0,0.06,0,.1h0s0,0.06,0,.09h0s0,0.06,0,.09h0s0,0.06,0,.08h0v0.08h0a0.48,0.48,0,0,0,0,.08h0l0,0.07h0l0,0.07h0l0,0.06h0l0,0.06h0l0,0.05h0l0,0.05h0l0,0h0l-0.05,0h0l-0.06,0h0a1.23,1.23,0,0,1-.44.11h-0.21c-1,0-1.14-.49-1.14-1.36v-0.54l-1.07.46v0.82c0,1.15,1.4,1.15,1.4,1.15H449a1.33,1.33,0,0,0,1.31-1.33s0-.1,0-0.15v-1.62Z" transform="translate(-349.67 -273.1)"/></g><g id="g5923"><path id="path5925" class="cls-2" d="M435.84,294.1v-1.8h0.41a9,9,0,0,0,2.69-.53,9,9,0,0,0-2.69-.51h-0.41V290a0.17,0.17,0,0,1,0-.08v0a0.16,0.16,0,0,1,0-.07,0.06,0.06,0,0,1,0,0v-0.14a2.16,2.16,0,0,1,.12-0.29v0h0l0-.06h0a1.21,1.21,0,0,1,.86-0.33h2c-0.16-.81-1.51-0.67-1.51-0.67h-1.33l-0.13,0h0l-0.17,0h0l-0.21.06h0a1.36,1.36,0,0,0-1,1.39v4.55a1.52,1.52,0,0,0,1.61,1.46h1.24s1.38,0.14,1.52-.68h-2.05a1,1,0,0,1-1.07-1" transform="translate(-349.67 -273.1)"/></g><g id="g5927"><path id="path5929" class="cls-2" d="M439.82,288.26v1h1.83v6.25l1.14,0.76v-7h0.42a5.65,5.65,0,0,0,2.19-.49,5.55,5.55,0,0,0-2.19-.49h-3.38Z" transform="translate(-349.67 -273.1)"/></g><g id="g5931"><path id="path5933" class="cls-2" d="M433.24,288.26h-1.1l-2.33,3.31v-3.36l-1.16-.75v8.78l1.16-.75v-3.78l2.46,3.91h1.27l-2.63-4.18Z" transform="translate(-349.67 -273.1)"/></g><g id="g5935"><path id="path5937" class="cls-2" d="M359.38,294.16v0h0v0h0a0.11,0.11,0,0,1,0,0h0v0h0a0.11,0.11,0,0,0,0,0h0a0.1,0.1,0,0,0,0,0h0a0.12,0.12,0,0,1,0,0h0v0h0a0.09,0.09,0,0,1,0,0h0v0h0v0h0v0h0v0h0v0h0v0h0l0,0.05h0l0,0h0l0,0h0l0,0h0l0,0h0l0,0h0l0,0h0l0,0h0l0,0h0l0,0h0l0,0h0l0,0h0l-0.05,0h0a1,1,0,0,1-.41.15h-0.18a1,1,0,0,1-1-1.12v-4.29c0-.07,0-0.13,0-0.19v0a1.19,1.19,0,0,1,.08-0.32v0a1.05,1.05,0,0,1,.07-0.13l0.05-.08,0,0a0.92,0.92,0,0,1,.13-0.12h0l0,0h0l0,0h0l0.1-.05h0.49a1,1,0,0,1,1,1.12v4.29ZM359,288.22h-1.42a2,2,0,0,0-.82.21,1.3,1.3,0,0,0-.7,1.23v4.67a1.45,1.45,0,0,0,1.52,1.45H359a1.45,1.45,0,0,0,1.52-1.45v-4.67a1.47,1.47,0,0,0-1.52-1.45" transform="translate(-349.67 -273.1)"/></g><g id="g5939"><path id="path5941" class="cls-2" d="M365.42,288.93v5.24a1,1,0,0,1-.45,1,1,1,0,0,1-.45.14h-0.33a1,1,0,0,1-.85-1.11v-5.22l-1.2-.72v6.18a1.44,1.44,0,0,0,1.43,1.39H365a1.55,1.55,0,0,0,1.55-1.31,0.53,0.53,0,0,0,0-.09V291.6s0-3.34,0-3.38Z" transform="translate(-349.67 -273.1)"/></g><g id="g5943"><path id="path5945" class="cls-2" d="M386.61,295.57V291.3l3.4,4.51v-5.66a11.24,11.24,0,0,0-.49-2.82,11.84,11.84,0,0,0-.51,2.82v2.52l-0.27-.36-3.13-4.08v8.08Z" transform="translate(-349.67 -273.1)"/></g><g id="g5947"><path id="path5949" class="cls-2" d="M370.49,291.29c-1,0-1.29,0-1.29-.86v-0.74s0-.1,0-0.14v0a1.23,1.23,0,0,1,0-.27h0a0.51,0.51,0,0,1,0-.12h0.11l0,0h0.06l0,0h0.07l0,0h0.67a0.93,0.93,0,0,1,1.12,1.09v0.4l1.08-.56v-0.14a1.26,1.26,0,0,0-1.28-1.32h-1.67a2.08,2.08,0,0,0-.86.22,1.05,1.05,0,0,0-.58,1v1.15c0,1,0,1.37,1.51,1.37,1.12,0,1.81,0,1.81,1v1.14h0v0.09h0s0,0.06,0,.09h0s0,0.06,0,.09h0s0,0.06,0,.08h0a0.29,0.29,0,0,1,0,.08h0a0.37,0.37,0,0,1,0,.08h0l0,0.07h0a0.22,0.22,0,0,1,0,.06h0l0,0.06,0,0.06h0l0,0.05,0,0,0,0-0.05,0-0.09,0a1.18,1.18,0,0,1-.44.11h-0.21c-1,0-1.14-.49-1.14-1.36v-0.54l-1.07.46v0.82c0,1.16,1.4,1.16,1.4,1.16h1.78a1.3,1.3,0,0,0,1.12-.87v0h0v0h0v0h0a0.06,0.06,0,0,0,0,0v0a0.09,0.09,0,0,0,0,0h0v0h0a0.11,0.11,0,0,1,0,0v0a1.78,1.78,0,0,0,0-.2s0-.09,0-0.14v-1.62c0-1.29-.62-1.38-2-1.38" transform="translate(-349.67 -273.1)"/></g><g id="g5951"><path id="path5953" class="cls-2" d="M373.33,288.44v1h1.8v6.15l1.12,0.74V289.4h0.41a5.53,5.53,0,0,0,2.15-.48,5.34,5.34,0,0,0-2.15-.48h-3.33Z" transform="translate(-349.67 -273.1)"/></g><g id="g5955"><path id="path5957" class="cls-2" d="M380.63,289.87a1.83,1.83,0,0,1,0-.19v0a1.18,1.18,0,0,1,.08-0.32v0a0.83,0.83,0,0,1,.07-0.13v0h0v0h0v0h0v0h0L381,289h0.17l0,0h0.5a1,1,0,0,1,1,1.12v4.29a0.15,0.15,0,0,1,0,0h0v0h0v0h0v0h0v0h0a0.17,0.17,0,0,1,0,0h0s0,0,0,.06h0v0h0v0h0v0h0v0h0v0h0l0,0.06h0l0,0.06,0,0,0,0.06,0,0.05,0,0a0.62,0.62,0,0,1-.12.11h0l-0.05,0,0,0a1,1,0,0,1-.41.15h-0.18a1,1,0,0,1-1-1.12v-4.29Zm-1.19-.2v4.67a1.46,1.46,0,0,0,1.53,1.45h1.42a1.46,1.46,0,0,0,1.53-1.45v-4.67a1.47,1.47,0,0,0-1.53-1.45H381a1.47,1.47,0,0,0-1.53,1.45" transform="translate(-349.67 -273.1)"/></g><g id="g5959"><path id="path5961" class="cls-2" d="M354,287.23a7.18,7.18,0,0,0-.5,2.28v2H351v-2a7.21,7.21,0,0,0-.5-2.28,8.51,8.51,0,0,0-.5,2.28l0,6.94,1.07-.59,0-3.26v-0.27h2.47l0,3.53,1.07,0.59,0-6.94a8.58,8.58,0,0,0-.5-2.28" transform="translate(-349.67 -273.1)"/></g><g id="g5963"><path id="path5965" class="cls-2" d="M416.36,300.77h0a0,0,0,0,0,0,0h0v0h0v0h0v0h0v0h0v0h0v0h0v0h0v0h0l-0.06.13,0,0-0.09.12h0l-0.1.11,0,0-0.13.12h0c-0.9.73-2.94,1.34-5.71,1.76H410l-0.25,0-0.18,0-0.22,0-0.26,0-0.15,0-0.42,0-0.15,0-0.31,0-0.16,0-0.32,0h-0.14l-0.47,0,0.06-5.25v-0.31c5.08,0.66,9.27,1.39,9.27,2.59v0Zm-13.31,3.18c-0.93,0-1.89,0-2.87,0s-2,0-3-.05l0-1.2c0-.19,0-0.39,0-0.59s0-.2,0-0.3,0-.2,0-0.31v-0.31c0-.11,0-0.21,0-0.32v-0.28c0-.12,0-0.24,0-0.36s0-.15,0-0.22,0-.3,0-0.45,0-.08,0-0.12c0-2.36.13-5,.18-7.73,0-.1,0-0.2,0-0.31,2.52,0.26,5.77.95,5.72,2.76Zm-5.92-21.86c3.54,0.34,6.65,1.19,6.91,3.1v0.08a0.12,0.12,0,0,1,0,0,0.35,0.35,0,0,1,0,.05v0s0,0,0,0v0s0,0,0,0a0.13,0.13,0,0,1,0,0s0,0,0,0v0.08a0.26,0.26,0,0,1,0,0,0.18,0.18,0,0,1,0,0v0.08s0,0,0,0v0.08s0,0,0,0V286s0,0.07,0,.1h0v0a0,0,0,0,1,0,0s0,0,0,0a0.1,0.1,0,0,0,0,0v0.07a0.21,0.21,0,0,0,0,0v0a0.33,0.33,0,0,0,0,0v0a0.34,0.34,0,0,1,0,0s0,0,0,0a0.38,0.38,0,0,1,0,0v0.07h0a0.23,0.23,0,0,1,0,.05h0a3.33,3.33,0,0,1-.09.35l0,0.12a2,2,0,0,1-.08.22l-0.06.13-0.08.18-0.07.13-0.1.17-0.08.13-0.11.15-0.09.12-0.12.15-0.1.11-0.15.14-0.09.09h0a2.81,2.81,0,0,1-.26.23l0,0-0.24.18,0,0-0.25.17,0,0-0.29.17h0c-0.21.12-.43,0.23-0.65,0.32l0,0-0.29.12-0.07,0-0.27.1-0.08,0-0.28.09-0.06,0-0.69.2h0l-0.32.08-0.08,0-0.25.06-0.1,0-0.24,0-0.1,0-0.24,0h-0.09l-0.31,0c0-2.84,0-5.78-.26-8.67,0-.1,0-0.21,0-0.31m-3.82,21.61-0.28,0h0a27.59,27.59,0,0,1-7.24-1.44h0l-0.23-.1h0l-0.2-.09h0l-0.17-.09,0,0-0.14-.09,0,0-0.12-.08,0,0-0.1-.08,0,0-0.08-.07,0,0-0.06-.07,0-.05-0.05-.06,0-.06,0-.06a0.36,0.36,0,0,1,0-.07l0-.05a0.53,0.53,0,0,0,0-.08v0a0.6,0.6,0,0,1,0-.13,0.39,0.39,0,0,1,0-.1v0l0,0a0.58,0.58,0,0,1,.06-0.12h0c0.7-1.05,4.91-1.66,9.13-2.29,0,1.48,0,3.11-.07,4.89Zm13.78-5.6,0.05-4.82c0-.08,0-0.17,0-0.25s0,0,0-.07,0-.11,0-0.17v-0.07c0-.06,0-0.12,0-0.17v0a1.32,1.32,0,0,0-.07-0.2v0l-0.07-.15,0,0-0.08-.13,0,0a2,2,0,0,0-.26-0.3l0,0-0.11-.1,0,0-0.13-.1,0,0-0.17-.1,0,0-0.13-.07-0.06,0-0.12-.05-0.07,0L405.4,291l-0.11,0-0.11,0-0.11,0-0.08,0-0.13,0h0a8.35,8.35,0,0,0-1.89-.15c-0.5,0-.95.06-1.26,0.1a10.35,10.35,0,0,0,5-2.29l0.18-.18h0a5.83,5.83,0,0,0,.49-0.58l0-.06,0.12-.17,0.06-.08,0.11-.18,0-.09c0.05-.1.1-0.2,0.15-0.3l0.07-.14,0.06-.16,0.06-.16,0.05-.15,0.05-.2,0-.13c0-.11,0-0.22.07-0.34s0-.08,0-0.12a2.14,2.14,0,0,0,0-.25V285c0-.09,0-0.17,0-0.26s0-.08,0-0.13,0-.27,0-0.41c-0.22-3.27-4.31-4.9-11.09-4.24l-0.34,0a35.21,35.21,0,0,0-1.56-6.92,43.81,43.81,0,0,0-1.8,7.38l-0.24,0a54.37,54.37,0,0,0-6.93,1.63s3.27-.3,7-0.24c-0.42,4.3,0,8.38,0,16.21H393c-1.11,0-2.19,0-3.23,0h0a30.81,30.81,0,0,0-6,.78h0a6.77,6.77,0,0,0-3.37,1.6,1.24,1.24,0,0,0-.33.85c0.06,1.84,5.54,3.54,13.24,4.18L393.7,316l0.54-7.09a0.82,0.82,0,0,1,0-.12,1.18,1.18,0,0,1,0-.24h0a0.54,0.54,0,0,1,0-.08v0l0,0v0l0,0h0l0,0h0.15l0,0h0.16v0h0v0h0v0h0v0h0v0.05h0v0h0v0h0v0h0v0h0v0h0v0l0.24,9.34,0.57-7.6c0-.05,0-0.1,0-0.15a1.2,1.2,0,0,1,.06-0.33l0,0v0l0-.07,0,0,0,0v0l0.05,0h0.32v0h0v0h0v0h0v0h0l0,0.05h0v0h0v0h0a0,0,0,0,1,0,0h0v0h0a0.16,0.16,0,0,0,0,0h0v0h0a0.06,0.06,0,0,0,0,0h0v0h0v0h0v0l0.26,9.73L397.15,306v-0.28c1,0,2,.05,3,0.05s1.93,0,2.87,0l0.46,14.77,0.4-7.73a1.26,1.26,0,0,1,0-.14,1.23,1.23,0,0,1,.06-0.31v0l0,0,0-.06,0,0,0,0,0,0,0.07,0h0.17l0.06,0.05h0.1v0h0v0h0a0,0,0,0,0,0,0h0v0h0v0h0a0.08,0.08,0,0,0,0,0h0v0h0a0.05,0.05,0,0,0,0,0h0a0.05,0.05,0,0,0,0,0h0v0h0v0h0v0l0.4,10.84,0.41-9.36s0-.09,0-0.13a1.2,1.2,0,0,1,.07-0.27l0-.08,0,0,0-.05,0,0,0,0h0l0.06,0h0.17l0.07,0H406l0,0h0.07v0h0v0h0v0h0v0h0v0h0v0h0v0.05h0v0.06h0v0h0v0l0.33,12.41L407,305.79v-0.24h0c6.28-.52,11.18-1.73,12.83-3.14l0.11-.1,0.05,0,0.09-.09,0-.05,0.08-.09,0.07-.12,0-.08,0-.09,0-.06a0.57,0.57,0,0,0,0-.1,0.19,0.19,0,0,0,0-.05,0.73,0.73,0,0,0,0-.15c-0.09-2-6.18-3.59-13.34-3.25" transform="translate(-349.67 -273.1)"/></g></g></svg>