<svg id="Layer_1" data-name="Layer 1" xmlns="http://www.w3.org/2000/svg" viewBox="0 0 79.44 67.01"><defs><style>.cls-1{fill:#bec0c2;}.cls-2{fill:#002d62;}.cls-3{fill:#ffc526;}</style></defs><title>indiana-pacers</title><path class="cls-1" d="M427.81,275.75a25.47,25.47,0,0,0-19.94-9.23l-31.76,0-14.74,67,27.12,0,3.89-16.21h13.21c9.08,0.06,16.54-3,21.55-8.9,9.11-9.92,7.51-24.41.68-32.65" transform="translate(-361.37 -266.5)"/><path class="cls-2" d="M391,315.53l-3.89,16.21H363.56l14-63.46,30.34,0a23.57,23.57,0,0,1,18.59,8.59c6.72,8.12,7.39,21.61-.66,30.38-4.94,5.79-12.18,8.33-20.2,8.28H391" transform="translate(-361.37 -266.5)"/><path class="cls-3" d="M374.4,282.37h13.3a2.4,2.4,0,0,1,2.45,3.22,17.89,17.89,0,0,0-.92,3.9,1.69,1.69,0,0,0,1.67,1.67l27.1,0c0.51,0,.78-0.14.78-0.39a14.41,14.41,0,0,0-.12-1.77c-0.09-.6-0.19-0.7-0.68-0.7-3.37,0-4.75-1.51-8.3-3.79a26,26,0,0,0-13.2-3.6H374.72l-0.33,1.46" transform="translate(-361.37 -266.5)"/><path class="cls-3" d="M390.82,299.92a18.53,18.53,0,0,1-1.17-3.3,3.37,3.37,0,0,0-3.56-2.55H371.83l0.35-1.6,46.23,0c0.46,0,.36.19,0.33,0.71s-0.14,1.45-.22,2-0.53.43-1,.44a8,8,0,0,0-4.1,1.11,37.88,37.88,0,0,1-8.3,4.7c-2.46.79-11.66,3.6-14.36-1.59" transform="translate(-361.37 -266.5)"/><path class="cls-3" d="M369.27,305.7l24.14,0a4.07,4.07,0,0,1,2.7.85,21.05,21.05,0,0,0,7.49,3.71c1.26,0.37,3.43-.11,5.37-1.2a21,21,0,0,0,9-11.28c0.27-.88-0.24-0.8-0.92-0.75-2,.14-4.17,2-7,3.78s-8.55,3.49-14,3.48H369.58l-0.31,1.41" transform="translate(-361.37 -266.5)"/><path class="cls-3" d="M404.68,273.38a5.37,5.37,0,0,1,2.24.13c4.58,1.81,8.93,6.58,10.74,11.66,0.35,1,.44,1.6,0,1.65-2.1.24-3.08-.81-5.56-2.48a28.58,28.58,0,0,0-7.88-3.81c-3.09-1-8.71-1.13-9.44-1.15s-0.63-.33-0.32-0.64a19.56,19.56,0,0,1,10.21-5.35" transform="translate(-361.37 -266.5)"/><path class="cls-3" d="M426.68,290.77a0.43,0.43,0,0,1-.43.42H421a0.59,0.59,0,0,1-.71-0.71c0-.39-0.14-1.16-0.16-1.62a1,1,0,0,1,.41-1.21,7.78,7.78,0,0,0,3.5-3.3c0.21-.42.53-1.11,0.89-0.52a14.68,14.68,0,0,1,1.79,6.95" transform="translate(-361.37 -266.5)"/><path class="cls-3" d="M424.79,300.27a0.3,0.3,0,0,1-.54,0,8.63,8.63,0,0,0-3.86-4.19,0.68,0.68,0,0,1-.37-0.83c0.05-.38.21-1.58,0.23-2.08a0.6,0.6,0,0,1,.49-0.69h5.51a0.46,0.46,0,0,1,.43.33,17.25,17.25,0,0,1-1.89,7.46" transform="translate(-361.37 -266.5)"/><path class="cls-3" d="M410.46,310.61c-0.39.06-1.23-.07,0.1-0.85,4-2.33,7.57-7.79,8.52-10.93,0.36-1.19.4-1.26,0.86-1.13a5.78,5.78,0,0,1,2.32,2c0.74,1,1.06,3,.63,3.57a19.11,19.11,0,0,1-12.44,7.3" transform="translate(-361.37 -266.5)"/><path class="cls-3" d="M420.64,285.89c-0.93.5-1.11,0.41-1.31-.29-1.74-6.1-6.87-10.62-9-12-0.4-.25-0.29-0.42,0-0.38,5,0.67,9.94,3.41,12.42,7.16,1.42,2.14-1.23,5-2.13,5.47" transform="translate(-361.37 -266.5)"/><path class="cls-2" d="M399.52,322.49c-0.06.25-1,4.2-1,4.41H396l1-4.41h2.49m-4.09-1.78-3,12.67h2s1.06-4.49,1.12-4.7h3.25a1.55,1.55,0,0,0,1.57-1.24l1.29-5.45a1.46,1.46,0,0,0,0-.35,0.89,0.89,0,0,0-.18-0.56,1.17,1.17,0,0,0-1-.38h-5.13Z" transform="translate(-361.37 -266.5)"/><path class="cls-2" d="M399.52,322.49c-0.06.25-1,4.2-1,4.41H396l1-4.41h2.49Zm-4.09-1.78-3,12.67h2s1.06-4.49,1.12-4.7h3.25a1.55,1.55,0,0,0,1.57-1.24l1.29-5.45a1.46,1.46,0,0,0,0-.35,0.89,0.89,0,0,0-.18-0.56,1.17,1.17,0,0,0-1-.38h-5.13Z" transform="translate(-361.37 -266.5)"/><path class="cls-2" d="M406.21,328.89c-0.06.28-.62,2.62-0.67,2.81H403.3c0.07-.27.63-2.62,0.67-2.81h2.24m-1.61-5.71a1.39,1.39,0,0,0-1.46,1.16l-0.53,2.24h2l0.4-1.68h2.18c-0.07.29-.49,2.06-0.54,2.25h-2.89a1.61,1.61,0,0,0-1.67,1.41l-0.88,3.68a1.23,1.23,0,0,0,0,.28,0.9,0.9,0,0,0,.19.57,1.1,1.1,0,0,0,.89.37h0.05c0.71,0,2.28-.17,2.89-0.23l0,0.16h2l2.13-9a1,1,0,0,0-.11-0.91,1,1,0,0,0-.82-0.32H404.6Z" transform="translate(-361.37 -266.5)"/><path class="cls-2" d="M406.21,328.89c-0.06.28-.62,2.62-0.67,2.81H403.3c0.07-.27.63-2.62,0.67-2.81h2.24Zm-1.61-5.71a1.39,1.39,0,0,0-1.46,1.16l-0.53,2.24h2l0.4-1.68h2.18c-0.07.29-.49,2.06-0.54,2.25h-2.89a1.61,1.61,0,0,0-1.67,1.41l-0.88,3.68a1.23,1.23,0,0,0,0,.28,0.9,0.9,0,0,0,.19.57,1.1,1.1,0,0,0,.89.37h0.05c0.71,0,2.28-.17,2.89-0.23l0,0.16h2l2.13-9a1,1,0,0,0-.11-0.91,1,1,0,0,0-.82-0.32H404.6Z" transform="translate(-361.37 -266.5)"/><path class="cls-2" d="M412.91,323.18a1.36,1.36,0,0,0-1.43,1.16l-1.86,7.82a1,1,0,0,0,.11.91,1,1,0,0,0,.82.31h3.66a1.36,1.36,0,0,0,1.43-1.15l0.72-3h-2l-0.59,2.48h-2.12c0.08-.32,1.56-6.55,1.61-6.76h2.11c-0.07.3-.39,1.66-0.39,1.66h2l0.52-2.15a1.08,1.08,0,0,0-.11-0.93,1,1,0,0,0-.83-0.3h-3.66" transform="translate(-361.37 -266.5)"/><path class="cls-2" d="M412.91,323.18a1.36,1.36,0,0,0-1.43,1.16l-1.86,7.82a1,1,0,0,0,.11.91,1,1,0,0,0,.82.31h3.66a1.36,1.36,0,0,0,1.43-1.15l0.72-3h-2l-0.59,2.48h-2.12c0.08-.32,1.56-6.55,1.61-6.76h2.11c-0.07.3-.39,1.66-0.39,1.66h2l0.52-2.15a1.08,1.08,0,0,0-.11-0.93,1,1,0,0,0-.83-0.3h-3.66Z" transform="translate(-361.37 -266.5)"/><path class="cls-2" d="M423.47,324.9l-0.54,2.26h-2.1l0.54-2.26h2.1M421,323.18a1.37,1.37,0,0,0-1.43,1.16l-1.86,7.82a1,1,0,0,0,.11.91,1,1,0,0,0,.82.31h3.68a1.42,1.42,0,0,0,.93-0.28,1.5,1.5,0,0,0,.5-0.87l0.68-2.86h-2s-0.5,2.1-.55,2.29h-2.09l0.67-2.84h3.61l0.58-.46,0.94-4a1.51,1.51,0,0,0,0-.39,0.84,0.84,0,0,0-.15-0.53,1,1,0,0,0-.83-0.31H421Z" transform="translate(-361.37 -266.5)"/><path class="cls-2" d="M423.47,324.9l-0.54,2.26h-2.1l0.54-2.26h2.1ZM421,323.18a1.37,1.37,0,0,0-1.43,1.16l-1.86,7.82a1,1,0,0,0,.11.91,1,1,0,0,0,.82.31h3.68a1.42,1.42,0,0,0,.93-0.28,1.5,1.5,0,0,0,.5-0.87l0.68-2.86h-2s-0.5,2.1-.55,2.29h-2.09l0.67-2.84h3.61l0.58-.46,0.94-4a1.51,1.51,0,0,0,0-.39,0.84,0.84,0,0,0-.15-0.53,1,1,0,0,0-.83-0.31H421Z" transform="translate(-361.37 -266.5)"/><path class="cls-2" d="M432.54,323.1c-0.8.09-2.08,0.24-2.63,0.33l0.06-.24h-2l-2.42,10.2h2l2-8.33h2c-0.08.3-.33,1.51-0.33,1.51h2l0.5-2.23a1.06,1.06,0,0,0-.11-0.91,1.12,1.12,0,0,0-.93-0.34h-0.08" transform="translate(-361.37 -266.5)"/><path class="cls-2" d="M432.54,323.1c-0.8.09-2.08,0.24-2.63,0.33l0.06-.24h-2l-2.42,10.2h2l2-8.33h2c-0.08.3-.33,1.51-0.33,1.51h2l0.5-2.23a1.06,1.06,0,0,0-.11-0.91,1.12,1.12,0,0,0-.93-0.34h-0.08Z" transform="translate(-361.37 -266.5)"/><path class="cls-2" d="M436.15,323.18a1.32,1.32,0,0,0-1.33,1.16l-0.58,2.43a1.76,1.76,0,0,0-.05.4,0.76,0.76,0,0,0,.15.49,0,0,0,0,1,0,0h0l0.1,0.08c2.27,1.55,2.87,2,3,2.11,0,0.15-.41,1.73-0.42,1.79h-2l0.54-2.24h-2L433,332.16a1,1,0,0,0,.11.93,0.88,0.88,0,0,0,.73.29h3.72a1.31,1.31,0,0,0,1.34-1.16l0.64-2.67a1.73,1.73,0,0,0,0-.37,1,1,0,0,0-.27-0.71h0c-1-.68-2.71-1.78-3-2l0.37-1.56h2l-0.39,1.69h2l0.5-2.18a1.08,1.08,0,0,0-.11-0.93,0.91,0.91,0,0,0-.75-0.3h-3.74" transform="translate(-361.37 -266.5)"/><path class="cls-2" d="M436.15,323.18a1.32,1.32,0,0,0-1.33,1.16l-0.58,2.43a1.76,1.76,0,0,0-.05.4,0.76,0.76,0,0,0,.15.49,0,0,0,0,1,0,0h0l0.1,0.08c2.27,1.55,2.87,2,3,2.11,0,0.15-.41,1.73-0.42,1.79h-2l0.54-2.24h-2L433,332.16a1,1,0,0,0,.11.93,0.88,0.88,0,0,0,.73.29h3.72a1.31,1.31,0,0,0,1.34-1.16l0.64-2.67a1.73,1.73,0,0,0,0-.37,1,1,0,0,0-.27-0.71h0c-1-.68-2.71-1.78-3-2l0.37-1.56h2l-0.39,1.69h2l0.5-2.18a1.08,1.08,0,0,0-.11-0.93,0.91,0.91,0,0,0-.75-0.3h-3.74Z" transform="translate(-361.37 -266.5)"/></svg>