<svg id="Layer_1" data-name="Layer 1" xmlns="http://www.w3.org/2000/svg" xmlns:xlink="http://www.w3.org/1999/xlink" viewBox="0 0 90.61 56.5"><defs><style>.cls-1{fill:none;}.cls-2{fill:#fdb827;}.cls-3{fill:#552582;}.cls-4{clip-path:url(#clip-path);}.cls-5{fill:#231f20;}</style><clipPath id="clip-path" transform="translate(-354.69 -271.75)"><path class="cls-1" d="M397.46,327.58A27.59,27.59,0,1,0,370.29,300a27.39,27.39,0,0,0,27.18,27.59"/></clipPath></defs><title>los-angeles-lakers</title><g id="g3123"><path id="path3055" class="cls-2" d="M397.46,327.58A27.59,27.59,0,1,0,370.29,300a27.39,27.39,0,0,0,27.18,27.59" transform="translate(-354.69 -271.75)"/><path id="path3057" class="cls-3" d="M409.86,302.81c-2.54,3.08-4,4.13-6.56,4.13-0.88,0-1.33-.2-1.09-0.62l3.06-6.15h1.17c1.3,0,1.12,1.1.77,2.58-0.06.21,0.09,0.22,0.25,0l2.91-5.11c0.14-.32-0.22-0.38-0.4-0.14a3.9,3.9,0,0,1-3.64,1.83h-0.53l3.27-6.23h1.32c1.66,0.1,2.43,1.51,2,4.91H413l2.4-4.73a0.6,0.6,0,0,0-.67-0.77h-16.3c-0.94,0-1,.72-0.08.72,0.73,0,.69,1.05,0,1.56l-6.92,5.49,1.4,6.49a0.86,0.86,0,0,0,1,.72h13.48a1.07,1.07,0,0,0,1-.46l2.44-4.21c0.34-.61-0.45-0.57-0.87-0.05m-9.39-3h-1.19a0.15,0.15,0,1,0,0,.3h1.2c0.41,0,.78.05,0.68,0.23l-3.12,6a0.7,0.7,0,0,1-1.34,0l-1.54-8,5.43-4.21a4.92,4.92,0,0,1,2.11-1.21h1.18c0.72,0,1,.33.81,0.77l-0.21.4a1.13,1.13,0,0,1-.92.25h-0.68a0.15,0.15,0,1,0,0,.3h0.67c0.29,0,.66,0,0.52.23l-2.52,4.8a1.63,1.63,0,0,1-1.08.22" transform="translate(-354.69 -271.75)"/><path id="path3059" class="cls-3" d="M389.28,306.82a0.74,0.74,0,0,1-.68-0.5,2,2,0,0,1,0-1.23l6.29-11.15a1,1,0,0,1,.67-0.64c0.56,0,.8-0.73-0.15-0.73h-5c-0.94,0-1,.72,0,0.72a0.42,0.42,0,0,1,.41.58l-1.39,2.52a1.08,1.08,0,0,1-1,.3h-1.2a0.15,0.15,0,0,0-.15.15,0.15,0.15,0,0,0,.15.15h1.19c0.32,0,.58.1,0.39,0.47l-4.64,8.46c-0.33.47-1,.57-1-0.32l1.65-12.38c0.07-.39,0-0.65-0.45-0.65H381.9a0.73,0.73,0,0,0-.62.34L380.39,294a1,1,0,0,1-.64.12h-2.09a0.15,0.15,0,0,0,0,.3h1.71c0.3,0,.66.07,0.53,0.21l-2.4,3a0.73,0.73,0,0,1-.45.11h-0.68a0.15,0.15,0,1,0,0,.3h0.56c0.17,0,.18.08,0.11,0.16L374.79,301a0.87,0.87,0,0,1-.56.13h-2a0.15,0.15,0,0,0,0,.3h1.71c0.26,0,.46,0,0.32.22l-3.2,4c-0.6.77-3.5,1.16-4.06,1.16l10.82-20.25a1.15,1.15,0,0,1,.92-0.59H381c1.08,0,1.05-.72.11-0.72H369.61c-0.94,0-1,.72.1,0.72h2.14c0.61,0,.8.37,0.65,0.67l-0.31.56c-0.1.18-.25,0.25-0.83,0.25h-3.78a0.15,0.15,0,0,0-.15.15,0.15,0.15,0,0,0,.15.15h3.77c0.21,0,.51.05,0.32,0.42l-0.53,1a0.68,0.68,0,0,1-.59.22h-1.71a0.15,0.15,0,1,0,0,.3h1.7c0.24,0,.25.16,0.11,0.38l-1.22,2.26a0.67,0.67,0,0,1-.69.22h-0.68a0.15,0.15,0,1,0,0,.3h0.67c0.26,0,.32.14,0.21,0.39l-1,1.86a1,1,0,0,1-1,.37h-3.78a0.15,0.15,0,0,0,0,.3h3.77c0.42,0,.58.19,0.42,0.5l-2,3.67a1.31,1.31,0,0,1-1,.19h-3.78a0.15,0.15,0,0,0-.15.15,0.15,0.15,0,0,0,.15.15h3.77c0.45,0,.73,0,0.59.26l-1.12,2.11a1.26,1.26,0,0,1-1,.32h-1.2a0.15,0.15,0,0,0,0,.3h1.19c0.42,0,.64.07,0.53,0.3l-1.5,2.82a1.56,1.56,0,0,1-1.17.26h-5.84a0.15,0.15,0,1,0,0,.3h5.83c0.39,0,.88,0,0.69.36l-1,1.8a1.21,1.21,0,0,1-.89.16h-1.2a0.15,0.15,0,1,0,0,.3h1.19c0.29,0,.64,0,0.52.25l-0.6,1.15a0.94,0.94,0,0,1-.85.54h-2.93c-1.08,0-1,.72-0.11.72h17.22a0.64,0.64,0,0,0,.76-0.44l2.55-4.45h13c0.94,0,.7-0.71.15-0.73M379,305.49a2.18,2.18,0,0,1-1.8,1.47l-1,.24,0.79-1.42c0.21-.39-0.25-0.61-0.74,0-3.33,3.88-4.4,5.74-9.53,5.75h-1.38c-0.42,0-.88-0.16-0.59-0.56l1.82-3.39h6.91c0.94,0,.7-0.71.15-0.73a1.32,1.32,0,0,1-1-.67,1,1,0,0,1,0-1l2.65-3.52h4.4Zm1-4.44h-4.29l5.42-7.15L380,301h0Z" transform="translate(-354.69 -271.75)"/><path id="path3061" class="cls-3" d="M445.29,303.26c-0.07-.35-0.2-0.14-0.43.31a0.6,0.6,0,0,1-.52.14h-0.69a0.15,0.15,0,1,0,0,.3h0.68c0.26,0,.26.17,0.14,0.43a11.67,11.67,0,0,1-1.61,2.5,0.83,0.83,0,0,1-.57.24h-0.69a0.15,0.15,0,0,0,0,.3h0.68c0.34,0,0,.21-0.06.29a15.18,15.18,0,0,1-2.92,3,3,3,0,0,1-1,.05h-0.68a0.15,0.15,0,0,0,0,.3h0.67c0.52,0,.13.3,0.05,0.36a9.05,9.05,0,0,1-5.95,1.91,5.88,5.88,0,0,1-5.31-4.93c-0.06-.26-0.26-0.8-0.33-1.14-0.13-.66,1.74-0.85,2.26-0.5a8.8,8.8,0,0,0,4.05,1.07c1.33,0,4.05-1,4.84-3.25s-1.22-4.93-2.12-5.83c-1.14-1.14-2.22-3-1.77-4.3a1.93,1.93,0,0,1,2.14-1.46,2.52,2.52,0,0,1,2.74,2.47,0.26,0.26,0,0,1-.18.28h-0.56a0.15,0.15,0,0,0-.15.15,0.15,0.15,0,0,0,.15.15h0.53a0.21,0.21,0,0,1,.2.29c-0.1.48-.14,0.82-0.24,1.31a0.3,0.3,0,0,0,.49.27l2.5-4.46c0.18-.34-0.22-0.43-0.52-0.32a3.24,3.24,0,0,1-2.19.12,4.88,4.88,0,0,0-3.08-1.1c-2.22,0-3.77.54-4.77,2.37a0.53,0.53,0,0,1-.48.14h-0.43a0.15,0.15,0,0,0-.15.15,0.15,0.15,0,0,0,.15.15h0.36c0.16,0,.26,0,0.18.22s-0.13.34-.19,0.52a4.55,4.55,0,0,0,.23,2.89c0,0.07-.06.1-0.21,0.1h-0.68a0.15,0.15,0,0,0-.15.15,0.15,0.15,0,0,0,.15.15h0.68a0.47,0.47,0,0,1,.51.21c0.35,0.49.71,0.86,1.16,1.43,0.14,0.18-.46.23-0.79,0.23h-2.69a0.15,0.15,0,0,0,0,.3h2.72a4.35,4.35,0,0,1,1.27.09,6.62,6.62,0,0,1,1.59,2.92c0,0.29-.07.4-0.42,0.4h-0.37a0.15,0.15,0,0,0,0,.3h0.32c0.28,0,.43,0,0.36.25-0.35,1.13-.88,1.94-3,1.93s-2.72-2.23-2.06-4.54c0.13-.46,0-0.66-0.21-0.29l-1.57,2.47a0.54,0.54,0,0,1-.43.2h-0.22a0.15,0.15,0,0,0-.15.15,0.15,0.15,0,0,0,.15.15c0.2,0,.28.11,0.2,0.22l-0.57.9a29.11,29.11,0,0,0-3.39-5.82v0c2.1-.13,5.19-2.09,5.69-3.84,0.88-3-2.08-4.17-3.69-4.17H417.9c-0.94,0-1,.71-0.11.71a0.65,0.65,0,0,1,.7.86l-1.57,2.83a1.65,1.65,0,0,1-1.25.22H415a0.15,0.15,0,0,0,0,.3h0.68c0.45,0,.95,0,0.78.35l-1.86,3.35a1.15,1.15,0,0,1-1,.17h-0.68a0.15,0.15,0,0,0,0,.3h0.67c0.5,0,.68.07,0.54,0.32l-2.48,4.48a1.5,1.5,0,0,1-1.25.38c-0.9,0-.89.72,0,0.72h6.07c0.94,0,.7-0.73.15-0.73a0.7,0.7,0,0,1-.45-1l3.1-5.87h0.32c1.38,0,1.71,2.26,2,4.73,0,0.18-.32.18-1,0.18h-1.72a0.15,0.15,0,0,0,0,.3h1.7a1.94,1.94,0,0,1,1.1.15,23.8,23.8,0,0,0,.42,2.91c0.06,0.27-.42.23-0.94,0.23H419a0.15,0.15,0,1,0,0,.3h2.19a1.51,1.51,0,0,1,1.08.14c0.94,3.46,5,6.18,8.92,6a13.71,13.71,0,0,0,7.69-3.13,26.19,26.19,0,0,0,6-7.2,2.79,2.79,0,0,0,.47-1.38m-22.7-4.61a2.32,2.32,0,0,1-1.36.69,5.87,5.87,0,0,0-1.17-.79l2.81-5.14a0.57,0.57,0,0,1,.56-0.28c1.09,0,1.45,1.19.94,2.66a6.52,6.52,0,0,1-1.78,2.85" transform="translate(-354.69 -271.75)"/><path id="path3063" class="cls-3" d="M388.44,288a2.51,2.51,0,0,1-2.17.92H386l1.49-3a0.47,0.47,0,0,1,.42-0.24c0.19,0,.16-0.37-0.08-0.37h-2.35c-0.2,0-.27.37-0.08,0.37s0.24,0.22.14,0.41l-1.34,2.63a0.61,0.61,0,0,1-.4.22c-0.2.05-.33,0.41-0.11,0.41h3.75a0.43,0.43,0,0,0,.44-0.21l0.76-1.17c0.11-.14-0.12-0.16-0.23,0" transform="translate(-354.69 -271.75)"/><path id="path3065" class="cls-3" d="M399.75,285.44a0.54,0.54,0,0,1-.5,0,2.33,2.33,0,0,0-1.2-.44,1.79,1.79,0,0,0-1.91,1,1.2,1.2,0,0,0,.79,1.67c0.34,0.16.79,0.36,0.61,0.77a0.75,0.75,0,0,1-.78.33,1.21,1.21,0,0,1-1.15-.91,0.17,0.17,0,0,0-.32,0l-0.54,1.06c-0.08.14,0.14,0.3,0.22,0.21a0.68,0.68,0,0,1,.76-0.11,3.23,3.23,0,0,0,1.36.48,2.07,2.07,0,0,0,2-1,1.17,1.17,0,0,0-.65-1.79,0.79,0.79,0,0,1-.61-1,0.64,0.64,0,0,1,.7-0.17,1.19,1.19,0,0,1,.89.71,0.14,0.14,0,0,0,.26,0l0.28-.66c0.06-.13-0.14-0.23-0.21-0.19" transform="translate(-354.69 -271.75)"/><path id="path3067" class="cls-3" d="M425.81,286.5l0.33-.6a0.42,0.42,0,0,0-.47-0.57h-4.38c-0.31,0-.22.33-0.1,0.33,0.28,0,.37.34,0.19,0.64l-1.32,2.42a0.69,0.69,0,0,1-.6.33c-0.23,0-.31.33,0,0.33h4.44a0.35,0.35,0,0,0,.33-0.15l0.6-.8c0.15-.19-0.17-0.19-0.27-0.1a2.73,2.73,0,0,1-2.18.75h-0.52l0.61-1.36h0.13a1,1,0,0,1,1,.29,0.19,0.19,0,0,0,.3,0l0.52-1c0.08-.15-0.15-0.18-0.21-0.07a1.77,1.77,0,0,1-1.34.27h-0.13l0.76-1.49h0.84a1.24,1.24,0,0,1,1.13.78c0,0.1.32,0.17,0.37,0.05" transform="translate(-354.69 -271.75)"/><path id="path3069" class="cls-3" d="M414.59,285.33H413c-0.32,0-.22.33-0.09,0.33a0.53,0.53,0,0,1,.46.75l-0.65,1.18-1.42-2.09a0.67,0.67,0,0,0-.51-0.19h-1.54c-0.32,0-.24.33-0.11,0.33,0.33,0,.24.24,0.16,0.42l-1.22,2.36a0.29,0.29,0,0,1-.51,0l-0.95-3.09a0.8,0.8,0,0,0-.73,0l-2.37,2H402.3c-0.24,0-.34.1-0.34,0.23s0.09,0.25.35,0.25h0.64l-0.64.53a2.72,2.72,0,0,1-1,.63h-0.15c-0.23,0-.37,0-0.37.22s0.1,0.25.32,0.25h1.91c0.36,0,.29-0.47.11-0.47a0.34,0.34,0,0,1-.22-0.61l0.58-.56h1.15c0.68,0,1.16.79,0.75,1l-0.31.17c-0.15.08-.21,0.42,0,0.42h3.74c0.28,0,.22-0.37.09-0.37-0.38,0-.2-0.55-0.13-0.7l1-1.86,1.38,2.68a0.36,0.36,0,0,0,.33.25H412a0.33,0.33,0,0,0,.3-0.23l1.57-2.84a0.84,0.84,0,0,1,.77-0.65c0.13,0,.22-0.33-0.1-0.33m-10.46,1.94,1.46-1.19v1.19h-1.47Z" transform="translate(-354.69 -271.75)"/><path id="path3071" class="cls-3" d="M392.44,285.15a2.79,2.79,0,0,0-2.94,2,2,2,0,0,0,2.07,2.45,3,3,0,0,0,2.95-2.24,1.88,1.88,0,0,0-2.07-2.23m0.37,2.53c-0.42.83-1.12,1.33-1.56,1.1s-0.46-1.08,0-1.91,1.11-1.33,1.56-1.1,0.46,1.08,0,1.91" transform="translate(-354.69 -271.75)"/><path id="path3073" class="cls-3" d="M419,287.17h-1.69c-0.32,0-.22.33-0.1,0.33a0.25,0.25,0,0,1,.26.28,0.79,0.79,0,0,1-.88.95c-0.64,0-.87-0.78-0.44-1.74a2.12,2.12,0,0,1,1.87-1.18,0.86,0.86,0,0,1,1,.61c0,0.12.2,0.12,0.26,0l0.4-.72c0-.08,0-0.17-0.15-0.18a0.75,0.75,0,0,1-.49,0,3.34,3.34,0,0,0-4.66,1.2,1.85,1.85,0,0,0,1.4,2.77,4.6,4.6,0,0,0,1.64-.59l0.43,0.29a0.48,0.48,0,0,0,.33.17h0.16a0.42,0.42,0,0,0,.27-0.33l0.66-1.61c0.09-.16,0-0.28-0.34-0.28" transform="translate(-354.69 -271.75)"/><path id="path3075" class="cls-3" d="M442.19,285.44a0.54,0.54,0,0,1-.5,0,2.33,2.33,0,0,0-1.2-.44,1.78,1.78,0,0,0-1.91,1,1.2,1.2,0,0,0,.79,1.67c0.34,0.16.79,0.36,0.62,0.77a0.76,0.76,0,0,1-.79.33,1.21,1.21,0,0,1-1.15-.91,0.17,0.17,0,0,0-.32,0l-0.54,1.06c-0.08.14,0.14,0.3,0.22,0.21a0.68,0.68,0,0,1,.77-0.11,3.19,3.19,0,0,0,1.36.48,2.06,2.06,0,0,0,2-1,1.17,1.17,0,0,0-.64-1.79,0.79,0.79,0,0,1-.61-1,0.64,0.64,0,0,1,.7-0.17,1.2,1.2,0,0,1,.89.71,0.14,0.14,0,0,0,.26,0l0.28-.66c0.06-.13-0.14-0.23-0.21-0.19" transform="translate(-354.69 -271.75)"/><path id="path3077" class="cls-3" d="M430.44,288a2.51,2.51,0,0,1-2.17.92H428l1.49-3a0.47,0.47,0,0,1,.42-0.24c0.19,0,.16-0.37-0.08-0.37h-2.35c-0.2,0-.27.37-0.08,0.37s0.24,0.22.14,0.41l-1.34,2.63a0.6,0.6,0,0,1-.4.22c-0.2.05-.33,0.41-0.11,0.41h3.75a0.44,0.44,0,0,0,.44-0.21l0.75-1.17c0.11-.14-0.12-0.16-0.23,0" transform="translate(-354.69 -271.75)"/><path id="path3079" class="cls-3" d="M436.1,285.67a1.24,1.24,0,0,1,1.13.78c0,0.1.31,0.17,0.37,0.05l0.33-.6a0.42,0.42,0,0,0-.47-0.57h-4.38c-0.32,0-.22.33-0.1,0.33,0.28,0,.37.34,0.2,0.64l-1.32,2.42a0.69,0.69,0,0,1-.61.33c-0.23,0-.31.33,0,0.33h4.44a0.34,0.34,0,0,0,.32-0.15l0.6-.8c0.15-.19-0.17-0.19-0.27-0.1a2.73,2.73,0,0,1-2.18.75h-0.52l0.61-1.36h0.13a1,1,0,0,1,1,.29,0.19,0.19,0,0,0,.3,0l0.52-1c0.08-.15-0.15-0.18-0.21-0.07a1.78,1.78,0,0,1-1.34.27H434.5l0.76-1.49h0.84Z" transform="translate(-354.69 -271.75)"/><g id="g3081"><g class="cls-4"><path id="path3089" class="cls-3" d="M409.86,302.81c-2.54,3.08-4,4.13-6.56,4.13-0.88,0-1.33-.2-1.09-0.62l3.06-6.15h1.17c1.3,0,1.12,1.1.77,2.58-0.06.21,0.09,0.22,0.25,0l2.91-5.11c0.14-.32-0.22-0.38-0.4-0.14a3.9,3.9,0,0,1-3.64,1.83h-0.53l3.27-6.23h1.32c1.66,0.1,2.43,1.51,2,4.91H413l2.4-4.73a0.6,0.6,0,0,0-.67-0.77h-16.3c-0.94,0-1,.72-0.08.72,0.73,0,.69,1.05,0,1.56l-6.92,5.49,1.4,6.49a0.86,0.86,0,0,0,1,.72h13.48a1.07,1.07,0,0,0,1-.46l2.44-4.21c0.34-.61-0.45-0.57-0.87-0.05m-9.39-3h-1.19a0.15,0.15,0,1,0,0,.3h1.2c0.41,0,.78.05,0.68,0.23l-3.12,6a0.7,0.7,0,0,1-1.34,0l-1.54-8,5.43-4.21a4.92,4.92,0,0,1,2.11-1.21h1.18c0.72,0,1,.33.81,0.77l-0.21.4a1.13,1.13,0,0,1-.92.25h-0.68a0.15,0.15,0,1,0,0,.3h0.67c0.29,0,.66,0,0.52.23l-2.52,4.8a1.63,1.63,0,0,1-1.08.22" transform="translate(-354.69 -271.75)"/></g><g class="cls-4"><path id="path3091" class="cls-3" d="M389.28,306.82a0.74,0.74,0,0,1-.68-0.5,2,2,0,0,1,0-1.23l6.29-11.15a1,1,0,0,1,.67-0.64c0.56,0,.8-0.73-0.15-0.73h-5c-0.94,0-1,.72,0,0.72a0.42,0.42,0,0,1,.41.58l-1.39,2.52a1.08,1.08,0,0,1-1,.3h-1.2a0.15,0.15,0,0,0-.15.15,0.15,0.15,0,0,0,.15.15h1.19c0.32,0,.58.1,0.39,0.47l-4.64,8.46c-0.33.47-1,.57-1-0.32l1.65-12.38c0.07-.39,0-0.65-0.45-0.65H381.9a0.73,0.73,0,0,0-.62.34L380.39,294a1,1,0,0,1-.64.12h-2.09a0.15,0.15,0,0,0,0,.3h1.71c0.3,0,.66.07,0.53,0.21l-2.4,3a0.73,0.73,0,0,1-.45.11h-0.68a0.15,0.15,0,1,0,0,.3h0.56c0.17,0,.18.08,0.11,0.16L374.79,301a0.87,0.87,0,0,1-.56.13h-2a0.15,0.15,0,0,0,0,.3h1.71c0.26,0,.46,0,0.32.22l-3.2,4c-0.6.77-3.5,1.16-4.06,1.16l10.82-20.25a1.15,1.15,0,0,1,.92-0.59H381c1.08,0,1.05-.72.11-0.72H369.61c-0.94,0-1,.72.1,0.72h2.14c0.61,0,.8.37,0.65,0.67l-0.31.56c-0.1.18-.25,0.25-0.83,0.25h-3.78a0.15,0.15,0,0,0-.15.15,0.15,0.15,0,0,0,.15.15h3.77c0.21,0,.51.05,0.32,0.42l-0.53,1a0.68,0.68,0,0,1-.59.22h-1.71a0.15,0.15,0,1,0,0,.3h1.7c0.24,0,.25.16,0.11,0.38l-1.22,2.26a0.67,0.67,0,0,1-.69.22h-0.68a0.15,0.15,0,1,0,0,.3h0.67c0.26,0,.32.14,0.21,0.39l-1,1.86a1,1,0,0,1-1,.37h-3.78a0.15,0.15,0,0,0,0,.3h3.77c0.42,0,.58.19,0.42,0.5l-2,3.67a1.31,1.31,0,0,1-1,.19h-3.78a0.15,0.15,0,0,0-.15.15,0.15,0.15,0,0,0,.15.15h3.77c0.45,0,.73,0,0.59.26l-1.12,2.11a1.26,1.26,0,0,1-1,.32h-1.2a0.15,0.15,0,0,0,0,.3h1.19c0.42,0,.64.07,0.53,0.3l-1.5,2.82a1.56,1.56,0,0,1-1.17.26h-5.84a0.15,0.15,0,1,0,0,.3h5.83c0.39,0,.88,0,0.69.36l-1,1.8a1.21,1.21,0,0,1-.89.16h-1.2a0.15,0.15,0,1,0,0,.3h1.19c0.29,0,.64,0,0.52.25l-0.6,1.15a0.94,0.94,0,0,1-.85.54h-2.93c-1.08,0-1,.72-0.11.72h17.22a0.64,0.64,0,0,0,.76-0.44l2.55-4.45h13c0.94,0,.7-0.71.15-0.73M379,305.49a2.18,2.18,0,0,1-1.8,1.47l-1,.24,0.79-1.42c0.21-.39-0.25-0.61-0.74,0-3.33,3.88-4.4,5.74-9.53,5.75h-1.38c-0.42,0-.88-0.16-0.59-0.56l1.82-3.39h6.91c0.94,0,.7-0.71.15-0.73a1.32,1.32,0,0,1-1-.67,1,1,0,0,1,0-1l2.65-3.52h4.4Zm1-4.44h-4.29l5.42-7.15L380,301h0Z" transform="translate(-354.69 -271.75)"/></g><g class="cls-4"><path id="path3093" class="cls-3" d="M445.29,303.26c-0.07-.35-0.2-0.14-0.43.31a0.6,0.6,0,0,1-.52.14h-0.69a0.15,0.15,0,1,0,0,.3h0.68c0.26,0,.26.17,0.14,0.43a11.67,11.67,0,0,1-1.61,2.5,0.83,0.83,0,0,1-.57.24h-0.69a0.15,0.15,0,0,0,0,.3h0.68c0.34,0,0,.21-0.06.29a15.18,15.18,0,0,1-2.92,3,3,3,0,0,1-1,.05h-0.68a0.15,0.15,0,0,0,0,.3h0.67c0.52,0,.13.3,0.05,0.36a9.05,9.05,0,0,1-5.95,1.91,5.88,5.88,0,0,1-5.31-4.93c-0.06-.26-0.26-0.8-0.33-1.14-0.13-.66,1.74-0.85,2.26-0.5a8.8,8.8,0,0,0,4.05,1.07c1.33,0,4.05-1,4.84-3.25s-1.22-4.93-2.12-5.83c-1.14-1.14-2.22-3-1.77-4.3a1.93,1.93,0,0,1,2.14-1.46,2.52,2.52,0,0,1,2.74,2.47,0.26,0.26,0,0,1-.18.28h-0.56a0.15,0.15,0,0,0-.15.15,0.15,0.15,0,0,0,.15.15h0.53a0.21,0.21,0,0,1,.2.29c-0.1.48-.14,0.82-0.24,1.31a0.3,0.3,0,0,0,.49.27l2.5-4.46c0.18-.34-0.22-0.43-0.52-0.32a3.24,3.24,0,0,1-2.19.12,4.88,4.88,0,0,0-3.08-1.1c-2.22,0-3.77.54-4.77,2.37a0.53,0.53,0,0,1-.48.14h-0.43a0.15,0.15,0,0,0-.15.15,0.15,0.15,0,0,0,.15.15h0.36c0.16,0,.26,0,0.18.22s-0.13.34-.19,0.52a4.55,4.55,0,0,0,.23,2.89c0,0.07-.06.1-0.21,0.1h-0.68a0.15,0.15,0,0,0-.15.15,0.15,0.15,0,0,0,.15.15h0.68a0.47,0.47,0,0,1,.51.21c0.35,0.49.71,0.86,1.16,1.43,0.14,0.18-.46.23-0.79,0.23h-2.69a0.15,0.15,0,0,0,0,.3h2.72a4.35,4.35,0,0,1,1.27.09,6.62,6.62,0,0,1,1.59,2.92c0,0.29-.07.4-0.42,0.4h-0.37a0.15,0.15,0,0,0,0,.3h0.32c0.28,0,.43,0,0.36.25-0.35,1.13-.88,1.94-3,1.93s-2.72-2.23-2.06-4.54c0.13-.46,0-0.66-0.21-0.29l-1.57,2.47a0.54,0.54,0,0,1-.43.2h-0.22a0.15,0.15,0,0,0-.15.15,0.15,0.15,0,0,0,.15.15c0.2,0,.28.11,0.2,0.22l-0.57.9a29.11,29.11,0,0,0-3.39-5.82v0c2.1-.13,5.19-2.09,5.69-3.84,0.88-3-2.08-4.17-3.69-4.17H417.9c-0.94,0-1,.71-0.11.71a0.65,0.65,0,0,1,.7.86l-1.57,2.83a1.65,1.65,0,0,1-1.25.22H415a0.15,0.15,0,0,0,0,.3h0.68c0.45,0,.95,0,0.78.35l-1.86,3.35a1.15,1.15,0,0,1-1,.17h-0.68a0.15,0.15,0,0,0,0,.3h0.67c0.5,0,.68.07,0.54,0.32l-2.48,4.48a1.5,1.5,0,0,1-1.25.38c-0.9,0-.89.72,0,0.72h6.07c0.94,0,.7-0.73.15-0.73a0.7,0.7,0,0,1-.45-1l3.1-5.87h0.32c1.38,0,1.71,2.26,2,4.73,0,0.18-.32.18-1,0.18h-1.72a0.15,0.15,0,0,0,0,.3h1.7a1.94,1.94,0,0,1,1.1.15,23.8,23.8,0,0,0,.42,2.91c0.06,0.27-.42.23-0.94,0.23H419a0.15,0.15,0,1,0,0,.3h2.19a1.51,1.51,0,0,1,1.08.14c0.94,3.46,5,6.18,8.92,6a13.71,13.71,0,0,0,7.69-3.13,26.19,26.19,0,0,0,6-7.2,2.79,2.79,0,0,0,.47-1.38m-22.7-4.61a2.32,2.32,0,0,1-1.36.69,5.87,5.87,0,0,0-1.17-.79l2.81-5.14a0.57,0.57,0,0,1,.56-0.28c1.09,0,1.45,1.19.94,2.66a6.52,6.52,0,0,1-1.78,2.85" transform="translate(-354.69 -271.75)"/></g><g class="cls-4"><path id="path3095" class="cls-3" d="M388.44,288a2.51,2.51,0,0,1-2.17.92H386l1.49-3a0.47,0.47,0,0,1,.42-0.24c0.19,0,.16-0.37-0.08-0.37h-2.35c-0.2,0-.27.37-0.08,0.37s0.24,0.22.14,0.41l-1.34,2.63a0.61,0.61,0,0,1-.4.22c-0.2.05-.33,0.41-0.11,0.41h3.75a0.43,0.43,0,0,0,.44-0.21l0.76-1.17c0.11-.14-0.12-0.16-0.23,0" transform="translate(-354.69 -271.75)"/></g><g class="cls-4"><path id="path3097" class="cls-3" d="M399.75,285.44a0.54,0.54,0,0,1-.5,0,2.33,2.33,0,0,0-1.2-.44,1.79,1.79,0,0,0-1.91,1,1.2,1.2,0,0,0,.79,1.67c0.34,0.16.79,0.36,0.61,0.77a0.75,0.75,0,0,1-.78.33,1.21,1.21,0,0,1-1.15-.91,0.17,0.17,0,0,0-.32,0l-0.54,1.06c-0.08.14,0.14,0.3,0.22,0.21a0.68,0.68,0,0,1,.76-0.11,3.23,3.23,0,0,0,1.36.48,2.07,2.07,0,0,0,2-1,1.17,1.17,0,0,0-.65-1.79,0.79,0.79,0,0,1-.61-1,0.64,0.64,0,0,1,.7-0.17,1.19,1.19,0,0,1,.89.71,0.14,0.14,0,0,0,.26,0l0.28-.66c0.06-.13-0.14-0.23-0.21-0.19" transform="translate(-354.69 -271.75)"/></g><g class="cls-4"><path id="path3099" class="cls-3" d="M425.81,286.5l0.33-.6a0.42,0.42,0,0,0-.47-0.57h-4.38c-0.31,0-.22.33-0.1,0.33,0.28,0,.37.34,0.19,0.64l-1.32,2.42a0.69,0.69,0,0,1-.6.33c-0.23,0-.31.33,0,0.33h4.44a0.35,0.35,0,0,0,.33-0.15l0.6-.8c0.15-.19-0.17-0.19-0.27-0.1a2.73,2.73,0,0,1-2.18.75h-0.52l0.61-1.36h0.13a1,1,0,0,1,1,.29,0.19,0.19,0,0,0,.3,0l0.52-1c0.08-.15-0.15-0.18-0.21-0.07a1.77,1.77,0,0,1-1.34.27h-0.13l0.76-1.49h0.84a1.24,1.24,0,0,1,1.13.78c0,0.1.32,0.17,0.37,0.05" transform="translate(-354.69 -271.75)"/></g><g class="cls-4"><path id="path3101" class="cls-3" d="M414.59,285.33H413c-0.32,0-.22.33-0.09,0.33a0.53,0.53,0,0,1,.46.75l-0.65,1.18-1.42-2.09a0.67,0.67,0,0,0-.51-0.19h-1.54c-0.32,0-.24.33-0.11,0.33,0.33,0,.24.24,0.16,0.42l-1.22,2.36a0.29,0.29,0,0,1-.51,0l-0.95-3.09a0.8,0.8,0,0,0-.73,0l-2.37,2H402.3c-0.24,0-.34.1-0.34,0.23s0.09,0.25.35,0.25h0.64l-0.64.53a2.72,2.72,0,0,1-1,.63h-0.15c-0.23,0-.37,0-0.37.22s0.1,0.25.32,0.25h1.91c0.36,0,.29-0.47.11-0.47a0.34,0.34,0,0,1-.22-0.61l0.58-.56h1.15c0.68,0,1.16.79,0.75,1l-0.31.17c-0.15.08-.21,0.42,0,0.42h3.74c0.28,0,.22-0.37.09-0.37-0.38,0-.2-0.55-0.13-0.7l1-1.86,1.38,2.68a0.36,0.36,0,0,0,.33.25H412a0.33,0.33,0,0,0,.3-0.23l1.57-2.84a0.84,0.84,0,0,1,.77-0.65c0.13,0,.22-0.33-0.1-0.33m-10.46,1.94,1.46-1.19v1.19h-1.47Z" transform="translate(-354.69 -271.75)"/></g><g class="cls-4"><path id="path3103" class="cls-3" d="M392.44,285.15a2.79,2.79,0,0,0-2.94,2,2,2,0,0,0,2.07,2.45,3,3,0,0,0,2.95-2.24,1.88,1.88,0,0,0-2.07-2.23m0.37,2.53c-0.42.83-1.12,1.33-1.56,1.1s-0.46-1.08,0-1.91,1.11-1.33,1.56-1.1,0.46,1.08,0,1.91" transform="translate(-354.69 -271.75)"/></g><g class="cls-4"><path id="path3105" class="cls-3" d="M419,287.17h-1.69c-0.32,0-.22.33-0.1,0.33a0.25,0.25,0,0,1,.26.28,0.79,0.79,0,0,1-.88.95c-0.64,0-.87-0.78-0.44-1.74a2.12,2.12,0,0,1,1.87-1.18,0.86,0.86,0,0,1,1,.61c0,0.12.2,0.12,0.26,0l0.4-.72c0-.08,0-0.17-0.15-0.18a0.75,0.75,0,0,1-.49,0,3.34,3.34,0,0,0-4.66,1.2,1.85,1.85,0,0,0,1.4,2.77,4.6,4.6,0,0,0,1.64-.59l0.43,0.29a0.48,0.48,0,0,0,.33.17h0.16a0.42,0.42,0,0,0,.27-0.33l0.66-1.61c0.09-.16,0-0.28-0.34-0.28" transform="translate(-354.69 -271.75)"/></g><g class="cls-4"><path id="path3107" class="cls-3" d="M442.19,285.44a0.54,0.54,0,0,1-.5,0,2.33,2.33,0,0,0-1.2-.44,1.78,1.78,0,0,0-1.91,1,1.2,1.2,0,0,0,.79,1.67c0.34,0.16.79,0.36,0.62,0.77a0.76,0.76,0,0,1-.79.33,1.21,1.21,0,0,1-1.15-.91,0.17,0.17,0,0,0-.32,0l-0.54,1.06c-0.08.14,0.14,0.3,0.22,0.21a0.68,0.68,0,0,1,.77-0.11,3.19,3.19,0,0,0,1.36.48,2.06,2.06,0,0,0,2-1,1.17,1.17,0,0,0-.64-1.79,0.79,0.79,0,0,1-.61-1,0.64,0.64,0,0,1,.7-0.17,1.2,1.2,0,0,1,.89.71,0.14,0.14,0,0,0,.26,0l0.28-.66c0.06-.13-0.14-0.23-0.21-0.19" transform="translate(-354.69 -271.75)"/></g><g class="cls-4"><path id="path3109" class="cls-3" d="M430.44,288a2.51,2.51,0,0,1-2.17.92H428l1.49-3a0.47,0.47,0,0,1,.42-0.24c0.19,0,.16-0.37-0.08-0.37h-2.35c-0.2,0-.27.37-0.08,0.37s0.24,0.22.14,0.41l-1.34,2.63a0.6,0.6,0,0,1-.4.22c-0.2.05-.33,0.41-0.11,0.41h3.75a0.44,0.44,0,0,0,.44-0.21l0.75-1.17c0.11-.14-0.12-0.16-0.23,0" transform="translate(-354.69 -271.75)"/></g><g class="cls-4"><path id="path3111" class="cls-3" d="M436.1,285.67a1.24,1.24,0,0,1,1.13.78c0,0.1.31,0.17,0.37,0.05l0.33-.6a0.42,0.42,0,0,0-.47-0.57h-4.38c-0.32,0-.22.33-0.1,0.33,0.28,0,.37.34,0.2,0.64l-1.32,2.42a0.69,0.69,0,0,1-.61.33c-0.23,0-.31.33,0,0.33h4.44a0.34,0.34,0,0,0,.32-0.15l0.6-.8c0.15-.19-0.17-0.19-0.27-0.1a2.73,2.73,0,0,1-2.18.75h-0.52l0.61-1.36h0.13a1,1,0,0,1,1,.29,0.19,0.19,0,0,0,.3,0l0.52-1c0.08-.15-0.15-0.18-0.21-0.07a1.78,1.78,0,0,1-1.34.27H434.5l0.76-1.49h0.84Z" transform="translate(-354.69 -271.75)"/></g></g><path id="path3113" class="cls-5" d="M418.83,282.12a25.8,25.8,0,0,0-4.15-4.13,26.88,26.88,0,0,0-17.56-6.24,25.33,25.33,0,0,0-12.83,3.42,24.64,24.64,0,0,0-8.45,7.31c-0.42.53-.48,0.84-0.21,1a1.34,1.34,0,0,0,.92-0.76,21.18,21.18,0,0,1,6.13-5.64,4.5,4.5,0,0,1,2.1,1.63,47.63,47.63,0,0,0-4.82,3.37c-0.8.62-1.07,1-.86,1.21s0.79-.2,1.3-0.62a43.8,43.8,0,0,1,4.79-3.28,3.46,3.46,0,0,1,.29,3.35c-0.17.22-.19,0.46,0,0.57s0.38-.16.64-0.53a4.35,4.35,0,0,0-.16-3.73,18.64,18.64,0,0,1,5.23-1.95c0.12,0.22,1.78,5.09,2.1,6,0.17,0.48.34,1.06,0.7,1s0.08-.6-0.12-1.13-1.5-4.75-1.89-6a16.63,16.63,0,0,1,3.88-.77c-0.34,1.78.92,2.51,2.35,3.44,0.76,0.5,5.57,3.26,6.57,3.88,0.57,0.36,1,.58,1.14.41a1.07,1.07,0,0,0-.78-0.9c-0.42-.25-4.9-2.84-6.77-4-1.34-.85-2.06-1.75-1.74-2.94a18.25,18.25,0,0,1,3.19-.13,31,31,0,0,1,18,6.42,1.47,1.47,0,0,0,1.27.65,1,1,0,0,0-.31-0.85m-33.26-3.77a6.13,6.13,0,0,0-2.13-1.75,24.55,24.55,0,0,1,6.43-3,21.24,21.24,0,0,1,1.06,2.74,24.52,24.52,0,0,0-5.37,2.06M396,275.28a27.41,27.41,0,0,0-4.3.8c-0.21-.54-0.78-2.22-1-2.76a20.73,20.73,0,0,1,7-.7,10.17,10.17,0,0,0-1.74,2.66m6.2-.08a31,31,0,0,0-5.24-.05,6,6,0,0,1,1.95-2.53,27.22,27.22,0,0,1,4,.49c3.69,0.73,9.43,3,11.9,6.29a29.87,29.87,0,0,0-12.63-4.21" transform="translate(-354.69 -271.75)"/><path id="path3115" class="cls-5" d="M420.9,314.79c0.35-.65.64-1,0.34-1.19s-0.54.45-.88,1a23.14,23.14,0,0,1-5.08,6,25.27,25.27,0,0,1-7.77,4.8c-1-2.92-5-15.33-5.09-15.68-0.15-.53-0.29-0.68-0.47-0.62s-0.08.36,0,.83,4.81,15.16,5,15.67a25.37,25.37,0,0,1-7.38,1.61,31.55,31.55,0,0,1-6.53-.32c-1.64-1.32-5.37-6.6-6.79-9.4a40.13,40.13,0,0,1-3.06-7.64c-0.14-.62-0.31-1.06-0.62-1s-0.14.55,0.05,1.21a43.13,43.13,0,0,0,3.06,7.54,59.77,59.77,0,0,0,6.09,9.07,26.15,26.15,0,0,1-10.13-4.63,29.22,29.22,0,0,1-6.85-7.13c-0.22-.36-0.48-0.86-0.8-0.64a1,1,0,0,0,.26.9A28.19,28.19,0,0,0,386.54,326a27.27,27.27,0,0,0,34.35-11.2" transform="translate(-354.69 -271.75)"/></g></svg>