<svg id="Layer_1" data-name="Layer 1" xmlns="http://www.w3.org/2000/svg" viewBox="0 0 73.45 52.37"><defs><style>.cls-1{fill:#fefffe;}.cls-2{fill:#d0103c;}.cls-3{fill:#0446ac;}</style></defs><title>los-angeles-clippers</title><path class="cls-1" d="M406.34,274.16a24.22,24.22,0,0,1,6.27-.25,27.25,27.25,0,0,1,4.2.73,24.12,24.12,0,0,1,8,3.46,29.49,29.49,0,0,1,3.38,2.62,27,27,0,0,1,4.47,5.37,24.88,24.88,0,0,1,2.85,6.17,30.21,30.21,0,0,1,1.14,6.28,23.46,23.46,0,0,1-.59,6.94,28.06,28.06,0,0,1-1.26,4.28,23.62,23.62,0,0,1-2.41,4.6,25.63,25.63,0,0,1-7.63,7.6,23.92,23.92,0,0,1-7.36,3.25,33,33,0,0,1-3.43.71,25.38,25.38,0,0,1-9.16-.39,24.88,24.88,0,0,1-8.05-3.13,25.24,25.24,0,0,1-6.48-5.67h-6.08a15.83,15.83,0,0,1-2.91,2.52,11.05,11.05,0,0,1-3.44,1.61,15.24,15.24,0,0,1-1.81.37,9.25,9.25,0,0,1-3.25-.32,10,10,0,0,1-3.34-1.34,12.82,12.82,0,0,1-3-2.6,13.38,13.38,0,0,1-2.08-3.39,17.61,17.61,0,0,1-.83-2.93,13.28,13.28,0,0,1,.22-6,17.94,17.94,0,0,1,1.79-4.88,21.8,21.8,0,0,1,2.07-3.07,15.84,15.84,0,0,1,3.31-3.1c-0.77,0-1.53,0-2.3,0a0.77,0.77,0,0,1-.72-0.73,1.09,1.09,0,0,1,.17-0.61l8.63-10.33c0.29-.35.59-0.7,0.87-1.06a3.13,3.13,0,0,1,2.17-.89h13.89a27.81,27.81,0,0,1,4.37-3,24.12,24.12,0,0,1,4.54-1.88,38.63,38.63,0,0,1,3.8-.89m-4.58,3.5a23.48,23.48,0,0,0-7.27,4.5,0.6,0.6,0,0,1-.44.18H380.9a1.28,1.28,0,0,0-.92.19,0.79,0.79,0,0,0-.25.65,17.73,17.73,0,0,0,2.26.06c3.79,0,7.59,0,11.38,0-0.54.5-1,1.08-1.5,1.62a0.42,0.42,0,0,1-.34.11H377.85a0.84,0.84,0,0,0-.81.94c0.73,0.08,1.46,0,2.19,0,3.94,0,7.87,0,11.81,0-0.42.6-.83,1.21-1.2,1.85-4.79,0-9.58,0-14.37,0a0.63,0.63,0,0,0-.6.84h14.48c-0.29.62-.64,1.21-0.87,1.86-0.86,0-1.73,0-2.59,0-4,0-8,0-12.07,0a2,2,0,0,0-1.19.32,0.91,0.91,0,0,0-.23.64,2.64,2.64,0,0,0,.62.09h21.61c0.56,0,1.11-.07,1.67-0.06q17.67,0,35.33,0a13.47,13.47,0,0,1,.84,2.34,23.66,23.66,0,0,1,.79,6.62,21.64,21.64,0,0,1-1.33,7.11c-0.36.93-.7,1.87-1.11,2.78a11.36,11.36,0,0,1-1.6,2.7c-0.76.13-1.52,0-2.28,0s-1.35,0-2,0c-0.86,0-1.73-.08-2.59,0-2.15,0-4.29,0-6.44,0-1.66,0-3.33,0-5,0-1.23,0-2.46-.09-3.69,0-0.79-.05-1.58,0-2.37,0s-1.84,0-2.76,0-1.59,0-2.38,0-1.68,0-2.52,0c-2,0-4,0-5.93,0-0.67,0-1.35,0-2,0s-1.45,0-2.17,0c-1.25.08-2.51,0-3.76,0-0.84,0-1.69,0-2.53,0-0.55,0-1.1,0-1.66,0-1.47,0-2.95,0-4.42,0a0.36,0.36,0,0,0-.35.39,0.71,0.71,0,0,0,.71.72h6a8.78,8.78,0,0,1-3.29,2.45,4.25,4.25,0,0,1-2.7.18,4.94,4.94,0,0,1-2.84-2.26,9.05,9.05,0,0,1-1.22-4.51,19.84,19.84,0,0,1,1.22-7.19,20.94,20.94,0,0,1,3-5.65,7.76,7.76,0,0,1,4.55-2.94,6.09,6.09,0,0,1,3.94.62,5.08,5.08,0,0,1,2.15,2.62c0.2,0.49.26,1,.5,1.51l0.35,0a17.44,17.44,0,0,0,.46-1.7c0.34-1.34.66-2.69,1-4a1.19,1.19,0,0,0,0-.64,11.57,11.57,0,0,0-1.82-.06c-1.81,0-3.61,0-5.42,0-0.67.06-1.34,0-2,.11a14.65,14.65,0,0,0-5.71,2,15.5,15.5,0,0,0-5,4.91,17.23,17.23,0,0,0-2.44,6.06,12.46,12.46,0,0,0,.29,6,10.93,10.93,0,0,0,2,3.8,10,10,0,0,0,5.56,3.38,7.62,7.62,0,0,0,3.62-.11,9.34,9.34,0,0,0,3-1.58,14.3,14.3,0,0,0,2.88-2.93c0.78,0,1.56,0,2.34,0,1.89,0,3.78,0,5.67,0a7.81,7.81,0,0,1,.54.67A23.11,23.11,0,0,0,400,321.6a24.69,24.69,0,0,0,15.16,1.9,23.9,23.9,0,0,0,18.6-17.68,23.94,23.94,0,0,0-1-14.8,25.09,25.09,0,0,0-3-5.23,24,24,0,0,0-10.53-8.08,24.3,24.3,0,0,0-17.48-.06m-6.38,16a2.26,2.26,0,0,0-1.72,1.44,2.91,2.91,0,0,0-.14,1.87,1.35,1.35,0,0,0,1.25.75,2.25,2.25,0,0,0,1.48-.4,2.94,2.94,0,0,0,1.07-2,1.56,1.56,0,0,0-.47-1.42,2,2,0,0,0-1.46-.25m18.14,0a2.47,2.47,0,0,0-1.64,1.36,2.4,2.4,0,0,0-.13,2,1.18,1.18,0,0,0,.84.62,4.28,4.28,0,0,0,2.31-.13c0.15-.65.28-1.31,0.42-2h-1.62c0,0.23-.09.45-0.12,0.68h0.74c-0.07.26-.13,0.53-0.19,0.79a1.72,1.72,0,0,1-1.32-.13,1,1,0,0,1-.29-0.89,2,2,0,0,1,1-1.68,0.89,0.89,0,0,1,1.07.19,2.81,2.81,0,0,1,0,.42h0.9a1.24,1.24,0,0,0-.16-0.89,1.2,1.2,0,0,0-.85-0.41,4.92,4.92,0,0,0-1,0m-22.48,0c-0.23,1.32-.59,2.63-0.8,4h2.53c0-.23.09-0.46,0.13-0.69h-1.66c0.2-1.09.5-2.16,0.65-3.26H391m7.44,0.61a1.27,1.27,0,0,0-.22,1.12,1.35,1.35,0,0,0,.82.57,3.27,3.27,0,0,1,.86.28,0.43,0.43,0,0,1-.09.62,1.09,1.09,0,0,1-1.06.16,0.93,0.93,0,0,1-.15-0.7h-0.87a2.81,2.81,0,0,0,0,.78,0.94,0.94,0,0,0,.76.56,2.58,2.58,0,0,0,1.8-.33,1.3,1.3,0,0,0,.6-0.93,0.81,0.81,0,0,0-.17-0.72,5.49,5.49,0,0,0-1.41-.54,0.41,0.41,0,0,1-.11-0.62,0.75,0.75,0,0,1,1-.15,1.92,1.92,0,0,1,.12.45h0.82a1.11,1.11,0,0,0-.21-0.89,2,2,0,0,0-2.53.33m28.39,0.43a0.83,0.83,0,0,0,.2.94,7.17,7.17,0,0,0,1.58.62,0.78,0.78,0,0,1-.34.74,1.5,1.5,0,0,1-1,0,3,3,0,0,1-.13-0.68h-0.82a1.15,1.15,0,0,0,.15,1.06,1.72,1.72,0,0,0,1.34.31,1.82,1.82,0,0,0,1.62-1,0.87,0.87,0,0,0-.11-1,5.19,5.19,0,0,0-1.41-.53,0.31,0.31,0,0,1-.25-0.34,0.74,0.74,0,0,1,1.12-.48,1.14,1.14,0,0,1,.17.48h0.81a1.16,1.16,0,0,0-.21-0.89,1.76,1.76,0,0,0-1.55-.25,1.57,1.57,0,0,0-1.21,1m-22.1-1c-0.71,1.31-1.49,2.58-2.21,3.89h0.82l0.46-.82h1.53c0,0.27.07,0.55,0.11,0.82h0.84c-0.14-1.31-.33-2.61-0.52-3.91h-1m3,0c-0.28,1.3-.55,2.6-0.84,3.9h0.81q0.26-1.16.5-2.33a4.17,4.17,0,0,1,.21-0.7c0.3,1,.5,2,0.79,3h1.17q0.42-2,.83-3.91h-0.8c-0.23,1-.42,2-0.66,3-0.22-1-.52-2-0.77-3H407.8m8.11,3.9c0.92,0,1.83,0,2.75,0,0-.23.05-0.45,0.08-0.68H417c0-.34.1-0.67,0.17-1,0.57,0,1.14,0,1.72,0q0-.34.07-0.67h-1.64c0.07-.3.14-0.6,0.23-0.89h1.75q0.07-.32.14-0.64h-2.65q-0.41,2-.83,3.9m4.38-3.9c-0.28,1.3-.56,2.6-0.83,3.9H422q0.06-.34.13-0.69h-1.67c0.24-1.07.45-2.14,0.69-3.21h-0.88m2.47,3.9h2.71c0-.23.09-0.46,0.13-0.69h-1.82l0.21-1h1.66l0.13-.68h-1.66c0.06-.3.13-0.6,0.22-0.89h1.76q0.06-.32.13-0.63h-2.64c-0.27,1.3-.55,2.6-0.83,3.9m2.07,2.46a2.73,2.73,0,0,0-1.63,2,3.5,3.5,0,0,0,.46,2.5,22,22,0,0,1,2.17,3.46,1.78,1.78,0,0,1,0,1.54,1.86,1.86,0,0,1-.89.76,1.58,1.58,0,0,1-1.39-.24,3.16,3.16,0,0,1-1.28-2.29,5.66,5.66,0,0,0-.12-1.34c-0.46,1-.48,2.19-1,3.18a0.72,0.72,0,0,1-.62.46,0.46,0.46,0,0,1-.44-0.36,8.89,8.89,0,0,1-.24-2,4.28,4.28,0,0,0-.17-1.4,5.34,5.34,0,0,1-.72-1,6.46,6.46,0,0,0,2.24-1.16,2.52,2.52,0,0,0,.91-1.83,2.49,2.49,0,0,0-.64-2,3.44,3.44,0,0,0-2.31-.57c-1.83,0-3.67,0-5.51,0V300a1.17,1.17,0,0,1,.59.65,8.57,8.57,0,0,1-.41,3.12q-0.49,2.09-1,4.16A9.05,9.05,0,0,1,412,310a2.68,2.68,0,0,1-.81.71c1.66,0,3.32,0,5,0a5.92,5.92,0,0,1-.78-0.67,1.69,1.69,0,0,1-.1-1.33c0.19-.78.41-1.55,0.59-2.34a0.79,0.79,0,0,1,.35-0.6,0.55,0.55,0,0,1,.56.4,6.57,6.57,0,0,1,.33,1.54,18,18,0,0,1,0,1.95,1.69,1.69,0,0,0,.59,1.2,2.05,2.05,0,0,0,2.75,0,1.65,1.65,0,0,0,.81,0,3.77,3.77,0,0,1,1.26-.38,10.41,10.41,0,0,1,1.73.5,3.78,3.78,0,0,0,3.28-1.2,3.55,3.55,0,0,0,.77-2.7,5.13,5.13,0,0,0-.66-1.93c-0.58-1.08-1.36-2-2-3.07a1.51,1.51,0,0,1-.27-1,0.9,0.9,0,0,1,.62-0.65,1.81,1.81,0,0,1,2.09.79,3.63,3.63,0,0,1,.29,1.56,3.47,3.47,0,0,0,.32-0.86c0.17-.64.43-1.26,0.57-1.91a7.78,7.78,0,0,0-2.11-.31,5.65,5.65,0,0,0-2.41.27m-49.58-.1a7,7,0,0,0,.75.62,1.3,1.3,0,0,1,.16,1.22l-1.79,6.77a3.55,3.55,0,0,1-1.52,2.2,3,3,0,0,0,.68.09h5.2a9,9,0,0,0,1.51-.06,15.65,15.65,0,0,0,.93-3.37,1.28,1.28,0,0,0-.41.46,5.26,5.26,0,0,1-1.5,1.76,3.14,3.14,0,0,1-2.18.52,0.49,0.49,0,0,1-.24-0.69c0.65-2.45,1.3-4.89,2-7.33a3.89,3.89,0,0,1,.82-1.51,8.14,8.14,0,0,1,.85-0.67c-0.42,0-.84,0-1.26,0-1.33,0-2.66,0-4,0m7.8,0s0,0.12,0,.16a1.48,1.48,0,0,1,.59.7,3.13,3.13,0,0,1-.2,1.51l-1.6,5.94a8,8,0,0,1-.57,1.67,5.46,5.46,0,0,1-.72.85,4.25,4.25,0,0,0,.78.08h2.82a4.75,4.75,0,0,0,.85-0.09c-0.09-.25-0.33-0.4-0.42-0.64a2.12,2.12,0,0,1,0-1.49c0.58-2.15,1.12-4.31,1.72-6.46a9.81,9.81,0,0,1,.46-1.35,2.92,2.92,0,0,1,.89-0.89c-1.52,0-3,0-4.57,0m5.48,0a1.47,1.47,0,0,1,.83,1.44c-0.18.92-.44,1.82-0.68,2.73q-0.46,1.78-.92,3.55a9.24,9.24,0,0,1-.68,2.12,4.55,4.55,0,0,1-.8.95,1.73,1.73,0,0,0,.54.12h2.83a5.45,5.45,0,0,0,1.44-.09,2.32,2.32,0,0,1-.87-0.86,2.69,2.69,0,0,1,.06-1.55,21,21,0,0,1,.76-2.54,17.51,17.51,0,0,0,2.09-.06,5.17,5.17,0,0,0,2.73-1.42,3.11,3.11,0,0,0,1-2.39,2.09,2.09,0,0,0-.73-1.54,2.46,2.46,0,0,0-1.47-.47c-2,0-4.07,0-6.11,0m8.35,0a2.14,2.14,0,0,1,.79.85,1.34,1.34,0,0,1,0,.86c-0.61,2.33-1.22,4.66-1.81,7a3.07,3.07,0,0,1-1.21,2l0,0.2h4.59c0-.05,0-0.16,0-0.21a1.46,1.46,0,0,1-.65-0.59,2.5,2.5,0,0,1,0-1.61,22.79,22.79,0,0,1,.77-2.62,18.89,18.89,0,0,0,2.12-.07,4.92,4.92,0,0,0,3.06-1.83,2.78,2.78,0,0,0,.63-1.83,2.29,2.29,0,0,0-.54-1.41,2.32,2.32,0,0,0-1.76-.75c-2,0-4,0-6,0m8.08,0a3.65,3.65,0,0,1,.91.79,2.3,2.3,0,0,1,0,1.13c-0.6,2.3-1.17,4.61-1.77,6.91a2.86,2.86,0,0,1-1.54,1.9,2,2,0,0,0,.63.08c2.55,0,5.11,0,7.66,0a0.27,0.27,0,0,0,.22-0.19,4.87,4.87,0,0,0,.29-0.86,12.6,12.6,0,0,0,.56-2.22c-0.79.77-1.27,1.84-2.2,2.45a4.9,4.9,0,0,1-2.71.46,0.52,0.52,0,0,1-.47-0.69c0.32-1.28.68-2.55,1-3.82a0.88,0.88,0,0,1,.38-0.62,1,1,0,0,1,1.15.35,3.09,3.09,0,0,1,.61,2l0.16-.07c0.33-1.28.64-2.56,1-3.84a5,5,0,0,0,.16-0.89,14.71,14.71,0,0,1-1.29,1.29,2.4,2.4,0,0,1-1.59.38,2.91,2.91,0,0,1,.08-1c0.17-.67.36-1.33,0.52-2a2.63,2.63,0,0,1,.47-1c0.81,0,1.75-.18,2.45.36a2.83,2.83,0,0,1,.6,2.11,1.62,1.62,0,0,0,.3-0.68c0.17-.77.41-1.52,0.51-2.3C410.31,300,407.63,299.91,405,300Z" transform="translate(-363.27 -273.81)"/><path class="cls-2" d="M401.77,277.66a24.3,24.3,0,0,1,17.48.06,24,24,0,0,1,10.53,8.08,25.09,25.09,0,0,1,3,5.23,23.94,23.94,0,0,1,1,14.8,23.9,23.9,0,0,1-18.6,17.68A24.69,24.69,0,0,1,400,321.6a23.11,23.11,0,0,1-8.26-6.65,7.81,7.81,0,0,0-.54-0.67c-1.89,0-3.78,0-5.67,0-0.78,0-1.56,0-2.34,0H375a0.71,0.71,0,0,1-.71-0.72,0.36,0.36,0,0,1,.35-0.39c1.47,0,2.95,0,4.42,0,0.55,0,1.11,0,1.66,0,0.84,0,1.69,0,2.53,0,1.25-.06,2.51.06,3.76,0,0.72,0.05,1.44,0,2.17,0s1.35,0,2,0c2,0,4,0,5.93,0,0.84-.06,1.68.05,2.52,0s1.59,0,2.38,0,1.84,0,2.76,0,1.58,0,2.37,0c1.23-.08,2.46,0,3.69,0,1.66,0,3.33,0,5,0,2.15,0,4.29,0,6.44,0,0.86-.07,1.73,0,2.59,0,0.68,0,1.35,0,2,0s1.53,0.11,2.28,0a11.36,11.36,0,0,0,1.6-2.7c0.41-.91.76-1.85,1.11-2.78a21.64,21.64,0,0,0,1.33-7.11,23.66,23.66,0,0,0-.79-6.62,13.47,13.47,0,0,0-.84-2.34q-17.67,0-35.33,0c-0.56,0-1.11.07-1.67,0.06H373a2.64,2.64,0,0,1-.62-0.09,0.91,0.91,0,0,1,.23-0.64,2,2,0,0,1,1.19-.32c4,0,8,0,12.07,0,0.86,0,1.73,0,2.59,0,0.24-.64.58-1.24,0.87-1.86H374.87a0.63,0.63,0,0,1,.6-0.84c4.79,0,9.58,0,14.37,0,0.37-.63.77-1.25,1.2-1.85-3.94,0-7.87,0-11.81,0-0.73,0-1.46,0-2.19,0a0.84,0.84,0,0,1,.81-0.94h13.67a0.42,0.42,0,0,0,.34-0.11c0.5-.54,1-1.12,1.5-1.62-3.79,0-7.59,0-11.38,0a17.73,17.73,0,0,1-2.26-.06,0.79,0.79,0,0,1,.25-0.65,1.28,1.28,0,0,1,.92-0.19h13.16a0.6,0.6,0,0,0,.44-0.18,23.48,23.48,0,0,1,7.27-4.5m1.87,0.65a23.06,23.06,0,0,0-6.64,3.42l0.88-.2a25.23,25.23,0,0,1,17.7,1.71,3.48,3.48,0,0,0,.4-2.35,3.56,3.56,0,0,0-1.42-1.75,15.22,15.22,0,0,0-3.34-1.79,2.8,2.8,0,0,0-1.19-.1,22.83,22.83,0,0,0-6.39,1.07m10.26-.82a10,10,0,0,1,1.86,1.31A3.92,3.92,0,0,1,417,281a4.66,4.66,0,0,1-.56,2.7,28.54,28.54,0,0,1,3.87,2.54c0.1,0.08.29,0.22,0.38,0,1-1.59,2.05-3.21,3-4.86a22.23,22.23,0,0,0-9.85-3.94m-18.84,6a1.29,1.29,0,0,0-.49.31,22,22,0,0,0-4.7,6.79l11.78,0a2.71,2.71,0,0,0,1-.09c2.11-.89,4.26-1.68,6.41-2.47a16.09,16.09,0,0,0,3.81-2,9.52,9.52,0,0,0,2.11-2,23.6,23.6,0,0,0-10-2.37,27.36,27.36,0,0,0-9.92,1.79M424.57,282c-1,1.72-2.05,3.4-3.13,5.07a46.54,46.54,0,0,1,3.57,3.24,4.73,4.73,0,0,1,2.56-1.83,4.23,4.23,0,0,1,2.87.41,22.84,22.84,0,0,0-5.86-6.9m-8.66,2.54a13.51,13.51,0,0,1-5.25,3.9c-1.28.57-2.62,1-3.92,1.5a8.25,8.25,0,0,0-1.39.59c4.17,0,8.34,0,12.5,0q1.12-1.64,2.21-3.3a24.63,24.63,0,0,0-4.16-2.72m3.23,6c1.56,0,3.11,0,4.67,0-0.43-.41-0.86-0.82-1.3-1.23a16.82,16.82,0,0,0-1.65-1.39c-0.57.88-1.17,1.72-1.72,2.61m7,0c1.67,0,3.35,0,5,0a5.07,5.07,0,0,0-2.59-1.15,2.94,2.94,0,0,0-2.43,1.14M392.9,314.23a21.7,21.7,0,0,0,4.09,3.92q1.61-1.94,3.2-3.9c-2.43,0-4.86,0-7.29,0m8.51,0.13c-1.2,1.46-2.38,2.94-3.6,4.39a22.69,22.69,0,0,0,15.19,3.8,3,3,0,0,0,1.2-.53,10.24,10.24,0,0,0,2.35-1.69,15.9,15.9,0,0,0,3.68-6.09c-6.12,0-12.25,0-18.37,0a0.51,0.51,0,0,0-.45.13m19.9-.13a23.61,23.61,0,0,1-1.26,2.94,13.4,13.4,0,0,1-3.9,4.79,17.45,17.45,0,0,0,2.7-.84,22.45,22.45,0,0,0,5.09-2.8,27.82,27.82,0,0,0,4.45-4.09H421.3Z" transform="translate(-363.27 -273.81)"/><path class="cls-1" d="M403.63,278.31a22.83,22.83,0,0,1,6.39-1.07,2.8,2.8,0,0,1,1.19.1,15.22,15.22,0,0,1,3.34,1.79,3.56,3.56,0,0,1,1.42,1.75,3.48,3.48,0,0,1-.4,2.35,25.23,25.23,0,0,0-17.7-1.71l-0.88.2A23.06,23.06,0,0,1,403.63,278.31Z" transform="translate(-363.27 -273.81)"/><path class="cls-1" d="M413.89,277.49a22.23,22.23,0,0,1,9.85,3.94c-0.94,1.65-2,3.27-3,4.86-0.08.18-.28,0-0.38,0a28.54,28.54,0,0,0-3.87-2.54A4.66,4.66,0,0,0,417,281a3.92,3.92,0,0,0-1.3-2.22A10,10,0,0,0,413.89,277.49Z" transform="translate(-363.27 -273.81)"/><path class="cls-1" d="M395.05,283.51a27.36,27.36,0,0,1,9.92-1.79,23.6,23.6,0,0,1,10,2.37,9.52,9.52,0,0,1-2.11,2,16.09,16.09,0,0,1-3.81,2c-2.15.79-4.3,1.58-6.41,2.47a2.71,2.71,0,0,1-1,.09l-11.78,0a22,22,0,0,1,4.7-6.79A1.29,1.29,0,0,1,395.05,283.51Z" transform="translate(-363.27 -273.81)"/><path class="cls-1" d="M424.57,282a22.84,22.84,0,0,1,5.86,6.9,4.23,4.23,0,0,0-2.87-.41,4.73,4.73,0,0,0-2.56,1.83,46.54,46.54,0,0,0-3.57-3.24C422.52,285.45,423.57,283.77,424.57,282Z" transform="translate(-363.27 -273.81)"/><path class="cls-1" d="M415.91,284.59a24.63,24.63,0,0,1,4.16,2.72q-1.09,1.66-2.21,3.3c-4.17,0-8.34,0-12.5,0a8.25,8.25,0,0,1,1.39-.59c1.3-.51,2.64-0.93,3.92-1.5A13.51,13.51,0,0,0,415.91,284.59Z" transform="translate(-363.27 -273.81)"/><path class="cls-1" d="M419.14,290.6c0.54-.89,1.15-1.73,1.72-2.61a16.82,16.82,0,0,1,1.65,1.39c0.44,0.4.87,0.82,1.3,1.23C422.25,290.6,420.7,290.61,419.14,290.6Z" transform="translate(-363.27 -273.81)"/><path class="cls-1" d="M426.17,290.59a2.94,2.94,0,0,1,2.43-1.14,5.07,5.07,0,0,1,2.59,1.15C429.52,290.6,427.84,290.62,426.17,290.59Z" transform="translate(-363.27 -273.81)"/><path class="cls-3" d="M378.89,292.75c0.67-.06,1.34,0,2-0.11,1.81,0,3.61,0,5.42,0a11.57,11.57,0,0,1,1.82.06,1.19,1.19,0,0,1,0,.64c-0.35,1.34-.67,2.68-1,4a17.44,17.44,0,0,1-.46,1.7l-0.35,0c-0.24-.48-0.31-1-0.5-1.51a5.08,5.08,0,0,0-2.15-2.62,6.09,6.09,0,0,0-3.94-.62,7.76,7.76,0,0,0-4.55,2.94,20.94,20.94,0,0,0-3,5.65,19.84,19.84,0,0,0-1.22,7.19,9.05,9.05,0,0,0,1.22,4.51,4.94,4.94,0,0,0,2.84,2.26,4.25,4.25,0,0,0,2.7-.18,8.78,8.78,0,0,0,3.29-2.45h2.16a14.3,14.3,0,0,1-2.88,2.93,9.34,9.34,0,0,1-3,1.58,7.62,7.62,0,0,1-3.62.11,10,10,0,0,1-5.56-3.38,10.93,10.93,0,0,1-2-3.8,12.46,12.46,0,0,1-.29-6,17.23,17.23,0,0,1,2.44-6.06,15.5,15.5,0,0,1,5-4.91A14.65,14.65,0,0,1,378.89,292.75Z" transform="translate(-363.27 -273.81)"/><path class="cls-3" d="M395.38,293.62a2,2,0,0,1,1.46.25,1.56,1.56,0,0,1,.47,1.42,2.94,2.94,0,0,1-1.07,2,2.25,2.25,0,0,1-1.48.4,1.35,1.35,0,0,1-1.25-.75,2.91,2.91,0,0,1,.14-1.87,2.26,2.26,0,0,1,1.72-1.44m0,0.64a1.25,1.25,0,0,0-.7.59,2.79,2.79,0,0,0-.3,1.8,0.8,0.8,0,0,0,1.07.33,2,2,0,0,0,1-1.64,1,1,0,0,0-.39-1.07A1,1,0,0,0,395.38,294.25Z" transform="translate(-363.27 -273.81)"/><path class="cls-3" d="M413.52,293.62a4.92,4.92,0,0,1,1,0,1.2,1.2,0,0,1,.85.41,1.24,1.24,0,0,1,.16.89h-0.9a2.81,2.81,0,0,0,0-.42,0.89,0.89,0,0,0-1.07-.19,2,2,0,0,0-1,1.68,1,1,0,0,0,.29.89,1.72,1.72,0,0,0,1.32.13c0.06-.27.13-0.53,0.19-0.79h-0.74c0-.23.08-0.45,0.12-0.68h1.62c-0.14.65-.28,1.31-0.42,2a4.28,4.28,0,0,1-2.31.13,1.18,1.18,0,0,1-.84-0.62,2.4,2.4,0,0,1,.13-2A2.47,2.47,0,0,1,413.52,293.62Z" transform="translate(-363.27 -273.81)"/><path class="cls-3" d="M391,293.63h0.86c-0.15,1.1-.46,2.17-0.65,3.26h1.66c0,0.23-.09.46-0.13,0.69h-2.53C390.46,296.26,390.81,295,391,293.63Z" transform="translate(-363.27 -273.81)"/><path class="cls-3" d="M398.48,294.24a2,2,0,0,1,2.53-.33,1.11,1.11,0,0,1,.21.89H400.4a1.92,1.92,0,0,0-.12-0.45,0.75,0.75,0,0,0-1,.15,0.41,0.41,0,0,0,.11.62,5.49,5.49,0,0,1,1.41.54,0.81,0.81,0,0,1,.17.72,1.3,1.3,0,0,1-.6.93,2.58,2.58,0,0,1-1.8.33,0.94,0.94,0,0,1-.76-0.56,2.81,2.81,0,0,1,0-.78h0.87a0.93,0.93,0,0,0,.15.7,1.09,1.09,0,0,0,1.06-.16,0.43,0.43,0,0,0,.09-0.62,3.27,3.27,0,0,0-.86-0.28,1.35,1.35,0,0,1-.82-0.57A1.27,1.27,0,0,1,398.48,294.24Z" transform="translate(-363.27 -273.81)"/><path class="cls-3" d="M426.87,294.67a1.57,1.57,0,0,1,1.21-1,1.76,1.76,0,0,1,1.55.25,1.16,1.16,0,0,1,.21.89H429a1.14,1.14,0,0,0-.17-0.48,0.74,0.74,0,0,0-1.12.48,0.31,0.31,0,0,0,.25.34,5.19,5.19,0,0,1,1.41.53,0.87,0.87,0,0,1,.11,1,1.82,1.82,0,0,1-1.62,1,1.72,1.72,0,0,1-1.34-.31,1.15,1.15,0,0,1-.15-1.06h0.82a3,3,0,0,0,.13.68,1.5,1.5,0,0,0,1,0,0.78,0.78,0,0,0,.34-0.74,7.17,7.17,0,0,1-1.58-.62A0.83,0.83,0,0,1,426.87,294.67Z" transform="translate(-363.27 -273.81)"/><path class="cls-3" d="M404.76,293.69h1c0.18,1.3.38,2.6,0.52,3.91h-0.84c0-.27-0.08-0.55-0.11-0.82h-1.53l-0.46.82h-0.82c0.72-1.31,1.5-2.58,2.21-3.89m-0.54,2.39h1.07c-0.1-.51-0.11-1-0.17-1.53A10,10,0,0,0,404.23,296.08Z" transform="translate(-363.27 -273.81)"/><path class="cls-3" d="M407.8,293.68H409c0.25,1,.55,2,0.77,3,0.25-1,.43-2,0.66-3h0.8q-0.41,2-.83,3.91h-1.17c-0.28-1-.49-2-0.79-3a4.17,4.17,0,0,0-.21.7q-0.24,1.17-.5,2.33H407C407.25,296.28,407.51,295,407.8,293.68Z" transform="translate(-363.27 -273.81)"/><path class="cls-3" d="M415.91,297.58q0.42-1.95.83-3.9h2.65q-0.07.32-.14,0.64H417.5c-0.08.29-.16,0.59-0.23,0.89h1.64q0,0.34-.07.67c-0.57,0-1.14,0-1.72,0-0.07.33-.14,0.66-0.17,1h1.78c0,0.23-.06.45-0.08,0.68C417.74,297.6,416.83,297.59,415.91,297.58Z" transform="translate(-363.27 -273.81)"/><path class="cls-3" d="M420.29,293.68h0.88c-0.24,1.07-.45,2.14-0.69,3.21h1.67q-0.07.34-.13,0.69h-2.57C419.73,296.28,420,295,420.29,293.68Z" transform="translate(-363.27 -273.81)"/><path class="cls-3" d="M422.75,297.58c0.28-1.3.56-2.6,0.83-3.9h2.64q-0.07.32-.12,0.63h-1.76c-0.09.29-.16,0.59-0.22,0.89h1.66l-0.13.68H424l-0.21,1h1.82c0,0.23-.08.46-0.13,0.69h-2.71Z" transform="translate(-363.27 -273.81)"/><path class="cls-1" d="M395.38,294.25a1,1,0,0,1,.64,0,1,1,0,0,1,.39,1.07,2,2,0,0,1-1,1.64,0.8,0.8,0,0,1-1.07-.33,2.79,2.79,0,0,1,.3-1.8A1.25,1.25,0,0,1,395.38,294.25Z" transform="translate(-363.27 -273.81)"/><path class="cls-1" d="M404.23,296.08a10,10,0,0,1,.9-1.53c0.05,0.51.07,1,.17,1.53h-1.07Z" transform="translate(-363.27 -273.81)"/><path class="cls-3" d="M424.82,300a5.65,5.65,0,0,1,2.41-.27,7.78,7.78,0,0,1,2.11.31c-0.14.65-.4,1.27-0.57,1.91a3.47,3.47,0,0,1-.32.86,3.63,3.63,0,0,0-.29-1.56,1.81,1.81,0,0,0-2.09-.79,0.9,0.9,0,0,0-.62.65,1.51,1.51,0,0,0,.27,1c0.63,1,1.41,2,2,3.07a5.13,5.13,0,0,1,.66,1.93,3.55,3.55,0,0,1-.77,2.7,3.78,3.78,0,0,1-3.28,1.2,10.41,10.41,0,0,0-1.73-.5,3.77,3.77,0,0,0-1.26.38,1.65,1.65,0,0,1-.81,0,2.05,2.05,0,0,1-2.75,0,1.69,1.69,0,0,1-.59-1.2,18,18,0,0,0,0-1.95,6.57,6.57,0,0,0-.33-1.54,0.55,0.55,0,0,0-.56-0.4,0.79,0.79,0,0,0-.35.6c-0.17.79-.4,1.56-0.59,2.34a1.69,1.69,0,0,0,.1,1.33,5.92,5.92,0,0,0,.78.67c-1.66,0-3.32,0-5,0A2.68,2.68,0,0,0,412,310a9.05,9.05,0,0,0,.74-2.06q0.56-2.07,1-4.16a8.57,8.57,0,0,0,.41-3.12,1.17,1.17,0,0,0-.59-0.65v-0.16c1.83,0,3.67,0,5.51,0a3.44,3.44,0,0,1,2.31.57,2.49,2.49,0,0,1,.64,2,2.52,2.52,0,0,1-.91,1.83,6.46,6.46,0,0,1-2.24,1.16,5.34,5.34,0,0,0,.72,1,4.28,4.28,0,0,1,.17,1.4,8.89,8.89,0,0,0,.24,2,0.46,0.46,0,0,0,.44.36,0.72,0.72,0,0,0,.63-0.46c0.54-1,.56-2.16,1-3.18a5.66,5.66,0,0,1,.12,1.34,3.16,3.16,0,0,0,1.28,2.29,1.58,1.58,0,0,0,1.39.24,1.86,1.86,0,0,0,.89-0.76,1.78,1.78,0,0,0,0-1.54,22,22,0,0,0-2.17-3.46,3.5,3.5,0,0,1-.46-2.5,2.73,2.73,0,0,1,1.63-2m-6.95.44a0.74,0.74,0,0,0-.5.55c-0.27,1-.5,2-0.78,3.07a1.25,1.25,0,0,0-.06.65,2.35,2.35,0,0,0,.28.27,2.76,2.76,0,0,0,2-1.11,2.93,2.93,0,0,0,.41-2.7A1.11,1.11,0,0,0,417.88,300.49Z" transform="translate(-363.27 -273.81)"/><path class="cls-3" d="M375.24,299.95c1.33,0,2.66,0,4,0,0.42,0,.84,0,1.26,0a8.14,8.14,0,0,0-.85.67,3.89,3.89,0,0,0-.82,1.51c-0.68,2.44-1.33,4.89-2,7.33a0.49,0.49,0,0,0,.24.69,3.14,3.14,0,0,0,2.18-.52,5.26,5.26,0,0,0,1.5-1.76,1.28,1.28,0,0,1,.41-0.46,15.65,15.65,0,0,1-.93,3.38,9,9,0,0,1-1.51.06h-5.2a3,3,0,0,1-.68-0.09,3.55,3.55,0,0,0,1.52-2.2l1.79-6.77a1.3,1.3,0,0,0-.16-1.22A7,7,0,0,1,375.24,299.95Z" transform="translate(-363.27 -273.81)"/><path class="cls-3" d="M383,299.94c1.52,0,3,0,4.57,0a2.92,2.92,0,0,0-.89.89,9.81,9.81,0,0,0-.46,1.35c-0.59,2.15-1.14,4.3-1.72,6.46a2.12,2.12,0,0,0,0,1.49c0.1,0.24.33,0.39,0.42,0.64a4.75,4.75,0,0,1-.85.09h-2.82a4.25,4.25,0,0,1-.78-0.08,5.46,5.46,0,0,0,.72-0.85,8,8,0,0,0,.57-1.67l1.6-5.94a3.13,3.13,0,0,0,.2-1.51,1.48,1.48,0,0,0-.59-0.7S383,300,383,299.94Z" transform="translate(-363.27 -273.81)"/><path class="cls-3" d="M388.52,299.93c2,0,4.07,0,6.11,0a2.46,2.46,0,0,1,1.47.47,2.09,2.09,0,0,1,.73,1.54,3.11,3.11,0,0,1-1,2.39,5.17,5.17,0,0,1-2.73,1.42,17.51,17.51,0,0,1-2.09.06,21,21,0,0,0-.76,2.54,2.69,2.69,0,0,0-.06,1.55,2.32,2.32,0,0,0,.87.86,5.45,5.45,0,0,1-1.44.09h-2.83a1.73,1.73,0,0,1-.54-0.12,4.55,4.55,0,0,0,.8-0.95,9.24,9.24,0,0,0,.68-2.12q0.47-1.78.92-3.55c0.24-.91.5-1.81,0.68-2.73a1.47,1.47,0,0,0-.83-1.44m4,0.57a1.27,1.27,0,0,0-.38.7c-0.28,1.08-.57,2.16-0.87,3.23a4.85,4.85,0,0,0-.11.6l0.26,0.19a2.29,2.29,0,0,0,2-1.12,4.65,4.65,0,0,0,.62-2.87,1.16,1.16,0,0,0-.74-0.88A1.08,1.08,0,0,0,392.53,300.5Z" transform="translate(-363.27 -273.81)"/><path class="cls-3" d="M396.87,299.94c2,0,4,0,6,0a2.32,2.32,0,0,1,1.76.75,2.29,2.29,0,0,1,.54,1.41,2.78,2.78,0,0,1-.63,1.83,4.92,4.92,0,0,1-3.06,1.83,18.89,18.89,0,0,1-2.12.07,22.79,22.79,0,0,0-.77,2.62,2.5,2.5,0,0,0,0,1.61,1.46,1.46,0,0,0,.65.59c0,0.05,0,.16,0,0.21h-4.59l0-.2a3.07,3.07,0,0,0,1.21-2c0.59-2.33,1.21-4.66,1.81-7a1.34,1.34,0,0,0,0-.86,2.14,2.14,0,0,0-.79-0.85m4.08,0.55a1.23,1.23,0,0,0-.46.76c-0.28,1.06-.56,2.12-0.85,3.17a1.06,1.06,0,0,0-.06.74,1.5,1.5,0,0,0,.89,0,2.4,2.4,0,0,0,1.31-1,4.75,4.75,0,0,0,.65-2.75,1.07,1.07,0,0,0-.64-1A1.34,1.34,0,0,0,401,300.49Z" transform="translate(-363.27 -273.81)"/><path class="cls-3" d="M405,300c2.68,0,5.36,0,8,0-0.1.78-.34,1.53-0.51,2.3a1.62,1.62,0,0,1-.3.68,2.83,2.83,0,0,0-.6-2.11c-0.7-.54-1.63-0.32-2.45-0.36a2.63,2.63,0,0,0-.47,1c-0.16.67-.35,1.33-0.52,2a2.91,2.91,0,0,0-.08,1,2.4,2.4,0,0,0,1.59-.38,14.71,14.71,0,0,0,1.29-1.29,5,5,0,0,1-.16.89c-0.34,1.28-.64,2.56-1,3.84l-0.16.07a3.09,3.09,0,0,0-.61-2,1,1,0,0,0-1.15-.35,0.88,0.88,0,0,0-.38.62c-0.33,1.28-.68,2.54-1,3.82a0.52,0.52,0,0,0,.47.69,4.9,4.9,0,0,0,2.71-.46c0.94-.62,1.42-1.68,2.2-2.45a12.6,12.6,0,0,1-.56,2.22,4.87,4.87,0,0,1-.29.86,0.27,0.27,0,0,1-.22.19c-2.55,0-5.11,0-7.66,0a2,2,0,0,1-.63-0.08,2.86,2.86,0,0,0,1.54-1.9c0.59-2.3,1.17-4.61,1.77-6.91a2.3,2.3,0,0,0,0-1.13A3.65,3.65,0,0,0,405,300Z" transform="translate(-363.27 -273.81)"/><path class="cls-1" d="M392.53,300.5a1.08,1.08,0,0,1,.81-0.14,1.16,1.16,0,0,1,.74.88,4.65,4.65,0,0,1-.62,2.87,2.29,2.29,0,0,1-2,1.12l-0.26-.19a4.85,4.85,0,0,1,.11-0.6c0.3-1.07.58-2.15,0.87-3.23A1.27,1.27,0,0,1,392.53,300.5Z" transform="translate(-363.27 -273.81)"/><path class="cls-1" d="M401,300.49a1.34,1.34,0,0,1,.85,0,1.07,1.07,0,0,1,.64,1,4.75,4.75,0,0,1-.65,2.75,2.4,2.4,0,0,1-1.31,1,1.5,1.5,0,0,1-.89,0,1.06,1.06,0,0,1,.06-0.74c0.29-1.05.57-2.11,0.85-3.17A1.23,1.23,0,0,1,401,300.49Z" transform="translate(-363.27 -273.81)"/><path class="cls-1" d="M417.88,300.49a1.11,1.11,0,0,1,1.32.73,2.93,2.93,0,0,1-.41,2.7,2.76,2.76,0,0,1-2,1.11,2.35,2.35,0,0,1-.28-0.27,1.25,1.25,0,0,1,.06-0.65c0.28-1,.51-2,0.78-3.07A0.74,0.74,0,0,1,417.88,300.49Z" transform="translate(-363.27 -273.81)"/><path class="cls-1" d="M392.9,314.23c2.43,0,4.86,0,7.29,0q-1.59,2-3.2,3.9A21.7,21.7,0,0,1,392.9,314.23Z" transform="translate(-363.27 -273.81)"/><path class="cls-1" d="M401.41,314.36a0.51,0.51,0,0,1,.45-0.13c6.12,0,12.24,0,18.37,0a15.9,15.9,0,0,1-3.68,6.09,10.24,10.24,0,0,1-2.35,1.69,3,3,0,0,1-1.2.53,22.69,22.69,0,0,1-15.19-3.8C399,317.29,400.21,315.82,401.41,314.36Z" transform="translate(-363.27 -273.81)"/><path class="cls-1" d="M421.3,314.23h7.08a27.82,27.82,0,0,1-4.45,4.09,22.45,22.45,0,0,1-5.09,2.8,17.45,17.45,0,0,1-2.7.84,13.4,13.4,0,0,0,3.9-4.79A23.61,23.61,0,0,0,421.3,314.23Z" transform="translate(-363.27 -273.81)"/></svg>