<svg id="Layer_1" data-name="Layer 1" xmlns="http://www.w3.org/2000/svg" viewBox="0 0 67.13 83.45"><defs><style>.cls-1{fill:#23375b;}.cls-2{fill:#6189b9;}.cls-3{fill:#fdb827;}.cls-4{fill:#bbd1e4;}</style></defs><title>memphis-grizzlies</title><path class="cls-1" d="M381.19,314v11.64h7.45v-1.44h-6V313.62h6v-1.51h-8.16Zm16.86,0h-2v11.69h1.24V315.36h0.45a0.56,0.56,0,0,1,.47.63v9.75h1.33v-9.85a1.57,1.57,0,0,0-1.5-1.85m-6.18,11.69h1.26V315.36h1v10.35h1.3V314h-3.6v11.71Zm-15.72-15.29h-2.22v15.21h1.4v-13.7h0.5a0.62,0.62,0,0,1,.51.69v13h1.55V312.5a1.82,1.82,0,0,0-1.74-2.07m7.08,8.17h3.92v-1.38h-2.64v-1.62h4.12v-1.4h-5.4v4.39Zm15-6.43h-9l0.76,2.05v11.5h1.28V313.42l6.78,0a2.17,2.17,0,0,1,2.1,2.45v9.85h1.21V315.05a2.94,2.94,0,0,0-3.09-2.87m17.52,5.27h-1.6v-5.37h-1.24v6.4h4.22v-6.41h-1.38v5.37Zm-31.26,3.21h2.64V319.2h-3.92v4.44h5.4v-1.28h-4.12v-1.69Zm-15.2,5h1.42V311.94h1.15v13.7h1.46V310.43h-4v15.23Zm7.08-17.23h-10l0.84,2.26v15h1.44V309.82l7.45,0a2.39,2.39,0,0,1,2.33,2.67v13.14h1.31V311.59a3.24,3.24,0,0,0-3.41-3.17m46.14,3.69v13.65H424V312.11h-1.47Zm-2.07,2.23v11.42h1.47V312.11h-2.29Zm8.3,4.29c1.27,0,1.08.81,1.08,1.65v1.42a0.57,0.57,0,0,1-.51.61h-0.2a0.57,0.57,0,0,1-.51-0.61V320h-1.54v1.48c0,0.9,0,2.27,2.07,2.27s2.24-1.62,2.24-1.68V319c0-1.47-.77-1.6-2-1.69a6.25,6.25,0,0,1-1.1-.15,2.11,2.11,0,0,1-1.72-1.81c0-.25,0-2.27,0-2.92a2.46,2.46,0,0,1,.59-1.71,2.58,2.58,0,0,1,2-.75,2.76,2.76,0,0,1,2.15.82,2.81,2.81,0,0,1,.67,1.85c0,0.06,0,.1,0,0.12V314h1.58v-2.19c0-2.08-1.67-3.46-3.86-3.46H429c-2.15,0-4.1,1.13-4.1,3.51v3.19a3.74,3.74,0,0,0,3.9,3.55m-21.58-6.44h-5.32l0.74,2v11.54h1.21V313.39H407a2.21,2.21,0,0,1,2.28,2.24v1.46a2.17,2.17,0,0,1-2.28,2.19H404.4v6.47h1.38v-5.37l1.7,0a3,3,0,0,0,2.91-3.26l0-2a3,3,0,0,0-3.25-2.91m23,3.2-0.67,0a0.82,0.82,0,0,1-1-.9v-1.81a0.56,0.56,0,0,1,.5-0.61h0.21a0.57,0.57,0,0,1,.51.61V314h1.56V312.7a2.29,2.29,0,0,0-.51-1.54,2.22,2.22,0,0,0-1.71-.62,2.05,2.05,0,0,0-1.57.56,1.89,1.89,0,0,0-.44,1.27h0c0,1.25,0,2.66,0,2.83a1.55,1.55,0,0,0,1.3,1.34,5.33,5.33,0,0,0,1,.13c1.08,0.08,2.56.19,2.56,2.29v3.11s-0.09,2.27-2.83,2.27-2.66-2-2.66-2.86V320h-1.61v2.18c0,2.6,2,3.59,3.8,3.59h0.93a3.62,3.62,0,0,0,3.94-3.67v-3.39a3.08,3.08,0,0,0-3.34-3.34M411,314.19v11.65h1.4V312.08H410.2Zm-2.29,2.91v-1.46A1.61,1.61,0,0,0,407,314H404.4v4.7H407a1.57,1.57,0,0,0,1.68-1.59m-2.88.36v-2.32h0.85a0.86,0.86,0,0,1,.77.93v0.46a0.85,0.85,0,0,1-.77.93h-0.85Zm12,8.39H419V312.07h-1.26v13.77Zm-4.82,0h1.24v-5.43h1.6v5.43h1.38v-6.76h-4.22v6.76Z" transform="translate(-366.44 -258.27)"/><path class="cls-2" d="M391.28,325.73V313.42l6.78,0a2.17,2.17,0,0,1,2.1,2.45v9.85h-0.6v-9.85a1.57,1.57,0,0,0-1.5-1.84h-2v11.69h-0.6V314h-3.6v11.71h-0.6Zm-2.64-11.51h-5.4v4.39h3.92v0.6h-3.92v4.44h5.4v0.6h-6V313.62h6v0.6Zm-19.93,11.43V309.82l7.45,0a2.39,2.39,0,0,1,2.33,2.67v13.14h-0.6V312.5a1.82,1.82,0,0,0-1.74-2.07h-2.22v15.21h-0.6V310.43h-4v15.23h-0.6Zm53.21-13.54h0.6v13.65h-0.6V312.11ZM403.8,325.76V313.39H407a2.21,2.21,0,0,1,2.28,2.24v1.46a2.17,2.17,0,0,1-2.28,2.19H404.4v6.47h-0.6ZM427.08,320v1.48c0,0.9,0,2.27,2.07,2.27s2.24-1.62,2.24-1.68V319c0-1.47-.77-1.6-2-1.69a6.25,6.25,0,0,1-1.1-.15,2.12,2.12,0,0,1-1.72-1.81c0-.25,0-2.27,0-2.92a2.47,2.47,0,0,1,.59-1.71,2.58,2.58,0,0,1,2-.75,2.76,2.76,0,0,1,2.15.82,2.82,2.82,0,0,1,.66,1.85c0,0.06,0,.1,0,0.12V314h-0.58V312.7a2.28,2.28,0,0,0-.51-1.54,2.22,2.22,0,0,0-1.71-.62,2.05,2.05,0,0,0-1.57.56,1.89,1.89,0,0,0-.44,1.27h0c0,1.25,0,2.66,0,2.83a1.55,1.55,0,0,0,1.3,1.34,5.33,5.33,0,0,0,1,.13c1.08,0.08,2.56.19,2.56,2.29v3.11s-0.09,2.27-2.83,2.27-2.66-2-2.66-2.86V320h0.59Zm-18.42-2.92v-1.46A1.61,1.61,0,0,0,407,314H404.4v4.7H407a1.57,1.57,0,0,0,1.68-1.59m3.69,8.74V312.08h0.59v6.4h4.22v-6.41h0.6v13.77h-0.6v-6.76h-4.22v6.76h-0.59Z" transform="translate(-366.44 -258.27)"/><path class="cls-1" d="M423.91,270.64c-0.21-.33-0.43-0.64-0.65-0.94,5.43-8.91-7.39-15.74-12-8.18a19.68,19.68,0,0,0-11.14,1.34,19.73,19.73,0,0,0-11-1.36c-5.61-7.89-17.17.26-12.07,8.1-0.24.34-.49,0.68-0.73,1-7.24,11-1.8,18.51-1.8,18.51l1.11-1.11a21.44,21.44,0,0,0,10,12.74l0.3-1.66c5.15,5.5,9.93,5.38,14.37,10.4,4.11-4.76,10.08-4.76,14.73-10.71v2.11c8.6-4.19,9.38-13.23,9.38-13.23l0.79,1.47s6-7.49-1.22-18.52" transform="translate(-366.44 -258.27)"/><path class="cls-3" d="M405.68,278.46a1.56,1.56,0,0,1,1.5,1c1.74-.51,1.65-2.85,1.64-3a10.9,10.9,0,0,0-3.13,2" transform="translate(-366.44 -258.27)"/><path class="cls-2" d="M400.16,289.81c0.48-.08,8.12-0.35,3.44,4.39,3.26-4.32-2.65-4.35-3.44-4.39m13.21-24.64a6,6,0,0,1,7-3.26s-4.83-3.18-8.19,2.57c0,0-4.77-2.27-12,.84,0,0-6.81-2.38-12-1,0,0-3-5.2-7.21-3.06s-2,7.09-1.28,8.38c0,0-7,7.12-4.36,15.93l1.41-1.75s2,9.59,7.19,12.61l0.31-2.36s5.41,6.53,11.77,9.3c0.6,0.28,4,2,4.08,2.79v-4.57s-4.42.37-5.58-1.67c-0.79-1.39-5.86-10.44-3.36-19.92,0,0-2.44-.36-2.9-4.48a8.69,8.69,0,0,0-4.08-.7,13.32,13.32,0,0,1,7.84.2c3.79,1.47,4.8,5.21,7.37,3.55L400.19,268l0.72,10.53c2.57,1.65,3.59-2.08,7.38-3.55a13.31,13.31,0,0,1,7.84-.2,12,12,0,0,0-4.22-1.66c-2.17-.44-5.37,1-5.37,1a10.3,10.3,0,0,1,1.89-4.58c1.24-1.37,4.06-1.67,4.93-4.34m-32.72,3.63c-0.16-1.43,1.66-2.85,1.66-2.85-0.75-.77-2.05-0.1-2.05-0.1,1.18-2.31,3.83-1.18,3.83-1.18a4.35,4.35,0,0,0-3.13-1.15c2.63-2.61,5.81,1.38,5.81,1.38-2.83.64-6.12,3.91-6.12,3.91m28.16,7.65h0l-0.06,0,0.06,0m-2.11,3.39c4.23,11.37-1.16,18.67-1.16,18.67,3.32-8.67,1.19-15.89-.27-18.57a13.72,13.72,0,0,1-1.63,0,15.46,15.46,0,0,0,1.84-1.35l0.2-.17h0a1.56,1.56,0,0,1,1.5,1c1.74-.5,1.65-2.85,1.64-3a6.14,6.14,0,0,1,1.61-.4s-0.4,3.74-3.71,3.79" transform="translate(-366.44 -258.27)"/><path class="cls-3" d="M391.73,276.45c0,0.17-.1,2.52,1.64,3a1.56,1.56,0,0,1,1.45-1,19,19,0,0,0-3.09-2" transform="translate(-366.44 -258.27)"/><path class="cls-4" d="M400.15,300.48c-5.33,0-4.61-1.17-4.61-1.17,0.58-.36,4.31-0.43,4.61-0.43s4,0.07,4.61.43c0,0,.72,1.17-4.61,1.17m-8.41-24h0m8.41,19.1v2.16l-1.47.08a16.29,16.29,0,0,0-3.56.67c-3.74-9.25-1.66-16.26-.67-18.76-3.71.8-4.3-3.64-4.3-3.64a2.86,2.86,0,0,1,1.58.39c0,0.17-.1,2.52,1.64,3a1.56,1.56,0,0,1,1.45-1l0.76,0.61c2.51,2.12,4.47,1.69,4.47,1.69s0,8.07,0,9.06c0,0-7.29-.57-3.37,4.39,0,0,.63-1.81,1.3-1.24a11.36,11.36,0,0,1,2.14,2.59" transform="translate(-366.44 -258.27)"/><path class="cls-2" d="M383.83,334l-0.08.24a0.47,0.47,0,0,1-.59.33l-0.47-.17,0.43-1.19,0.48,0.17a0.47,0.47,0,0,1,.23.63m0.61-2-2.84-1v1.19l-2.16,6,1.68,0.61,1-2.77,0.51,0.18a0.33,0.33,0,0,1,.14.44l-0.88,2.43,1.67,0.6,0.91-2.5a1,1,0,0,0-.12-1,1.29,1.29,0,0,0,.86-0.93l0.4-1a1.69,1.69,0,0,0-1.17-2.13" transform="translate(-366.44 -258.27)"/><path class="cls-2" d="M419.2,332.67L418.61,331l-4.2,1.47,0.7,0.87,2.1,6,3.85-1.34-0.6-1.67-2.12.74-0.35-1,1.36-.47-0.59-1.71-1.36.47-0.34-1Z" transform="translate(-366.44 -258.27)"/><polygon class="cls-2" points="40.99 81.37 40.44 75.66 38.2 75.87 38.76 77.01 39.35 83.22 43.75 82.81 43.59 81.12 40.99 81.37"/><polygon class="cls-2" points="21.42 75.88 21.27 74.61 23.42 75.07 21.91 82.36 20.15 81.99 21.42 75.88"/><polygon class="cls-2" points="44.69 76.19 44.03 75.09 46.19 74.64 47.75 81.92 45.99 82.29 44.69 76.19"/><polygon class="cls-2" points="29.96 75.94 25.49 75.47 25.3 77.54 26.55 77.23 27.27 77.3 24.72 82.87 29.18 83.31 29.34 81.63 27.41 81.43 29.96 75.94"/><polygon class="cls-2" points="36.15 76.04 31.66 76.01 31.67 78.09 32.88 77.66 33.61 77.66 31.63 83.45 36.12 83.45 36.1 81.76 34.17 81.75 36.15 76.04"/><path class="cls-2" d="M424.74,333.42l0.35,0.53a0.26,0.26,0,0,1,0,.35l-0.23.15a0.25,0.25,0,0,1-.34-0.1l-0.42-.63-1.39.92,0.54,0.82a1.56,1.56,0,0,0,2.31.4l0.49-.33a1.62,1.62,0,0,0,.57-2.35l-0.84-1.27a1.38,1.38,0,0,0-2.08-.42l-0.41.25a0.37,0.37,0,0,1-.58-0.09l-0.45-.68a0.25,0.25,0,0,1,0-.36l0.23-.15a0.25,0.25,0,0,1,.34.1l0.34,0.51,1.4-.92-0.55-.82a1.58,1.58,0,0,0-2.29-.34l-0.41.28a1.62,1.62,0,0,0-.66,2.33l0.79,1.19a1.68,1.68,0,0,0,2.33.36c0.58-.39.75-0.06,1,0.25" transform="translate(-366.44 -258.27)"/><path class="cls-2" d="M377.08,335.46a1.7,1.7,0,0,1-2.4.45l-0.75-.51a1.7,1.7,0,0,1-.49-2.4l2.44-3.65a1.7,1.7,0,0,1,2.4-.46l0.75,0.5a1.7,1.7,0,0,1,.5,2.4l-0.49.73-1.49-1,0.31-.45a0.33,0.33,0,0,0,0-.45l-0.24-.16a0.34,0.34,0,0,0-.43.16l-0.3.46-1.78,2.66a0.34,0.34,0,0,0,0,.45l0.24,0.16a0.34,0.34,0,0,0,.43-0.16l0.55-.81-0.26-.17,0.69-1,1.75,1.17Z" transform="translate(-366.44 -258.27)"/></svg>