<svg id="Layer_1" data-name="Layer 1" xmlns="http://www.w3.org/2000/svg" viewBox="0 0 77.38 106.87"><defs><style>.cls-1{fill:#1c2524;}.cls-2{fill:#f59814;}.cls-3{fill:#bf2f38;}.cls-4{fill:#fff;}</style></defs><title>miami-heat</title><g id="layer1"><g id="g3261"><path id="path3095" class="cls-1" d="M436.91,272.09c-2.91-3.16-9.23-5.74-17.47-7.32,0-.92.58-1.33,1.66-2,0.5-.42,1.08-0.83,1.75-1.41,2.58-2.49-.5-6.32-0.67-6.49l-1.66-2.08,0.42,2.66c0.25,1.83-.42,2.5-2.41,3.83a4.07,4.07,0,0,1-.67.58,12.76,12.76,0,0,0-.25-4.24,4.49,4.49,0,0,0-1.25-2.41l-0.17,2.5a8.63,8.63,0,0,1-2.83,4.24,5.39,5.39,0,0,0,.66-0.75c1.25-1.83.91-3.91,0.42-6.32l-0.08-.5c-0.42-2.5.25-4.08,0.67-4.32,0.5-.5,1.33-1.41,1.33-1.41a4.39,4.39,0,0,0-1.75,0c-1.58.25-4.24,1.16-4.16,3.33a9.47,9.47,0,0,0,.58,2.74,2.91,2.91,0,0,1,.33,2.08,2.42,2.42,0,0,1-1.75.75c-3.74.67-6.65,2.5-8.07,5a7.36,7.36,0,0,0-1,2.66c-9.32,0-18.21,1.16-25,3.33-7.65,2.33-11.89,5.57-12.23,9.31-0.25,2,.67,4.82,5.66,7.57h-0.08l1.41,0.67h0l0.75,0.42a49,49,0,0,0,7.9,2.58,14.34,14.34,0,0,0-2.91,2.08,20.62,20.62,0,0,0-7.49,16,20.38,20.38,0,0,0,6,14.56,20.65,20.65,0,0,0,34.85-10.4,35.92,35.92,0,0,0,1.41-12.39,9.71,9.71,0,0,1,3.49-8.23,61.4,61.4,0,0,0,16.63-4.16l0.67-.33h0l1.5-.75c3.41-1.91,5.41-4.24,5.57-6.65a6,6,0,0,0-1.75-4.66h0Zm-6.74,4.08a1.54,1.54,0,0,1,.58,1.16c-0.08.75-1,1.66-2.58,2.5-3.33,1.66-9,3-15.64,3.66a9.08,9.08,0,0,1,.92-0.5h0.17c1.91-.83,4.08-1.66,4.16-4.91a14.37,14.37,0,0,1,.33-2.58,5.77,5.77,0,0,1,2.08-2.16c0.08,0-1.33-.25-1.33-0.25H418.7a4.35,4.35,0,0,0,1-1.16c5.41,1.16,9.15,2.66,10.48,4.24h0Zm-59,.75c0.25-2.66,9.73-6.07,25.12-6.65a8.84,8.84,0,0,0-3.58,5.91l-0.17,1.16a6.78,6.78,0,0,1-.5,2.16c-0.58,1.5-2.25,2.83-4,3.74-6.15-.75-11.39-2.08-14.39-3.66C372,278.66,371.13,277.66,371.21,276.92Z" transform="translate(-361.31 -246.57)"/><path id="path3097" class="cls-2" d="M418.7,264.69c0.17-1.83,1.91-2.25,3.58-3.83,2.25-2.08-.58-5.49-0.58-5.49,0.33,2.33-.75,3.16-2.75,4.57a2.23,2.23,0,0,0-1.08,1.75c-0.08.92-.17,1.83-0.33,2.74C418,264.52,418.37,264.61,418.7,264.69Z" transform="translate(-361.31 -246.57)"/><path id="path3099" class="cls-2" d="M412.71,261.45l-1.41,1.17-1,1c1.91,0.17,3.83.33,5.57,0.58,1.16-2.08,1.75-4.41,1-8.48,0,0-.17,2.74-4.16,5.74h0Z" transform="translate(-361.31 -246.57)"/><path id="path3101" class="cls-2" d="M402.07,263.19c2.16,0,4.33.08,6.4,0.25l0.25-.25c1.33-1.5,3.58-2.74,4.66-4.41s0.75-3.83.33-6.32c-0.75-4.32,1.08-5.07,1.08-5.07s-3.66.5-3.58,2.58c0.08,2.83,3,5.49-1.41,6.32-4.82.83-7.82,3.49-8.48,6.9h0.75Z" transform="translate(-361.31 -246.57)"/><path id="path3103" class="cls-1" d="M381.94,339.88l2.58-10.81h-4.33l-2.66,10.81h4.41Z" transform="translate(-361.31 -246.57)"/><path id="path3105" class="cls-1" d="M391.42,331.72l0.25,4.41h-2.25l2.33,3.74h3.91l-0.58-10.81h-6.57l-5.32,10.81h4.16l4.08-8.15h0Z" transform="translate(-361.31 -246.57)"/><path id="path3107" class="cls-1" d="M381.36,349.77l-0.92,3.66h4.08l2.66-10.73H383.1l-1,4.16H379l1-4.16H376l-2.66,10.73h4.08l0.91-3.66h3.08Z" transform="translate(-361.31 -246.57)"/><path id="path3109" class="cls-1" d="M391.09,351l0.33-1.5h5l0.67-2.33H392l0.33-1.58h5.07l0.83-2.91H389l-2.66,10.73h9.15l0.67-2.41h-5.07Z" transform="translate(-361.31 -246.57)"/><path id="path3111" class="cls-1" d="M417.37,339.88L420,329.06h-4.41L413,339.88h4.41Z" transform="translate(-361.31 -246.57)"/><path id="path3113" class="cls-1" d="M424.61,337.38c0.58,0.83,1.16,2.41-1.5,3.66-3.16,1.41,0,5-4.24,5H417l-1.75,7.4H411l1.75-7.4H409.8l0.91-3.33h7.57c4.49,0,1.33-3.16,3.58-3.58C423.44,338.88,424.44,338.54,424.61,337.38Z" transform="translate(-361.31 -246.57)"/><path id="path3115" class="cls-1" d="M370,334.64l-0.75-5.57H364l-2.66,10.81h4l1.41-5.65h0.08l0.75,5.65h2.33l3.24-5.65h0.08l-1.33,5.65h3.74l2.66-10.81h-5.16L370,334.64h0Z" transform="translate(-361.31 -246.57)"/><path id="path3117" class="cls-1" d="M405.56,334.64l-0.75-5.57h-5.32l-2.66,10.81h4l1.41-5.65h0.08l0.75,5.65h2.33l3.24-5.65h0.08l-1.33,5.65h3.74l2.66-10.81h-5.16l-3.08,5.57h0Z" transform="translate(-361.31 -246.57)"/><path id="path3119" class="cls-1" d="M404.89,345.28l0.25,4.41H402.9l2.25,3.74h4l-0.58-10.73H402s-5.41,10.73-5.32,10.73h4.16l4.08-8.15h0Z" transform="translate(-361.31 -246.57)"/><path id="path3121" class="cls-3" d="M369.3,306.52a13.21,13.21,0,0,0,5.16,8.15,15.41,15.41,0,0,0,3.08,1.58c-0.67-1.08-1.41-2.25-2.25-3.41a38.15,38.15,0,0,1-4-6.9,14.43,14.43,0,0,1-.83-7.74,20.74,20.74,0,0,0-1.25,6.9c0,0.42.08,0.92,0.08,1.42h0Z" transform="translate(-361.31 -246.57)"/><path id="path3123" class="cls-3" d="M372.62,305.44a37.61,37.61,0,0,0,3.83,6.57,34.85,34.85,0,0,1,3,4.82,11.05,11.05,0,0,0,2.83.42,24.07,24.07,0,0,1-2.58-4.82c-2.83-7.15-2.41-16,1.08-21a19.2,19.2,0,0,1,6.9-6c2.41-1.33,3.91-1.66,5.49-2.58,1.66-1.08,2.58-2.74,1.5-6.49a6.59,6.59,0,0,1-.33-2.66,8.32,8.32,0,0,0-.83,2.66,20.33,20.33,0,0,1-.67,3.41c-1.5,3.91-8.73,6.07-9.65,6.32a18.13,18.13,0,0,0-6.65,3.58,14.37,14.37,0,0,0-3.91,15.8h0Z" transform="translate(-361.31 -246.57)"/><path id="path3125" class="cls-3" d="M402.65,270.18a2.46,2.46,0,0,1,.17.75,2.06,2.06,0,0,1-1.83,2.75c-1.75.25-2.33-1.25-2.5-2.41,0-.5.08-0.83,0.08-1.08-0.25,0-.58.08-0.83,0.08a5.94,5.94,0,0,0-2,1.5c-0.33.75-.75,1.75-0.08,4.16,1.08,4.16.58,6.74-2.75,8.15-4.32,1.91-7.07,3-10.81,7.65-1.75,2.16-2.74,5.82-2.83,9.56a26.45,26.45,0,0,0,1.83,10.56,24.61,24.61,0,0,0,3,5.49,25,25,0,0,0,3.49-.5,8.47,8.47,0,0,1-2.16-5.41c-0.42-6.82,3.24-9.65,8.9-14.22l2.5-2.16c10.15-8.57,7.15-17.3,8.32-24.78a24.89,24.89,0,0,1-2.49-.08h0Z" transform="translate(-361.31 -246.57)"/><path id="path3127" class="cls-3" d="M406.72,270.34a28.56,28.56,0,0,0-.5,4.66c-0.42,6.49-.25,13.89-8.48,21.21l-2.5,2c-5.49,4.41-8.65,7.15-8.4,13.14a7.27,7.27,0,0,0,2.33,5.07,20.84,20.84,0,0,0,4.49-1.91,26.7,26.7,0,0,0,13.39-18,48,48,0,0,0,1-12.14c0-1.58.25-4.82,0.25-4.82a18.44,18.44,0,0,1,2.91-8.48c0.08-.17.08-0.25,0.17-0.42-1.41-.08-3-0.25-4.66-0.33h0Z" transform="translate(-361.31 -246.57)"/><path id="path3129" class="cls-3" d="M409.14,291.22h0c-0.25,1.25-.25,2.5-0.42,3.83a9.39,9.39,0,0,0-.17,1.41,0.9,0.9,0,0,0-.08.42,27.92,27.92,0,0,1-14.06,18.88,18.14,18.14,0,0,1-3.91,1.75,9.94,9.94,0,0,0,6.57,1.66c6.74-1,10.06-5.41,11.64-10.15A35.4,35.4,0,0,0,410.05,297a10.43,10.43,0,0,1,5.24-9.81c-4.24-.25-5.66,1.66-6.16,4.08h0Z" transform="translate(-361.31 -246.57)"/><path id="path3131" class="cls-3" d="M404.64,317.59a13.35,13.35,0,0,1-7.07,3,11.09,11.09,0,0,1-8.65-2.41l-0.08-.08a18.79,18.79,0,0,1-3.58.58c2.74,3,6.32,4.57,11.14,4.91h0a19.66,19.66,0,0,0,8.32-6.07l-0.08.08h0Z" transform="translate(-361.31 -246.57)"/><path id="path3133" class="cls-3" d="M379.53,322.49a11.11,11.11,0,0,0-1.08-4.49,18.86,18.86,0,0,1-4.82-2.08,11.62,11.62,0,0,1-2.33-2.16h0a19.46,19.46,0,0,0,8.23,8.73h0Z" transform="translate(-361.31 -246.57)"/><path id="path3135" class="cls-3" d="M393.25,324.57a17.9,17.9,0,0,1-7-3.16,17.17,17.17,0,0,1-2.83-2.66,14.36,14.36,0,0,1-3.24-.33,9.41,9.41,0,0,1,.67,4.74h0a19.94,19.94,0,0,0,8.32,1.83,22.69,22.69,0,0,0,4.16-.42h-0.08Z" transform="translate(-361.31 -246.57)"/><path id="path3137" class="cls-3" d="M416.45,275.67a1.37,1.37,0,0,1-2.5.5,2.43,2.43,0,0,1,.33-3.08,11.85,11.85,0,0,1,3.08-1.58h0c-1.33-.25-2.74-0.42-4.24-0.58H413c-0.17.17-.25,0.33-0.42,0.5a16.75,16.75,0,0,0-2.91,8.32l-0.08.67a20.29,20.29,0,0,0-.08,4v0.67a11.18,11.18,0,0,0-.08,1.66h0c0-.25.08-0.33,0.08-0.17a6.32,6.32,0,0,1,3.66-4.24c1.91-.75,3.74-1.5,3.83-4.24a11.5,11.5,0,0,1,.42-2.91,2.41,2.41,0,0,1,1.33-1.33,2.15,2.15,0,0,0-2.33,1.83h0Z" transform="translate(-361.31 -246.57)"/><path id="path3139" class="cls-4" d="M402.07,264.27c-20.21-.17-37.09,5.07-37.68,11.64-0.25,2.66,2.16,5.16,6.4,7.15a44.51,44.51,0,0,0,9.73,3.16c0.83-.33,1.58-0.58,2.41-0.83,0.67-.25,1.91-0.67,3.33-1.25-5.66-.83-10.23-2.08-13.06-3.58-2.08-1.16-3.24-2.41-3.08-3.74,0.33-4.49,14.47-7.9,31.52-7.73s30.61,3.91,30.19,8.32c-0.08,1.25-1.25,2.41-3.16,3.41-3.58,1.83-9.81,3.33-17.47,4-0.25.33-.5,0.75-0.75,1.16,3.49-1.33,7.49.67,7.49,0.67a1.29,1.29,0,0,1,.5.25,53.53,53.53,0,0,0,12.64-3.74c3.91-1.91,6.24-4.08,6.49-6.49,0.58-6.65-15.39-12.14-35.51-12.39h0Z" transform="translate(-361.31 -246.57)"/></g></g></svg>