<svg id="Layer_1" data-name="Layer 1" xmlns="http://www.w3.org/2000/svg" viewBox="0 0 62.32 86.38"><defs><style>.cls-1{fill:#fff;}.cls-2{fill:#bccad6;}.cls-3{fill:#c42032;}.cls-4{fill:#104622;}</style></defs><title>milwaukee-bucks</title><polyline class="cls-1" points="55.43 27.78 6.63 27.79 31.86 86.38 57.02 27.78 55.43 27.78"/><path class="cls-2" d="M424.27,284.59h-48.8l25.23,58.59,25.16-58.6h-1.6M400.7,340.53l-23.64-54.88h47.2Z" transform="translate(-368.84 -256.81)"/><polyline class="cls-2" points="8.23 28.84 55.43 28.83 31.86 83.72 8.23 28.84"/><path class="cls-3" d="M377.07,285.65h8.5c3.13,4.69,6.81,4.12,6.81,4.12a5.82,5.82,0,0,0,.59,1.82,7.07,7.07,0,0,0,0,3.29,10,10,0,0,0-.35,4.4c-1.91,1.14-2.27,3.89-2.27,3.89a12.17,12.17,0,0,0-3.83,4.37l-9.42-21.89" transform="translate(-368.84 -256.81)"/><path class="cls-3" d="M424.27,285.64H416c-2.64,4.38-6.63,4.06-6.63,4.06a3.07,3.07,0,0,1-.45,1.69,6.21,6.21,0,0,1,.1,3.25,12.7,12.7,0,0,1,.51,4.37,5.43,5.43,0,0,1,2.43,3.92c2.68,2.46,3.08,4.25,3.08,4.25l9.27-21.55" transform="translate(-368.84 -256.81)"/><path class="cls-2" d="M427,306.83h-8c-12.36,0-35.92,0-36.64,0h-9.76l-3.67,5.1v9.9l-0.07,3.46v6.8l3.7,5h54.88l3.68-5.1v-9.9l0.06-3.47v-6.79l-3.7-5H427m-44.72,1.78,0,0c0.31,0,.79,0,1.62,0h16.77l18.35,0h7.57l2.82,3.83v6.19l-0.07,3.47v9.34l-2.8,3.89H373.45l-2.82-3.82v-6.19l0,0a4.81,4.81,0,0,0,0-.56l0.06-2.94v-9.33l2.8-3.9h8.79Z" transform="translate(-368.84 -256.81)"/><path class="cls-2" d="M416.08,268.77a3.55,3.55,0,0,1,.64,1.91v0.08a5.15,5.15,0,0,1-.59,1.94c0.1-.94.13-1.75,0.13-1.8a17.91,17.91,0,0,0-.17-2.12m-7.61,14.41a1.2,1.2,0,0,1-.58.31,2,2,0,0,1,.79-0.54l0.07,0-0.28.26m-15.36.44a1.75,1.75,0,0,1-.82-0.56,2.16,2.16,0,0,1,.88.54Zm-8.91-12.56a0.71,0.71,0,0,1,0-.11,3.57,3.57,0,0,1,.61-1.89,17.46,17.46,0,0,0-.14,2.1c0,0.07,0,.89.15,1.82a5,5,0,0,1-.62-1.92m34.23,4a8.41,8.41,0,0,0,1.51-4.58,7.28,7.28,0,0,0,0-.81c0-.29-1.35-9.27-9-12.38,3.84,4.88,4.53,6.61,5,8-0.67-.42-1.18-0.68-1.4-0.8-3.75-7.34-8.44-7.57-8.59-7.63a27.35,27.35,0,0,1,5.5,6.55,17.87,17.87,0,0,0-6.36-.85l2.71,1.25a49.06,49.06,0,0,1,4.66,2.28,13.27,13.27,0,0,1,.63,4.21,16.53,16.53,0,0,1-.2,2.62,9.77,9.77,0,0,1-4.78,6.54c0-.21,0-0.43,0-0.62a9.16,9.16,0,0,0-2.57-6.7,8.25,8.25,0,0,0-4.18-2.28l1.34,1.64a9.29,9.29,0,0,1,2.41,6.09,8.25,8.25,0,0,1-.64,3.2,13.55,13.55,0,0,0-8.24,0,7.11,7.11,0,0,1-.72-3.06c-0.06-4.12,3.74-7.89,3.77-7.93-6,1.56-6.72,6.83-6.72,9.1,0,0.2,0,.37,0,0.55a9.93,9.93,0,0,1-5.09-9,14.57,14.57,0,0,1,.58-4.05,53.38,53.38,0,0,1,7.63-3.66,20.05,20.05,0,0,0-6.62,1,22.19,22.19,0,0,1,5.54-6.76c-5.35.78-8.26,7-8.68,8a10.29,10.29,0,0,0-1.49.77c1.23-3.83,4.83-8.3,4.85-8.33a15.5,15.5,0,0,0-8.76,13.24v0.13a8.49,8.49,0,0,0,1.69,4.72,25.11,25.11,0,0,0,6.63,5.81h0a26.6,26.6,0,0,0-4.3-.94,1,1,0,0,0-1,.4,1,1,0,0,0,0,1c3.15,7.73,7.36,8.14,9,8a8.69,8.69,0,0,0,.66,2.17,7.77,7.77,0,0,0-.31,1.84,1.38,1.38,0,0,0,.45,1.23l-0.12.24a7.89,7.89,0,0,0-.49,3.1c0,0.58,0,1.08.05,1.39a6,6,0,0,0-2.33,4,12.93,12.93,0,0,0-3.51,4.29l-0.35.81h28.32l-0.23-.74a10.27,10.27,0,0,0-3.13-4.49,5.57,5.57,0,0,0-2.51-4.06c0-.15,0-0.31,0-0.45,0-2.92-.39-3.77-0.64-4l0,0,0.23-.13,0-.28a5.23,5.23,0,0,0,0-.69,11.48,11.48,0,0,0-.24-2.14,11.49,11.49,0,0,0,.63-2.13c1.28,0.09,4.15-.14,6.34-3.53a19.7,19.7,0,0,0,2.09-4.48,1.49,1.49,0,0,0,.14-0.62,0.91,0.91,0,0,0-.16-0.54,0.93,0.93,0,0,0-1-.34l-1.54.24a20.89,20.89,0,0,0-3,.82,23.69,23.69,0,0,0,6.46-5.94" transform="translate(-368.84 -256.81)"/><path class="cls-4" d="M401.24,308H414.1a10,10,0,0,0-3.14-4.37c0.1-2.5-2.52-4.05-2.52-4.05,0.08-3.83-.46-4.36-0.46-4.36a4.85,4.85,0,0,0-2.27,3.19l-0.33-.24a5.51,5.51,0,0,1,2.69-3.88,9.77,9.77,0,0,0-.23-2.79,6.31,6.31,0,0,0,.7-2.74s3.74,0.93,6.38-3.19a19,19,0,0,0,2-4.34s0.44-.86-0.35-0.75l-1.53.24a18.45,18.45,0,0,0-4.34,1.42s-0.51.06-1.81,1.45c0,0-1,.94-1.56.23,0,0-.45-0.66,1.1-1.37,0,0,6.86-3.63,9.51-7.72a7.66,7.66,0,0,0,1.37-5s-0.78-6.95-6.38-10.69a17.32,17.32,0,0,1,4,7.6,18.06,18.06,0,0,0-2.81-1.72c-2.52-5.17-6.07-6.83-6.07-6.83,4.26,4.37,4.35,6.22,4.35,6.22-3.55-1.21-4.37-1.05-4.37-1.05a43.7,43.7,0,0,1,4.91,2.43,16.34,16.34,0,0,1,.51,7.3,10.42,10.42,0,0,1-6,7.4c0.7-5.2-2.26-7.84-2.26-7.84a5.84,5.84,0,0,0-2-1.44c4.5,5.33,1.63,10.37,1.63,10.37a12.86,12.86,0,0,0-8.83,0c-3-5.2,1.52-10.43,1.52-10.43-5.48,2.87-4.21,9.41-4.21,9.41-9.16-4.31-5.68-14.51-5.68-14.51a28.5,28.5,0,0,1,4.81-2.46,19,19,0,0,0-4.37,1.09,17.26,17.26,0,0,1,4.43-6.48c-4.11,2.1-6.09,7.14-6.09,7.14a9.53,9.53,0,0,0-2.84,1.72c0.57-3.92,3.7-7.77,3.7-7.77a14.46,14.46,0,0,0-6.12,11.4,8,8,0,0,0,1.56,4.37c3.25,4.43,9.86,7.59,9.86,7.59,1.59,0.64,1.24,1.31,1.24,1.31a0.7,0.7,0,0,1-.86.32,2.17,2.17,0,0,1-1.15-.86,7.09,7.09,0,0,0-3.07-1.63,26.14,26.14,0,0,0-4.24-.93c-0.7,0-.41.54-0.41,0.54,3.76,9.22,9,7.56,9,7.56a7.78,7.78,0,0,0,.76,2.78c-0.67,2.33-.13,2.68-0.13,2.68,2.81,2.11,2.75,4.05,2.75,4.05l-0.23.58a5.27,5.27,0,0,0-2.45-3.67c-0.68,1.4-.35,4.5-0.35,4.5a5.41,5.41,0,0,0-2.39,4,12.27,12.27,0,0,0-3.52,4.24h10.79m19.08-37.16a5.26,5.26,0,0,1-2.11,3.83,18.12,18.12,0,0,0,.48-3.76,16.61,16.61,0,0,0-.51-3.8,4.33,4.33,0,0,1,2.14,3.73m-33.68.3a4.32,4.32,0,0,1,2.08-3.76,16.38,16.38,0,0,0-.45,3.8,18.27,18.27,0,0,0,.54,3.76,5.26,5.26,0,0,1-2.16-3.79" transform="translate(-368.84 -256.81)"/><path class="cls-1" d="M397.4,283.54l-0.58-.64a3.62,3.62,0,0,1-1.42,1.68,2.1,2.1,0,0,0,2-1" transform="translate(-368.84 -256.81)"/><path class="cls-1" d="M403.86,283.36l0.66-.55a3.6,3.6,0,0,0,1.17,1.86,2.1,2.1,0,0,1-1.83-1.31" transform="translate(-368.84 -256.81)"/><path class="cls-1" d="M409,303.42l0.75,0.33a6.17,6.17,0,0,1-2.09,4.23,2.22,2.22,0,0,0-.65.45,6.26,6.26,0,0,0,1.66-2.73h-0.58a4.4,4.4,0,0,0,.9-2.28" transform="translate(-368.84 -256.81)"/><path class="cls-1" d="M391.41,286.31a1.78,1.78,0,0,1,1.69-.24,8.32,8.32,0,0,0-.15,1.69c-0.43.13-4.71,0.77-6.94-5.14,0.12-.09,3-0.38,5.41,3.68" transform="translate(-368.84 -256.81)"/><path class="cls-1" d="M410.11,286.3a1.76,1.76,0,0,0-1.68-.21,8,8,0,0,1,.24,1.66c0.44,0.13,4.64.73,6.8-5.21-0.12-.09-3-0.35-5.36,3.75" transform="translate(-368.84 -256.81)"/><path class="cls-1" d="M392.62,303.48a4.13,4.13,0,0,1,.85-0.7,6.92,6.92,0,0,0,1.47,3.67,0.64,0.64,0,0,1-.21.28,6.93,6.93,0,0,1-2.1-3.25" transform="translate(-368.84 -256.81)"/><path class="cls-1" d="M397.21,288a4.25,4.25,0,0,1-2.2-.7l-0.45.19a2.49,2.49,0,0,0,.26,3,2.61,2.61,0,0,0,2.36.57,1.27,1.27,0,0,0-.07,1.15,4.49,4.49,0,0,1,1-1.53,5.56,5.56,0,0,1-.89-2.68" transform="translate(-368.84 -256.81)"/><path class="cls-1" d="M404.38,288a4.22,4.22,0,0,0,2.18-.77l0.46,0.18a2.48,2.48,0,0,1-.16,3,2.61,2.61,0,0,1-2.34.65,1.25,1.25,0,0,1,.1,1.15,4.39,4.39,0,0,0-1-1.5,5.58,5.58,0,0,0,.81-2.71" transform="translate(-368.84 -256.81)"/><path class="cls-4" d="M396.82,288.36a6.38,6.38,0,0,1-1.78-.45,1.64,1.64,0,0,0-.06,1.85c0.7,1.34,2.55.73,2.55,0.73a4.86,4.86,0,0,1-.71-2.14" transform="translate(-368.84 -256.81)"/><path class="cls-4" d="M404.85,288.39a6.52,6.52,0,0,0,1.79-.45,1.62,1.62,0,0,1,.06,1.85c-0.7,1.35-2.55.74-2.55,0.74a4.78,4.78,0,0,0,.7-2.14" transform="translate(-368.84 -256.81)"/><path class="cls-1" d="M402,291.84h-2a2.6,2.6,0,0,1-1.82,1.72c-0.9.67-.86,2.52-0.86,2.52,0.32,2.07,1.11,2.36,1.11,2.36a3.61,3.61,0,0,1,1.38-.83l-0.07-.22a2.74,2.74,0,0,0-1.21.38,3.45,3.45,0,0,1,0-3.69,2.29,2.29,0,0,0,1.69-1.35h1.75a2.31,2.31,0,0,0,1.66,1.27,3.39,3.39,0,0,1,.09,3.86,2.26,2.26,0,0,0-1.12-.35l-0.16.28a4.2,4.2,0,0,1,1.43.74,2.91,2.91,0,0,0,.92-2.3c-0.06-2.3-.76-2.71-0.76-2.71a2.69,2.69,0,0,1-2-1.69" transform="translate(-368.84 -256.81)"/><path class="cls-1" d="M402.93,294.81a1.54,1.54,0,0,1-.68,1.69,2,2,0,0,1-.23-0.83,4.06,4.06,0,0,0,.91-0.86" transform="translate(-368.84 -256.81)"/><path class="cls-1" d="M399,294.88c-0.09,1.39.65,1.62,0.65,1.62a2,2,0,0,0,.23-0.83,3.77,3.77,0,0,1-.88-0.78" transform="translate(-368.84 -256.81)"/><path class="cls-1" d="M402.83,299.37a3.27,3.27,0,0,0-1.8-.48,3.4,3.4,0,0,0-1.82.51l0.19,0.34a3.27,3.27,0,0,1,1.63-.45,2.46,2.46,0,0,1,1.59.43l0.21-.35" transform="translate(-368.84 -256.81)"/><path class="cls-1" d="M398.22,308a5.11,5.11,0,0,1,1.57-1.69l-0.61-.59a6.54,6.54,0,0,0-1.07.56l0-.45,0.74-.41-0.8-.55a7.1,7.1,0,0,0-1.66-4.13l0.75-.91c2.08,2.62,3.28,2.53,3.28,2.53,0.43,0,1.7,0,1.7,0a1.93,1.93,0,0,0,1-.35,7.38,7.38,0,0,0,1.93-1.9l0.5,0.64c-2.06,2.77-.4,6.36-0.4,6.36-2.39.49-3.86,0.9-3.86,0.9h-3" transform="translate(-368.84 -256.81)"/><path class="cls-4" d="M417.72,336.23H427c0.34-.47,3-4.19,3.23-4.5v-9.61l0.07-3.48v-6.48L427,307.73H373l-3.24,4.49v9.61l-0.07,3.49v6.48l3.26,4.43h44.72" transform="translate(-368.84 -256.81)"/><polyline class="cls-3" points="30.39 80.31 31.86 83.72 33.33 80.31 30.39 80.31"/><polyline class="cls-1" points="18.7 55.86 18.04 55.86 17.06 52.78 17.05 52.79 17.05 55.86 16.31 55.86 16.31 52.28 17.61 52.28 18.38 54.88 18.39 54.88 19.23 52.28 20.48 52.27 20.49 55.85 19.74 55.86 19.74 52.79 19.73 52.78 18.7 55.86"/><polyline class="cls-1" points="22.33 55.85 21.54 55.85 21.54 52.27 22.33 52.26 22.33 55.85"/><polyline class="cls-1" points="23.24 55.85 23.23 52.26 24.03 52.26 24.03 55.25 25.64 55.25 25.64 55.84 23.24 55.85"/><polyline class="cls-1" points="27.73 52.25 28.62 52.25 29.27 54.94 29.27 54.94 29.87 52.25 30.63 52.24 29.69 55.83 28.81 55.83 28.14 53.1 28.13 53.1 27.42 55.83 26.52 55.84 25.61 52.25 26.44 52.25 27.01 54.95 27.01 54.95 27.73 52.25"/><path class="cls-1" d="M406.33,309v2.25a1.61,1.61,0,0,1-3.2,0v-2.25h0.79V311c0,0.61,0,1.16.81,1.16s0.81-.55.81-1.16V309h0.79" transform="translate(-368.84 -256.81)"/><polyline class="cls-1" points="39.05 53.78 39.06 53.78 40.29 52.24 41.22 52.23 39.86 53.84 41.34 55.82 40.35 55.82 39.06 53.99 39.05 53.99 39.05 55.82 38.27 55.82 38.26 52.24 39.05 52.24 39.05 53.78"/><polyline class="cls-1" points="41.83 52.23 44.3 52.23 44.3 52.82 42.63 52.82 42.63 53.66 44.2 53.66 44.2 54.26 42.63 54.27 42.63 55.22 44.36 55.22 44.36 55.81 41.83 55.82 41.83 52.23"/><polyline class="cls-1" points="45.1 52.22 47.57 52.22 47.57 52.82 45.89 52.82 45.89 53.66 47.47 53.66 47.47 54.25 45.89 54.25 45.89 55.21 47.63 55.21 47.63 55.8 45.1 55.81 45.1 52.22"/><path class="cls-1" d="M399.43,312.64l1.32-3.58h0.94l1.29,3.58h-0.79l-0.27-.76h-1.46l-0.27.76h-0.75m2.3-1.36-0.53-1.52-0.55,1.52h1.07Z" transform="translate(-368.84 -256.81)"/><path class="cls-3" d="M383.14,313.62l-2-2.59-6.95.55-0.06,2.18h0.94v16.47h-0.84l-0.16,2.09,7.45,0.63,1.62-2.31v-6.79l-1.35-1.44,1.36-2.24v-6.57m-2.5.16v7.59h-3v-7.6h3Zm-3,16.44v-6.5h3v6.48Z" transform="translate(-368.84 -256.81)"/><path class="cls-3" d="M381.54,310.24h-6.37L372,314.56h2.25v14.89H372l3,4.29h6.85l2-2.85v-7.35l-1.16-1.23c0.37-.62,1.17-1.92,1.17-1.92v-7.06l-2.4-3.1m-0.79,1.59,1.59,2.06V320c-0.2.31-1.56,2.56-1.56,2.56l1.55,1.65c0,0.55,0,5.78,0,6.22l-1.24,1.76h-6.6l0.33-1.13h1V313H374.7l-0.42-1.15h6.47Z" transform="translate(-368.84 -256.81)"/><path class="cls-3" d="M376.8,313.77v8.39h4.62V313H376.8v0.79m1.59,0.8h1.46v6h-1.46v-6Z" transform="translate(-368.84 -256.81)"/><path class="cls-3" d="M380.63,322.93H376.8V331l4.62,0v-8.06h-0.79m-0.79,1.58v4.9h-1.46v-4.91h1.46Z" transform="translate(-368.84 -256.81)"/><polyline class="cls-3" points="22.54 58.2 22.54 60.95 23.17 60.95 23.17 73.37 19.78 73.37 19.78 60.95 20.46 60.95 20.46 58.2 16.61 58.2 17.06 60.95 17.27 60.95 17.27 73.82 18.91 76.12 24.07 76.12 25.67 73.82 25.67 60.95 25.91 60.95 26.46 58.2 22.54 58.2"/><path class="cls-3" d="M395.3,314.21h-4.71v4.34h0.63v10.84h-1.81V318.55h0.68v-4.34h-5.58l0.72,4.34h0.08v12.33l2,2.86h6l2-2.86V318.55h0.1l0.87-4.34h-1m-1,1.59c-0.1.53-.15,0.75-0.23,1.16h-0.38v13.42l-1.22,1.76h-4.34l-1.26-1.77V317h-0.32c-0.08-.42-0.11-0.65-0.2-1.16h2.13V317h-0.68v14h5V317h-0.62V315.8h2.16Z" transform="translate(-368.84 -256.81)"/><polyline class="cls-3" points="35.65 61.98 35.65 60.93 33.66 58.2 29.98 58.2 28.13 61 28.13 73.81 29.63 76.11 34.11 76.11 35.65 73.88 35.65 71.79 33.14 69.76 33.14 73.36 30.64 73.36 30.64 60.93 33.14 60.93 33.14 64.01 35.65 61.98"/><path class="cls-3" d="M402.5,314.21h-4.1l-2.23,3.37v13.27l1.86,2.87h5.34l1.91-2.78v-2.71l-4.09-3.31v4.47h-0.92V318.54h0.92v4l4.09-3.31v-1.69l-2.37-3.27H402.5m-0.4,1.59,1.6,2.2v0.42l-0.92.74V317h-4.09v14h4.09v-2.73l0.92,0.75v1.46l-1.16,1.69h-3.64l-1.13-1.75V318.05l1.49-2.26h2.85Z" transform="translate(-368.84 -256.81)"/><polyline class="cls-3" points="52.14 62.47 52.14 56.94 55.56 56.94 55.56 61.46 58.07 59.73 58.07 56.41 56.43 54.19 51.76 54.19 49.64 56.41 49.64 63.67 55.5 68.44 55.5 73.36 51.88 73.36 51.88 69.63 49.25 71.66 49.25 73.84 50.85 76.11 56.36 76.11 58 73.84 58 67.19 52.14 62.47"/><path class="cls-3" d="M425.27,310.21h-5l-2.57,2.69v8l5.86,4.77v3.75h-2v-4.55l-4.22,3.25v2.83l2,2.81h6.34l2-2.8v-7.29l-5.86-4.72v-4.37h1.83v5.23L427.7,317v-4.08l-2.1-2.68h-0.32m-0.32,1.59c0.33,0.32.83,1.43,1.16,1.76v2.58l-0.92.63V313h-5v6.7l5.86,4.72v6l-1.25,1.73H420.1l-1.22-1.73v-1.54l1-.81V331h5.2v-6.09l-5.86-4.77v-6.57l1.66-1.74h4Z" transform="translate(-368.84 -256.81)"/><polyline class="cls-3" points="46.84 73.32 43.7 66.25 46.5 60.89 46.86 60.89 46.86 58.14 43.72 58.14 43.72 60.89 44.23 60.89 40.96 67.13 40.96 60.89 41.47 60.89 41.47 58.14 37.4 58.14 38.04 60.89 38.45 60.89 38.45 73.32 37.93 73.32 37.28 76.07 41.53 76.07 41.53 73.32 40.96 73.32 40.96 71.48 42.34 68.83 44.2 73.32 43.91 73.32 43.91 76.07 47.47 76.07 47.47 73.32 46.84 73.32"/><path class="cls-3" d="M415.69,314.16h-3.93v4.31l-1.18,2.25V318.5h0.51v-4.34h-5.87l1,4.34h0.25v10.84h-0.36l-1,4.34h6v-4.34h-0.57v-0.86c0.07-.11.26-0.49,0.51-1l0.86,2.07v4.09h5.14v-4.34h-0.9c-0.35-.77-2.52-5.66-2.78-6.25l2.4-4.59h0.66v-4.34h-0.79m-0.8,1.58v1.17h0L411.65,323l3.51,7.89h0.34v1.17h-2v-1.17h0.67l-2.95-7.16L409,328.09v2.83h0.56v1.17h-2.45c0.12-.53.17-0.76,0.27-1.17h0.69v-14h-0.58c-0.1-.4-0.15-0.63-0.27-1.17h2.28v1.17H409v7l1.49,0.37,3.87-7.39h-1v-1.17h1.54Z" transform="translate(-368.84 -256.81)"/><path class="cls-1" d="M383.14,313.62l-2-2.59h-5.58l-2.14,2.73h1.66v16.46h-1.63l2.11,2.72h6l1.62-2.31v-6.79l-1.35-1.44,1.36-2.24v-6.57m-2.5.16v7.59h-3v-7.6h3Zm-3,16.44v-6.5h3v6.48Z" transform="translate(-368.84 -256.81)"/><polyline class="cls-1" points="22.54 58.2 22.54 60.95 23.17 60.95 23.17 73.37 19.78 73.37 19.78 60.95 20.46 60.95 20.46 58.2 16.61 58.2 17.07 60.95 17.27 60.95 17.27 73.82 18.91 76.12 24.07 76.12 25.67 73.82 25.67 60.95 25.91 60.95 26.47 58.2 22.54 58.2"/><polyline class="cls-1" points="35.65 61.98 35.65 60.93 33.66 58.2 29.98 58.2 28.13 61 28.13 73.81 29.63 76.11 34.11 76.11 35.65 73.88 35.65 71.79 33.14 69.76 33.14 73.36 30.64 73.36 30.64 60.93 33.14 60.93 33.14 64.01 35.65 61.98"/><polyline class="cls-1" points="52.14 62.47 52.14 56.94 55.56 56.94 55.56 61.46 58.07 59.73 58.07 56.41 56.43 54.19 51.76 54.19 49.64 56.41 49.64 63.67 55.5 68.44 55.5 73.36 51.88 73.36 51.88 69.63 49.25 71.66 49.25 73.84 50.85 76.11 56.36 76.11 58 73.84 58 67.19 52.14 62.47"/><polyline class="cls-1" points="46.84 73.32 43.7 66.25 46.5 60.89 46.86 60.89 46.86 58.14 43.72 58.14 43.72 60.89 44.23 60.89 40.96 67.13 40.96 60.89 41.47 60.89 41.47 58.14 37.4 58.14 38.04 60.89 38.45 60.89 38.45 73.32 37.93 73.32 37.28 76.07 41.53 76.07 41.53 73.32 40.96 73.32 40.96 71.48 42.35 68.83 44.2 73.32 43.91 73.32 43.91 76.07 47.47 76.07 47.47 73.32 46.84 73.32"/><polyline class="cls-2" points="19.75 59.5 20.52 60.95 19.84 60.95 19.84 73.37 19.08 74.01 18.5 73.24 18.6 59.46 19.75 59.5"/><polyline class="cls-2" points="25.98 60.95 25.74 60.95 25.74 73.82 24.14 76.12 18.98 76.12 19.51 74.68 23.6 74.68 24.46 73.63 24.46 59.41 25.27 59.41 26.52 58.2 25.98 60.95"/><polyline class="cls-2" points="23.23 60.95 22.6 60.95 23.21 59.46 24.46 59.41 23.23 60.95"/><polyline class="cls-2" points="17.34 60.95 17.13 60.95 17.74 59.5 18.6 59.46 17.34 60.95"/><polyline class="cls-2" points="17.34 60.95 17.13 60.95 17.74 59.5 18.6 59.46 17.34 60.95"/><polyline class="cls-2" points="7.47 74.73 6.72 76.15 12.69 76.15 14.3 73.84 14.29 67.05 13.03 67.2 13.03 73.66 12.2 74.78 7.47 74.73"/><polyline class="cls-2" points="12.96 56.87 13 63.63 11.88 65.55 12.94 65.61 14.3 63.37 14.3 56.81 12.96 56.87"/><polyline class="cls-2" points="8.75 64.56 7.51 65.62 7.51 55.5 11.89 55.52 12.96 56.87 11.8 56.97 8.75 56.96 8.75 64.56"/><polyline class="cls-2" points="11.8 66.92 12.63 66.61 11.86 65.65 7.51 65.62 7.44 74.66 8.75 73.41 8.75 66.92 11.8 66.92"/><polyline class="cls-2" points="9.92 65.89 8.3 65.89 11.17 64.45 11.17 64.41 9.92 65.89"/><polyline class="cls-2" points="30.38 59.58 29.39 61.19 29.46 73.83 30.7 73.36 30.7 60.93 33.21 60.93 34.01 60.24 33.39 59.52 30.38 59.58"/><polyline class="cls-2" points="34.41 60.76 34.44 61.65 33.21 64.01 35.71 61.98 35.71 60.93 34.41 60.76"/><polyline class="cls-2" points="34.34 72.03 34.34 73.89 33.75 74.81 30.21 74.81 29.69 76.11 34.18 76.11 35.71 73.88 35.71 71.79 34.34 72.03"/><polyline class="cls-2" points="39.71 59.28 40.56 59.28 41.54 58.14 41.54 60.89 41.03 60.89 41.03 67.05 39.78 69.44 39.71 59.28"/><polyline class="cls-2" points="45.38 60.92 39.81 71.08 39.71 74.71 38.63 74.71 37.34 76.07 41.59 76.07 41.59 73.32 40.76 74.75 39.71 74.71 41.03 73.32 41.03 71.48 46.57 60.89 46.92 60.89 46.92 58.14 46.13 59.28 45.44 59.28 45.38 60.92"/><polyline class="cls-2" points="47.54 73.32 47.54 76.07 43.98 76.07 44.6 74.84 46.82 74.81 47.54 73.32"/><polyline class="cls-2" points="42.43 66.36 46.07 74.81 46.91 73.32 43.71 66.16 42.43 66.36"/><polyline class="cls-2" points="51.88 69.63 51.89 73.27 51.3 74.65 50.52 73.37 50.52 71.93 51.88 69.63"/><polyline class="cls-2" points="50.85 76.11 51.3 74.65 55.76 74.65 56.68 73.56 56.68 67.81 58 67.19 58 73.84 56.36 76.11 50.85 76.11"/><polyline class="cls-2" points="49.64 63.67 55.5 68.44 56.68 67.81 50.98 63.02 49.64 63.67"/><polyline class="cls-2" points="52.14 62.47 50.98 63.02 50.98 56.8 52.03 55.59 55.87 55.59 56.81 56.73 55.56 56.94 52.14 56.94 52.14 62.47"/><polyline class="cls-2" points="55.56 61.46 58.07 59.73 58.07 56.41 56.81 56.73 56.81 59.28 55.56 61.46"/><polyline class="cls-2" points="38.45 60.89 38.04 60.89 38.86 59.28 39.71 59.28 38.45 60.89"/><polyline class="cls-2" points="44.19 60.89 43.77 60.89 44.59 59.28 45.44 59.28 44.19 60.89"/></svg>