<svg id="Layer_1" data-name="Layer 1" xmlns="http://www.w3.org/2000/svg" viewBox="0 0 82.15 60.91"><defs><style>.cls-1{fill:#010101;}.cls-2{fill:#a8aaad;}.cls-3{fill:#005183;}.cls-4{fill:#fdd51d;}.cls-5{fill:#fff;}.cls-6{fill:#da5e5b;}.cls-7{fill:#0ea94e;}</style></defs><title>minnesota-timberwolves</title><path class="cls-1" d="M410.42,311.78a0.89,0.89,0,1,0,.88-1.07,1,1,0,0,0-.88,1.07" transform="translate(-358.93 -269.54)"/><path class="cls-1" d="M385.44,318.9c0-.65-0.23-0.84-0.54-0.91v1.86a0.79,0.79,0,0,0,.31-0.17,1,1,0,0,0,.23-0.78" transform="translate(-358.93 -269.54)"/><path class="cls-1" d="M387.11,321.19a3.73,3.73,0,0,1,1,1.29v-3.06a3.75,3.75,0,0,1-1,1.77" transform="translate(-358.93 -269.54)"/><path class="cls-1" d="M394.08,316.62l-0.21,1.5-0.14,1-0.77-.67-0.75-.65H391c0,0.58,0,1.52,0,2.09H394l-0.37.78-0.82,1.74-0.21.45-0.47-.17-1.06-.37,0,2.78H392l1.52-1,0.86-.58v2.88l0.17-.37-0.06-8.56Z" transform="translate(-358.93 -269.54)"/><path class="cls-1" d="M411.72,318.38a0.29,0.29,0,0,0-.13.11,5.32,5.32,0,0,0-.7,3c0,2.09.62,3.19,0.83,3.19a0.4,0.4,0,0,0,.25-0.15,6.31,6.31,0,0,0,.58-3,5.31,5.31,0,0,0-.7-3,0.3,0.3,0,0,0-.14-0.11" transform="translate(-358.93 -269.54)"/><polygon class="cls-1" points="38.52 56.51 38.93 57.34 39.09 57.67 39.2 57.38 39.48 56.67 38.48 54.65 38.52 56.51"/><path class="cls-1" d="M397.52,317.92c0,0.52,0,1.37-.05,2a1.38,1.38,0,0,0,.59-1.25,0.79,0.79,0,0,0-.24-0.57,0.53,0.53,0,0,0-.29-0.13" transform="translate(-358.93 -269.54)"/><path class="cls-1" d="M385.17,322.77a1,1,0,0,0-.31-0.15V325a0.76,0.76,0,0,0,.33-0.14,1.39,1.39,0,0,0,.48-1.11,1.29,1.29,0,0,0-.49-1" transform="translate(-358.93 -269.54)"/><polygon class="cls-1" points="14.71 47.27 14.2 46.62 13.89 46.23 13.73 46.54 13.32 47.28 13.32 56.02 13.36 56.13 14.71 47.27"/><path class="cls-1" d="M438.17,325.49a3.46,3.46,0,0,1-2.63,2.75,4.07,4.07,0,0,1-3.79-1.15v0.58h-6.88l0.22-.71,0.44-1.44,0-7.86-2.75,10.28-0.12.44h-0.84l-0.11-.44-2.86-11.08-0.51-.62-0.32.6v8.25h0.1l1.52-1,0.86-.58v4.2h-6.07l0.23-.72,0.44-1.36c0-.18,0-0.66,0-1.3a5.29,5.29,0,0,1-1.1,2.33,3,3,0,0,1-4.57,0,6.82,6.82,0,0,1-1.34-4.41l-1.14,5.7-0.09.47H406l-0.14-.4-1.1-3.12-1.1,3.12-0.14.4h-0.82l-0.1-.47-1.91-9.29a6.78,6.78,0,0,1-.08,1,3.69,3.69,0,0,1-1.13,2.09l2.47,5.16,0.38,0.79H387.46l0.22-.71,0.44-1.44v-0.24a3.67,3.67,0,0,1-.79,1.35c-1.14,1.19-3,1.11-4.15,1.07l-0.55,0h-3.46l-0.05-.5-0.35-3.48-1.13,4.24-0.12.44h-0.83l-0.12-.44-1.05-4.07-0.33,3.31-0.05.5h-6.47l0.23-.72,0.44-1.36,0-8.76-0.08-.15,0,0.23-0.13,1-0.77-.64-1.07-.89-0.09,9.6,0.54,1.66,0.23,0.72h-4.43l0.23-.72,0.53-1.65,0-9.7h0l-1.17,1-0.77.64-0.13-1-0.34-2.55-0.08-.62h7.93l-0.08.63-0.12.91h7.16l0.08,0.46,0.52,3,0.53-3,0.08-.46h3.06l0.86,0H382c0.68,0,1.82-.06,2.53,0a3.56,3.56,0,0,1,3.53,2.76v-0.63L387.54,316l-0.32-.76h7v0h3.14a3.84,3.84,0,0,1,2,.48L399,315.3h4.23l0.07,0.48,0.51,3.66,0.45-1.76,0.48-1.89,0.58,1.87,0.55,1.77,0.38-3.62,0.05-.49h4.16l-0.79.91-0.51.59-0.11.53a5.28,5.28,0,0,1,.73-1.12,2.58,2.58,0,0,1,1.92-1c1.54,0,2.83,1.71,3.36,4.18,0-1.14,0-2,0-2v-0.57l-0.56-.71-0.7-.89h7.92l0.08,0.46,0.52,3.17,0.53-3.17,0.08-.46h8.79l-0.09.63h0a3.25,3.25,0,0,1,2.32-2.13,4.13,4.13,0,0,1,3.92,1.28l0.24,0.28-0.16.33-1.22,2.47-0.62,1.25L435.66,318l-0.44-1.44a0.65,0.65,0,0,0-.42-0.19,0.47,0.47,0,0,0-.54.36,2.09,2.09,0,0,0,.1,1.3,5.83,5.83,0,0,0,1.26,1.44,10.47,10.47,0,0,1,1.93,2.22,4.63,4.63,0,0,1,.62,3.77m-71.86-17.14,3.56-6.1-1.2-.27,4-7.34,2.39,7.45-1.24.16,2,6.1h-4.14L370.42,312h-4.76l2-3.63h-1.38Zm10.7,1.53h0l1,2.21,1-2.21h0l0.82,3.71H379l-0.26-1.67h0l-0.8,1.73h0l-0.73-1.73h0L377,313.6h-0.78Zm3.08-14.44,1.82,5.67-0.94.13,1.63,4.65h-1.26l0.53,2.45H380.8l-3-5.08s0.17,0,.4-0.08a2.56,2.56,0,0,0,.67-0.25l-0.9-1.66,0,0h0l-0.48-.89Zm3.54,18.13h-0.76v-3.65h0.76v3.65Zm3.37-3.69h0l2,2v-2h0.76v3.73h0l-2-2.06v2H387v-3.69h0ZM384,302a2.48,2.48,0,0,0,.3-0.06,1.86,1.86,0,0,0,.51-0.19L384,300.28l2.09-3.85,1.5,4.66-0.77.1,1.34,3.82h-1l0.72,3.35h-1.52l-0.9-1.7h0a4.15,4.15,0,0,0,1.09-.31Zm-1-8.1a12.45,12.45,0,0,1,4.05-6.75s0.6-.25-2.89-0.32a11.34,11.34,0,0,1,4-3.1,12.22,12.22,0,0,0-2.9-.13s1.09-2.1,4.87-2.68l0.3,0c-0.24-.43-0.85-0.25-1.09-0.67-0.13-.23,3.32-1.06,3.19-1.29s-3.07-1-3.22-1.25,1.05-.63,1-0.78a11,11,0,0,0-1.29-.87c-0.57-.39-1.08-0.82-1.13-0.81-0.5.12,0.16,5,.18,5.23a3.27,3.27,0,0,1-.5.13c-0.28-.27-2.52-7-2-8.19,0.07-.17.37-0.08,1.45,0.75a24.1,24.1,0,0,0,8.51,4.34,12.31,12.31,0,0,0,0-2.17,6.26,6.26,0,0,1,2.8,2.63l0.06-.17a9.51,9.51,0,0,0,.34-1.94,6.7,6.7,0,0,1,1.69,1.9,10.31,10.31,0,0,1-.44,4.27,3.21,3.21,0,0,1-3,1.3,4.3,4.3,0,0,0,.83.8,5,5,0,0,0,.89.44s-1.07.77-3.5,0.24c-0.22,0,1.21,1.42,3.26,2.3,1,0.42,1.47,2,.19,2a5.25,5.25,0,0,1,1.15,2.07l0.16,0.87a1.94,1.94,0,0,0-1.42-.78l-0.3,0h-0.27l-0.15,0-0.09,0-0.14,0-0.07,0-0.14.07,0,0a1.22,1.22,0,0,0-.38.34h0a2,2,0,0,1,1.19.11c2,0.67,1.72,3.37,1.84,3.8a2.17,2.17,0,0,0-1.21-.37l-0.18,0-0.2.05h0l-0.18.09,0,0-0.15.1,0,0-0.11.11-0.06.07-0.07.1-0.06.12,0,0.08a1.06,1.06,0,0,0-.06.18v0a1.09,1.09,0,0,0,0,.22,1.52,1.52,0,0,0,.23.78,2.55,2.55,0,0,0,.38.47,1,1,0,0,1,.29.38c0,0.05,0,.07-0.19,0h0a2.75,2.75,0,0,1-1.91-2.61c-0.05-1.19.26-1.8,0.65-1.94l0.1,0h0a2.53,2.53,0,0,1,1.58.41h0a1.82,1.82,0,0,0-.32-0.42,2.12,2.12,0,0,0-1.06-.59,1.41,1.41,0,0,0-.61,0,2.11,2.11,0,0,0-1.34,1.35,3.55,3.55,0,0,0-.27,1.07,4,4,0,0,0,0,.42,4.17,4.17,0,0,0,.18,1.13,21,21,0,0,0,.93,2.81,10.56,10.56,0,0,1,1.29,5.84c0,0.05,0,.1,0,0.15s0,0.11,0,.16,0,0.08,0,.12,0,0.11,0,.16l0,0.11a1.3,1.3,0,0,0,.05.14l0,0.09,0.07,0.13,0.05,0.08,0.09,0.12,0.06,0.06,0.12,0.1,0.06,0,0.13,0.09,0.07,0,0.15,0.08,0.06,0,0.18,0.07,0,0a3.52,3.52,0,0,0,.47.12l0.09,0,0.14,0h0.9a2,2,0,0,0,2.25-2.18,10.8,10.8,0,0,1,1.29-5.71c0.54-1-.45.74-0.52,3.48s0,5.47-3.33,5.53h-0.52a2.73,2.73,0,0,1-2-1,3,3,0,0,1-.33-0.6c-0.57-1.33-.4-3.14-0.73-4.25a14.15,14.15,0,0,0-1.14-2.65c-0.27-.49-0.47-0.79-0.47-0.8h0a4.53,4.53,0,0,0,.41,2.17,6,6,0,0,1,.48,2.3v0s0,0.06,0,.06a2,2,0,0,0-.93-0.44l0,0.07a11.66,11.66,0,0,1,.42,2l0.07,0.47a6.59,6.59,0,0,0,.57,1.88l0.12,0.24h-3.94l-1.44-2.73h0a3.39,3.39,0,0,0,.89-0.25l-2.11-3.56,0.25,0a1.54,1.54,0,0,0,.42-0.16l-3.87-7.12-2.62,4.83L382.79,298l-0.41-.81a27.4,27.4,0,0,1,.56-3.33M404.36,311a1.09,1.09,0,0,1,1.12-1.11,1.44,1.44,0,0,1,1,.41l-0.42.62a0.68,0.68,0,0,0-.54-0.27,0.32,0.32,0,0,0-.34.28c0,0.57,1.37.2,1.37,1.52a1.11,1.11,0,0,1-1.18,1.2,1.47,1.47,0,0,1-1.06-.42l0.45-.69a0.69,0.69,0,0,0,.58.29,0.37,0.37,0,0,0,.4-0.32c0-.56-1.37-0.23-1.37-1.52m1.43-23.19,0.49-.34a1.26,1.26,0,0,1-.49,1.52,1,1,0,0,1-1.52-.31l0.4-.28a0.75,0.75,0,0,0,.81.09,0.55,0.55,0,0,0,.31-0.68m-4.48,17.92c0.71-.07.47-1.16,0.47-1.16a1.49,1.49,0,0,1,.34,1,1,1,0,0,1-.57,1.11,0.52,0.52,0,0,1-.35-0.57c0-.4.11-0.38,0.11-0.38m-2.9-6.44c0.09-.22.62-0.09,0.74,0.15a9,9,0,0,0,1.49,0c0.12-.25.65-0.37,0.74-0.15a1.26,1.26,0,0,1-.31.8,1,1,0,0,0-.34-0.43l-0.43.56-0.4-.5-0.4.5-0.44-.56a1,1,0,0,0-.34.43,1.27,1.27,0,0,1-.31-0.8m-0.32,5.28s-0.24,1.09.47,1.16c0,0,.11,0,0.11.38a0.52,0.52,0,0,1-.35.57,1,1,0,0,1-.57-1.11,1.5,1.5,0,0,1,.34-1M397.66,301a1.26,1.26,0,0,1-.46-1.11,1.33,1.33,0,0,1,.46-1.3,0.42,0.42,0,0,1,.43.16,0.89,0.89,0,0,1,.22.43,1.13,1.13,0,0,0-.59.49,2.51,2.51,0,0,0-.06,1.33m3.14,6.06a0.28,0.28,0,0,1-.4,0,3.23,3.23,0,0,1-.94,0,0.28,0.28,0,0,1-.4,0,1.09,1.09,0,0,1-.1-1,0.75,0.75,0,0,0,.47.67l0.27-.47,0.23,0.5,0.24-.5,0.27,0.47a0.75,0.75,0,0,0,.47-0.67,1.09,1.09,0,0,1-.1,1M400,304.89h0c-1.24-.06-1.73-1.3-1.79-2.35s0.15-1.45.74-1.48a1.07,1.07,0,0,1,.9,1,2.2,2.2,0,0,0,.16.59h0a2.2,2.2,0,0,0,.15-0.59,1.07,1.07,0,0,1,.9-1c0.59,0,.8.43,0.74,1.48s-0.56,2.29-1.79,2.35m2.1-5.2a1.11,1.11,0,0,0-.59-0.49,0.9,0.9,0,0,1,.22-0.43,0.42,0.42,0,0,1,.43-0.16,1.33,1.33,0,0,1,.46,1.3,1.26,1.26,0,0,1-.46,1.11,2.49,2.49,0,0,0-.06-1.33m-6.16,10.24v3.73h0l-2-2.06v2h-0.76v-3.69h0l2,2v-2h0.76Zm4.92,1.43v0.76H400v0.69h1.2l-0.19.76h-1.78V310H401l0.13,0.76H400v0.63h0.79Zm3.15-27c0.08,0.45.22,0.91,0.31,0.77a6.83,6.83,0,0,1,1.69-1.11s-0.52.91-.29,0.77a1.64,1.64,0,0,1,1.08.2c-2.15.84-3.85,1.81-4.52,3.08-0.08-.6,1.66-4.16,1.73-3.71m9,27.37a1.65,1.65,0,1,1-1.64-1.89,1.78,1.78,0,0,1,1.64,1.89m1.43-7-1,.06L413,308.34h-3.88l1.21-2.29L411,304.9l-0.92-.14,1.47-2.48,0.71-1.21-0.78-.1,2.46-4.53,0.74,4.46-0.79.1Zm-7.68-27.14c2.79-.93,7-4,7-4,1.3-1.07,1.72-1.4,2-1.29a0.4,0.4,0,0,1,.23.36s-1,5.15-3.05,8.36a6,6,0,0,1,2.75,2.17,18.32,18.32,0,0,0-2.88.15,16.37,16.37,0,0,1,4,3.91,20,20,0,0,0-3.94-.17c0.15,0.14,1.12,1.17,1.29,1.32a9.65,9.65,0,0,1,3.48,8l-0.18-1.08a13.19,13.19,0,0,0-4.39-6.85c-0.31-.26-2-1.56-2.21-1.8l1.61-.23a19.09,19.09,0,0,1,2.79,0A31.35,31.35,0,0,0,411,283l-0.23-.12a12,12,0,0,1,3.41-.27,7.66,7.66,0,0,0-2.15-1.51,24.18,24.18,0,0,0,3-7.82s0.27-.5-1,0.66c-0.13.1-1.42,1.2-3.12,2.81l0.65,1a29.48,29.48,0,0,1-3.7.67l1.67,1.65c-1.55-.68-2.88-1.74-4.53-1.94,0.59-.22,1.1-0.43,1.65-0.62m9.21,33.2,0.19-.82h2.09v0.82h-0.74v2.79h-0.76v-2.79h-0.79Zm4.05-15.35,1.14,5.55-1,.13,0.72,4.7-1.18.08-0.24,2.45H415l0.62-1.17,0.74-1.4-1.12-.17,1.8-3,0.87-1.48-1-.12Zm4.27,18.13h-0.77l-0.31-.69H422l-0.31.69h-0.74l1.64-3.69h0Zm0.46-11.5-1.25-.16,3.95-7.26,2.69,7.45-1.17.16c0.63,1.35,2.08,4.63,2.67,5.72l-1.22.24,1.82,3.85a3.61,3.61,0,0,0-1.45,1.34l-1.65,0-2-5.08-5.85,0Zm13.64,17,2.06-4.33,0,0-0.09-.12c-0.08-.1-2-2.47-4.3-2.77l-0.27,0-1.26-2.38,0.38-.08a3.65,3.65,0,0,0,1-.33l0.07,0-3.35-5.64,0.37-.1a3.65,3.65,0,0,0,.61-0.21l0.08,0-6.28-11.56L423.18,299l-3.29-6.05-1,1.93-0.13-.86a7.86,7.86,0,0,0-.66-2.19,14.72,14.72,0,0,0-1.82-2.76l-0.52-.65,0.82,0.18a7.05,7.05,0,0,1,1.35.45l0.79,0.38-0.17-.86a7,7,0,0,0-2-3.54l-0.71-.72,1.39,0.33,1,0.3-0.53-.94a8.61,8.61,0,0,0-2.48-2.88L415,281l0.09-.22c1.5-3.68,2.26-6.51,2.26-8.39,0-1.54-.51-2-0.74-2.13l-0.12-.07,0,0-0.17,0a22.13,22.13,0,0,0-3.79,2.36c-1.24.84-2.64,1.8-3.64,2.4a11.05,11.05,0,0,1-2.87,1.28l-0.26.06-0.09-.25a6.9,6.9,0,0,1-.31-1.77s0-.71,0-0.75l-0.64.4a6.33,6.33,0,0,0-1.5,1.71L403,276l-0.25-.34a9.69,9.69,0,0,0-1.69-1.79l-1-.78,0.31,1.23h0v0.2l0,0.9-0.45-.34a23.26,23.26,0,0,0-2-1.29l-0.75-.44,0,0.41,0.11,1.06-0.52-.35a11.27,11.27,0,0,0-2.69-1.27l-0.87-.26,0.34,0.84a6.11,6.11,0,0,1,.31,1.28l0.08,0.55-0.5-.24a65.1,65.1,0,0,1-7-4.24,1.78,1.78,0,0,0-1.83-.48,1.62,1.62,0,0,0-.6,1.46v0.25c0.12,2.67,1.56,6.64,2.17,8.22l0.09,0.23-0.21.13a12.84,12.84,0,0,0-3.31,3.1l-0.53.75,0.91-.06h1.31l-0.65.53a10.23,10.23,0,0,0-2.46,2.9l-0.48.91,1-.29a7.93,7.93,0,0,1,1.3-.27l0.73-.09-0.46.57a9.6,9.6,0,0,0-1.87,3.81,9.85,9.85,0,0,0-.22,1.2l-0.12.9-1.05-1.94L376.86,299l-4.12-7.58L366.45,303l0.08,0a3.53,3.53,0,0,0,.61.21l0.37,0.1L364.14,309l0.07,0a3.68,3.68,0,0,0,1,.33l0.38,0.08-1.29,2.44h-4.7L361,320.8l1.69-1.12,0.05,5.9-1.49,4.29h9.09l-0.23-.71h62.14l0.06,0a7.5,7.5,0,0,0,3.8.64c1-.12,4.25-0.9,4.25-5.94a7.48,7.48,0,0,0-1.92-4.65Z" transform="translate(-358.93 -269.54)"/><polygon class="cls-1" points="63.23 42.67 64.04 42.67 63.63 41.79 63.23 42.67"/><path class="cls-1" d="M431.75,325.93l1-2,0.62-1.25,0.41,1.33,0.44,1.43a0.89,0.89,0,0,0,.47.21,1,1,0,0,0,.68-0.43,1.88,1.88,0,0,0-.2-1.72,9.51,9.51,0,0,0-1.3-1.56,14.22,14.22,0,0,1-2-2.44,4.74,4.74,0,0,1-.56-1.78l-0.06.45-0.14,1-0.77-.67-0.75-.65h-1.16c0,0.58,0,1.52,0,2.09h2.93l-0.37.78-0.82,1.74-0.21.45-0.47-.17-1.06-.37,0,2.78h0.92l1.52-1,0.86-.58v2.46h0Z" transform="translate(-358.93 -269.54)"/><path class="cls-1" d="M381.82,317.26L381.21,316l-0.05-.11-0.11.18-0.41.68,1.4,9.14Z" transform="translate(-358.93 -269.54)"/><path class="cls-2" d="M440.37,323.89c0,5-3.26,5.82-4.25,5.94a7.52,7.52,0,0,1-3.8-.64l-0.06,0H370.11l0.23,0.71h-9.1l1.5-4.29-0.05-5.9L361,320.81l-1.39-8.94h4.7l1.29-2.44-0.38-.08a3.7,3.7,0,0,1-1-.33l-0.07,0,3.35-5.64-0.37-.11a3.72,3.72,0,0,1-.61-0.21l-0.08,0,6.28-11.56,4.12,7.58,3.29-6.05,1.05,1.94,0.11-.9a10.22,10.22,0,0,1,.22-1.2,9.61,9.61,0,0,1,1.87-3.81l0.47-.57-0.73.09a8.22,8.22,0,0,0-1.3.27l-1,.3,0.48-.91a10.25,10.25,0,0,1,2.46-2.9l0.65-.53h-1.3l-0.91.06,0.53-.75a12.84,12.84,0,0,1,3.31-3.1l0.21-.13-0.09-.23c-0.61-1.58-2-5.55-2.17-8.22v-0.25a1.62,1.62,0,0,1,.6-1.46,1.77,1.77,0,0,1,1.83.48,65.47,65.47,0,0,0,7,4.24l0.5,0.24-0.08-.55a6,6,0,0,0-.31-1.28l-0.34-.84,0.87,0.26a11.38,11.38,0,0,1,2.69,1.27l0.52,0.35-0.11-1.06,0-.41,0.75,0.44a22.75,22.75,0,0,1,2,1.29l0.44,0.33,0-.9v-0.2h0l-0.3-1.23,1,0.78a9.56,9.56,0,0,1,1.7,1.79L403,276l0.24-.35a6.32,6.32,0,0,1,1.5-1.71l0.64-.4s0,0.75,0,.75a6.92,6.92,0,0,0,.31,1.77l0.09,0.25,0.26-.07a11.07,11.07,0,0,0,2.87-1.28c1-.6,2.4-1.56,3.64-2.4a22,22,0,0,1,3.79-2.36l0.17,0,0,0,0.12,0.07c0.22,0.13.74,0.59,0.74,2.13,0,1.88-.76,4.71-2.26,8.39L415,281l0.19,0.13a8.61,8.61,0,0,1,2.48,2.88l0.53,0.94-1-.3-1.39-.33,0.71,0.72a7,7,0,0,1,2,3.54l0.17,0.86-0.79-.38a7,7,0,0,0-1.35-.45l-0.82-.18,0.52,0.65a14.6,14.6,0,0,1,1.82,2.76,8,8,0,0,1,.66,2.19l0.13,0.86,1-1.93,3.29,6.05,4.12-7.58L433.59,303l-0.08,0a3.85,3.85,0,0,1-.61.21l-0.37.11,3.35,5.64-0.07,0a3.62,3.62,0,0,1-1,.33l-0.38.08,1.26,2.38,0.27,0c2.32,0.3,4.22,2.67,4.3,2.77l0.09,0.12,0,0-2.06,4.33,0.13,0.14a7.48,7.48,0,0,1,1.92,4.65m0.7-9.2-0.35-.45c-0.09-.11-2.12-2.63-4.66-3l-0.76-1.44a3.46,3.46,0,0,0,.82-0.3l0.57-.34-0.34-.57-2.93-4.93,0.35-.14,0.62-.31-0.33-.61L427.3,290.2l-4.12,7.58-3.29-6.05-0.78,1.43a8.16,8.16,0,0,0-.53-1.58,13.34,13.34,0,0,0-1.34-2.16l0.38,0.15,0.64,0.31,1.21,0.59-0.26-1.32-0.14-.7a7.29,7.29,0,0,0-1.48-3.1l1.89,0.56-1.25-2.2a9.4,9.4,0,0,0-2.47-2.93c1.47-3.65,2.22-6.48,2.22-8.4s-0.64-2.42-1-2.64l-0.35-.2-0.39.09c-0.53.12-1.46,0.73-4,2.44-1.24.85-2.64,1.8-3.62,2.39a11.12,11.12,0,0,1-2.44,1.14,7,7,0,0,1-.2-1.33l0-.61-0.06-1.15-1.49.95A6,6,0,0,0,403,275a10.25,10.25,0,0,0-1.56-1.59l-2.34-1.82,0.67,2.68c-0.73-.51-1.42-0.92-1.51-1l-1.75-1,0.15,1.41a11.92,11.92,0,0,0-2.32-1l-2-.61,0.79,2a3.92,3.92,0,0,1,.17.57,68.71,68.71,0,0,1-6.42-3.92c-1-.71-1.78-0.88-2.46-0.52a2.13,2.13,0,0,0-.91,2v0.27a31.66,31.66,0,0,0,2.12,8.19,13.64,13.64,0,0,0-3.28,3.12L381,285.46l1.4-.09,0.36,0a10.43,10.43,0,0,0-2,2.54l-0.39.74-0.73,1.4,2.32-.69c0.16,0,.33-0.07.49-0.1a10.38,10.38,0,0,0-1.53,3.41c0,0.14-.05.3-0.08,0.44l-0.74-1.36-3.29,6.05-4.12-7.58-0.59,1.08-6.5,12,0.62,0.31,0.35,0.14-3.27,5.5,0.57,0.34a3.5,3.5,0,0,0,.82.3L364,311.28h-5l0.12,0.77,1.52,9.75,1.55-1c0,0.86,0,4.63,0,4.71l-1.73,5h10.73l-0.23-.71h61.21a8.09,8.09,0,0,0,4.06.66c1.12-.13,4.77-1,4.77-6.52A7.94,7.94,0,0,0,439,319l2.06-4.31" transform="translate(-358.93 -269.54)"/><path class="cls-2" d="M383.48,299.31l2.62-4.83,3.87,7.11a1.51,1.51,0,0,1-.42.16l-0.25,0,2.11,3.56a3.35,3.35,0,0,1-.89.25h0l1.44,2.73h2.45c-1-1.51-.65-4.82-2-7.66a16.4,16.4,0,0,1-.91-2.28,9.28,9.28,0,0,0-.78.73,6.82,6.82,0,0,1,.15-3.73,4.13,4.13,0,0,0-1.71,1.45,4.82,4.82,0,0,1,.32-3.69,4.91,4.91,0,0,1,2.9-2.69,2.49,2.49,0,0,1-1.35-1.87,7.39,7.39,0,0,1,.65-3.24c1.43,1.37,3.31,2,4.64,3a4.4,4.4,0,0,1,1.56,1.89h0a3.29,3.29,0,0,1,.61,1h0a1.94,1.94,0,0,1,1.42.78l-0.16-.87a5.24,5.24,0,0,0-1.15-2.07c1.28,0,.8-1.61-0.19-2-2.06-.88-3.48-2.27-3.26-2.3,2.43,0.53,3.5-.24,3.5-0.24a5,5,0,0,1-.89-0.45,4.27,4.27,0,0,1-.83-0.8,3.21,3.21,0,0,0,3-1.3,10.3,10.3,0,0,0,.43-4.27,6.66,6.66,0,0,0-1.69-1.9,9.45,9.45,0,0,1-.34,1.94l-0.06.17a6.25,6.25,0,0,0-2.8-2.63,12.52,12.52,0,0,1,0,2.17,24.12,24.12,0,0,1-8.51-4.34c-1.08-.83-1.38-0.92-1.45-0.75-0.49,1.19,1.75,7.92,2,8.19a3.22,3.22,0,0,0,.5-0.13c0-.26-0.68-5.11-0.18-5.23,0.05,0,.56.42,1.13,0.81a11.18,11.18,0,0,1,1.29.87c0.09,0.15-1.05.63-1,.78s3.07,1,3.22,1.25-3.32,1.06-3.19,1.29c0.24,0.42.85,0.24,1.09,0.67l-0.3,0c-3.77.58-4.87,2.68-4.87,2.68a12.26,12.26,0,0,1,2.9.13,11.33,11.33,0,0,0-4,3.1c3.49,0.07,2.89.32,2.89,0.32a12.46,12.46,0,0,0-4.05,6.75,27.38,27.38,0,0,0-.56,3.33l0.41,0.81Z" transform="translate(-358.93 -269.54)"/><path class="cls-2" d="M398.56,294.09h0a2.54,2.54,0,0,0-1.58-.41,2.9,2.9,0,0,1,1.53,1.67h0l0.19,0a2.16,2.16,0,0,1,1.21.37c-0.12-.44.13-3.14-1.84-3.8a2,2,0,0,0-1.18-.11,2.2,2.2,0,0,1,1.69,2.3" transform="translate(-358.93 -269.54)"/><path class="cls-2" d="M400.17,308.22a1.2,1.2,0,0,1-.27.62c3.32-.06,3.27-2.92,3.33-5.53s1.06-4.44.52-3.48a10.8,10.8,0,0,0-1.29,5.71,2,2,0,0,1-2.25,2.18h-0.29a0.89,0.89,0,0,1,.25.51" transform="translate(-358.93 -269.54)"/><path class="cls-2" d="M406.76,285a1.65,1.65,0,0,0-1.08-.2c-0.23.14,0.29-.77,0.29-0.77a6.81,6.81,0,0,0-1.69,1.1c-0.08.14-.23-0.32-0.31-0.77s-1.81,3.11-1.73,3.71c0.67-1.28,2.37-2.24,4.52-3.08" transform="translate(-358.93 -269.54)"/><path class="cls-3" d="M407.89,278.5a29.38,29.38,0,0,0,3.7-.68l-0.65-1c1.69-1.61,3-2.71,3.12-2.81,1.27-1.16,1-.66,1-0.66a24.13,24.13,0,0,1-3,7.82,7.67,7.67,0,0,1,2.15,1.51,12,12,0,0,0-3.41.27L411,283a31.12,31.12,0,0,1,4.14,3.29,19,19,0,0,0-2.79,0l-1.61.23c0.25,0.24,1.9,1.54,2.21,1.8a13.18,13.18,0,0,1,4.39,6.85l0.18,1.08a9.65,9.65,0,0,0-3.48-8c-0.17-.15-1.14-1.18-1.29-1.32a20.06,20.06,0,0,1,3.93.17,16.43,16.43,0,0,0-4-3.91,18.2,18.2,0,0,1,2.88-.15,6,6,0,0,0-2.75-2.17c2.07-3.21,3.05-8.36,3.05-8.36a0.4,0.4,0,0,0-.23-0.36c-0.25-.12-0.67.22-2,1.29,0,0-4.25,3.1-7,4-0.55.2-1.06,0.4-1.65,0.62,1.65,0.19,3,1.26,4.53,1.94Z" transform="translate(-358.93 -269.54)"/><path class="cls-4" d="M405.48,288.49a0.74,0.74,0,0,1-.8-0.09l-0.4.28a1,1,0,0,0,1.52.31,1.26,1.26,0,0,0,.49-1.51l-0.49.34a0.56,0.56,0,0,1-.31.68" transform="translate(-358.93 -269.54)"/><path class="cls-5" d="M398.31,299.2a0.89,0.89,0,0,0-.21-0.43,0.42,0.42,0,0,0-.44-0.16,1.33,1.33,0,0,0-.46,1.3,1.26,1.26,0,0,0,.46,1.11,2.49,2.49,0,0,1,.06-1.33,1.12,1.12,0,0,1,.59-0.49" transform="translate(-358.93 -269.54)"/><path class="cls-5" d="M398.32,306.68a0.52,0.52,0,0,0,.35-0.57c0-.4-0.11-0.38-0.11-0.38-0.7-.07-0.47-1.16-0.47-1.16a1.5,1.5,0,0,0-.34,1,1,1,0,0,0,.57,1.11" transform="translate(-358.93 -269.54)"/><path class="cls-5" d="M402.59,299.91a1.34,1.34,0,0,0-.46-1.3,0.42,0.42,0,0,0-.43.16,0.87,0.87,0,0,0-.22.43,1.11,1.11,0,0,1,.59.49,2.48,2.48,0,0,1,.06,1.33,1.26,1.26,0,0,0,.46-1.11" transform="translate(-358.93 -269.54)"/><path class="cls-5" d="M399.06,299.66l0.43,0.56,0.4-.5,0.4,0.5,0.43-.56a1,1,0,0,1,.34.43,1.26,1.26,0,0,0,.31-0.8c-0.09-.22-0.62-0.09-0.74.15a9,9,0,0,1-1.49,0c-0.12-.25-0.65-0.37-0.74-0.15a1.27,1.27,0,0,0,.31.8,1,1,0,0,1,.34-0.43" transform="translate(-358.93 -269.54)"/><path class="cls-5" d="M400.44,306.78l-0.27-.47-0.23.5-0.23-.5-0.27.47a0.75,0.75,0,0,1-.47-0.67,1.09,1.09,0,0,0,.1,1,0.28,0.28,0,0,0,.4,0,3.24,3.24,0,0,0,.94,0,0.28,0.28,0,0,0,.4,0,1.09,1.09,0,0,0,.1-1,0.75,0.75,0,0,1-.47.67" transform="translate(-358.93 -269.54)"/><path class="cls-5" d="M401.54,306.68a1,1,0,0,0,.57-1.11,1.5,1.5,0,0,0-.34-1s0.24,1.09-.47,1.16c0,0-.11,0-0.11.38a0.51,0.51,0,0,0,.35.57" transform="translate(-358.93 -269.54)"/><polygon class="cls-2" points="42.21 41.19 42.08 40.43 40.35 40.43 40.35 44.03 42.12 44.03 42.31 43.27 41.1 43.27 41.1 42.58 41.9 42.58 41.9 41.81 41.1 41.81 41.1 41.19 42.21 41.19"/><polygon class="cls-2" points="34.21 40.34 34.2 40.34 34.2 44.03 34.96 44.03 34.96 42.06 36.97 44.12 36.98 44.12 36.98 40.38 36.22 40.38 36.22 42.36 34.21 40.34"/><path class="cls-2" d="M405.33,312.84a0.69,0.69,0,0,1-.58-0.29l-0.45.69a1.48,1.48,0,0,0,1.06.42,1.11,1.11,0,0,0,1.18-1.2c0-1.32-1.37-1-1.37-1.52a0.32,0.32,0,0,1,.34-0.28,0.69,0.69,0,0,1,.54.27l0.42-.62a1.44,1.44,0,0,0-1-.41,1.09,1.09,0,0,0-1.12,1.11c0,1.29,1.37,1,1.37,1.52a0.37,0.37,0,0,1-.4.32" transform="translate(-358.93 -269.54)"/><polygon class="cls-2" points="28.83 42.06 30.84 44.12 30.85 44.12 30.85 40.39 30.09 40.39 30.09 42.36 28.08 40.34 28.07 40.34 28.07 44.03 28.83 44.03 28.83 42.06"/><path class="cls-2" d="M412.18,311.78a0.89,0.89,0,1,1-.88-1.07,1,1,0,0,1,.88,1.07m-2.51,0a1.65,1.65,0,1,0,1.63-1.89,1.78,1.78,0,0,0-1.63,1.89" transform="translate(-358.93 -269.54)"/><polygon class="cls-2" points="18.29 42.39 18.3 42.39 19.03 44.12 19.04 44.12 19.84 42.38 19.85 42.38 20.12 44.05 20.88 44.05 20.07 40.34 20.06 40.34 19.07 42.55 18.1 40.34 18.09 40.34 17.25 44.05 18.03 44.05 18.29 42.39"/><polygon class="cls-2" points="58.51 44.03 58.51 41.25 59.25 41.25 59.25 40.43 57.16 40.43 56.96 41.25 57.75 41.25 57.75 44.03 58.51 44.03"/><rect class="cls-2" x="23.95" y="40.39" width="0.76" height="3.65"/><path class="cls-2" d="M423,312.22h-0.81l0.41-.88Zm-2,1.35h0.74l0.31-.69h1.17l0.31,0.69h0.77l-1.65-3.69h0Z" transform="translate(-358.93 -269.54)"/><path class="cls-5" d="M397.83,290.27a7.75,7.75,0,0,0-.91-0.48,2.09,2.09,0,0,0-.81-0.22c-0.58,0-.94.65-2.37,0.13a2.08,2.08,0,0,1-1.17-2.37,1.83,1.83,0,0,0-.48-0.86,4.52,4.52,0,0,1-.46-1.09h0a7.37,7.37,0,0,0-.65,3.24,2.5,2.5,0,0,0,1.35,1.87,4.91,4.91,0,0,0-2.9,2.69,4.83,4.83,0,0,0-.32,3.69,4.14,4.14,0,0,1,1.71-1.45,6.84,6.84,0,0,0-.15,3.73,9.21,9.21,0,0,1,.79-0.73,16.37,16.37,0,0,0,.91,2.28c1.37,2.84,1,6.15,2,7.66h1.49l-0.12-.24a6.62,6.62,0,0,1-.57-1.87c0-.16,0-0.32-0.07-0.47a11.59,11.59,0,0,0-.42-2l0-.07a2,2,0,0,1,.93.44s0,0,0-.06v0a6,6,0,0,0-.48-2.3,4.54,4.54,0,0,1-.41-2.17h0s0.2,0.31.47,0.8a14.19,14.19,0,0,1,1.14,2.65c0.33,1.11.16,2.92,0.73,4.25a3,3,0,0,0,.33.6,2.73,2.73,0,0,0,2,1h0.52a1.19,1.19,0,0,0,.27-0.62,0.9,0.9,0,0,0-.25-0.51h-0.61l-0.14,0-0.09,0a3.49,3.49,0,0,1-.47-0.12l0,0-0.18-.07-0.06,0-0.15-.08-0.07,0-0.13-.09-0.06,0-0.11-.1-0.06-.06-0.09-.12-0.05-.08-0.07-.13,0-.09-0.05-.14,0-.11s0-.11,0-0.16,0-.08,0-0.12,0-.11,0-0.16a1.47,1.47,0,0,1,0-.15,10.58,10.58,0,0,0-1.29-5.84,20.69,20.69,0,0,1-.94-2.81,4.17,4.17,0,0,1-.17-1.13,3.73,3.73,0,0,1,0-.42,3.51,3.51,0,0,1,.27-1.07,2.11,2.11,0,0,1,1.34-1.35,1.41,1.41,0,0,1,.61,0,2.13,2.13,0,0,1,1.06.58,1.87,1.87,0,0,1,.32.42h0a2.2,2.2,0,0,0-1.69-2.3h0a1.22,1.22,0,0,1,.38-0.34l0,0,0.14-.07,0.07,0,0.14,0,0.09,0,0.15,0h0.27l0.3,0h0a3.25,3.25,0,0,0-.61-1" transform="translate(-358.93 -269.54)"/><path class="cls-5" d="M397,293.68h0l-0.1,0c-0.39.14-.7,0.75-0.65,1.94a2.75,2.75,0,0,0,1.91,2.61h0c0.14,0,.2,0,0.19,0a1,1,0,0,0-.29-0.38,2.55,2.55,0,0,1-.38-0.47,1.52,1.52,0,0,1-.23-0.78,1.08,1.08,0,0,1,0-.22v0a1.52,1.52,0,0,1,.06-0.18l0-.08,0.06-.12,0.07-.1,0.06-.07,0.11-.11,0,0,0.14-.1,0,0,0.18-.09h0l0.2-.05h0a2.9,2.9,0,0,0-1.53-1.67" transform="translate(-358.93 -269.54)"/><path class="cls-1" d="M393.42,287.47l0.49,0.34a0.56,0.56,0,0,0,.31.68,0.75,0.75,0,0,0,.8-0.09l0.4,0.28a1,1,0,0,1-1.52.31,1.26,1.26,0,0,1-.49-1.51m-1.32-1a1.82,1.82,0,0,1,.48.86,2.08,2.08,0,0,0,1.17,2.37c1.43,0.51,1.79-.11,2.37-0.13a2.1,2.1,0,0,1,.81.22,7.71,7.71,0,0,1,.91.48h0a4.39,4.39,0,0,0-1.56-1.89c-1.33-1-3.21-1.65-4.64-3h0a4.44,4.44,0,0,0,.46,1.09" transform="translate(-358.93 -269.54)"/><path class="cls-4" d="M393.91,289a1,1,0,0,0,1.52-.31l-0.4-.28a0.74,0.74,0,0,1-.8.09,0.56,0.56,0,0,1-.31-0.68l-0.49-.34a1.26,1.26,0,0,0,.49,1.52" transform="translate(-358.93 -269.54)"/><path class="cls-6" d="M401.75,302.54c0.06-1-.15-1.45-0.74-1.48a1.08,1.08,0,0,0-.9,1,2.19,2.19,0,0,1-.15.59h0a2.2,2.2,0,0,1-.16-0.59,1.07,1.07,0,0,0-.9-1c-0.59,0-.8.43-0.74,1.48s0.56,2.29,1.79,2.35h0c1.24-.06,1.73-1.3,1.79-2.35" transform="translate(-358.93 -269.54)"/><path class="cls-3" d="M412,324.58a0.4,0.4,0,0,1-.25.15c-0.21,0-.83-1.1-0.83-3.19a5.32,5.32,0,0,1,.7-3,0.29,0.29,0,0,1,.13-0.11,0.29,0.29,0,0,1,.14.11,5.31,5.31,0,0,1,.7,3,6.29,6.29,0,0,1-.58,3m-0.25-6.75a0.74,0.74,0,0,0-.55.29,5.78,5.78,0,0,0-.84,3.42c0,1.95.56,3.74,1.38,3.74a0.88,0.88,0,0,0,.66-0.34,6.49,6.49,0,0,0,.73-3.4,5.78,5.78,0,0,0-.84-3.42,0.74,0.74,0,0,0-.55-0.29" transform="translate(-358.93 -269.54)"/><path class="cls-3" d="M397.47,319.87c0-.58,0-1.43.05-1.95a0.51,0.51,0,0,1,.29.12,0.79,0.79,0,0,1,.24.57,1.37,1.37,0,0,1-.59,1.25M397,317.4h0v0l-0.08,3v0.06H397a1.75,1.75,0,0,0,1.64-1.91,1.34,1.34,0,0,0-.43-1,1.29,1.29,0,0,0-1.14-.23" transform="translate(-358.93 -269.54)"/><path class="cls-3" d="M437.64,325.36a2.88,2.88,0,0,1-2.22,2.35A3.6,3.6,0,0,1,432,326.6l1.22-2.47,0.48,1.56a1.47,1.47,0,0,0,.9.46,1.52,1.52,0,0,0,1.23-.71,2.38,2.38,0,0,0-.19-2.24c-0.47-.94-2.49-2.59-3.29-4a3.85,3.85,0,0,1-.47-2.38A3,3,0,0,1,434,314.3a3.6,3.6,0,0,1,3.37,1.11l-1.22,2.47-0.47-1.56a1.25,1.25,0,0,0-.9-0.46,1,1,0,0,0-1.07.74,2.61,2.61,0,0,0,.13,1.72c0.59,1.18,2.19,2,3.21,3.69a4.1,4.1,0,0,1,.55,3.35m-6.74-1.3-1.52,1h-0.92l0-2.78,1.06,0.37,0.47,0.17,0.21-.45,0.81-1.74,0.37-.79h-2.93c0-.57,0-1.51,0-2.09h1.16l0.75,0.65,0.76,0.67,0.14-1,0.06-.45a4.71,4.71,0,0,0,.56,1.78,14.27,14.27,0,0,0,2,2.44,9.68,9.68,0,0,1,1.3,1.56,1.88,1.88,0,0,1,.2,1.72,1,1,0,0,1-.68.43,0.92,0.92,0,0,1-.47-0.21L433.79,324l-0.41-1.33-0.62,1.25-1,2v-2.46Zm0.31,3.06h-5.59l0.46-1.52,0-8.38L425.55,316l-0.35.55-3,11.2-2.89-11.2-0.65-.78h2.54l1.06,6.44,1.08-6.44H431L430.73,318l-0.91-.79-1.86,0-0.07,0v0.08l0,3.08v0.06h2.61l-0.81,1.74-1.79-.63,0,4.12,1.66,0,1.65-1.12v2.61Zm-12.95-1.48,1.65-1.12v2.61h-4.76l0.47-1.45,0-8.22v-0.77l-0.68-.86h3l-0.47.88v9Zm-4.71.62a2.42,2.42,0,0,1-3.74,0A6.44,6.44,0,0,1,408.6,322a8.61,8.61,0,0,1,1.57-5.41,2,2,0,0,1,1.5-.79c1.7,0,3.08,2.78,3.08,6.2a6.45,6.45,0,0,1-1.21,4.26m-7.17,1.54-1.62-4.6-1.62,4.6-2.31-11.24-0.63-.7h2.52l0.91,6.43,1.14-4.47,1.34,4.32,0.67-6.28h2.46l-0.61.7Zm-6.32-8.24a3.21,3.21,0,0,1-1.26,2l2.66,5.54h-2.8l0.36-.94-1.9-3.84-0.29.05,0.08,3.78,0.45,0.94H394.6l0.46-1L395,317.29l-0.69-1.46h3.09a2.92,2.92,0,0,1,1.88.55c0.46,0.42,1,1.33.77,3.17m-1.93,7.37-0.11.3-0.16-.34-0.4-.83,0-1.85,1,2Zm-3.78-.57v-2.88l-0.86.58-1.52,1H391l0-2.78,1.06,0.37,0.47,0.17,0.21-.45,0.82-1.74,0.37-.79h-2.93c0-.57,0-1.51,0-2.09h1.16l0.75,0.65,0.77,0.67,0.14-1,0.21-1.5,0.38,0.8,0.06,8.56Zm-0.55.77h-5.59l0.47-1.52,0-8.38-0.58-1.39h5.58L393.32,318l-0.9-.79-1.86,0-0.07,0v0.08l0,3.08v0.06h2.61l-0.82,1.74-1.79-.63,0,4.12,1.65,0,1.65-1.12v2.61h0Zm-6.68-5.92a3.77,3.77,0,0,0,1-1.77v3.06a3.71,3.71,0,0,0-1-1.29m-0.18,5c-1.15,1.2-3.23.88-4.3,0.88l-0.26-10-0.66-1.33c0.53,0,2-.07,2.82,0a3,3,0,0,1,3.07,2.6,3.09,3.09,0,0,1-1.33,2.83l-0.09.06,0.1,0a3,3,0,0,1,1.48,1.89,3.65,3.65,0,0,1-.82,3.06m-7.27.88L379,320.64l-1.91,7.16-1.83-7.06-0.64,6.39h-5.21l0.47-1.44,0-9-0.46-.87h2.79l-0.47.87v9l0.45,1.39,0.59-.71,1.48-9.68-0.67-.84h2.54l1.06,6.11,1.08-6.11h2.34l-0.51.84,1.48,9.68,0.65,0.78h-2.54Zm-7.41-10.29,0.41-.75,0.17-.3,0.3,0.38,0.52,0.66-1.36,8.86,0-.11v-8.74h0Zm8.8-.72,0.11-.18,0.05,0.11,0.61,1.22,0.22,8.66-1.4-9.14Zm-12.42.72-1.31-1.09-0.65,0-0.09,10.33,0.56,1.74h-2.91l0.56-1.73,0-10.35-0.78,0-1.31,1.09-0.34-2.55H369Zm67,2.67a5.85,5.85,0,0,1-1.26-1.44,2.08,2.08,0,0,1-.1-1.3,0.47,0.47,0,0,1,.54-0.36,0.67,0.67,0,0,1,.42.19l0.44,1.44,0.4,1.33,0.62-1.25,1.22-2.47,0.16-.33-0.24-.28a4.13,4.13,0,0,0-3.92-1.28,3.25,3.25,0,0,0-2.32,2.13h0l0.09-.63h-8.79l-0.08.46-0.53,3.17-0.52-3.17-0.08-.46h-7.92l0.71,0.89,0.56,0.71v0.57s0,0.84,0,2c-0.53-2.48-1.82-4.18-3.37-4.18a2.57,2.57,0,0,0-1.92,1,5.09,5.09,0,0,0-.73,1.12l0.11-.53,0.51-.59,0.79-.91h-4.17l-0.05.5-0.38,3.62-0.55-1.77-0.58-1.87-0.48,1.89-0.45,1.76-0.51-3.66-0.07-.48H399l0.41,0.46a3.84,3.84,0,0,0-2-.48h-3.14v0h-7l0.32,0.77,0.54,1.29V318a3.56,3.56,0,0,0-3.53-2.76c-0.71,0-1.85,0-2.53,0h-0.33l-0.86,0h-3.06l-0.08.46-0.54,3-0.52-3-0.08-.46h-7.16l0.12-.92,0.08-.62h-7.93l0.08,0.63,0.34,2.55,0.13,1,0.77-.64,1.16-1h0l0,9.7-0.53,1.65-0.23.72h4.43l-0.23-.72L367.12,326l0.09-9.6,1.07,0.89,0.77,0.64,0.13-1,0-.23,0.08,0.15,0,8.76-0.44,1.36-0.23.72h6.47l0.05-.5,0.33-3.31,1,4.07,0.12,0.44h0.83l0.12-.44,1.13-4.24,0.35,3.48,0.05,0.5h3.46l0.55,0c1.2,0,3,.12,4.15-1.07a3.67,3.67,0,0,0,.79-1.35v0.23L387.68,327l-0.22.71h14.86l-0.38-.79-2.47-5.16a3.69,3.69,0,0,0,1.13-2.09,6.42,6.42,0,0,0,.08-1l1.91,9.29,0.1,0.47h0.82l0.14-.4,1.1-3.12,1.1,3.13,0.14,0.4h0.83l0.09-.47,1.14-5.7a6.82,6.82,0,0,0,1.34,4.41,3,3,0,0,0,4.57,0,5.33,5.33,0,0,0,1.1-2.33c0,0.63,0,1.11,0,1.3l-0.44,1.36-0.23.72h6.07v-4.2l-0.86.58-1.52,1H418v-8.25l0.32-.6,0.51,0.62,2.86,11.08,0.11,0.44h0.84l0.12-.44,2.75-10.28,0,7.86L425.09,327l-0.22.71h6.88v-0.58a4.07,4.07,0,0,0,3.79,1.15,3.47,3.47,0,0,0,2.63-2.75,4.63,4.63,0,0,0-.61-3.76,10.48,10.48,0,0,0-1.93-2.22" transform="translate(-358.93 -269.54)"/><path class="cls-3" d="M385.19,324.91a0.77,0.77,0,0,1-.33.14v-2.43a1,1,0,0,1,.31.15,1.29,1.29,0,0,1,.49,1,1.39,1.39,0,0,1-.48,1.11m0.32-2.57a2.09,2.09,0,0,0-1.2-.34v3.64a1.87,1.87,0,0,0,1.24-.3,1.94,1.94,0,0,0,.66-1.51,1.84,1.84,0,0,0-.71-1.48" transform="translate(-358.93 -269.54)"/><path class="cls-3" d="M384.9,318a0.76,0.76,0,0,1,.54.91,1,1,0,0,1-.23.78,0.79,0.79,0,0,1-.31.17V318Zm1.09,0.89a1.31,1.31,0,0,0-1.45-1.48h-0.2v3.08a1.43,1.43,0,0,0,1.64-1.58" transform="translate(-358.93 -269.54)"/><path class="cls-5" d="M412.37,324.94a0.88,0.88,0,0,1-.66.34c-0.83,0-1.38-1.8-1.38-3.74a5.76,5.76,0,0,1,.84-3.42,0.74,0.74,0,0,1,.54-0.29,0.75,0.75,0,0,1,.55.29,5.78,5.78,0,0,1,.84,3.42,6.48,6.48,0,0,1-.73,3.4m-0.7-9.15a2,2,0,0,0-1.5.79A8.61,8.61,0,0,0,408.6,322a6.42,6.42,0,0,0,1.21,4.26,2.42,2.42,0,0,0,3.74,0,6.45,6.45,0,0,0,1.21-4.26c0-3.42-1.38-6.2-3.08-6.2" transform="translate(-358.93 -269.54)"/><polygon class="cls-5" points="50.3 46.31 47.84 46.31 47.17 52.59 45.83 48.27 44.69 52.75 43.78 46.31 41.27 46.31 41.89 47.01 44.2 58.25 45.83 53.65 47.45 58.25 49.69 47.01 50.3 46.31"/><polygon class="cls-5" points="21.14 47.12 21.65 46.27 19.31 46.27 18.23 52.39 17.17 46.27 14.63 46.27 15.3 47.12 13.81 56.8 13.22 57.51 12.77 56.11 12.77 47.14 13.24 46.27 10.45 46.27 10.91 47.14 10.96 56.13 10.49 57.57 13.17 57.57 13.17 57.58 15.71 57.58 16.35 51.19 18.17 58.25 20.08 51.09 20.73 57.58 23.27 57.58 22.62 56.8 21.14 47.12"/><path class="cls-5" d="M385.55,325.33a1.87,1.87,0,0,1-1.24.3V322a2.1,2.1,0,0,1,1.2.34,1.84,1.84,0,0,1,.7,1.49,1.94,1.94,0,0,1-.66,1.5m-1.2-7.88v-0.06h0.2a1.31,1.31,0,0,1,1.45,1.48,1.43,1.43,0,0,1-1.64,1.58v-3Zm1.92,3.84-0.1,0,0.09-.05a3.1,3.1,0,0,0,1.33-2.83,3,3,0,0,0-3.07-2.6c-0.82,0-2.29,0-2.82,0l0.66,1.33,0.26,10c1.07,0,3.15.32,4.3-.88a3.65,3.65,0,0,0,.83-3.06,3,3,0,0,0-1.48-1.89" transform="translate(-358.93 -269.54)"/><polygon class="cls-5" points="68.97 56.11 69.01 52 70.8 52.63 71.62 50.88 69.07 50.88 69.01 50.88 69.01 50.83 68.97 47.75 68.97 47.67 69.04 47.69 70.9 47.7 71.8 48.49 72.11 46.27 66.77 46.27 66.77 46.27 64.42 46.27 63.34 52.71 62.28 46.27 59.74 46.27 60.39 47.05 63.28 58.25 66.27 47.05 66.62 46.5 67.11 47.66 67.15 56.05 66.69 57.57 72.27 57.57 72.27 54.97 70.62 56.09 68.97 56.11"/><polygon class="cls-5" points="31.56 56.11 31.61 52 33.4 52.63 34.21 50.88 31.67 50.88 31.61 50.88 31.6 50.83 31.56 47.75 31.56 47.67 31.64 47.69 33.49 47.7 34.4 48.49 34.71 46.27 29.12 46.27 29.7 47.66 29.75 56.05 29.28 57.57 34.87 57.57 34.87 54.97 33.22 56.09 31.56 56.11"/><polygon class="cls-5" points="58.5 47.16 58.97 46.27 55.96 46.27 56.64 47.13 56.65 47.89 56.65 47.91 56.69 56.13 56.22 57.57 60.98 57.57 60.98 54.97 59.33 56.09 58.5 56.11 58.5 47.16"/><path class="cls-5" d="M397,320.55H396.9v-0.06l0.08-3v0h0a1.29,1.29,0,0,1,1.14.23,1.34,1.34,0,0,1,.43,1,1.75,1.75,0,0,1-1.64,1.91m2.33-4.17a2.93,2.93,0,0,0-1.88-.55h-3.09l0.69,1.45,0.06,8.81-0.46,1h2.75l-0.45-.94-0.08-3.78,0.29-.05,1.9,3.84-0.36.94h2.8l-2.66-5.54a3.21,3.21,0,0,0,1.26-2c0.28-1.83-.31-2.75-0.77-3.17" transform="translate(-358.93 -269.54)"/><path class="cls-5" d="M433.88,318.32a2.61,2.61,0,0,1-.13-1.72,1,1,0,0,1,1.07-.74,1.24,1.24,0,0,1,.9.46l0.48,1.56,1.22-2.47a3.6,3.6,0,0,0-3.37-1.11,2.94,2.94,0,0,0-2.13,2.49,3.84,3.84,0,0,0,.47,2.38c0.8,1.43,2.82,3.08,3.29,4a2.37,2.37,0,0,1,.19,2.23,1.52,1.52,0,0,1-1.23.71,1.48,1.48,0,0,1-.9-0.46l-0.48-1.56L432,326.6a3.6,3.6,0,0,0,3.37,1.11,2.88,2.88,0,0,0,2.22-2.35,4.09,4.09,0,0,0-.55-3.35c-1-1.69-2.62-2.52-3.21-3.7" transform="translate(-358.93 -269.54)"/><polygon class="cls-5" points="3.71 47.28 5.03 46.2 5.81 46.18 5.85 56.52 5.3 58.25 8.21 58.25 7.64 56.51 7.74 46.18 8.39 46.2 9.7 47.28 10.04 44.73 3.37 44.73 3.71 47.28"/><path class="cls-7" d="M378,301.23l0,0,0.9,1.66a2.54,2.54,0,0,1-.67.25,3.8,3.8,0,0,1-.4.08l3,5.08h1.08l-0.53-2.46h1.25L381,301.24l0.94-.12-1.82-5.67-2.66,4.89,0.48,0.89h0Z" transform="translate(-358.93 -269.54)"/><polygon class="cls-7" points="11.49 42.45 12.73 38.82 16.87 38.82 14.89 32.72 16.13 32.56 13.74 25.11 9.75 32.44 10.95 32.71 7.39 38.81 8.77 38.81 6.73 42.45 11.49 42.45"/><path class="cls-7" d="M385.44,306.64h0l0.9,1.7h1.52L387.14,305h1l-1.34-3.81,0.77-.1-1.5-4.65L384,300.28l0.79,1.46a1.88,1.88,0,0,1-.51.19L384,302l2.58,4.33a4.13,4.13,0,0,1-1.09.31h0" transform="translate(-358.93 -269.54)"/><polygon class="cls-7" points="58.97 31.55 58.09 33.03 56.3 36.05 57.42 36.22 56.68 37.63 56.06 38.8 60.49 38.8 60.73 36.35 61.92 36.27 61.19 31.57 62.16 31.45 61.02 25.9 58.01 31.43 58.97 31.55"/><polygon class="cls-7" points="55.01 26.88 52.54 31.42 53.33 31.52 52.61 32.73 51.13 35.21 52.06 35.36 51.45 36.51 50.23 38.8 54.11 38.8 54.47 35.25 55.44 35.18 54.96 31.45 55.75 31.34 55.01 26.88"/><path class="cls-7" d="M429.07,313.45l1.65,0a3.62,3.62,0,0,1,1.45-1.35l-1.82-3.85,1.22-.24c-0.59-1.09-2-4.37-2.67-5.72l1.17-.16-2.69-7.45-3.95,7.26,1.25,0.16-3.42,6.26,5.85,0Z" transform="translate(-358.93 -269.54)"/></svg>