<svg id="Layer_1" data-name="Layer 1" xmlns="http://www.w3.org/2000/svg" viewBox="0 0 93.16 93.16"><defs><style>.cls-1{fill:#fff;}.cls-1,.cls-2,.cls-3,.cls-4,.cls-5{fill-rule:evenodd;}.cls-2{fill:#005fa6;}.cls-3{fill:#cbccd1;}.cls-4{fill:#231f20;}.cls-5{fill:#e76e32;}</style></defs><title>new-york-knicks</title><polygon class="cls-1" points="0 0 93.16 0 93.16 93.16 0 93.16 0 0 0 0"/><path class="cls-2" d="M441.71,277.81l-86.92.12,45.08,58.28,45.33-58.41h-3.49Zm-3.49,3.42-38.35,49.4-38.14-49.3,76.48-.1h0Z" transform="translate(-353.42 -253.42)"/><polygon class="cls-3" points="4.85 26.2 88.29 26.09 46.46 80 4.85 26.2 4.85 26.2"/><path class="cls-2" d="M369.6,307.18h-1.2l-9-9,11.85-25L376.7,271l1.05,0.77,0.77-1.83,1.05-.14,2.88,1.83,0.63,1.34,3.8-1.05,1,2.46,0.21,0.14,0.28-2.74,4.29-.7,0.91,1.62,0.35-1.55,4.29-.35,0.7,2.88,0.42-.63,2-2.25,4.43,0.28,0.7,0.28,0.35-.21,4.5,0.56,0.35,2.11,0.77-1.83,4.29,0.7,1.05-1.48,1.41-1.05h1l8.09,2.81,3.52,7.31-1,2,3,1.9,6,14.13-9,9.31s-4.89-4-15.08-6.64c0,0-17.46-4.09-30.8-.56a69,69,0,0,0-11.25,3.87l-1.48-.42-0.42,1.62-2.25,1.69h0Z" transform="translate(-353.42 -253.42)"/><polygon class="cls-4" points="22.93 29.99 25.74 27.32 26.68 28.37 25.88 31.68 25.04 33.9 22.93 29.99 22.93 29.99"/><polygon class="cls-4" points="16.04 36.11 18.64 34 17.3 38.15 16.04 36.11 16.04 36.11"/><polygon class="cls-4" points="9.43 47.15 12.38 45.11 17.8 51.72 15.55 53.47 9.43 47.15 9.43 47.15"/><path class="cls-4" d="M397.05,290.44q-2.27.13-4.77,0.43l1.2,7.82c1.29-.11,2.54-0.18,3.72-0.22l-0.15-8h0Z" transform="translate(-353.42 -253.42)"/><path class="cls-4" d="M408.49,290.79c-1.92-.23-4-0.4-6.19-0.45l-0.75,8.1c1.87,0.06,3.88.2,5.9,0.42l1-8.08h0Z" transform="translate(-353.42 -253.42)"/><path class="cls-4" d="M382.51,292.61c-2,.45-3.71.92-5.22,1.37l3.39,7.06,0.3-.1a40.52,40.52,0,0,1,4.26-1.11l-2.74-7.23h0Z" transform="translate(-353.42 -253.42)"/><path class="cls-4" d="M414.59,291.79h-0.06c-1.51-.3-3.09-0.58-4.77-0.82l-1.4,8c1.29,0.16,2.58.35,3.84,0.58l2.39-7.76h0Z" transform="translate(-353.42 -253.42)"/><path class="cls-4" d="M390,291.18c-0.9.14-1.82,0.29-2.77,0.46l-2.19.42,2.55,7.35c1.4-.23,2.81-0.41,4.21-0.56L390,291.18h0Z" transform="translate(-353.42 -253.42)"/><path class="cls-4" d="M424.89,294.86l-4.21,7A41.47,41.47,0,0,1,430.84,307l6-6.4a59.51,59.51,0,0,0-12-5.78h0Z" transform="translate(-353.42 -253.42)"/><path class="cls-4" d="M422.34,294c-1.81-.61-3.58-1.15-5.23-1.58L414.3,300c1,0.21,1.92.45,2.82,0.7,0.61,0.17,1.2.35,1.77,0.54l3.46-7.26h0Z" transform="translate(-353.42 -253.42)"/><path class="cls-4" d="M401.26,290.5l-1.63-1.75L399,298.42h1.75l0.54-7.93h0Z" transform="translate(-353.42 -253.42)"/><path class="cls-4" d="M375.2,294.65a36.43,36.43,0,0,0-5.88,2.41l4.78,6.54a29.53,29.53,0,0,1,5.1-2l-4-6.9h0Z" transform="translate(-353.42 -253.42)"/><polygon class="cls-4" points="50.84 22.18 53.73 22.18 52.67 32.03 51.12 32.03 50.84 22.18 50.84 22.18"/><polygon class="cls-4" points="60.76 31.68 61.18 31.4 61.95 32.1 61.39 34.98 60.76 31.68 60.76 31.68"/><polygon class="cls-4" points="67.51 28.16 75.94 34 75.1 35.83 74.75 34.28 68.84 32.03 67.65 33.22 67.16 30.34 66.73 29.92 67.51 28.16 67.51 28.16"/><polygon class="cls-4" points="72.99 25.07 77.98 26.54 77.07 28.51 72.78 25.91 72.99 25.07 72.99 25.07"/><path class="cls-2" d="M384.87,271.48l-1.14.23,1.84-6s0.35-.13,1-0.33V266l0.44,0.23,0.43-1.13,1-.23-1.44,6.2-1.11.2,0.74-2.9-0.67-.64-1.1,3.73h0Z" transform="translate(-353.42 -253.42)"/><path class="cls-2" d="M392,264.27c-0.82.11-1.57,0.23-2.24,0.35l-1.31,6.22c0.78-.12,1.62-0.25,2.51-0.37l0.27-1.45-1.34.1,0.27-1.31,1.14-.1,0.23-1.11-1.14.1,0.24-1.14,1.14-.2,0.23-1.09h0Z" transform="translate(-353.42 -253.42)"/><path class="cls-2" d="M413.52,265.3c0.55,0.16.81,0.27,0.81,0.27l0.57,2.48-0.2.5,0.4,0.27,0.77,2.51-1-.18a9.88,9.88,0,0,0-.37-1.43,0.77,0.77,0,0,0-.94-0.6l0.3,1.87-1-.16-1.31-6,0.88,0.2,0.7,2.62s1.11,0.64.87-.47-0.41-1.85-.41-1.85h0Z" transform="translate(-353.42 -253.42)"/><path class="cls-2" d="M401.7,269.78l-1,0v-1.94l-0.64-.17a1.44,1.44,0,0,1-.4-0.5l0-3.35h1l0.1,2.71a0.49,0.49,0,0,0,.94.1l0-2.8,1,0,0.1,3.31a0.72,0.72,0,0,1-.27.54,1.39,1.39,0,0,1-.77.17v1.93h0Z" transform="translate(-353.42 -253.42)"/><path class="cls-2" d="M396.4,269.9l-1,.08a1.67,1.67,0,0,1-.64-0.49,2.11,2.11,0,0,1-.77.62c-0.51.05-.92,0-1.41,0.08a0.74,0.74,0,0,1-.4-0.84c0.17-1.07.71-5.19,0.71-5.19l1-.1-0.51,4.22a0.33,0.33,0,0,0,.34.34,0.9,0.9,0,0,0,.6-0.37l0.44-4.26,0.8-.06,0.07,0-0.34,4.12a0.41,0.41,0,0,0,.41.3,0.54,0.54,0,0,0,.6-0.44c0.1-.5.33-4.08,0.33-4.08l1,0-0.27,5a1.55,1.55,0,0,1-1,1.11h0Z" transform="translate(-353.42 -253.42)"/><path class="cls-2" d="M406.35,265a1.12,1.12,0,0,0-.81-1l-1.54-.1a0.73,0.73,0,0,0-.6.9c0,0.87.2,3.86,0.2,3.86a1.21,1.21,0,0,0,1,1.27c0.36,0,.71.07,1.07,0.08a1,1,0,0,0,.91-0.71s-0.13-3.42-.27-4.29h0Zm-1.68,3.69L404.51,265l0.8,0.07,0.17,3.72-0.8-.07h0Z" transform="translate(-353.42 -253.42)"/><path class="cls-2" d="M410.91,268.35l-0.5-.57a0.86,0.86,0,0,0,.3-0.87s-0.13-1-.27-1.58a1.5,1.5,0,0,0-.78-0.87c-0.57-.09-1.2-0.18-1.88-0.26l0.51,6,1,0.12-0.2-2.09a0.64,0.64,0,0,1,.84.47c0.13,0.67.26,1.73,0.26,1.73l1,0.14-0.37-2.27h0ZM409,267.11l-0.17-1.58a0.42,0.42,0,0,1,.6.34,5.6,5.6,0,0,1,.1.94c0,0.44-.54.3-0.54,0.3h0Z" transform="translate(-353.42 -253.42)"/><polygon class="cls-5" points="18.17 20.06 22.66 18.27 18.85 27.38 22.73 24.54 25.42 17.14 25.95 16.99 28.34 18.34 26.02 26.19 22.13 30 23.7 33.06 21.76 40.54 16.3 42.78 19.44 33.66 18.92 32.99 15.48 35.76 12.04 44.58 8.9 46.82 6.96 44.65 18.17 20.06 18.17 20.06"/><polygon class="cls-5" points="29.61 20.13 33.2 19.09 34.54 24.17 35.59 18.86 38.88 18.34 36.63 37.02 32.23 37.85 33.2 32.62 31.63 26.34 28.86 38.52 24.08 39.94 29.61 20.13 29.61 20.13"/><polygon class="cls-5" points="40.9 18.19 44.41 17.97 43.59 36.2 39.1 36.58 40.9 18.19 40.9 18.19"/><polygon class="cls-5" points="46.35 20.13 48.07 17.89 53.08 18.19 53.3 21.48 50.01 21.48 50.54 32.84 54.82 32.89 54.95 36.65 48.29 36.43 46.35 34.41 46.35 20.13 46.35 20.13"/><polygon class="cls-5" points="54.35 18.49 57.49 18.79 59.06 26.86 61.15 24.39 59.8 19.24 63.39 19.91 64.96 25.22 63.17 27.46 65.94 29.63 69.15 39.99 64.21 38.45 62.65 31.87 60.93 30.37 59.8 31.79 61 37.68 56.59 36.88 54.35 18.49 54.35 18.49"/><path class="cls-5" d="M418.24,271.61l1.2-1,0.75-.07,7.92,2.77,2.62,5.75-4.48-1.27-1-2.77-2.24-1-0.52.45,1,3.74,9.87,6.43,5.83,13.6-1.94,1.94s-3.81-2.32-6.05-3.36-6.05-2.54-6.05-2.54l-2.47-7.92,4.86,1.79,0.82,2.84,3.74,2-1.87-5.76L421,280.81l-2.77-9.19h0Z" transform="translate(-353.42 -253.42)"/><path class="cls-2" d="M381.75,310.29A18.29,18.29,0,1,0,400,292a18.31,18.31,0,0,0-18.29,18.29h0Zm1.37,0A16.92,16.92,0,1,1,400,327.21a16.94,16.94,0,0,1-16.92-16.92h0Z" transform="translate(-353.42 -253.42)"/><path class="cls-5" d="M417.64,310.29a17.6,17.6,0,1,1-17.6-17.6,17.6,17.6,0,0,1,17.6,17.6h0Z" transform="translate(-353.42 -253.42)"/><path class="cls-2" d="M403.38,297.14c8.84,1.36,11.72,5.21,13.26,7.35v-1c-1.61-2.23-4-5.61-13.16-7a36.27,36.27,0,0,1-5.69-1.26,17.05,17.05,0,0,1,6.07-2.17l-0.53-.61A16.08,16.08,0,0,0,397,294.9c-2-.8-2.32-1.64-2.33-1.65l0,0.2-0.67.13c0,0.13.26,0.89,2.26,1.76a32.42,32.42,0,0,0-3,2.19,22.38,22.38,0,0,0-5.18-.69l-0.24.68a23.82,23.82,0,0,1,4.76.58,14.82,14.82,0,0,0-2.34,2.8,6.26,6.26,0,0,0-1.28-.17c-2.59-.08-6,3.54-6.16,3.7l0.18,0.7s3.68-3.79,6-3.72a5.92,5.92,0,0,1,.91.1,28.33,28.33,0,0,0-3.33,9.45h0c-0.67,9.22,2.69,13.59,2.84,13.77l0.95,0.29s-3.19-4.33-3.19-11.71c0-.72,0-1.48.08-2.28a28.28,28.28,0,0,1,3.35-9.35c1.69,0.6,3.55,2.4,4.72,7.6,1.57,7,4.72,16,8.44,18.45l0.81-.21c-3.32-2.17-6.92-11-8.59-18.38-1-4.5-2.63-7.1-5-8a13.48,13.48,0,0,1,2.46-2.82,19.18,19.18,0,0,1,5.91,2.61c5.32,3.63,8.48,6.76,11.26,11.18a26.79,26.79,0,0,1,3.56,9l0.58-.52a25.13,25.13,0,0,0-3.56-8.88c-2.84-4.51-6-7.7-11.46-11.39a19.66,19.66,0,0,0-5.63-2.59,30.06,30.06,0,0,1,3-2.09,33.86,33.86,0,0,0,6.35,1.49h0Z" transform="translate(-353.42 -253.42)"/></svg>