<svg id="Layer_1" data-name="Layer 1" xmlns="http://www.w3.org/2000/svg" viewBox="0 0 63.69 68.54"><defs><style>.cls-1{fill:#fff;}.cls-2{fill:#008fc5;}.cls-3{fill:#1d1160;}.cls-4{fill:#ffc425;}</style></defs><title>new-orleans-hornets</title><path class="cls-1" d="M426.74,303.94a7.39,7.39,0,0,1-7.38,7H419a7.7,7.7,0,0,1-1.66-.27l-0.09,0-0.06,0-0.13.1c-2.84,2.36-6.21,4.06-7.79,4.05a1.5,1.5,0,0,1-.49-0.07,2.29,2.29,0,0,1-1.1-2,0.4,0.4,0,0,1,0-.07,1.24,1.24,0,0,1,.27-0.63l0.07-.1,0-.06-0.1-.18a2.37,2.37,0,0,1-.23-0.75,1.79,1.79,0,0,0-.58-1.23,1.23,1.23,0,0,1-.36-0.93,1.3,1.3,0,0,1,0-.19,0.63,0.63,0,0,1,.41-0.57l0.37-.08,0.19,0-0.3-.41a2.65,2.65,0,0,0-.95-0.73c-0.29-.11-1.58-0.39-2.63-0.6h-0.1l-0.09,0a7.88,7.88,0,0,1-2.16.67h-0.1l0,0.47v0.1l0.1,0a5.35,5.35,0,0,1,3.06,2.57,11.27,11.27,0,0,1,.85,1.94l0.09,0.26a6.21,6.21,0,0,0,1.2,2.3,6.12,6.12,0,0,0,3.71,1.54,7.44,7.44,0,0,0,1,.07h0.18a11.94,11.94,0,0,1-3.12,1.45,23,23,0,0,1-6.82,1c-6.59,0-10.6-1.8-12-5.31a6.75,6.75,0,0,1-.46-2.51,7,7,0,0,1,.61-2.93,4.88,4.88,0,0,1,1.41-1.74l0.08-.06-0.21-.43,0-.09-1.23.28-0.77.14c-0.78.13-1.25,0.21-1.49,0.75l-0.21.42-0.07.15,0.47,0.08a0.7,0.7,0,0,1,.55.4,0.74,0.74,0,0,1,0,.25,2.14,2.14,0,0,1-.39,1.07,1.52,1.52,0,0,0-.18.85c0,0.14,0,.28,0,0.42s0,0.28,0,.41a1.51,1.51,0,0,1-.06.52l-0.05.13,0,0.09,0.19,0.15a0.89,0.89,0,0,1,.4.52,0.83,0.83,0,0,1,0,.23,3.31,3.31,0,0,1-.2,1,1.86,1.86,0,0,1-.62.92,2.68,2.68,0,0,1-1.44.32,10.11,10.11,0,0,1-2.94-.54c-3.37-1.06-7.6-3.66-8.49-5.87a2.14,2.14,0,0,1-.17-0.8,1.87,1.87,0,0,1,.22-0.87,2,2,0,0,1,.15-0.24l0-.06h0l0.07-.06,0,0,0-.12a3.12,3.12,0,0,1,1.34-2.21,4.6,4.6,0,0,1,2.69-.83,5,5,0,0,1,1.08.12,5.58,5.58,0,0,1,3.46,2l0.25,0.44,0.17,0.29,0.16-.83a0.72,0.72,0,0,1,.3-0.48,0.65,0.65,0,0,1,.36-0.11,0.59,0.59,0,0,1,.17,0,1.2,1.2,0,0,1,.75.66l0.2,0.41L386,305.8l0.25-.71c0.19-.5.39-0.45,0.47-0.46a10.13,10.13,0,0,0,4-.9l1.14-.65-0.07-.23a4.72,4.72,0,0,1-.13-1.1,4.83,4.83,0,0,1,0-.66l0-.17v-0.11l-0.28-.06-0.67-.15h0c-0.27-.06-1.33-0.18-2.19-0.27H388.4l-0.11.16a9.54,9.54,0,0,1-1.2,1.44,12.41,12.41,0,0,1-1.24,1h0a2.1,2.1,0,0,1-.64-1.36,1.48,1.48,0,0,1,.11-0.54l0.3-.66,0.09-.21-0.57.08a3.67,3.67,0,0,1-.52,0,2.68,2.68,0,0,1-1.61-.51l-0.19-.14-0.12-.09-0.16.35a3.21,3.21,0,0,1-1.55,1.71,1.36,1.36,0,0,1-.4.07,1.64,1.64,0,0,1-.9-0.31l0.21-.6,0-.11-0.44-.21-0.09,0-0.28.37a1.69,1.69,0,0,1-1.15.84l-0.23,0a2.7,2.7,0,0,1-1.52-.61,5.21,5.21,0,0,0,.75-0.83l0.13-.17,0.08-.11-0.29-.19a2.16,2.16,0,0,1-.55-0.52,10.69,10.69,0,0,0,2.26-1.83l0.15-.14,0.09-.08-0.23-.25-0.61-.53c-3.27-3.24-5-6.08-5-8a2.42,2.42,0,0,1,.28-1.16c0.56-1,2.09-1.6,4.5-1.6a29.59,29.59,0,0,1,6.35.84,34.78,34.78,0,0,1,9.39,3.6l0.22,0.12,0.14,0.08,0.1-.4a3.28,3.28,0,0,1,.95-1.69,3.5,3.5,0,0,1,2.35-.9h0.18a4.28,4.28,0,0,1,1.55.37l0.09,0,0.29-.37,0.06-.08-0.06-.08a7.56,7.56,0,0,0-2.24-1.67,9.26,9.26,0,0,0-1.68-.72,10.44,10.44,0,0,1,1.59.52,10,10,0,0,1,3,2l0.08,0.08,0,0,0.17,0a6.79,6.79,0,0,1,1.57-.2,4.56,4.56,0,0,1,1,.09l0.1,0H403l0.12-.12a9.86,9.86,0,0,1,2.85-1.91,10.21,10.21,0,0,1,1.43-.48,8.9,8.9,0,0,0-1.4.62,9.47,9.47,0,0,0-2.22,1.59l-0.5.52-0.34.34,1.16-.34a2.67,2.67,0,0,1,.77-0.11,2.35,2.35,0,0,1,1.06.23l0.35,0.23,0,0,0.14,0a1,1,0,0,1,.28,0,1.83,1.83,0,0,1,.65.15,2.14,2.14,0,0,1,.92,1.35l0.07,0.21,0,0.14,0.33-.17a47.42,47.42,0,0,1,5.5-2.48,18.4,18.4,0,0,1,5.85-1.32,4,4,0,0,1,2,.44,2.13,2.13,0,0,1,1,1.61,4.12,4.12,0,0,1,.05.66c0,2.06-1.38,4.5-2.79,6.19l-0.14.17-0.09.11,0.31,0.19a8.18,8.18,0,0,0,1.71.82l-0.39.43-0.11.13,0.4,0.18a7.32,7.32,0,0,1,2.69,1.85h0l0,0a7.38,7.38,0,0,1,1.92,5v0.35Zm-24.17,3.34a11.5,11.5,0,0,0,1.28-.47c1.38,0.28,2.29.49,2.44,0.55a1.68,1.68,0,0,1,.38.26,1.32,1.32,0,0,0-.49.89,2.11,2.11,0,0,0,0,.28,1.78,1.78,0,0,0,.65,1.46l0-.06,0,0.06a1.5,1.5,0,0,1,.31.83,3.59,3.59,0,0,0,.23.77,1.65,1.65,0,0,0-.29.75,1.25,1.25,0,0,0,0,.14,3.64,3.64,0,0,0,.45,1.63,4.42,4.42,0,0,1-.37-0.31,5.71,5.71,0,0,1-1-2l-0.09-.26a12.07,12.07,0,0,0-.88-2,6,6,0,0,0-2.53-2.47m-13.7.24a1.21,1.21,0,0,0-.7-0.67,1.75,1.75,0,0,1,1-.28l0.79-.15,0.11,0a5,5,0,0,0-.8,1.18,6.18,6.18,0,0,0-.32.83,1.91,1.91,0,0,0,0-.4,1.38,1.38,0,0,0-.08-0.48m-0.27,4a1.67,1.67,0,0,0-.24-0.26,2.48,2.48,0,0,0,.05-0.54c0-.14,0-0.29,0-0.43s0-.27,0-0.4a1.1,1.1,0,0,1,.07-0.5,3.42,3.42,0,0,0,.37-0.73,8.26,8.26,0,0,0-.26,2.08c0,0.26,0,.52,0,0.77m36.69-13.35-0.09.08,0.09-.08a7.89,7.89,0,0,0-2.55-1.87l0.35-.51,0.09-.13-0.74-.29a7.84,7.84,0,0,1-1.3-.59c1.39-1.76,2.71-4.16,2.71-6.32a4.56,4.56,0,0,0-.06-0.75,2.77,2.77,0,0,0-1.33-2.06,4.61,4.61,0,0,0-2.35-.54A18.88,18.88,0,0,0,414,286.5a46.56,46.56,0,0,0-5.27,2.35,2.38,2.38,0,0,0-1.16-1.39,2.28,2.28,0,0,0-.85-0.18l-0.3,0-0.24-.15a2.81,2.81,0,0,0-1.25-.28,11.64,11.64,0,0,1,1.33-.85,14.62,14.62,0,0,1,5.65-1.37l0.92-.1a2.31,2.31,0,0,0,1-.27l0.49-.31,0.32-.2-1-.06c-0.07,0-.57,0-1.33,0a18.32,18.32,0,0,0-6.66,1.09,10.46,10.46,0,0,0-2.92,1.94,5.44,5.44,0,0,0-.93-0.08,7,7,0,0,0-1.53.18,10.56,10.56,0,0,0-3-2,18.33,18.33,0,0,0-6.67-1.09c-0.76,0-1.26,0-1.33,0l-0.49,0-0.32,0,0.64,0.5a2.41,2.41,0,0,0,1.11.35l1.17,0.13a13.64,13.64,0,0,1,5.42,1.34c0.42,0.23.76,0.45,1,.64l-0.38,0h-0.21a4.14,4.14,0,0,0-2.78,1.07,3.75,3.75,0,0,0-1,1.62,35,35,0,0,0-9.22-3.48,30.37,30.37,0,0,0-6.49-.87c-2.6,0-4.32.62-5,1.93a3,3,0,0,0-.34,1.44c0,2.16,1.82,5.1,5.18,8.44l0.38,0.33a9.25,9.25,0,0,1-1.91,1.51l-0.48.27-0.12.07,0.4,0.57a2.6,2.6,0,0,0,.46.48,3.74,3.74,0,0,1-.46.49l-0.47.38-0.12.09,0.57,0.49a3.28,3.28,0,0,0,1.93.77l0.32,0a2,2,0,0,0,1-.5l0.22,0.15a2.23,2.23,0,0,0,1.25.42,1.9,1.9,0,0,0,.6-0.1,3.45,3.45,0,0,0,1.76-1.74,3.28,3.28,0,0,0,1.66.43h0.08a2.05,2.05,0,0,0-.11.66,2.72,2.72,0,0,0,.85,1.83l0.3,0.28,0.07,0.07,0.42-.3a12.93,12.93,0,0,0,1.32-1.1,11,11,0,0,0,1.17-1.38c1.06,0.11,1.78.2,1.92,0.24L391,301.3c0,0.15,0,.29,0,0.44a5.22,5.22,0,0,0,.11,1l-0.72.41a9.46,9.46,0,0,1-3.69.83,1,1,0,0,0-.81.42,1.73,1.73,0,0,0-.83-0.57,1.45,1.45,0,0,0-.34,0,1.25,1.25,0,0,0-.7.21,1.13,1.13,0,0,0-.35.36,6.75,6.75,0,0,0-3.52-1.83,5.7,5.7,0,0,0-1.22-.13,5.23,5.23,0,0,0-3.06,1,3.75,3.75,0,0,0-1.58,2.54,2.44,2.44,0,0,0-.54,1.55,2.72,2.72,0,0,0,.21,1c1,2.46,5.38,5.11,8.88,6.23a10.59,10.59,0,0,0,3.13.57,3.33,3.33,0,0,0,1.78-.42,2.43,2.43,0,0,0,.87-1.2,3.82,3.82,0,0,0,.21-0.84,5.78,5.78,0,0,0,.23.67c1.55,3.8,5.83,5.7,12.61,5.7a23.74,23.74,0,0,0,7-1,12.16,12.16,0,0,0,4.21-2.21l0.48-.42,0.32-.28-1,.15a10,10,0,0,1-1.2.07,6.85,6.85,0,0,1-.95-0.06l-0.42-.07c2-.4,4.95-2.12,7.28-4a8.23,8.23,0,0,0,1.64.25h0.39a8,8,0,0,0,8-7.65v-0.39a8,8,0,0,0-2.09-5.4" transform="translate(-368.16 -265.73)"/><polygon class="cls-1" points="38.64 44.52 38.64 44.52 38.64 44.53 38.64 44.52"/><path class="cls-1" d="M411.45,303.22h-0.12s0,0.5,0,.71a2.89,2.89,0,0,0-.29.44,2.18,2.18,0,0,0-1.32-.51,1.24,1.24,0,0,0-.51.1,1.61,1.61,0,0,0-.86,1.23,2.38,2.38,0,0,0-.67-0.41,11.47,11.47,0,0,0-1.17-.25,5.89,5.89,0,0,0,1-3.1l0.49-.11c0.51-.08,2.43-0.28,3.79-0.43a7.92,7.92,0,0,0-.48,2.33h0.13Zm-3.54-2.53,0,0.12,0-.12-0.93.21-0.11,0,0,0.27c0,0.06,0,.12,0,0.18a5.35,5.35,0,0,1-1.16,3.18l-0.19.25-0.13.17,0.52,0.09a14.35,14.35,0,0,1,1.55.31,3.06,3.06,0,0,1,.93.7l0.34,0.33,0.22,0.21,0-.79c0-.06,0-0.11,0-0.16a1.13,1.13,0,0,1,.55-1.15,0.59,0.59,0,0,1,.24,0,1.61,1.61,0,0,1,1.16.62l0.27,0.41,0.17,0.26,0.13-.79a1.76,1.76,0,0,1,.42-0.75l0-.06,0,0v-0.91a7.41,7.41,0,0,1,.6-2.59l0.13-.3,0.08-.2-0.53.06c-1.36.14-3.71,0.39-4.32,0.48" transform="translate(-368.16 -265.73)"/><path class="cls-2" d="M411.16,304.93a1.71,1.71,0,0,0-1.81-.68,1.56,1.56,0,0,0-.71,1.61,3.6,3.6,0,0,0-1-.78c-0.22-.07-0.86-0.2-1.6-0.33a5.6,5.6,0,0,0,1.22-3.58A7.58,7.58,0,0,1,408,301c0.59-.09,2.86-0.33,4.31-0.48a8,8,0,0,0-.62,3.51,2.05,2.05,0,0,0-.49.9m13.9-6.53a7.69,7.69,0,0,0-2.84-2,1.94,1.94,0,0,0,.25-0.28l0.22-.32-0.37-.14a7.61,7.61,0,0,1-1.66-.8c1.42-1.7,3.2-4.68,2.81-7.11-0.62-3.82-6.51-2-9.32-1a47.24,47.24,0,0,0-5.54,2.49,2.45,2.45,0,0,0-1.1-1.54,1.71,1.71,0,0,0-1.12-.12,1.57,1.57,0,0,0-.32-0.21,2.9,2.9,0,0,0-2.06-.15,9.13,9.13,0,0,1,2.14-1.54c2.18-1.21,4.92-1.29,6.68-1.5a2,2,0,0,0,.85-0.23s-4.67-.32-7.84,1a10.29,10.29,0,0,0-2.94,2,6,6,0,0,0-2.66.11,10.36,10.36,0,0,0-3-2.08c-3.18-1.35-7.85-1-7.85-1a2.29,2.29,0,0,0,1,.29c1.77,0.24,4.41.23,6.7,1.51a7.4,7.4,0,0,1,2.15,1.6,4.54,4.54,0,0,0-1.66-.39,3.79,3.79,0,0,0-2.77,1,3.6,3.6,0,0,0-1,1.85,35.12,35.12,0,0,0-9.48-3.63c-13.95-3.15-14.09,2.8-6.41,10.42a6.3,6.3,0,0,0,.62.54l0,0a10.35,10.35,0,0,1-2.2,1.78l-0.3.17,0.2,0.28a2.39,2.39,0,0,0,.64.61,5,5,0,0,1-.71.78l-0.29.23,0.28,0.25a2.82,2.82,0,0,0,2,.67,2,2,0,0,0,1.35-.95,2.86,2.86,0,0,0,.24-0.32c-0.11.34-.21,0.59-0.21,0.6l-0.09.23,0.2,0.14a1.75,1.75,0,0,0,1.58.28,3.48,3.48,0,0,0,1.73-1.88,3.11,3.11,0,0,0,2.36.53c0,0.11-.1.22-0.16,0.36a1.75,1.75,0,0,0-.13.65,2.39,2.39,0,0,0,.75,1.6l0.19,0.17,0.21-.15a13.24,13.24,0,0,0,1.28-1.07,9.81,9.81,0,0,0,1.24-1.49c1,0.11,1.94.21,2.15,0.26l0.67,0.15a5.2,5.2,0,0,0,.09,1.88c-0.22.14-.51,0.32-0.91,0.52a9.75,9.75,0,0,1-3.84.87,0.84,0.84,0,0,0-.77.67,1.53,1.53,0,0,0-1-.83,1,1,0,0,0-1.22.81,5.76,5.76,0,0,0-3.67-2.11c-2.67-.59-5.27.93-5.5,3.19a2.2,2.2,0,0,0-.33,2.33c1.43,3.5,10.67,7.93,13.32,6.24a2.17,2.17,0,0,0,.74-1.06,3,3,0,0,0,.18-1.49,1.21,1.21,0,0,0-.51-0.67h0c0.23-.55-0.09-1.74.19-2.15,0.41-.6.91-1.88-0.4-2.21h-0.07l0.1-.2c0.21-.49.68-0.44,2-0.71l1.14-.26a5.26,5.26,0,0,0-1.5,1.85,7.62,7.62,0,0,0-.16,5.7c1.91,4.68,7.88,5.5,12.32,5.5a23.36,23.36,0,0,0,6.91-1,11.92,11.92,0,0,0,4.09-2.15,9.23,9.23,0,0,1-2.24,0,5.82,5.82,0,0,1-3.54-1.46,6.83,6.83,0,0,1-1.22-2.43,11.68,11.68,0,0,0-.86-2,5.65,5.65,0,0,0-3.25-2.72,8.37,8.37,0,0,0,2.24-.69c1.2,0.25,2.36.5,2.58,0.59a2.34,2.34,0,0,1,.82.63l-0.1,0c-0.94.29-.73,1.88-0.15,2.26s0.38,1.38.72,1.88a1.57,1.57,0,0,0-.33.77c0,0.38.18,2,1.31,2.42,1.53,0.55,5.55-1.51,8.59-4a7.84,7.84,0,0,0,1.73.28,7.71,7.71,0,0,0,8.07-7.34c0-.12,0-0.25,0-0.37a7.65,7.65,0,0,0-2-5.18" transform="translate(-368.16 -265.73)"/><path class="cls-2" d="M372.1,272.45l-0.42,1.14,0.11,0a0.31,0.31,0,0,1,.25.22l0,0.2v4.78c-0.53-1.54-1-3-1.4-4.5l0-.16a2.3,2.3,0,0,1-.09-0.75v-0.15q-0.92.49-1.83,1l-0.38,1.06,0.09,0a0.55,0.55,0,0,1,.32.21s0,0.13,0,.13v10.91a1.06,1.06,0,0,1-.23.58l-0.08.11,0.27,0.8q0.81-.47,1.64-0.92l0.27-1.11h-0.09a0.33,0.33,0,0,1-.28-0.18l0-.16s0-5.26,0-6.7a47.09,47.09,0,0,1,1.81,6.31,4.16,4.16,0,0,1,.06.81v0.15l1.37-.66V273.39a1.6,1.6,0,0,1,.28-0.79l0.08-.11-0.38-.69-1.34.65" transform="translate(-368.16 -265.73)"/><path class="cls-3" d="M373.53,271.6l-0.19.09-1.15.56-0.18.09-0.08.21-0.33.89-0.11.29,0.21,0a0.23,0.23,0,0,1,.19.16,1.4,1.4,0,0,1,0,.17v3.77c-0.41-1.25-.79-2.48-1.11-3.68l0-.17h0a2.22,2.22,0,0,1-.08-0.71V273l-0.29.15-1.6.89-0.18.1-0.08.22-0.29.82-0.1.28,0.17,0a0.49,0.49,0,0,1,.28.17,0.22,0.22,0,0,1,0,.08v10.89a0.77,0.77,0,0,1-.17.44l-0.16.22,0.06,0.17,0.21,0.62,0.06,0.18,0.21-.12,1.43-.8,0.21-.11,0.06-.25c0.07-.29.14-0.57,0.21-0.85l0.07-.26-0.19,0a0.26,0.26,0,0,1-.22-0.14,0.42,0.42,0,0,1,0-.12v-5.71a46.44,46.44,0,0,1,1.52,5.5,4.22,4.22,0,0,1,.06.78v0.31l0.29-.15,1.08-.52,0.29-.14V273.33a1.34,1.34,0,0,1,.24-0.68l0.15-.22-0.09-.15-0.3-.54-0.08-.14m-1.66,1.84,0.32-.89,1.15-.56,0.3,0.54a1.83,1.83,0,0,0-.33.92v12.08l-1.08.52a4.51,4.51,0,0,0-.07-0.83,46.38,46.38,0,0,0-2.1-7.07v7.65a0.64,0.64,0,0,0,.06.2,0.4,0.4,0,0,0,.34.22l-0.21.86-1.43.8-0.21-.62a1.34,1.34,0,0,0,.29-0.74V275.62a0.43,0.43,0,0,0,0-.19,0.6,0.6,0,0,0-.36-0.24l0.29-.82,1.6-.89a2.4,2.4,0,0,0,.1.79c0,0.07.5,1.91,1.44,4.66l0.2,0.59,0.09,0.25v-5.84a1.5,1.5,0,0,0,0-.23,0.39,0.39,0,0,0-.31-0.28m1.74-.1h0Z" transform="translate(-368.16 -265.73)"/><path class="cls-2" d="M374.82,271.16l-0.46,1.18,0.08,0a0.54,0.54,0,0,1,.29.4l0,0.39v8.92a1.58,1.58,0,0,1-.3.88l-0.08.12,0.43,0.71q2-.88,4-1.61v-5l-1.12.42v1.2a5.37,5.37,0,0,1-.34,2.06,1.27,1.27,0,0,1-.65.61v-4.7h0a0.83,0.83,0,0,1,.42.4l0.07,0.13,0.6-.62v-2.2l-0.61,0-0.06.15a2,2,0,0,1-.4.73l0,0v-3.59a0.65,0.65,0,0,1,.79.06,4,4,0,0,1,.32,1.73s0,0.1,0,.15l1-.37v-3.82q-2,.73-4,1.61" transform="translate(-368.16 -265.73)"/><path class="cls-3" d="M379,269.35l-0.3.11q-1.91.69-3.78,1.51l-0.19.08-0.08.21-0.37,1-0.09.24,0.15,0.09a0.45,0.45,0,0,1,.25.34,1.7,1.7,0,0,1,0,.36v8.91a1.39,1.39,0,0,1-.25.76l-0.17.23,0.1,0.16,0.34,0.56,0.08,0.13,0.18-.08q1.87-.82,3.78-1.51l0.3-.11V277l-0.3.11-0.82.3-0.3.11v1.35a5.23,5.23,0,0,1-.32,2,0.87,0.87,0,0,1-.37.41v-4.19a0.92,0.92,0,0,1,.16.21l0.15,0.26,0.29-.3,0.38-.4,0.14-.14v-2.39h-0.83l-0.12.31a3.41,3.41,0,0,1-.16.36v-3.09a0.44,0.44,0,0,1,.5.08,3.94,3.94,0,0,1,.3,1.67c0,0.1,0,.19,0,0.29l0.29-.11,0.7-.26,0.3-.11v-4.13Zm-4.45,2.88,0.37-.95q1.87-.82,3.78-1.51v3.52l-0.7.26a4.09,4.09,0,0,0-.34-1.79c-0.16-.25-0.51-0.27-1.07,0v3.9l0.2-.08a0.27,0.27,0,0,0,.09-0.07h0a2.74,2.74,0,0,0,.43-0.79h0.38v2l-0.38.4a0.7,0.7,0,0,0-.56-0.43l-0.17.07v5l0.3-.14a1.43,1.43,0,0,0,.64-0.69,5.53,5.53,0,0,0,.35-2.14v-1l0.82-.3v4.65q-1.91.69-3.78,1.51l-0.34-.56a1.82,1.82,0,0,0,.35-1V273.1a1.9,1.9,0,0,0,0-.43,0.62,0.62,0,0,0-.33-0.46m2.85-.23h0" transform="translate(-368.16 -265.73)"/><path class="cls-2" d="M386.52,267.34l-0.37,1,0.1,0a0.38,0.38,0,0,1,.22.39L385.88,273l-0.67-4h0a0.71,0.71,0,0,1,.27-0.48l0.1-.09-0.35-.85q-1,.25-2,0.53l-0.29,1,0.07,0a0.59,0.59,0,0,1,.24.54l-0.57,4.11C382.57,273.38,382,270,382,270v0a0.89,0.89,0,0,1,.25-0.58l0.08-.09L382,268.5q-1.13.34-2.25,0.72l-0.4,1.08,0.12,0a0.51,0.51,0,0,1,.3.33l0.11,0.31c0.92,5,1.44,8,1.55,8.77a0.92,0.92,0,0,1-.29.73l-0.11.11,0.44,0.74,1.8-.53,0.41-1-0.1,0a0.44,0.44,0,0,1-.27-0.44,1.15,1.15,0,0,1,0-.14c0.15-.78.29-1.81,0.42-3.07l0.19-1.82,0.72,4.54v0.07a1.19,1.19,0,0,1-.28.67l-0.07.09,0.36,0.77,1.84-.44,0.43-1-0.1-.05a0.58,0.58,0,0,1-.33-0.58c0.25-1.87.52-3.64,0.79-5.35q0.32-2.17.65-4.34a1.42,1.42,0,0,1,.39-0.73l0.08-.08-0.31-.86-1.63.34" transform="translate(-368.16 -265.73)"/><path class="cls-3" d="M388.26,266.83l-0.23,0-1.41.29-0.21,0-0.08.21-0.29.79-0.09.25,0.21,0.09a0.26,0.26,0,0,1,.16.26q-0.22,1.6-.45,3.2l-0.51-3a0.48,0.48,0,0,1,.2-0.34l0.19-.18-0.08-.2-0.27-.66-0.08-.18-0.22.05-1.8.47-0.23.06-0.07.23c-0.07.26-.15,0.52-0.22,0.79l-0.05.19,0.13,0.09a0.46,0.46,0,0,1,.19.42l-0.42,3L382.19,270a0.69,0.69,0,0,1,.2-0.49l0.16-.18-0.07-.17-0.25-.65-0.07-.18-0.22.07q-1,.31-2,0.65l-0.2.07-0.08.21-0.31.83-0.11.29,0.24,0.05a0.39,0.39,0,0,1,.23.27h0a1.3,1.3,0,0,1,.1.28c0.91,5,1.44,7.95,1.55,8.74a0.7,0.7,0,0,1-.22.58l-0.22.22,0.12,0.2,0.34,0.57,0.08,0.14,0.19-.06,1.61-.47,0.2-.05,0.08-.2,0.31-.76,0.1-.25-0.2-.09a0.36,0.36,0,0,1-.2-0.44c0.15-.79.29-1.83,0.42-3.08l0.06-.59c0.27,1.73.51,3.23,0.54,3.39a0.94,0.94,0,0,1-.24.6l-0.13.18,0.07,0.16,0.28,0.6,0.08,0.17,0.21-.05,1.64-.39,0.2,0,0.09-.19,0.33-.75,0.11-.24-0.2-.11a0.46,0.46,0,0,1-.28-0.45c0.25-1.88.52-3.64,0.79-5.35,0.24-1.53.47-3,.65-4.34a1.23,1.23,0,0,1,.34-0.64l0.15-.16-0.06-.18-0.24-.68-0.07-.2m-1.92,1.42,0.29-.79,1.41-.29,0.24,0.68a1.62,1.62,0,0,0-.44.84c-0.37,2.85-1,6.11-1.44,9.71,0,0,0,0,0,.06a0.69,0.69,0,0,0,.39.64l-0.33.75-1.64.39-0.29-.61a1.36,1.36,0,0,0,.32-0.78,0.59,0.59,0,0,0,0-.08l-0.9-5.67q-0.15,1.52-.32,3-0.2,1.89-.42,3.06a0.94,0.94,0,0,0,0,.15,0.55,0.55,0,0,0,.33.55l-0.31.77-1.61.47-0.34-.57a1.13,1.13,0,0,0,.36-0.82s0-.05,0-0.08c-0.11-.79-0.63-3.73-1.55-8.78a1.53,1.53,0,0,0-.12-0.33,0.58,0.58,0,0,0-.37-0.38l0.31-.83q1-.34,2-0.65l0.25,0.65a1.09,1.09,0,0,0-.3.72s0,0,0,.06l0.61,3.79c0,0.22.08,0.46,0.12,0.7s0,0.19,0,.29c0-.11,0-0.21,0-0.31,0-.26.07-0.51,0.11-0.77q0.28-2.05.57-4.1v0a0.69,0.69,0,0,0-.29-0.6l0.22-.78q0.9-.25,1.8-0.47l0.27,0.66a0.9,0.9,0,0,0-.33.62,0.15,0.15,0,0,0,0,0l0.67,3.94,0.12,0.69,0.05,0.29c0-.1,0-0.21,0-0.31L386,273l0.59-4.22s0,0,0-.06a0.5,0.5,0,0,0-.29-0.46m0.39,0.1h0m-7,2.69h0" transform="translate(-368.16 -265.73)"/><path class="cls-2" d="M409.5,266.6l-0.5.92,0.13,0.09a0.93,0.93,0,0,1,.27.54l0,0.42v8.92a0.86,0.86,0,0,1-.32.7l-0.09.06,0.46,1c1.41,0.21,2.81.48,4.2,0.79v-5l-1.16-.25V276a3.83,3.83,0,0,1-.35,1.86,0.64,0.64,0,0,1-.68.22v-4.7h0a1.93,1.93,0,0,1,.44.65l0.08,0.17,0.62-.27v-2.2l-0.63-.38-0.06.12a0.91,0.91,0,0,1-.42.49h0v-3.58a1.15,1.15,0,0,1,.82.53,5.3,5.3,0,0,1,.33,1.92V271l1,0.22v-3.82q-2.09-.47-4.2-0.79" transform="translate(-368.16 -265.73)"/><path class="cls-3" d="M413.86,267.27l-0.31-.07q-2-.44-3.95-0.74l-0.2,0-0.09.16-0.39.73-0.13.23,0.25,0.18a0.71,0.71,0,0,1,.2.43,1.79,1.79,0,0,1,0,.39v8.91a0.75,0.75,0,0,1-.26.61l-0.18.13,0.1,0.22,0.36,0.76,0.09,0.18,0.2,0q2,0.31,3.95.74l0.31,0.07v-5.27l-0.31-.07-0.85-.18-0.31-.06V276a3.69,3.69,0,0,1-.33,1.8,0.39,0.39,0,0,1-.38.19v-4.19a2.29,2.29,0,0,1,.17.31l0.15,0.35,0.3-.13,0.4-.17,0.14-.06v-2.39l-0.19-.12-0.4-.24-0.28-.17-0.13.24a2,2,0,0,1-.17.27v-3.09a0.84,0.84,0,0,1,.52.38,5.17,5.17,0,0,1,.32,1.85c0,0.1,0,.2,0,0.3l0.3,0.06,0.72,0.16,0.31,0.07v-4.13Zm-4.66.22,0.39-.73q2,0.31,3.95.74V271l-0.72-.16a5.42,5.42,0,0,0-.35-2,1.41,1.41,0,0,0-1.11-.68v3.9l0.21,0a0.18,0.18,0,0,0,.1,0h0a1.23,1.23,0,0,0,.45-0.53l0.4,0.24v2l-0.4.17a1.62,1.62,0,0,0-.58-0.77l-0.18,0v5l0.31,0h0a0.69,0.69,0,0,0,.66-0.31,4,4,0,0,0,.36-1.93v-1l0.85,0.18v4.65q-2-.43-3.95-0.74l-0.36-.76a1,1,0,0,0,.37-0.81V268.6a2.18,2.18,0,0,0,0-.45,1.07,1.07,0,0,0-.35-0.65" transform="translate(-368.16 -265.73)"/><path class="cls-2" d="M392.46,266.33l-1.08,1.53,0,0.08a1.34,1.34,0,0,1,.19.65v8.12a1.46,1.46,0,0,1-.18.72l-0.06.09,0.06,0.08,1,1.37q1.71-.21,3.43-0.32L397,277l-0.06-.08a1.1,1.1,0,0,1-.15-0.78v-7.9a1.1,1.1,0,0,1,.16-0.69l0.05-.09L395.88,266q-1.72.11-3.43,0.32m1.31,10.77v-9.25c0-.15,0-0.3.42-0.33s0.41,0.11.41,0.26V277a0.36,0.36,0,0,1-.41.39c-0.37,0-.42-0.13-0.42-0.32" transform="translate(-368.16 -265.73)"/><path class="cls-3" d="M396,265.86H395.8q-1.63.11-3.26,0.3l-0.16,0-0.1.13-1,1.38-0.12.17,0.1,0.16a1.22,1.22,0,0,1,.17.58v8.12a1.28,1.28,0,0,1-.15.63h0l-0.12.19,0.11,0.16,1,1.31,0.09,0.13,0.17,0q1.63-.2,3.26-0.31H396l0.1-.15,1-1.49,0.12-.18-0.13-.16a1,1,0,0,1-.12-0.7v-7.89a1,1,0,0,1,.14-0.61l0.1-.17L397,267.3l-1-1.32-0.1-.13m-4.4,2,1-1.37q1.63-.2,3.26-0.31l1,1.32a1.23,1.23,0,0,0-.19.76v7.9a1.22,1.22,0,0,0,.19.87l-1,1.49q-1.63.11-3.26,0.31l-1-1.31a1.58,1.58,0,0,0,.2-0.81v-8.13a1.47,1.47,0,0,0-.2-0.71m2.62-.48a0.52,0.52,0,0,0-.58.5v9.25a0.44,0.44,0,0,0,.58.45,0.53,0.53,0,0,0,.57-0.56v-9.25c0-.3-0.19-0.43-0.57-0.4m0,9.9c-0.27,0-.27-0.06-0.27-0.18v-9.25c0-.07,0-0.14.27-0.17s0.25,0,.25.12V277c0,0.13,0,.2-0.25.23" transform="translate(-368.16 -265.73)"/><path class="cls-2" d="M398,265.91l-0.5,1,0.09,0.08a0.81,0.81,0,0,1,.26.57V277l0,0.23a0.77,0.77,0,0,1-.2.35l-0.07.07,0.35,0.94c0.63,0,1.25,0,1.88,0l0.35-.91-0.07-.07a0.82,0.82,0,0,1-.19-0.59V273.3l0.19-.12,0.86,3.95h0a0.54,0.54,0,0,1-.21.4l-0.08.08,0.42,0.92,1.72,0.05,0.32-.93-0.1-.07a1,1,0,0,1-.4-0.51c0-.15-0.23-1.47-0.58-3.86l-0.17-1.17,1-.61-0.07-.13a1.18,1.18,0,0,1-.13-0.55V268a1.69,1.69,0,0,1,.2-0.58l0-.09-1.38-1.48q-1.74,0-3.47,0m2.1,1.4a0.4,0.4,0,0,1,.25.16,1,1,0,0,1,.22.7v2.24a1.47,1.47,0,0,1-.43,1.07l-0.28.16v-4.33h0.24" transform="translate(-368.16 -265.73)"/><path class="cls-3" d="M401.58,265.75h-0.14q-1.65,0-3.3,0h-0.19l-0.09.17-0.4.77-0.11.2,0.17,0.15a0.66,0.66,0,0,1,.21.47V277c0,0.08,0,.14,0,0.21a0.61,0.61,0,0,1-.15.28l-0.15.14,0.07,0.18,0.28,0.75,0.07,0.2H398l1.66,0h0.22l0.08-.2,0.27-.71,0.07-.19-0.15-.14a0.72,0.72,0,0,1-.14-0.48v-3.2l0.73,3.38a0.4,0.4,0,0,1-.16.3l-0.16.15,0.09,0.2,0.34,0.73,0.08,0.18h0.21l1.5,0h0.23l0.07-.21,0.25-.71,0.08-.22-0.2-.14a0.81,0.81,0,0,1-.34-0.42c0-.15-0.22-1.45-0.58-3.81-0.05-.37-0.11-0.73-0.16-1.1l0.79-.48,0.25-.15-0.15-.26a1.05,1.05,0,0,1-.11-0.48v-2.72a1.68,1.68,0,0,1,.19-0.52l0.08-.18-0.14-.15-1.26-1.36-0.1-.1m-3.84,1.08,0.4-.77q1.65-.05,3.3,0l1.26,1.35a2,2,0,0,0-.21.64v2.73a1.32,1.32,0,0,0,.16.62l-1,.59c0.49,3.29.73,4.94,0.77,5.12a1.12,1.12,0,0,0,.47.61l-0.24.71-1.5,0-0.34-.73a0.69,0.69,0,0,0,.25-0.53v0l-0.9-4.17-0.46.29V277a1,1,0,0,0,.24.69l-0.27.71-1.66,0-0.28-.75a0.94,0.94,0,0,0,.25-0.44c0-.07,0-0.16,0-0.25V267.5a0.94,0.94,0,0,0-.31-0.67m2.4,0.33h-0.4v4.73l0.28-.14,0,0,0.24-.15a1.62,1.62,0,0,0,.48-1.17v-2.23a1.16,1.16,0,0,0-.26-0.8,0.54,0.54,0,0,0-.37-0.22m-0.08.31h0.07a0.37,0.37,0,0,1,.14.11h0a0.89,0.89,0,0,1,.18.6v2.24a1.32,1.32,0,0,1-.38.95h0v-3.91Z" transform="translate(-368.16 -265.73)"/><path class="cls-2" d="M404.28,266l-0.51,1,0.13,0.08a0.76,0.76,0,0,1,.27.51l0,0.4v8.92a0.79,0.79,0,0,1-.32.68l-0.07.07,0.44,1q2.05,0.14,4.09.42v-5.28l-1.17-.15v1.53a4,4,0,0,1-.35,1.9,0.6,0.6,0,0,1-.53.29v-9.29a1.1,1.1,0,0,1,.32-0.8l0.08-.07-0.49-1q-1-.1-2-0.17" transform="translate(-368.16 -265.73)"/><path class="cls-3" d="M406.34,266l-0.2,0-1.76-.15h-0.2l-0.09.17-0.39.78-0.13.26,0.27,0.15a0.67,0.67,0,0,1,.19.41h0a1.59,1.59,0,0,1,0,.36v8.92a0.66,0.66,0,0,1-.27.58l-0.15.14,0.09,0.2,0.36,0.78,0.08,0.18h0.2q1.92,0.14,3.83.39l0.31,0v-5.59l-0.31,0-0.86-.11-0.32,0v1.68a3.9,3.9,0,0,1-.33,1.83,0.44,0.44,0,0,1-.23.21v-9.1a1,1,0,0,1,.28-0.71l0.16-.14-0.1-.21-0.39-.81-0.09-.18M404,267l0.39-.77,1.76,0.15,0.39,0.81a1.23,1.23,0,0,0-.37.9v9.48a1.08,1.08,0,0,0,.31,0h0a0.71,0.71,0,0,0,.51-0.37,4.12,4.12,0,0,0,.37-2v-1.37l0.86,0.11v5q-1.91-.25-3.83-0.39l-0.35-.79a0.93,0.93,0,0,0,.36-0.79V268a1.76,1.76,0,0,0,0-.43A0.91,0.91,0,0,0,404,267" transform="translate(-368.16 -265.73)"/><path class="cls-2" d="M415.91,267.92l-0.41.86,0.08,0.09a1.24,1.24,0,0,1,.37.87l-1,8.84-0.1.23a0.88,0.88,0,0,1-.38.4l-0.1.05,0.46,1,1.46,0.37,0.38-.8-0.09-.1a1.13,1.13,0,0,1-.33-0.86s0.07-.68.11-1.06l0.62,0.6,0.1-.06a1.74,1.74,0,0,1,.45-0.23l0.13,1.18s0,0,0,.06a0.68,0.68,0,0,1-.3.59l-0.08.06,0.5,1c0.61,0.18,1.22.37,1.82,0.57l0.56-.71-0.1-.12a2.49,2.49,0,0,1-.53-1.17c-0.07-.39-0.27-2-0.61-4.78s-0.51-4.3-.51-4.53l0-.25a0.53,0.53,0,0,1,.27-0.33l0.09,0-0.39-1.1q-1.24-.38-2.49-0.71m1,5.06,0.47,4-0.88-.25c0-.23.26-2.32,0.41-3.72" transform="translate(-368.16 -265.73)"/><path class="cls-3" d="M418.5,268.5l-0.21-.06q-1.14-.35-2.28-0.65l-0.2-.05-0.08.17-0.33.68-0.09.19,0.17,0.19a1,1,0,0,1,.31.72c-0.3,2.79-.64,5.76-1,8.82a0.87,0.87,0,0,1-.09.2h0a0.73,0.73,0,0,1-.33.34l-0.21.11,0.12,0.26,0.36,0.8,0.09,0.19,0.19,0,1.26,0.32,0.2,0.05,0.08-.17,0.3-.63,0.09-.19-0.18-.19a0.93,0.93,0,0,1-.28-0.71c0-.09,0-0.34.08-0.81l0.29,0.29,0.22,0.22,0.19-.14,0.22-.13c0,0.3.07,0.61,0.1,0.91a0.58,0.58,0,0,1-.25.55l-0.16.12,0.11,0.24,0.41,0.83,0.09,0.18,0.18,0.05,1.65,0.51,0.17,0.06,0.09-.12,0.44-.56,0.14-.17-0.2-.24a2.28,2.28,0,0,1-.48-1.07c-0.07-.38-0.27-2-0.61-4.77-0.41-3.36-.51-4.3-0.51-4.5a2,2,0,0,1,0-.22,0.44,0.44,0,0,1,.22-0.27l0.19-.08-0.09-.25-0.31-.87-0.08-.22m-2.82.28,0.33-.69q1.15,0.3,2.28.65l0.31,0.87a0.64,0.64,0,0,0-.33.41,2.15,2.15,0,0,0,0,.28q0,0.35.51,4.55t0.62,4.78a2.68,2.68,0,0,0,.57,1.27l-0.44.56c-0.55-.18-1.09-0.35-1.65-0.51l-0.4-.83a0.79,0.79,0,0,0,.34-0.68s0-.05,0-0.08l-0.16-1.43a1.91,1.91,0,0,0-.68.31q-0.52-.53-0.73-0.71c-0.08.76-.13,1.2-0.13,1.32s0,0,0,.07a1.34,1.34,0,0,0,.39.93l-0.3.63-1.26-.32-0.36-.8a0.94,0.94,0,0,0,.42-0.44,1.1,1.1,0,0,0,.12-0.28q0.57-4.7,1-8.85a0.12,0.12,0,0,0,0,0,1.44,1.44,0,0,0-.42-1m1.18,2.83q-0.28,2.59-.57,5.18l0.31,0.08h0l0.6,0.17h0l0.31,0.09q-0.33-2.76-.66-5.52m-0.22,5q0.12-1.13.25-2.26,0.14,1.2.29,2.41l-0.53-.15" transform="translate(-368.16 -265.73)"/><path class="cls-2" d="M424.56,270.9l-0.43.75,0.11,0.12a1.13,1.13,0,0,1,.26.46l0,0.23v4.23c-0.41-1.5-1.49-5.46-1.49-5.46a3.09,3.09,0,0,1-.1-0.84v-0.15q-1-.38-1.92-0.72l-0.4.7,0.09,0.11a2.15,2.15,0,0,1,.34.52h0s0,0.16,0,.16v9.71a0.43,0.43,0,0,1-.26.41l-0.07,0,0.28,1c0.58,0.21,1.16.42,1.73,0.65L423,282l-0.1-.1a1.2,1.2,0,0,1-.29-0.45l0-.21v-4.93c1.21,4,1.84,6.18,1.88,6.29a1.87,1.87,0,0,1,.07.54c0,0.09,0,.18,0,0.28v0.16l1.4,0.62v-11a0.6,0.6,0,0,1,.28-0.53l0.07,0-0.38-1-1.35-.6" transform="translate(-368.16 -265.73)"/><path class="cls-3" d="M426,271.39l-0.19-.08-1.16-.51-0.19-.08-0.08.14-0.33.58-0.11.2,0.22,0.23a0.83,0.83,0,0,1,.19.34,2,2,0,0,1,0,.2v3.23c-0.76-2.83-1.17-4.3-1.2-4.39h0a3,3,0,0,1-.09-0.79v-0.31l-0.3-.12q-0.84-.33-1.68-0.63l-0.19-.07-0.08.15-0.31.54-0.1.18,0.19,0.22a1.89,1.89,0,0,1,.3.44,0.3,0.3,0,0,1,0,.1v9.7a0.34,0.34,0,0,1-.21.33l-0.14.08,0.06,0.2,0.22,0.78,0.07,0.24,0.22,0.08,1.51,0.56,0.22,0.09,0.06-.19,0.22-.66,0.07-.2-0.2-.2a1,1,0,0,1-.23-0.35,0.72,0.72,0,0,1,0-.15v-4l1.58,5.31a2,2,0,0,1,0,.75c0,0.11,0,.21,0,0.32l0.32,0.14,1.09,0.48,0.3,0.13V273.19a0.51,0.51,0,0,1,.24-0.46l0.14-.08-0.08-.23-0.3-.82-0.08-.21m-1.68.29,0.33-.58,1.16,0.51,0.3,0.82a0.72,0.72,0,0,0-.33.62v10.89l-1.09-.48c0-.1,0-0.2,0-0.29a2.1,2.1,0,0,0-.08-0.61c0-.11-0.75-2.55-2.17-7.25v5.86a1.25,1.25,0,0,0,.06.26,1.5,1.5,0,0,0,.35.54l-0.22.66-1.51-.56-0.22-.78a0.54,0.54,0,0,0,.31-0.5v-9.72a0.71,0.71,0,0,0,0-.23,2.37,2.37,0,0,0-.38-0.58l0.31-.54,1.68,0.63a3.28,3.28,0,0,0,.1.89c0,0.1.52,1.9,1.48,5.43l0.21,0.77,0.09,0.33v-5.24a2.49,2.49,0,0,0,0-.27,1.37,1.37,0,0,0-.32-0.57m0,0.54h0" transform="translate(-368.16 -265.73)"/><path class="cls-2" d="M428,272.52l-1.26.83,0,0.1a3.65,3.65,0,0,1,.2.83v3.06s2.55,4.52,2.6,4.65v2.67a1.82,1.82,0,0,1-.1,1,0.3,0.3,0,0,1-.27,0,0.79,0.79,0,0,1-.25-0.26,2.82,2.82,0,0,1-.1-1.07v-1.46q-1.05-.55-2.12-1.05l0.06,0.23a4.7,4.7,0,0,1,.18,1c0,0.17,0,.3,0,0.4a1.37,1.37,0,0,0,0,.22,1,1,0,0,1-.18.62l-0.06.07,1.28,2.1q1.32,0.67,2.61,1.39l1-.89,0-.09a4,4,0,0,1-.18-0.84v-4.06s-2.5-4.59-2.57-4.69v-1.74a1.83,1.83,0,0,1,.1-1,0.29,0.29,0,0,1,.27,0,0.78,0.78,0,0,1,.25.26,2.86,2.86,0,0,1,.1,1.08v1q0.93,0.5,1.85,1v-1.22a1,1,0,0,1,.17-0.61l0-.06-1-2.06q-1.29-.73-2.61-1.39" transform="translate(-368.16 -265.73)"/><path class="cls-3" d="M430.72,273.79l-0.14-.08q-1.22-.69-2.47-1.31l-0.13-.07-0.09.06-1.16.77-0.12.08,0.06,0.21a3.64,3.64,0,0,1,.18.77v3.12l0.07,0.11q1.29,2.24,2.54,4.53v2.61a2.68,2.68,0,0,1-.07.88,0.17,0.17,0,0,1-.14,0,0.42,0.42,0,0,1-.14-0.14,3.52,3.52,0,0,1-.07-1v-1.61l-0.29-.15q-0.89-.46-1.78-0.89l-0.4-.19,0.12,0.45a4.35,4.35,0,0,1,.17.9c0,0.07,0,.28,0,0.34v0.19s0,0.06,0,.08a0.87,0.87,0,0,1-.16.55l-0.12.14,0.15,0.24,1.16,1.91,0.09,0.14,0.13,0.06q1.25,0.63,2.47,1.31l0.15,0.08,0.09-.08,0.92-.81,0.09-.08-0.05-.18a3.76,3.76,0,0,1-.17-0.78v-4.12l-0.07-.13q-1.24-2.31-2.5-4.57V275.5a2.52,2.52,0,0,1,.07-0.89,0.18,0.18,0,0,1,.14,0,0.56,0.56,0,0,1,.14.14,3.85,3.85,0,0,1,.07,1v1.16l0.29,0.16q0.79,0.43,1.56.87l0.29,0.17v-1.38h0a0.88,0.88,0,0,1,.15-0.55l0.1-.12-0.12-.23L430.81,274l-0.09-.17m-3.78-.33,1.16-.76q1.25,0.63,2.47,1.31l0.92,1.86a1.09,1.09,0,0,0-.19.68v1.07q-0.77-.45-1.56-0.88v-0.86a3,3,0,0,0-.14-1.2,1.09,1.09,0,0,0-.36-0.36,0.4,0.4,0,0,0-.37,0,1.89,1.89,0,0,0-.14,1.05v1.8q1.3,2.3,2.57,4.68v4a4.44,4.44,0,0,0,.19.9l-0.92.81q-1.22-.69-2.47-1.31l-1.16-1.91a1.09,1.09,0,0,0,.2-0.69h0s0-.49,0-0.6h0a4.72,4.72,0,0,0-.19-1c0.6,0.29,1.19.58,1.78,0.89v1.31a3,3,0,0,0,.14,1.2,1,1,0,0,0,.37.36,0.39,0.39,0,0,0,.36,0,1.82,1.82,0,0,0,.14-1V282q-1.29-2.36-2.6-4.66v-3a4,4,0,0,0-.2-0.89" transform="translate(-368.16 -265.73)"/><path class="cls-2" d="M385.32,317.78L384.17,319l0,0.1a2.16,2.16,0,0,1,.2.83V329a1.17,1.17,0,0,1-.19.73l-0.06.07,0.06,0.1,1.09,2q1.84,0.55,3.72,1l1.16-1.52-0.06-.1a1.49,1.49,0,0,1-.17-0.93v-8.85a1.08,1.08,0,0,1,.18-0.73l0-.07L389,318.74q-1.87-.41-3.71-1m1.39,12.62V320c0-.17.06-0.33,0.48-0.22a0.47,0.47,0,0,1,.46.47v10.37c0,0.3-.13.39-0.46,0.3a0.52,0.52,0,0,1-.48-0.54" transform="translate(-368.16 -265.73)"/><path class="cls-3" d="M389.11,318.6l-0.16,0q-1.79-.4-3.55-0.92l-0.15,0-0.09.1-1,1.07-0.12.12,0.09,0.2a2,2,0,0,1,.18.75V329a1.07,1.07,0,0,1-.17.65h0l-0.11.13,0.11,0.21,1,1.94,0.09,0.17,0.17,0q1.76,0.52,3.55.92l0.17,0,0.09-.12,1.06-1.39,0.12-.15-0.12-.19a1.31,1.31,0,0,1-.15-0.84v-8.85a1,1,0,0,1,.16-0.66l0.1-.15-0.11-.18-1.06-1.76-0.09-.15m-4.76.43,1-1.08q1.76,0.52,3.55.92l1.06,1.76a1.2,1.2,0,0,0-.2.81v8.85a1.64,1.64,0,0,0,.2,1L389,332.71q-1.79-.4-3.55-0.92l-1-1.93a1.25,1.25,0,0,0,.22-0.81v-9.12a2.36,2.36,0,0,0-.22-0.9m2.84,0.61c-0.42-.11-0.63,0-0.63.33v10.38a0.73,0.73,0,0,0,.63.74c0.41,0.1.62,0,.62-0.42V320.3a0.68,0.68,0,0,0-.62-0.66m0,11.14c-0.3-.08-0.33-0.19-0.33-0.35V320.06c0-.1,0-0.19.33-0.11s0.31,0.17.31,0.27V330.6c0,0.16,0,.26-0.31.18" transform="translate(-368.16 -265.73)"/><path class="cls-2" d="M391.42,319.21l-0.53.94,0.08,0.09a1.19,1.19,0,0,1,.29.72v10.61l0,0.25a0.69,0.69,0,0,1-.22.35l-0.07.05,0.38,1.11q1,0.18,2,.32l0.38-.94-0.07-.08a1.08,1.08,0,0,1-.22-0.7v-4.11l0.25-.13,1,4.56v0a0.56,0.56,0,0,1-.23.44l-0.08.06,0.46,1.05q0.94,0.1,1.88.17l0.35-1-0.1-.07a1.17,1.17,0,0,1-.46-0.6c0-.17-0.26-1.66-0.65-4.36l-0.2-1.32,1.1-.63-0.07-.13a1.41,1.41,0,0,1-.15-0.63v-3.06a1.92,1.92,0,0,1,.23-0.65l0-.09q-0.76-.85-1.52-1.72-1.91-.19-3.81-0.52m2.3,1.91a0.56,0.56,0,0,1,.29.23,1.3,1.3,0,0,1,.25.83v2.51a1.48,1.48,0,0,1-.49,1.15,2.25,2.25,0,0,1-.34.15v-4.91l0.29,0" transform="translate(-368.16 -265.73)"/><path class="cls-3" d="M395.31,319.58h-0.14q-1.83-.18-3.65-0.49l-0.19,0-0.09.15-0.44.77-0.1.18,0.16,0.19a1,1,0,0,1,.25.6v10.58l0,0.23a0.56,0.56,0,0,1-.18.29l-0.15.11,0.07,0.2,0.3,0.9,0.07,0.22,0.22,0q0.91,0.16,1.83.28l0.22,0,0.08-.19,0.3-.76,0.07-.18-0.15-.16a1,1,0,0,1-.17-0.59V328l0.88,4.24a0.42,0.42,0,0,1-.18.34l-0.16.13,0.09,0.21,0.37,0.86,0.08,0.19,0.2,0,1.66,0.15,0.23,0,0.07-.21,0.27-.79,0.08-.22-0.2-.14a1,1,0,0,1-.39-0.5c0-.17-0.25-1.6-0.63-4.21l-0.2-1.36,0.89-.51,0.24-.14-0.15-.26a1.24,1.24,0,0,1-.13-0.56v-3.05a1.91,1.91,0,0,1,.21-0.59l0.08-.18-0.14-.16q-0.7-.78-1.4-1.58l-0.09-.11m-4.23.57,0.44-.77q1.82,0.31,3.65.49l1.4,1.59a2.14,2.14,0,0,0-.24.71v3.06a1.57,1.57,0,0,0,.17.71l-1.06.6c0.54,3.73.82,5.58,0.86,5.79a1.3,1.3,0,0,0,.52.7l-0.27.79-1.66-.15-0.37-.85a0.69,0.69,0,0,0,.28-0.55v0l-1-4.78-0.51.26v4.2a1.23,1.23,0,0,0,.27.81l-0.3.76q-0.92-.12-1.83-0.28l-0.3-.9a0.8,0.8,0,0,0,.27-0.44c0-.08,0-0.17,0-0.27V321a1.35,1.35,0,0,0-.34-0.82m2.65,0.82-0.44-.06v5.31l0.28-.1h0a1.26,1.26,0,0,0,.83-1.4V322.2a1.44,1.44,0,0,0-.29-0.93,0.69,0.69,0,0,0-.41-0.29m-0.13.29,0.13,0a0.51,0.51,0,0,1,.17.16h0a1.14,1.14,0,0,1,.21.73v2.51a1.35,1.35,0,0,1-.43,1l-0.08,0v-4.49h0Z" transform="translate(-368.16 -265.73)"/><path class="cls-2" d="M402.32,319.94l-0.49,1,0.11,0.07a0.69,0.69,0,0,1,.31.39l0,0.25s0,3.5,0,4.87c-0.45-1.36-1.79-5.52-1.79-5.52a2.86,2.86,0,0,1-.11-0.91V320q-1.11,0-2.22,0l-0.45.9,0.1,0.08a1.61,1.61,0,0,1,.4.47s0,0.17,0,.17v10.89a0.61,0.61,0,0,1-.29.5l-0.09.06,0.32,1.06c0.67,0,1.33,0,2,0l0.33-1.05-0.1-.06a0.82,0.82,0,0,1-.35-0.38L400,332.4v-5.64c2,5.48,2.23,6.19,2.26,6.26a1.72,1.72,0,0,1,.08.58c0,0.1,0,.21,0,0.32v0.17l1.63-.08V321.64a1.21,1.21,0,0,1,.35-0.78l0.08-.08-0.45-.92-1.58.08" transform="translate(-368.16 -265.73)"/><path class="cls-3" d="M404,319.71h-0.2l-1.38.07h-0.2l-0.09.18-0.39.82-0.12.25,0.23,0.14a0.57,0.57,0,0,1,.24.3c0,0.07,0,.14,0,0.21v3.87c-1-3-1.46-4.49-1.49-4.58h0a2.73,2.73,0,0,1-.1-0.85v-0.3h-0.31q-1,0-2,0h-0.2l-0.09.17-0.36.71-0.11.21,0.19,0.16a1.43,1.43,0,0,1,.36.41,0.29,0.29,0,0,1,0,.12v10.88a0.46,0.46,0,0,1-.23.4l-0.18.12,0.06,0.21L398,334l0.07,0.22h0.24c0.59,0,1.17,0,1.76,0h0.23l0.07-.22,0.26-.83,0.07-.23-0.2-.12a0.66,0.66,0,0,1-.29-0.31,0.67,0.67,0,0,1,0-.16v-4.73c1.59,4.45,1.9,5.27,1.95,5.4a2,2,0,0,1,.06.84c0,0.11,0,.22,0,0.33h0.34l1.3-.07,0.31,0v-12.5a1.05,1.05,0,0,1,.3-0.68l0.15-.16-0.09-.19-0.36-.74-0.08-.17m-2,1.22,0.39-.83,1.38-.07,0.36,0.74a1.35,1.35,0,0,0-.39.89v12.21l-1.3.07c0-.12,0-0.23,0-0.33a1.81,1.81,0,0,0-.09-0.64c0-.11-0.9-2.44-2.55-7.11v6.57a0.93,0.93,0,0,0,.07.26,1,1,0,0,0,.41.45l-0.26.83c-0.59,0-1.17,0-1.76,0l-0.26-.84a0.76,0.76,0,0,0,.36-0.63V321.56a0.6,0.6,0,0,0-.05-0.24,1.71,1.71,0,0,0-.44-0.52l0.36-.71c0.66,0,1.31,0,2,0a3,3,0,0,0,.12,1c0,0.09.63,1.95,1.79,5.5l0.22,0.67,0.09,0.29v-5.88a1.93,1.93,0,0,0,0-.27,0.85,0.85,0,0,0-.38-0.47m0.07,12.16h0" transform="translate(-368.16 -265.73)"/><path class="cls-2" d="M405.59,319.71l-0.53,1.12,0.08,0.07a1,1,0,0,1,.35.57l0,0.46v10a1.26,1.26,0,0,1-.36.89l-0.09.09,0.5,0.94q2.35-.23,4.67-0.67v-5.52l-1.26.22v1.33a5.29,5.29,0,0,1-.39,2.24,1.06,1.06,0,0,1-.8.54v-5.33h0a1.3,1.3,0,0,1,.51.57l0.08,0.15,0.66-.53v-2.45l-0.68-.17-0.06.14a1.57,1.57,0,0,1-.48.72h-0.08V321a0.93,0.93,0,0,1,1,.28,4.88,4.88,0,0,1,.37,2s0,0.1,0,.15l1.11-.2V319c-1.55.29-3.11,0.52-4.67,0.67" transform="translate(-368.16 -265.73)"/><path class="cls-3" d="M410.41,318.86l-0.31.06q-2.2.41-4.42,0.63l-0.2,0-0.09.18-0.44.92-0.1.21L405,321a0.83,0.83,0,0,1,.31.49,2.11,2.11,0,0,1,0,.43v10a1.11,1.11,0,0,1-.31.78l-0.18.17,0.11,0.2,0.41,0.76,0.09,0.16,0.19,0q2.22-.22,4.42-0.63l0.31-.06v-5.83l-0.31.06-0.95.17-0.31.05v1.48a5.14,5.14,0,0,1-.37,2.17,0.77,0.77,0,0,1-.5.4v-4.85a1.46,1.46,0,0,1,.26.36l0.15,0.29,0.3-.24,0.44-.35,0.14-.11v-2.63l-0.19,0-0.45-.11-0.27-.07-0.13.28a3.06,3.06,0,0,1-.26.47v-3.62a0.68,0.68,0,0,1,.66.23h0a4.79,4.79,0,0,1,.36,2c0,0.1,0,.2,0,0.29l0.3,0,0.81-.14,0.31-.06v-4.56h0Zm-5.17,1.92,0.44-.92q2.22-.22,4.42-0.63v3.95l-0.81.14a5,5,0,0,0-.39-2.08,1.14,1.14,0,0,0-1.25-.33v4.37l0.24,0,0.08,0h0a1.94,1.94,0,0,0,.54-0.8l0.45,0.11v2.26l-0.45.35a1.13,1.13,0,0,0-.65-0.63l-0.21,0v5.64l0.31-.06h0a1.19,1.19,0,0,0,.78-0.62,5.41,5.41,0,0,0,.41-2.31V328l0.95-.17V333q-2.2.41-4.42,0.63l-0.41-.76a1.44,1.44,0,0,0,.41-1v-10a2.24,2.24,0,0,0-.05-0.5,1.06,1.06,0,0,0-.39-0.64" transform="translate(-368.16 -265.73)"/><path class="cls-2" d="M420.07,315c-0.47.73-1,1.45-1.44,2.16l0,0.08a2.29,2.29,0,0,1,.22.75v3.4s2.92,2.49,3,2.51v2.89a3,3,0,0,1-.12,1.21,0.79,0.79,0,0,1-.32.28,0.33,0.33,0,0,1-.3,0,2,2,0,0,1-.12-1.1V325.5q-1.19.51-2.39,0.95l0.06,0.17a3.29,3.29,0,0,1,.21.9c0,0.21,0,.37,0,0.49a2,2,0,0,0,0,.23,2.08,2.08,0,0,1-.2.88l-0.06.12,1.45,1.08q1.5-.6,3-1.3l1.15-2.19,0-.06a2.18,2.18,0,0,1-.21-0.72V321.6s-2.86-2.23-2.94-2.31v-1.92a3,3,0,0,1,.12-1.21,0.79,0.79,0,0,1,.32-0.28,0.34,0.34,0,0,1,.3,0,2,2,0,0,1,.12,1.11v1.15q1.05-.46,2.08-1v-1.39a2.39,2.39,0,0,1,.2-0.9l0.05-.11L423,313.69q-1.47.7-3,1.3" transform="translate(-368.16 -265.73)"/><path class="cls-3" d="M423.11,313.5l-0.14.07c-0.93.44-1.88,0.85-2.83,1.24l-0.13.05-0.09.14c-0.44.67-.88,1.34-1.33,2l-0.12.18,0.06,0.15a2.15,2.15,0,0,1,.21.71v3.45l0.07,0.06q1.47,1.28,2.92,2.46v2.84a3.72,3.72,0,0,1-.09,1.1,0.56,0.56,0,0,1-.2.17,0.22,0.22,0,0,1-.19,0,2.79,2.79,0,0,1-.09-1v-1.81l-0.29.13q-1,.42-2,0.81l-0.41.15,0.12,0.35a3,3,0,0,1,.2.85c0,0.08,0,.35,0,0.4v0.23s0,0.07,0,.1a1.92,1.92,0,0,1-.18.79l-0.12.24,0.15,0.12,1.33,1L420,330.5l0.13-.05c1-.38,1.9-0.8,2.83-1.24l0.14-.07,0.09-.17,1.06-2,0.09-.18-0.05-.13a2.07,2.07,0,0,1-.2-0.68v-4.5l-0.07-.05q-1.42-1.08-2.87-2.25V317.3a3.76,3.76,0,0,1,.09-1.1,0.57,0.57,0,0,1,.19-0.17,0.23,0.23,0,0,1,.2,0,2.86,2.86,0,0,1,.09,1v1.3l0.29-.13q0.9-.4,1.79-0.84l0.29-.14V315.7h0a2.17,2.17,0,0,1,.17-0.82l0.1-.23-0.12-.11-1.05-1-0.09-.08m-4.3,3.62q0.67-1,1.33-2c1-.38,1.9-0.8,2.83-1.24l1.05,1a2.61,2.61,0,0,0-.22,1v1.24c-0.59.29-1.19,0.57-1.79,0.84v-1a2.15,2.15,0,0,0-.16-1.19,0.46,0.46,0,0,0-.42,0,1.09,1.09,0,0,0-.42.37,3.16,3.16,0,0,0-.16,1.33v2q1.49,1.21,2.95,2.32v4.39a2.35,2.35,0,0,0,.22.77l-1.05,2c-0.93.44-1.88,0.85-2.83,1.23l-1.33-1a2.29,2.29,0,0,0,.23-1h0s0-.56,0-0.71v0a3.17,3.17,0,0,0-.21-0.94q1-.38,2-0.81v1.5a2.15,2.15,0,0,0,.16,1.19,0.45,0.45,0,0,0,.42,0,1,1,0,0,0,.42-0.37,3.15,3.15,0,0,0,.16-1.33v-2.95q-1.48-1.2-3-2.5v-3.34a2.47,2.47,0,0,0-.23-0.8m-0.07,10.44h0Zm0,0.8a0.2,0.2,0,0,1,0-.06,0.28,0.28,0,0,0,0,.06" transform="translate(-368.16 -265.73)"/><path class="cls-2" d="M380.89,315.05l-0.49.81,0.08,0.11a1.86,1.86,0,0,1,.31.77l0,0.49s0,3.38,0,3.67c-0.23-.09-1.37-0.57-1.6-0.67v-3.81a0.94,0.94,0,0,1,.36-0.8l0.08,0-0.52-1.25c-0.69-.31-1.37-0.62-2-1l-0.47.84,0.08,0.11a1.67,1.67,0,0,1,.31.74l0.06,0.51v10.85a0.89,0.89,0,0,1-.37.88l-0.07,0,0.47,1.31q1,0.5,2.05,1l0.51-.82-0.08-.11a2.08,2.08,0,0,1-.31-0.75l0-.38v-5.93a5.91,5.91,0,0,1,.71.77l0.1,0.14,0.1-.06a1.66,1.66,0,0,1,.68-0.17c0,0.42,0,5.79,0,5.79a1,1,0,0,1-.39.92l-0.08,0,0.55,1.28q1,0.41,2.06.77l0.53-.86-0.08-.1a1.89,1.89,0,0,1-.32-0.72l0-.36V317.93a0.94,0.94,0,0,1,.36-0.84l0.08-.05L383,315.83c-0.7-.25-1.39-0.51-2.08-0.78" transform="translate(-368.16 -265.73)"/><path class="cls-3" d="M383.06,315.71l-0.18-.06q-1-.34-1.9-0.71l-0.18-.07-0.08.14-0.4.67-0.09.16,0.15,0.22a1.6,1.6,0,0,1,.27.67c0,0.15,0,.3,0,0.47v3.51l-1.31-.55V316.5a0.83,0.83,0,0,1,.32-0.72l0.15-.09-0.1-.24-0.43-1-0.08-.2-0.17-.08c-0.63-.28-1.25-0.57-1.87-0.87l-0.19-.09-0.08.14-0.39.69-0.09.16,0.16,0.23a1.37,1.37,0,0,1,.26.64h0a3.48,3.48,0,0,1,.06.47v10.84a0.78,0.78,0,0,1-.33.8l-0.14.08,0.08,0.23,0.39,1.09,0.08,0.22,0.19,0.09q0.93,0.46,1.87.87l0.18,0.08,0.08-.13,0.43-.68,0.1-.16-0.15-.22a1.84,1.84,0,0,1-.27-0.65c0-.11,0-0.22,0-0.35v-5.69a5.07,5.07,0,0,1,.47.54l0.21,0.29,0.2-.12a1.54,1.54,0,0,1,.43-0.15V328a0.88,0.88,0,0,1-.34.83l-0.16.09,0.1,0.25,0.46,1.06,0.08,0.19,0.18,0.07q0.93,0.37,1.88.7l0.18,0.06,0.08-.14,0.44-.71,0.1-.16-0.15-.21a1.62,1.62,0,0,1-.28-0.64h0a1.2,1.2,0,0,1,0-.3V318h0a0.83,0.83,0,0,1,.31-0.75l0.17-.1-0.11-.24-0.44-1-0.08-.19m-2.48.2,0.4-.67q0.94,0.37,1.9.71l0.44,1a1,1,0,0,0-.41.93V329a1.62,1.62,0,0,0,0,.4,2.13,2.13,0,0,0,.36.81l-0.44.71q-0.94-.33-1.88-0.7l-0.46-1.06a1.07,1.07,0,0,0,.43-1v-6a1.61,1.61,0,0,0-.94.19,5.61,5.61,0,0,0-1-1v6.17a3.47,3.47,0,0,0,0,.4,2.35,2.35,0,0,0,.35.84l-0.42.67q-0.94-.41-1.87-0.87l-0.39-1.09a1,1,0,0,0,.42-1V315.63a4.22,4.22,0,0,0-.06-0.53,1.9,1.9,0,0,0-.35-0.85l0.39-.69q0.93,0.46,1.87.87l0.42,1a1,1,0,0,0-.4.89v4l0.29,0.13,1.31,0.55,0.3,0.12v-3.83c0-.19,0-0.36,0-0.52a2.08,2.08,0,0,0-.35-0.86m-1.16,12h0Z" transform="translate(-368.16 -265.73)"/><path class="cls-2" d="M411.2,318.85v4.25l1.25-.28v-0.24a4.6,4.6,0,0,1,.38-2.08,1.05,1.05,0,0,1,.61-0.55v10.3c0,0.15,0,.31,0,0.46a1.11,1.11,0,0,1-.31.65l-0.13.1,0.54,1c0.7-.18,1.4-0.37,2.09-0.58l0.52-1.2-0.08-.05a1,1,0,0,1-.36-0.85V319.33a0.54,0.54,0,0,1,.6.21,3.28,3.28,0,0,1,.38,1.87v0.24l1.23-.41V317a52.82,52.82,0,0,1-6.69,1.87" transform="translate(-368.16 -265.73)"/><path class="cls-3" d="M418,316.79l-0.3.1a52.52,52.52,0,0,1-6.38,1.78l-0.31.06v4.55l0.31-.06,0.94-.21,0.31-.07v-0.39a4.38,4.38,0,0,1,.37-2,0.84,0.84,0,0,1,.32-0.38v10.13a2,2,0,0,1,0,.42h0a0.85,0.85,0,0,1-.23.52l-0.26.2,0.13,0.24,0.43,0.79,0.08,0.15,0.19-.05c0.64-.16,1.27-0.34,1.9-0.53l0.19-.06,0.09-.2,0.42-1,0.1-.22-0.15-.11a0.94,0.94,0,0,1-.31-0.75V319.45a0.39,0.39,0,0,1,.32.21,3.21,3.21,0,0,1,.36,1.8v0.39l0.3-.1,0.92-.31,0.3-.11v-4.55h0ZM411.36,319a52.7,52.7,0,0,0,6.38-1.78v3.94l-0.92.31v-0.09a3.48,3.48,0,0,0-.4-1.93,0.69,0.69,0,0,0-.89-0.24v10.63a1.16,1.16,0,0,0,.4.93l-0.42,1c-0.63.19-1.26,0.36-1.9,0.53l-0.43-.79a1.25,1.25,0,0,0,.39-0.77,2.29,2.29,0,0,0,.05-0.5V319.72a1.3,1.3,0,0,0-.9.75,4.75,4.75,0,0,0-.4,2.15v0.09l-0.94.21V319h0Z" transform="translate(-368.16 -265.73)"/><path class="cls-1" d="M414.58,297.63c2.14-.94,4.59-2.15,6-3.79,0.85-1,2.49-3.57,2.07-6.18-0.17-1.08-2.33-2.48-7.61-.47-5.72,2.18-9.58,4.93-9.29,5.08l0.23,0s-0.11,0-.14.12a0.69,0.69,0,0,1-.5-1l0,0a9.41,9.41,0,0,1-1,.52l0.13,8.44a46.48,46.48,0,0,0,10.11-2.74" transform="translate(-368.16 -265.73)"/><path class="cls-3" d="M402.19,305.84s3.83,0.75,4.33.94a3,3,0,0,1,1.54,1.79,1.45,1.45,0,0,0,1.39-1.39,9.24,9.24,0,0,0-2-1.8c-0.59-.2-4.67-0.82-4.67-0.82Z" transform="translate(-368.16 -265.73)"/><path class="cls-3" d="M403,304.9c1.25,0.19,4,.63,4.39.77a7.89,7.89,0,0,1,1.73,1.59,1.12,1.12,0,0,1-.87,1,3.25,3.25,0,0,0-1.62-1.75c-0.42-.17-3-0.68-4-0.88l0.35-.71m-1.27,1.17,0.4,0.08c1.53,0.3,3.93.79,4.27,0.93a2.67,2.67,0,0,1,1.37,1.6l0.07,0.21h0.22a1.75,1.75,0,0,0,1.7-1.67v-0.13l-0.09-.1a8.53,8.53,0,0,0-2.1-1.89c-0.59-.2-4.3-0.77-4.72-0.83l-0.23,0Z" transform="translate(-368.16 -265.73)"/><path class="cls-3" d="M421.07,287.19c-5.41-1.2-15,5.63-15,5.63l0.41,1.12c3.29-3.09,10.06-5.89,12-6.06,4.12-.75,2.89,3.13,2.89,3.13,1-1.77.86-3.44-.33-3.82" transform="translate(-368.16 -265.73)"/><path class="cls-3" d="M414.15,286.79a36.7,36.7,0,0,0-7.73,3.83c-0.2.22-.88,0.55-1,0.8a0.68,0.68,0,0,0,.5,1c0-.17.12-0.1,0.14-0.12l-0.23,0c-0.29-.15,3.57-2.9,9.29-5.08,5.27-2,7.43-.61,7.61.47,0.42,2.61-1.22,5.2-2.08,6.18-1.43,1.64-3.88,2.85-6,3.79-2.33,1-8.57,2.81-10.67,2.77,0,0.11,1.86.42,1.86,0.54s10.17-1.57,14-5.11c1.37-1.26,4.17-5.07,3.69-8.05-0.62-3.82-6.51-2-9.32-1" transform="translate(-368.16 -265.73)"/><path class="cls-3" d="M425,298.48a7.59,7.59,0,1,0-.5,10.72,7.6,7.6,0,0,0,.5-10.72" transform="translate(-368.16 -265.73)"/><path class="cls-3" d="M419,311a7.46,7.46,0,1,1,5.87-12.48l0.09-.08-0.09.08a7.41,7.41,0,0,1,1.94,5c0,0.12,0,.24,0,0.36A7.46,7.46,0,0,1,419,311m-4.84-13.16a7.72,7.72,0,1,0,12.9,6.07c0-.12,0-0.25,0-0.37a7.72,7.72,0,0,0-12.91-5.7" transform="translate(-368.16 -265.73)"/><path class="cls-4" d="M424.57,298.84a7.06,7.06,0,1,0-.47,10,7.07,7.07,0,0,0,.47-10" transform="translate(-368.16 -265.73)"/><path class="cls-3" d="M424.24,307.85l0.21-.93,0.66-2.7,0.29,0.35a2.37,2.37,0,0,1,.54,1.36v0.55l0.38-1.32v0a3.47,3.47,0,0,0-.49-0.87l-0.54-.64a3,3,0,0,1,.77-1.33,1.64,1.64,0,0,1,.23-0.17l0.05,0-0.13-.52-0.09,0a2,2,0,0,0-.41.29,3.36,3.36,0,0,0-.83,1.32l-0.64-.55a6.68,6.68,0,0,0,.43-3.63l0-.27h0l-0.89-.87,0.21,0.42a2.41,2.41,0,0,1,.22.79,6.21,6.21,0,0,1-.35,3.25c-0.31-.22-0.64-0.44-1-0.64,0.85-2.41-1.84-4.36-2.7-4.91l-0.65-.34a6.63,6.63,0,0,0-1.17.07l-0.59.09,0.59,0.07a3.61,3.61,0,0,1,1.54.55c0.76,0.48,3.15,2.19,2.52,4.21-0.48-.26-1-0.51-1.53-0.74-3.35-1.41-5-1.55-6.66-1.33a2.88,2.88,0,0,0-.71.19h0l-0.68,1.14,0.38-.34a2,2,0,0,1,1.1-.49c1.54-.21,3.14-0.07,6.39,1.29a16.67,16.67,0,0,1,1.53.74,3.37,3.37,0,0,1-.72,1,4.14,4.14,0,0,1-1.83.82l-0.74.21a48.94,48.94,0,0,1-5.08,1.09c-0.42.07-.94,0.12-1.29,0.14h-0.1l0.14,0.51h0.06l1.27-.14a49.68,49.68,0,0,0,5.15-1.11l0.72-.2a4.58,4.58,0,0,0,2-.94,3.92,3.92,0,0,0,.82-1.13c0.35,0.21.69,0.43,1,.66l-0.12.29a14.38,14.38,0,0,1-3.5,4.79,12.93,12.93,0,0,1-1.4,1.11,3.06,3.06,0,0,1-2.89.5l-0.77-.29,0.7,0.43a7,7,0,0,0,1.1.55,4,4,0,0,0,2.16-.76,13.13,13.13,0,0,0,1.44-1.14,14.92,14.92,0,0,0,3.64-5l0.07-.16,0.66,0.58v0c-0.44,1.66-.58,2.28-0.74,3l-0.21.93a4.37,4.37,0,0,1-1.37,2.16l-0.4.36,0.48-.23a7,7,0,0,0,1.06-.63,4.18,4.18,0,0,0,.72-1.53" transform="translate(-368.16 -265.73)"/><path class="cls-2" d="M404.22,299.53s2.55-.25,3.49-0.31a22.81,22.81,0,0,0,4-.75,5.65,5.65,0,0,0,1.18-1.81,15.88,15.88,0,0,0,.82-2.2l1-.24a4.44,4.44,0,0,1,2.81-.82A10,10,0,0,0,419,294.6l0.86,0.18a9.28,9.28,0,0,0,2.3,1.19,2.75,2.75,0,0,1-3.44.66c-1.62-.67-3.16,1.45-3.16,1.45a7.8,7.8,0,0,0,1.31.68,3.65,3.65,0,0,1,2.55,1,13.49,13.49,0,0,1-2.87,1,16.94,16.94,0,0,1-3.11-.69s-4.68.48-5.58,0.62a35.48,35.48,0,0,0-3.51,1Z" transform="translate(-368.16 -265.73)"/><path class="cls-3" d="M414.85,294.5l0.05,0a4.19,4.19,0,0,1,2.49-.76,8.63,8.63,0,0,0,1.53,1.19h0l0.84,0.18h0a9.39,9.39,0,0,0,1.86,1,2.56,2.56,0,0,1-2.78.25c-1.83-.75-3.46,1.46-3.52,1.56l-0.2.27,0.28,0.18a6.94,6.94,0,0,0,1.41.73h0.07a3.55,3.55,0,0,1,2,.6,12.91,12.91,0,0,1-2.31.76,16,16,0,0,1-3-.66l-0.07,0h-0.08c-0.19,0-4.7.48-5.59,0.62a29.32,29.32,0,0,0-3.19.89c0-.44-0.1-1.12-0.13-1.48l3.17-.28a22.1,22.1,0,0,0,4.13-.79,4.71,4.71,0,0,0,1.29-1.93,15.2,15.2,0,0,0,.79-2.08l0.91-.22m-0.27-.58-1.14.27-0.05.17a15.6,15.6,0,0,1-.79,2.15,4.86,4.86,0,0,1-1.06,1.68,24.44,24.44,0,0,1-3.85.7l-3.8.34,0,0.31,0.22,2.57,0.38-.12a35.3,35.3,0,0,1,3.46-1c0.82-.12,4.93-0.55,5.5-0.61a17.47,17.47,0,0,0,3.11.68h0.1a13.64,13.64,0,0,0,2.94-1l0.37-.19-0.29-.3a3.89,3.89,0,0,0-2.74-1.1,5.29,5.29,0,0,1-.88-0.45c0.44-.5,1.51-1.52,2.57-1.08a3.08,3.08,0,0,0,3.82-.77l0.23-.33-0.37-.14a8.72,8.72,0,0,1-2.19-1.13l-0.1-.06-0.87-.18a9.41,9.41,0,0,1-1.43-1.15l-0.08-.08h-0.11a4.75,4.75,0,0,0-3,.85" transform="translate(-368.16 -265.73)"/><path class="cls-3" d="M413.44,299.8a2.52,2.52,0,0,1-1.63-1.17l-6.18.93,0.7,1.39Z" transform="translate(-368.16 -265.73)"/><path class="cls-3" d="M419.88,295.1a12,12,0,0,0-2.68-.33,2.49,2.49,0,0,0-2.26,1.12,2,2,0,0,1,1.78-1.5,24.42,24.42,0,0,1,3,.16Z" transform="translate(-368.16 -265.73)"/><path class="cls-3" d="M415.58,294a3.15,3.15,0,0,0-1.23,1.06v-0.28a1.72,1.72,0,0,1,.27-0.83Z" transform="translate(-368.16 -265.73)"/><path class="cls-3" d="M384.2,286.19a36.74,36.74,0,0,1,10.37,4.12,1,1,0,0,1,.43.48,0.5,0.5,0,0,1-.33.89,29.34,29.34,0,0,0-11.16-4.85c-2.23-.44-8.73-1.24-9.58.54-2,4.16,6.81,10.36,6.81,10.36,2.62,0.55,10.44,1.63,13,1.47a4.88,4.88,0,0,0,0,.49s-7.36-.15-8.76-0.33c-2.52-.33-5.42-1-7.17-2.75-7.68-7.62-7.54-13.57,6.4-10.42" transform="translate(-368.16 -265.73)"/><path class="cls-1" d="M394.58,291.59a30.4,30.4,0,0,0-11.06-4.75c-2.22-.44-8.73-1.24-9.58.54-2,4.16,6.81,10.36,6.81,10.36,0.44,0.09,1,.2,1.7.31,1.77-.08,5.3-0.15,6.63.43a9.18,9.18,0,0,0,3.75.67l3.56-2.62Z" transform="translate(-368.16 -265.73)"/><path class="cls-3" d="M394.27,292.66a30.94,30.94,0,0,0-14.39-5.4c-0.83-.06-1.91,0-2.79,0a33.21,33.21,0,0,1,17,6.74Z" transform="translate(-368.16 -265.73)"/><path class="cls-3" d="M394.63,292.81s-0.06,0,0,0" transform="translate(-368.16 -265.73)"/><path class="cls-2" d="M406.77,300.16c-0.35-1-1.9-1.65-2.92-2a7.52,7.52,0,0,0-2.2-.55c-1.32-.07-2.64-0.11-4-0.11-0.46,0-2.89.19-3.3-.27a9.1,9.1,0,0,0-2,2.26,7.12,7.12,0,0,0-.54,3.39c0.14,1.28,1.26,1.8,2,2.71a11.88,11.88,0,0,1-1.44.54l0.1,0.11a3.78,3.78,0,0,0-.7.37,5.52,5.52,0,0,0-2.24,3.54,4.59,4.59,0,0,0,1.57,4.64c0.16,0.14.63,0.7,0.79,0.83a6.6,6.6,0,0,1-.42-1.13,7.94,7.94,0,0,1,1.76-4.44,9,9,0,0,1,3.55-2.24,6.32,6.32,0,0,0,.83.13c0.71,0.05,1.41,0,2.11.07a2.69,2.69,0,0,0,1.46,0,0.72,0.72,0,0,0-.3-0.58c0.21,0,.42.08,0.63,0.14a6,6,0,0,0-.94-0.32,1.6,1.6,0,0,1-.39-0.25,8.86,8.86,0,0,0,4.6-1.62c1.45-1.27,2.66-3.26,2-5.23" transform="translate(-368.16 -265.73)"/><path class="cls-3" d="M395.19,297.57l0,0,0,0" transform="translate(-368.16 -265.73)"/><path class="cls-3" d="M406,298.56a1.64,1.64,0,0,0-.8-0.44,3.47,3.47,0,0,0-.76.38l0,0.06c1.53,0.18,2.44,2.17,1.93,4.1a5.64,5.64,0,0,1-3.73,3.78,11,11,0,0,1-4.11.43c-0.68,0-1.2-.08-1.61-0.13,0.8,0.18,1.4.18,2.23,0.32a7,7,0,0,0,4.7-.59c3-1.28,4.69-5.68,2.12-7.91" transform="translate(-368.16 -265.73)"/><path class="cls-3" d="M392,303a5.85,5.85,0,0,1-2.45,1.19,8.18,8.18,0,0,1-2.24.42c-0.62,0-.8-0.09-1.14.54a2.63,2.63,0,0,0-.48,1.41c0.11,1.18,1,1.68,1.5.69a1.69,1.69,0,0,1,1.25-1.05,27.25,27.25,0,0,0,3-.82c0.48-.16,1.75,0,1.44-0.35-1.15-1.45-.79-1.7-0.81-2" transform="translate(-368.16 -265.73)"/><path class="cls-3" d="M394.64,297.4a2.74,2.74,0,0,1-.68.52,4.36,4.36,0,0,0-.93.88,4.56,4.56,0,0,0-1,2.19,4.89,4.89,0,0,0,2.24,4.87,3.37,3.37,0,0,1-2.79-2.78,5.56,5.56,0,0,1,.93-4.67c0.47-.62,1.68-2.06,2.39-0.81" transform="translate(-368.16 -265.73)"/><path class="cls-3" d="M387,297.64s2.89,0.92,4.51,1.46,3.08,0.82,3.21.86a0.67,0.67,0,0,1,.54.79,0.92,0.92,0,0,1-1.24.58c-0.41-.12-2.71-0.61-3.2-0.73s-4.22-.47-4.22-0.47Z" transform="translate(-368.16 -265.73)"/><path class="cls-3" d="M387.22,298l4.17,1.35a30.89,30.89,0,0,0,3,.81l0.23,0.05a0.36,0.36,0,0,1,.33.36,0.56,0.56,0,0,1,0,.1,0.34,0.34,0,0,1-.16.26,0.91,0.91,0,0,1-.69.07c-0.26-.08-1.2-0.28-2-0.46l-1.2-.27c-0.43-.11-3-0.36-3.94-0.45l0.3-1.8m-0.55-.46-0.47,2.82,0.33,0c1.49,0.14,3.83.38,4.18,0.46l1.22,0.27c0.77,0.17,1.73.38,2,.45a1.55,1.55,0,0,0,1.21-.14,1,1,0,0,0,.44-0.7,1,1,0,0,0-.73-1.12l-0.3-.07a30.16,30.16,0,0,1-2.93-.79l-4.86-1.57Z" transform="translate(-368.16 -265.73)"/><path class="cls-3" d="M388.32,298.39s2.28,0.58,3.53,1,3.2,0.88,3.29.91a1,1,0,0,1,0,.73c-0.06.48-.31,0.53-0.63,0.44s-2.81-.82-3.2-0.92-3.25-.66-3.25-0.66Z" transform="translate(-368.16 -265.73)"/><path class="cls-3" d="M400,308a4.63,4.63,0,0,0-2.58-1.23,4,4,0,0,0,1.3.06,10.73,10.73,0,0,1,1.58.09,3.14,3.14,0,0,1,1.33.5c0.85,0.64-.62.95-1.06,0.65" transform="translate(-368.16 -265.73)"/><path class="cls-3" d="M412.68,315.75a9.24,9.24,0,0,1-2.24,0,5.83,5.83,0,0,1-3.54-1.46,6.83,6.83,0,0,1-1.22-2.43,11.53,11.53,0,0,0-.86-2,5.57,5.57,0,0,0-3.91-2.88,6.28,6.28,0,0,1-1.15,0l-1,0a6.75,6.75,0,0,1,2.79.54,8.45,8.45,0,0,0-8.32,2.28,7.76,7.76,0,0,0-1.72,4.67,1.15,1.15,0,0,0,.06.54,3.81,3.81,0,0,1-.46-0.48c-1.3-1.46-1.81-2.23-1.53-4.16a5.93,5.93,0,0,1,2.22-3.79,5.57,5.57,0,0,1,2.54-.78c-0.22-.16-1-0.78-1.31-1a5.26,5.26,0,0,0-3.51,2.83,7.64,7.64,0,0,0-.16,5.7c1.91,4.68,7.88,5.5,12.32,5.5a23.34,23.34,0,0,0,6.91-1,11.92,11.92,0,0,0,4.1-2.15" transform="translate(-368.16 -265.73)"/><path class="cls-2" d="M404.47,317.92a17.49,17.49,0,0,0,3.15-.54,29.86,29.86,0,0,0,3.27-1.12,8.22,8.22,0,0,1-4.3-1.31,2.85,2.85,0,0,1-.67-0.57,7.12,7.12,0,0,1-1.05-2.2,7.74,7.74,0,0,0-1.82-3.37c-1.3-1.3-3.26-1.75-5.54-2-0.65-.06-4.68,0-6.26,1.64a4.64,4.64,0,0,0-1.67,3.55c0,1.38,1.67,3,2.35,3.61a6.93,6.93,0,0,0,2.91,1.65,19.3,19.3,0,0,0,4.51.76c1.4,0.06,2.54.05,2.75,0.05a15.32,15.32,0,0,0,2.39-.19" transform="translate(-368.16 -265.73)"/><path class="cls-3" d="M393.16,305.63a8.89,8.89,0,0,0-2.07,1,6,6,0,0,0-1.39,6.61,4.49,4.49,0,0,1,1.18-4.46,7.17,7.17,0,0,1,5.21-2.21,18.46,18.46,0,0,1-1.91-.88,0.8,0.8,0,0,0-1-.1" transform="translate(-368.16 -265.73)"/><path class="cls-3" d="M394.4,306l-0.07-.08-0.17-.08Z" transform="translate(-368.16 -265.73)"/><path class="cls-3" d="M385.8,306.05s-0.06-1.74.92-1.74a9.76,9.76,0,0,0,3.85-.87,6.79,6.79,0,0,0,1.46-.92l0.11,0.87a15.88,15.88,0,0,1-3.47,1.25c-1.52.27-1.68-.06-2,0.54s-0.81,1.79-.81,1.79Z" transform="translate(-368.16 -265.73)"/><path class="cls-3" d="M386.67,307.75s0.59-1,.75-1.38,1.09-.49,3.09-1a8.9,8.9,0,0,0,2.17-.7l0.65,0.6s-2.11.59-3.47,0.87-1.82.22-2,.71a2.22,2.22,0,0,1-.45.7Z" transform="translate(-368.16 -265.73)"/><path class="cls-3" d="M387.72,313.82a1.6,1.6,0,0,0-1.1-1.44c-0.62-.31-3,0-4-2.23a5.91,5.91,0,0,0-2.88-3.06c-3.12-1.39-5.06.46-5,.77-0.25-1.66,1.34-2.32,1.95-2.61a2.05,2.05,0,0,0-1.46.35c0-.51,1-1.43,2-1.81a4.93,4.93,0,0,1,4.17.17,5.43,5.43,0,0,1,1.92,1.52c0.2,0.25.38,0.56,0.51,0.69,0.29-1.16.85-1.42,1.21-1.26,0.7,0.12.53,1.83,0.77,2.38,0.58,1.34,1.27-.08,2,0.29a0.85,0.85,0,0,1,0,1.18c-0.41.42-.13,1.59-0.44,2.45a3.49,3.49,0,0,1-1.2,0c0.58,0.41,1.73.17,1.83,1.24a2.5,2.5,0,0,1-.33,1.38m0.79-1.75a1.21,1.21,0,0,0-.51-0.67c0.23-.55-0.09-1.74.19-2.15,0.41-.6.91-1.88-0.4-2.21a1.85,1.85,0,0,0-1,.16c-0.56.21-.44-0.41-0.52-0.92s-0.21-1.79-1.3-2.11a1,1,0,0,0-1.22.81,5.74,5.74,0,0,0-3.67-2.11c-2.67-.59-5.27.93-5.5,3.19a2.19,2.19,0,0,0-.34,2.33c1.43,3.5,10.67,7.93,13.32,6.24a2.16,2.16,0,0,0,.74-1.06,2.94,2.94,0,0,0,.18-1.49" transform="translate(-368.16 -265.73)"/><path class="cls-3" d="M377.72,293.57s-7.47-7.47,2.16-6.31l4.1,1.4s-12.4-3.89-6.26,4.9" transform="translate(-368.16 -265.73)"/><path class="cls-3" d="M419.83,305.28c-1-.61-4.87.27-5.65,3.54a4.11,4.11,0,0,1-2,2.68s-3.74,1.35-3.79,2.74a2.29,2.29,0,0,1-.51-1.34C407.84,312,410,311,410,311a7.05,7.05,0,0,0-1.82.36c-0.49-.8-0.32-1.62-0.81-2a0.87,0.87,0,0,1-.24-1.18c0.69-.52,1.75.58,2.1-0.82,0.15-.6-0.62-2.14.18-2.43a1.22,1.22,0,0,1,1.34.49,1.28,1.28,0,0,1,.31.59c0.18-.3.29-0.73,0.42-1a6,6,0,0,1,5.39-2.79c1.31,0.15,2.42.86,2.53,1.37a3.05,3.05,0,0,0-1.67.13,4,4,0,0,1,2.05.6,2.09,2.09,0,0,1,.56,1.44,2.09,2.09,0,0,0-.56-0.61m1.15,1a2.59,2.59,0,0,0-.8-2.19c-0.85-2.12-3.75-2.55-5.91-1.73-1.86.7-3,1.91-3.1,2.62a1.71,1.71,0,0,0-1.81-.68c-1,.55-0.66,1.84-0.63,2.52a0.76,0.76,0,0,1-.45.94,6.42,6.42,0,0,0-1.14,0c-0.95.29-.73,1.88-0.15,2.26s0.38,1.38.72,1.88a1.58,1.58,0,0,0-.33.77c0,0.38.18,2,1.31,2.42,2.5,0.91,11.63-5.19,12.3-8.82" transform="translate(-368.16 -265.73)"/><path class="cls-2" d="M377.93,298.87a13.35,13.35,0,0,1-1.7,2.16s1.79,1.54,2.91-.25a3.66,3.66,0,0,0,.79-2.7,4.8,4.8,0,0,0-2,.79" transform="translate(-368.16 -265.73)"/><path class="cls-3" d="M379.63,298.46h0a3.36,3.36,0,0,1-.72,2.11l0,0,0,0a1.37,1.37,0,0,1-.94.7,1.85,1.85,0,0,1-1.21-.33,16.12,16.12,0,0,0,1.45-1.91,3.66,3.66,0,0,1,1.46-.62m0.24-.69a4.9,4.9,0,0,0-2.16.88l0,0,0,0a12.48,12.48,0,0,1-1.64,2.08l-0.29.23,0.28,0.25a2.83,2.83,0,0,0,2,.67,1.94,1.94,0,0,0,1.34-.95,3.89,3.89,0,0,0,.89-2.51,3.7,3.7,0,0,0,0-.42l0-.33Z" transform="translate(-368.16 -265.73)"/><path class="cls-2" d="M382,296.56s-2,0-2.49.08-1.49,1.62-3.2,2.57a1.63,1.63,0,0,0,2.24.5c1.58-1.08,2.12-.79,2.7-1.2a3.6,3.6,0,0,0,.75-2" transform="translate(-368.16 -265.73)"/><path class="cls-3" d="M378.84,297.61a3.79,3.79,0,0,1,.76-0.66c0.32-.05,1.4-0.07,2.07-0.08a2.56,2.56,0,0,1-.56,1.38,1.63,1.63,0,0,1-.61.24,5.75,5.75,0,0,0-2.08,1,1.17,1.17,0,0,1-1.59-.18,11.91,11.91,0,0,0,2-1.67m3.2-1.36c-0.21,0-2,0-2.54.09a2.61,2.61,0,0,0-1.1.83,10.38,10.38,0,0,1-2.2,1.78l-0.3.17,0.2,0.28a1.89,1.89,0,0,0,2.67.58,5.16,5.16,0,0,1,1.88-.87,2.25,2.25,0,0,0,.82-0.33,3.68,3.68,0,0,0,.88-2.17l0-.35H382Z" transform="translate(-368.16 -265.73)"/><path class="cls-2" d="M382.7,299.55s-1.11,3.12-3,1.83a14,14,0,0,0,.57-1.87c0.13-.7,0-2,0.5-2.49a9.49,9.49,0,0,1,2.92-1.85c0.48,0,2.71,1.89,3.37,2.23,1.46,0.73,1.78,1.65,1.74,2a5.82,5.82,0,0,1-1.68,2.56,12.41,12.41,0,0,1-1.24,1,1.87,1.87,0,0,1-.54-1.91,2.45,2.45,0,0,1,.47-0.83l0.11-.12h-0.08a3,3,0,0,1-3.12-.54" transform="translate(-368.16 -265.73)"/><path class="cls-3" d="M380.56,299.56l0.08-.78a3.17,3.17,0,0,1,.33-1.54,9.9,9.9,0,0,1,2.7-1.76,11.48,11.48,0,0,1,1.84,1.24,13.27,13.27,0,0,0,1.38,1,2.43,2.43,0,0,1,1.57,1.63v0a5.46,5.46,0,0,1-1.59,2.37,10.76,10.76,0,0,1-1,.83,1.55,1.55,0,0,1-.38-0.95,1.13,1.13,0,0,1,.08-0.42,2.46,2.46,0,0,1,.39-0.72l0.57-.56-0.79-.1-0.08,0a2.68,2.68,0,0,1-2.78-.47l-0.35-.35-0.16.46a3.35,3.35,0,0,1-1.51,1.89,1.07,1.07,0,0,1-.83-0.1,12.21,12.21,0,0,0,.49-1.67m3.1-4.71c-0.74,0-2.76,1.58-3.13,1.94a3.23,3.23,0,0,0-.51,1.93l-0.07.72a13.4,13.4,0,0,1-.55,1.82l-0.09.23,0.2,0.14a1.76,1.76,0,0,0,1.59.28,3.48,3.48,0,0,0,1.73-1.88,3.12,3.12,0,0,0,2.36.53c-0.05.1-.1,0.21-0.16,0.35a1.76,1.76,0,0,0-.13.66,2.41,2.41,0,0,0,.75,1.6l0.19,0.17,0.21-.15a11.91,11.91,0,0,0,1.28-1.07,6,6,0,0,0,1.77-2.75c0-.43-0.3-1.46-1.92-2.27a14.48,14.48,0,0,1-1.28-.9c-1.28-1-1.88-1.37-2.23-1.36" transform="translate(-368.16 -265.73)"/><path class="cls-3" d="M382.23,299.93s0.28-1.08.4-1.75a5.64,5.64,0,0,1,1.1-.78,1.47,1.47,0,0,1,.92.44l-0.49-.08a2.31,2.31,0,0,0-.89.53,8.25,8.25,0,0,1-.41,1.53Z" transform="translate(-368.16 -265.73)"/><path class="cls-3" d="M386.35,300.07a2.19,2.19,0,0,0,.48-0.48,1.28,1.28,0,0,1-1.56-1.06s-0.58,1.88,1.09,1.54" transform="translate(-368.16 -265.73)"/><path class="cls-3" d="M397,285.8c-2.29-1.27-4.93-1.27-6.7-1.51a2.31,2.31,0,0,1-1-.29s4.67-.32,7.84,1a10.38,10.38,0,0,1,3.42,2.47l-1.31.11s-0.32-.72-2.3-1.82" transform="translate(-368.16 -265.73)"/><path class="cls-3" d="M406.15,285.74c2.18-1.21,4.92-1.29,6.69-1.5a2,2,0,0,0,.85-0.23s-4.67-.32-7.84,1a10.41,10.41,0,0,0-3.42,2.47l1.31,0.11a6.61,6.61,0,0,1,2.43-1.88" transform="translate(-368.16 -265.73)"/><path class="cls-3" d="M395.26,297.35l0,0,0,0" transform="translate(-368.16 -265.73)"/><path class="cls-3" d="M408.43,294.74a10.13,10.13,0,0,0-.67-1.68,2.91,2.91,0,0,0-.69-4.47,2.3,2.3,0,0,0-1-1.17,2.92,2.92,0,0,0-2.23-.09c-0.9-.45-2.37-0.71-4.63.09a4.57,4.57,0,0,0-1.71-.42,3.66,3.66,0,0,0-3.9,3.25,3.61,3.61,0,0,0,.07,1.4,1.43,1.43,0,0,0,.14.34,2.63,2.63,0,0,0-1.26,3.16c0.32,1.33,1.38,3.57,7.35,3.75,7.89,0.23,9.66-2.69,9.66-2.69a18.42,18.42,0,0,1-1.13-1.46" transform="translate(-368.16 -265.73)"/><path class="cls-2" d="M400.63,299c-2.21.18-5.12-1.32-6-2a2.83,2.83,0,0,1-1.17-3.51,3.49,3.49,0,0,1,1.08-.81l0,0a3.58,3.58,0,0,1,.08-3.68,3.37,3.37,0,0,1,3.76-1.26,10.26,10.26,0,0,1,2.08.65,3.37,3.37,0,0,0-.59-0.54c0.63-.25,3.25-1.13,5.15.55a2.52,2.52,0,0,0-.61-0.66,1.94,1.94,0,0,1,2.44,1.74,2.62,2.62,0,0,1-.16,1.61,2.4,2.4,0,0,1-1,1.07c0.17,0.09.53,0.22,0.53,0.23,1,0.5,1.53,2.3,1.7,2.94,0.35,0.52.61,0.87,0.61,0.87-1,1.46-5.73,2.63-7.95,2.81" transform="translate(-368.16 -265.73)"/><path class="cls-3" d="M395.67,294.52a45.82,45.82,0,0,1,4.9,2.59,15.32,15.32,0,0,0-4.05-.12,5.22,5.22,0,0,1-1.85-2.5,1.48,1.48,0,0,1,1,0" transform="translate(-368.16 -265.73)"/><path class="cls-3" d="M394.15,295a1.08,1.08,0,0,1,1.71-.65Z" transform="translate(-368.16 -265.73)"/><path class="cls-1" d="M395.45,294.9a6.32,6.32,0,0,0,.42.91h1a3.36,3.36,0,0,0-.7.38l0.34,0.37a12.79,12.79,0,0,1,2.39,0,21.83,21.83,0,0,0-3.43-1.68" transform="translate(-368.16 -265.73)"/><path class="cls-3" d="M396.53,288.84a7,7,0,0,1,4.69,1.94c1.59,1.59.08,3.59-2.62,3.78-2.49.18-4.47-1.23-4.47-3.12a2.38,2.38,0,0,1,2.4-2.61" transform="translate(-368.16 -265.73)"/><path class="cls-3" d="M404.17,292a5.75,5.75,0,0,1,.89-3.16c0.81-1.18,1.4-1.5,2.44-1.09s1.42,2.52,1.42,3.1a2.54,2.54,0,0,1-1.79,2.52c-1.65.39-2.24-.18-2.7-0.73a1.11,1.11,0,0,1-.26-0.63" transform="translate(-368.16 -265.73)"/><path class="cls-1" d="M397.79,289.72c-0.53-.15-0.81-0.09-0.85.21s0.23,0.45.9,0.53a10.38,10.38,0,0,1,2.77,1,5.67,5.67,0,0,0-2.82-1.71" transform="translate(-368.16 -265.73)"/><path class="cls-1" d="M406.6,288.77c0.39-.42.37-0.76-0.07-0.76a1.48,1.48,0,0,0-.92,1,7.82,7.82,0,0,0-.42,1.11c0.6-.55,1.11-1,1.41-1.34" transform="translate(-368.16 -265.73)"/><path class="cls-3" d="M403.12,308.74a6.45,6.45,0,0,0-1.67-.92,6.07,6.07,0,0,0-2-.36,10,10,0,0,0-5.4,2.15,6.87,6.87,0,0,0-2.11,4.21,6.07,6.07,0,0,0,0,1.83,6,6,0,0,0,1.24,1,6.11,6.11,0,0,0,1.67.7,5.89,5.89,0,0,1,2-7.18,7,7,0,0,1,6.4-1.25" transform="translate(-368.16 -265.73)"/><path class="cls-3" d="M404.75,311.67a4.06,4.06,0,0,0-2.76-.4,5.64,5.64,0,0,0-4.2,2.48,4.43,4.43,0,0,0-.15,4.23,1.72,1.72,0,0,0,.52.12c0.29,0,.92,0,1.2,0a3.68,3.68,0,0,1,1.24-4.34c2.49-2,4.54-1,4.54-1Z" transform="translate(-368.16 -265.73)"/><path class="cls-3" d="M405.92,314.38a5.48,5.48,0,0,0-1,0,3.49,3.49,0,0,0-2.39,1.48,2.37,2.37,0,0,0-.38,2.3l1.1,0c0.76,0,1.29-.12,1.29-0.12a2,2,0,0,1,.23-2.17,3,3,0,0,1,2-.94c-0.08,0-.28-0.21-0.4-0.3a1,1,0,0,1-.28-0.26" transform="translate(-368.16 -265.73)"/><path class="cls-1" d="M419.83,305.28c-1-.61-4.87.27-5.65,3.54a4.11,4.11,0,0,1-2,2.68s-3.74,1.35-3.79,2.74a2.29,2.29,0,0,1-.51-1.34C407.84,312,410,311,410,311a7.07,7.07,0,0,0-1.82.36c-0.49-.8-0.31-1.62-0.81-2a0.87,0.87,0,0,1-.24-1.18c0.69-.52,1.75.58,2.1-0.82,0.15-.6-0.63-2.14.18-2.43a1.22,1.22,0,0,1,1.34.49,1.32,1.32,0,0,1,.31.59c0.18-.3.29-0.73,0.42-1a6,6,0,0,1,5.38-2.79c1.31,0.15,2.42.86,2.53,1.37a3.05,3.05,0,0,0-1.67.13,4,4,0,0,1,2,.6,2.1,2.1,0,0,1,.56,1.44,2.09,2.09,0,0,0-.56-0.61" transform="translate(-368.16 -265.73)"/><path class="cls-3" d="M414.76,304.65a4.32,4.32,0,0,0-1.9,3.14l-0.13.5a2.66,2.66,0,0,1-2,2.14l-0.19.09c-0.36.16-.71,0.29-1.05,0.41a5.14,5.14,0,0,0-1.54.74,1.3,1.3,0,0,0-.62,1.06l0.49-.06h0a1,1,0,0,1,.45-0.63,4.67,4.67,0,0,1,1.39-.66c0.35-.13.71-0.26,1.09-0.43l0.18-.08a3.15,3.15,0,0,0,2.14-2.54l0.13-.5a3.89,3.89,0,0,1,1.82-2.81c1-.8,3.59-1.93,5-0.27l0.38-.32c-1.67-1.94-4.57-.7-5.71.2" transform="translate(-368.16 -265.73)"/><path class="cls-3" d="M407.82,310.41a2,2,0,0,1,.36-1.62s-0.69-.32-0.8,1Z" transform="translate(-368.16 -265.73)"/><path class="cls-3" d="M407.87,308.08a2.5,2.5,0,0,0,1.48.2,9.91,9.91,0,0,0,1.74-2.17l0.12-.89s-1.57,2.5-2.19,2.63l-0.59-.05Z" transform="translate(-368.16 -265.73)"/><path class="cls-1" d="M387.72,313.82a1.6,1.6,0,0,0-1.1-1.44c-0.62-.31-3,0-4-2.23a5.91,5.91,0,0,0-2.88-3.06c-3.12-1.39-5.06.46-5,.77-0.25-1.66,1.34-2.32,1.95-2.61a2,2,0,0,0-1.46.35c0-.51,1-1.43,2-1.81a4.93,4.93,0,0,1,4.17.17,5.42,5.42,0,0,1,1.92,1.52c0.2,0.25.38,0.56,0.51,0.69,0.29-1.17.85-1.42,1.21-1.26,0.7,0.12.53,1.83,0.77,2.38,0.58,1.34,1.27-.08,2,0.29a0.85,0.85,0,0,1,0,1.18c-0.41.42-.13,1.59-0.44,2.45a3.49,3.49,0,0,1-1.2,0c0.58,0.41,1.73.17,1.83,1.24a2.49,2.49,0,0,1-.33,1.38" transform="translate(-368.16 -265.73)"/><path class="cls-3" d="M387.37,307.52A2.5,2.5,0,0,1,386,308a10,10,0,0,1-2.11-1.82l0-.63s1.69,2,2.33,2l0.57-.16Z" transform="translate(-368.16 -265.73)"/><path class="cls-3" d="M374.71,308a2.1,2.1,0,0,1,1.1-2.26c1.44-.82,4.58-0.5,6.56,1.79,0.79,0.91.31,1.82,1.85,2.85,1.8,1.21,3.36.94,3.76,1.66l0-.64a14,14,0,0,0-1.52-.49,6.82,6.82,0,0,1-2.79-1.54c-0.57-.66-0.47-1.82-1.35-2.57s-4.17-3.26-7.5-.94l-0.56,1.29Z" transform="translate(-368.16 -265.73)"/><path class="cls-3" d="M387.59,309.93a2.43,2.43,0,0,0-.4-1.69s1,0,.8,1.53Z" transform="translate(-368.16 -265.73)"/><path class="cls-3" d="M398.65,302l0.63-.06,0.07,1.75-0.72.13-0.42-1h0l0,1.13-0.6.16-0.08-1.86,0.72-.14,0.39,1h0Z" transform="translate(-368.16 -265.73)"/><path class="cls-3" d="M400.64,301.83c0.88,0,.9.35,0.91,0.84s0,0.8-.84.88-0.89-.25-0.91-0.79,0-.91.84-0.92m0,0.3c-0.15,0-.17.08-0.15,0.56s0.05,0.55.2,0.54,0.17-.08.15-0.56,0-.55-0.2-0.54" transform="translate(-368.16 -265.73)"/><path class="cls-3" d="M401.78,301.87a5.93,5.93,0,0,1,.69.05l0,1.21,0.75,0c0,0.13,0,.2,0,0.33-0.57,0-.86,0-1.43,0,0-.63,0-0.94-0.06-1.57" transform="translate(-368.16 -265.73)"/><path class="cls-3" d="M404.69,303.37l-0.45,0-0.06.21-0.7,0c0.21-.57.33-0.9,0.54-1.44a6,6,0,0,1,.84.17l0.61,1.42-0.69-.07-0.08-.22m-0.25-.89h0l-0.13.56,0.31,0-0.17-.58" transform="translate(-368.16 -265.73)"/><path class="cls-4" d="M404.2,300.52a0.93,0.93,0,0,1,.38-0.72c-0.14-.21-0.28-0.42-0.43-0.62a8,8,0,0,1-1.77.14c-0.1.19-.21,0.38-0.32,0.57a1,1,0,0,1,.34.55c0,0.1,0,.56.07,0.67a17.93,17.93,0,0,0-1.89,0,2.39,2.39,0,0,1,.33-1.06c-0.17-.2-0.36-0.39-0.55-0.59a11.81,11.81,0,0,1-1.9-.09c-0.08.23-.17,0.46-0.27,0.69a1.17,1.17,0,0,1,.48.49,0.4,0.4,0,0,1,.08.23c0,0.17,0,.76,0,0.94a16,16,0,0,1,5.27.11l0.18,0v-0.71c0-.27,0-0.44,0-0.61" transform="translate(-368.16 -265.73)"/><path class="cls-4" d="M404.16,303.79a20.85,20.85,0,0,0-5.44.25s0,0.41-.07.5a1.82,1.82,0,0,1-.76,1c0.06,0.22.11,0.44,0.15,0.66a9.28,9.28,0,0,0,2-.11l0.68-.73a0.62,0.62,0,0,1-.19-0.49s0-.6,0-0.65a11,11,0,0,1,1.82-.1,1.57,1.57,0,0,1-.58,1.1s0.18,0.38.25,0.58a13.12,13.12,0,0,0,1.78-.39l0.59-.69a1.31,1.31,0,0,1-.2-0.59" transform="translate(-368.16 -265.73)"/></svg>