<svg id="Layer_1" data-name="Layer 1" xmlns="http://www.w3.org/2000/svg" viewBox="0 0 79.7 72.75"><defs><style>.cls-1{fill:#1e3160;}.cls-2{fill:#fff;}.cls-3{fill:#0a7ec2;}.cls-4{fill:#f05333;}.cls-5{fill:#fcbb30;}</style></defs><title>oklahoma-city-thunder</title><path class="cls-1" d="M373.56,293.79l2.21-1.08-9.34-19.16,2.21-1.08-1.08-2.22-6.64,3.24,1.08,2.21,2.22-1.08Zm4.91-2.41,2.34-.76-3.29-10.13,2.34-.76,3.29,10.14,2.34-.76-7.35-22.62-2.34.76,3.29,10.14-2.34.76L373.47,268l-2.34.76Zm12.38-27.3-2.44.38,3.33,21.05-2.43.38L386,264.85l-2.44.39,3.17,20a3.7,3.7,0,0,0,7.3-1.16ZM396,287.4l2.46,0,0.12-6.89c0-2.1-.09-6.33-0.19-8.33h0.07c0.64,5.31,1.82,10.26,2.6,15.27l2.33,0,0.42-23.78-2.46,0-0.12,6.89c0,2.1.09,6.33,0.18,8.33h-0.06c-0.64-5.31-1.82-10.26-2.6-15.26l-2.33,0Zm9.2,0.18,4.87,0.77a2.46,2.46,0,0,0,2.82-2l2.95-18.62a2.46,2.46,0,0,0-2-2.82l-4.87-.77ZM411,266.91l2.43,0.39-2.95,18.62-2.44-.39Zm17.34,1.91-4.69-1.52a2.46,2.46,0,0,0-3.11,1.58l-5.83,17.93a2.46,2.46,0,0,0,1.58,3.11l4.69,1.52,0.76-2.34-4.69-1.52,2.53-7.79,3.52,1.14,0.76-2.34-3.51-1.14,2.53-7.79,4.69,1.52Zm-6.24,23.12,10.45-21.43,4.44,2.17a2.47,2.47,0,0,1,1.14,3.3l-3.85,7.9a1.66,1.66,0,0,1-2.33,1l-2.64,10.6-2.22-1.08,2.65-10.6-0.72-.35-4.69,9.6Zm11.59-18.12-3.6,7.38,2.22,1.08,3.6-7.38Z" transform="translate(-360.15 -263.62)"/><path class="cls-2" d="M375.42,326.75a4.21,4.21,0,0,1-.73-0.13c-2.48-1.08-1.2-3.65-.45-5.33q1.44-3.23,3-6.43-8.06,2.52-15.66,5.28c-1.27.54-2-.31-0.58-1.17a118.11,118.11,0,0,1,17-8.88,52.51,52.51,0,0,1-3.59-10l-0.7-2.83c8.89-4.58,16.41-7.11,26.51-7.11s17.61,2.53,26.51,7.11q-0.25,1-.52,2a114.53,114.53,0,0,1,12.88.26,0.66,0.66,0,1,1,0,1.31q-6.91,1-14.06,2.27-0.45,1.37-.94,2.68a115.68,115.68,0,0,1,14.86-2.19c1.24-.11,1.25,1.07.25,1.29q-8.44,2.59-17.16,5.73c-4.94,10.21-12.19,17-21.84,22.84a63.53,63.53,0,0,1-11.8-8.92c-7.93,3.71-15.53,7.58-22.72,11.56-1.09.69-2.07,0.09-.76-1.07a115,115,0,0,1,10.57-8.26" transform="translate(-360.15 -263.62)"/><path class="cls-3" d="M365.29,335.51a116.94,116.94,0,0,1,15.35-11.41l3.19-1.6,2.38-1.15q1.09,1.22,2.26,2.38c-8.1,3.78-15.84,7.72-23.17,11.78M423,306.68a116.4,116.4,0,0,1,16-2.43q-8.58,2.63-17.45,5.83c0.53-1.1,1-2.23,1.49-3.4" transform="translate(-360.15 -263.62)"/><path class="cls-4" d="M361.3,319.53a117.67,117.67,0,0,1,17.5-9.1c0.21,0.42.43,0.85,0.65,1.26l-1,2.09q-8.83,2.73-17.13,5.74M425.23,300a114.28,114.28,0,0,1,13.7.22q-7.11,1-14.47,2.34,0.4-1.26.77-2.56" transform="translate(-360.15 -263.62)"/><path class="cls-2" d="M400.12,292.42c8.93,0,15.93,2.09,23.83,6C420.09,313,413,322.81,400.12,330.77a56.68,56.68,0,0,1-12.4-10.14l4.77-2.26c0.61,0.06,1.2.09,1.75,0.1a2.79,2.79,0,0,1-.72,1.9l0.75,0.84a3.63,3.63,0,0,0,1.13-2.73,23.51,23.51,0,0,0,4.49-.49c-0.08,2.3-.4,4-1.05,4.66l0,0.06c-0.16.17-.31,0.32-0.44,0.43,0.63-.12,1.25-0.26,1.86-0.44a14.18,14.18,0,0,0,.81-5c1.46-.37,2.76-0.74,3.94-1.14a3.42,3.42,0,0,0,1.61,3.1c0.46-.32.91-0.67,1.34-1-0.26,0-1.88.15-1.86-2.46a17.17,17.17,0,0,0,7.63-5.18,20.72,20.72,0,0,0,1.23-3.67c-2.35,3.71-4.52,5.87-8.75,7.57a18.73,18.73,0,0,1,.69-2.71c1.23-.52,2.52-1.13,3.3-1.45l1.85-1.94q0.7-2.69,1.39-5.39l-1.45.45,1.7-1.79q0.53-2.11,1.06-4.22l-2.56.38a17.36,17.36,0,0,0,.3-2.09l-1.24-.3a21.54,21.54,0,0,1-.47,2.61l-0.12,0a4.69,4.69,0,0,0-2.33,1l0.23-.69c-1.37.25-2.74,0.5-4.1,0.76L403.06,301l0-.12,0.44-1.14-4,.85c-0.28-1.82-.56-3.47-0.81-4.8l-1.14.15c0.25,1.35.54,3,.82,4.9l-1,.21-1.21,1.28c-0.85-.9-2.58-0.33-3.67-0.06s-2.36.61-3.54,0.92c-0.35.1-.7,0.2-1,0.32a29.85,29.85,0,0,1-2.4-4l-0.12-.26-1.06.45,0.15,0.31a29.48,29.48,0,0,0,2.34,3.92,10.18,10.18,0,0,0-3.46,2.47l-1.85,1.94a11.23,11.23,0,0,0-1.12,1.55,55.77,55.77,0,0,1-4.14-11.45c7.91-3.94,14.91-6,23.84-6M401,314.48l2.46-1.08,0.39-.4a2.08,2.08,0,0,0,.56,0,7.29,7.29,0,0,0,1.13-.31,16.22,16.22,0,0,0-.52,2.63c-1.17.41-2.48,0.8-4,1.18q0-1,0-2M395.31,317l0.77-.36,2-1.59,0.44-1.22c0.29,0.58.44,0.81,0.72,1.39l0.65-.29c0,0.63,0,1.24,0,1.82a22.19,22.19,0,0,1-4.56.53Z" transform="translate(-360.15 -263.62)"/><path class="cls-4" d="M404.93,295.4a52,52,0,0,1,5.58.3q2.09,0.44,4.15,1.06a21.1,21.1,0,0,1,.25,10.57c-2.35,3.71-4.52,5.87-8.75,7.57a18.73,18.73,0,0,1,.69-2.71c1.23-.52,2.52-1.13,3.3-1.45l1.85-1.94q0.7-2.69,1.39-5.39l-1.45.45,1.7-1.79q0.53-2.11,1.06-4.22l-2.56.38a17.36,17.36,0,0,0,.3-2.09l-1.24-.3a21.55,21.55,0,0,1-.47,2.61l-0.12,0a4.69,4.69,0,0,0-2.33,1l0.23-.69c-1.37.25-2.74,0.5-4.1,0.76L403.06,301l0-.12,0.44-1.14-4,.85c-0.28-1.82-.56-3.47-0.81-4.8a52,52,0,0,1,6.24-.37m8.75,15.6a21.07,21.07,0,0,1-5.77,7.64c-0.26,0-1.88.15-1.86-2.46a17.17,17.17,0,0,0,7.63-5.18m-7.11,8.66a20.84,20.84,0,0,1-6.35,3,14.2,14.2,0,0,0,.81-5c1.46-.37,2.76-0.74,3.94-1.14a3.42,3.42,0,0,0,1.61,3.1m-8.22,3.46c-0.64.12-1.3,0.21-2,.27q-1.1-1.07-2.12-2.19a3.62,3.62,0,0,0,1.13-2.73,23.43,23.43,0,0,0,4.49-.49c-0.08,2.3-.4,4-1.05,4.66l0,0.06c-0.16.17-.31,0.32-0.44,0.43m-4.83-2.77q-0.76-.87-1.48-1.78l0.46-.22c0.61,0.06,1.2.09,1.75,0.1a2.79,2.79,0,0,1-.72,1.9m-9.08-15q-1-2.43-1.69-5,0.8-.38,1.61-0.73l0.15,0.31a29.29,29.29,0,0,0,2.34,3.92,10.53,10.53,0,0,0-2.41,1.47m1-6.16a51.09,51.09,0,0,1,12.12-3.32c0.25,1.35.54,3,.82,4.9l-1,.21-1.21,1.28c-0.85-.9-2.58-0.33-3.67-0.06s-2.36.61-3.54,0.92c-0.35.1-.7,0.2-1,0.32a29.88,29.88,0,0,1-2.4-4ZM401,314.48l2.46-1.08,0.39-.4a2.08,2.08,0,0,0,.56,0,7.29,7.29,0,0,0,1.13-.31,16.22,16.22,0,0,0-.52,2.63c-1.17.41-2.48,0.8-4,1.18q0-1,0-2M395.31,317l0.77-.36,2-1.59,0.44-1.22c0.29,0.58.44,0.81,0.72,1.39l0.65-.29c0,0.63,0,1.24,0,1.82a22.19,22.19,0,0,1-4.56.53Z" transform="translate(-360.15 -263.62)"/><path class="cls-5" d="M400.51,328.34a51.22,51.22,0,0,1-10.1-9l1.63-.77q0.72,0.91,1.48,1.78l0.75,0.84a51.11,51.11,0,0,0,7.18,6.51l-0.94.63M382.63,307.2a53,53,0,0,1-2.79-7.56,51.13,51.13,0,0,1,20.74-5,50.56,50.56,0,0,1,9.93,1.06,52.47,52.47,0,0,0-11.83.07l-1.14.15a51,51,0,0,0-12.12,3.32l-1.07.45q-0.81.35-1.61,0.73,0.73,2.55,1.69,5a9.49,9.49,0,0,0-1.05,1Z" transform="translate(-360.15 -263.62)"/><path class="cls-1" d="M374.38,297.58c8.55-4.4,16.05-6.8,25.74-6.8s17.19,2.4,25.74,6.8c-4,16-11.55,26.6-25.74,35.1a59.38,59.38,0,0,1-13.92-11.33l-2.38,1.15-4,2c-1.5.77-3.17,1.93-4.91,1.48-1.89-.82-0.65-3.12-0.07-4.43q2.21-5,4.61-9.87a51.31,51.31,0,0,1-4.5-11.8Zm25.74-5.16c-8.93,0-15.94,2.09-23.84,6a55.7,55.7,0,0,0,4.14,11.45,11.29,11.29,0,0,1,1.13-1.55l1.84-1.94a10.18,10.18,0,0,1,3.46-2.47,29.4,29.4,0,0,1-2.34-3.92l-0.15-.31,1.06-.45,0.12,0.26a30,30,0,0,0,2.4,4c0.34-.12.69-0.22,1-0.32q1.76-.48,3.54-0.92c1.09-.27,2.82-0.84,3.67.06l1.22-1.28,1-.21c-0.28-1.87-.57-3.55-0.82-4.9l1.15-.15c0.25,1.33.53,3,.81,4.8l4-.85-0.44,1.14,0,0.12,1.36-1.43c1.37-.27,2.73-0.52,4.1-0.76l-0.23.69a4.68,4.68,0,0,1,2.33-1l0.12,0a21.34,21.34,0,0,0,.47-2.61l1.24,0.3a17.54,17.54,0,0,1-.3,2.09l2.56-.38q-0.53,2.11-1.06,4.22l-1.7,1.79,1.45-.45q-0.69,2.69-1.39,5.39l-1.85,1.94c-0.77.32-2.06,0.94-3.3,1.45a18.61,18.61,0,0,0-.69,2.71c4.23-1.7,6.39-3.86,8.75-7.57a20.8,20.8,0,0,1-1.23,3.67,17.16,17.16,0,0,1-7.63,5.18c0,2.61,1.6,2.49,1.86,2.46-0.43.36-.88,0.7-1.34,1a3.42,3.42,0,0,1-1.61-3.1c-1.17.4-2.47,0.77-3.94,1.14a14.17,14.17,0,0,1-.81,5c-0.61.17-1.23,0.32-1.86,0.44q0.19-.17.44-0.43l0-.06c0.65-.67,1-2.36,1.05-4.66a23.41,23.41,0,0,1-4.49.49,3.62,3.62,0,0,1-1.13,2.73l-0.75-.84a2.79,2.79,0,0,0,.72-1.9c-0.55,0-1.13,0-1.75-.1l-4.77,2.26a56.68,56.68,0,0,0,12.4,10.14c12.89-8,20-17.75,23.83-32.32-7.9-3.94-14.9-6-23.83-6M401,314.48c0,0.7,0,1.38,0,2,1.49-.38,2.8-0.76,4-1.18a16.26,16.26,0,0,1,.52-2.63,7.4,7.4,0,0,1-1.13.31,2.08,2.08,0,0,1-.56,0l-0.39.4L401,314.48M395.31,317l0,0.28a22.28,22.28,0,0,0,4.56-.53c0-.58,0-1.19,0-1.82l-0.65.29c-0.28-.58-0.44-0.81-0.73-1.39l-0.44,1.22-2,1.59Z" transform="translate(-360.15 -263.62)"/><path class="cls-2" d="M389.14,303.86a10.44,10.44,0,0,0-5.24,3,14.29,14.29,0,0,0-2,3.14q-2.41,4.9-4.62,9.89c-0.39.87-1.57,3-.31,3.52,1.39,0.36,3.13-.81,4.36-1.43l4-2a13.35,13.35,0,0,0,5.72-4.72,21.72,21.72,0,0,0,1.37-2.93q1.31-3.22,2.67-6.43a5,5,0,0,0,.74-2.69c-0.38-1.17-2.37-.46-3.23-0.24q-1.76.45-3.52,0.93m-2.54,12.27-3.18,1.44q2.31-5.34,4.79-10.61l2.8-.87q-2.29,5-4.41,10m18.19-16q-2.21,2.88-4.37,5.81,1-2.68,2-5.35-2.29.47-4.57,1-0.59,1.38-1.17,2.76l1-.27q-1.79,4.34-3.5,8.71l-1.4,3.55,4.58-2.14q1-2.87,2.1-5.73,1,2,1.93,3.91l3-1.31q-0.9-2.06-1.83-4.11,1.64-2.49,3.32-5l0.94-.22,0.71-2.15-2.73.51m5.91-1a3.77,3.77,0,0,0-2.17,1,4.8,4.8,0,0,0-1,1.87l-2,6.16c-0.26.81-.68,2.29,0.62,2.18a5.67,5.67,0,0,0,1.28-.43l4-1.66q0.51-1.93,1-3.87l-2.08.66-0.48,1.74-1.45.53q0.91-3.12,1.82-6.24l1.28-.27-0.3,1.1,1.87-.44q0.36-1.4.71-2.81c-1,.15-2.07.31-3.09,0.48" transform="translate(-360.15 -263.62)"/><path class="cls-3" d="M416.25,297.26c0.63,0.21,1.21.41,1.79,0.63,1.47,0.54,2.76,1.1,3.84,1.61a51,51,0,0,1-19.65,27.67l-0.78.54A45.67,45.67,0,0,1,397,324l1.32-.22a21.4,21.4,0,0,0,17.56-24.57l-0.09-.46v-0.14l0-.08v-0.07l0-.08,0-.07,0-.08,0-.08V298l0-.09,0-.08,0-.06v-0.06l0-.06c-0.06-.24-0.12-0.45-0.17-0.65l0.87,0.28m0.1,0.13c0.58,0.2,1.19.41,1.76,0.63-0.58-.22-1.17-0.43-1.76-0.63" transform="translate(-360.15 -263.62)"/></svg>