<svg id="Layer_1" data-name="Layer 1" xmlns="http://www.w3.org/2000/svg" viewBox="0 0 278.66 204.59"><defs><style>.cls-1{fill:#c4ced4;}.cls-2{fill:#0c1e24;}.cls-3{fill:#fff;}.cls-4{fill:#0474bc;}</style></defs><title>orlando-magic</title><g id="layer1"><g id="g7802"><g id="g5403"><path id="path5405" class="cls-1" d="M449.31,248.37l0.92,0.06,2,8.88,24.13,2.15v4.1l-27-2.26V248.37Zm111,36.86V246.48l-0.06,0c-0.28-.1-22.09-7.73-34.79-10.59-14.95-3.36-19.26,8.14-19.89,10.18V231.44s-40.95-7.9-70.2-7.45c-5,.08-12.63,1.9-15,12.51V223.65s-28.12.8-38.56,1.76c-2.59.24-13.83,1.22-17.41,14V227s-37.07,4.44-70.26,15.14c-4.82,1.56-12.46,7.17-12.46,15.6v85.18L309.5,334V319.3l25.42-6v14.63l12.52-2.62a109.27,109.27,0,0,0-29.74,40c16.87-14.49,33.65-28.55,58.59-35.3l-5.65,13.14c19.84-10.86,46.48-11.21,67.68-4.39l-1.6,3.51c-13.1-5.53-28.06-6.2-43.05-3.91,14.66,5,27,8.94,39.29,17-0.82,22.86,17.95,44.72,42.13,44.51,38.89-.3,56.79-45.87,35.07-74,2.22,1.71,4.94,2.92,9,4.17,13.72,3.85,41.08,11.94,41.08,11.94V305.65l-20.88-6.24-2.28,10.16c-1.37-.45-3.34-0.53-3.37-1.53,0-.5,0-27.41,0-41.07l1.66,10.59,24.89,7.67h0Z" transform="translate(-281.61 -195.35)"/></g><g id="g5407"><path id="path5409" class="cls-2" d="M535.23,260.76l2.32,14.85,20.11,6.19h0V248.24s-20-7-32.93-9.95c-4.42-1.22-17.44-2-17.74,14.43v56.74c0,9.78,5.16,16.3,14.93,18.87,14.86,3.9,35.74,10.3,35.74,10.3V307.49l-16.53-4.93-2.27,10.12c-1.83-.53-3.31-0.94-5.17-1.42-2-.53-2.47-1.62-2.55-2.7V259.62l4,1.13" transform="translate(-281.61 -195.35)"/></g><g id="g5411"><path id="path5413" class="cls-2" d="M478.75,229.78v90.41l4.52,0.39c1.36,0.17,12.22,2,13.53,2.24l6.17,1.56V233.52c0-.14-15.11-2.64-24.23-3.74" transform="translate(-281.61 -195.35)"/></g><g id="g5415"><path id="path5417" class="cls-2" d="M449.77,281.65v16.81c-0.47,0-2.71.15-3-1.34V281.43ZM452.2,246l2,8.92,20,1.78V229.15s-29.14-2.76-37.3-2.76c-4.88,0-14.19,1.78-14.53,14.17v59c0,10.22,5.91,16.32,16.21,16.75,0,0,21.41,1,29.65,2.25l6,1.13V265.85h0l-27.38-2.2V245.73l5.4,0.3h0Z" transform="translate(-281.61 -195.35)"/></g><g id="g5419"><path id="path5421" class="cls-2" d="M390.35,264V246.82c0.05-1.08,2.54-1,2.88-1v18l-2.88.15m-8.46-36.12c-10,.93-15.92,7.61-15.92,17.88l0,74.12,5.86-1.1c1.32-.19,12.28-1.28,13.65-1.36l4.83-.12V284.15l2.88-.2v33.26l5.53-.64c1.19-.09,11.95-0.5,13.76-0.5l5.21,0.29V226.2s-25,.69-35.84,1.68" transform="translate(-281.61 -195.35)"/></g><g id="g5423"><path id="path5425" class="cls-2" d="M361.77,229.86s-22.71,3.41-29.45,4.92a16.36,16.36,0,0,0-4.42,1.71v-0.78s-18.89,4.18-33.11,8.77c-4.46,1.44-10.73,6.49-10.73,13.22v81.52L306.94,332v-67.9c0-1.24,1.09-2.2,3.23-2.85l0.4-.1v55.34l24.22-5.74v-53a2.87,2.87,0,0,1,2.55-2.68v69.63s18.82-3.79,19.89-3.92l4.55-.4V229.86Z" transform="translate(-281.61 -195.35)"/></g><g id="g5427"><path id="path5429" class="cls-3" d="M543.34,306.24l-2.27,10.11c-3.65-1.08-5.44-1.59-8.07-2.27s-4.1-2.14-4.58-4.39V258c0.85-2.92,4.65-.45,9.4.52l2.33,14.87,14.59,4.49V250.29s-18.13-6.17-30.64-9.17c-1.37-.33-13.85-3.27-14.14,11.59v56.74c0,8.42,4.29,13.82,12.75,16,12.22,3.21,32.07,9.17,32.07,9.17v-25Z" transform="translate(-281.61 -195.35)"/></g><g id="g5431"><path id="path5433" class="cls-3" d="M500.06,236l-18.39-2.85v84.4s14.86,2.24,15.8,2.46l2.59,0.66V236Z" transform="translate(-281.61 -195.35)"/></g><g id="g5435"><path id="path5437" class="cls-3" d="M447.6,242.83c0.17,0,5.17.33,7,.48l2,8.94,14.7,1.31V231.79s-30.46-2.64-34.38-2.48c-3.65.15-11.09,0.77-11.61,11.26v59c0,8.69,4.64,13.47,13.41,13.83,0,0,20.22,1,29.1,2.15l3.48,0.63V268.49h0L449,266.69v12l3.7,0.27v22.62c-2.78-.19-8.61.45-8.84-4.39V245c0.2-1,.94-2.13,3.71-2.13" transform="translate(-281.61 -195.35)"/></g><g id="g5439"><path id="path5441" class="cls-3" d="M395.94,266.43c-0.1,0-5.61.27-8.3,0.46V246.68c0.2-2.12,1.66-3.29,4.3-3.49l4-.25v23.49Zm-13.8-35.85c-8.48.83-13.38,6.25-13.45,15h0v71.05h0l0.31-.06,2.88-.51c2.43-.29,12.58-1.3,13.52-1.34l2.24-.06v-33c2.69-.21,5.47-0.41,8.3-0.57l0,33.06,2.52-.25c0.87-.09,12.05-0.51,14-0.51L415,313.5V229s-21.78.5-32.88,1.59" transform="translate(-281.61 -195.35)"/></g><g id="g5443"><path id="path5445" class="cls-3" d="M358.86,233.24h0s-22.11,3.38-25.89,4.38a14.45,14.45,0,0,0-7.85,4.94v-3.24s-15.34,3.37-29.43,7.92c-3.51,1.14-8.71,5.24-8.71,10.44V335L304,329.62V264.07c-0.09-5.51,7.89-6.21,9.46-6.48v55.18l18.36-4.35s0-48,0-50.82c0.62-6,7.34-5.61,8.41-6l0,69.3,9-1.56h0l9.55-1.66v-0.27h0V233.24Z" transform="translate(-281.61 -195.35)"/></g><g id="g5447"><path id="path5449" class="cls-4" d="M552.66,311.2l-7.78-2.32L542.62,319c-5.05-1.5-7-2.08-10.14-2.89a7.81,7.81,0,0,1-6.28-7.39V258.51c0.59-3.88,3.16-4.57,6.26-3.73,0-.06,3.32.91,7.22,2.08L542,271.75,552.66,275V251.78c-5.9-2.05-17.45-5.84-29-8.63-7.42-1.78-11.57,2-11.57,9.56v56.74c0,7.6,3.79,12.08,11.2,14,15.13,4,29.45,8.37,29.45,8.37Z" transform="translate(-281.61 -195.35)"/></g><g id="g5451"><path id="path5453" class="cls-4" d="M483.75,315.6c0.88,0.08,13.36,2.13,14.22,2.35V237.71c-4.27-.76-8.07-1.4-14.22-2.22V315.6Z" transform="translate(-281.61 -195.35)"/></g><g id="g5455"><path id="path5457" class="cls-4" d="M451.1,276.73l3.71,0.26v26.8c-2.2-.17-4.4-0.32-6.58-0.46-3.21-.21-6.45-2.28-6.45-6.58,0-.14,0-51.7,0-51.7,0.45-3.86,4.18-4.45,6.46-4.3,0-.06,3.75.23,8.06,0.59l2,8.93,10.92,1V233.68h-0.06c-19.84-1.93-30.93-2.26-30.93-2.26-2.33-.1-5.83-0.1-8.23,2.22a9.48,9.48,0,0,0-2.6,6.92v59c0,7.6,3.84,11.43,11.41,11.75,0-.24,26.58,1.63,30.41,2.33V270.38h0c-6.36-.62-10-1-18.08-1.47v7.83Z" transform="translate(-281.61 -195.35)"/></g><g id="g5459"><path id="path5461" class="cls-4" d="M385.35,246.58c0.13-1.56,1-5.28,6.44-5.68,2.15-.14,4.29-0.28,6.44-0.39v28.1c-4.29.22-8.59,0.4-12.88,0.74V246.58ZM371,245.76s0,67.14,0,68.09c0.88-.17,13.46-1.42,14.34-1.44V279.53c4.29-.37,8.6-0.66,12.88-0.89v33c0.9-.1,13.61-0.57,14.5-0.52V231.34c-8.53.23-20.27,0.59-30.37,1.52-7.56.7-11.38,5.33-11.38,12.9" transform="translate(-281.61 -195.35)"/></g><g id="g5463"><path id="path5465" class="cls-4" d="M333.41,239.66c-5.27,1.19-9.23,6.19-10.39,12.2v-9.94s-12.55,2.75-26.71,7.32c-2.83.91-7.27,4.38-7.27,8.46v74.21c0.83-.32,12-3.77,12.88-4V264.07c0-4.46,3.67-6.69,6.79-7.64,1.72-.51,6.84-1.29,6.84-1.29v55l14.23-3.34V257.27a7.77,7.77,0,0,1,6.32-7.08c3.6-.61,6.23-1,6.23-1v69c0.86-.22,13.49-2.37,14.37-2.45,0-15.93,0-80.12,0-80.12s-16.7,2.5-23.35,4" transform="translate(-281.61 -195.35)"/></g><g id="g5467"><path id="path5469" class="cls-2" d="M484,310.09C539.38,332,516.34,396.5,475.72,397c-22.24.27-41.18-20.4-39.59-42.46-10-8-22.61-11.92-34.77-15.36,11-1.16,26.48,1.71,36.53,6.37l3.74-8.15c-18.59-6.83-48.07-8-66.17.73l5-11.58c-19.2,4.24-40.65,16.08-56.49,30.94,11.1-21.29,36.25-42.85,59.22-50l-1.69,5a160.46,160.46,0,0,1,45.88-9.21c16.66-1,30.14,0,41.68,2.55-2.07-2.68-5.41-7.47-5.41-7.47L474.3,301l2.73-4.41,2.79-4.54s1.36,9.38,1.59,11l10.19,3.34Z" transform="translate(-281.61 -195.35)"/></g><g id="g5471"><path id="path5473" class="cls-1" d="M490.11,341.89a78.9,78.9,0,0,1,6,9.13,51.16,51.16,0,0,0,10.58-9.2,39.6,39.6,0,0,0-7.88-10.15,35.26,35.26,0,0,1-8.7,10.22m7.33,11.81a72.44,72.44,0,0,1,2.59,6.81,39.2,39.2,0,0,1,10.28-1.9A36.43,36.43,0,0,0,508,344.89a63.77,63.77,0,0,1-10.61,8.81m3.3,9.49A60.08,60.08,0,0,1,502,379.78a38.53,38.53,0,0,0,8-18.38,39.72,39.72,0,0,0-9.27,1.8m-2.37,1.27c-11,5.17-15.43,16.71-19.75,27.23a35.59,35.59,0,0,0,19.46-8,43.52,43.52,0,0,0,.29-19.2m-0.88-2.89a60,60,0,0,0-2.35-6.44,101.66,101.66,0,0,1-51.92,13.56c5.24,13.8,17.45,23,32.34,23.12,4.73-11.65,10-24.37,21.94-30.24m-3.62-9.13a65.13,65.13,0,0,0-6-9c-14.25,9.11-28.55,3.84-43-1.46a35,35,0,0,0-2.51,23.77,98.61,98.61,0,0,0,51.54-13.28m-7.6-11.27c-19.87-21.83-59.42-26.15-86.84-18.7,19-.51,56.76.51,70.24,16.55-4.35-2.41-13.15-6.48-18.38-6.18a46.11,46.11,0,0,0-5,6.66c13.24,4.88,26.8,9.8,39.93,1.67m2.16-1.53a32.17,32.17,0,0,0,8.64-9.68c-6.19-6.06-18-13.54-48-15.59,12.74,2.89,24.63,6.9,31.36,11.68a52.62,52.62,0,0,0-8.92-2.68c-1.62.23-3.9,0.44-5.6,0.83,9.16,3.59,15.83,7.9,22.56,15.43" transform="translate(-281.61 -195.35)"/></g><g id="g5475"><path id="path5477" class="cls-1" d="M469.9,313.09l6.17-2.16,4.69,5.32-0.55-6.94,6-2.6-6.5-2.13-1-6.92-3.47,5.62-6.58-1.68L473,307.2Z" transform="translate(-281.61 -195.35)"/></g><g id="g5479"><path id="path5481" class="cls-4" d="M446.6,347.2c9.45,4.43,16.93,4.62,26.56,5.07l-15.53,4.59a105.3,105.3,0,0,0,24.62-2c-16.74,8.35-37,7.74-37,7.74-1.51-5.14-.8-11.54,1.37-15.43m1.82,25.73c10.35-.39,25-3.19,36.28-9.76-6.51,6.59-13.46,10.2-24,15.69,11.58-2,17.28-6.51,24.86-12.15-5.9,6.6-8.8,13.56-13.36,20.76,0,0-13.5,1.69-23.76-14.54m34.27,15.78a36,36,0,0,0,11.25-6c1-2.19,1.48-6.89,1.42-12.57l-4.15,7,1.31-6.77c-5.81,7.06-8,12.1-9.83,18.35" transform="translate(-281.61 -195.35)"/></g><g id="g5483"><path id="path5485" class="cls-3" d="M437,318.08l4.29-2.11,3.57,3.17-0.7-4.72,4.13-2.4-4.71-.8-1-4.66-2.21,4.23-4.76-.48,3.34,3.41Z" transform="translate(-281.61 -195.35)"/></g><g id="g5487"><path id="path5489" class="cls-3" d="M388.86,327.56l2.82-1.39,2.34,2.09-0.46-3.1,2.71-1.58-3.1-.53L392.52,320l-1.46,2.77-3.13-.31,2.2,2.24Z" transform="translate(-281.61 -195.35)"/></g><g id="g5491"><path id="path5493" class="cls-3" d="M477.91,321.75c-0.54-.28-1.08-0.55-1.64-0.8,8.69,2.58,14.55,5.94,17.83,8.49-0.51.75-1.07,1.46-1.65,2.17a42.4,42.4,0,0,0-14.54-9.85m26.78,48.68,0-.57a43.06,43.06,0,0,0,.82-7c0.62-.16,1.24-0.29,1.88-0.41a41.16,41.16,0,0,1-2.66,8m3.63-15.25c-1.13.15-2.18,0.31-3.22,0.54a42.54,42.54,0,0,0-1-5c1.13-.95,2.21-1.91,3.3-2.94a29.48,29.48,0,0,1,.92,7.39m-3.88-14.28c-1,1-1.9,2-2.85,2.82a43.49,43.49,0,0,0-3.71-6.49c0.74-.9,1.46-1.82,2.13-2.79a29.3,29.3,0,0,1,4.42,6.46" transform="translate(-281.61 -195.35)"/></g><g id="g5495"><path id="path5497" class="cls-2" d="M477.63,218.22a0.69,0.69,0,0,1-.75.85l-2.09-.25c-0.47-.06-0.76-0.19-0.76-1.06V204.6a0.7,0.7,0,0,1,.83-0.85c0.48,0,1.31.22,1.8,0.29a0.85,0.85,0,0,1,1,.8v13.38Zm1.45-17.92c-1.52-.27-7-1.17-7.35-1.16a3.11,3.11,0,0,0-3.29,3.2V218a4.13,4.13,0,0,0,3.72,4.23c1.7,0.18,6.17.8,7.67,1a3,3,0,0,0,3.33-3.1v-15.6c0-.76-0.24-3.53-4.09-4.22" transform="translate(-281.61 -195.35)"/></g><g id="g5499"><path id="path5501" class="cls-2" d="M443,196c-3-.26-10.34-0.51-10.34-0.51v23.79l5.7,0.2V199.87s1.13,0,2.28.09,1.5,0.53,1.5,1.11v18.55l5.65,0.34s0-18.49,0-19.9-0.92-3.75-4.78-4.07" transform="translate(-281.61 -195.35)"/></g><g id="g5503"><path id="path5505" class="cls-2" d="M423.91,206.18h-3.8v-5.7c0-.45.37-1.07,1.59-1.07h2.21v6.76Zm-5.07-10.83c-2.78,0-4.41,1.28-4.41,4.21,0,1.41,0,19.58,0,19.58l5.66,0v-9.34l3.8,0v9.4l5.7,0V195.46s-4.54-.11-6-0.11h-4.74Z" transform="translate(-281.61 -195.35)"/></g><g id="g5507"><path id="path5509" class="cls-2" d="M411.67,211.68l-4.53.13L406,215.75l-1.52.06V195.75l-5.67.32v23.6s2.34-.12,6.4-0.24l6.43-.17v-7.58Z" transform="translate(-281.61 -195.35)"/></g><g id="g5511"><path id="path5513" class="cls-2" d="M389.13,207.07c-1.14.15-2.5,0.25-2.5,0.25v-6.17c0.64-.08,1.77-0.2,2.4-0.26a1,1,0,0,1,1.27,1c0,0.27,0,3.9,0,4v0a1.26,1.26,0,0,1-1.18,1.17m6.87,3.24h0a2.16,2.16,0,0,0-1.39-2.17,2.67,2.67,0,0,0,1.34-2.21v-6.05a3.37,3.37,0,0,0-3.8-3.3c-3,.16-11.14,1.06-11.14,1.06V221l5.64-.48v-9.56c0.65-.08,2.52-0.27,2.67-0.28a0.83,0.83,0,0,1,1,.67v8.9l5.65-.37h0v-9.52Z" transform="translate(-281.61 -195.35)"/></g><g id="g5515"><path id="path5517" class="cls-2" d="M371.82,217.94c-0.36.06-1.43,0.2-2.12,0.26a0.85,0.85,0,0,1-.78-0.85c0-.15,0-13.23,0-13.23a0.8,0.8,0,0,1,.62-0.82c0.52-.09,1.6-0.25,2.13-0.35a0.74,0.74,0,0,1,.83.69c0,0.56,0,13,0,13.39a0.89,0.89,0,0,1-.69.91m2.82-19.43c-0.66,0-5.8.65-7.32,0.94-1.16.23-4,1.23-4,4.33v16a2.65,2.65,0,0,0,3.11,2.86c0.72-.08,5.91-0.79,7.83-1a3.89,3.89,0,0,0,3.79-4.09v-16c0-3.11-2.94-3.11-3.46-3.11" transform="translate(-281.61 -195.35)"/></g><g id="g5519"><path id="path5521" class="cls-2" d="M460.16,216.4A0.87,0.87,0,0,1,459,217l-2.64-.23v-15.4l2.38,0.26a1.33,1.33,0,0,1,1.39.88V216.4Zm1.34-18.86c-1.33-.23-10.73-1.1-10.73-1.1v23.74s8.69,0.7,10.72.89,4.31-.52,4.31-3.3V202.07c0-3.38-2.44-4.21-4.29-4.53" transform="translate(-281.61 -195.35)"/></g></g></g></svg>