<svg id="Layer_1" data-name="Layer 1" xmlns="http://www.w3.org/2000/svg" viewBox="0 0 50.09 60.87"><defs><style>.cls-1{fill:#ed174f;}.cls-2{fill:#0067b1;}.cls-3{fill:#a7a9ac;}.cls-4{fill:#fff;}</style></defs><title>philadelphia-76ers</title><g id="layer1"><g id="g47425"><path id="path14497" class="cls-1" d="M376.09,318.42h47.82V270.7H376.09v47.72Z" transform="translate(-374.96 -269.57)"/><path id="path14499" class="cls-2" d="M376.09,329.3h47.82v-9.12H376.09v9.13Z" transform="translate(-374.96 -269.57)"/><g id="g14505"><path id="path14507" class="cls-3" d="M423.91,318.42H376.09V270.7h47.82v47.72ZM376.09,329.3v-9.12h47.82v9.13H376.09Zm48.39-59.73h-49a0.57,0.57,0,0,0-.57.57v59.73a0.57,0.57,0,0,0,.57.57h49a0.57,0.57,0,0,0,.57-0.57V270.13a0.57,0.57,0,0,0-.57-0.57" transform="translate(-374.96 -269.57)"/></g><g id="g14509"><path id="path14511" class="cls-2" d="M400.11,273.15a21.41,21.41,0,1,0,21.41,21.41,21.41,21.41,0,0,0-21.41-21.41" transform="translate(-374.96 -269.57)"/></g><g id="g14513"><path id="path14515" class="cls-4" d="M410.4,304.1a52.42,52.42,0,0,1,3,5.06,20.08,20.08,0,0,1-13.6,5.13,19.25,19.25,0,0,1,3.43-10.61,2.73,2.73,0,0,1-.56-0.55,19.53,19.53,0,0,0-3.89,11.12,19.69,19.69,0,0,1-14.41-7.78,49,49,0,0,0,5.21-2,2.83,2.83,0,0,0-.94-0.43,45.54,45.54,0,0,1-4.76,1.77,19.65,19.65,0,0,1-3.49-10.57,13.42,13.42,0,0,0,4.19.21v-0.86a13.56,13.56,0,0,1-4.21-.2,19.68,19.68,0,0,1,7.34-15.14c2.71,1.72,6.94,5.67,10.88,10-0.19.24-.45,0.45-0.53,0.55l0.81,0.43A21.91,21.91,0,0,0,406.71,276a19.78,19.78,0,0,1,8.67,6.1A65.45,65.45,0,0,1,402,295.94a1.23,1.23,0,0,0,.33.71,68.75,68.75,0,0,0,13.61-13.87,19.6,19.6,0,0,1,3.85,10.51A23.64,23.64,0,0,0,409,297a1,1,0,0,0,.62.5A22.69,22.69,0,0,1,419.82,294c0,0.17,0,.34,0,0.51a19.7,19.7,0,0,1-5.72,13.9c-0.84-1.54-1.88-3.21-3-4.94l-0.66.62" transform="translate(-374.96 -269.57)"/></g><g id="g14517"><path id="path14519" class="cls-4" d="M399.26,288.71a72.06,72.06,0,0,0-10.81-10.06,19.71,19.71,0,0,1,17.41-3,21,21,0,0,1-6.6,13" transform="translate(-374.96 -269.57)"/></g><g id="g14521"><path id="path14523" class="cls-2" d="M389.68,282.66l0.16,0.49h0.53l-0.43.31,0.16,0.49-0.41-.3-0.41.3,0.15-.49-0.43-.31h0.53Z" transform="translate(-374.96 -269.57)"/></g><g id="g14525"><path id="path14527" class="cls-2" d="M392.78,284.46l0.16,0.49h0.53l-0.43.31,0.16,0.49-0.41-.3-0.41.3,0.16-.49-0.43-.31h0.53Z" transform="translate(-374.96 -269.57)"/></g><g id="g14529"><path id="path14531" class="cls-2" d="M391.45,283.07l0.16,0.49h0.53l-0.43.31,0.16,0.49-0.41-.3-0.41.3,0.15-.49-0.43-.31h0.53Z" transform="translate(-374.96 -269.57)"/></g><g id="g14533"><path id="path14535" class="cls-2" d="M393.28,286.17l0.16,0.49H394l-0.43.31,0.16,0.49-0.41-.3-0.41.3L393,287l-0.43-.31h0.52Z" transform="translate(-374.96 -269.57)"/></g><g id="g14537"><path id="path14539" class="cls-2" d="M393.06,288l0.16,0.49h0.52l-0.43.32,0.16,0.49-0.41-.3-0.41.3,0.15-.49-0.43-.31h0.52Z" transform="translate(-374.96 -269.57)"/></g><g id="g14541"><path id="path14543" class="cls-2" d="M392.07,289.41l0.16,0.49h0.53l-0.43.31,0.15,0.49-0.41-.3-0.41.3,0.16-.49-0.43-.31h0.53Z" transform="translate(-374.96 -269.57)"/></g><g id="g14545"><path id="path14547" class="cls-2" d="M390.5,290.21l0.16,0.49h0.53l-0.43.31,0.16,0.49-0.41-.3-0.41.3,0.15-.49-0.43-.31h0.53Z" transform="translate(-374.96 -269.57)"/></g><g id="g14549"><path id="path14551" class="cls-2" d="M386.53,284.3l-0.16.49h-0.52l0.43,0.31-0.16.49,0.41-.3,0.41,0.3-0.16-.49,0.43-.31h-0.53Z" transform="translate(-374.96 -269.57)"/></g><g id="g14553"><path id="path14555" class="cls-2" d="M387.82,283.07l-0.16.49h-0.52l0.43,0.31-0.16.49,0.41-.3,0.41,0.3-0.16-.49,0.43-.31H388Z" transform="translate(-374.96 -269.57)"/></g><g id="g14557"><path id="path14559" class="cls-2" d="M385.93,285.94l-0.15.49h-0.53l0.43,0.31-0.16.49,0.41-.3,0.41,0.3-0.15-.49,0.43-.31h-0.53Z" transform="translate(-374.96 -269.57)"/></g><g id="g14561"><path id="path14563" class="cls-2" d="M386.09,287.75l-0.16.49H385.4l0.42,0.31-0.15.49,0.41-.3,0.42,0.3-0.16-.49,0.43-.31h-0.53Z" transform="translate(-374.96 -269.57)"/></g><g id="g14565"><path id="path14567" class="cls-2" d="M387.08,289.22l-0.16.49H386.4l0.43,0.31-0.16.48,0.41-.3,0.42,0.3-0.16-.49,0.43-.31h-0.53Z" transform="translate(-374.96 -269.57)"/></g><g id="g14569"><path id="path14571" class="cls-2" d="M388.65,290.15l-0.16.49H388l0.43,0.31-0.15.49,0.41-.3,0.42,0.3L388.9,291l0.43-.31H388.8Z" transform="translate(-374.96 -269.57)"/></g><g id="g14573"><path id="path14575" class="cls-2" d="M393.7,302.34c-1,.55-1.89,1-2.89,1.51a4,4,0,0,1-.11-0.79c0.9-.44,1.8-0.9,2.68-1.4,0.11,0.24.21,0.46,0.32,0.68" transform="translate(-374.96 -269.57)"/></g><g id="g14577"><path id="path14579" class="cls-4" d="M378.89,324.6a1.15,1.15,0,0,0,.78-0.17,1,1,0,0,0,.37-0.74,0.53,0.53,0,0,0-.62-0.59c-0.45,0-.45.11-0.51,0.56l-0.14.94h0.14Zm-0.37,1.6c0,0.23.25,0.27,0.46,0.27l-0.09.54h-2l0.08-.54h0.11a0.85,0.85,0,0,0,.26-0.08,0.75,0.75,0,0,0,.23-0.55l0.37-2.45c0-.22-0.19-0.29-0.45-0.29l0.08-.54h1.91a3.08,3.08,0,0,1,1,.1,1,1,0,0,1,.6,1,1.49,1.49,0,0,1-.64,1.26,2.49,2.49,0,0,1-1.33.26h-0.46Z" transform="translate(-374.96 -269.57)"/></g><g id="g14581"><path id="path14583" class="cls-4" d="M382.11,326.18c0,0.25.24,0.29,0.46,0.29l-0.08.54h-2l0.08-.54h0.14a0.52,0.52,0,0,0,.48-0.64l0.37-2.44c0-.23-0.19-0.27-0.35-0.29h-0.11l0.08-.54h2l-0.09.54a0.58,0.58,0,0,0-.35.07,0.68,0.68,0,0,0-.26.57l-0.09.6h1.43l0.14-1c0-.24-0.23-0.29-0.44-0.29l0.08-.54h2l-0.08.54a0.57,0.57,0,0,0-.33.07,0.69,0.69,0,0,0-.26.57l-0.37,2.46c0,0.23.25,0.27,0.44,0.27l-0.09.54h-2l0.08-.54h0.11a0.72,0.72,0,0,0,.26-0.08,0.76,0.76,0,0,0,.23-0.55l0.14-.93h-1.44Z" transform="translate(-374.96 -269.57)"/></g><g id="g14585"><path id="path14587" class="cls-4" d="M387.26,327h-2l0.08-.54a0.82,0.82,0,0,0,.35-0.06,0.68,0.68,0,0,0,.26-0.57l0.37-2.44c0-.23-0.19-0.27-0.35-0.29h-0.1l0.08-.54h2l-0.09.54a0.7,0.7,0,0,0-.33.07,0.68,0.68,0,0,0-.26.57l-0.36,2.46c0,0.23.24,0.27,0.43,0.28Z" transform="translate(-374.96 -269.57)"/></g><g id="g14589"><path id="path14591" class="cls-4" d="M391.06,327h-3.39l0.08-.54a0.73,0.73,0,0,0,.33-0.06,0.68,0.68,0,0,0,.26-0.57l0.37-2.44c0-.23-0.19-0.29-0.43-0.29l0.08-.54h2l-0.08.54a0.65,0.65,0,0,0-.36.07,0.67,0.67,0,0,0-.26.57l-0.39,2.52c0,0.15.21,0.21,0.31,0.21a1.58,1.58,0,0,0,1-.4,2.93,2.93,0,0,0,.7-0.83l0.39,0.24Z" transform="translate(-374.96 -269.57)"/></g><g id="g14593"><path id="path14595" class="cls-4" d="M393.9,323.49l-0.7,1.42h0.94Zm1.43,2.27a2.76,2.76,0,0,0,.12.47,0.39,0.39,0,0,0,.34.22h0.07l-0.08.54h-2l0.08-.54H394c0.14,0,.46,0,0.41-0.25l-0.13-.79H393l-0.28.61a0.53,0.53,0,0,0-.06.23c0,0.19.33,0.18,0.44,0.2L393,327h-1.65l0.08-.54a1.21,1.21,0,0,0,.88-0.91l1.54-3h0.85Z" transform="translate(-374.96 -269.57)"/></g><g id="g14597"><path id="path14599" class="cls-4" d="M397.49,326.06a1.43,1.43,0,0,0,0,.16c0,0.21.27,0.25,0.41,0.25,1,0,1.53-1.15,1.53-2.19a1,1,0,0,0-1-1.18,0.77,0.77,0,0,0-.45.11,0.8,0.8,0,0,0-.13.42l-0.35,2.28Zm0.85-3.5a2.29,2.29,0,0,1,1.44.29,1.83,1.83,0,0,1,.63,1.53,2.41,2.41,0,0,1-2.88,2.62h-1.64l0.09-.54a0.65,0.65,0,0,0,.32-0.06,0.68,0.68,0,0,0,.26-0.57l0.37-2.44c0-.23-0.19-0.27-0.43-0.29l0.08-.53h1.77Z" transform="translate(-374.96 -269.57)"/></g><g id="g14601"><path id="path14603" class="cls-4" d="M403.53,327h-3.64l0.08-.54a0.63,0.63,0,0,0,.32-0.06,0.69,0.69,0,0,0,.26-0.57l0.37-2.44a0.18,0.18,0,0,0-.08-0.2,0.54,0.54,0,0,0-.31-0.09l0.08-.54h3.32l0.32,1.44-0.4.15a1.41,1.41,0,0,0-1.33-1.06,0.8,0.8,0,0,0-.51.13,1.07,1.07,0,0,0-.16.52l-0.1.6h0.41a0.72,0.72,0,0,0,.47-0.68h0.41l-0.3,2h-0.41v-0.18c0-.5-0.21-0.55-0.66-0.55l-0.2,1.3c0,0.23.3,0.25,0.44,0.25a2.32,2.32,0,0,0,1.86-1.16l0.38,0.23Z" transform="translate(-374.96 -269.57)"/></g><g id="g14605"><path id="path14607" class="cls-4" d="M407.52,327h-3.39l0.08-.54a0.76,0.76,0,0,0,.33-0.06,0.68,0.68,0,0,0,.26-0.57l0.37-2.44c0-.23-0.19-0.29-0.43-0.29l0.08-.54h2l-0.08.54a0.65,0.65,0,0,0-.36.07,0.67,0.67,0,0,0-.26.57l-0.38,2.52c0,0.15.2,0.21,0.31,0.21a1.59,1.59,0,0,0,1-.4,2.9,2.9,0,0,0,.7-0.83l0.39,0.24Z" transform="translate(-374.96 -269.57)"/></g><g id="g14609"><path id="path14611" class="cls-4" d="M409.87,324.6a1.14,1.14,0,0,0,.78-0.17,0.94,0.94,0,0,0,.37-0.74,0.53,0.53,0,0,0-.62-0.59c-0.45,0-.45.11-0.52,0.56l-0.14.94h0.14Zm-0.38,1.6c0,0.23.25,0.27,0.46,0.27l-0.09.54h-2l0.08-.54h0.11a0.83,0.83,0,0,0,.26-0.08,0.76,0.76,0,0,0,.23-0.55l0.37-2.45c0-.22-0.19-0.29-0.45-0.29l0.08-.54h1.91a3.05,3.05,0,0,1,1,.1,1,1,0,0,1,.6,1,1.5,1.5,0,0,1-.64,1.26,2.5,2.5,0,0,1-1.33.26h-0.46Z" transform="translate(-374.96 -269.57)"/></g><g id="g14613"><path id="path14615" class="cls-4" d="M413.2,326.18c0,0.25.24,0.29,0.46,0.29l-0.09.54h-2l0.08-.54h0.14a0.75,0.75,0,0,0,.26-0.08,0.74,0.74,0,0,0,.22-0.55l0.37-2.44c0-.23-0.19-0.27-0.35-0.29h-0.11l0.08-.54h2l-0.09.54a0.58,0.58,0,0,0-.35.07,0.68,0.68,0,0,0-.26.57l-0.09.6h1.44l0.13-1c0-.24-0.23-0.29-0.44-0.29l0.08-.54h2l-0.08.54a0.55,0.55,0,0,0-.33.07,0.69,0.69,0,0,0-.26.57l-0.37,2.46c0,0.23.25,0.27,0.44,0.27L416,327h-2l0.08-.54h0.11a0.7,0.7,0,0,0,.26-0.08,0.76,0.76,0,0,0,.23-0.55l0.14-.93h-1.44Z" transform="translate(-374.96 -269.57)"/></g><g id="g14617"><path id="path14619" class="cls-4" d="M418.36,327h-2l0.08-.54a0.83,0.83,0,0,0,.35-0.06,0.69,0.69,0,0,0,.26-0.57l0.37-2.44c0-.23-0.19-0.27-0.35-0.29H417l0.08-.54h2l-0.08.54a0.71,0.71,0,0,0-.33.07,0.67,0.67,0,0,0-.26.57L418,326.19c0,0.23.24,0.27,0.43,0.28Z" transform="translate(-374.96 -269.57)"/></g><g id="g14621"><path id="path14623" class="cls-4" d="M421.11,323.49l-0.7,1.42h0.93Zm1.43,2.27a3,3,0,0,0,.12.47,0.4,0.4,0,0,0,.35.22h0.07L423,327h-2l0.08-.54h0.1c0.14,0,.46,0,0.41-0.25l-0.13-.79h-1.27l-0.29.61a0.54,0.54,0,0,0-.06.23c0,0.19.33,0.18,0.44,0.2l-0.09.54h-1.65l0.08-.54a1.21,1.21,0,0,0,.88-0.91l1.54-3h0.86Z" transform="translate(-374.96 -269.57)"/></g><g id="g14625"><path id="path14627" class="cls-2" d="M410.47,303.38h-2.9v-0.73l0.52-.08V300.3c0-.81-0.11-1.2-0.68-1.2v-0.64l2.06-.6a3.79,3.79,0,0,1,.34,1.5h0c0.21-.62.46-1.49,1.13-1.49a1.06,1.06,0,0,1,.17,2,2,2,0,0,1-.69-0.17c-0.38-.13-0.5,1.51-0.5,1.85v1l0.52,0.08v0.73Z" transform="translate(-374.96 -269.57)"/></g><g id="g14629"><path id="path14631" class="cls-2" d="M415.34,298.92a0.71,0.71,0,0,1-.8.68,1,1,0,0,1-.94-0.89c-0.21,0-.36.11-0.36,0.47,0,0.84,2.37.24,2.37,2.37,0,1.59-1.15,2-2.25,2-0.68,0-1.85-.09-1.85-1.12a0.73,0.73,0,0,1,.72-0.82,1.11,1.11,0,0,1,1,1.13,0.22,0.22,0,0,0,.24.14,0.55,0.55,0,0,0,.65-0.41c0-1-2.43-.59-2.43-2.65,0-1.32,1.55-1.91,2.3-1.91s1.39,0.28,1.39,1" transform="translate(-374.96 -269.57)"/></g><g id="g14633"><path id="path14635" class="cls-2" d="M397.85,302.91c-1,0-1-1.32-1-2.85s0.15-2.85,1-2.85c1,0,1.09,1.32,1.09,2.85s-0.21,2.85-1.09,2.85m1.28-7.48a2.77,2.77,0,0,0-2.37,1.14h0l0.09-1.34c0.05-.91.26-3.37,1.52-3.37,0.6,0,.47.8,0.54,1.17,0.16,0.85.54,1.83,1.7,1.83a1.56,1.56,0,0,0,1.63-1.6,2.84,2.84,0,0,0-3.07-2.75c-4.32,0-6.06,3.3-6.06,7.29,0,3.47,1.35,6.46,5.06,6.46a4.28,4.28,0,0,0,4.37-4.6c0-2.43-1.29-4.24-3.39-4.24" transform="translate(-374.96 -269.57)"/></g><g id="g14637"><path id="path14639" class="cls-1" d="M384.86,290.44v5.15c2.88,0.43,6.32.14,8.76-3.42,0.1-.15.16,0,0.1,0.09A13.16,13.16,0,0,1,390,296c-1.34,1-4.92,4.81-4.87,8.11,0,0.25,0,.18.23,0a5,5,0,0,1,4.52-.21c0.18,0.08.2,0.06,0.18-.17a11.46,11.46,0,0,1,1.42-7c0.76-1.13,2.79-4,3.14-6.3,0-.23-0.08-0.2-0.38.11-2.31,2.44-6.48,2.38-9.17-.21-0.17-.16-0.25-0.09-0.26.06" transform="translate(-374.96 -269.57)"/></g><g id="g14641"><path id="path14643" class="cls-2" d="M404.75,299.78c0-.41,0-1.17.45-1.17s0.52,0.64.52,1a0.53,0.53,0,0,1-.49.6l-0.48.13v-0.55Zm1.21,2.53a1.19,1.19,0,0,1-1.08-1.17l2.75-.74a2.39,2.39,0,0,0-2.31-2.52c-1.55,0-2.58,1.21-2.58,3a2.43,2.43,0,0,0,2.48,2.66,2.74,2.74,0,0,0,2.39-1.3l-0.54-.64a1.29,1.29,0,0,1-1.1.73" transform="translate(-374.96 -269.57)"/></g></g></g></svg>