<svg id="Layer_1" data-name="Layer 1" xmlns="http://www.w3.org/2000/svg" xmlns:xlink="http://www.w3.org/1999/xlink" viewBox="0 0 74.13 75.26"><defs><style>.cls-1,.cls-10,.cls-12,.cls-16,.cls-17,.cls-19,.cls-21,.cls-3,.cls-7{fill:none;}.cls-2{fill:#fff;}.cls-3{stroke:#fff;stroke-width:1.33px;}.cls-4{fill:#051922;}.cls-5{fill:#63717a;}.cls-6{clip-path:url(#clip-path);}.cls-7{stroke:#63717a;}.cls-10,.cls-12,.cls-17,.cls-19,.cls-21,.cls-7{stroke-width:0.33px;}.cls-8{fill:#3e2680;}.cls-9{clip-path:url(#clip-path-3);}.cls-10{stroke:#3e2680;}.cls-11{fill:#f9a01b;}.cls-12,.cls-17{stroke:#f9a01b;}.cls-13{clip-path:url(#clip-path-7);}.cls-14{fill:#bf2f38;}.cls-15{fill:#e56020;}.cls-16,.cls-19{stroke:#e56020;}.cls-16{stroke-width:0.24px;}.cls-17{stroke-linejoin:round;}.cls-18{clip-path:url(#clip-path-16);}.cls-20{clip-path:url(#clip-path-17);}.cls-21{stroke:#bf2f38;}.cls-22{clip-path:url(#clip-path-18);}</style><clipPath id="clip-path" transform="translate(-362.93 -262.37)"><path class="cls-1" d="M380.56,269.6L363.78,337l50.3,0a6.3,6.3,0,0,0,5.83-4.64l16.25-69.16h-46.7c-4,0-7.65,1.5-8.9,6.48"/></clipPath><clipPath id="clip-path-3" transform="translate(-362.93 -262.37)"><path class="cls-1" d="M390.42,265a6.71,6.71,0,0,0-6.21,4.92l-4.4,17.63-6.39,25.29h43.37a6.67,6.67,0,0,0,6.22-4.86l10.17-43Z"/></clipPath><clipPath id="clip-path-7" transform="translate(-362.93 -262.37)"><path class="cls-1" d="M398.37,284.08A13.08,13.08,0,1,0,411.45,271a13.08,13.08,0,0,0-13.08,13.08"/></clipPath><clipPath id="clip-path-16" transform="translate(-362.93 -262.37)"><polygon class="cls-1" points="414.21 264.94 413.76 265.89 417 273.88 425.76 270.54 421.86 278.95 428.99 281.49 423.28 285.7 426.33 293.24 426.43 293.44 433.18 264.92 414.21 264.94"/></clipPath><clipPath id="clip-path-17" transform="translate(-362.93 -262.37)"><path class="cls-1" d="M419.72,294.4h4.64l2-1.18H420.1Zm-16.64-25.58,6.17,3.2,0.51,0.26,4-6.4Z"/></clipPath><clipPath id="clip-path-18" transform="translate(-362.93 -262.37)"><polygon class="cls-1" points="409.76 272.28 400.61 267.55 401.3 276.21 393.38 275.61 397.54 280.85 392.65 282.45 395.77 283.92 376.82 299.58 397.93 285.65 375.32 305.39 395.88 292.73 373.77 312.69 398.78 296.9 381.91 312.7 406.55 296.88 387.75 312.71 411.66 298.01 416.28 305 420.1 293.23 426.33 293.24 423.28 285.7 428.99 281.49 421.86 278.95 425.76 270.54 417 273.88 413.76 265.89 409.76 272.28"/></clipPath></defs><title>phoenix-suns</title><path class="cls-2" d="M436.22,263.05H390.35a16.39,16.39,0,0,0-1.84.11c-3.63.23-6.8,1.87-7.94,6.45L363.78,337l50.3,0a6.34,6.34,0,0,0,5.45-3.56,4.18,4.18,0,0,0,.64-1.42l16.05-68.92" transform="translate(-362.93 -262.37)"/><path class="cls-3" d="M436.22,263.05H390.35a16.39,16.39,0,0,0-1.84.11c-3.63.23-6.8,1.87-7.94,6.45L363.78,337l50.3,0a6.34,6.34,0,0,0,5.45-3.56,4.18,4.18,0,0,0,.64-1.42Z" transform="translate(-362.93 -262.37)"/><path class="cls-4" d="M363.78,337l50.3,0a6.3,6.3,0,0,0,5.83-4.64l16.25-69.16H390c-4.23-.13-8.12,1.28-9.42,6.47Z" transform="translate(-362.93 -262.37)"/><path class="cls-5" d="M420.16,332a5,5,0,0,1-4.54,3.62l-50,0,16.51-67c1-3.81,3.56-5.6,8.19-5.61h45.87L420.16,332" transform="translate(-362.93 -262.37)"/><g class="cls-6"><path class="cls-5" d="M420.16,332a5,5,0,0,1-4.54,3.62l-50,0,16.51-67c1-3.81,3.56-5.6,8.19-5.61h45.87L420.16,332" transform="translate(-362.93 -262.37)"/></g><g class="cls-6"><path class="cls-7" d="M420.16,332a5,5,0,0,1-4.54,3.62l-50,0,16.51-67c1-3.81,3.56-5.6,8.19-5.61h45.87Z" transform="translate(-362.93 -262.37)"/></g><path class="cls-4" d="M396.23,321.24h-0.8l-3.5,13h4.73L397,333h-3.93Z" transform="translate(-362.93 -262.37)"/><path class="cls-7" d="M396.23,321.24h-0.8l-3.5,13h4.73L397,333h-3.93Z" transform="translate(-362.93 -262.37)"/><path class="cls-4" d="M401.93,324h-1.68l-0.32,1.19h0.88c-0.14.51-2.48,9.08-2.48,9.08H403l0.32-1.19h-3.89s2.34-8.58,2.47-9.08" transform="translate(-362.93 -262.37)"/><path class="cls-7" d="M401.93,324h-1.68l-0.32,1.19h0.88c-0.14.51-2.48,9.08-2.48,9.08H403l0.32-1.19h-3.89S401.8,324.46,401.93,324Z" transform="translate(-362.93 -262.37)"/><path class="cls-4" d="M388,329.12l2.14-7.9h-0.81l-0.06.21h0l-2.09,7.69H388" transform="translate(-362.93 -262.37)"/><path class="cls-7" d="M388,329.12l2.14-7.9h-0.81l-0.06.21h0l-2.09,7.69H388Z" transform="translate(-362.93 -262.37)"/><path class="cls-4" d="M383.4,333a1.68,1.68,0,0,1-1.41-.66,3,3,0,0,1-.51-1.84,5,5,0,0,1,.17-1.32l2.15-8H383l-0.05.21h0l-2.42,9a3.43,3.43,0,0,0,.59,2.77,3.15,3.15,0,0,0,2.58,1.05h6.91l0.16-.6h0l0.16-.6H383.4" transform="translate(-362.93 -262.37)"/><path class="cls-7" d="M383.4,333a1.68,1.68,0,0,1-1.41-.66,3,3,0,0,1-.51-1.84,5,5,0,0,1,.17-1.32l2.15-8H383l-0.05.21h0l-2.42,9a3.43,3.43,0,0,0,.59,2.77,3.15,3.15,0,0,0,2.58,1.05h6.91l0.16-.6h0l0.16-.6H383.4Z" transform="translate(-362.93 -262.37)"/><path class="cls-4" d="M368,333.16l0.72-2.61h-0.91l-1,3.61h9.77a1.75,1.75,0,0,0,1.58-1H368Z" transform="translate(-362.93 -262.37)"/><path class="cls-7" d="M368,333.16l0.72-2.61h-0.91l-1,3.61h9.77a1.75,1.75,0,0,0,1.58-1H368Z" transform="translate(-362.93 -262.37)"/><path class="cls-4" d="M375.61,324l-0.26,1h4a2.34,2.34,0,0,1,.44,0h0.54l0.26-1h-5" transform="translate(-362.93 -262.37)"/><path class="cls-7" d="M375.61,324l-0.26,1h4a2.34,2.34,0,0,1,.44,0h0.54l0.26-1h-5Z" transform="translate(-362.93 -262.37)"/><path class="cls-4" d="M369.84,329.13h5.64c0-.19.19-0.64,0.28-0.95h-4a1.91,1.91,0,0,1-1.55-.69,2,2,0,0,1-.3-1.74c0.09-.36.9-3.38,1-3.84,0-.12.07-0.23,0.11-0.35a2.12,2.12,0,0,0-1.37,1.62c-0.13.45-.94,3.46-1,3.83a1.61,1.61,0,0,0,1.14,2.11" transform="translate(-362.93 -262.37)"/><path class="cls-7" d="M369.84,329.13h5.64c0-.19.19-0.64,0.28-0.95h-4a1.91,1.91,0,0,1-1.55-.69,2,2,0,0,1-.3-1.74c0.09-.36.9-3.38,1-3.84,0-.12.07-0.23,0.11-0.35a2.12,2.12,0,0,0-1.37,1.62c-0.13.45-.94,3.46-1,3.83A1.61,1.61,0,0,0,369.84,329.13Z" transform="translate(-362.93 -262.37)"/><path class="cls-4" d="M412.89,324l-0.26,1h4a2.34,2.34,0,0,1,.45,0h0.53l0.26-1h-5" transform="translate(-362.93 -262.37)"/><path class="cls-7" d="M412.89,324l-0.26,1h4a2.34,2.34,0,0,1,.45,0h0.53l0.26-1h-5Z" transform="translate(-362.93 -262.37)"/><path class="cls-4" d="M407.12,329.13h5.64c0.05-.19.19-0.64,0.28-0.95h-4a1.91,1.91,0,0,1-1.54-.69,2,2,0,0,1-.3-1.75c0.1-.39.91-3.4,1-3.84,0-.12.08-0.23,0.12-0.35a2.11,2.11,0,0,0-1.37,1.62c-0.13.45-.94,3.46-1,3.83a1.61,1.61,0,0,0,1.14,2.11" transform="translate(-362.93 -262.37)"/><path class="cls-7" d="M407.12,329.13h5.64c0.05-.19.19-0.64,0.28-0.95h-4a1.91,1.91,0,0,1-1.54-.69,2,2,0,0,1-.3-1.75c0.1-.39.91-3.4,1-3.84,0-.12.08-0.23,0.12-0.35a2.11,2.11,0,0,0-1.37,1.62c-0.13.45-.94,3.46-1,3.83A1.61,1.61,0,0,0,407.12,329.13Z" transform="translate(-362.93 -262.37)"/><path class="cls-4" d="M405.27,333.16l0.71-2.61h-0.9l-1,3.61h9.77a1.76,1.76,0,0,0,1.58-1H405.27Z" transform="translate(-362.93 -262.37)"/><path class="cls-7" d="M405.27,333.16l0.71-2.61h-0.9l-1,3.61h9.77a1.76,1.76,0,0,0,1.58-1H405.27Z" transform="translate(-362.93 -262.37)"/><path class="cls-4" d="M391.89,319.15h-3.31a0.87,0.87,0,0,1-.7-0.31,1.23,1.23,0,0,1-.23-0.94l0.66-2.32,0-.16a1.22,1.22,0,0,1,.15-0.36,1.18,1.18,0,0,0-.64.83s-0.7,2.48-.7,2.48a0.93,0.93,0,0,0,0,.19,1.21,1.21,0,0,0,.24.75,0.9,0.9,0,0,0,.71.31h3.31a1.23,1.23,0,0,0,1.07-.62,1.21,1.21,0,0,1-.58.14" transform="translate(-362.93 -262.37)"/><path class="cls-7" d="M391.89,319.15h-3.31a0.87,0.87,0,0,1-.7-0.31,1.23,1.23,0,0,1-.23-0.94l0.66-2.32,0-.16a1.22,1.22,0,0,1,.15-0.36,1.18,1.18,0,0,0-.64.83s-0.7,2.48-.7,2.48a0.93,0.93,0,0,0,0,.19,1.21,1.21,0,0,0,.24.75,0.9,0.9,0,0,0,.71.31h3.31a1.23,1.23,0,0,0,1.07-.62A1.21,1.21,0,0,1,391.89,319.15Z" transform="translate(-362.93 -262.37)"/><path class="cls-4" d="M391,317.6c0.06-.19.4-1.39,0.5-1.71h-1l-0.13.47H391l-0.35,1.24H391Z" transform="translate(-362.93 -262.37)"/><path class="cls-7" d="M391,317.6c0.06-.19.4-1.39,0.5-1.71h-1l-0.13.47H391l-0.35,1.24H391Z" transform="translate(-362.93 -262.37)"/><path class="cls-4" d="M383.76,315.88l0.31-1.07h-0.35l-0.31,1.07h0.36" transform="translate(-362.93 -262.37)"/><path class="cls-7" d="M383.76,315.88l0.31-1.07h-0.35l-0.31,1.07h0.36Z" transform="translate(-362.93 -262.37)"/><path class="cls-4" d="M382.82,319.14l0.44-1.54h-0.88l-0.13.47h0.53l-0.44,1.54h2.23l0.13-.47h-1.87Z" transform="translate(-362.93 -262.37)"/><path class="cls-7" d="M382.82,319.14l0.44-1.54h-0.88l-0.13.47h0.53l-0.44,1.54h2.23l0.13-.47h-1.87Z" transform="translate(-362.93 -262.37)"/><path class="cls-4" d="M379.67,319.14l1.25-4.33h-0.35l-1.4,4.8h2.27l0.13-.47h-1.91Z" transform="translate(-362.93 -262.37)"/><path class="cls-7" d="M379.67,319.14l1.25-4.33h-0.35l-1.4,4.8h2.27l0.13-.47h-1.91Z" transform="translate(-362.93 -262.37)"/><path class="cls-4" d="M397.87,317.42c0,0.07,0,.09,0,0.18h2.4l0-.18h-2.4" transform="translate(-362.93 -262.37)"/><path class="cls-7" d="M397.87,317.42c0,0.07,0,.09,0,0.18h2.4l0-.18h-2.4Z" transform="translate(-362.93 -262.37)"/><path class="cls-4" d="M398.31,315.88l-0.06.23h2.38l0.07-.23h-2.39" transform="translate(-362.93 -262.37)"/><path class="cls-7" d="M398.31,315.88l-0.06.23h2.38l0.07-.23h-2.39Z" transform="translate(-362.93 -262.37)"/><polygon class="cls-4" points="32.16 56.77 33.4 52.44 33.05 52.44 31.66 57.24 36.7 57.24 36.84 56.77 32.16 56.77"/><polygon class="cls-7" points="32.16 56.77 33.4 52.44 33.05 52.44 31.66 57.24 36.7 57.24 36.84 56.77 32.16 56.77"/><polygon class="cls-4" points="46.98 56.77 48.22 52.44 47.86 52.44 46.49 57.24 48.75 57.24 48.88 56.77 46.98 56.77"/><polygon class="cls-7" points="46.98 56.77 48.22 52.44 47.86 52.44 46.49 57.24 48.75 57.24 48.88 56.77 46.98 56.77"/><path class="cls-4" d="M418.1,319.14L417.75,318l-0.48.53c0.11,0.38.34,1.09,0.34,1.09H420l-0.19-.47H418.1Z" transform="translate(-362.93 -262.37)"/><path class="cls-7" d="M418.1,319.14L417.75,318l-0.48.53c0.11,0.38.34,1.09,0.34,1.09H420l-0.19-.47H418.1Z" transform="translate(-362.93 -262.37)"/><path class="cls-4" d="M418.26,315.43l0.53-.61h-0.3l-0.32.37,0.08,0.24" transform="translate(-362.93 -262.37)"/><path class="cls-7" d="M418.26,315.43l0.53-.61h-0.3l-0.32.37Z" transform="translate(-362.93 -262.37)"/><path class="cls-4" d="M413.93,319.14l2.46-2.56-0.72-1.77H415l0.82,2.06-2.61,2.75h3l0.42-.47h-2.72Z" transform="translate(-362.93 -262.37)"/><path class="cls-7" d="M413.93,319.14l2.46-2.56-0.72-1.77H415l0.82,2.06-2.61,2.75h3l0.42-.47h-2.72Z" transform="translate(-362.93 -262.37)"/><path class="cls-4" d="M402.18,319.15l1.24-4.34h-0.36l0,0.12-1.34,4.69H404l0.14-.47h-1.94Z" transform="translate(-362.93 -262.37)"/><path class="cls-7" d="M402.18,319.15l1.24-4.34h-0.36l0,0.12-1.34,4.69H404l0.14-.47h-1.94Z" transform="translate(-362.93 -262.37)"/><path class="cls-4" d="M405.08,319.15s0.83-2.85.93-3.23h-0.6s-0.07.22-.13,0.47h0.25l-0.93,3.23h2.28l0.14-.47h-1.92Z" transform="translate(-362.93 -262.37)"/><path class="cls-7" d="M405.08,319.15s0.83-2.85.93-3.23h-0.6s-0.07.22-.13,0.47h0.25l-0.93,3.23h2.28l0.14-.47h-1.92Z" transform="translate(-362.93 -262.37)"/><path class="cls-4" d="M371.91,319.14l1.24-4.33h-0.35l0,0.12-1.35,4.68h2.24l0.14-.47h-1.88Z" transform="translate(-362.93 -262.37)"/><path class="cls-7" d="M371.91,319.14l1.24-4.33h-0.35l0,0.12-1.35,4.68h2.24l0.14-.47h-1.88Z" transform="translate(-362.93 -262.37)"/><path class="cls-4" d="M376.26,316.57c0-.14.13-0.45,0.2-0.69h-1.37c0,0.11-.08.29-0.14,0.47h1l-0.06.21h0.36Z" transform="translate(-362.93 -262.37)"/><path class="cls-7" d="M376.26,316.57c0-.14.13-0.45,0.2-0.69h-1.37c0,0.11-.08.29-0.14,0.47h1l-0.06.21h0.36Z" transform="translate(-362.93 -262.37)"/><path class="cls-4" d="M376.57,318.12h-2.13l-0.14.47h1.78a1.47,1.47,0,0,0,1.45-.66,2.16,2.16,0,0,1-1,.18" transform="translate(-362.93 -262.37)"/><path class="cls-7" d="M376.57,318.12h-2.13l-0.14.47h1.78a1.47,1.47,0,0,0,1.45-.66A2.16,2.16,0,0,1,376.57,318.12Z" transform="translate(-362.93 -262.37)"/><path class="cls-2" d="M406.21,323.75s-2.08,7.71-2.38,8.87H400l2.47-9.08h-2.56l-2.46,9.09h-3.85c0.13-.51,3.19-11.84,3.28-12.14h8A1.28,1.28,0,0,1,406,321a2.63,2.63,0,0,1,.42,1.58,4.75,4.75,0,0,1-.16,1.21" transform="translate(-362.93 -262.37)"/><path class="cls-2" d="M391.39,332.59h-8a1.28,1.28,0,0,1-1.08-.49,2.66,2.66,0,0,1-.42-1.58,5.17,5.17,0,0,1,.15-1.22s2.07-7.71,2.39-8.86h3.82l-2.48,9.08h2.57l2.46-9.09h3.85l-3.27,12.14" transform="translate(-362.93 -262.37)"/><path class="cls-2" d="M380.57,327.93c-0.12.5-.68,2.69-0.85,3.22-0.34,1.08-.89,1.6-1.68,1.6h-9.5l0.87-3.19h6.38l0.53-1.8h-4.54a1.47,1.47,0,0,1-1.2-.53,1.39,1.39,0,0,1-.29-0.88,1.94,1.94,0,0,1,.06-0.49c0.09-.36.9-3.37,1-3.82a1.84,1.84,0,0,1,1.95-1.57h9.1c-0.11.43-.73,2.84-0.8,3.11h-6.35l-0.49,1.8h4.57a1.21,1.21,0,0,1,1,.41,2.78,2.78,0,0,1,.17,2.14" transform="translate(-362.93 -262.37)"/><path class="cls-2" d="M416.65,325.38a1.22,1.22,0,0,1,1,.41,2.76,2.76,0,0,1,.17,2.14c-0.15.6-.68,2.71-0.84,3.21-0.34,1.08-.89,1.6-1.68,1.6h-9.5c0.12-.43.8-2.93,0.87-3.19h6.38l0.53-1.8h-4.54a1.48,1.48,0,0,1-1.21-.53,1.39,1.39,0,0,1-.28-0.88,2.13,2.13,0,0,1,.06-0.49c0.1-.39.9-3.39,1-3.82a1.84,1.84,0,0,1,2-1.57h9.1l-0.8,3.11h-6.35l-0.5,1.8h4.58Z" transform="translate(-362.93 -262.37)"/><path class="cls-2" d="M384.79,318.8h-1.52c0.09-.32.44-1.55,0.44-1.55h-1.6l-0.44,1.54h-1.55l1.19-4.12h1.54c-0.09.32-.45,1.53-0.45,1.53H384s0.38-1.33.45-1.54H386l-1.19,4.12" transform="translate(-362.93 -262.37)"/><path class="cls-2" d="M400.79,315.54H398l-0.25.92h2.75l-0.17.63h-2.76l-0.25.86h2.75c-0.08.26-.21,0.69-0.25,0.86h-4.32l1.18-4.12h4.33l-0.26.85" transform="translate(-362.93 -262.37)"/><path class="cls-2" d="M411.91,318.8h-1.54c0.11-.39,1.1-3.89,1.17-4.12h1.55c-0.11.38-1.12,3.89-1.18,4.12" transform="translate(-362.93 -262.37)"/><path class="cls-2" d="M420,318.8h-1.63l-0.46-1.49-1.33,1.49h-1.83l2.06-2.15-0.8-2h1.64l0.5,1.41,0.2-.22s0.94-1.09,1-1.19h1.9l-2.11,2.1,0.83,2" transform="translate(-362.93 -262.37)"/><path class="cls-2" d="M408,315.73l-0.88,3.08h-1.56c0.11-.38.93-3.23,0.93-3.23h-1.32l-0.93,3.23h-1.58c0.11-.38,1.12-3.9,1.18-4.13h3.61a0.55,0.55,0,0,1,.48.2,0.8,0.8,0,0,1,.13.47,1.27,1.27,0,0,1-.05.38" transform="translate(-362.93 -262.37)"/><path class="cls-2" d="M378.29,315.49a5.05,5.05,0,0,1-.36,1.41,1.17,1.17,0,0,1-1.36.88h-2.38l0,0.12-0.27.91h-1.52c0.11-.39,1.12-3.9,1.18-4.12h4a0.75,0.75,0,0,1,.57.19,0.81,0.81,0,0,1,.18.55,0.37,0.37,0,0,1,0,.06m-3.46.06-0.39,1.37h2.08l0.39-1.37h-2.08Z" transform="translate(-362.93 -262.37)"/><path class="cls-2" d="M390.24,315.54l-0.69,2.4h1.72l0.69-2.4h-1.73Zm3.29,0-0.72,2.47a1,1,0,0,1-.91.75h-3.31a0.53,0.53,0,0,1-.44-0.19,0.85,0.85,0,0,1-.17-0.53,0.4,0.4,0,0,1,0-.11l0.65-2.3,0-.17a1.1,1.1,0,0,1,1.13-.82H393a0.51,0.51,0,0,1,.43.18,1,1,0,0,1,.13.71" transform="translate(-362.93 -262.37)"/><path class="cls-8" d="M390.42,265a6.72,6.72,0,0,0-6.21,4.92l-4.4,17.63-6.39,25.29h43.37a6.67,6.67,0,0,0,6.22-4.85l10.17-43Z" transform="translate(-362.93 -262.37)"/><path class="cls-7" d="M390.42,265a6.72,6.72,0,0,0-6.21,4.92l-4.4,17.63-6.39,25.29h43.37a6.67,6.67,0,0,0,6.22-4.85l10.17-43Z" transform="translate(-362.93 -262.37)"/><g class="cls-9"><polygon class="cls-4" points="58.64 25.39 64.96 20.97 66.06 19.12 57.92 19.51 57.08 13.49 62.84 8.17 61.21 8.28 52.05 11.39 50.83 3.52 49.62 4.4 45.34 11.23 42.44 12.98 37.69 5.18 36.77 8.17 37.23 13.74 37.27 16.04 37.19 16.15 30.45 13.24 31.3 16.52 34.32 20.31 29.72 20.08 30.8 22.08 33.26 23.16 13.89 37.21 17.31 35.9 29.26 27.88 13.9 41.16 12.39 43.02 33.12 27.85 32.19 29.97 12.93 47.62 10.85 50.32 32.52 34.16 34.65 34.41 21.25 47.17 18.98 50.33 38.73 35.09 42.32 34.22 27.25 47.09 24.82 50.33 46.34 34.85 49.97 40.6 53.35 42.62 54.43 32.02 61.43 32.04 63.4 30.86 58.64 25.39"/></g><g class="cls-9"><polygon class="cls-10" points="58.64 25.39 64.96 20.97 66.06 19.12 57.92 19.51 57.08 13.49 62.84 8.17 61.21 8.28 52.05 11.39 50.83 3.52 49.62 4.4 45.34 11.23 42.44 12.98 37.69 5.18 36.77 8.17 37.23 13.74 37.27 16.04 37.19 16.15 30.45 13.24 31.3 16.52 34.32 20.31 29.72 20.08 30.8 22.08 33.26 23.16 13.89 37.21 17.31 35.9 29.26 27.88 13.9 41.16 12.39 43.02 33.12 27.85 32.19 29.97 12.93 47.62 10.85 50.32 32.52 34.16 34.65 34.41 21.25 47.17 18.98 50.33 38.73 35.09 42.32 34.22 27.25 47.09 24.82 50.33 46.34 34.85 49.97 40.6 53.35 42.62 54.43 32.02 61.43 32.04 63.4 30.86 58.64 25.39"/></g><g class="cls-9"><polygon class="cls-11" points="66.06 19.12 58.94 16.58 62.84 8.17 54.08 11.51 50.83 3.52 46.83 9.91 37.69 5.18 38.37 13.83 30.45 13.24 34.61 18.47 29.72 20.08 32.84 21.55 13.89 37.21 34.99 23.28 12.39 43.02 32.95 30.36 10.84 50.32 35.85 34.53 18.98 50.33 43.62 34.51 24.82 50.33 48.73 35.63 53.35 42.62 57.17 30.86 63.4 30.86 60.35 23.33 66.06 19.12"/></g><g class="cls-9"><polygon class="cls-12" points="66.06 19.12 58.94 16.58 62.84 8.17 54.08 11.51 50.83 3.52 46.83 9.91 37.69 5.18 38.37 13.83 30.45 13.24 34.61 18.47 29.72 20.08 32.84 21.55 13.89 37.21 34.99 23.28 12.39 43.02 32.95 30.36 10.84 50.32 35.85 34.53 18.98 50.33 43.62 34.51 24.82 50.33 48.73 35.63 53.35 42.62 57.17 30.86 63.4 30.86 60.35 23.33 66.06 19.12"/></g><g class="cls-13"><path class="cls-14" d="M411.44,297.67a13.6,13.6,0,1,0-13.6-13.6,13.61,13.61,0,0,0,13.6,13.6" transform="translate(-362.93 -262.37)"/></g><g class="cls-13"><path class="cls-15" d="M411.43,294a11.56,11.56,0,1,0-8.89-13.72A11.55,11.55,0,0,0,411.43,294" transform="translate(-362.93 -262.37)"/></g><g class="cls-13"><path class="cls-16" d="M411.43,294a11.56,11.56,0,1,0-8.89-13.72A11.55,11.55,0,0,0,411.43,294Z" transform="translate(-362.93 -262.37)"/></g><g class="cls-13"><path class="cls-11" d="M410.08,271.71s16.09,1.32,12.14,18.91c0,0,4.4-8.22-1.43-14.91a12.87,12.87,0,0,0-10.71-4" transform="translate(-362.93 -262.37)"/></g><g class="cls-13"><path class="cls-17" d="M410.08,271.71s16.09,1.32,12.14,18.91c0,0,4.4-8.22-1.43-14.91A12.87,12.87,0,0,0,410.08,271.71Z" transform="translate(-362.93 -262.37)"/></g><g class="cls-13"><path class="cls-11" d="M419.3,280.14c-0.06-.16-0.11-0.25-0.12-0.28a14.25,14.25,0,0,0-2-3.19,17.14,17.14,0,0,1,5.74-.39l-0.28-.85a17.51,17.51,0,0,0-6.11.51,14.11,14.11,0,0,0-2.86-2.25,4.92,4.92,0,0,0,1.15-2.56l-0.71,0a4.21,4.21,0,0,1-1,2.22,16.53,16.53,0,0,0-7.22-1.89l-0.22.63a15.48,15.48,0,0,1,6.65,1.93,5.34,5.34,0,0,1-2.92.75s-6.09.19-8.78,1.91l-1.16,1.92s3.59-3.11,10.17-3.08a6.5,6.5,0,0,0,3.34-1.17,12.51,12.51,0,0,1,2.54,1.85,24.2,24.2,0,0,0-7.68,4,23.49,23.49,0,0,0-8.19,11.74l2,1.78a24,24,0,0,1,7.24-12.94,20.14,20.14,0,0,1,7.32-3.85,10.91,10.91,0,0,1,2,3.27c-1,.11-4.27.89-6.2,6.11l-1.78,5.78c-0.06.22-1.1,4.71-4.89,4.75l0,1.47c5.13,0.81,5.82-2.12,6.77-5.6,0.62-2.67,1.41-6,1.41-6,1-4.77,4.15-5.53,5-5.65a20.11,20.11,0,0,1-2.21,15.31l2,0.89c0.29-.44.81-0.9,1-1.35a22,22,0,0,0,.46-14.87c3.28,0.34,5.17,3.74,5.24,3.89l1-.17c-0.09-.18-2.11-4.51-6.57-4.67" transform="translate(-362.93 -262.37)"/></g><g class="cls-13"><path class="cls-12" d="M419.3,280.14c-0.06-.16-0.11-0.25-0.12-0.28a14.25,14.25,0,0,0-2-3.19,17.14,17.14,0,0,1,5.74-.39l-0.28-.85a17.51,17.51,0,0,0-6.11.51,14.11,14.11,0,0,0-2.86-2.25,4.92,4.92,0,0,0,1.15-2.56l-0.71,0a4.21,4.21,0,0,1-1,2.22,16.53,16.53,0,0,0-7.22-1.89l-0.22.63a15.48,15.48,0,0,1,6.65,1.93,5.34,5.34,0,0,1-2.92.75s-6.09.19-8.78,1.91l-1.16,1.92s3.59-3.11,10.17-3.08a6.5,6.5,0,0,0,3.34-1.17,12.51,12.51,0,0,1,2.54,1.85,24.2,24.2,0,0,0-7.68,4,23.49,23.49,0,0,0-8.19,11.74l2,1.78a24,24,0,0,1,7.24-12.94,20.14,20.14,0,0,1,7.32-3.85,10.91,10.91,0,0,1,2,3.27c-1,.11-4.27.89-6.2,6.11l-1.78,5.78c-0.06.22-1.1,4.71-4.89,4.75l0,1.47c5.13,0.81,5.82-2.12,6.77-5.6,0.62-2.67,1.41-6,1.41-6,1-4.77,4.15-5.53,5-5.65a20.11,20.11,0,0,1-2.21,15.31l2,0.89c0.29-.44.81-0.9,1-1.35a22,22,0,0,0,.46-14.87c3.28,0.34,5.17,3.74,5.24,3.89l1-.17C425.78,284.63,423.76,280.3,419.3,280.14Z" transform="translate(-362.93 -262.37)"/></g><g class="cls-13"><path class="cls-2" d="M424.39,282.44A6.91,6.91,0,0,0,421,280.1a6.6,6.6,0,0,0-1.39-.3,6.4,6.4,0,0,0-1,0h0v0a14,14,0,0,0-2.12-3.21l-0.06-.06,0.08,0a16.15,16.15,0,0,1,5.93-.5l-0.23-.65h0a11,11,0,0,0-1.19-.06,18,18,0,0,0-5.1.62h0l0,0a13.42,13.42,0,0,0-2.7-2l-0.05,0,0.23-.24a4.31,4.31,0,0,0,1-2.2,7.09,7.09,0,0,0,.1-1.14l-0.88.35-0.05.62,0,0.24v0a4,4,0,0,1-1.27,1.85l0,0,0,0a16.7,16.7,0,0,0-6.75-1.52h-0.08c0,0.06-.13.43-0.17,0.52a18.23,18.23,0,0,1,6.18,1.52l0.12,0.05-0.12,0a5.8,5.8,0,0,1-2.11.25c-0.91-.11-7.87-0.25-10.34,2.37,0,0.07.82,1.14,0.88,1.23a3.24,3.24,0,0,1,.34-0.31,17.41,17.41,0,0,1,9.23-2.26,6.15,6.15,0,0,0,3-.82l0,0,0,0a12.37,12.37,0,0,1,2.41,1.74l0.07,0.06-0.09,0a20.16,20.16,0,0,0-3.41,1.4,24.08,24.08,0,0,0-5,3.3l-0.23.24,0,0a23,23,0,0,0-6.84,10.58l1.82,1.07a23,23,0,0,1,.76-2.6c0.25-.67.54-1.37,0.87-2.07a22.79,22.79,0,0,1,5.69-7.58,22.09,22.09,0,0,1,7-3.81h0l0,0a11,11,0,0,1,2,3.08l0,0.06h-0.06a5.84,5.84,0,0,0-1.38.53c-3.54,1.76-4.56,6.2-4.57,6.24l-1.59,4.81c-0.22.8-1.44,4.68-5,4.68,0,0.09,0,1,0,1.06l1.07,0.21c1.16,0.24,1.74.36,2.45,0h0a1.27,1.27,0,0,0,.86-0.44s0.65-.34,1.41-2.21a22.65,22.65,0,0,0,.8-2.42l0-.16,0.19-.9,0-.08c0.53-2.28,1.3-5,1.3-5l0.1-.37a13,13,0,0,1,.69-1.74,6.05,6.05,0,0,1,3.91-3.23h0v0a19.32,19.32,0,0,1,.68,5.18,20.4,20.4,0,0,1-2.89,10.49l-2,2.49,3.91-1.73a17.43,17.43,0,0,0,2.62-9.49,23.4,23.4,0,0,0-1.1-7l0-.07h0.07c3.65,0.11,5.62,3.4,5.77,3.67l0.83,0.08a9.09,9.09,0,0,0-1.32-2" transform="translate(-362.93 -262.37)"/></g><g class="cls-13"><path class="cls-4" d="M424.43,282.41h0a7,7,0,0,0-3.37-2.36,7.48,7.48,0,0,0-2.36-.35,14.11,14.11,0,0,0-2.13-3.22,15.64,15.64,0,0,1,6-.48l-0.26-.76c-0.07,0-.52-0.06-1.27-0.07h0a18.35,18.35,0,0,0-5.12.63,13.35,13.35,0,0,0-2.71-2l0.19-.2a4.35,4.35,0,0,0,1-2.22,6.92,6.92,0,0,0,.1-1.23l-1,.39a5.79,5.79,0,0,1-.06.64h0a1.59,1.59,0,0,1,0,.24,0.07,0.07,0,0,0,0,0,4,4,0,0,1-1.26,1.82,16.68,16.68,0,0,0-6.88-1.54l-0.2.62a18,18,0,0,1,6.23,1.52,5.79,5.79,0,0,1-2.09.25c-1.12-.14-8-0.22-10.42,2.42l0.95,1.31a3.36,3.36,0,0,1,.39-0.35,17.28,17.28,0,0,1,9.2-2.26,6.07,6.07,0,0,0,3.05-.83,12.8,12.8,0,0,1,2.41,1.74,20.25,20.25,0,0,0-3.43,1.41,24.16,24.16,0,0,0-5,3.31l-0.27.29a23.06,23.06,0,0,0-6.86,10.64l1.91,1.13a21.53,21.53,0,0,1,.78-2.66c0.29-.79.61-1.51,0.86-2.07a22.76,22.76,0,0,1,5.68-7.56,22.09,22.09,0,0,1,7-3.8,10.9,10.9,0,0,1,2,3.07,5.94,5.94,0,0,0-1.4.53c-3.6,1.8-4.6,6.28-4.6,6.28l-1.59,4.8c-0.06.21-1.19,4.69-5,4.65l0,1.16c2,0.34,2.67.69,3.59,0.17a1.3,1.3,0,0,0,.91-0.46s0.64-.3,1.42-2.23a24.11,24.11,0,0,0,.85-2.57c0.06-.29.12-0.6,0.19-0.91l0-.08v0c0.53-2.28,1.29-5,1.29-5l0.1-.36a13.87,13.87,0,0,1,.69-1.73,6,6,0,0,1,3.88-3.2,20.43,20.43,0,0,1-2.21,15.64l-2.16,2.65,4.12-1.83c4.16-6.5,2.37-14,1.54-16.57,3.65,0.11,5.67,3.52,5.74,3.67l0.95,0.09a9.74,9.74,0,0,0-1.37-2.12" transform="translate(-362.93 -262.37)"/></g><g class="cls-18"><path class="cls-19" d="M411.45,297.16a13.08,13.08,0,1,1,13.08-13.08A13.08,13.08,0,0,1,411.45,297.16Z" transform="translate(-362.93 -262.37)"/></g><g class="cls-20"><path class="cls-21" d="M411.45,297.16a13.08,13.08,0,1,1,13.08-13.08A13.08,13.08,0,0,1,411.45,297.16Z" transform="translate(-362.93 -262.37)"/></g><g class="cls-22"><path class="cls-12" d="M411.45,297.16a13.08,13.08,0,1,1,13.08-13.08A13.08,13.08,0,0,1,411.45,297.16Z" transform="translate(-362.93 -262.37)"/></g></svg>