<svg id="Layer_1" data-name="Layer 1" xmlns="http://www.w3.org/2000/svg" xmlns:xlink="http://www.w3.org/1999/xlink" viewBox="0 0 66.68 81.72"><defs><style>.cls-1{fill:none;}.cls-2{fill:#c4ced4;}.cls-3{fill:#231f20;}.cls-4{fill:#e13a3e;}.cls-5{clip-path:url(#clip-path);}.cls-6{fill:url(#linear-gradient);}.cls-7{clip-path:url(#clip-path-2);}.cls-8{fill:url(#linear-gradient-2);}.cls-9{clip-path:url(#clip-path-3);}.cls-10{fill:url(#linear-gradient-3);}.cls-11{clip-path:url(#clip-path-4);}.cls-12{fill:url(#linear-gradient-4);}.cls-13{clip-path:url(#clip-path-5);}.cls-14{fill:url(#linear-gradient-5);}.cls-15{clip-path:url(#clip-path-6);}.cls-16{fill:url(#linear-gradient-6);}.cls-17{clip-path:url(#clip-path-7);}.cls-18{fill:url(#linear-gradient-7);}.cls-19{clip-path:url(#clip-path-8);}.cls-20{fill:url(#linear-gradient-8);}.cls-21{clip-path:url(#clip-path-9);}.cls-22{fill:url(#linear-gradient-9);}.cls-23{clip-path:url(#clip-path-10);}.cls-24{fill:url(#linear-gradient-10);}.cls-25{clip-path:url(#clip-path-11);}.cls-26{fill:url(#linear-gradient-11);}.cls-27{clip-path:url(#clip-path-12);}.cls-28{fill:url(#linear-gradient-12);}.cls-29{fill:#fff;}</style><clipPath id="clip-path" transform="translate(-366.66 -259.14)"><polygon class="cls-1" points="380.44 327.69 380.86 328.44 378.67 336.64 380.97 336.64 381.19 335.83 380.01 335.83 382.2 327.69 380.44 327.69"/></clipPath><linearGradient id="linear-gradient" x1="-140.51" y1="69.15" x2="-138.89" y2="69.15" gradientTransform="translate(397.96 849.14) rotate(90) scale(5.56)" gradientUnits="userSpaceOnUse"><stop offset="0" stop-color="#fff"/><stop offset="0.15" stop-color="#fff"/><stop offset="0.28" stop-color="#fafbfb"/><stop offset="0.44" stop-color="#eceff1"/><stop offset="0.61" stop-color="#d4dbe0"/><stop offset="0.71" stop-color="#c4ced4"/><stop offset="1" stop-color="#c4ced4"/></linearGradient><clipPath id="clip-path-2" transform="translate(-366.66 -259.14)"><path class="cls-1" d="M387.2,329.24l-0.88,4.3h-0.67Zm-0.72-.83-3.08,8.22h1.14l0.8-2.27h0.82l-0.49,2.27h1.18l1.65-9H386.1Z"/></clipPath><linearGradient id="linear-gradient-2" x1="-140.51" y1="68.77" x2="-138.89" y2="68.77" gradientTransform="translate(401.38 849.25) rotate(90) scale(5.56)" xlink:href="#linear-gradient"/><clipPath id="clip-path-3" transform="translate(-366.66 -259.14)"><polygon class="cls-1" points="391.06 327.69 391.5 328.46 392.67 328.46 388.91 336.64 391.91 336.64 392.12 335.83 390.51 335.83 394.26 327.69 391.06 327.69"/></clipPath><linearGradient id="linear-gradient-3" x1="-140.52" y1="68.39" x2="-138.9" y2="68.39" gradientTransform="translate(404.95 849.35) rotate(90) scale(5.56)" xlink:href="#linear-gradient"/><clipPath id="clip-path-4" transform="translate(-366.66 -259.14)"><path class="cls-1" d="M396.48,327.69l0.43,0.75-2.19,8.2h2.45l0.22-.81h-1.32l1-3.55h1.18l0.22-.81h-1.19l0.81-3h1.31l0.21-.78h-3.08Z"/></clipPath><linearGradient id="linear-gradient-4" x1="-140.52" y1="68.01" x2="-138.9" y2="68.01" gradientTransform="translate(408.37 849.35) rotate(90) scale(5.56)" xlink:href="#linear-gradient"/><clipPath id="clip-path-5" transform="translate(-366.66 -259.14)"><path class="cls-1" d="M403.2,328.42a2,2,0,0,1,.55,0c0.12,0,.13.15,0.07,0.38l-0.55,2.08a0.69,0.69,0,0,1-.21.42,0.83,0.83,0,0,1-.58.15h-0.09Zm0.42-.73h-2l0.43,0.75-2.2,8.21H401s1.05-4,1.17-4.36h0.09a0.71,0.71,0,0,1,.45.09,0.39,0.39,0,0,1,0,.41l-1,3.86h1.13l1-3.76a0.85,0.85,0,0,0-.07-0.9,0.6,0.6,0,0,0-.2-0.11,1.49,1.49,0,0,0,.26-0.11,1,1,0,0,0,.29-0.23,1.05,1.05,0,0,0,.18-0.39l0.59-2.21,0-.08a0.77,0.77,0,0,0-.19-0.94,1.88,1.88,0,0,0-1.13-.24h0Z"/></clipPath><linearGradient id="linear-gradient-5" x1="-140.52" y1="67.64" x2="-138.91" y2="67.64" gradientTransform="translate(411.69 849.48) rotate(90) scale(5.56)" xlink:href="#linear-gradient"/><clipPath id="clip-path-6" transform="translate(-366.66 -259.14)"><path class="cls-1" d="M408.85,327.69h-1.47l0.21,0.37,0.17,0.32a2,2,0,0,0-.2.51l-0.11.41a5,5,0,0,0-.18,1,2.58,2.58,0,0,0,.18.93c0.09,0.26.65,1.63,0.69,1.83a1.49,1.49,0,0,1-.06.83l-0.48,1.79a0.35,0.35,0,0,1-.44.32c-0.35,0-.34-0.15-0.29-0.32l0.61-2.26h-1.14l-0.53,2a1,1,0,0,0,.05.9,1.37,1.37,0,0,0,1.14.36,1.56,1.56,0,0,0,1.8-1.25l0.44-1.62a2.13,2.13,0,0,0,.05-1.12,4.34,4.34,0,0,0-.27-0.79l-0.41-1.06a2,2,0,0,1-.17-0.78,3.92,3.92,0,0,1,.19-0.95l0.14-.51a0.37,0.37,0,0,1,.46-0.32,0.35,0.35,0,0,1,.27.08,0.28,0.28,0,0,1,0,.25L409,330.43h1.13l0.41-1.53a1.07,1.07,0,0,0,0-.91,1.31,1.31,0,0,0-1.12-.36,3,3,0,0,0-.54,0"/></clipPath><linearGradient id="linear-gradient-6" x1="-140.54" y1="67.25" x2="-138.92" y2="67.25" gradientTransform="translate(415.34 849.76) rotate(90) scale(5.56)" xlink:href="#linear-gradient"/><clipPath id="clip-path-7" transform="translate(-366.66 -259.14)"><path class="cls-1" d="M374.88,332.28H375a0.7,0.7,0,0,1,.45.09,0.37,0.37,0,0,1,0,.41l-0.76,2.83a0.39,0.39,0,0,1-.17.27,1,1,0,0,1-.44.06h-0.21Zm1-3.86a2,2,0,0,1,.54,0c0.13,0,.13.15,0.07,0.38L376,330.9a0.7,0.7,0,0,1-.2.42,0.87,0.87,0,0,1-.58.15H375.1Zm0.51-.73h-2.06l0.4,0.76-2.2,8.2h1.34a2.51,2.51,0,0,0,1.34-.23,1.4,1.4,0,0,0,.65-1l0.67-2.52a0.85,0.85,0,0,0-.06-0.89,0.6,0.6,0,0,0-.2-0.11,1.73,1.73,0,0,0,.26-0.11,0.9,0.9,0,0,0,.47-0.62l0.61-2.28,0-.07a0.72,0.72,0,0,0-.19-0.87,1.73,1.73,0,0,0-1-.24h-0.06"/></clipPath><linearGradient id="linear-gradient-7" x1="-140.52" y1="69.51" x2="-138.9" y2="69.51" gradientTransform="translate(394.74 849.31) rotate(90) scale(5.56)" xlink:href="#linear-gradient"/><clipPath id="clip-path-8" transform="translate(-366.66 -259.14)"><polygon class="cls-1" points="405.28 318.04 403.08 326.24 405.39 326.24 405.6 325.44 404.43 325.44 406.61 317.29 404.86 317.28 405.28 318.04"/></clipPath><linearGradient id="linear-gradient-8" x1="-140.91" y1="67.41" x2="-139.29" y2="67.41" gradientTransform="translate(410.77 836.95) rotate(90) scale(5.53)" xlink:href="#linear-gradient"/><clipPath id="clip-path-9" transform="translate(-366.66 -259.14)"><path class="cls-1" d="M395.23,318.84l-0.88,4.31h-0.67Zm-0.72-.83-3.08,8.22h1.14l0.79-2.27h0.82c-0.09.44-.5,2.28-0.5,2.28h1.18l1.65-8.95h-2.39Z"/></clipPath><linearGradient id="linear-gradient-9" x1="-140.95" y1="68.18" x2="-139.34" y2="68.18" gradientTransform="translate(404.42 837.79) rotate(90) scale(5.53)" xlink:href="#linear-gradient"/><clipPath id="clip-path-10" transform="translate(-366.66 -259.14)"><path class="cls-1" d="M389,318a2.16,2.16,0,0,1,.54,0c0.13,0,.13.15,0.07,0.38l-0.56,2.08a0.68,0.68,0,0,1-.2.42,0.85,0.85,0,0,1-.58.15h-0.09Zm0.42-.72h-2l0.43,0.75-2.2,8.21h1.13l1.18-4.37h0.09a0.67,0.67,0,0,1,.45.1,0.37,0.37,0,0,1,0,.41l-1,3.86h1.13l1-3.76a0.83,0.83,0,0,0-.06-0.89,0.63,0.63,0,0,0-.2-0.12,1.17,1.17,0,0,0,.26-0.11,0.93,0.93,0,0,0,.29-0.23,1,1,0,0,0,.18-0.39l0.59-2.21,0-.08a0.77,0.77,0,0,0-.19-0.93,1.81,1.81,0,0,0-1.09-.23h0"/></clipPath><linearGradient id="linear-gradient-10" x1="-140.89" y1="68.55" x2="-139.27" y2="68.55" gradientTransform="translate(400.34 836.51) rotate(90) scale(5.52)" xlink:href="#linear-gradient"/><clipPath id="clip-path-11" transform="translate(-366.66 -259.14)"><polygon class="cls-1" points="400.33 318.04 398.14 326.24 399.27 326.24 401.67 317.29 399.92 317.28 400.33 318.04"/></clipPath><linearGradient id="linear-gradient-11" x1="-140.91" y1="67.75" x2="-139.29" y2="67.75" gradientTransform="translate(407.72 836.95) rotate(90) scale(5.53)" xlink:href="#linear-gradient"/><clipPath id="clip-path-12" transform="translate(-366.66 -259.14)"><polygon class="cls-1" points="381.87 317.29 382.32 318.07 382.84 318.07 380.65 326.24 381.79 326.24 383.97 318.07 384.83 318.07 385.2 317.29 381.87 317.29"/></clipPath><linearGradient id="linear-gradient-12" x1="-140.89" y1="68.93" x2="-139.27" y2="68.93" gradientTransform="translate(397.1 836.56) rotate(90) scale(5.53)" xlink:href="#linear-gradient"/></defs><title>portland-trail-blazers</title><polygon class="cls-2" points="21.98 0 0 81.72 44.7 81.72 66.67 0 21.98 0"/><polygon class="cls-3" points="43.42 80.06 2.18 80.06 23.26 1.66 64.51 1.66 43.42 80.06"/><path class="cls-2" d="M399.76,299l1.37-1.38a3.07,3.07,0,0,1-2.46-2.94,2.48,2.48,0,0,1,.79-1.82l17.91-17.92h-1L399.52,290.1l-1.44,1.3a4.51,4.51,0,0,0-1.31,4.11,4.88,4.88,0,0,0,3,3.45" transform="translate(-366.66 -259.14)"/><path class="cls-2" d="M397.67,301l1.36-1.36a5.52,5.52,0,0,1-3.27-5,5.39,5.39,0,0,1,1.54-3.78l15.95-16h-0.92L397.4,288.08c-0.21.17-1.48,1.33-1.65,1.53a7.32,7.32,0,0,0-2,5,6.65,6.65,0,0,0,.08,1,7.24,7.24,0,0,0,3.83,5.39" transform="translate(-366.66 -259.14)"/><path class="cls-2" d="M395.55,303.17l1.38-1.37a8.3,8.3,0,0,1-1.79-12.89l14-14h-0.84l-13,11.17a21.32,21.32,0,0,0-1.86,1.76,10.25,10.25,0,0,0-2.59,6.81,9.39,9.39,0,0,0,.07,1.15,10.13,10.13,0,0,0,4.63,7.37" transform="translate(-366.66 -259.14)"/><path class="cls-2" d="M393.42,305.3l1.4-1.4a11.2,11.2,0,0,1-1.84-17l12-12h-0.78l-11.05,9.16a17.78,17.78,0,0,0-2.06,2,13.17,13.17,0,0,0-3.18,8.6,12.45,12.45,0,0,0,.07,1.3,13.12,13.12,0,0,0,5.42,9.36" transform="translate(-366.66 -259.14)"/><path class="cls-2" d="M385.07,296.08a16.17,16.17,0,0,0,6.22,11.34l1.42-1.42a14.15,14.15,0,0,1-1.89-21l10-10.08h-0.7L391.06,282a16.19,16.19,0,0,0-6,12.6c0,0.49,0,1,.06,1.44" transform="translate(-366.66 -259.14)"/><path class="cls-4" d="M403,290.6L401.58,292a3.08,3.08,0,0,1,2.46,2.94,2.5,2.5,0,0,1-.79,1.82l-17.91,17.92h1l16.86-15.2,1.44-1.3a4.48,4.48,0,0,0,1.39-3.25,4.35,4.35,0,0,0-.08-0.87,4.86,4.86,0,0,0-3-3.45" transform="translate(-366.66 -259.14)"/><path class="cls-4" d="M405,288.51l-1.36,1.36a5.51,5.51,0,0,1,3.27,5,5.39,5.39,0,0,1-1.54,3.78l-16,16h0.93l14.92-13.18c0.21-.17,1.48-1.33,1.65-1.53a7.33,7.33,0,0,0,2-5,6.36,6.36,0,0,0-.08-1,7.25,7.25,0,0,0-3.83-5.39" transform="translate(-366.66 -259.14)"/><path class="cls-4" d="M407.16,286.39l-1.37,1.38a8.3,8.3,0,0,1,1.78,12.89l-14,14h0.85l13-11.17a22.49,22.49,0,0,0,1.85-1.75,10.22,10.22,0,0,0,2.59-6.82,8.58,8.58,0,0,0-.08-1.15,10.14,10.14,0,0,0-4.62-7.38" transform="translate(-366.66 -259.14)"/><path class="cls-4" d="M409.29,284.26l-1.4,1.4a11.2,11.2,0,0,1,1.84,17l-12,12h0.77l11.06-9.16a17.64,17.64,0,0,0,2.06-2,13.18,13.18,0,0,0,3.19-8.6,11.81,11.81,0,0,0-.07-1.3,13.11,13.11,0,0,0-5.42-9.36" transform="translate(-366.66 -259.14)"/><path class="cls-4" d="M417.64,293.48a16.15,16.15,0,0,0-6.22-11.34L410,283.56a14.15,14.15,0,0,1,1.9,21l-10.05,10.08h0.69l9.12-7.15a16.51,16.51,0,0,0,2.26-2.21,16.11,16.11,0,0,0,3.78-10.38q0-.73-0.06-1.44" transform="translate(-366.66 -259.14)"/><g class="cls-5"><rect class="cls-6" x="12" y="68.54" width="3.53" height="8.95"/></g><g class="cls-7"><rect class="cls-8" x="16.74" y="68.54" width="5.1" height="8.95"/></g><g class="cls-9"><rect class="cls-10" x="22.25" y="68.54" width="5.36" height="8.95"/></g><g class="cls-11"><rect class="cls-12" x="28.06" y="68.54" width="4.84" height="8.95"/></g><g class="cls-13"><rect class="cls-14" x="33.2" y="68.54" width="5.24" height="8.96"/></g><g class="cls-15"><rect class="cls-16" x="39.01" y="68.5" width="5.04" height="9.06"/></g><g class="cls-17"><rect class="cls-18" x="5.92" y="68.54" width="5.24" height="8.99"/></g><g class="cls-19"><rect class="cls-20" x="36.42" y="58.14" width="3.53" height="8.96"/></g><g class="cls-21"><rect class="cls-22" x="24.78" y="58.15" width="5.09" height="8.95"/></g><g class="cls-23"><rect class="cls-24" x="19.01" y="58.15" width="5.24" height="8.96"/></g><g class="cls-25"><rect class="cls-26" x="31.48" y="58.14" width="3.53" height="8.96"/></g><g class="cls-27"><rect class="cls-28" x="13.99" y="58.15" width="4.54" height="8.95"/></g><path class="cls-4" d="M388.86,320.93a0.69,0.69,0,0,0,.2-0.42l0.56-2.08c0.06-.23.05-0.33-0.07-0.38a2.2,2.2,0,0,0-.54,0h0l0.11,0c0.13,0,.13.15,0.07,0.38l-0.56,2.08a0.67,0.67,0,0,1-.21.42,1.39,1.39,0,0,1-.22.11v0h0.09a0.85,0.85,0,0,0,.58-0.15m-8.65,5.31h0.44l2.19-8.17h-0.43Zm5.66,7.3h0.44l0.88-4.3-1,2.8Zm5.56-7.31,3.08-8.22-0.37-.72H393.7l0.38,0.72L391,326.24h0.44Zm-9.12-8.17-0.45-.78h-0.44l0.45,0.78h0.44Zm3.35,8.17,2.2-8.21-0.43-.75H387l0.43,0.75-2.21,8.21h0.44Zm2.85-4.27a0.72,0.72,0,0,0-.45-0.09H388v0l0.12,0.06a0.39,0.39,0,0,1,0,.41l-1,3.86h0.43l1-3.86a0.37,0.37,0,0,0,0-.41m18.93,9.29a2.59,2.59,0,0,1-.18-0.93,4.78,4.78,0,0,1,.18-1l0.11-.41a2,2,0,0,1,.2-0.51l-0.38-.69h-0.44l0.38,0.69a1.88,1.88,0,0,0-.2.51l-0.11.42a4.77,4.77,0,0,0-.18,1,2.7,2.7,0,0,0,.18.93c0.09,0.26.65,1.63,0.69,1.82a1.44,1.44,0,0,1-.06.83l-0.48,1.8a0.32,0.32,0,0,1-.22.29,0.65,0.65,0,0,0,.21,0,0.35,0.35,0,0,0,.44-0.32l0.48-1.8a1.46,1.46,0,0,0,.06-0.83c0-.19-0.6-1.57-0.69-1.83m-14.18-5h0.44L394.2,324h-0.44Zm4.87,0,2.19-8.2-0.42-.75h-0.44L399.9,318l-2.2,8.2h0.44Zm11,1.41H409a3.33,3.33,0,0,0-.52,0h0.41l0.34,0m-4.33-10.37h-0.43l0.42,0.75-2.19,8.2h0.44l2.2-8.2Zm-1.11,11.16a2.08,2.08,0,0,0-.55,0h0l0.11,0c0.13,0,.14.15,0.08,0.38l-0.56,2.08a0.69,0.69,0,0,1-.2.42,0.52,0.52,0,0,1-.23.11,0.19,0.19,0,0,1,0,0h0.09a0.83,0.83,0,0,0,.58-0.15,0.7,0.7,0,0,0,.21-0.42l0.55-2.08c0.06-.23.05-0.34-0.07-0.38m-9.83-5.29h0.44l0.88-4.31-1,2.81Zm-17.46,5.29a2,2,0,0,0-.54,0h0l0.11,0c0.12,0,.13.15,0.07,0.38l-0.56,2.08a0.67,0.67,0,0,1-.21.42,1.37,1.37,0,0,1-.22.11v0h0.09a0.85,0.85,0,0,0,.58-0.15,0.68,0.68,0,0,0,.2-0.42l0.56-2.08c0.06-.23.05-0.34-0.07-0.38m32.55,2,0.48-1.81a0.26,0.26,0,0,0,0-.24,0.33,0.33,0,0,0-.27-0.08l-0.24,0a0.16,0.16,0,0,1,.08.05,0.33,0.33,0,0,1,0,.25l-0.48,1.8H409Zm-6.75,1.85h-0.09v0l0.12,0.06a0.38,0.38,0,0,1,0,.41l-1,3.86h0.44l1-3.86a0.39,0.39,0,0,0,0-.41,0.71,0.71,0,0,0-.45-0.09m-5.77-4.59h-0.43l0.43,0.75-2.2,8.2h0.44l2.19-8.2Zm9.37,8.65a1.05,1.05,0,0,1-.05-0.9l0.53-2H405.9l-0.53,2a1.05,1.05,0,0,0,0,.9,1.34,1.34,0,0,0,1.14.36h0.23a1.19,1.19,0,0,1-.93-0.35m-3.8-7.9-0.43-.75h-0.43l0.43,0.75-2.2,8.21h0.44Zm-10.56,0-0.44-.77h-0.44l0.45,0.78h0.43Zm0.74,0-3.76,8.18h0.43l3.76-8.18h-0.44Zm-19.66,8.17,2.2-8.19-0.4-.76h-0.44l0.41,0.76-2.2,8.19h0.44Zm2.39-4.36h-0.09v0l0.12,0.06a0.37,0.37,0,0,1,0,.41l-0.76,2.83a0.37,0.37,0,0,1-.16.27,1,1,0,0,1-.21.05h0.21a0.93,0.93,0,0,0,.44-0.06,0.39,0.39,0,0,0,.17-0.27l0.76-2.83a0.38,0.38,0,0,0,0-.41,0.71,0.71,0,0,0-.45-0.09m5.47-4.59H380l0.42,0.75-2.2,8.2h0.44l2.19-8.2Zm3,8.95,3.08-8.22-0.37-.72h-0.44l0.37,0.72L383,336.64h0.44Zm2.27,0,0.49-2.27h-0.44l-0.49,2.27h0.44Z" transform="translate(-366.66 -259.14)"/><polygon class="cls-29" points="42.49 4.14 42.14 5.31 41.05 5.31 38.76 13.06 37.49 13.06 39.78 5.31 39.15 5.31 38.63 4.14 42.49 4.14"/><path class="cls-29" d="M393.68,263.29h-2.22l0.57,1.08-2.31,7.83H391l1-3.42h0.53a2.14,2.14,0,0,0,2.05-1.83l0.57-1.93c0.39-1.3-.15-1.74-1.47-1.74m0.15,1.92-0.63,2.12a0.77,0.77,0,0,1-.89.4l1-3.37h0.23c0.43,0,.48.24,0.3,0.85" transform="translate(-366.66 -259.14)"/><path class="cls-29" d="M398.69,263.12a2.36,2.36,0,0,0-.92.18h-1.63l0.56,1.06a1.84,1.84,0,0,0-.09.26l-1.85,6.26a1.07,1.07,0,0,0,1.21,1.5,2.06,2.06,0,0,0,2.11-1.5l1.85-6.26c0.34-1.16-.43-1.5-1.22-1.5m-0.08,1.62-1.78,6c-0.13.45-.29,0.55-0.54,0.55s-0.37-.1-0.23-0.55l1.78-6a0.55,0.55,0,0,1,.56-0.55c0.25,0,.35.1,0.22,0.55" transform="translate(-366.66 -259.14)"/><path class="cls-29" d="M403.32,263.29h-2.54l0.55,1.06L399,272.2h1.27l1.25-4.26c0.59,0,.72.19,0.56,0.73l-1.05,3.53h1.27l1.1-3.82c0.23-.81-0.21-0.92-0.21-0.92a1.33,1.33,0,0,0,.84-1.2l0.42-1.44c0.34-1.15-.14-1.53-1.16-1.53m-0.07,1.5-0.51,1.7a0.68,0.68,0,0,1-.71.57H401.8l0.81-2.72h0.3c0.29,0,.45.1,0.35,0.44" transform="translate(-366.66 -259.14)"/><polygon class="cls-29" points="45.31 4.14 43.16 4.14 43.73 5.21 41.41 13.06 44.29 13.06 44.64 11.89 43.02 11.89 45.31 4.14"/><path class="cls-29" d="M414.54,263.29l0.56,1.06-3.16,7.85h1.14l1-2.41H415l-0.48,2.41h1.28l1.66-8.91h-2.89Zm0.65,5.33h-0.66l1.4-3.71H416Z" transform="translate(-366.66 -259.14)"/><polygon class="cls-29" points="55.8 4.14 53.59 11.76 53.55 11.76 54.83 4.14 52.06 4.14 52.62 5.21 50.3 13.06 51.34 13.06 53.55 5.45 53.6 5.45 52.34 13.06 54.21 13.06 56.84 4.14 55.8 4.14"/><path class="cls-29" d="M426.52,263.29H424.1l0.57,1.09-2.31,7.83h1.8a2.16,2.16,0,0,0,2-1.61l1.56-5.28c0.46-1.57.06-2-1.19-2m0,1.73-1.61,5.46c-0.17.58-.35,0.67-0.67,0.67h-0.3l2-6.79h0.3c0.33,0,.46.09,0.29,0.67" transform="translate(-366.66 -259.14)"/></svg>