<?xml version="1.0" encoding="utf-8"?>
<!-- Generator: Adobe Illustrator 14.0.0, SVG Export Plug-In . SVG Version: 6.00 Build 43363)  -->
<!DOCTYPE svg PUBLIC "-//W3C//DTD SVG 1.1//EN" "http://www.w3.org/Graphics/SVG/1.1/DTD/svg11.dtd">
<svg version="1.1" id="Layer_1" xmlns="http://www.w3.org/2000/svg" xmlns:xlink="http://www.w3.org/1999/xlink" x="0px" y="0px"
	 width="226px" height="250px" viewBox="0 0 226 250" enable-background="new 0 0 226 250" xml:space="preserve">
<g>
	<path fill="#141006" d="M176.612,49.502L221.089,5h-20.538l-36.359,31.306L195.69,5h-19.711l-35.17,31.396L172.399,5h-18.833
		l-36.397,31.351L148.707,5h-18.703L93.489,36.435L125.137,5h-21.669L49.71,47.13c-5.041,4.046-9.694,8.615-13.843,13.559
		c-14.935,17.779-23.162,40.34-23.162,63.522c0,2.954,0.129,5.914,0.388,8.829c2.327,26.226,15.265,50.642,36.294,67.464L4.911,245
		h21.457l36.359-31.299L31.214,245H49.82l36.45-31.396L54.674,245h18.729l36.411-31.345L78.256,245h19.039l36.508-31.435
		L102.175,245h19.712l53.73-42.124c5.041-4.052,9.707-8.608,13.856-13.559c14.929-17.779,23.162-40.347,23.162-63.529
		c0-2.947-0.129-5.907-0.388-8.822C209.908,90.741,196.983,66.332,176.612,49.502"/>
	<path fill="#A7A9AC" d="M103.998,148.692l7.794-7.801c-8.918-2.76-13.959-8.86-13.959-16.68c0-4.045,1.726-7.716,4.472-10.308
		L203.859,12.296h-5.654l-95.578,86.161l-8.195,7.361c-4.854,4.627-7.904,11.162-7.904,18.393c0,1.687,0.174,3.334,0.484,4.924
		C88.81,138.262,96.372,145.984,103.998,148.692"/>
	<path fill="#A7A9AC" d="M92.158,160.513l7.704-7.69c-11.943-6.075-18.581-16.163-18.581-28.604c0-8.337,3.354-15.905,8.764-21.437
		l90.433-90.479h-5.229L90.62,87.044c-1.17,0.931-8.376,7.516-9.339,8.66c-6.993,7.464-11.277,17.501-11.277,28.513
		c0,1.958,0.148,3.871,0.446,5.732C72.375,143.315,80.712,154.605,92.158,160.513"/>
	<path fill="#A7A9AC" d="M80.104,172.572l7.807-7.82c-14.496-8.932-23.169-23.459-23.169-40.541c0-12.596,4.97-24.067,13.055-32.553
		l79.292-79.362h-4.814L78.638,75.631c-2.346,1.88-8.583,7.671-10.508,9.972c-9.125,10.289-14.677,23.815-14.677,38.608
		c0,2.223,0.135,4.415,0.42,6.553C55.928,148.376,65.932,163.563,80.104,172.572"/>
	<path fill="#A7A9AC" d="M68.045,184.625l7.936-7.93c-17.075-11.801-27.777-30.769-27.777-52.484
		c0-16.874,6.599-32.243,17.346-43.656L133.7,12.296h-4.382L66.649,64.211c-3.516,2.837-8.783,7.839-11.678,11.278
		c-11.251,13.106-18.063,30.148-18.063,48.722c0,2.495,0.136,4.951,0.395,7.368C39.486,153.436,51.145,172.527,68.045,184.625"/>
	<path fill="#A7A9AC" d="M20.731,132.394c2.327,26.109,15.627,49.084,35.261,64.291l8.046-8.046
		c-19.641-14.664-32.372-38.078-32.372-64.427c0-21.146,8.221-40.418,21.637-54.778l57.001-57.137h-3.942L54.654,52.812
		c-4.672,3.754-8.977,7.968-12.828,12.57c-13.385,15.931-21.457,36.456-21.457,58.83C20.37,126.965,20.486,129.698,20.731,132.394"
		/>
	<path fill="#E13A3E" d="M122.106,101.314l-7.808,7.813c8.932,2.747,13.966,8.854,13.966,16.661c0,4.052-1.726,7.729-4.479,10.308
		L22.218,237.703h5.674l95.597-86.147l8.162-7.368c4.86-4.64,7.904-11.167,7.904-18.399c0-1.687-0.175-3.335-0.485-4.918
		C137.28,111.751,129.706,104.016,122.106,101.314"/>
	<path fill="#E13A3E" d="M133.933,89.487l-7.69,7.697c11.93,6.081,18.561,16.157,18.561,28.598c0,8.343-3.348,15.911-8.763,21.437
		l-90.427,90.484h5.235l84.623-74.741c1.163-0.931,8.369-7.516,9.332-8.66c6.993-7.464,11.284-17.501,11.284-28.52
		c0-1.945-0.155-3.865-0.452-5.713C153.709,106.691,145.385,95.394,133.933,89.487"/>
	<path fill="#E13A3E" d="M145.985,77.434l-7.813,7.813c14.51,8.938,23.163,23.46,23.163,40.541c0,12.602-4.964,24.074-13.049,32.54
		L68.995,237.71h4.809l73.655-63.335c2.347-1.881,8.576-7.671,10.502-9.965c9.126-10.282,14.671-23.815,14.671-38.622
		c0-2.223-0.136-4.414-0.42-6.553C170.15,101.637,160.158,86.437,145.985,77.434"/>
	<path fill="#E13A3E" d="M158.039,65.381l-7.93,7.93c17.081,11.794,27.77,30.769,27.77,52.478c0,16.88-6.592,32.255-17.339,43.662
		l-68.15,68.26h4.382l62.669-51.922c3.509-2.83,8.782-7.819,11.678-11.265c11.245-13.112,18.057-30.154,18.057-48.735
		c0-2.488-0.136-4.944-0.388-7.368C186.604,96.57,174.938,77.486,158.039,65.381"/>
	<path fill="#E13A3E" d="M205.359,117.613c-2.327-26.103-15.641-49.084-35.255-64.292l-8.059,8.059
		c19.64,14.651,32.385,38.079,32.385,64.408c0,21.153-8.233,40.424-21.644,54.785l-57.002,57.137h3.949l51.695-40.515
		c4.679-3.755,8.977-7.976,12.835-12.57c13.391-15.931,21.456-36.456,21.456-58.836
		C205.721,123.035,205.592,120.302,205.359,117.613"/>
</g>
</svg>
