<svg id="Layer_1" data-name="Layer 1" xmlns="http://www.w3.org/2000/svg" xmlns:xlink="http://www.w3.org/1999/xlink" viewBox="0 0 81 100.26"><defs><style>.cls-1{fill:none;}.cls-2{fill:#fff;}.cls-3{fill:#051922;}.cls-4{fill:#393d94;}.cls-5{fill:#5a4099;}.cls-6{isolation:isolate;}.cls-7{fill:#a7a9ac;}.cls-8{clip-path:url(#clip-path);}.cls-9{clip-path:url(#clip-path-2);}.cls-10{clip-path:url(#clip-path-3);}.cls-11{clip-path:url(#clip-path-4);}.cls-12{clip-path:url(#clip-path-5);}.cls-13{clip-path:url(#clip-path-6);}</style><clipPath id="clip-path" transform="translate(-359.5 -249.87)"><rect class="cls-1" x="369.77" y="341.99" width="1.57" height="5.12"/></clipPath><clipPath id="clip-path-2" transform="translate(-359.5 -249.87)"><rect class="cls-1" x="378.01" y="332.57" width="1.6" height="5.21"/></clipPath><clipPath id="clip-path-3" transform="translate(-359.5 -249.87)"><rect class="cls-1" x="373.88" y="337.28" width="1.59" height="5.17"/></clipPath><clipPath id="clip-path-4" transform="translate(-359.5 -249.87)"><rect class="cls-1" x="428.54" y="342.03" width="1.56" height="5.13"/></clipPath><clipPath id="clip-path-5" transform="translate(-359.5 -249.87)"><rect class="cls-1" x="420.25" y="332.6" width="1.61" height="5.21"/></clipPath><clipPath id="clip-path-6" transform="translate(-359.5 -249.87)"><rect class="cls-1" x="424.41" y="337.32" width="1.59" height="5.18"/></clipPath></defs><title>sacramento-kings</title><path class="cls-2" d="M440.5,266.71a1.23,1.23,0,0,0-1.88-1c-1.86,1.15-7.05,6-10.85,9.63l-1.47,1.42c-0.39-.16-0.9-0.37-1.25-0.47a7.78,7.78,0,0,0-3.35-.15l4.07-9.57-10.24,5.38c0.13-1.5,1.65-18.1,1.65-18.1l-11.89,14.68L400,249.87,394.7,268.5l-11.87-14.7s1.49,16.6,1.62,18.11l-10.23-5.4,4.06,9.57a7.79,7.79,0,0,0-3.33.14,11.05,11.05,0,0,0-1.26.47l-1.46-1.42c-3.79-3.59-9-8.5-10.84-9.66a1.23,1.23,0,0,0-1.47.13,1.22,1.22,0,0,0-.3,1.44c1,2.08,5.93,9,8.89,12.94a5.2,5.2,0,0,0-1.77,3.39v0.09a2.39,2.39,0,0,0,.67,1.74l0.67,0.65h-7.95v0.86c-0.14,5.93-.3,20.68,1.08,29.58,1.31,8.43,3.44,14.46,7.16,20.15l0.39,0.59,0.37-.6a41.31,41.31,0,0,1,7.77-8.39l2.11,2c-0.55.62-12.92,14.69-12.92,14.69a3.14,3.14,0,0,0-.79,2.08c0,0.07,0,.13,0,0.2a3.15,3.15,0,0,0,5.5,1.9l12.95-14.64,7.78,6.92-0.31-3.38a8,8,0,0,1,0-.87,16.64,16.64,0,0,1,.31-2.85,10.79,10.79,0,0,0,8.44,4.05h0a10.81,10.81,0,0,0,8.44-4,16.46,16.46,0,0,1,.31,2.83,7.64,7.64,0,0,1,0,.89l-0.31,3.38,7.79-6.9L429,349.06a3.15,3.15,0,1,0,4.72-4.17l-12.89-14.72,2.11-2a41.45,41.45,0,0,1,7.76,8.41l0.37,0.6,0.39-.59c3.72-5.68,5.88-11.7,7.2-20.13,1-6.3,1.21-15.52,1.21-22.48,0-2.88,0-5.37-.08-7.11l0-.84-0.44,0h-7.5l0.67-.65a2.37,2.37,0,0,0,.68-1.75v-0.09a5.17,5.17,0,0,0-1.76-3.39c3-4,7.95-10.84,8.92-12.92a1.24,1.24,0,0,0,.12-0.52M440,267c-1,2.09-6.1,9.15-9.1,13.15,2.12,1.84,2.29,4,1.37,4.87l-1.48,1.42h8.62c0,0.56.54,19.3-1.11,29.91-1.26,8.08-3.27,14.07-7.13,20a41.89,41.89,0,0,0-8.15-8.77l-2.73,2.56,13.19,15a2.7,2.7,0,1,1-4,3.58l-13.22-15-5.59,5-1.69,1.49L409.1,338a16.48,16.48,0,0,0-.46-4.86,10.42,10.42,0,0,1-17.41,0,16.31,16.31,0,0,0-.46,4.86l0.21,2.24-1.68-1.49-5.58-5-13.25,15a2.7,2.7,0,1,1-4-3.58l13.21-15-2.73-2.57a42,42,0,0,0-8.16,8.76c-3.85-5.89-5.85-11.9-7.1-20-1.64-10.62-1.06-29.36-1.06-29.92h8.62L367.73,285c-0.94-.91-0.75-3,1.37-4.86-3-4-8.12-11.09-9.08-13.17a0.79,0.79,0,0,1,.19-0.91,0.77,0.77,0,0,1,.93-0.08c1.83,1.13,7,6,10.77,9.6,0.54,0.5,1.24,1.21,1.68,1.62a14.07,14.07,0,0,1,1.47-.56,5.82,5.82,0,0,1,4,.18l-4-9.33,9.84,5.2-1.57-17.45,11.48,14.22L400,251.52l5.08,18,11.51-14.2L415,272.71l9.85-5.18-4,9.33a5.85,5.85,0,0,1,4-.17,15.32,15.32,0,0,1,1.47.57c0.44-.42,1.14-1.12,1.67-1.62,3.78-3.57,9-8.45,10.79-9.58a0.78,0.78,0,0,1,1.11,1" transform="translate(-359.5 -249.87)"/><path class="cls-3" d="M438.86,266.05c-1.83,1.13-7,6-10.79,9.58-0.53.5-1.23,1.2-1.67,1.62a15.41,15.41,0,0,0-1.47-.57,5.86,5.86,0,0,0-4,.17l4-9.33L415,272.71l1.59-17.44-11.51,14.21-5.08-18-5.12,17.94-11.48-14.22L385,272.69l-9.84-5.2,4,9.33a5.83,5.83,0,0,0-4-.18,14,14,0,0,0-1.47.56c-0.44-.41-1.14-1.12-1.68-1.62-3.77-3.58-8.94-8.47-10.77-9.6a0.77,0.77,0,0,0-.93.08,0.79,0.79,0,0,0-.19.91c1,2.08,6.09,9.16,9.08,13.17-2.12,1.83-2.31,3.95-1.37,4.86l1.47,1.43-8.62,0c0,0.56-.58,19.3,1.07,29.92,1.25,8.06,3.25,14.07,7.1,20a42,42,0,0,1,8.16-8.76l2.73,2.57-13.21,15a2.7,2.7,0,1,0,4,3.58l13.25-15,5.58,5,1.68,1.49-0.21-2.24a16.38,16.38,0,0,1,.46-4.86,10.42,10.42,0,0,0,17.41,0,16.48,16.48,0,0,1,.46,4.86l-0.21,2.24,1.69-1.49,5.59-5,13.22,15a2.7,2.7,0,1,0,4-3.58l-13.19-15,2.73-2.56a41.87,41.87,0,0,1,8.15,8.77c3.86-5.88,5.87-11.88,7.13-20,1.66-10.61,1.11-29.35,1.11-29.91h-8.62l1.48-1.42c0.93-.92.75-3-1.37-4.87,3-4,8.14-11.06,9.1-13.15a0.78,0.78,0,0,0-1.11-1m-16.47,12.1c0.42-.54,1.46-0.46,2.91.22l0.15,0.06-1.84,1.92-0.08,0a2.44,2.44,0,0,1-1.25-1.52,0.79,0.79,0,0,1,.1-0.63m-1.34.22,0.19,0.11a1.25,1.25,0,0,0-.06,1,5.21,5.21,0,0,0,2.62,2.6l0.12,0.06-0.63.78-0.08,0s-2.36-.74-4-1.46l-0.12-.05Zm7.66,17.07H423.6v0.46c-0.08,2.11,0,3.41,2.06,5.82l2.37,2.69c0.74,0.83,1.38,1.55,2,2.27,0.14,0.17.31,0.35,0.48,0.53,1.27,1.36,3.4,3.62,2,10.25a50.93,50.93,0,0,1-2.33,8.5l-0.12.26a49.69,49.69,0,0,0-13.24-8.66,85.61,85.61,0,0,0,1.29-9.49l4.69,3.7c-0.11,1-.25,2-0.4,2.95,0.94,0.5,3.67,2,4.51,2.67,0.09-.46.37-1.48,0.43-1.89,0.69-4.44-.48-5.68-1.35-6.62-0.1-.1-0.19-0.2-0.27-0.29-0.38-.43-0.66-0.74-1.11-1.2-0.64-.66-1.6-1.67-3.65-3.93-2.66-3-2.5-7.36-2.46-10.06l0.08-1.7H421a7.71,7.71,0,0,0,1.82.28,3.22,3.22,0,0,0,1.41-.28H434c0,2.8,0,6.76-.08,10.93l-5.17-3.82c0-1.23,0-2.37,0-3.36m-4.53-4.87a1.84,1.84,0,0,1-1.42.43c-1.63,0-4.64-1.2-7.83-2.44l-0.43-.17a37.06,37.06,0,0,0-29,0l-0.43.17c-3.19,1.24-6.21,2.41-7.84,2.43a1.84,1.84,0,0,1-1.4-.42c-0.39-.35-4.93-4.88-5.12-5.07l-0.22-.22,0.3,0c1.69,0.13,6.82-1.39,10.82-2.95l0.75-.29a43.28,43.28,0,0,1,35.33,0l0.75,0.29c4,1.56,9.13,3.1,10.82,3l0.3,0-0.22.22c-0.19.18-4.75,4.7-5.12,5.05m-10.68-1.42c0,0.14,0,1,0,1.22l-27,0c0-.18,0-1.08,0-1.21a35.93,35.93,0,0,1,27,0m-41,26a70.88,70.88,0,0,0,1.59,7.54,54.29,54.29,0,0,0-4.34,3.55A59.16,59.16,0,0,1,367,315.2c-1.08-7-1.07-18-1-23.56h5.5c0,3.3-.07,8.3.13,13.31l4.89-3.55c-0.09-3.71-.06-7,0-9.5a5.81,5.81,0,0,0,.65.05,8.2,8.2,0,0,0,2-.31h2.09c0,3.08,0,6.8.12,10.83l-4.2,3,4.56,2.59a88.19,88.19,0,0,0,1.31,9.48,46,46,0,0,0-4.64,2.38,83.91,83.91,0,0,1-1.33-9.27l-5.28-3.12c0.15,2.74.38,5.41,0.73,7.64m15.15-38.56s-1.24-13.55-1.31-14.26l9.57,11.91L400,259.76c0.2,0.73,4.08,14.55,4.08,14.55l9.59-11.89c-0.06.71-1.33,14.25-1.33,14.25l7.9-4.16-3.47,8.06a43.81,43.81,0,0,0-33.56,0c-0.09-.19-3.24-7.53-3.47-8.07l7.89,4.18m-8.9,1.81,0.2-.12,1.9,3-0.12,0c-1.6.72-3.94,1.44-4,1.45l-0.07,0-0.64-.78,0.13-.07a5.25,5.25,0,0,0,2.63-2.59,1.26,1.26,0,0,0-.06-1m-4.06-.12c1.46-.67,2.49-0.75,2.92-0.21a0.8,0.8,0,0,1,.1.63,2.46,2.46,0,0,1-1.25,1.53l-0.08,0-1.83-1.92ZM364.57,271c2.07,1.88,4.41,4.1,6.19,5.78l2.78,2.61,0.17,0.2,1.23,1.43-0.29.19a2.56,2.56,0,0,1-.64.37l-0.16,0,1.23,1.49-1.05.32-2.24-2.53c-1.63-2.14-4.83-6.45-7.23-9.9m4.56,12.54c-0.77-.76.17-1.7,0.79-2.32l0.09-.09,0.08,0.1,1.75,2.19-0.14.06c-0.64.26-2.13,0.49-2.57,0.06m6.16,42.54a49.06,49.06,0,0,0-6.33,6.33l-0.11.13-0.08-.15a54,54,0,0,1-5-16c-0.93-5.73-1.31-15.38-1-27.16v-0.68h9.78l2.42,2.39,0.15,0.15,0.32,0.27v0.26c-0.08,3.25-.08,6.26,0,9.18v0.06l-2.72,2v-0.21c-0.06-2.07-.08-4.3-0.08-6.64,0-1.4,0-2.83,0-4.31,0,0,0-.94,0-1.12h-7.73c0,0.18,0,1.09,0,1.09,0,1.36,0,2.82,0,4.33a142.88,142.88,0,0,0,1,19.42,60.41,60.41,0,0,0,2.82,11.3l0.56,1.54,1.22-1.09c1.07-1,2.07-1.8,3.06-2.58l0.07-.05,1.79,1.52Zm6.43,7.69v0l-2.11,2.37-1.39,1.58-2.76,3.11-1.38,1.56-2.75,3.12L370,347.11l-0.58.66a1.25,1.25,0,0,1-2.19-.76,1.26,1.26,0,0,1,.31-0.91l2.25-2.55,1.36-1.56,2.75-3.13,1.38-1.57,2.75-3.13,1.39-1.58,0.47-.53h0a1.53,1.53,0,0,1,1.36.29,1.5,1.5,0,0,1,.48,1.15,1.82,1.82,0,0,1,0,.33m8.08-3.6a27.81,27.81,0,0,0-1.1,5.51l-11.78-10.47a36.39,36.39,0,0,0,8.17-3,37.84,37.84,0,0,0,4.67-2.72,38.85,38.85,0,0,1,4.77-1.11,10.5,10.5,0,0,0-5.11,9h0a10.34,10.34,0,0,0,.39,2.82M409,328a9.11,9.11,0,0,1-.72,2.94,8.92,8.92,0,0,1-1.18,2c-0.16.2-.31,0.39-0.48,0.58a9,9,0,0,1-6.41,2.9h-0.49a9,9,0,0,1-6.4-2.91,6.93,6.93,0,0,1-.48-0.56,8.75,8.75,0,0,1-1.19-2,8.94,8.94,0,0,1-.71-2.92c0-.22,0-0.44,0-0.66a9.06,9.06,0,0,1,4.93-8.06l0.48-.23a9.08,9.08,0,0,1,3.39-.76h0.5a9.2,9.2,0,0,1,3.4.76l0.47,0.23a9,9,0,0,1,4.91,8.05c0,0.22,0,.43,0,0.65m11.51,4.57c0.32,0.38.8,0.92,1.38,1.58l2.74,3.14L426,338.9l2.74,3.13,1.36,1.56,2.25,2.56a1.27,1.27,0,0,1,.31.84,0.71,0.71,0,0,1,0,.08,1.21,1.21,0,0,1-.42.86,1.26,1.26,0,0,1-1.78-.11l-0.58-.65-1.35-1.53-2.75-3.13-1.38-1.56-2.75-3.13-1.4-1.58-2.08-2.37v0a1.45,1.45,0,0,1,1.82-1.76h0l0.47,0.53m-9.5,3.12a27.36,27.36,0,0,0-1-5.19,10.43,10.43,0,0,0,.49-3.15h0a10.5,10.5,0,0,0-5-8.94,38,38,0,0,1,4.53,1.09,39.21,39.21,0,0,0,4.63,2.71,36.68,36.68,0,0,0,8.17,3c-0.32.27-11.49,10.17-11.81,10.45m6.7-14.32a34.46,34.46,0,0,0-35.47,0,43.62,43.62,0,0,1-8,2.88l-0.09-.2,0.57-.42,0.62-.44c0-.13-0.21-0.74-0.21-0.74a71.23,71.23,0,0,1-1.56-7.43c-0.22-1.45-.42-3.2-0.57-5.22l0-.22,3,1.77v0.06a84.25,84.25,0,0,0,1.29,8.77l0.31,1.52,1.33-.78a43.11,43.11,0,0,1,4.53-2.32l0.82-.35-0.18-.88A86.65,86.65,0,0,1,382.8,308l-0.05-.58-3.56-2,3.28-2.37c0-.1,0-0.6,0-0.6-0.1-2.32-.15-4.71-0.15-7.24,0-1.15,0-2.32,0-3.52v-1.18l1.89-.71v2.43l31.47,0c0-.21,0-2.44,0-2.44l1.8,0.68-0.05,1.18s-0.08,1.69-.08,1.72v0.27c0,2.76-.12,7.38,2.75,10.56l3.67,4,1.06,1.15,0.3,0.33c0.78,0.84,1.67,1.79,1.07,5.7l0,0.12,0,0.16-2.51-1.45-0.07,0,0.29-2.22s0.06-.51.08-0.62l-6.8-5.36c0,0.55-.18,2.05-0.18,2.05a83.19,83.19,0,0,1-1.27,9.36l-0.17.88,0.82,0.36a47.1,47.1,0,0,1,9.34,5.5l-0.1.21a43.47,43.47,0,0,1-7.92-2.9m19.44-32.82h0.11v0.69c0.24,11.78-.15,21.43-1.09,27.16a54,54,0,0,1-5,16l-0.08.15-0.11-.13a49.43,49.43,0,0,0-6.32-6.34l-0.1-.09,1.77-1.51,0.07,0.06c1,0.78,2,1.61,2.94,2.45l1.11,1,0.76-1.6,0-.06a52.15,52.15,0,0,0,2.37-8.68,20,20,0,0,0,.49-4.2,9.1,9.1,0,0,0-2.75-7l-0.44-.49-2-2.3L426.48,301c-1.51-1.75-1.8-2.77-1.8-4.17,0,0,0-.25,0-0.25h2.93v2.25s0,0.48,0,.57l7.35,5.4c0-.56.06-2.12,0.06-2.12,0.07-2.23.1-4.58,0.1-7.11q0-1.86,0-3.86s0-.92,0-1.1h-9.66l2-2h9.66Zm-6.29-5c-0.43.43-1.93,0.2-2.57-.06l-0.13-.06,1.66-2.08,0.17-.22,0.09,0.09c0.62,0.62,1.55,1.55.79,2.32M428.16,281l-2.23,2.52-1-.32,1.23-1.48-0.16-.06a2.51,2.51,0,0,1-.65-0.38l-0.29-.19c0.15-.17,1.25-1.44,1.25-1.44l0.16-.19,2.78-2.6c1.78-1.68,4.13-3.89,6.2-5.77-2.4,3.45-5.6,7.75-7.26,9.9" transform="translate(-359.5 -249.87)"/><path class="cls-3" d="M373.53,324.55c-1,.77-2,1.62-3.06,2.58l-1.22,1.1-0.56-1.55a60.46,60.46,0,0,1-2.82-11.3,142.75,142.75,0,0,1-1-19.42c0-1.51,0-3,0-4.33,0,0,0-.91,0-1.09h7.73c0,0.18,0,1.12,0,1.12q0,2.22,0,4.31c0,2.34,0,4.56.08,6.64v0.21l2.72-2v-0.06c-0.07-2.92-.06-5.92,0-9.18v-0.25l-0.32-.27-0.15-.15-2.42-2.39h-9.78v0.68c-0.26,11.78.11,21.43,1,27.16a54,54,0,0,0,5,16l0.08,0.15,0.11-.13a49.14,49.14,0,0,1,6.33-6.33l0.1-.09-1.79-1.52Z" transform="translate(-359.5 -249.87)"/><path class="cls-4" d="M373.53,324.55c-1,.77-2,1.62-3.06,2.58l-1.22,1.1-0.56-1.55a60.46,60.46,0,0,1-2.82-11.3,142.75,142.75,0,0,1-1-19.42c0-1.51,0-3,0-4.33,0,0,0-.91,0-1.09h7.73c0,0.18,0,1.12,0,1.12q0,2.22,0,4.31c0,2.34,0,4.56.08,6.64v0.21l2.72-2v-0.06c-0.07-2.92-.06-5.92,0-9.18v-0.25l-0.32-.27-0.15-.15-2.42-2.39h-9.78v0.68c-0.26,11.78.11,21.43,1,27.16a54,54,0,0,0,5,16l0.08,0.15,0.11-.13a49.14,49.14,0,0,1,6.33-6.33l0.1-.09-1.79-1.52Z" transform="translate(-359.5 -249.87)"/><path class="cls-3" d="M429.52,285.32l-0.3,0c-1.69.13-6.82-1.41-10.82-3l-0.75-.29a43.28,43.28,0,0,0-35.33,0l-0.75.29c-4,1.55-9.13,3.08-10.82,2.95l-0.3,0,0.22,0.22c0.19,0.19,4.74,4.72,5.12,5.07a1.84,1.84,0,0,0,1.4.42c1.63,0,4.65-1.19,7.84-2.43l0.43-.16a37,37,0,0,1,29,0l0.43,0.17c3.18,1.24,6.2,2.42,7.83,2.44a1.85,1.85,0,0,0,1.42-.42c0.37-.35,4.93-4.87,5.12-5.05Zm-50.43,3.2a5.66,5.66,0,0,1-1.84.33l-0.28.4-0.4-1a3.7,3.7,0,0,0,2.24-.1c0.51-.18.88-0.39,0.79-0.62s-0.6,0-1.25.17c-1.09.33-1.91,0.34-2.14-.29s0.37-1.25,1.43-1.64a4.7,4.7,0,0,1,1.72-.29l0.29-.41L380,286a3.63,3.63,0,0,0-2.08.18,1.1,1.1,0,0,0-.88.64c0.09,0.23.56,0,1.2-.21,1.07-.34,2-0.35,2.27.32s-0.38,1.22-1.44,1.61m4.1-1.39,0.34-.82-0.16-.12-1.51.53,0,0.18,0.91,0.41c-0.45.15-1.46,0.53-2,.74l0.42-.9,0.36-2-0.88-.35c0.85-.31,2.29-0.79,2.89-1l-0.48.84,1.54,1.25,0.93,0.42c-0.67.24-1.88,0.72-2.29,0.87m4.06-1.51c-1.32.38-2.49,0.06-2.75-.8s0.56-1.79,1.88-2.17a3.6,3.6,0,0,1,1.58-.11l0.32-.39,0.34,1.16a2.27,2.27,0,0,0-1.81-.15,1,1,0,1,0,.53,1.81,2.13,2.13,0,0,0,1.46-1l0.16,0.54a3.14,3.14,0,0,1-1.72,1.14m15.26-2.06,0.68-.57,0.16-1.73-1.21,2.28-0.57,0-1-2.41-0.06,1.76,0.66,0.62c-0.41,0-1.48,0-2,0-1,0-2,.1-2.45.12l0.54-.67-0.11-.15-1.58.1-0.07.17,0.76,0.59c-0.39,0-1.17.11-1.81,0.19h0l-1.79.28a3.11,3.11,0,0,1-.7-0.83,0.31,0.31,0,0,0-.38-0.17l-0.7.16,0.12,0.56,0.82,0.46-2.53.64,0.57-.77-0.36-1.72-0.83-.44c0.93-.23,1.9-0.52,2.76-0.71,1.1-.24,1.89,0,2,0.51a1,1,0,0,1-.81,1h0a0.6,0.6,0,0,1,.57.17l0.32,0.39,0.72,0.38,0.51-.62,0.85-1.8-0.76-.55c1.07-.11,2.21-0.2,3-0.24l-0.66.66,1.16,1.65,0.81,0.67,0.73-.62,0.06-1.76-0.66-.62c0.6,0,1.76,0,2.27,0l0.63,1.49,0.75-1.44c0.55,0,1.79.16,2.37,0.24l-0.75.56-0.17,1.7,0.66,0.72c-0.74-.09-2-0.21-2.51-0.23m7,1.08c-1.15-.27-3-0.64-4.29-0.83l0.81-.5,0.3-1.71-0.59-.73c1,0.13,2.67.43,4.41,0.82l-0.22,1.06-0.83-.77-1.59-.29-0.11.65,0.92,0.16,0.59-.2-0.22,1.12-0.46-.41-0.91-.16-0.13.73,1.55,0.28,1-.42Zm5.24-.91L414,286.08l-1.23-.44-1.09-2.42-0.32,1.29,0.53,0.82-2-.6,0.84-.4,0.43-1.75-0.58-.78,2,0.56,1.17,2.41,0.37-1.26-0.5-.82,2,0.69Zm3.95,1.41-0.55-.2-0.65,1.84,0.47,0.83-2.46-.93,0.87-.32,0.65-1.85-0.54-.21-1.17.39,0.41-1.21c0.7,0.26,3,1.11,4.05,1.54l-0.41,1.21Zm5,2.75c-0.29.89-1.38,1.25-2.64,0.88s-1.94-1.29-1.65-2.18,1.38-1.26,2.64-.88,1.94,1.28,1.65,2.17" transform="translate(-359.5 -249.87)"/><path class="cls-4" d="M429.52,285.32l-0.3,0c-1.69.13-6.82-1.41-10.82-3l-0.75-.29a43.28,43.28,0,0,0-35.33,0l-0.75.29c-4,1.55-9.13,3.08-10.82,2.95l-0.3,0,0.22,0.22c0.19,0.19,4.74,4.72,5.12,5.07a1.84,1.84,0,0,0,1.4.42c1.63,0,4.65-1.19,7.84-2.43l0.43-.16a37,37,0,0,1,29,0l0.43,0.17c3.18,1.24,6.2,2.42,7.83,2.44a1.85,1.85,0,0,0,1.42-.42c0.37-.35,4.93-4.87,5.12-5.05Zm-50.43,3.2a5.66,5.66,0,0,1-1.84.33l-0.28.4-0.4-1a3.7,3.7,0,0,0,2.24-.1c0.51-.18.88-0.39,0.79-0.62s-0.6,0-1.25.17c-1.09.33-1.91,0.34-2.14-.29s0.37-1.25,1.43-1.64a4.7,4.7,0,0,1,1.72-.29l0.29-.41L380,286a3.63,3.63,0,0,0-2.08.18,1.1,1.1,0,0,0-.88.64c0.09,0.23.56,0,1.2-.21,1.07-.34,2-0.35,2.27.32s-0.38,1.22-1.44,1.61m4.1-1.39,0.34-.82-0.16-.12-1.51.53,0,0.18,0.91,0.41c-0.45.15-1.46,0.53-2,.74l0.42-.9,0.36-2-0.88-.35c0.85-.31,2.29-0.79,2.89-1l-0.48.84,1.54,1.25,0.93,0.42c-0.67.24-1.88,0.72-2.29,0.87m4.06-1.51c-1.32.38-2.49,0.06-2.75-.8s0.56-1.79,1.88-2.17a3.6,3.6,0,0,1,1.58-.11l0.32-.39,0.34,1.16a2.27,2.27,0,0,0-1.81-.15,1,1,0,1,0,.53,1.81,2.13,2.13,0,0,0,1.46-1l0.16,0.54a3.14,3.14,0,0,1-1.72,1.14m15.26-2.06,0.68-.57,0.16-1.73-1.21,2.28-0.57,0-1-2.41-0.06,1.76,0.66,0.62c-0.41,0-1.48,0-2,0-1,0-2,.1-2.45.12l0.54-.67-0.11-.15-1.58.1-0.07.17,0.76,0.59c-0.39,0-1.17.11-1.81,0.19h0l-1.79.28a3.11,3.11,0,0,1-.7-0.83,0.31,0.31,0,0,0-.38-0.17l-0.7.16,0.12,0.56,0.82,0.46-2.53.64,0.57-.77-0.36-1.72-0.83-.44c0.93-.23,1.9-0.52,2.76-0.71,1.1-.24,1.89,0,2,0.51a1,1,0,0,1-.81,1h0a0.6,0.6,0,0,1,.57.17l0.32,0.39,0.72,0.38,0.51-.62,0.85-1.8-0.76-.55c1.07-.11,2.21-0.2,3-0.24l-0.66.66,1.16,1.65,0.81,0.67,0.73-.62,0.06-1.76-0.66-.62c0.6,0,1.76,0,2.27,0l0.63,1.49,0.75-1.44c0.55,0,1.79.16,2.37,0.24l-0.75.56-0.17,1.7,0.66,0.72c-0.74-.09-2-0.21-2.51-0.23m7,1.08c-1.15-.27-3-0.64-4.29-0.83l0.81-.5,0.3-1.71-0.59-.73c1,0.13,2.67.43,4.41,0.82l-0.22,1.06-0.83-.77-1.59-.29-0.11.65,0.92,0.16,0.59-.2-0.22,1.12-0.46-.41-0.91-.16-0.13.73,1.55,0.28,1-.42Zm5.24-.91L414,286.08l-1.23-.44-1.09-2.42-0.32,1.29,0.53,0.82-2-.6,0.84-.4,0.43-1.75-0.58-.78,2,0.56,1.17,2.41,0.37-1.26-0.5-.82,2,0.69Zm3.95,1.41-0.55-.2-0.65,1.84,0.47,0.83-2.46-.93,0.87-.32,0.65-1.85-0.54-.21-1.17.39,0.41-1.21c0.7,0.26,3,1.11,4.05,1.54l-0.41,1.21Zm5,2.75c-0.29.89-1.38,1.25-2.64,0.88s-1.94-1.29-1.65-2.18,1.38-1.26,2.64-.88,1.94,1.28,1.65,2.17" transform="translate(-359.5 -249.87)"/><polygon class="cls-3" points="36.28 32.51 37.26 32.43 36.68 31.65 36.28 32.51"/><polygon class="cls-5" points="36.28 32.51 37.26 32.43 36.68 31.65 36.28 32.51"/><path class="cls-3" d="M391.49,281.84l-0.89.21,0.16,0.74,0.86-.2a0.48,0.48,0,0,0,.46-0.45,0.43,0.43,0,0,0-.59-0.3" transform="translate(-359.5 -249.87)"/><path class="cls-5" d="M391.49,281.84l-0.89.21,0.16,0.74,0.86-.2a0.48,0.48,0,0,0,.46-0.45,0.43,0.43,0,0,0-.59-0.3" transform="translate(-359.5 -249.87)"/><polygon class="cls-3" points="22.48 36.27 23.4 35.94 22.63 35.31 22.48 36.27"/><polygon class="cls-5" points="22.48 36.27 23.4 35.94 22.63 35.31 22.48 36.27"/><path class="cls-3" d="M421.86,286.3a1,1,0,0,0-1.29.64,0.92,0.92,0,0,0,.68,1.21,1,1,0,0,0,1.31-.61,1,1,0,0,0-.7-1.24" transform="translate(-359.5 -249.87)"/><path class="cls-5" d="M421.86,286.3a1,1,0,0,0-1.29.64,0.92,0.92,0,0,0,.68,1.21,1,1,0,0,0,1.31-.61,1,1,0,0,0-.7-1.24" transform="translate(-359.5 -249.87)"/><path class="cls-2" d="M378.26,286.58c-0.64.2-1.11,0.43-1.2,0.21a1.09,1.09,0,0,1,.88-0.65A3.66,3.66,0,0,1,380,286l-0.35-.94-0.29.42a4.68,4.68,0,0,0-1.72.28c-1.07.4-1.67,1-1.43,1.64s1.06,0.63,2.14.29c0.65-.18,1.15-0.4,1.25-0.17s-0.29.43-.8,0.62a3.68,3.68,0,0,1-2.24.1l0.4,1,0.28-.4a5.6,5.6,0,0,0,1.84-.33c1.06-.39,1.7-0.93,1.44-1.6s-1.2-.67-2.27-0.33" transform="translate(-359.5 -249.87)"/><path class="cls-2" d="M387.34,285a1,1,0,1,1-.53-1.81,2.28,2.28,0,0,1,1.81.15l-0.34-1.16-0.32.39a3.56,3.56,0,0,0-1.58.12c-1.32.38-2.13,1.3-1.88,2.17s1.42,1.18,2.75.8a3.16,3.16,0,0,0,1.72-1.14l-0.16-.55a2.15,2.15,0,0,1-1.46,1" transform="translate(-359.5 -249.87)"/><path class="cls-2" d="M404.54,281.37l0.75-.56c-0.58-.08-1.82-0.2-2.37-0.24L402.17,282l-0.63-1.49c-0.51,0-1.67,0-2.27,0l0.66,0.62-0.06,1.76-0.73.62c0.56,0,1.64,0,2,0l-0.66-.62,0.06-1.76,1,2.41,0.57,0,1.21-2.28L403.2,283l-0.68.57c0.55,0,1.77.14,2.52,0.23l-0.66-.72Z" transform="translate(-359.5 -249.87)"/><path class="cls-2" d="M407.15,283.56l0.13-.73,0.91,0.16,0.46,0.41,0.22-1.13-0.58.21-0.92-.17,0.11-.64,1.59,0.29,0.83,0.77,0.22-1.06c-1.74-.39-3.44-0.69-4.41-0.82l0.59,0.73-0.3,1.72-0.81.5c1.26,0.18,3.14.56,4.29,0.83l0.28-1.21-1,.42Z" transform="translate(-359.5 -249.87)"/><polygon class="cls-2" points="54.09 32.83 54.59 33.66 54.23 34.92 53.06 32.5 51.09 31.94 51.67 32.72 51.23 34.47 50.4 34.87 52.4 35.47 51.87 34.64 52.19 33.35 53.28 35.77 54.51 36.21 55.22 33.86 56.05 33.53 54.09 32.83"/><path class="cls-2" d="M415.69,283.47l-0.41,1.21,1.17-.39L417,284.5l-0.65,1.85-0.87.31,2.46,0.93-0.47-.83,0.65-1.84,0.54,0.21,0.67,1.07,0.41-1.21c-1.08-.42-3.35-1.28-4.06-1.54" transform="translate(-359.5 -249.87)"/><path class="cls-2" d="M422.07,285.71c-1.27-.39-2.36,0-2.64.88s0.38,1.79,1.65,2.18,2.35,0,2.64-.88-0.39-1.79-1.65-2.17m0.49,1.83a1,1,0,0,1-1.31.61,0.92,0.92,0,0,1-.68-1.21,1,1,0,0,1,1.29-.64,1,1,0,0,1,.7,1.24" transform="translate(-359.5 -249.87)"/><path class="cls-2" d="M383,284.59l0.48-.84c-0.6.24-2,.73-2.89,1l0.88,0.35-0.36,2-0.42.9c0.58-.21,1.59-0.59,2-0.74l-0.91-.4,0-.19,1.51-.53,0.16,0.12-0.34.82c0.41-.15,1.62-0.63,2.29-0.87l-0.93-.42Zm-1,1.55,0.15-1,0.77,0.63Z" transform="translate(-359.5 -249.87)"/><path class="cls-2" d="M397.17,281.19l0.65-.66c-0.8,0-1.94.13-3,.24l0.76,0.55-0.85,1.8-0.51.62-0.72-.37-0.32-.39a0.59,0.59,0,0,0-.57-0.17h0a1,1,0,0,0,.81-1c-0.09-.56-0.87-0.75-2-0.5-0.86.18-1.83,0.47-2.76,0.7l0.83,0.43,0.36,1.73-0.57.76,2.53-.64-0.82-.46-0.12-.56,0.7-.16a0.32,0.32,0,0,1,.38.17,3.16,3.16,0,0,0,.7.83l1.79-.28h0c0.63-.08,1.42-0.17,1.8-0.19l-0.76-.59,0.07-.17,1.58-.11,0.11,0.15-0.54.68c0.45,0,1.49-.12,2.46-0.12l-0.81-.67Zm-5.55,1.4-0.86.2-0.16-.74,0.89-.21a0.43,0.43,0,0,1,.59.3,0.48,0.48,0,0,1-.46.46m4.16-.21,0.4-.86,0.58,0.78Z" transform="translate(-359.5 -249.87)"/><path class="cls-4" d="M400.2,319.88h0.11a9.18,9.18,0,0,1,2.39.43l0.1,0,0-.09a4,4,0,0,1,.73-1.12,0.07,0.07,0,0,1,0,0,9.2,9.2,0,0,0-3.4-.76h0v1.54Z" transform="translate(-359.5 -249.87)"/><path class="cls-4" d="M397.07,320.24l0,0.1,0.09,0a9.28,9.28,0,0,1,2.39-.42h0.11v-1.55a9.16,9.16,0,0,0-3.39.76,0.08,0.08,0,0,1,0,0,4.07,4.07,0,0,1,.73,1.12" transform="translate(-359.5 -249.87)"/><path class="cls-4" d="M404.37,326.5l-1.12-1.82a5.48,5.48,0,0,1-.78-2.69,4.26,4.26,0,0,1,.14-1.08l0-.1-0.11,0a8.61,8.61,0,0,0-2.21-.39H400.2l0,16a9,9,0,0,0,6.41-2.9h0a10.92,10.92,0,0,0-2.22-7" transform="translate(-359.5 -249.87)"/><path class="cls-4" d="M408.52,328.94a8.57,8.57,0,0,0-5.29-7.92L403.1,321l0,0.13a3.47,3.47,0,0,0-.1.89,5,5,0,0,0,.71,2.45l1.09,1.78a11.4,11.4,0,0,1,2.3,6.59v0.13a8.9,8.9,0,0,0,1.18-2,8.42,8.42,0,0,0,.27-2h0Z" transform="translate(-359.5 -249.87)"/><path class="cls-4" d="M396.53,320.55l0.12,0-0.05-.11a3.83,3.83,0,0,0-.76-1.09,9.06,9.06,0,0,0-4.94,8.06c0,0.22,0,.43,0,0.65l0.09-.58a9.13,9.13,0,0,1,5.51-6.89" transform="translate(-359.5 -249.87)"/><path class="cls-4" d="M395.12,326.23l1.1-1.79a5,5,0,0,0,.72-2.46,3.56,3.56,0,0,0-.11-0.89l0-.13-0.12,0a8.61,8.61,0,0,0-5.3,7.92h0a8.24,8.24,0,0,0,.25,2,8.72,8.72,0,0,0,1.19,2V332.8a11.37,11.37,0,0,1,2.3-6.58" transform="translate(-359.5 -249.87)"/><path class="cls-4" d="M404.08,319.33a3.68,3.68,0,0,0-.76,1.07l0,0.11,0.11,0a9.08,9.08,0,0,1,5.51,6.9L409,328c0-.21,0-0.43,0-0.65a9,9,0,0,0-4.91-8.05" transform="translate(-359.5 -249.87)"/><path class="cls-4" d="M399.59,320.38a8.81,8.81,0,0,0-2.21.39l-0.1,0,0,0.11a4.64,4.64,0,0,1,.13,1.07,5.47,5.47,0,0,1-.79,2.7l-1.11,1.8a11,11,0,0,0-2.23,7,9,9,0,0,0,6.39,2.91c0-2.39,0-16,0-16h-0.12Z" transform="translate(-359.5 -249.87)"/><g class="cls-6"><path class="cls-7" d="M406.36,322.54a9,9,0,0,0-3-2l-0.11,0,0-.11a3.68,3.68,0,0,1,.76-1.07l-0.47-.23a0.07,0.07,0,0,0,0,0,4.05,4.05,0,0,0-.73,1.12l0,0.09-0.1,0a9.13,9.13,0,0,0-2.39-.43H400.2v-1.54h-0.5v1.55H399.6a9.24,9.24,0,0,0-2.39.42l-0.09,0,0-.1a4.07,4.07,0,0,0-.73-1.12l0,0-0.48.23a3.86,3.86,0,0,1,.76,1.09l0.05,0.11-0.12,0a9.12,9.12,0,0,0-5.51,6.9l-0.09.57a9,9,0,0,0,.71,2.92,8.33,8.33,0,0,1-.25-2h0a8.6,8.6,0,0,1,5.3-7.92l0.12,0,0,0.13a3.6,3.6,0,0,1,.11.89,5,5,0,0,1-.72,2.46l-1.1,1.79a11.38,11.38,0,0,0-2.3,6.58v0.15a6.74,6.74,0,0,0,.48.56,11,11,0,0,1,2.23-7l1.11-1.81a5.45,5.45,0,0,0,.79-2.7,4.71,4.71,0,0,0-.13-1.07l0-.11,0.1,0a8.69,8.69,0,0,1,2.21-.39h0.12s0,13.65,0,16h0.49l0-16h0.12a8.53,8.53,0,0,1,2.21.39l0.11,0,0,0.1a4.28,4.28,0,0,0-.14,1.08,5.46,5.46,0,0,0,.78,2.69l1.12,1.82a10.91,10.91,0,0,1,2.22,7h0c0.17-.18.33-0.38,0.48-0.58,0-.07,0-0.13,0-0.13a11.41,11.41,0,0,0-2.3-6.59l-1.09-1.78A5,5,0,0,1,403,322a3.48,3.48,0,0,1,.1-0.89l0-.12,0.13,0.05a8.57,8.57,0,0,1,5.29,7.92h0a8.39,8.39,0,0,1-.27,2A9.09,9.09,0,0,0,409,328l-0.09-.57a9,9,0,0,0-2.53-4.92" transform="translate(-359.5 -249.87)"/></g><g class="cls-6"><g class="cls-8"><polygon class="cls-7" points="11.64 92.28 11.63 92.12 10.27 93.68 10.28 93.83 10.29 93.99 10.36 95.17 10.47 97.07 10.48 97.24 11.84 95.7 11.82 95.55 11.64 92.28"/></g></g><g class="cls-6"><g class="cls-9"><polygon class="cls-7" points="20.1 86.01 20 84.21 19.92 82.86 19.9 82.7 18.52 84.29 18.53 84.43 18.71 87.76 18.73 87.92 20.11 86.33 20.11 86.17 20.1 86.01"/></g></g><g class="cls-6"><g class="cls-10"><polygon class="cls-7" points="15.77 87.58 15.76 87.42 14.38 88.99 14.4 89.14 14.51 91.12 14.57 92.27 14.58 92.43 14.59 92.59 15.97 91.03 15.96 90.87 15.77 87.58"/></g></g><g class="cls-6"><g class="cls-11"><path class="cls-7" d="M428.69,342.89l-0.13,2.42,0,0.16v0.16l1.35,1.53v-0.32l0.18-2.93v-0.32L428.74,342v0.16Z" transform="translate(-359.5 -249.87)"/></g></g><g class="cls-6"><g class="cls-12"><path class="cls-7" d="M420.46,332.92l-0.16,2.49,0,0.65,0,0.16,1.4,1.58v-0.15l0.19-3.32v-0.16c-0.58-.66-1.06-1.2-1.38-1.58v0.32Z" transform="translate(-359.5 -249.87)"/></g></g><g class="cls-6"><g class="cls-13"><path class="cls-7" d="M424.59,337.65l-0.08,1.49-0.1,1.64v0.17l1.38,1.56v-0.32l0.06-1,0.13-2.12V338.9l-1.39-1.58v0.33Z" transform="translate(-359.5 -249.87)"/></g></g><g class="cls-6"><path class="cls-7" d="M374,283.46l1.05-.32-1.23-1.49,0.16,0a2.58,2.58,0,0,0,.64-0.37l0.29-.19-1.23-1.43-0.17-.2-2.78-2.61c-1.78-1.68-4.12-3.9-6.19-5.78,2.4,3.45,5.6,7.77,7.23,9.9l2.24,2.53" transform="translate(-359.5 -249.87)"/></g><path class="cls-3" d="M371.7,283.5l0.14-.06-1.75-2.2-0.08-.1-0.09.09c-0.62.62-1.55,1.55-.79,2.32,0.43,0.44,1.92.21,2.57-.06" transform="translate(-359.5 -249.87)"/><path class="cls-4" d="M371.7,283.5l0.14-.06-1.75-2.2-0.08-.1-0.09.09c-0.62.62-1.55,1.55-.79,2.32,0.43,0.44,1.92.21,2.57-.06" transform="translate(-359.5 -249.87)"/><path class="cls-3" d="M376.44,280.28a2.46,2.46,0,0,0,1.25-1.53,0.8,0.8,0,0,0-.1-0.63c-0.42-.54-1.46-0.46-2.92.21l-0.14.06,1.83,1.92Z" transform="translate(-359.5 -249.87)"/><path class="cls-4" d="M376.44,280.28a2.46,2.46,0,0,0,1.25-1.53,0.8,0.8,0,0,0-.1-0.63c-0.42-.54-1.46-0.46-2.92.21l-0.14.06,1.83,1.92Z" transform="translate(-359.5 -249.87)"/><path class="cls-3" d="M376.17,282.05l-0.13.07,0.64,0.77,0.07,0s2.37-.73,4-1.46l0.12,0-1.9-3-0.2.11a1.25,1.25,0,0,1,.06,1,5.23,5.23,0,0,1-2.63,2.59" transform="translate(-359.5 -249.87)"/><path class="cls-4" d="M376.17,282.05l-0.13.07,0.64,0.77,0.07,0s2.37-.73,4-1.46l0.12,0-1.9-3-0.2.11a1.25,1.25,0,0,1,.06,1,5.23,5.23,0,0,1-2.63,2.59" transform="translate(-359.5 -249.87)"/><g class="cls-6"><path class="cls-7" d="M400,277.21a44.46,44.46,0,0,1,16.78,3.36l3.47-8.06-7.9,4.16s1.27-13.54,1.33-14.25l-9.59,11.89s-3.87-13.81-4.08-14.55L395.9,274.3l-9.57-11.91c0.07,0.71,1.31,14.26,1.31,14.26l-7.89-4.18c0.23,0.54,3.38,7.88,3.47,8.07A44.39,44.39,0,0,1,400,277.21" transform="translate(-359.5 -249.87)"/></g><path class="cls-3" d="M430,281.2l-0.17.22-1.66,2.08,0.13,0.06c0.65,0.26,2.15.49,2.57,0.06,0.76-.76-0.17-1.7-0.79-2.32Z" transform="translate(-359.5 -249.87)"/><path class="cls-4" d="M430,281.2l-0.17.22-1.66,2.08,0.13,0.06c0.65,0.26,2.15.49,2.57,0.06,0.76-.76-0.17-1.7-0.79-2.32Z" transform="translate(-359.5 -249.87)"/><path class="cls-3" d="M423.53,280.32l0.08,0,1.84-1.92-0.15-.06c-1.46-.67-2.49-0.76-2.91-0.22a0.78,0.78,0,0,0-.1.63,2.44,2.44,0,0,0,1.25,1.53" transform="translate(-359.5 -249.87)"/><path class="cls-4" d="M423.53,280.32l0.08,0,1.84-1.92-0.15-.06c-1.46-.67-2.49-0.76-2.91-0.22a0.78,0.78,0,0,0-.1.63,2.44,2.44,0,0,0,1.25,1.53" transform="translate(-359.5 -249.87)"/><path class="cls-3" d="M419.26,281.46c1.6,0.72,3.94,1.44,4,1.45l0.08,0,0.63-.78-0.12-.06a5.23,5.23,0,0,1-2.63-2.6,1.26,1.26,0,0,1,.06-1l-0.19-.11-1.91,3Z" transform="translate(-359.5 -249.87)"/><path class="cls-4" d="M419.26,281.46c1.6,0.72,3.94,1.44,4,1.45l0.08,0,0.63-.78-0.12-.06a5.23,5.23,0,0,1-2.63-2.6,1.26,1.26,0,0,1,.06-1l-0.19-.11-1.91,3Z" transform="translate(-359.5 -249.87)"/><path class="cls-3" d="M425.42,290.59h9.66c0,0.18,0,1.1,0,1.1q0,2,0,3.86c0,2.53,0,4.88-.1,7.11,0,0,0,1.56-.06,2.11l-7.35-5.39c0-.09,0-0.57,0-0.57v-2.25h-2.94s0,0.21,0,.26c0,1.41.29,2.43,1.8,4.17l2.37,2.69,2,2.3,0.44,0.49a9.11,9.11,0,0,1,2.75,7,20,20,0,0,1-.49,4.2,52.18,52.18,0,0,1-2.37,8.68l0,0.06-0.76,1.6-1.11-1c-0.95-.84-1.93-1.67-2.94-2.45l-0.07-.06-1.77,1.51,0.1,0.09a49.46,49.46,0,0,1,6.32,6.34l0.11,0.13,0.08-.15a54,54,0,0,0,5-16c0.94-5.73,1.33-15.38,1.09-27.16v-0.68h-9.78Z" transform="translate(-359.5 -249.87)"/><path class="cls-4" d="M425.42,290.59h9.66c0,0.18,0,1.1,0,1.1q0,2,0,3.86c0,2.53,0,4.88-.1,7.11,0,0,0,1.56-.06,2.11l-7.35-5.39c0-.09,0-0.57,0-0.57v-2.25h-2.94s0,0.21,0,.26c0,1.41.29,2.43,1.8,4.17l2.37,2.69,2,2.3,0.44,0.49a9.11,9.11,0,0,1,2.75,7,20,20,0,0,1-.49,4.2,52.18,52.18,0,0,1-2.37,8.68l0,0.06-0.76,1.6-1.11-1c-0.95-.84-1.93-1.67-2.94-2.45l-0.07-.06-1.77,1.51,0.1,0.09a49.46,49.46,0,0,1,6.32,6.34l0.11,0.13,0.08-.15a54,54,0,0,0,5-16c0.94-5.73,1.33-15.38,1.09-27.16v-0.68h-9.78Z" transform="translate(-359.5 -249.87)"/><g class="cls-6"><path class="cls-7" d="M426.44,279.45l-0.17.19s-1.09,1.27-1.25,1.44l0.28,0.19a2.44,2.44,0,0,0,.65.38l0.16,0.06-1.23,1.48,1.05,0.32,2.23-2.52c1.65-2.14,4.85-6.45,7.26-9.9-2.07,1.88-4.42,4.09-6.2,5.77Z" transform="translate(-359.5 -249.87)"/></g><path class="cls-7" d="M386.47,289.14c0,0.13,0,1,0,1.21l27,0c0-.17,0-1.07,0-1.21a35.94,35.94,0,0,0-27,0m24.4,0.42H389.09l1.69-1.22,18.39,0Z" transform="translate(-359.5 -249.87)"/><polygon class="cls-3" points="29.59 39.68 51.37 39.7 49.67 38.48 31.28 38.46 29.59 39.68"/><polygon class="cls-3" points="29.59 39.68 51.37 39.7 49.67 38.48 31.28 38.46 29.59 39.68"/><path class="cls-2" d="M433.9,302.63c0.12-4.18.11-8.13,0.08-10.93H424.2a3.25,3.25,0,0,1-1.4.28,7.69,7.69,0,0,1-1.82-.28h-2.41l-0.08,1.7c0,2.7-.2,7.11,2.46,10.06,2,2.26,3,3.27,3.65,3.93,0.44,0.46.73,0.76,1.11,1.2L426,308.9c0.87,0.94,2,2.18,1.35,6.62-0.06.41-.34,1.43-0.43,1.89-0.85-.62-3.58-2.17-4.51-2.67,0.15-1,.29-2,0.4-3l-4.69-3.7a85.33,85.33,0,0,1-1.29,9.49A49.64,49.64,0,0,1,430,326.23l0.12-.26a51.11,51.11,0,0,0,2.33-8.5c1.42-6.64-.72-8.9-2-10.25-0.17-.18-0.34-0.35-0.48-0.53-0.61-.72-1.25-1.45-2-2.27l-2.37-2.69c-2.09-2.4-2.14-3.71-2.06-5.82v-0.46h5.11c0,1,0,2.13,0,3.37Z" transform="translate(-359.5 -249.87)"/><path class="cls-2" d="M378.36,320a45.57,45.57,0,0,1,4.64-2.38,88,88,0,0,1-1.31-9.48l-4.56-2.59,4.2-3c-0.17-4-.17-7.76-0.12-10.84h-2.09a8.21,8.21,0,0,1-2,.31,5.81,5.81,0,0,1-.65-0.05c-0.06,2.5-.09,5.78,0,9.49L371.62,305c-0.2-5-.18-10-0.13-13.31H366c-0.08,5.56-.09,16.57,1,23.56a59.18,59.18,0,0,0,2.76,11.1,54.12,54.12,0,0,1,4.34-3.55,71.16,71.16,0,0,1-1.59-7.54c-0.35-2.24-.58-4.9-0.73-7.64l5.29,3.12a83.88,83.88,0,0,0,1.33,9.27" transform="translate(-359.5 -249.87)"/><path class="cls-3" d="M425.7,324.1a47,47,0,0,0-9.34-5.51l-0.82-.35,0.17-.88A83,83,0,0,0,417,308s0.13-1.51.18-2.05l6.8,5.37c0,0.09-.08.61-0.08,0.61l-0.29,2.22,0.07,0,2.52,1.45,0-.16,0-.11c0.6-3.91-.29-4.86-1.07-5.69l-0.3-.33-1.06-1.15-3.67-4c-2.87-3.18-2.8-7.79-2.75-10.56v-0.27s0.08-1.72.08-1.72l0.05-1.18-1.8-.68s0,2.23,0,2.44l-31.47,0v-2.43l-1.89.71v1.18c0,1.21,0,2.37,0,3.52,0,2.53,0,4.92.15,7.24,0,0,0,.5,0,0.6l-3.28,2.37,3.56,2L382.8,308a86.37,86.37,0,0,0,1.29,9.36s0.13,0.67.18,0.88l-0.82.36a43.66,43.66,0,0,0-4.53,2.32l-1.33.78-0.31-1.51a84.51,84.51,0,0,1-1.29-8.77v-0.06l-3-1.76,0,0.21c0.15,2,.35,3.77.57,5.22a71.21,71.21,0,0,0,1.56,7.43s0.17,0.61.21,0.73l-0.62.45-0.57.42,0.09,0.2a43.39,43.39,0,0,0,8-2.88,34.46,34.46,0,0,1,35.47,0,43.67,43.67,0,0,0,7.92,2.9ZM390,316.39c-1.05.26-2.08,0.55-3.06,0.88l-1.22.41-0.23-1.27a119.41,119.41,0,0,1-1.41-19.4c0-.86,0-1.69,0-2.47,0,0,0-.8,0-1.09h5.58c0,0.19,0,1.12,0,1.12,0,1,0,2,0,2.94a117.62,117.62,0,0,0,1.18,17.64s0.12,0.83.15,1Zm13-2.18s-0.08.89-.09,1.07l-1.07,0-1.92,0h-1.47c0-.18,0-11.12,0-11.12l-2.06-1.36v0.21c0,4.49.17,8.18,0.38,11.3,0,0,.06.83,0.07,1.09l-1.08.1-2.38.3-1.14.17c0-.19-0.13-1.14-0.13-1.14a143,143,0,0,1-.85-16.46q0-1.83,0-3.74s0-.83,0-1.09h5.15c0,0.18,0,2.13,0,2.13l2,1.42s0-3.37,0-3.56h5.1c0,0.18,0,1.1,0,1.1,0,1,0,2.14,0,3.34,0,4.62-.13,10.49-0.62,16.31m11.16,3.47-1.21-.41a39.43,39.43,0,0,0-7.64-1.73l-1.08-.14,0.12-1.09c0.62-5.85,1-12.49,1-19.76,0,0,0-.92,0-1.1l10.64,0v1.32c0,1.69,0,3.51-.11,5.69,0,0-.05,1.51-0.06,1.82l-3.77-2.1-0.58-.32c0-.1,0-1,0-1v-0.55h-1.22v0.11c-0.13,5-.36,9.11-0.72,12.67v0.1l1,0.19v-0.13l0.41-3.82h-0.11l-0.44-.05c0-.17.12-1.62,0.12-1.62s0.14-2,.16-2.34l1,0.1,3,0.28L415.8,304c0,0.17-.07,1.06-0.07,1.06a100.15,100.15,0,0,1-1.32,11.38s-0.2,1.05-.23,1.26" transform="translate(-359.5 -249.87)"/><path class="cls-4" d="M425.7,324.1a47,47,0,0,0-9.34-5.51l-0.82-.35,0.17-.88A83,83,0,0,0,417,308s0.13-1.51.18-2.05l6.8,5.37c0,0.09-.08.61-0.08,0.61l-0.29,2.22,0.07,0,2.52,1.45,0-.16,0-.11c0.6-3.91-.29-4.86-1.07-5.69l-0.3-.33-1.06-1.15-3.67-4c-2.87-3.18-2.8-7.79-2.75-10.56v-0.27s0.08-1.72.08-1.72l0.05-1.18-1.8-.68s0,2.23,0,2.44l-31.47,0v-2.43l-1.89.71v1.18c0,1.21,0,2.37,0,3.52,0,2.53,0,4.92.15,7.24,0,0,0,.5,0,0.6l-3.28,2.37,3.56,2L382.8,308a86.37,86.37,0,0,0,1.29,9.36s0.13,0.67.18,0.88l-0.82.36a43.66,43.66,0,0,0-4.53,2.32l-1.33.78-0.31-1.51a84.51,84.51,0,0,1-1.29-8.77v-0.06l-3-1.76,0,0.21c0.15,2,.35,3.77.57,5.22a71.21,71.21,0,0,0,1.56,7.43s0.17,0.61.21,0.73l-0.62.45-0.57.42,0.09,0.2a43.39,43.39,0,0,0,8-2.88,34.46,34.46,0,0,1,35.47,0,43.67,43.67,0,0,0,7.92,2.9ZM390,316.39c-1.05.26-2.08,0.55-3.06,0.88l-1.22.41-0.23-1.27a119.41,119.41,0,0,1-1.41-19.4c0-.86,0-1.69,0-2.47,0,0,0-.8,0-1.09h5.58c0,0.19,0,1.12,0,1.12,0,1,0,2,0,2.94a117.62,117.62,0,0,0,1.18,17.64s0.12,0.83.15,1Zm13-2.18s-0.08.89-.09,1.07l-1.07,0-1.92,0h-1.47c0-.18,0-11.12,0-11.12l-2.06-1.36v0.21c0,4.49.17,8.18,0.38,11.3,0,0,.06.83,0.07,1.09l-1.08.1-2.38.3-1.14.17c0-.19-0.13-1.14-0.13-1.14a143,143,0,0,1-.85-16.46q0-1.83,0-3.74s0-.83,0-1.09h5.15c0,0.18,0,2.13,0,2.13l2,1.42s0-3.37,0-3.56h5.1c0,0.18,0,1.1,0,1.1,0,1,0,2.14,0,3.34,0,4.62-.13,10.49-0.62,16.31m11.16,3.47-1.21-.41a39.43,39.43,0,0,0-7.64-1.73l-1.08-.14,0.12-1.09c0.62-5.85,1-12.49,1-19.76,0,0,0-.92,0-1.1l10.64,0v1.32c0,1.69,0,3.51-.11,5.69,0,0-.05,1.51-0.06,1.82l-3.77-2.1-0.58-.32c0-.1,0-1,0-1v-0.55h-1.22v0.11c-0.13,5-.36,9.11-0.72,12.67v0.1l1,0.19v-0.13l0.41-3.82h-0.11l-0.44-.05c0-.17.12-1.62,0.12-1.62s0.14-2,.16-2.34l1,0.1,3,0.28L415.8,304c0,0.17-.07,1.06-0.07,1.06a100.15,100.15,0,0,1-1.32,11.38s-0.2,1.05-.23,1.26" transform="translate(-359.5 -249.87)"/><path class="cls-3" d="M403.6,293.46h-5.1c0,0.19,0,3.56,0,3.56l-2-1.42s0-1.95,0-2.13h-5.15c0,0.26,0,1.09,0,1.09,0,1.27,0,2.52,0,3.74a143.33,143.33,0,0,0,.85,16.46s0.11,0.95.13,1.14l1.14-.17,2.38-.3,1.08-.09c0-.26-0.07-1.09-0.07-1.09-0.21-3.11-.34-6.8-0.38-11.29v-0.21l2.06,1.36s0,10.94,0,11.12h1.47l1.91,0,1.07,0c0-.17.09-1.06,0.09-1.06,0.49-5.82.62-11.69,0.62-16.31,0-1.21,0-2.34,0-3.35,0,0,0-.91,0-1.1m-1.69,20.66c-0.7,0-1.36,0-2,0h-0.36c0-3.48,0-7.29,0-10.6l-4.31-2.83c0,4.17.09,9.08,0.4,13.65-0.77.07-1.6,0.18-2.45,0.31a157.2,157.2,0,0,1-.81-20h2.92c0,0.53,0,1.06,0,1.6l4.27,3q0-2.35,0-4.58h2.89c0.06,4.62,0,12-.59,19.56" transform="translate(-359.5 -249.87)"/><path class="cls-3" d="M389.69,297.51c0-1,0-1.94,0-2.94,0,0,0-.93,0-1.13h-5.58c0,0.3,0,1.1,0,1.1,0,0.78,0,1.61,0,2.47a119.42,119.42,0,0,0,1.41,19.4l0.23,1.27,1.22-.41c1-.32,2-0.62,3.06-0.88l1-.25c0-.17-0.15-1-0.15-1a117.61,117.61,0,0,1-1.18-17.64m-3.07,18.71a122.36,122.36,0,0,1-1.38-21.66h3.36a128.46,128.46,0,0,0,1.16,20.76c-1,.24-2.07.55-3.14,0.91" transform="translate(-359.5 -249.87)"/><path class="cls-3" d="M415.8,304l-1.05-.12-3-.28-1-.1c0,0.31-.16,2.34-0.16,2.34s-0.1,1.45-.12,1.62l0.43,0.05H411l-0.41,3.82v0.13l-1-.19v-0.1c0.36-3.56.59-7.7,0.72-12.67v-0.11h1.22v0.55s0,0.85,0,1l0.58,0.31,3.77,2.11c0-.31.06-1.82,0.06-1.82,0.08-2.18.11-4,.11-5.69v-1.32l-10.64,0c0,0.18,0,1.1,0,1.1-0.06,7.26-.4,13.91-1,19.76l-0.12,1.09,1.08,0.14a39.65,39.65,0,0,1,7.64,1.73l1.21,0.41c0-.21.23-1.26,0.23-1.26A100,100,0,0,0,415.74,305s0.05-.89.07-1.05m-2.49,12.24a40.17,40.17,0,0,0-7.85-1.78c0.81-7.62,1-15.17,1-19.87h8.43c0,1.75,0,3.61-.11,5.88l-2.17-1.22c0-.62,0-1.37,0-2h-3.43c-0.07,3.45-.24,9.37-0.85,14.93,1,0.14,2.07.35,3.16,0.6,0.3-2.28.52-4.38,0.69-6.25l-0.67-.07c0-.59.09-1.21,0.12-1.78,1,0.07,1.94.17,3,.28a98.56,98.56,0,0,1-1.32,11.26" transform="translate(-359.5 -249.87)"/><path class="cls-2" d="M388.61,294.55h-3.36a122.35,122.35,0,0,0,1.38,21.66c1.07-.36,2.13-0.66,3.14-0.91a128.44,128.44,0,0,1-1.16-20.75" transform="translate(-359.5 -249.87)"/><path class="cls-2" d="M399.61,294.56q0,2.24,0,4.58l-4.27-3c0-.54,0-1.07,0-1.6h-2.92a156.55,156.55,0,0,0,.81,20c0.84-.12,1.67-0.24,2.45-0.3-0.32-4.57-.39-9.48-0.4-13.65l4.31,2.83c0,3.31,0,7.13,0,10.6l0.36,0c0.61,0,1.26,0,2,0,0.63-7.52.65-14.94,0.59-19.56h-2.89Z" transform="translate(-359.5 -249.87)"/><path class="cls-2" d="M411.55,306.47l0.67,0.07c-0.16,1.87-.38,4-0.69,6.25-1.09-.25-2.15-0.46-3.16-0.6,0.62-5.56.78-11.48,0.85-14.93h3.43c0,0.58,0,1.33,0,2l2.17,1.22c0.08-2.27.12-4.13,0.11-5.88h-8.43c0,4.7-.21,12.25-1,19.87a40.17,40.17,0,0,1,7.85,1.78A98.57,98.57,0,0,0,414.63,305c-1-.1-2-0.21-3-0.28,0,0.58-.08,1.19-0.12,1.78" transform="translate(-359.5 -249.87)"/><polygon class="cls-4" points="14.51 91.12 14.4 89.14 14.38 88.99 11.63 92.12 11.64 92.28 11.82 95.55 11.84 95.7 14.59 92.59 14.58 92.43 14.51 91.12"/><path class="cls-4" d="M369.86,345l-0.08-1.33v-0.15l-2.25,2.55a1.26,1.26,0,0,0-.31.91,1.25,1.25,0,0,0,2.19.76l0.58-.65v-0.17Z" transform="translate(-359.5 -249.87)"/><polygon class="cls-4" points="18.53 84.44 18.52 84.29 15.76 87.42 15.77 87.58 15.96 90.87 15.97 91.03 18.73 87.92 18.71 87.76 18.53 84.44"/><path class="cls-4" d="M379.91,332l0,0-0.47.53,0,0.16,0.08,1.35,0.12,2v0.16l2.11-2.38v0a1.7,1.7,0,0,0,0-.33,1.49,1.49,0,0,0-.48-1.14,1.53,1.53,0,0,0-1.36-.29" transform="translate(-359.5 -249.87)"/><g class="cls-6"><path class="cls-7" d="M394.52,318.38a38.49,38.49,0,0,0-4.77,1.11,38,38,0,0,1-4.67,2.71,36.75,36.75,0,0,1-8.17,3L388.7,335.7a27.68,27.68,0,0,1,1.1-5.5,10.34,10.34,0,0,1-.39-2.82h0a10.5,10.5,0,0,1,5.11-9" transform="translate(-359.5 -249.87)"/></g><g class="cls-6"><path class="cls-7" d="M410,319.52a38.15,38.15,0,0,0-4.53-1.09,10.51,10.51,0,0,1,5,8.94h0a10.47,10.47,0,0,1-.49,3.16,27.33,27.33,0,0,1,1,5.19l11.81-10.45a36.79,36.79,0,0,1-8.17-3,39.87,39.87,0,0,1-4.63-2.71" transform="translate(-359.5 -249.87)"/></g><path class="cls-4" d="M420,332.06a1.54,1.54,0,0,0-1.37.29,1.56,1.56,0,0,0-.46,1.47v0l2.08,2.37,0-.16,0-.65,0.17-2.65V332.6l-0.47-.53h0Z" transform="translate(-359.5 -249.87)"/><path class="cls-4" d="M429.89,347v0.16l0.58,0.66a1.26,1.26,0,0,0,1.78.11,1.21,1.21,0,0,0,.42-0.86,0.7,0.7,0,0,0,0-.08,1.27,1.27,0,0,0-.31-0.83s-0.91-1-2.25-2.56v0.16Z" transform="translate(-359.5 -249.87)"/><path class="cls-4" d="M421.66,337.66v0.15l2.75,3.13v-0.17l0.1-1.64,0.09-1.65v-0.17l-2.74-3.14v0.17Z" transform="translate(-359.5 -249.87)"/><path class="cls-4" d="M425.86,341.18l-0.06,1.17v0.16l2.75,3.13v-0.16l0.15-2.58,0-.7V342L426,338.9v0.16Z" transform="translate(-359.5 -249.87)"/></svg>