<svg id="Layer_1" data-name="Layer 1" xmlns="http://www.w3.org/2000/svg" xmlns:xlink="http://www.w3.org/1999/xlink" viewBox="0 0 89.84 48.07"><defs><style>.cls-1,.cls-5{fill:none;}.cls-2{fill:#c4ced4;}.cls-3{fill:#0a1b23;}.cls-4{fill:#fff;}.cls-5{stroke:#231f20;stroke-miterlimit:3.86;stroke-width:0.27px;}.cls-6{clip-path:url(#clip-path);}.cls-7{clip-path:url(#clip-path-3);}.cls-8{clip-path:url(#clip-path-5);}.cls-9{clip-path:url(#clip-path-7);}.cls-10{clip-path:url(#clip-path-9);}</style><clipPath id="clip-path" transform="translate(-355.08 -275.96)"><polygon class="cls-1" points="403.97 288.09 402.51 290.67 402.26 292.73 399.66 297.36 396.26 297.36 398.8 292.87 398.8 288.09 396.16 288.09 394.76 290.65 394.53 292.73 390.82 299.34 391.45 300.89 393.75 300.89 392.7 303.55 390.74 301.43 390.97 304.55 387.56 304.69 390.27 306.6 388.34 309.47 391.46 308.45 392.74 311.54 393.72 308.18 397.19 309.07 394.95 306.48 397.71 304.2 394.86 304.38 397.94 300.89 402 300.89 406.49 292.93 406.49 288.09 403.97 288.09"/></clipPath><clipPath id="clip-path-3" transform="translate(-355.08 -275.96)"><path class="cls-1" d="M416.37,294.22l-5.1-.86,0.33-2,5.09,0.86a0.41,0.41,0,0,1,.34.48l-0.19,1.19a0.42,0.42,0,0,1-.41.35h-0.07M407.19,300l2.86,0.48,0.8-4.65,3.68,0.63,1.42,0.24a0.41,0.41,0,0,1,.34.48l-0.6,3.5c-0.12.74,0.3,0.79,0.48,0.82l2.45,0.43a0.92,0.92,0,0,1-.1-0.83l0.71-4.11a0.85,0.85,0,0,0-.47-0.92,0.89,0.89,0,0,0,.77-0.82l0.06-.35,0.61-3.69a1,1,0,0,0-.85-1.19l-10.16-1.72Z"/></clipPath><clipPath id="clip-path-5" transform="translate(-355.08 -275.96)"><path class="cls-1" d="M382.67,292.41l5.08-1a0.42,0.42,0,0,1,.48.33l0.24,1.18a0.42,0.42,0,0,1-.33.49l-5.09,1Zm6.81-3.9-10.13,1.92,2.21,11.66,2.84-.54-0.88-4.63,7.3-1.39a1,1,0,0,0,.83-1.21l-1-5a1,1,0,0,0-1-.84l-0.19,0"/></clipPath><clipPath id="clip-path-7" transform="translate(-355.08 -275.96)"><path class="cls-1" d="M423.76,292.26l-1.45,4.47-0.13.39a1,1,0,0,0,.66,1.3l3.24,1.05,3.1,1a0.45,0.45,0,0,1,.25.56l-0.38,1.17a0.42,0.42,0,0,1-.52.26l-4.2-1.37a0.41,0.41,0,0,1-.27-0.52l0.24-.74-2.74-.89-0.85,2.61a1,1,0,0,0,.66,1.3l8.49,2.76a1,1,0,0,0,1.3-.66l1.45-4.45,0.16-.49a1,1,0,0,0-.66-1.3L426.78,297l-1-.32a0.42,0.42,0,0,1-.27-0.52L425.9,295a0.41,0.41,0,0,1,.52-0.26l4.2,1.36a0.42,0.42,0,0,1,.27.52l-0.23.66,2.75,0.89,0.81-2.51a1,1,0,0,0-.66-1.3l-8.49-2.76a1,1,0,0,0-.32-0.05,1,1,0,0,0-1,.71"/></clipPath><clipPath id="clip-path-9" transform="translate(-355.08 -275.96)"><path class="cls-1" d="M374.89,291.65l-8.49,2.76a1,1,0,0,0-.66,1.3l1.46,4.47,0.13,0.39a1,1,0,0,0,1.3.66l3.24-1,3.11-1a0.46,0.46,0,0,1,.53.3l0.38,1.17a0.41,0.41,0,0,1-.26.52l-4.2,1.36a0.41,0.41,0,0,1-.52-0.26l-0.24-.74-2.75.89,0.85,2.61a1,1,0,0,0,1.3.66l8.5-2.76a1,1,0,0,0,.66-1.3l-1.45-4.45-0.16-.49a1,1,0,0,0-1.3-.66L371,297.76l-1,.32a0.41,0.41,0,0,1-.52-0.27l-0.38-1.15a0.41,0.41,0,0,1,.27-0.52l4.2-1.36a0.42,0.42,0,0,1,.52.27l0.21,0.66,2.73-.89-0.81-2.51a1,1,0,0,0-1-.71,1,1,0,0,0-.32.05"/></clipPath></defs><title>san-antonio-spurs</title><path class="cls-2" d="M442,291.7l0.75-2.55-3.37-1.37-0.44-.18,0.58-1.7-3.19-1,0.4-1.37,0.37-1.28-1.26-.43a112.94,112.94,0,0,0-71.69,0l-1.26.43,0.37,1.28,0.41,1.37-3.19,1,0.59,1.7-0.44.17-3.37,1.37L358,291.7l-2.93,1.06,7.22,22,3-1.07,1,2.53,3.82-1.57,0.37-.15,0.39,1.25,1.4-.62a70.42,70.42,0,0,1,9.43-3.18l-3.5,5.21,10.93-3.58L393.43,324l3.15-10.83L409,316.41l-5.74-6.63a67.83,67.83,0,0,1,24.46,5.36l1.4,0.6,0.39-1.23,0.36,0.15,3.82,1.57,1-2.53,3,1.07,7.23-22L442,291.7" transform="translate(-355.08 -275.96)"/><path class="cls-3" d="M440.2,292.61L441,290l-2.14-.86-1.66-.65,0.58-1.7-3.14-1c0.49-1.65.79-2.66,0.79-2.66a111.59,111.59,0,0,0-70.8,0l0.79,2.66-3.14,1,0.58,1.7-1.66.65L359,290l0.76,2.61-2.89,1,6.31,19.23,2.92-1.05,0.94,2.47,2.43-1,1.77-.71c0.21,0.68.36,1.13,0.41,1.27a73.75,73.75,0,0,1,12.82-4L381.06,315l8.71-2.85,3.47,8.35,2.54-8.71,9.91,2.55-5.09-5.88c13.19-.64,25.39,4.42,27.72,5.42,0-.14.19-0.58,0.41-1.27l1.77,0.71,2.43,1,0.94-2.47,2.92,1.05,6.31-19.23-2.88-1" transform="translate(-355.08 -275.96)"/><path class="cls-4" d="M437.54,294l0.79-2.68-0.32-.13a101.82,101.82,0,0,0-76,0l-0.32.13,0.78,2.68-2.82,1,5,15.11,2.83-1,0.9,2.38,0.37-.15a85.06,85.06,0,0,1,18.69-5.46l1.45,1-3.06,4.55,5.09-1.66,2.05,4.94,1.53-5.25,5.75,1.48-3.74-4.32,2.08-1.77,1.47,0a79.7,79.7,0,0,1,31.31,6.49l0.37,0.15,0.91-2.38,2.83,1c0.23-.72,4.73-14.44,5-15.11l-2.82-1" transform="translate(-355.08 -275.96)"/><path class="cls-5" d="M437.54,294l0.79-2.68-0.32-.13a101.82,101.82,0,0,0-76,0l-0.32.13,0.78,2.68-2.82,1,5,15.11,2.83-1,0.9,2.38,0.37-.15a85.06,85.06,0,0,1,18.69-5.46l1.45,1-3.06,4.55,5.09-1.66,2.05,4.94,1.53-5.25,5.75,1.48-3.74-4.32,2.08-1.77,1.47,0a79.7,79.7,0,0,1,31.31,6.49l0.37,0.15,0.91-2.38,2.83,1c0.23-.72,4.73-14.44,5-15.11Z" transform="translate(-355.08 -275.96)"/><path class="cls-4" d="M362,291.15h0l-0.32.13,0.78,2.68-2.82,1,5,15.12,2.83-1,0.9,2.38,0.37-.15a78.8,78.8,0,0,1,62.62,0l0.37,0.15,0.91-2.37,2.83,1,5-15.12-2.82-1,0.78-2.68-0.32-.13a101.81,101.81,0,0,0-76,0" transform="translate(-355.08 -275.96)"/><path class="cls-2" d="M434.67,308.58l-2.78-1L431,309.93a79.67,79.67,0,0,0-62,0l-0.89-2.34-2.77,1-4.23-12.89,2.78-1L363.09,292a100.5,100.5,0,0,1,73.82,0c-0.22.77-.79,2.71-0.79,2.71l2.78,1-4.23,12.89" transform="translate(-355.08 -275.96)"/><path class="cls-4" d="M419.55,301.52l1.78-10.07,0-.35a2.21,2.21,0,0,0-1.84-2.19L408.21,287l-0.79,4.65L405.84,301l5.16,0.87,0.8-4.64,3.2,0.54-0.07.39s-0.44,2.67-.46,2.84a1.23,1.23,0,0,0,.23,1.08,1.58,1.58,0,0,0,.9.57l5.35,1.3Zm-3.49-7.95-4.13-.69,0.12-.71,4.13,0.69Z" transform="translate(-355.08 -275.96)"/><path class="cls-4" d="M380.33,301.26l-3-9.31a2.2,2.2,0,0,0-2.78-1.42h0l-8.5,2.76a2.22,2.22,0,0,0-1.52,2.09,2.23,2.23,0,0,0,.11.69l3,9.31a2.2,2.2,0,0,0,2.77,1.42l0,0,8.54-2.78a2.2,2.2,0,0,0,1.41-2.78m-10.25-3.8-0.23-.69,3.74-1.23,0.23,0.69Zm1.44,4.33-0.23-.69,3.74-1.23,0.23,0.69Z" transform="translate(-355.08 -275.96)"/><path class="cls-4" d="M392.8,294.11l-1-5a2.2,2.2,0,0,0-2.57-1.75L378,289.5l2.14,11.29,0.29,1.52,0.21,1.14,5.14-1-0.88-4.63,6.15-1.17a2.19,2.19,0,0,0,1.41-.92,2.21,2.21,0,0,0,.38-1.3Zm-9.3-.44-0.14-.71,4.12-.79,0.14,0.71Z" transform="translate(-355.08 -275.96)"/><path class="cls-4" d="M389.56,299.19c0,0.36.31,4.36,0.31,4.36l-5.45.22,4.4,3.1-3.06,4.55,5.09-1.66,2.06,4.95,1.53-5.25,5.75,1.48-3.74-4.32s4-3.4,4.46-3.79l-3.08,0,0.65-.71h4.21l5-8.83v-6.33h-4.38l-1.91,3.38s-0.21,1.7-.25,2.07L399,296.19h-0.7l1.7-3v-6.27h-4.51l-1.84,3.37-0.23,2.08-3.83,6.82" transform="translate(-355.08 -275.96)"/><g class="cls-6"><polygon class="cls-3" points="48.89 12.13 47.44 14.71 47.18 16.77 44.59 21.4 41.18 21.4 43.72 16.91 43.72 12.13 41.08 12.13 39.69 14.69 39.45 16.77 35.75 23.37 36.37 24.93 38.68 24.93 37.62 27.59 35.66 25.46 35.89 28.58 32.48 28.73 35.19 30.63 33.26 33.51 36.38 32.49 37.66 35.58 38.64 32.21 42.11 33.11 39.87 30.52 42.63 28.23 39.78 28.41 42.87 24.93 46.92 24.93 51.41 16.97 51.41 12.13 48.89 12.13"/></g><g class="cls-6"><polygon class="cls-5" points="48.89 12.13 47.44 14.71 47.18 16.77 44.59 21.4 41.18 21.4 43.72 16.91 43.72 12.13 41.08 12.13 39.69 14.69 39.45 16.77 35.75 23.37 36.37 24.93 38.68 24.93 37.62 27.59 35.66 25.46 35.89 28.58 32.48 28.73 35.19 30.63 33.26 33.51 36.38 32.49 37.66 35.58 38.64 32.21 42.11 33.11 39.87 30.52 42.63 28.23 39.78 28.41 42.87 24.93 46.92 24.93 51.41 16.97 51.41 12.13 48.89 12.13"/></g><path class="cls-4" d="M435.2,294.34a2.21,2.21,0,0,0-1.28-1.1l-8.49-2.76a2.21,2.21,0,0,0-2.78,1.42l-3,9.32A2.2,2.2,0,0,0,421,304l8.49,2.76a2.16,2.16,0,0,0,1.68-.13,2.19,2.19,0,0,0,1.1-1.28l3-9.32a2.23,2.23,0,0,0,.11-0.68,2.17,2.17,0,0,0-.24-1m-6.55,7.36-3.74-1.23,0.22-.69,3.74,1.23Zm1.44-4.33-3.74-1.23,0.22-.69,3.74,1.23Z" transform="translate(-355.08 -275.96)"/><polygon class="cls-2" points="49.25 12.82 48.35 14.43 49.58 14.43 50.43 12.82 49.25 12.82"/><polygon class="cls-2" points="42.78 12.82 41.5 12.82 40.61 14.43 41.94 14.43 42.78 12.82"/><path class="cls-2" d="M400.14,298h-6.46l2.69-4.74H395.1L391.85,299h3.61l-2.64,6-1.19-1.28,0.12,1.62-1.77.08,1.41,1-1,1.49,1.62-.53,0.67,1.61,0.51-1.75L395,307.7l-1.17-1.35,1.43-1.19-2,.12H393.1l4.17-6.3h3.61l3.2-5.74h-1.25Zm-7.7,8.73a0.44,0.44,0,1,1,.45-0.45,0.45,0.45,0,0,1-.45.45" transform="translate(-355.08 -275.96)"/><polygon class="cls-2" points="41.6 15.08 40.45 15.08 40.3 16.46 41.49 16.46 41.6 15.08"/><polygon class="cls-2" points="48.01 16.46 49.2 16.46 49.31 15.08 48.16 15.08 48.01 16.46"/><path class="cls-4" d="M369.49,286c0.16,0.6.51,0.66,1.27,0.45l1-.27c1.12-.3,1.34-0.49,1.14-1.23s-0.54-.8-1.85-0.45c-0.91.25-1,.27-1.07,0s0.07-.24.26-0.3l0.94-.25c0.39-.1.43,0,0.48,0.17l0.85-.23,0-.09c-0.13-.48-0.31-0.79-1.28-0.52l-1.18.31c-1.06.28-1,.68-0.88,1.18,0.18,0.68.37,0.79,1.64,0.45,1.09-.29,1.19-0.3,1.25-0.06s-0.12.28-.3,0.33l-1,.28c-0.24.07-.36,0.08-0.45-0.21l-0.84.23Z" transform="translate(-355.08 -275.96)"/><path class="cls-5" d="M369.49,286c0.16,0.6.51,0.66,1.27,0.45l1-.27c1.12-.3,1.34-0.49,1.14-1.23s-0.54-.8-1.85-0.45c-0.91.25-1,.27-1.07,0s0.07-.24.26-0.3l0.94-.25c0.39-.1.43,0,0.48,0.17l0.85-.23,0-.09c-0.13-.48-0.31-0.79-1.28-0.52l-1.18.31c-1.06.28-1,.68-0.88,1.18,0.18,0.68.37,0.79,1.64,0.45,1.09-.29,1.19-0.3,1.25-0.06s-0.12.28-.3,0.33l-1,.28c-0.24.07-.36,0.08-0.45-0.21l-0.84.23Z" transform="translate(-355.08 -275.96)"/><path class="cls-4" d="M375.54,285.17l1-.2,0.14-.55,1.73-.37,0.37,0.44,1-.21-2.12-2.46-1.11.24Zm1.61-2.58,0.77,0.93-1.09.23Z" transform="translate(-355.08 -275.96)"/><path class="cls-5" d="M375.54,285.17l1-.2,0.14-.55,1.73-.37,0.37,0.44,1-.21-2.12-2.46-1.11.24-0.91,3.11m1.61-2.58,0.77,0.93-1.09.23Z" transform="translate(-355.08 -275.96)"/><polygon class="cls-4" points="27.09 7.89 27.95 7.75 27.63 5.71 27.64 5.71 29.58 7.49 30.92 7.28 30.47 4.47 29.61 4.6 29.93 6.65 29.92 6.65 27.98 4.87 26.64 5.08 27.09 7.89"/><polygon class="cls-5" points="27.09 7.89 27.95 7.75 27.63 5.71 27.64 5.71 29.58 7.49 30.92 7.28 30.47 4.47 29.61 4.6 29.93 6.65 29.92 6.65 27.98 4.87 26.64 5.08 27.09 7.89"/><path class="cls-4" d="M391.26,282.73l1-.05,0.23-.52,1.77-.09,0.3,0.49,1-.05-1.71-2.76-1.14.06Zm2-2.29,0.62,1-1.12.06Z" transform="translate(-355.08 -275.96)"/><path class="cls-5" d="M391.26,282.73l1-.05,0.23-.52,1.77-.09,0.3,0.49,1-.05-1.71-2.76-1.14.06-1.39,2.93m2-2.29,0.62,1-1.12.06Z" transform="translate(-355.08 -275.96)"/><polygon class="cls-4" points="42.93 6.46 43.8 6.46 43.8 4.39 43.81 4.39 45.45 6.46 46.8 6.46 46.8 3.61 45.93 3.61 45.93 5.69 45.92 5.69 44.28 3.61 42.93 3.61 42.93 6.46"/><polygon class="cls-5" points="42.93 6.46 43.8 6.46 43.8 4.39 43.81 4.39 45.45 6.46 46.8 6.46 46.8 3.61 45.93 3.61 45.93 5.69 45.92 5.69 44.28 3.61 42.93 3.61 42.93 6.46"/><polygon class="cls-4" points="49.5 4.37 50.72 4.44 50.61 6.58 51.48 6.62 51.59 4.48 52.82 4.55 52.85 3.84 49.53 3.67 49.5 4.37"/><polygon class="cls-5" points="49.5 4.37 50.72 4.44 50.61 6.58 51.48 6.62 51.59 4.48 52.82 4.55 52.85 3.84 49.53 3.67 49.5 4.37"/><path class="cls-4" d="M410.4,281.86c-0.09.83,0.36,1.08,1.14,1.16l1.39,0.15c0.78,0.08,1.27-.07,1.36-0.89l0.09-.85c0.09-.83-0.36-1.07-1.14-1.15l-1.39-.15c-0.78-.08-1.27.07-1.35,0.9l-0.09.84m1-.48a0.47,0.47,0,0,1,.6-0.51l1,0.11a0.47,0.47,0,0,1,.49.62l0,0.3c0,0.41-.14.56-0.56,0.51l-1.11-.12c-0.41,0-.48-0.21-0.44-0.62Z" transform="translate(-355.08 -275.96)"/><path class="cls-5" d="M410.4,281.86c-0.09.83,0.36,1.08,1.14,1.16l1.39,0.15c0.78,0.08,1.27-.07,1.36-0.89l0.09-.85c0.09-.83-0.36-1.07-1.14-1.15l-1.39-.15c-0.78-.08-1.27.07-1.35,0.9l-0.09.84m1-.48a0.47,0.47,0,0,1,.6-0.51l1,0.11a0.47,0.47,0,0,1,.49.62l0,0.3c0,0.41-.14.56-0.56,0.51l-1.11-.12c-0.41,0-.48-0.21-0.44-0.62Z" transform="translate(-355.08 -275.96)"/><polygon class="cls-4" points="61.83 7.69 62.69 7.84 63.05 5.8 63.05 5.8 64.31 8.13 65.64 8.36 66.14 5.56 65.27 5.41 64.92 7.44 64.91 7.44 63.65 5.12 62.32 4.88 61.83 7.69"/><polygon class="cls-5" points="61.83 7.69 62.69 7.84 63.05 5.8 63.05 5.8 64.31 8.13 65.64 8.36 66.14 5.56 65.27 5.41 64.92 7.44 64.91 7.44 63.65 5.12 62.32 4.88 61.83 7.69"/><polygon class="cls-4" points="68.41 8.92 69.27 9.1 69.86 6.32 69 6.13 68.41 8.92"/><polygon class="cls-5" points="68.41 8.92 69.27 9.1 69.86 6.32 69 6.13 68.41 8.92"/><path class="cls-4" d="M427.3,284.76c-0.21.81,0.19,1.12,0.95,1.32l1.35,0.36c0.76,0.2,1.26.13,1.48-.67l0.22-.82c0.21-.81-0.19-1.12-0.95-1.32l-1.35-.36c-0.76-.2-1.26-0.14-1.48.67l-0.22.82m1-.33A0.47,0.47,0,0,1,429,284l1,0.26a0.47,0.47,0,0,1,.38.69l-0.08.3c-0.11.4-.23,0.53-0.63,0.42l-1.08-.29c-0.4-.11-0.44-0.28-0.34-0.69Z" transform="translate(-355.08 -275.96)"/><path class="cls-5" d="M427.3,284.76c-0.21.81,0.19,1.12,0.95,1.32l1.35,0.36c0.76,0.2,1.26.13,1.48-.67l0.22-.82c0.21-.81-0.19-1.12-0.95-1.32l-1.35-.36c-0.76-.2-1.26-0.14-1.48.67l-0.22.82m1-.33A0.47,0.47,0,0,1,429,284l1,0.26a0.47,0.47,0,0,1,.38.69l-0.08.3c-0.11.4-.23,0.53-0.63,0.42l-1.08-.29c-0.4-.11-0.44-0.28-0.34-0.69Z" transform="translate(-355.08 -275.96)"/><path class="cls-4" d="M369.49,286c0.16,0.6.51,0.66,1.27,0.45l1-.27c1.12-.3,1.34-0.49,1.14-1.23s-0.54-.8-1.85-0.45c-0.91.25-1,.27-1.07,0s0.07-.24.26-0.3l0.94-.25c0.39-.1.43,0,0.48,0.17l0.85-.23,0-.09c-0.13-.48-0.31-0.79-1.28-0.52l-1.18.31c-1.06.28-1,.68-0.88,1.18,0.18,0.68.37,0.79,1.64,0.45,1.09-.29,1.19-0.3,1.25-0.06s-0.12.28-.3,0.33l-1,.28c-0.24.07-.36,0.08-0.45-0.21l-0.84.23Z" transform="translate(-355.08 -275.96)"/><path class="cls-4" d="M375.54,285.17l1-.2,0.14-.55,1.73-.37,0.37,0.44,1-.21-2.12-2.46-1.11.24Zm1.61-2.58,0.77,0.93-1.09.23Z" transform="translate(-355.08 -275.96)"/><polygon class="cls-4" points="27.09 7.89 27.95 7.75 27.63 5.71 27.64 5.71 29.58 7.49 30.92 7.28 30.47 4.47 29.61 4.6 29.93 6.65 29.92 6.65 27.98 4.87 26.64 5.08 27.09 7.89"/><path class="cls-4" d="M391.26,282.73l1-.05,0.23-.52,1.77-.09,0.3,0.49,1-.05-1.71-2.76-1.14.06Zm2-2.29,0.62,1-1.12.06Z" transform="translate(-355.08 -275.96)"/><polygon class="cls-4" points="42.93 6.46 43.8 6.46 43.8 4.39 43.81 4.39 45.45 6.46 46.8 6.46 46.8 3.61 45.93 3.61 45.93 5.69 45.92 5.69 44.28 3.61 42.93 3.61 42.93 6.46"/><polygon class="cls-4" points="49.5 4.37 50.72 4.44 50.61 6.58 51.48 6.62 51.59 4.48 52.82 4.55 52.85 3.84 49.53 3.67 49.5 4.37"/><path class="cls-4" d="M410.4,281.86c-0.09.83,0.36,1.08,1.14,1.16l1.39,0.15c0.78,0.08,1.27-.07,1.36-0.89l0.09-.85c0.09-.83-0.36-1.07-1.14-1.15l-1.39-.15c-0.78-.08-1.27.07-1.35,0.9l-0.09.84m1-.48a0.47,0.47,0,0,1,.6-0.51l1,0.11a0.47,0.47,0,0,1,.49.62l0,0.3c0,0.41-.14.56-0.56,0.51l-1.11-.12c-0.41,0-.48-0.21-0.44-0.62Z" transform="translate(-355.08 -275.96)"/><polygon class="cls-4" points="61.83 7.69 62.69 7.84 63.05 5.8 63.05 5.8 64.31 8.13 65.64 8.36 66.14 5.56 65.27 5.41 64.92 7.44 64.91 7.44 63.65 5.12 62.32 4.88 61.83 7.69"/><polygon class="cls-4" points="68.41 8.92 69.27 9.1 69.86 6.32 69 6.13 68.41 8.92"/><path class="cls-4" d="M427.3,284.76c-0.21.81,0.19,1.12,0.95,1.32l1.35,0.36c0.76,0.2,1.26.13,1.48-.67l0.22-.82c0.21-.81-0.19-1.12-0.95-1.32l-1.35-.36c-0.76-.2-1.26-0.14-1.48.67l-0.22.82m1-.33A0.47,0.47,0,0,1,429,284l1,0.26a0.47,0.47,0,0,1,.38.69l-0.08.3c-0.11.4-.23,0.53-0.63,0.42l-1.08-.29c-0.4-.11-0.44-0.28-0.34-0.69Z" transform="translate(-355.08 -275.96)"/><g class="cls-7"><path class="cls-3" d="M419.34,290.06l-10.17-1.72-2,11.7,2.86,0.48,0.8-4.65,3.68,0.63,1.41,0.24a0.41,0.41,0,0,1,.34.48l-0.6,3.5c-0.12.74,0.3,0.78,0.49,0.82L418.6,302a0.93,0.93,0,0,1-.09-0.83l0.71-4.11a0.85,0.85,0,0,0-.48-0.92,0.89,0.89,0,0,0,.77-0.82l0.06-.35,0.61-3.69a1,1,0,0,0-.85-1.19m-2.3,2.62-0.19,1.19a0.41,0.41,0,0,1-.48.34l-5.1-.86,0.33-2,5.09,0.86a0.41,0.41,0,0,1,.34.48" transform="translate(-355.08 -275.96)"/></g><g class="cls-7"><path class="cls-5" d="M419.34,290.06l-10.17-1.72-2,11.7,2.86,0.48,0.8-4.65,3.68,0.63,1.41,0.24a0.41,0.41,0,0,1,.34.48l-0.6,3.5c-0.12.74,0.3,0.78,0.49,0.82L418.6,302a0.93,0.93,0,0,1-.09-0.83l0.71-4.11a0.85,0.85,0,0,0-.48-0.92,0.89,0.89,0,0,0,.77-0.82l0.06-.35,0.61-3.69A1,1,0,0,0,419.34,290.06Zm-2.3,2.62-0.19,1.19a0.41,0.41,0,0,1-.48.34l-5.1-.86,0.33-2,5.09,0.86A0.41,0.41,0,0,1,417,292.69Z" transform="translate(-355.08 -275.96)"/></g><g class="cls-8"><path class="cls-3" d="M383.05,294.41l5.09-1a0.42,0.42,0,0,0,.33-0.49l-0.24-1.18a0.42,0.42,0,0,0-.48-0.33l-5.08,1,0.38,2m1.35,7.14-2.84.54-2.21-11.66,10.13-1.92a1,1,0,0,1,1.21.82l1,5a1,1,0,0,1-.83,1.21l-7.3,1.39Z" transform="translate(-355.08 -275.96)"/></g><g class="cls-8"><path class="cls-5" d="M383.05,294.41l5.09-1a0.42,0.42,0,0,0,.33-0.49l-0.24-1.18a0.42,0.42,0,0,0-.48-0.33l-5.08,1,0.38,2m1.35,7.14-2.84.54-2.21-11.66,10.13-1.92a1,1,0,0,1,1.21.82l1,5a1,1,0,0,1-.83,1.21l-7.3,1.39Z" transform="translate(-355.08 -275.96)"/></g><g class="cls-9"><path class="cls-3" d="M429.19,300.49a0.45,0.45,0,0,1,.26.56l-0.38,1.17a0.41,0.41,0,0,1-.52.26l-4.19-1.37a0.42,0.42,0,0,1-.27-0.52l0.24-.74-2.74-.89-0.84,2.61a1,1,0,0,0,.66,1.3l8.49,2.76a1,1,0,0,0,1.3-.66l1.45-4.45,0.16-.49a1,1,0,0,0-.66-1.3L426.78,297l-1-.32a0.42,0.42,0,0,1-.26-0.52L425.9,295a0.41,0.41,0,0,1,.52-0.26l4.2,1.36a0.42,0.42,0,0,1,.27.52l-0.23.66,2.76,0.89,0.82-2.51a1,1,0,0,0-.67-1.3l-8.49-2.76a1,1,0,0,0-1.3.66l-1.45,4.47-0.13.4a1,1,0,0,0,.67,1.3l3.24,1.05Z" transform="translate(-355.08 -275.96)"/></g><g class="cls-9"><path class="cls-5" d="M429.19,300.49a0.45,0.45,0,0,1,.26.56l-0.38,1.17a0.41,0.41,0,0,1-.52.26l-4.19-1.37a0.42,0.42,0,0,1-.27-0.52l0.24-.74-2.74-.89-0.84,2.61a1,1,0,0,0,.66,1.3l8.49,2.76a1,1,0,0,0,1.3-.66l1.45-4.45,0.16-.49a1,1,0,0,0-.66-1.3L426.78,297l-1-.32a0.42,0.42,0,0,1-.26-0.52L425.9,295a0.41,0.41,0,0,1,.52-0.26l4.2,1.36a0.42,0.42,0,0,1,.27.52l-0.23.66,2.76,0.89,0.82-2.51a1,1,0,0,0-.67-1.3l-8.49-2.76a1,1,0,0,0-1.3.66l-1.45,4.47-0.13.4a1,1,0,0,0,.67,1.3l3.24,1.05Z" transform="translate(-355.08 -275.96)"/></g><g class="cls-10"><path class="cls-3" d="M371.86,300.19l-3.24,1.05a1,1,0,0,1-1.3-.67l-0.13-.39-1.46-4.47a1,1,0,0,1,.66-1.3l8.5-2.76a1,1,0,0,1,1.3.66l0.81,2.51-2.74.89-0.21-.66a0.41,0.41,0,0,0-.52-0.27l-4.2,1.36a0.41,0.41,0,0,0-.27.52l0.38,1.15a0.41,0.41,0,0,0,.52.27l1-.32,5.36-1.74a1,1,0,0,1,1.3.66l0.16,0.49,1.45,4.45a1,1,0,0,1-.66,1.3l-8.5,2.76a1,1,0,0,1-1.3-.66l-0.85-2.61,2.75-.89,0.24,0.74a0.41,0.41,0,0,0,.52.26l4.2-1.36a0.41,0.41,0,0,0,.26-0.52l-0.38-1.17a0.46,0.46,0,0,0-.53-0.31Z" transform="translate(-355.08 -275.96)"/></g><g class="cls-10"><path class="cls-5" d="M371.86,300.19l-3.24,1.05a1,1,0,0,1-1.3-.67l-0.13-.39-1.46-4.47a1,1,0,0,1,.66-1.3l8.5-2.76a1,1,0,0,1,1.3.66l0.81,2.51-2.74.89-0.21-.66a0.41,0.41,0,0,0-.52-0.27l-4.2,1.36a0.41,0.41,0,0,0-.27.52l0.38,1.15a0.41,0.41,0,0,0,.52.27l1-.32,5.36-1.74a1,1,0,0,1,1.3.66l0.16,0.49,1.45,4.45a1,1,0,0,1-.66,1.3l-8.5,2.76a1,1,0,0,1-1.3-.66l-0.85-2.61,2.75-.89,0.24,0.74a0.41,0.41,0,0,0,.52.26l4.2-1.36a0.41,0.41,0,0,0,.26-0.52l-0.38-1.17a0.46,0.46,0,0,0-.53-0.31Z" transform="translate(-355.08 -275.96)"/></g></svg>