<svg id="Layer_1" data-name="Layer 1" xmlns="http://www.w3.org/2000/svg" viewBox="0 0 67.47 59.62"><defs><style>.cls-1{fill:#fff;}.cls-2{fill:#d31245;}.cls-3{fill:#141006;}.cls-4{fill:#a7a9ac;}.cls-5{fill:#a7b1b7;}</style></defs><title>toronto-raptors</title><path class="cls-1" d="M430.14,300.56a34.9,34.9,0,0,1-4.61,2.58,42.75,42.75,0,0,1-4.35,1.76l-1.23.4c0.07-.75.1-1.51,0.1-2.27q0-.88-0.06-1.75l2.94-.65h0a27.81,27.81,0,0,0-2.8-10,28.45,28.45,0,0,0-1.79-3.08l-0.27-.4,1-5.21-4.91.67-0.07-.06c-0.57-.53-1.16-1-1.78-1.51,0-2.06-.07-5.13-0.07-5.13l-4.54,2.22c-0.72-.36-1.45-0.69-2.19-1h0c-0.57-2-1.42-5.07-1.42-5.07l-3.7,3.58c-0.83-.16-1.68-0.28-2.54-0.36l-2.63-4.58-2.61,4.57q-1.29.12-2.56,0.35l-3.69-3.57-1.42,5-0.07,0c-0.73.29-1.46,0.62-2.17,1l-4.51-2.2s0,3-.07,5.08c-0.63.49-1.24,1-1.82,1.54l-0.07.07-4.87-.67,1,5.17a27.85,27.85,0,0,0-4.89,13.49h0l2.92,0.65c0,0.59-.06,1.18-0.06,1.77a25.06,25.06,0,0,0,.19,3.05,1.63,1.63,0,0,0-.41,0l-0.06,0a1.85,1.85,0,0,0-.46.42,4.38,4.38,0,0,1-1.21,1,1,1,0,0,0-.51.92,1.18,1.18,0,0,0,.06.39h0v0h0V309l0,0.1a4.23,4.23,0,0,0-.42,1.64s0,0,0,0a2.62,2.62,0,0,0,.13.82,6.32,6.32,0,0,0-.27.61h0a0.37,0.37,0,0,0,0,.14,6.47,6.47,0,0,0-.2,3.5,0.38,0.38,0,0,0,.08.33,6.32,6.32,0,0,0,.38,1,6.44,6.44,0,0,0,2.23,2.59,0.39,0.39,0,0,0,.22.14,6.43,6.43,0,0,0,3.63.95,6.39,6.39,0,0,0,2.48-.61,6.27,6.27,0,0,0,.81-0.46q0.37,0.41.76,0.79a25.13,25.13,0,0,0,2.66,2.31l-0.06.07a3.7,3.7,0,0,0-.63,1.08,5.74,5.74,0,0,0-.25,2v0.05a2.66,2.66,0,0,0,.15.67l0,0.07,0,0.07,0.07,0.17a2.08,2.08,0,0,0,.55.86h0l0.83-.83,0.19,0.18,0,0h0a4.57,4.57,0,0,0,1,.56,2.31,2.31,0,0,0,1,1.38h0a3.58,3.58,0,0,1,.49-0.76l0.27,0.13,0.18,0.05,0.07,0h0a6.53,6.53,0,0,0,2.83,0,13,13,0,0,0,2.3-.71l0.15-.06,0.3-.11a3.9,3.9,0,0,1,1.13-.07h0a10.92,10.92,0,0,0,1.25,0h0a25.15,25.15,0,0,0,8-.33,24.75,24.75,0,0,0,4.68-1.45,25.13,25.13,0,0,0,4.23-2.3l0.1-.07a4.86,4.86,0,0,0-.15.93v0.18a3.68,3.68,0,0,0,.16,1.1,3,3,0,0,0,.63,1.11h0a3.31,3.31,0,0,1,.47-0.61,1.5,1.5,0,0,1,.25-0.21l1.13,0.31a2,2,0,0,0,.22.49,0.06,0.06,0,0,1,0,0h0a1.61,1.61,0,0,0,.71.62h0a2.6,2.6,0,0,1,.63-0.94,6.22,6.22,0,0,0,2.32.09,4.09,4.09,0,0,0,1.82-.77c1.24-.94,2-2.62,2.14-4.88a6.14,6.14,0,0,1,.24-1,11.61,11.61,0,0,0,.57-3.25v0a3.09,3.09,0,0,0-.12-0.71,2.94,2.94,0,0,0-.4-0.87h0a4.72,4.72,0,0,0-1.56-.6,1.87,1.87,0,0,0-.84-0.43c0.24-.49.47-1,0.68-1.48,0.3-.7.57-1.42,0.79-2.15a44.56,44.56,0,0,0,4.48-2.37,42.62,42.62,0,0,0,4-2.62" transform="translate(-366.26 -270.19)"/><path class="cls-1" d="M429.84,300.12a34.43,34.43,0,0,1-4.54,2.54,42.42,42.42,0,0,1-4.3,1.74l-0.47.16c0-.51.05-1,0.05-1.52s0-.89,0-1.33l2.49-.55a0.54,0.54,0,0,0,.43-0.52,0.06,0.06,0,0,0,0,0h0a27.93,27.93,0,0,0-1-5.28,28.91,28.91,0,0,0-1.89-4.9,29.82,29.82,0,0,0-1.82-3.14l-0.16-.22c0.08-.4.93-5,0.93-5a0.35,0.35,0,0,0,0-.1,0.52,0.52,0,0,0-.15-0.37,0.53,0.53,0,0,0-.46-0.16l-4.66.64c-0.48-.44-1-0.86-1.49-1.27,0-.46-0.07-4.87-0.07-4.87a0.53,0.53,0,0,0-.77-0.47l-4.31,2.1c-0.58-.28-1.17-0.55-1.75-0.79l-1.35-4.81a0.54,0.54,0,0,0-.89-0.24l-3.5,3.39c-0.68-.12-1.36-0.22-2.05-0.29-0.24-.43-2.48-4.34-2.48-4.34a0.54,0.54,0,0,0-.46-0.27" transform="translate(-366.26 -270.19)"/><path class="cls-1" d="M395.18,270.19a0.54,0.54,0,0,0-.46.27l-2.47,4.33c-0.69.07-1.38,0.16-2.06,0.28l-3.49-3.38a0.54,0.54,0,0,0-.89.24l-1.35,4.79c-0.6.25-1.2,0.51-1.79,0.8l-4.27-2.08a0.54,0.54,0,0,0-.77.47s-0.06,4.37-.06,4.83c-0.53.42-1,.86-1.54,1.31l-4.62-.63a0.54,0.54,0,0,0-.61.53,0.46,0.46,0,0,0,0,.1l0.92,5a28.82,28.82,0,0,0-2,3.38,28.46,28.46,0,0,0-2.87,10.18h0s0,0,0,0a0.54,0.54,0,0,0,.42.52l2.47,0.55c0,0.45,0,.9,0,1.35a25.94,25.94,0,0,0,.13,2.6l-0.05,0h0a1.93,1.93,0,0,0-.68.56,4,4,0,0,1-1,.89h0a1.36,1.36,0,0,0-.63.62,1.72,1.72,0,0,0-.18.79,1.66,1.66,0,0,0,0,.36l0,0a4.73,4.73,0,0,0-.46,1.84v0.05a3.21,3.21,0,0,0,.09.77c-0.07.15-.13,0.3-0.19,0.45a1,1,0,0,0-.08.21,6.88,6.88,0,0,0-.37,2.24c0,0.1,0,.2,0,0.3a7.16,7.16,0,0,0,.14,1.13s0,0,0,.06a0.91,0.91,0,0,0,.13.48,6.82,6.82,0,0,0,.39,1,6.91,6.91,0,0,0,1.58,2.15,6.76,6.76,0,0,0,.78.62,0.92,0.92,0,0,0,.35.23,7,7,0,0,0,6.57.33l0.49-.25,0.47,0.48a25,25,0,0,0,2.29,2,4,4,0,0,0-.45.87,6.21,6.21,0,0,0-.29,2.16v0.05h0a3.05,3.05,0,0,0,.18.83l0,0.08,0,0.08,0.08,0.19a2.48,2.48,0,0,0,.74,1.09h0a0.53,0.53,0,0,0,.68-0.07h0l0.48-.48a4.93,4.93,0,0,0,.7.4,3,3,0,0,0,1.13,1.43h0a0.54,0.54,0,0,0,.8-0.19h0c0.06-.12.13-0.25,0.19-0.34l0.13,0,0.08,0h0a7.07,7.07,0,0,0,3.06,0,13.23,13.23,0,0,0,2.39-.73l0.15-.06,0.27-.1a3.8,3.8,0,0,1,1,0h0a11.71,11.71,0,0,0,1.29,0,25.45,25.45,0,0,0,12.9-1.82,25.42,25.42,0,0,0,3.43-1.78v0a4.31,4.31,0,0,0,.19,1.26,3.39,3.39,0,0,0,.75,1.32s0,0,0,0a0.54,0.54,0,0,0,.46.17,0.56,0.56,0,0,0,.41-0.28h0a2.68,2.68,0,0,1,.38-0.49l0.6,0.16a2.24,2.24,0,0,0,.18.33l0,0v0a2.2,2.2,0,0,0,.94.82h0a0.52,0.52,0,0,0,.42,0,0.56,0.56,0,0,0,.3-0.3h0a2.14,2.14,0,0,1,.31-0.55,6.59,6.59,0,0,0,2.23,0,4.71,4.71,0,0,0,2-.87c1.36-1,2.17-2.84,2.34-5.25a7.54,7.54,0,0,1,.22-0.86,12.06,12.06,0,0,0,.6-3.4V316.8a3.85,3.85,0,0,0-.63-1.88l0,0a1.8,1.8,0,0,0-.8-0.45,7.83,7.83,0,0,0-.91-0.29,2,2,0,0,0-.35-0.23c0.15-.33.3-0.65,0.44-1,0.27-.64.52-1.3,0.74-2a46.52,46.52,0,0,0,4.31-2.3,41.44,41.44,0,0,0,4-2.65" transform="translate(-366.26 -270.19)"/><path class="cls-1" d="M370.15,306.65h0Z" transform="translate(-366.26 -270.19)"/><path class="cls-1" d="M366.74,312l0,0,0,0" transform="translate(-366.26 -270.19)"/><path class="cls-1" d="M366.7,312h0Z" transform="translate(-366.26 -270.19)"/><path class="cls-1" d="M366.63,312.24a0.35,0.35,0,0,0,0,0,0.35,0.35,0,0,1,0,0" transform="translate(-366.26 -270.19)"/><path class="cls-1" d="M369.22,320.15l0,0,0,0" transform="translate(-366.26 -270.19)"/><path class="cls-1" d="M427,305.16a40.48,40.48,0,0,1-3.91,2.58,43.08,43.08,0,0,1-4.42,2.34,0.51,0.51,0,0,0-.29.33c-0.23.71-.49,1.42-0.78,2.1-0.21.49-.43,1-0.67,1.45a0.51,0.51,0,0,0-.06.24,0.58,0.58,0,0,0,0,.22,0.54,0.54,0,0,0,.36.3,1.3,1.3,0,0,1,.59.29,0.54,0.54,0,0,0,.26.14,5.64,5.64,0,0,1,1.29.45,2.76,2.76,0,0,1,.28.65h0a2.23,2.23,0,0,1,.1.57v0a11.19,11.19,0,0,1-.55,3.1,7.77,7.77,0,0,0-.26,1v0c-0.15,2.1-.81,3.66-1.92,4.5a3.61,3.61,0,0,1-1.59.67,5.6,5.6,0,0,1-2.12-.08,0.54,0.54,0,0,0-.47.12,2.6,2.6,0,0,0-.45.54l-0.08-.11h0v0a1.66,1.66,0,0,1-.15-0.31h0a0.55,0.55,0,0,0-.39-0.43l-1.13-.31a0.52,0.52,0,0,0-.45.08,2.14,2.14,0,0,0-.32.27h0l-0.08.08c0-.11-0.1-0.23-0.14-0.36a3.26,3.26,0,0,1-.13-0.94v-0.16a3.77,3.77,0,0,1,.13-0.81,0.37,0.37,0,0,0,0-.14,0.53,0.53,0,0,0-.83-0.44l-0.1.07a24.29,24.29,0,0,1-13.63,4.16,24.85,24.85,0,0,1-2.93-.17h-0.15a10.45,10.45,0,0,1-1.19,0h0a4.18,4.18,0,0,0-1.31.1h0l-0.32.12-0.15.06a12.61,12.61,0,0,1-2.21.68,6,6,0,0,1-2.6,0l-0.08,0-0.13,0-0.23-.11a0.54,0.54,0,0,0-.58.08,1.75,1.75,0,0,0-.29.35,1.45,1.45,0,0,1-.35-0.67,0.53,0.53,0,0,0-.3-0.37,4,4,0,0,1-.85-0.48h0l-0.14-.13a0.54,0.54,0,0,0-.77,0l-0.4.4-0.12-.25-0.06-.16,0-.06,0-.06a2.08,2.08,0,0,1-.12-0.51v0a5.26,5.26,0,0,1,.22-1.8,3.08,3.08,0,0,1,.54-0.92l0.05-.07a0.53,0.53,0,0,0-.09-0.77,24.53,24.53,0,0,1-2.6-2.26c-0.25-.25-0.5-0.51-0.74-0.77a0.54,0.54,0,0,0-.69-0.09,5.91,5.91,0,0,1-5.33.61,6,6,0,0,1-1-.5l-0.11-.05-0.09-.08a5.94,5.94,0,0,1-.71-0.56A5.84,5.84,0,0,1,367.9,317a6,6,0,0,1-.35-0.94,0.5,0.5,0,0,0-.06-0.14s0,0,0,0a0.55,0.55,0,0,0,0-.11,5.82,5.82,0,0,1-.13-1c0-.09,0-0.17,0-0.26a5.79,5.79,0,0,1,.32-1.92l0-.06,0-.06h0a5.49,5.49,0,0,1,.24-0.56,0.54,0.54,0,0,0,.05-0.24,0.49,0.49,0,0,0,0-.17,2.14,2.14,0,0,1-.1-0.66v0a3.74,3.74,0,0,1,.37-1.43l0-.11v-0.12l0-.07V309a0.38,0.38,0,0,0,0-.07,0.43,0.43,0,0,0,0-.16,0.7,0.7,0,0,1,0-.21,0.49,0.49,0,0,1,.2-0.44h0a4.79,4.79,0,0,0,1.38-1.13c0.1-.1.22-0.24,0.29-0.29a1.21,1.21,0,0,1,.26,0,0.53,0.53,0,0,0,.53-0.53,0.36,0.36,0,0,0,0-.06,24.86,24.86,0,0,1-.18-3c0-.57,0-1.16.06-1.73,0,0,0,0,0,0a0.54,0.54,0,0,0-.42-0.52l-2.46-.55a27.27,27.27,0,0,1,4.75-12.77,0.53,0.53,0,0,0,.1-0.31,0.59,0.59,0,0,0,0-.1L372,282.57l4.13,0.57a0.54,0.54,0,0,0,.44-0.14h0l0.06-.05c0.57-.53,1.17-1,1.79-1.52a0.53,0.53,0,0,0,.21-0.42l0.06-4.24,3.75,1.83a0.52,0.52,0,0,0,.47,0c0.69-.35,1.41-0.67,2.12-1l0.07,0a0.54,0.54,0,0,0,.32-0.35l1.17-4.18,3,2.95a0.54,0.54,0,0,0,.47.14" transform="translate(-366.26 -270.19)"/><path class="cls-1" d="M390.1,276.17c0.82-.15,1.67-0.27,2.51-0.35a0.53,0.53,0,0,0,.42-0.27l2.15-3.76,2.16,3.76a0.54,0.54,0,0,0,.42.27c0.83,0.08,1.67.2,2.49,0.35a0.55,0.55,0,0,0,.48-0.14l3.05-3c0.33,1.19,1.17,4.21,1.17,4.21a0.56,0.56,0,0,0,.32.35h0c0.73,0.29,1.44.61,2.15,1a0.53,0.53,0,0,0,.47,0l3.79-1.85c0,1.18.05,4.28,0.05,4.28a0.56,0.56,0,0,0,.21.42c0.61,0.47,1.19,1,1.75,1.48l0,0,0,0a0.51,0.51,0,0,0,.43.14l4.18-.57-0.83,4.48a0.35,0.35,0,0,0,0,.1,0.56,0.56,0,0,0,.09.31l0.27,0.39a28.09,28.09,0,0,1,1.76,3,27.55,27.55,0,0,1,2.7,9.33l-2.48.54a0.54,0.54,0,0,0-.42.52v0c0,0.57.06,1.15,0.06,1.72,0,0.74,0,1.49-.1,2.22v0a0.52,0.52,0,0,0,.2.42,0.54,0.54,0,0,0,.5.1l1.25-.41a44.32,44.32,0,0,0,4.41-1.78,36.24,36.24,0,0,0,4.68-2.62" transform="translate(-366.26 -270.19)"/><path class="cls-1" d="M369.69,320.47h0" transform="translate(-366.26 -270.19)"/><polyline class="cls-1" points="13.46 52.5 13.46 52.5 13.46 52.5"/><path class="cls-1" d="M382.63,329h0Z" transform="translate(-366.26 -270.19)"/><path class="cls-1" d="M409.5,326.45a1.53,1.53,0,0,0-.14.22h0a1.28,1.28,0,0,1,.14-0.22" transform="translate(-366.26 -270.19)"/><polygon class="cls-1" points="56.13 30.48 56.13 30.48 56.13 30.48 56.13 30.48"/><path class="cls-1" d="M368.37,309h0" transform="translate(-366.26 -270.19)"/><path class="cls-1" d="M368.33,309.14h0Z" transform="translate(-366.26 -270.19)"/><path class="cls-1" d="M420.21,314.87h0" transform="translate(-366.26 -270.19)"/><polygon class="cls-1" points="53.99 44.73 53.99 44.73 53.99 44.73 53.99 44.73 53.99 44.73"/><path class="cls-1" d="M420.73,316h0Z" transform="translate(-366.26 -270.19)"/><path class="cls-1" d="M381.46,326.92h0" transform="translate(-366.26 -270.19)"/><path class="cls-1" d="M411.48,327.25h0Z" transform="translate(-366.26 -270.19)"/><path class="cls-2" d="M370.25,303a24.9,24.9,0,1,1,24.9,24.9,24.9,24.9,0,0,1-24.9-24.9" transform="translate(-366.26 -270.19)"/><path class="cls-3" d="M372.37,303.05a22.78,22.78,0,1,1,22.78,22.78,22.79,22.79,0,0,1-22.78-22.78" transform="translate(-366.26 -270.19)"/><path class="cls-3" d="M380.73,303.56c0-.14,0-0.35,0-0.49a14.44,14.44,0,0,1,28.88,0c0,0.14,0,.36,0,0.5l13.32-2.93a27.87,27.87,0,0,0-55.52,0Z" transform="translate(-366.26 -270.19)"/><path class="cls-2" d="M395.18,277.34a26.06,26.06,0,0,1,22.31,12.92l1.54-8.31-6.74.92-0.09-6.95L406,279,404,272.09l-5.2,5-3.66-6.39-3.65,6.39-5.21-5L384.38,279l-6.22-3-0.09,6.95-6.74-.92,1.54,8.31a26.06,26.06,0,0,1,22.31-12.92" transform="translate(-366.26 -270.19)"/><path class="cls-4" d="M375,286.15l0,0c0.07-.09.06-0.12,0-0.15l-1.19-1.11-0.49.57s0,0.07,0,.14l0,0-0.57-.53,0,0c0.08,0.06.11,0.06,0.14,0l1.42-1.62s0-.06,0-0.14l0,0,0.56,0.53,0,0c-0.08-.06-0.11-0.06-0.14,0l-0.5.57,1.18,1.11s0.06,0,.14,0l0,0Z" transform="translate(-366.26 -270.19)"/><path class="cls-4" d="M381.61,279.07a1.25,1.25,0,0,1-.53,1.74,1.16,1.16,0,0,1-1.73-.28,1.26,1.26,0,0,1,.53-1.75,1.16,1.16,0,0,1,1.74.29m-1.73,1.11a0.62,0.62,0,0,0,.92.17,0.68,0.68,0,0,0,.26-0.94,0.62,0.62,0,0,0-.92-0.17,0.68,0.68,0,0,0-.27.94" transform="translate(-366.26 -270.19)"/><path class="cls-4" d="M387.37,277.68s0,0.07.13,0l0,0.05-0.85.25v0c0.11,0,.11-0.07.09-0.11l-0.54-2s0-.06-0.14,0v-0.05l1.5-.44c0.61-.18.93,0,1.06,0.45a0.74,0.74,0,0,1-.39.87l0.68,0.57a0.12,0.12,0,0,0,.13,0l0,0.05-0.85.25v0a0.09,0.09,0,0,0,.07-0.1s-0.61-.5-0.69-0.57l-0.4.12ZM387,276.52l0.69-.2c0.25-.07.29-0.2,0.25-0.33s-0.14-.21-0.38-0.14l-0.69.2Z" transform="translate(-366.26 -270.19)"/><path class="cls-4" d="M396.51,275.45a1.34,1.34,0,1,1-1.33-1.19,1.2,1.2,0,0,1,1.33,1.19m-2,0a0.7,0.7,0,1,0,.7-0.65,0.65,0.65,0,0,0-.7.65" transform="translate(-366.26 -270.19)"/><path class="cls-4" d="M401.88,275.18s0-.07-0.09-0.11v0l1,0.28,0,0.05c-0.09,0-.12,0-0.13,0s0.5,1,.69,1.45l0.31-1.14a0.09,0.09,0,0,0-.07-0.1l0-.05,0.75,0.22v0.05c-0.1,0-.13,0-0.14,0l-0.53,2s0,0.07.09,0.11V278l-0.78-.22v-0.05c0.07,0,.1,0,0.11,0s-0.07-.14-0.83-1.72l-0.35,1.34s0,0.07.09,0.11v0.05l-0.79-.23v0c0.11,0,.13,0,0.14,0Z" transform="translate(-366.26 -270.19)"/><path class="cls-4" d="M409,280.5l0,0c0.09,0.05.12,0,.14,0L410,279l-0.62-.4s-0.07,0-.13.06l-0.05,0,0.4-.67,0,0c0,0.09,0,.13,0,0.15l1.79,1.14c0.05,0,.07,0,0.13-0.06l0,0-0.41.67,0,0c0-.09,0-0.12,0-0.15l-0.63-.4-0.84,1.41s0,0.07.06,0.13l0,0Z" transform="translate(-366.26 -270.19)"/><path class="cls-4" d="M416.84,285.91a1.16,1.16,0,0,1-1.75-.21,1.26,1.26,0,0,1-.05-1.82,1.15,1.15,0,0,1,1.74.21,1.26,1.26,0,0,1,.06,1.82m-1.37-1.55a0.68,0.68,0,0,0,0,1,0.62,0.62,0,0,0,.93.09,0.67,0.67,0,0,0,0-1,0.62,0.62,0,0,0-.93-0.09" transform="translate(-366.26 -270.19)"/><path class="cls-3" d="M433.74,298.2c-1.38,3.08-4.38,6.48-10.38,10a37.53,37.53,0,0,1-12.24,4.87l-6.05-7.39c1.51,0.69,8.62,1.13,12.12.36,4.88-1.07,12-4,16.17-8" transform="translate(-366.26 -270.19)"/><path class="cls-5" d="M373,308.44a6,6,0,1,0,6.3,5.79,6,6,0,0,0-6.3-5.79" transform="translate(-366.26 -270.19)"/><path class="cls-3" d="M373,308.13h0a6.35,6.35,0,1,0,6,3.64,6.38,6.38,0,0,0-3.52-3.24,6.31,6.31,0,0,0-2.49-.4m2.28,1a5.74,5.74,0,0,1,.43,10.57,5.74,5.74,0,0,1-6.34-1,5.73,5.73,0,0,1-1.84-4c0-.08,0-0.17,0-0.25a5.73,5.73,0,0,1,3.29-5.17,5.64,5.64,0,0,1,2.21-.54,5.7,5.7,0,0,1,2.25.36" transform="translate(-366.26 -270.19)"/><path class="cls-3" d="M370.16,313.43a9.1,9.1,0,0,0,.25,3,6.76,6.76,0,0,0,1.25,2.55,5.82,5.82,0,0,0,2.31,1.74l0.24-.57a5.21,5.21,0,0,1-2.07-1.55,6.17,6.17,0,0,1-1.14-2.32,8.53,8.53,0,0,1-.23-2.78,10.17,10.17,0,0,1,.65-2.88l-0.58-.22a10.88,10.88,0,0,0-.68,3.06" transform="translate(-366.26 -270.19)"/><path class="cls-3" d="M373.84,311.87a6.66,6.66,0,0,1-1.17,2,2.86,2.86,0,0,1-.95.65,4,4,0,0,1-1.44.28,2,2,0,0,1-1.57-.57,4.39,4.39,0,0,1-.88-1.86l-0.6.17a5,5,0,0,0,1,2.12,2.56,2.56,0,0,0,2,.76,3.87,3.87,0,0,0,2.82-1.11,7.05,7.05,0,0,0,1.29-2.16,8.21,8.21,0,0,1,.76-1.44,2.13,2.13,0,0,1,1.12-.85l-0.19-.59c-1.26.4-1.76,1.53-2.25,2.63" transform="translate(-366.26 -270.19)"/><path class="cls-3" d="M375.71,314.55a8.91,8.91,0,0,1-3.35,1.66,8,8,0,0,1-2.86.23,3.76,3.76,0,0,1-2-.73l-0.4.47a4.31,4.31,0,0,0,2.32.87,8.64,8.64,0,0,0,3.08-.25A9.46,9.46,0,0,0,376.1,315a8.36,8.36,0,0,0,2.6-3.58l-0.58-.22a7.76,7.76,0,0,1-2.41,3.32" transform="translate(-366.26 -270.19)"/><path class="cls-3" d="M374.52,317.61a9.58,9.58,0,0,0-2.87.18,3.22,3.22,0,0,0-1.39.65,1.92,1.92,0,0,0-.62,1.09l0.6,0.13c0.1-.46.36-1,1.56-1.27a9.13,9.13,0,0,1,2.69-.16,8.52,8.52,0,0,0,2.36-.11,4.28,4.28,0,0,0,1.2-.48,5.36,5.36,0,0,0,1.19-1l-0.45-.43c-1.41,1.48-2.73,1.42-4.27,1.36" transform="translate(-366.26 -270.19)"/><path class="cls-4" d="M373,308.44a6,6,0,1,0,6.3,5.79,6,6,0,0,0-6.3-5.79" transform="translate(-366.26 -270.19)"/><path class="cls-3" d="M373,308.06h0a6.44,6.44,0,0,0-5.76,4.17,6.43,6.43,0,0,0,1.67,7A6.43,6.43,0,1,0,373,308.06m2.26,1.12a5.67,5.67,0,1,1-7.65,5.54c0-.08,0-0.16,0-0.25a5.64,5.64,0,0,1,1.49-3.82,5.68,5.68,0,0,1,6.16-1.47" transform="translate(-366.26 -270.19)"/><path class="cls-3" d="M410.08,322a3.69,3.69,0,0,0-1.65.77,2.53,2.53,0,0,1,0-1.36v0l0.13-1.08c-0.79-.19-1.59-0.47-2.51-0.78l-1.17.26a15.22,15.22,0,0,0-5.92-3.49,15.79,15.79,0,0,0-6,1.76l-0.32-.47h-0.17a3.89,3.89,0,0,1-.1,1.9c1.06,0.23,1.41,1.25,1.12,2.5A4,4,0,0,1,394,325a3.72,3.72,0,0,1-.05,2.24c-1.71.95-3.49,0.39-4.28,0.66s-3.33,1.53-5.84.77l-0.27-.13a3.5,3.5,0,0,0-.5.77,2.29,2.29,0,0,1-1-1.38,3.64,3.64,0,0,1-1.19-.76l-0.83.84a3.35,3.35,0,0,1-.82-1.84,4.25,4.25,0,0,1,1.49-3.75c0.13-1.59,3.82-1.36,5.07-1,0,0-.15-0.65-0.3-1.25a0.94,0.94,0,0,1,.52-0.94c-0.43-2-1.61-2.75-1.63-4.77a7.78,7.78,0,0,1-4.71-2.25,2.66,2.66,0,0,1-.19,1,4.55,4.55,0,0,1-3.56,2.63l-0.11-.13a3.38,3.38,0,0,0,.93-2.84,1.5,1.5,0,0,1-.35-1.75,4.5,4.5,0,0,0-.82-1.34c-0.39-.32-1.1-0.8-1.1-0.8s-0.84.24-1,.3a1.47,1.47,0,0,1-1.2,1,3.45,3.45,0,0,0-.73.75,5,5,0,0,0-.7,1.27,2.59,2.59,0,0,1-.48.5l-0.16-.13a2.56,2.56,0,0,1-.57-1.72c-0.71.22-1.15,2.05-1.15,2.05l-0.06,0c-2-1.69-.63-3.84-0.6-4.09a1.08,1.08,0,0,1,.44-1.31,12,12,0,0,0,1.68-1.44,4,4,0,0,1,1.44,0,11.25,11.25,0,0,1,2.52-.77,12,12,0,0,1,4.58,1.47,15.57,15.57,0,0,1,3.87.45,5.38,5.38,0,0,1,1.8-4.14,6.16,6.16,0,0,1,1.8-1.55,88.32,88.32,0,0,1,11.29-2.25,6.54,6.54,0,0,1,4,.84c0.53,0.23,2,2.48,1.87,5.21a1.3,1.3,0,0,1,.86.69c2.6,0,5.79,3.36,6.19,4.18a5.83,5.83,0,0,0,3,2.7,3.68,3.68,0,0,1-.42,1.33c1-1.22,2.7-.7,3.61-0.08a2,2,0,0,1,1.9.39,4.45,4.45,0,0,1,1.56.61,3.19,3.19,0,0,1,.53,1.61,19.11,19.11,0,0,1-.82,4.2c-0.29,4.13-2.5,6.36-6.28,5.56a2.62,2.62,0,0,0-.62.94,1.83,1.83,0,0,1-.95-1.15l-1.14-.32a3,3,0,0,0-.73.83,3.64,3.64,0,0,1,.2-4.73v0Z" transform="translate(-366.26 -270.19)"/><path class="cls-3" d="M370.77,310.34a11,11,0,0,0-.69,3.08,9.19,9.19,0,0,0,.25,3A6.86,6.86,0,0,0,371.6,319a5.91,5.91,0,0,0,2.34,1.76,0.38,0.38,0,1,0,.29-0.71,5.17,5.17,0,0,1-2-1.53,6.1,6.1,0,0,1-1.12-2.29,8.44,8.44,0,0,1-.23-2.75,10.25,10.25,0,0,1,.64-2.86,0.38,0.38,0,1,0-.71-0.27" transform="translate(-366.26 -270.19)"/><path class="cls-3" d="M376.07,309.18c-1.29.41-1.8,1.55-2.3,2.66a6.5,6.5,0,0,1-1.15,2,2.7,2.7,0,0,1-.92.63,3.91,3.91,0,0,1-1.42.28,1.89,1.89,0,0,1-1.52-.54,4.35,4.35,0,0,1-.87-1.83,0.38,0.38,0,1,0-.74.21,5,5,0,0,0,1,2.15,2.63,2.63,0,0,0,2.09.78,3.94,3.94,0,0,0,2.87-1.13,7.16,7.16,0,0,0,1.31-2.18c0.46-1,.87-1.94,1.83-2.25a0.38,0.38,0,0,0-.23-0.73" transform="translate(-366.26 -270.19)"/><path class="cls-3" d="M367,315.71a0.38,0.38,0,0,1,.54,0,3.68,3.68,0,0,0,1.94.71,8,8,0,0,0,2.83-.23,8.8,8.8,0,0,0,3.32-1.65,7.69,7.69,0,0,0,2.39-3.29,0.38,0.38,0,1,1,.71.27,8.44,8.44,0,0,1-2.62,3.61,9.59,9.59,0,0,1-3.61,1.79,8.73,8.73,0,0,1-3.11.25,4.39,4.39,0,0,1-2.35-.89Z" transform="translate(-366.26 -270.19)"/><path class="cls-3" d="M369.57,319.51a2.39,2.39,0,0,1,2.07-1.8,9.65,9.65,0,0,1,2.89-.18,8,8,0,0,0,2.17-.1,4,4,0,0,0,2-1.24,0.38,0.38,0,1,1,.55.53,5.42,5.42,0,0,1-1.21,1,4.33,4.33,0,0,1-1.22.48,8.52,8.52,0,0,1-2.37.12,9.08,9.08,0,0,0-2.67.16,2.54,2.54,0,0,0-1.1.5,1.25,1.25,0,0,0-.41.72,0.38,0.38,0,0,1-.46.29Z" transform="translate(-366.26 -270.19)"/><path class="cls-3" d="M411.76,321.75c-0.22-.35-2-0.28-3,0.46-0.24-.71.73-2.22,2.38-2.48,2-.32,1.07,2.09.67,2" transform="translate(-366.26 -270.19)"/><path class="cls-3" d="M411,319.38a3.39,3.39,0,0,0-1.46.59,3.3,3.3,0,0,0-.95,1,1.7,1.7,0,0,0-.26,1.36l0.16,0.46,0.39-.29a3.51,3.51,0,0,1,1.53-.56,2.32,2.32,0,0,1,1,0l0.06,0.1,0.16,0a0.65,0.65,0,0,0,.65-0.37,2.36,2.36,0,0,0,.32-0.86,1.42,1.42,0,0,0-.16-1,1.32,1.32,0,0,0-1.46-.47m-1.79,2a2.76,2.76,0,0,1,1.9-1.25,1.16,1.16,0,0,1,.6,0,0.35,0.35,0,0,1,.19.18,0.69,0.69,0,0,1,0,.26,1.43,1.43,0,0,1-.06.4,1.49,1.49,0,0,1-.16.36,1.43,1.43,0,0,0-.29-0.08,4,4,0,0,0-1.42.05,4.72,4.72,0,0,0-.91.28,1.73,1.73,0,0,1,.12-0.23" transform="translate(-366.26 -270.19)"/><path class="cls-1" d="M386.67,320.81c0.19,0.55.37,1.17,0.37,1.17a1.47,1.47,0,0,1,.64,1.65,2.8,2.8,0,0,0-1.62-1.45,14.23,14.23,0,0,0-1.81-.18,4.18,4.18,0,0,0-2.18.24,2,2,0,0,1,1,1.77,1.6,1.6,0,0,1,1-.6,2.69,2.69,0,0,1,1,1.11c0.22,0.42.67,1.38,0.67,1.38a3.21,3.21,0,0,0,1.63.12c0.71-.16,1.38-0.51,2.47-0.71,0.28-.05,1.63,0,1.9-0.1a3,3,0,0,0,1.31-.36c0.49-.76-0.49-2.9-0.49-2.9a1,1,0,0,0-.44-1.43,3.34,3.34,0,0,1-1.88.63c-2.06-.09-2.28-0.16-3.17-0.57,0,0-.59-0.27-0.41.25" transform="translate(-366.26 -270.19)"/><path class="cls-3" d="M386.66,320.51a0.28,0.28,0,0,0,0,.31c0.19,0.55.36,1.16,0.37,1.17h0a1.57,1.57,0,0,1,.61.78,1.34,1.34,0,0,1,.08.46,1.09,1.09,0,0,1,0,.31,2.46,2.46,0,0,0-.83-1,3.17,3.17,0,0,0-.77-0.41h0a14.71,14.71,0,0,0-1.81-.18,4,4,0,0,0-2.2.24l0,0,0,0a2,2,0,0,1,1,1.75v0.08l0-.07a1.54,1.54,0,0,1,1-.59,2.74,2.74,0,0,1,1,1.1c0.22,0.41.66,1.37,0.66,1.38h0l0.16,0a3,3,0,0,0,1.49.08,8.17,8.17,0,0,0,.91-0.28,10.33,10.33,0,0,1,1.55-.44c0.13,0,.52,0,0.89,0a8.72,8.72,0,0,0,1-.06l0.58-.11a1.36,1.36,0,0,0,.74-0.26h0a1.11,1.11,0,0,0,.14-0.61,4.25,4.25,0,0,0-.2-1.15,9.63,9.63,0,0,0-.43-1.16,2,2,0,0,0,.1-0.58,1,1,0,0,0-.06-0.37,0.89,0.89,0,0,0-.5-0.5h0a3.33,3.33,0,0,1-1.86.62c-2.08-.09-2.28-0.16-3.16-0.57a0.51,0.51,0,0,0-.43,0m0,0.29h0a0.47,0.47,0,0,1,0-.16,0.12,0.12,0,0,1,0-.09,0.45,0.45,0,0,1,.37,0,4.41,4.41,0,0,0,1.15.41,16.06,16.06,0,0,0,2,.17,3.32,3.32,0,0,0,1-.17,2.44,2.44,0,0,0,.9-0.46,0.84,0.84,0,0,1,.45.46,1,1,0,0,1,.06.36,1.92,1.92,0,0,1-.1.57h0a7.18,7.18,0,0,1,.63,2.3,1.08,1.08,0,0,1-.13.57,1.33,1.33,0,0,1-.71.24l-0.58.11a8.87,8.87,0,0,1-1,.05c-0.39,0-.76,0-0.9,0a10.26,10.26,0,0,0-1.56.44,8.84,8.84,0,0,1-.91.27,2.94,2.94,0,0,1-1.47-.08l-0.13,0c-0.05-.11-0.45-1-0.66-1.37a4.72,4.72,0,0,0-.47-0.68,0.92,0.92,0,0,0-.56-0.44,1.65,1.65,0,0,0-1,.55,2.05,2.05,0,0,0-.95-1.7,4.67,4.67,0,0,1,2.13-.2,14.17,14.17,0,0,1,1.8.18,3,3,0,0,1,.76.4,2.41,2.41,0,0,1,.84,1l0,0.06,0-.06a1.2,1.2,0,0,0,.07-0.4,1.41,1.41,0,0,0-.09-0.48,1.64,1.64,0,0,0-.62-0.8c0-.08-0.19-0.65-0.36-1.16" transform="translate(-366.26 -270.19)"/><path class="cls-1" d="M383.88,327.58a4.25,4.25,0,0,1,1-1,5.2,5.2,0,0,0,2.57.19,17.41,17.41,0,0,1,3.28-.86,4.53,4.53,0,0,0,2.45-.38l-0.06.9a2.49,2.49,0,0,1-.9.34,20.17,20.17,0,0,0-2.34,0,15.17,15.17,0,0,0-2.06.68,7,7,0,0,1-2.6.33,9,9,0,0,1-1.36-.26" transform="translate(-366.26 -270.19)"/><path class="cls-1" d="M382,326.63a1.16,1.16,0,0,1,0-.42c0.06-.37.09-0.48,0.09-0.48a2,2,0,0,0-.57.51,1.55,1.55,0,0,0,.47.39" transform="translate(-366.26 -270.19)"/><path class="cls-1" d="M393.32,313.47a7,7,0,0,1,1.8,2.51,20,20,0,0,1,3.58-.73c0.45-.07,2.41.55,4.67,2.13a7.72,7.72,0,0,0,3.74-1.32c-0.87-.55-1.07-2.53-2.73-3.3-2.7,1.72-6,2.54-11.06.7" transform="translate(-366.26 -270.19)"/><path class="cls-3" d="M404.37,312.75a11.77,11.77,0,0,1-2.15,1.09,9.73,9.73,0,0,1-2.48.59,11.76,11.76,0,0,1-2.92-.07,18.21,18.21,0,0,1-3.49-.91l0,0a7,7,0,0,1,1.79,2.5v0h0a18.5,18.5,0,0,1,3.33-.7l0.24,0a4.33,4.33,0,0,1,1.64.44,16.21,16.21,0,0,1,3,1.68h0a5.77,5.77,0,0,0,1.94-.4,7.11,7.11,0,0,0,1.82-.92l0,0,0,0a3.12,3.12,0,0,1-.87-1.18,7.5,7.5,0,0,0-.71-1.17,3.13,3.13,0,0,0-1.16-.95h0Zm-4.62,1.73a9.82,9.82,0,0,0,2.49-.59,11.48,11.48,0,0,0,2.14-1.08,4.21,4.21,0,0,1,1.84,2.08,3.28,3.28,0,0,0,.85,1.18,7.34,7.34,0,0,1-1.78.89,5.63,5.63,0,0,1-1.91.4,15.57,15.57,0,0,0-3-1.69,4.42,4.42,0,0,0-1.67-.45l-0.24,0a18.65,18.65,0,0,0-3.31.69,7.36,7.36,0,0,0-1.68-2.4,18,18,0,0,0,3.36.86,11.85,11.85,0,0,0,2.94.08" transform="translate(-366.26 -270.19)"/><path class="cls-1" d="M407,310.45c2.05,1.18,1.64,2.54,2.8,3.17a2.53,2.53,0,0,0,.38-0.52,2.24,2.24,0,0,0,.27-0.8c-0.92-.9-1.41-2.37-2.33-3Z" transform="translate(-366.26 -270.19)"/><path class="cls-3" d="M407,310.46l0,0a4.18,4.18,0,0,1,1.85,2,2.35,2.35,0,0,0,.95,1.16h0a3.39,3.39,0,0,0,.39-0.52,2.66,2.66,0,0,0,.27-0.81h0a7.42,7.42,0,0,1-1-1.42,5.07,5.07,0,0,0-1.29-1.57h0Zm1.16-1.1a5.1,5.1,0,0,1,1.25,1.54,8.1,8.1,0,0,0,1,1.42,2.22,2.22,0,0,1-.26.77,2.93,2.93,0,0,1-.37.5,2.28,2.28,0,0,1-.91-1.12,5.08,5.08,0,0,0-.62-1,4.3,4.3,0,0,0-1.22-1l1.08-1.09" transform="translate(-366.26 -270.19)"/><path class="cls-1" d="M416.64,315a2.54,2.54,0,0,0-.41.08c-0.93-.69-2.51-1.12-3.08-0.09l0.21,0.09c1.16-.53,1.79.74,1.73,2a3.7,3.7,0,0,1-.62,1.63,6.13,6.13,0,0,1-1.43,1.24c0.15,0.23.19,0.3,0.13,0.39a3.86,3.86,0,0,1,2.45.81c-2.26-.36-3.81-0.31-4.69,1a1.65,1.65,0,0,1,1.15,1.41,1.58,1.58,0,0,1,1.3-.93,1.78,1.78,0,0,1,1.57,1.31c1.95-.26,2-2.65,2.23-3.37a15,15,0,0,0,.79-3.85c0-1.13-.44-1.61-1-1.75a1.14,1.14,0,0,0-.33,0" transform="translate(-366.26 -270.19)"/><path class="cls-3" d="M413.94,314.37a1.18,1.18,0,0,0-.83.59v0l0.25,0.11h0a1,1,0,0,1,1,0,1.52,1.52,0,0,1,.54.79,3.12,3.12,0,0,1,.15,1.16,3.66,3.66,0,0,1-.61,1.61,6,6,0,0,1-1.43,1.23l0,0v0c0.16,0.23.19,0.29,0.14,0.36l0,0h0a4.38,4.38,0,0,1,1.27.19,2.94,2.94,0,0,1,1.09.56,8.7,8.7,0,0,0-2.79-.11,2.89,2.89,0,0,0-1.05.38,2.47,2.47,0,0,0-.79.8l0,0h0a1.64,1.64,0,0,1,1.15,1.38v0.1l0-.09a1.74,1.74,0,0,1,.56-0.66,1.37,1.37,0,0,1,.71-0.25,1.5,1.5,0,0,1,.84.3,1.74,1.74,0,0,1,.71,1v0h0a2.09,2.09,0,0,0,1-.41,2.45,2.45,0,0,0,.62-0.77,5.92,5.92,0,0,0,.53-1.74c0-.19.07-0.35,0.1-0.47l0-.08a14.46,14.46,0,0,0,.75-3.77c0-1-.37-1.61-1-1.78a1.18,1.18,0,0,0-.34,0,2.37,2.37,0,0,0-.39.07,3.18,3.18,0,0,0-2.3-.66m0,0.05a3.15,3.15,0,0,1,2.27.66h0a2.21,2.21,0,0,1,.4-0.08,1.2,1.2,0,0,1,.32,0,1.08,1.08,0,0,1,.68.49,2.64,2.64,0,0,1,.3,1.23v0.14a15.66,15.66,0,0,1-.76,3.62l0,0.08a3.57,3.57,0,0,0-.1.47,6.14,6.14,0,0,1-.52,1.73,2.53,2.53,0,0,1-.61.75,2.05,2.05,0,0,1-1,.4,1.81,1.81,0,0,0-1.59-1.31,1.42,1.42,0,0,0-.73.26,1.73,1.73,0,0,0-.54.6,1.67,1.67,0,0,0-1.13-1.33,2.46,2.46,0,0,1,.75-0.75,2.88,2.88,0,0,1,1-.38,8.91,8.91,0,0,1,2.85.12h0.08l-0.06-.06a2.89,2.89,0,0,0-1.18-.63,4.35,4.35,0,0,0-1.24-.19,0.11,0.11,0,0,0,0,0,0.6,0.6,0,0,0-.15-0.3,5.87,5.87,0,0,0,1.43-1.23,3.62,3.62,0,0,0,.61-1.64,1.5,1.5,0,0,0,0-.19,2.94,2.94,0,0,0-.16-1,1.54,1.54,0,0,0-.56-0.82,1,1,0,0,0-1,0l-0.17-.07a1.13,1.13,0,0,1,.77-0.54" transform="translate(-366.26 -270.19)"/><path class="cls-1" d="M418.58,315.73a3.92,3.92,0,0,1,.25,1.49,8.27,8.27,0,0,1-.39,2c-0.14.32-.46,1.36-0.49,1.51a7.72,7.72,0,0,1-.64,2.47,2.94,2.94,0,0,1-2.48,1.66,5.06,5.06,0,0,0-1.17.9,6.26,6.26,0,0,0,2.2-.15,3.88,3.88,0,0,0,2.09-2,11.74,11.74,0,0,0,.68-2.83c0.09-.94.74-2.23,0.77-3.32a2.38,2.38,0,0,0-.33-1.51Z" transform="translate(-366.26 -270.19)"/><path class="cls-1" d="M411.09,325.18l0.41,0.08a1.51,1.51,0,0,1,0-.51,2.5,2.5,0,0,0-.43.43" transform="translate(-366.26 -270.19)"/><path class="cls-1" d="M395,313.1a18.2,18.2,0,0,0,4.84-.66,4.38,4.38,0,0,1-2.37,1.07,10.69,10.69,0,0,0,9.57-4.63l-0.17-.61c-0.82-1.23-1.11-1.66-1.65-1.83l-0.4.7a5.69,5.69,0,0,1-4.39,2.27,6.5,6.5,0,0,1-4.37-1.34c-1.23-.94-3.41-3.26-2.22-7.71a0.42,0.42,0,0,0-.33.13c0,0.13-.31,1.06-0.47,1.61-0.44,1.57-.08,2.91-0.22,3.7a4.18,4.18,0,0,1-1.67,2.64c-4.35-.1-5.25-5.78-5.25-5.78a4.76,4.76,0,0,0-.17,2.75,2.6,2.6,0,0,0,.29.95c1.6,3.68,3.68,3.9,7.25,6.28a11.87,11.87,0,0,0,1.7.46" transform="translate(-366.26 -270.19)"/><path class="cls-3" d="M400.73,311.37a19.43,19.43,0,0,1-3,.63l-1.91-1.33-0.49.6,1.42,1a10.78,10.78,0,0,1-3.13.09l0-.36-3.58-2.42-1.28-.47a11,11,0,0,0,5.41-.94l1.27,0.24,1.26,1-0.32.52,1.2,0.07,1.59,1.11Zm-5.89-1.46-0.49-.48a2,2,0,0,1-.2.13,2.72,2.72,0,0,1-1,.25l1.12,0.83Z" transform="translate(-366.26 -270.19)"/><path class="cls-3" d="M388.69,323.68c1.13-.21,2.77,1.11,3.72.42a1.86,1.86,0,0,1-2.29.52,5.61,5.61,0,0,0-1.43-.93" transform="translate(-366.26 -270.19)"/><path class="cls-3" d="M388.67,323.61v0.15a2.68,2.68,0,0,1,1,.58,4.91,4.91,0,0,0,.45.34,2,2,0,0,0,1.8,0,1,1,0,0,0,.61-0.55l0-.18-0.15.11a1.18,1.18,0,0,1-.9.17,6.42,6.42,0,0,1-1.11-.3,3.66,3.66,0,0,0-1.69-.3m1.48,0.94a4.53,4.53,0,0,1-.44-0.33,4.63,4.63,0,0,0-.68-0.48,5.06,5.06,0,0,1,1.27.32,3.1,3.1,0,0,0,1.86.25,1.64,1.64,0,0,1-.36.22,1.86,1.86,0,0,1-1.66,0" transform="translate(-366.26 -270.19)"/><path class="cls-3" d="M383.63,322.76a3.72,3.72,0,0,1,2.17,3.2L385,325.9s0.16-.86-1.33-3.14" transform="translate(-366.26 -270.19)"/><path class="cls-3" d="M389.63,323.83a1.68,1.68,0,0,0-.07-2.15c2-.13,2.31,2,2.15,2.62a2.12,2.12,0,0,1-2.08-.47" transform="translate(-366.26 -270.19)"/><path class="cls-3" d="M389.54,321.38l-0.65,0,0.46,0.46a1.35,1.35,0,0,1,.28.51,1.31,1.31,0,0,1,.05.37,1.61,1.61,0,0,1-.3.9l-0.11.16,0.1,0.16a2.45,2.45,0,0,0,2.23.68,0.45,0.45,0,0,0,.4-0.31h0a2.86,2.86,0,0,0-.58-2.25,2.17,2.17,0,0,0-1.88-.73m0.74,1.38a1.85,1.85,0,0,0-.09-0.57,1.89,1.89,0,0,0-.07-0.19,1.44,1.44,0,0,1,.85.49,2.12,2.12,0,0,1,.43.95,2.43,2.43,0,0,1,.05.48,1.52,1.52,0,0,1,0,.16,2.69,2.69,0,0,1-.72,0,1.53,1.53,0,0,1-.73-0.27,2.11,2.11,0,0,0,.28-1" transform="translate(-366.26 -270.19)"/><path class="cls-3" d="M405.76,307.49a10.59,10.59,0,0,0,.52,2.88,5.48,5.48,0,0,0,2.1,1.41,8.63,8.63,0,0,0,1.67-.33,2.08,2.08,0,0,0,.64-0.06,3.74,3.74,0,0,0,1.92-1.07,1.63,1.63,0,0,0,1.36-.58,8.7,8.7,0,0,0,1-2.74,1.18,1.18,0,0,0-.46-1,3.44,3.44,0,0,0-2.35-3.68,3.35,3.35,0,0,1-.06,2.31,3.49,3.49,0,0,0-2-2.07,4.47,4.47,0,0,1,0,2.07,10.34,10.34,0,0,0-2.22-4,3.62,3.62,0,0,0-1-.55,14.27,14.27,0,0,0-6.57,0c-0.8-.42-3.28-0.27-4.38,0-0.9,1.74-.55,3.53,1,5.54s4.2,2,5.34,1a3.15,3.15,0,0,0,2.17-.25,6.18,6.18,0,0,0,1.31,1.19" transform="translate(-366.26 -270.19)"/><path class="cls-4" d="M410.72,305.12a2.9,2.9,0,0,0,.19-1.25,2.66,2.66,0,0,1,.85,1.89,4.36,4.36,0,0,0-1-.64" transform="translate(-366.26 -270.19)"/><path class="cls-4" d="M412.73,305.18a2.42,2.42,0,0,1,1.09.49,2.56,2.56,0,0,0-.88-2.16,2.86,2.86,0,0,1-.21,1.67" transform="translate(-366.26 -270.19)"/><path class="cls-3" d="M385.78,301.34c1,2,.37,5,5.23,6.6a11.31,11.31,0,0,0,1.86-5.83,7,7,0,0,0,3.37,1.32c1.1,0.07,3.34-.43,3.67-2.12l-0.69-.57a3.54,3.54,0,0,0,.5-1.92,3.12,3.12,0,0,1-1.24.73,7.88,7.88,0,0,0,.17-1.73,4.85,4.85,0,0,1-1.49.8,5,5,0,0,0,.5-1.69,3.41,3.41,0,0,1-1.08.57l-0.22-1,0.89-.94v0.69a3.53,3.53,0,0,0,1.57-1,6.27,6.27,0,0,1,0,1.28,5.47,5.47,0,0,0,1.5-1s0.08,0.61.13,1.24a4.58,4.58,0,0,0,2.32-2.27,3.1,3.1,0,0,0,1-.5,21.74,21.74,0,0,0-.81-3.78s-4-1.06-4.49-1.26c-0.14-.67.07-0.4-0.14-0.67a19.73,19.73,0,0,0-2.95-1.19,1.5,1.5,0,0,0-1.39.46c-0.81-.27-2.8-0.66-3.24-0.4s-1,.66-1,0.66c-0.88.13-6.45,1.86-6.45,6.7a6.8,6.8,0,0,0,.86,3.84c0.81,1.36,1.19,2.06,1.64,2.92" transform="translate(-366.26 -270.19)"/><path class="cls-3" d="M394.59,287.15a2.51,2.51,0,0,0-.6.39,12.39,12.39,0,0,0-1.73-.39,3.16,3.16,0,0,0-1.52,0c-0.4.24-.93,0.6-1,0.65a10.16,10.16,0,0,0-3.57,1.59,7.37,7.37,0,0,0-2,2.06,5.7,5.7,0,0,0-.89,3.11v0.11a6.72,6.72,0,0,0,.87,3.77c0.81,1.36,1.18,2,1.63,2.91a8.25,8.25,0,0,1,.56,1.64,7.46,7.46,0,0,0,1.15,2.72A6.8,6.8,0,0,0,391,308l0,0,0,0a10.16,10.16,0,0,0,.91-1.67,11.79,11.79,0,0,0,.64-1.86,10.4,10.4,0,0,0,.32-2.21,7.2,7.2,0,0,0,3.3,1.25,5,5,0,0,0,2.15-.41,2.53,2.53,0,0,0,1.59-1.76v0l-0.69-.56a3.72,3.72,0,0,0,.26-0.54,3.34,3.34,0,0,0,.23-1.17,1.26,1.26,0,0,0,0-.2v-0.13l-0.1.09a3.35,3.35,0,0,1-1.11.71,8.21,8.21,0,0,0,.17-1.43,1.73,1.73,0,0,0,0-.23v-0.12l-0.1.07a6,6,0,0,1-1.34.77,4.5,4.5,0,0,0,.45-1.61V296.8l-0.1.08a3.63,3.63,0,0,1-1,.54c0-.11-0.19-0.84-0.21-0.9l0.76-.8v0.62l0.09,0a4.23,4.23,0,0,0,1.49-.85,7.32,7.32,0,0,1,0,.74,1.81,1.81,0,0,1,0,.34l0,0.12,0.11,0a5.51,5.51,0,0,0,1.43-.91c0,0.21.07,0.66,0.11,1.11v0.09l0.08,0a4.62,4.62,0,0,0,.95-0.55,4.12,4.12,0,0,0,1.4-1.72,2.9,2.9,0,0,0,1-.5l0,0v0a22.13,22.13,0,0,0-.82-3.8v0h0s-3.82-1-4.45-1.24a1.49,1.49,0,0,1-.05-0.33,0.82,0.82,0,0,1,0-.09s0,0,0,0a0.36,0.36,0,0,0-.12-0.2,11,11,0,0,0-2.41-1l-0.56-.2a1.08,1.08,0,0,0-.83.06m-0.54.52a1.49,1.49,0,0,1,1.32-.45l0.57,0.2c0.41,0.14,1,.35,1.44.53a3,3,0,0,1,.91.44,0.54,0.54,0,0,1,.09.11h0a0.32,0.32,0,0,0,0,.11,1.73,1.73,0,0,0,.06.4v0h0c0.5,0.19,4.06,1.14,4.46,1.25a20.93,20.93,0,0,1,.79,3.7,3.12,3.12,0,0,1-.91.46h0v0a4,4,0,0,1-1.36,1.69,5.4,5.4,0,0,1-.84.5c0-.59-0.13-1.14-0.13-1.15v-0.12l-0.1.08a5.84,5.84,0,0,1-1.37.92c0-.08,0-0.16,0-0.25a6.86,6.86,0,0,0-.07-0.93l0-.21-0.1.19a3.22,3.22,0,0,1-1.44.91v-0.77l-1,1.09,0.25,1.09h0.06a2.82,2.82,0,0,0,1-.49,5.14,5.14,0,0,1-.48,1.52l0,0.09h0.11a2.15,2.15,0,0,0,.92-0.4l0.52-.34v0.1a9.51,9.51,0,0,1-.18,1.49l0,0.07h0.07a1.44,1.44,0,0,0,.81-0.36,4.82,4.82,0,0,0,.39-0.29V299a3.52,3.52,0,0,1-.5,1.69l0,0.05,0,0,0.67,0.54a2.42,2.42,0,0,1-1.5,1.63,4.88,4.88,0,0,1-2.09.4,7,7,0,0,1-3.33-1.3l-0.11-.09v0.14a10.23,10.23,0,0,1-.32,2.3,11.45,11.45,0,0,1-.63,1.83,10.22,10.22,0,0,1-.87,1.61,6.67,6.67,0,0,1-3.44-2.2,7.37,7.37,0,0,1-1.13-2.68,8.31,8.31,0,0,0-.57-1.67c-0.45-.87-0.83-1.56-1.64-2.92a6.6,6.6,0,0,1-.85-3.7v-0.11a5.58,5.58,0,0,1,.87-3,7.28,7.28,0,0,1,2-2,10.71,10.71,0,0,1,2.16-1.15,7.19,7.19,0,0,1,1.37-.42h0s0.59-.4,1-0.66a3,3,0,0,1,1.43,0,12.41,12.41,0,0,1,1.75.39h0Z" transform="translate(-366.26 -270.19)"/><path class="cls-1" d="M393.3,293.79a8.24,8.24,0,0,0,1.14.33,1.59,1.59,0,0,1-1,1,3.06,3.06,0,0,0-.15-1.29" transform="translate(-366.26 -270.19)"/><path class="cls-1" d="M394.93,294.29a4.28,4.28,0,0,0,1-.13,2,2,0,0,1-.79,1.25,4.05,4.05,0,0,0-.2-1.11" transform="translate(-366.26 -270.19)"/><path class="cls-1" d="M396.35,294.08l1.09-.22a2,2,0,0,1-.87,1.35,2,2,0,0,0-.22-1.13" transform="translate(-366.26 -270.19)"/><path class="cls-1" d="M397.92,293.7l0.89,0.32a2.08,2.08,0,0,1-.92,1.16,4.08,4.08,0,0,0,0-1.48" transform="translate(-366.26 -270.19)"/><path class="cls-1" d="M399.38,294.21a3.58,3.58,0,0,0,1,.34,2.9,2.9,0,0,1-1,.93,3.92,3.92,0,0,0,0-1.27" transform="translate(-366.26 -270.19)"/><path class="cls-1" d="M400.82,294.62a4.86,4.86,0,0,0,1.14,0,7.57,7.57,0,0,1-1,1.2,3.64,3.64,0,0,0-.1-1.22" transform="translate(-366.26 -270.19)"/><path class="cls-1" d="M391.68,297a6.1,6.1,0,0,0,1-.76,2.65,2.65,0,0,1,0,1,3.36,3.36,0,0,0-1-.23" transform="translate(-366.26 -270.19)"/><path class="cls-1" d="M393.2,297.8a3.47,3.47,0,0,0,.92-0.56,2.36,2.36,0,0,1-.33,1.29,5.85,5.85,0,0,0-.59-0.73" transform="translate(-366.26 -270.19)"/><path class="cls-1" d="M394.23,299.15a2.54,2.54,0,0,0,.93-0.62,1.62,1.62,0,0,1-.23,1.32,3.24,3.24,0,0,1-.7-0.7" transform="translate(-366.26 -270.19)"/><path class="cls-1" d="M395.52,300.41a3.49,3.49,0,0,0,1-.86,2.27,2.27,0,0,1,0,1.26,1.47,1.47,0,0,1-.92-0.4" transform="translate(-366.26 -270.19)"/><path class="cls-1" d="M397.24,300.91a5.19,5.19,0,0,0,.77-1.06,2.71,2.71,0,0,1,.16,1.06,1.79,1.79,0,0,1-.93,0" transform="translate(-366.26 -270.19)"/><path class="cls-4" d="M392,295.24a3.73,3.73,0,0,0-.77,1.5,14.18,14.18,0,0,0,1.64-1.2,4.11,4.11,0,0,1,.39,1.67,9.26,9.26,0,0,0,1.14-.64,3.46,3.46,0,0,1,0,1.92c0.31-.12,1-0.54,1.11-0.62a3.49,3.49,0,0,1,.12,1.78,10.28,10.28,0,0,0,1-.7,4.21,4.21,0,0,1,.37,1.34,3.09,3.09,0,0,0,.69-0.77,1,1,0,0,0-.52-0.48,3.19,3.19,0,0,1-1.1-.74c-0.47-.5-0.5-1.43-1.24-2.08a4.64,4.64,0,0,0-2.83-1" transform="translate(-366.26 -270.19)"/><path class="cls-3" d="M392,295.22a3.78,3.78,0,0,0-.78,1.51v0.07l0.06,0a14.82,14.82,0,0,0,1.62-1.18,4.2,4.2,0,0,1,.37,1.53s0,0.07,0,.1v0.05l0,0a10,10,0,0,0,1.1-.62v0.08a4,4,0,0,1,.1.84,2.66,2.66,0,0,1-.16.94l0,0.06,0.06,0a9.84,9.84,0,0,0,.92-0.5l0.16-.1a3.54,3.54,0,0,1,.17,1.08,3.16,3.16,0,0,1-.07.65v0.06l0.05,0a11.26,11.26,0,0,0,1-.68,4.38,4.38,0,0,1,.35,1.29v0.05l0,0a3,3,0,0,0,.7-0.78h0a0.77,0.77,0,0,0-.43-0.42l-0.1-.08a1.65,1.65,0,0,0-.25-0.12,2.23,2.23,0,0,1-.85-0.61,2.56,2.56,0,0,1-.45-0.82,3.13,3.13,0,0,0-.79-1.26,4.65,4.65,0,0,0-2.85-1h0Zm0,0.05a4.57,4.57,0,0,1,2.79,1,3.09,3.09,0,0,1,.78,1.24,2.67,2.67,0,0,0,.46.84,2.27,2.27,0,0,0,.87.62,1.37,1.37,0,0,1,.23.12l0.11,0.08a0.8,0.8,0,0,1,.4.38,2.9,2.9,0,0,1-.64.71,4.37,4.37,0,0,0-.37-1.29l0,0,0,0a11.5,11.5,0,0,1-1,.66,3.14,3.14,0,0,0,.05-0.6,3.63,3.63,0,0,0-.19-1.14v0l0,0-0.2.11c-0.24.14-.62,0.36-0.86,0.47a2.73,2.73,0,0,0,.14-0.9,4.24,4.24,0,0,0-.1-0.86c0-.05,0-0.09,0-0.12v0l0,0a9.29,9.29,0,0,1-1.09.62v-0.05a4.32,4.32,0,0,0-.4-1.59l0,0,0,0a13.49,13.49,0,0,1-1.58,1.16,3.74,3.74,0,0,1,.74-1.4" transform="translate(-366.26 -270.19)"/><path class="cls-2" d="M431.61,300.56a32.89,32.89,0,0,1-9.21,7.34A37.72,37.72,0,0,1,411.53,312l-0.64-.7a3.74,3.74,0,0,0,1.72-1,1.63,1.63,0,0,0,1.36-.58,8,8,0,0,0,1-2.55h0a17.08,17.08,0,0,0,2.15-.26,36.43,36.43,0,0,0,14-6.24" transform="translate(-366.26 -270.19)"/><path class="cls-3" d="M413.86,311.09l1.5-2.4,1.48,1.22,1.17-2,1.29,0.89,1-1.66,1.08,0.71,0.9-1.42,0.81,0.42,0.71-1.13,0.76,0.2,0.52-.8,0.65,0.18a32.6,32.6,0,0,1-6.21,3.57,40.5,40.5,0,0,1-5.69,2.2" transform="translate(-366.26 -270.19)"/><path class="cls-2" d="M414,317.84a5.26,5.26,0,0,1-.79,1c-1.59,1.27-2.8,1-5.51.16,1.74-.76,3.89-2.35,4.57-3.66a3.08,3.08,0,0,0,1.09.45v0c0.35-.28.85-0.06,0.89,1a2.28,2.28,0,0,1-.25,1.05" transform="translate(-366.26 -270.19)"/><path class="cls-2" d="M404,318.06l1.29,0.8a10.12,10.12,0,0,0,4.52-2.09,7.7,7.7,0,0,0,2.45-3.33l-1-.64a5.49,5.49,0,0,1-1.24,2.06c-1.85-1.08-1.47-2.79-3.43-3.64l-1.37,1.07c2,1.19,1.3,2.34,3.28,3.85a9,9,0,0,1-4.46,1.9" transform="translate(-366.26 -270.19)"/><path class="cls-2" d="M386.08,311.6l0.17,0a9.53,9.53,0,0,1,3.64,1.54,10.17,10.17,0,0,1,3.27,3.75l0,0.07,1.3-.66,0-.08a11.2,11.2,0,0,0-1.62-2.4,11,11,0,0,0-2-1.79,12.86,12.86,0,0,0-2-1.16,6.52,6.52,0,0,0-1.46-.47h0Z" transform="translate(-366.26 -270.19)"/><path class="cls-2" d="M390,315.64c0.27,0.25,1.53,1.23,1.51,2.27s-0.44,1.4-.15,2a3.19,3.19,0,0,1-1.29.28,8.29,8.29,0,0,1-2.83-.5,18,18,0,0,0-1.68-4.13c-0.56-.76-0.36-2.74.32-3.2,0,0,.82.23,1.48,0.44a8.7,8.7,0,0,1,4.62,3.74l-0.12.09a5.44,5.44,0,0,0-.72-0.66,3.78,3.78,0,0,0-1.09-.42,0.53,0.53,0,0,0,0,.11" transform="translate(-366.26 -270.19)"/><path class="cls-2" d="M379.8,311.24a11.21,11.21,0,0,0,4.45,2,2.9,2.9,0,0,1,.37-1.11,8.74,8.74,0,0,1,2.16-2.55,7.64,7.64,0,0,1-2.2-5.33,3.75,3.75,0,0,0-1.24,3,3.13,3.13,0,0,1,1.07,2.36,8.65,8.65,0,0,0-1.55-1.28,18.45,18.45,0,0,0-4.63-.62,17.16,17.16,0,0,0-2.84-1.13s-0.89-.24-1.36-0.32c-0.58.12-1.66,0.54-2.3,0.66a2,2,0,0,0-.89,1.22,0.67,0.67,0,0,1,.45-0.15,1.65,1.65,0,0,1,1,1.05,1.21,1.21,0,0,0,.61-0.83,7.71,7.71,0,0,1,1.8-.4,17.56,17.56,0,0,1,1.94,1.43,12.77,12.77,0,0,0,.76,1.52,1.84,1.84,0,0,0-.06,1.14,1.74,1.74,0,0,0,1.33-.37c0.51-.66.08-1.94,0-2.35a3.41,3.41,0,0,1,1.18,2" transform="translate(-366.26 -270.19)"/><path class="cls-2" d="M370.63,307a3.76,3.76,0,0,0-.63,1.16c0,0.28,0,.46,0,0.46l-0.18.35a1.62,1.62,0,0,0-.77-0.64,2.31,2.31,0,0,0-.31.1s-0.11-.06.35-0.33a2.38,2.38,0,0,0,.88-0.77,0.8,0.8,0,0,1,.64-0.32" transform="translate(-366.26 -270.19)"/><path class="cls-2" d="M369.92,307.25l-0.07.09a2.2,2.2,0,0,1-.79.67h0a0.59,0.59,0,0,0-.41.38h0a0.11,0.11,0,0,0,.05.1l0,0,0,0,0.3-.09a0.59,0.59,0,0,1,.4.27,3.54,3.54,0,0,1,.28.34l0.08,0.11,0.25-.49v0h0s0-.2,0-0.45h0a3.56,3.56,0,0,1,.62-1.1l0.09-.11-0.14,0a0.87,0.87,0,0,0-.72.35m0.07,0.19,0.06-.08h0a0.93,0.93,0,0,1,.4-0.28l-0.22.33a1.58,1.58,0,0,0-.32.72v0h0c0,0.22,0,.38,0,0.43l-0.11.21-0.21-.25a0.7,0.7,0,0,0-.56-0.32h0l0.13-.08h0a2.39,2.39,0,0,0,.85-0.72m-0.07-.19h0Z" transform="translate(-366.26 -270.19)"/><path class="cls-2" d="M399.44,300.43a1.5,1.5,0,0,1-.16.29l0.7,0.56c-0.33,1.54-2.05,2.13-3.33,2.21h-0.1a5.19,5.19,0,0,0,.32.66,4.06,4.06,0,0,0,2.57,2.09c0.71,0.1,2.07.19,2.49-.86a3.43,3.43,0,0,0,2.86-.22c0.41,0.86,1.59,1.35,1.91,1.68,0.18,2.67.88,4,1.11,4a2.65,2.65,0,0,0,1.43-.17l-0.16-1.2,1.36,1.09a4.29,4.29,0,0,0,1.2-.57,12.41,12.41,0,0,1-.67-1.29c0.79,0.36,1.68.7,1.68,0.7a3.44,3.44,0,0,0,.79-0.54,6.85,6.85,0,0,0,.63-1.95,2.67,2.67,0,0,0-1.36-.8l-0.12.37a1.9,1.9,0,0,1,.21,1.49,5.91,5.91,0,0,0-2.81-2.32c-0.16.13-.66,0.5-0.66,0.5,0-1,0-1.07,0-1.07-0.42-1.48-1.84-3.83-2.4-4a8.34,8.34,0,0,0-4.91-.15,1.82,1.82,0,0,1,.43,1.49,4.52,4.52,0,0,0-1.35-1.3,6.45,6.45,0,0,0-1.59-.73Z" transform="translate(-366.26 -270.19)"/><path class="cls-2" d="M389.7,289.61s1-1.17,1.36-1.6a8.68,8.68,0,0,1,2.9.41c0.52,0.27.81,1,1.65,1.22l0-.06a3,3,0,0,1-.63-0.78,1.36,1.36,0,0,0-.34-0.71l0.46-.2s1.53,0.69,1.93.79a0.35,0.35,0,0,1,.29.43,2.5,2.5,0,0,1-1-.33s-0.06.63,1.41,0.93a28,28,0,0,1,4.43,1.12c0.12,0.26.32,0.86,0.32,0.86a3.13,3.13,0,0,0-.42,1.36l0.06,0a1.09,1.09,0,0,1,.48-0.51,4.82,4.82,0,0,1,.17,1,3.35,3.35,0,0,1-1.21.28c-1.17.13-3.15-1-3.56-.92s-2.53.59-3,.56-1.23-.46-1.67-0.46a6.37,6.37,0,0,0-3.35,4.64,9.49,9.49,0,0,1,2.31.31c0.38,0.19,1.83,2.44,2.63,3a6,6,0,0,0,4,.61,3.35,3.35,0,0,1-2.25,1.08,4.68,4.68,0,0,1-3.68-2.19,8.22,8.22,0,0,0-1.48-1.16c-0.68-.38-2.5-0.34-3.48-1.42a2.46,2.46,0,0,1-.67-2.39,1.58,1.58,0,0,0-.62,1.37,2.76,2.76,0,0,0,.68,1.74c0.85,1,2.31,1.29,3.21,1.66a1.36,1.36,0,0,1,.9.77s-1.58.55-4-.82c0,0,.89,2.58,4.23,2.08h0.08s-0.7,1.59-3.92.67a3,3,0,0,0,2,1.26,2.78,2.78,0,0,0,2-.42,1.69,1.69,0,0,1-.36.8,1.82,1.82,0,0,1-2.08.57,2.35,2.35,0,0,0,2.22.91,4,4,0,0,1-.83,1.24,3.94,3.94,0,0,1-2.71-1.89c-1.09-1.46-1-3.5-1.61-4.66-0.73-1.35-1.32-2.19-1.71-3a7.53,7.53,0,0,1-.58-3.28,6.6,6.6,0,0,1,1.59-3.72,6.93,6.93,0,0,1,3.75-2.07,1.68,1.68,0,0,0,.11,1" transform="translate(-366.26 -270.19)"/><path class="cls-3" d="M399.82,292.08l0.44-.38a1.83,1.83,0,0,1,.7,1.38,3.17,3.17,0,0,0-1.13-1" transform="translate(-366.26 -270.19)"/><path class="cls-3" d="M389.18,290.67c-1,.2-3.42,1.13-3.75,3.18a3.28,3.28,0,0,0,.55,2.62s-0.65-3.57,3.46-4l-1.18-.46Z" transform="translate(-366.26 -270.19)"/><path class="cls-3" d="M391.59,293.48a8,8,0,0,0-2.25,3.78,1.48,1.48,0,0,1-.69-0.73,7.58,7.58,0,0,1,2.94-3.05" transform="translate(-366.26 -270.19)"/><path class="cls-3" d="M396,290.47a1.42,1.42,0,0,1-1.1.13c-0.47-.19-0.77-1.36-1.8-1.49a2.61,2.61,0,0,0-2,.37,3.21,3.21,0,0,1,1,.06,3,3,0,0,0-1.62,1.39s0.4-.14.64-0.19a2.51,2.51,0,0,0,1.22.56,1,1,0,0,1-.45-0.79,1.61,1.61,0,0,1,1.27-.48c1,0.13,1.07,1,1.65,1a1.9,1.9,0,0,1-.64.47s1.54-.1,1.82-1" transform="translate(-366.26 -270.19)"/><path class="cls-3" d="M392.93,289.94a1.34,1.34,0,0,0,.16,1.57,1.32,1.32,0,0,1,.65-1.37,1.48,1.48,0,0,0-.81-0.2" transform="translate(-366.26 -270.19)"/><path class="cls-4" d="M369.45,309.53a1.58,1.58,0,0,0-.44-0.62,2,2,0,0,0-.65.49,2.33,2.33,0,0,0-.12,2.34,2.41,2.41,0,0,1,1-1.59c-0.1,0,.3,0,0.15-0.61" transform="translate(-366.26 -270.19)"/><path class="cls-4" d="M371.66,309.36a1.11,1.11,0,0,0-.46-0.61,1,1,0,0,0-.67.51,2.66,2.66,0,0,0-.06,2.42,2.69,2.69,0,0,1,1.22-1.8,1,1,0,0,0,0-.52" transform="translate(-366.26 -270.19)"/><path class="cls-4" d="M380.19,326.44a5.27,5.27,0,0,1,2.19-1.85c-0.18-.79-0.39-1.59-0.91-1.58a2.08,2.08,0,0,0-.64.45,3.21,3.21,0,0,0-.64,3" transform="translate(-366.26 -270.19)"/><path class="cls-4" d="M382.87,327.74a5.51,5.51,0,0,1,2.12-2.07c-0.31-1.07-.78-1.5-1-1.48a1.87,1.87,0,0,0-.77.6,3.18,3.18,0,0,0-.32,2.95" transform="translate(-366.26 -270.19)"/><path class="cls-4" d="M390,323.79a1.86,1.86,0,0,0,.11-1.79,1.89,1.89,0,0,1,1.34,2.08,2.37,2.37,0,0,1-1.45-.3" transform="translate(-366.26 -270.19)"/><path class="cls-4" d="M412,320.56a6.2,6.2,0,0,1-2.84,1,2.52,2.52,0,0,1,.83-1,5.2,5.2,0,0,0,2-.19v0.17" transform="translate(-366.26 -270.19)"/><path class="cls-4" d="M409.94,325.5a3.76,3.76,0,0,1,1.47-1.56,1,1,0,0,0-1-1.15,2.39,2.39,0,0,0-.51,2.71" transform="translate(-366.26 -270.19)"/><path class="cls-4" d="M412.45,326.19a5.14,5.14,0,0,1,1.81-1.82,1.25,1.25,0,0,0-1-1.12,1,1,0,0,0-.5.23,2.88,2.88,0,0,0-.34,2.71" transform="translate(-366.26 -270.19)"/><path class="cls-4" d="M378.89,312.29a1.53,1.53,0,0,1-.1.51,3.08,3.08,0,0,1-1.6,1.76,3,3,0,0,0,.42-1.87,3.42,3.42,0,0,0,1.29-.39" transform="translate(-366.26 -270.19)"/><path class="cls-3" d="M381.4,307.11a6.82,6.82,0,0,1,1,.21,5.37,5.37,0,0,1,1.8-4.14,6.52,6.52,0,0,1,1.61-1.45l0.07,0c-0.05-.11-0.09-0.21-0.15-0.31-0.44-.86-0.8-1.52-1.61-2.88a6.73,6.73,0,0,1-.88-3.56l-0.07.09a14.59,14.59,0,0,0-2.42,8.1,15,15,0,0,0,.58,4Z" transform="translate(-366.26 -270.19)"/><path class="cls-3" d="M409.54,303.06a9.6,9.6,0,0,0-1.61-2.44,3.79,3.79,0,0,0-1-.55,13.33,13.33,0,0,0-6-.12h-0.08a4.69,4.69,0,0,0-1.06-.37h-0.05a3.55,3.55,0,0,0,0-.88,2.48,2.48,0,0,1-1.2.72,8.94,8.94,0,0,0,.15-1.72,5.58,5.58,0,0,1-1.45.83,4.46,4.46,0,0,0,.46-1.73,4.2,4.2,0,0,1-1.1.62l-0.19-.89,0.75-.81v0.64a4,4,0,0,0,1.57-.91,5.68,5.68,0,0,1,0,1.23,5.12,5.12,0,0,0,1.54-1s0.05,0.6.1,1.23a4.85,4.85,0,0,0,2.46-2.34,3.76,3.76,0,0,0,1-.5s-0.25-1.66-.54-2.92h0A14.46,14.46,0,0,1,409.56,303h0Z" transform="translate(-366.26 -270.19)"/><path class="cls-4" d="M384,291a18.66,18.66,0,0,1,2.44-1.87l-0.83-.1-4-4.1h-1.88a23.08,23.08,0,0,0-3.95,4.3l1.24,0.14,4,4,0.14,1.06a19.8,19.8,0,0,1,2-2.59s-1.38-1.4-1.38-1.4a3.89,3.89,0,0,1,.88-0.86L384,291m-3.39-1.71-1.45-1.52,0.69-.68,0.4,0,1.25,1.3a7.57,7.57,0,0,0-.87.86" transform="translate(-366.26 -270.19)"/><path class="cls-4" d="M381.26,294.29a15.57,15.57,0,0,0-1.43,2.81l-3.31-1.15,0.4,1.43s2.51,0.85,2.51.87a17.29,17.29,0,0,0-.64,3.22l-0.87-1.07-7-2.43-1.37.4a27.53,27.53,0,0,1,1.8-5.87l1.3-.49,3,1,0.31,1.14,0.94-.75,3.38,1.11Zm-6.6,1-2.26-.75-0.2.55c-0.07.17-.2,0.61-0.2,0.61l3,1Z" transform="translate(-366.26 -270.19)"/><path class="cls-4" d="M388.61,286l0.31,0.91s1.13,0.56,1.11.56a16.36,16.36,0,0,0-3.77,1.82l0.32-1.41-1.72-4.73-1.25-.86a25.07,25.07,0,0,1,5.44-2.2l1.35,0.3,1.27,3.37L390.72,285Zm0.25-1.72,0.33-.44-0.62-1.69-0.46-.1-0.92.33,0.8,2.26Z" transform="translate(-366.26 -270.19)"/><path class="cls-4" d="M396.64,280.87l2.08,1.14v-2.48a23.84,23.84,0,0,0-6.73,0s0,2.48,0,2.48l2.1-1.11,0,4.89-0.79,1a15.9,15.9,0,0,1,2-.14,20.65,20.65,0,0,1,2.09.15l-0.76-1Z" transform="translate(-366.26 -270.19)"/><path class="cls-4" d="M404.42,288.27l-1.8.14a29.58,29.58,0,0,0-3-1.2l-1.19-1.34,2.09-5.23,1.82-.23a23.65,23.65,0,0,1,3.11,1.22l1.11,1.42Zm-2.05-1.55,1.58-4-1.32-.53-1.58,4Z" transform="translate(-366.26 -270.19)"/><path class="cls-4" d="M409.5,295a16.8,16.8,0,0,0-2-2.81l1.85-1.68-1.6-.38-1.17,1.09a19,19,0,0,0-2.53-2l1.3-.24,4-3.64,0-1.35a28,28,0,0,1,4.44,4.36l-0.12,1.35-1.51,1.43-1.07-.22,0,1.27-1.5,1.5Zm0.92-5.57,1.21-1.17-0.91-1L408.89,289Z" transform="translate(-366.26 -270.19)"/><path class="cls-4" d="M411.42,300.76l4.38-1.48L416.7,295l1.19-.38,0.52,1.49-1.68.57,0.73,2.54,0.76-.8,2.37-.77a27.74,27.74,0,0,0-2.32-6.56l-0.66,1.06-2.75.89-1,4.58-1.37.48L412,296.59l1.54-.53-0.94-2.74L412,294l-2.54.86a16.42,16.42,0,0,1,2,5.88" transform="translate(-366.26 -270.19)"/><path class="cls-4" d="M393.66,290.14a1.47,1.47,0,0,0-.58,1.37,1.29,1.29,0,0,1-.2-1.47h0a1.27,1.27,0,0,0-.92.48,1,1,0,0,0,.45.79h0a2.09,2.09,0,0,0,.75.26,2.35,2.35,0,0,0,1.08-.11h0a2.08,2.08,0,0,0,.66-0.45c-0.48,0-.6-0.52-1.23-0.82v0h0Z" transform="translate(-366.26 -270.19)"/></svg>