<svg id="Layer_1" data-name="Layer 1" xmlns="http://www.w3.org/2000/svg" xmlns:xlink="http://www.w3.org/1999/xlink" viewBox="0 0 112.22 50.99"><defs><style>.cls-1{fill:none;}.cls-2{fill:#fff;}.cls-3{clip-path:url(#clip-path);}.cls-4{fill:#0c2340;}.cls-5{fill:#00471b;}.cls-6{fill:#f9a01b;}</style><clipPath id="clip-path" transform="translate(-343.89 -274.5)"><polygon class="cls-1" points="343.89 325.5 456.11 325.5 456.11 274.5 343.89 274.5 343.89 325.5 343.89 325.5"/></clipPath></defs><title>utah-jazz</title><g id="layer1"><g id="g3286"><g id="g3083"><path id="path3085" class="cls-2" d="M425.3,319.94h-6.67l0-.06L429.07,296h6.81ZM381,311.2l1.74-3.79,0.82,3.79H381Zm61.07,8.74,0-.05L454,292.71l0.57-1.29H399.08l-0.27.47-1.55,2.78L396.5,296h15.91l-9.67,21.81-7.8-25.77-0.2-.65H383.57l-0.24.55L369.38,323.8l-0.57,1.29h6.47l0.23-.58,3.07-7.77h6.3l2.27,7.69,0.2,0.66h66.53l0.24-.56,1.43-3.3,0.56-1.29h-14Z" transform="translate(-343.89 -274.5)"/></g><g id="g3087"><g class="cls-3"><g id="g3089"><g id="g3095"><path id="path3097" class="cls-2" d="M384.09,274.5l-0.24.55c-0.91,2-11.28,25.09-11.39,25.32a4,4,0,0,1-.91,1.2q-0.27-.37-0.56-0.73c-0.17-.22-0.35-0.42-0.53-0.62l0,0-0.28-.31-0.26-.25-0.6-.58h0a15.09,15.09,0,1,0,5.12,11.3c0-.2,0-0.4,0-0.59,1.52-3.39,8-17.66,8.37-18.58s0.49-1.15,2-1.29c0.37,0,2.38-.08,11.52-0.08,5.55,0,11.61,0,12.84,0h4.92l0.24-.56,5.76-13.53,0.55-1.29H384.09Z" transform="translate(-343.89 -274.5)"/></g><g id="g3099"><path id="path3101" class="cls-4" d="M379.57,312.11l3.5-7.62,1.65,7.62h-5.15Zm10.2-19.67H384.1l-13.9,31.71h4.43l3.3-8.35h7.62l2.47,8.35h11.32Z" transform="translate(-343.89 -274.5)"/></g><g id="g3103"><path id="path3105" class="cls-4" d="M425.37,292.34H399.62l-1.55,2.78h15.76l-12.87,29h22l1.45-3.29H412.91Z" transform="translate(-343.89 -274.5)"/></g><g id="g3107"><path id="path3109" class="cls-5" d="M429.68,292.34h-2.36l-12.15,27.17h2.88Z" transform="translate(-343.89 -274.5)"/></g><g id="g3111"><path id="path3113" class="cls-4" d="M448.84,292.35H431.34L430,295.12h7.31l-12.86,29h28.84l1.43-3.3H436.38Z" transform="translate(-343.89 -274.5)"/></g><g id="g3115"><path id="path3117" class="cls-5" d="M453.17,292.34H450.8l-11.88,27.18h2.37Z" transform="translate(-343.89 -274.5)"/></g><g id="g3119"><path id="path3121" class="cls-2" d="M373.51,310.36a14.29,14.29,0,1,1-14.29-14.17,14.23,14.23,0,0,1,14.29,14.17" transform="translate(-343.89 -274.5)"/></g><g id="g3123"><path id="path3125" class="cls-4" d="M354,309.89a13.9,13.9,0,0,0-4.82-9.63c-0.12.1-.33,0.33-0.32,0.32a14,14,0,0,0-4,9.31H354Z" transform="translate(-343.89 -274.5)"/></g><g id="g3127"><path id="path3129" class="cls-4" d="M348.15,319.32l0.66,0.77,0.61,0.59a14.18,14.18,0,0,0,4.61-9.51H345a13.76,13.76,0,0,0,3.19,8.16" transform="translate(-343.89 -274.5)"/></g><g id="g3131"><path id="path3133" class="cls-6" d="M350.1,299.42l-0.08.08-0.07.07,0,0a14.23,14.23,0,0,1,5,10.26h3.5V296.21a13.85,13.85,0,0,0-8.35,3.21m0.09,21.91a14.21,14.21,0,0,0,8.26,3.18V311.1h-3.5a14.25,14.25,0,0,1-4.76,10.23" transform="translate(-343.89 -274.5)"/></g><g id="g3135"><path id="path3137" class="cls-4" d="M369,320.71l0.54-.56s0.23-.23.54-0.57a14.06,14.06,0,0,0,3.42-8.42h-9a14.25,14.25,0,0,0,4.55,9.55" transform="translate(-343.89 -274.5)"/></g><g id="g3139"><path id="path3141" class="cls-5" d="M363.25,311.11h-3.58v13.41a14.25,14.25,0,0,0,8.44-3.08,14.54,14.54,0,0,1-4.87-10.33m5.11-11.53,0.06-.06,0,0-0.12-.1a14.35,14.35,0,0,0-8.57-3.17v13.69h3.58a14.41,14.41,0,0,1,5.1-10.31" transform="translate(-343.89 -274.5)"/></g><g id="g3143"><path id="path3145" class="cls-5" d="M394.05,292.34h-2.38l8.87,29.26,1.41-3.2Z" transform="translate(-343.89 -274.5)"/></g><g id="g3147"><path id="path3149" class="cls-4" d="M384.69,275.43c-0.92,2.07-11.39,25.33-11.39,25.33a5.39,5.39,0,0,1-1.78,2l-0.15.1-0.27-.41a11.42,11.42,0,0,0-1.61-2l-0.23-.24a13.89,13.89,0,0,0-4.84,9.62h9.07c0-.25,0-0.39,0-0.39v-0.1c0.09-.19,8-17.45,8.4-18.52s1-1.72,2.82-1.88c1.66-.13,22.19-0.08,24.44,0l5.75-13.52H384.69Z" transform="translate(-343.89 -274.5)"/></g><g id="g3151"><path id="path3153" class="cls-5" d="M419.21,275.43h-2.37L411.08,289h2.37Z" transform="translate(-343.89 -274.5)"/></g></g></g></g></g></g></svg>