<svg id="Layer_1" data-name="Layer 1" xmlns="http://www.w3.org/2000/svg" viewBox="0 0 71.74 66.09"><defs><style>.cls-1{fill:#e31837;}.cls-2{fill:#002b5c;}</style></defs><title>washington-wizards</title><g id="layer1"><g id="g50141"><g id="g40053"><path id="path40055" class="cls-1" d="M435.79,271.47A3.27,3.27,0,0,0,435,270a0.23,0.23,0,0,0-.34,0,3,3,0,0,1-2.06,1.1l0.15,1,2.8-.41a0.29,0.29,0,0,1,.29.13,0.68,0.68,0,0,0-.05-0.39" transform="translate(-364.13 -266.96)"/></g><g id="g40073"><path id="path40075" class="cls-1" d="M435.05,273.91a0.33,0.33,0,0,1,.13.24c0,0.1,0,.13.15-0.1a3.33,3.33,0,0,0,.54-1.62,0.38,0.38,0,0,0-.44-0.38l-2.63.38,0.13,0.89a3.64,3.64,0,0,1,2.13.58" transform="translate(-364.13 -266.96)"/></g><g id="g49792"><g id="g39961"><path id="path39963" class="cls-2" d="M379.39,300.2v-0.06a22.91,22.91,0,0,1-.14-8.09l0-.1a10.75,10.75,0,0,1-3.86,2.71,24.11,24.11,0,0,0,.25,5.87,36.08,36.08,0,0,0,.88,3.62c1-.79,2.18-1.59,3.35-2.35Z" transform="translate(-364.13 -266.96)"/></g><g id="g39965"><path id="path39967" class="cls-2" d="M374.95,301.45a20.74,20.74,0,0,1-.39-6.47,1.94,1.94,0,0,1-2.2-.34l-0.08-.11s0,0,0,.07a21.72,21.72,0,0,0,.39,10l0.7,2.11c0.74-.66,1.58-1.37,2.5-2.09a33.21,33.21,0,0,1-.9-3.21" transform="translate(-364.13 -266.96)"/></g><g id="g39969"><path id="path39971" class="cls-1" d="M380.52,298.57c0.12,0.56.27,0.4,0.27,0.4a58.41,58.41,0,0,1,11.38-5.5L390.58,289c-1.47.64-2.91,1.29-4.29,2a26.78,26.78,0,0,1,3.11-5.35l-2.28-6.42c-1.47,1.57-8.44,9.58-6.7,18.82Zm32.65-16.79a74.92,74.92,0,0,0-4.91,8.32l11.46-2.22,6.68-8.71c-1.87.29-6.93,1.12-13.24,2.6m-6.68,12-0.11.22c-2.93,6.38-5.23,13.35-5.28,18.16l15.64-20.37Zm-34.63,16.18a47.67,47.67,0,0,0-7.31,11c-0.29.58-.42,0.89-0.42,0.89l7.57-6.36c0.45-.39,2.09-1.72,2.17-1.78,4.34-3.33,9.72-6.13,17.76-8.67,1.51-.52,2.91-0.94,4.15-1.29-0.67-1.94-1.58-4.5-2.54-7.25-7.45,2-15.85,7.76-21.37,13.46M406,279.8l-0.71.59,0.16-.88-0.82-.45,0.94-.12,0.2-.87,0.42,0.8,0.95-.09-0.68.62,0.38,0.82Zm4.88-4.14a27.37,27.37,0,0,1,2.37,1.59,32.59,32.59,0,0,0-1.89-3.67,22.6,22.6,0,0,0-9.72,8.28l5.21-1.07a22,22,0,0,1,4-5.13" transform="translate(-364.13 -266.96)"/></g><g id="g39973"><path id="path39975" class="cls-2" d="M380.92,314.47a1.4,1.4,0,0,0-.46,1,3,3,0,0,0,.23,1.23l0.08,0.05a22.18,22.18,0,0,0,6.62,2.94l0.25,0.07a21.3,21.3,0,0,1-6.72-5.29" transform="translate(-364.13 -266.96)"/></g><g id="g39977"><path id="path39979" class="cls-2" d="M380.34,313.78c-0.5-.62-1-1.25-1.38-1.88-0.76.47-1.47,0.95-2.16,1.44a20.61,20.61,0,0,0,2.79,2.58l0.06,0a3.16,3.16,0,0,1,0-.57,2.33,2.33,0,0,1,.72-1.61" transform="translate(-364.13 -266.96)"/></g><g id="g39981"><path id="path39983" class="cls-2" d="M390.78,313.88l-0.42-.17c-3.46-.84-7.13-0.63-8.72.3a19.29,19.29,0,0,0,11,6.47H393a26.58,26.58,0,0,0,14.8-4.18,28.63,28.63,0,0,0,3.33-2.46,27.88,27.88,0,0,1-20.32,0" transform="translate(-364.13 -266.96)"/></g><g id="g39985"><path id="path39987" class="cls-2" d="M401.56,298.59a20.06,20.06,0,0,1,0-8.72c-2,2.53-4.1,9.35-4.1,9.35-0.46-6.12,1.71-10.57,3.42-14.13-2.79.9-5.94,2-9.25,3.43,1.85,5.22,4,11.2,5.24,14.91l1.54-.43,0-.08a20.34,20.34,0,0,1,1.25-4.47,30.42,30.42,0,0,0,.54,4.12l1.78-.35a82.69,82.69,0,0,1,3.43-8.7,86.41,86.41,0,0,1,6.21-11.37c-0.82.19-2.55,0.6-4.9,1.23a39.32,39.32,0,0,0-5.13,15.21" transform="translate(-364.13 -266.96)"/></g><g id="g39989"><path id="path39991" class="cls-2" d="M430.69,278.17l-1.31-.58a4.13,4.13,0,0,0-1.3,1.87l-0.6.18-2.16,2.79c6.32-1.87,6.87-3.09,7.84-6.29a10.56,10.56,0,0,1-2.46,2" transform="translate(-364.13 -266.96)"/></g><g id="g39993"><path id="path39995" class="cls-2" d="M403.26,285a10.9,10.9,0,0,1,1.91-1.09l-1.88.51a5.3,5.3,0,0,0,0,.58" transform="translate(-364.13 -266.96)"/></g><g id="g39997"><path id="path39999" class="cls-2" d="M405.28,280.39l0.71-.6,0.84,0.42-0.38-.82,0.68-.62-0.95.09-0.42-.8-0.2.88-0.94.13,0.82,0.45Z" transform="translate(-364.13 -266.96)"/></g><g id="g40001"><path id="path40003" class="cls-2" d="M405.66,283.16l1-.36-0.14-1.52-4.28,1.11-0.15.72c-0.11-.34-0.12-0.44-0.22-0.46-0.37,0-.23.34-0.26,0.42a1.33,1.33,0,0,0,.38.9l0,0.62,1.07-.33,0.45-.37,1.88-.39Zm-0.5-.57-1.36-.05,1.46-.51a0.41,0.41,0,0,1-.1.56" transform="translate(-364.13 -266.96)"/></g><g id="g40005"><path id="path40007" class="cls-2" d="M379.58,290.27s0-.08,0-0.13A24,24,0,0,1,390.87,275a22.05,22.05,0,0,0-4.62,1.68,26.66,26.66,0,0,0-5,3.2l-0.19.15a29.37,29.37,0,0,0-5.57,13.66,11.59,11.59,0,0,0,4.07-3.36" transform="translate(-364.13 -266.96)"/></g><g id="g40009"><path id="path40011" class="cls-2" d="M372.93,294a1.66,1.66,0,0,0,1.72,0,31.51,31.51,0,0,1,3.72-11.45l-0.16.19a25,25,0,0,0-5.68,10.62l0,0.09a1.11,1.11,0,0,0,.43.57" transform="translate(-364.13 -266.96)"/></g><g id="g40013"><path id="path40015" class="cls-2" d="M379.69,311.46c0.42,0.62.87,1.24,1.37,1.85,1.33-.88,3.85-1.2,6.51-1l-0.1-.06a19.43,19.43,0,0,1-3.85-2.92c-1.41.68-2.71,1.38-3.92,2.1" transform="translate(-364.13 -266.96)"/></g><g id="g40017"><path id="path40019" class="cls-2" d="M392.64,275.21a11.92,11.92,0,0,0-4.66,3.14l0.8,2.24,0.41-.48s1.75-.53,2.54-0.8l-0.29-2.25,1-1.12Z" transform="translate(-364.13 -266.96)"/></g><g id="g40021"><path id="path40023" class="cls-2" d="M407.15,332.62l-0.7-1.74a1.35,1.35,0,0,0,.79-0.28,2.85,2.85,0,0,0,.6-1.44s0.25-1.29.28-1.5a0.78,0.78,0,0,0-.24-0.79,1.82,1.82,0,0,0-1-.2h-5.29a0.85,0.85,0,0,1,.38.75l-1.21,5.6H402a0.6,0.6,0,0,0,.56-0.2l0.41-1.9h1.59l0.71,2.09h2.29a1.16,1.16,0,0,1-.45-0.41m-0.88-4.08a2.22,2.22,0,0,1-.21.71,0.39,0.39,0,0,1-.32.17H404a1.24,1.24,0,0,0-.75.48l0.36-1.69H406c0.19,0,.27.11,0.26,0.34" transform="translate(-364.13 -266.96)"/></g><g id="g40025"><path id="path40027" class="cls-2" d="M399,326.67h-2a0.65,0.65,0,0,0-.58.26l-2.83,5.48a1.9,1.9,0,0,1-.58.61H395a0.59,0.59,0,0,0,.48-0.33l0.39-.78h2.42l0.13,0.6a0.51,0.51,0,0,1-.35.51h2.49Zm-2.46,3.72,1-2,0.42,2h-1.39Z" transform="translate(-364.13 -266.96)"/></g><g id="g40029"><path id="path40031" class="cls-2" d="M415.54,327.67a0.78,0.78,0,0,0-.24-0.79,1.82,1.82,0,0,0-1-.2H409a1,1,0,0,1,.38.76l-1.06,5a1.4,1.4,0,0,1-.51.64H413a1.91,1.91,0,0,0,1.28-.33,2.8,2.8,0,0,0,.61-1.44l0.56-3c0.07-.32.08-0.44,0.11-0.64m-1.86.88c0,0.13-.52,2.71-0.61,2.82a0.37,0.37,0,0,1-.31.17h-2.47l0.51-2.4c0-.15.11-0.52,0.19-0.93h2.43c0.19,0,.27.11,0.26,0.33" transform="translate(-364.13 -266.96)"/></g><g id="g40033"><path id="path40035" class="cls-2" d="M422.59,326.67h-4.11a3.21,3.21,0,0,0-1.75.34,2.36,2.36,0,0,0-.72,1.46l-0.13.63a1.21,1.21,0,0,0,0,.28,1.11,1.11,0,0,0,.37.85,2,2,0,0,0,1.34.39h2.68c0.36,0,.53.13,0.53,0.37a0.36,0.36,0,0,1-.05.19,0.76,0.76,0,0,1-.82.31H416a0.88,0.88,0,0,1-.57-0.63l-0.33,1.67c-0.05.38,0.21,0.5,0.55,0.5h4.25a3.17,3.17,0,0,0,1.75-.35,2.23,2.23,0,0,0,.69-1.42s0.11-.55.13-0.71a1.24,1.24,0,0,0-1.39-1.46h-2.82c-0.38,0-.58-0.12-0.58-0.36l0-.11a0.56,0.56,0,0,1,.68-0.43h3.68a1,1,0,0,1,.68.58l0.33-1.59a0.43,0.43,0,0,0-.5-0.52" transform="translate(-364.13 -266.96)"/></g><g id="g40037"><path id="path40039" class="cls-2" d="M383.71,326.69a0.56,0.56,0,0,0-.51.16l-2.2,4.46-0.42-4a0.78,0.78,0,0,1,.48-0.6h-1.68a0.74,0.74,0,0,0-.67.29l-2.28,4.32-0.16-4a1.12,1.12,0,0,1,.52-0.57h-1.85c-0.66,0-.65.43-0.65,0.43l0.47,5.91h2a0.53,0.53,0,0,0,.54-0.23l1.86-3.46,0.19,3.69h2.15a0.63,0.63,0,0,0,.58-0.22l2.9-5.49a2.21,2.21,0,0,1,.59-0.64h-1.83" transform="translate(-364.13 -266.96)"/></g><g id="g40041"><path id="path40043" class="cls-2" d="M386.26,332.44s1.07-5.06,1.13-5.29a1.05,1.05,0,0,1,.38-0.45c-0.18,0-1,0-1.73,0,0,0-.37-0.07-0.52.76L384.33,333h2a1.3,1.3,0,0,1,0-.59" transform="translate(-364.13 -266.96)"/></g><g id="g40045"><path id="path40047" class="cls-2" d="M393.89,327.93l0.27-1.25h-5.59a0.76,0.76,0,0,0-.65.65l-0.18.87h0l-0.08.36a1.43,1.43,0,0,1,.75-0.36h2.91L386.92,332l-0.22,1h5.54a0.54,0.54,0,0,0,.63-0.36l0.33-1.6a1.33,1.33,0,0,1-.76.43h-2.69Z" transform="translate(-364.13 -266.96)"/></g><g id="g40049"><path id="path40051" class="cls-1" d="M430.08,270.67c-0.23-.16-0.06-0.48-0.25-0.18l0,0a3.2,3.2,0,0,0-.44,1.31c0,0.52.13,0.74,0.35,0.72l2.73-.4-0.14-1a3.29,3.29,0,0,1-2.22-.49" transform="translate(-364.13 -266.96)"/></g><g id="g40057"><path id="path40059" class="cls-1" d="M434.4,269.85c0.2-.19.38,0,0.25-0.16l-0.08-.06a3.22,3.22,0,0,0-2.15-.65h-0.12l0.27,1.82a3.17,3.17,0,0,0,1.84-1" transform="translate(-364.13 -266.96)"/></g><g id="g40061"><path id="path40063" class="cls-1" d="M431.83,269.06a3.23,3.23,0,0,0-1.5.83,0.39,0.39,0,0,0,.06.63,3.68,3.68,0,0,0,1.86.34L432,269l-0.16,0" transform="translate(-364.13 -266.96)"/></g><g id="g40065"><path id="path40067" class="cls-1" d="M430.83,274.6a0.33,0.33,0,0,1-.35.11,0.38,0.38,0,0,0,.15.14,3.22,3.22,0,0,0,2,.66h0.26l-0.27-1.85a3,3,0,0,0-1.83,1" transform="translate(-364.13 -266.96)"/></g><g id="g40069"><path id="path40071" class="cls-1" d="M433.38,275.42l0.4-.12a3.34,3.34,0,0,0,1-.6,0.36,0.36,0,0,0,0-.6,3,3,0,0,0-1.8-.49l0.27,1.85,0.15,0" transform="translate(-364.13 -266.96)"/></g><g id="g40077"><path id="path40079" class="cls-1" d="M429.65,272.89a0.25,0.25,0,0,1-.24-0.12c-0.06-.08,0,0,0,0.25a3.28,3.28,0,0,0,.73,1.39,0.35,0.35,0,0,0,.43,0,3.26,3.26,0,0,1,2-1l-0.13-.89Z" transform="translate(-364.13 -266.96)"/></g><g id="g40081"><path id="path40083" class="cls-1" d="M402.62,271.24l-5.06,1.36,1.78-3.21-3.09,2.41,0.87-4.85-1.75,4.16-1.72-2.45,0.88,3.72-4-.55,3.45,1.86-1.34,1.51-0.16.73,1.89-.42-0.1,3.57,1.91-3.71,2.22,2.44-1.29-3.38Z" transform="translate(-364.13 -266.96)"/></g></g></g></g></svg>