<?xml version="1.0" encoding="utf-8"?>
<!-- Generator: Adobe Illustrator 13.0.0, SVG Export Plug-In . SVG Version: 6.00 Build 14948)  -->
<!DOCTYPE svg PUBLIC "-//W3C//DTD SVG 1.1//EN" "http://www.w3.org/Graphics/SVG/1.1/DTD/svg11.dtd">
<svg version="1.1" xmlns="http://www.w3.org/2000/svg" xmlns:xlink="http://www.w3.org/1999/xlink" x="0px" y="0px" width="600px"
	 height="600px" viewBox="0 0 600 600" enable-background="new 0 0 600 600" xml:space="preserve">
<g id="Layer_4">
</g>
<g id="Back_Blue">
	<path fill="#21386F" d="M511,297l42-45l-20-93l-90-27l-9,9c0,0-73.667-21.833-138.333-21.833C161,119.167,35.5,191.333,35.5,300.5
		c0,103.837,99.403,182.167,260.167,182.167C443.667,482.667,572,388,572,388L511,297z M220,343.875
		c0,0-51.375-18.749-51.375-42.375c0-29.625,51.375-43,51.375-43V343.875z M313.167,353.452c-10.333,1.532-24,0.881-24,0.881V332h24
		V353.452z M313.167,269.001h-24v-22.333c21.417-0.051,21.029,0.428,24,0.869V269.001z M380.5,339.5V262c52.5,15.5,81.5,43,81.5,43
		S422,328.5,380.5,339.5z"/>
</g>
<g id="H_Stroke_White">
	<g>
		<path fill="#FFFFFF" d="M494.5,306.5c-44.6,29.848-87.081,48.451-133.5,57.191V238.95C448.931,255.53,483,299,483,299l50-52
			l-17-74l-68-19l-9,9c0,0-63.5-25.5-149.875-25.5C151.5,137.5,54.563,217,54.563,301c0,91.5,95.938,162.833,232.354,162.833
			C432,463.833,546.5,383.5,546.5,383.5L494.5,306.5z M289.625,232.625c13.138,0,25.501,0.575,37.125,1.615V284h-51.5v-51.14
			C279.878,232.71,284.656,232.625,289.625,232.625z M149.75,301.25c0-17.895,12.062-54.314,89.25-65.369v129.768
			C148.314,351.061,149.75,301.25,149.75,301.25z M275.25,369.213V316.75h51.5v51.545c-10.561,0.885-21.369,1.33-32.5,1.33
			C287.613,369.625,281.291,369.48,275.25,369.213z"/>
	</g>
</g>
<g id="Red_C">
	<path fill="#BE2F37" d="M442,179l10-11l54,16l12,60l-37,37c0,0-60-62-194.25-62C181,219,136.5,264.125,136.5,299s40,84,155.167,84
		C410,383,491,325,491,325l36,54c0,0-98,71.667-244,71.667C167.5,450.667,68.333,393,68.333,299.5
		c0-85,101.167-148.375,220.417-148.375C389,151.125,442,179,442,179z"/>
</g>
</svg>
