<?xml version="1.0" encoding="UTF-8" standalone="no"?>
<svg width="309px" height="309px" viewBox="0 0 309 309" version="1.1" xmlns="http://www.w3.org/2000/svg" xmlns:xlink="http://www.w3.org/1999/xlink" xmlns:sketch="http://www.bohemiancoding.com/sketch/ns">
    <!-- Generator: Sketch 3.3.3 (12081) - http://www.bohemiancoding.com/sketch -->
    <title>clubflames-x</title>
    <desc>Created with Sketch.</desc>
    <defs></defs>
    <g id="Page-1" stroke="none" stroke-width="1" fill="none" fill-rule="evenodd" sketch:type="MSPage">
        <g id="clubflames-x" sketch:type="MSLayerGroup">
            <circle id="Oval-1-Copy-3" fill="#FFFFFF" sketch:type="MSShapeGroup" cx="154" cy="150" r="134"></circle>
            <path d="M154.390298,308.623988 C69.3034311,308.623988 0.0749151047,239.430325 0.0749151047,154.373422 C0.0749151047,69.3165181 69.3034311,0.11913253 154.390298,0.11913253 C239.477164,0.11913253 308.70568,69.3165181 308.70568,154.373422 C308.70568,239.430325 239.477164,308.623988 154.390298,308.623988 L154.390298,308.623988 Z M154.390298,29.7123976 C85.6236031,29.7123976 29.6799008,85.6339518 29.6799008,154.373422 C29.6799008,223.112892 85.6236031,279.034446 154.390298,279.034446 C223.156992,279.034446 279.100695,223.112892 279.100695,154.373422 C279.100695,85.6339518 223.156992,29.7123976 154.390298,29.7123976 L154.390298,29.7123976 Z" id="Fill-201" fill="#DF9246" sketch:type="MSShapeGroup"></path>
            <path d="M275.510406,184.018807 C274.78043,186.99712 273.942448,189.934482 273.003907,192.823446 C272.746926,193.694602 272.489945,194.576928 272.221791,195.500205 L302.430123,197.823289 C303.484119,194.238145 304.422659,190.60088 305.219674,186.911494 L275.510406,184.018807" id="Fill-202" fill="#F9A61A" sketch:type="MSShapeGroup"></path>
            <path d="M42.3427453,48.4757711 L65.4710584,67.0790602 C69.7615281,62.7121084 74.3648445,58.6578795 79.2549372,54.9536024 L67.7876141,26.7713133 C65.9812966,28.0035904 64.2010496,29.2693735 62.4468732,30.5723855 C62.0371929,30.8813855 61.6051665,31.2164458 61.1619669,31.5552289 C60.104247,32.3630964 59.0614245,33.1895783 58.0223264,34.023506 C57.1359272,34.7345783 56.2197332,35.4828795 55.2811929,36.2609639 C50.733742,40.0806506 46.4209261,44.1646627 42.3427453,48.4757711" id="Fill-203" fill="#F9A61A" sketch:type="MSShapeGroup"></path>
            <path d="M14.7489173,219.937265 L43.5643374,211.426735 C39.988946,204.517048 37.0392481,197.235072 34.7971797,189.651542 L4.61491731,191.453422 C7.06927453,201.360036 10.4770695,210.886916 14.7489173,219.937265" id="Fill-204" fill="#F9A61A" sketch:type="MSShapeGroup"></path>
            <path d="M144.91551,278.636096 C139.98445,278.263807 135.127877,277.62347 130.375585,276.692747 L125.921244,305.950952 C132.442609,307.17206 139.090602,308.009711 145.868948,308.378277 L144.91551,278.636096" id="Fill-205" fill="#F9A61A" sketch:type="MSShapeGroup"></path>
            <path d="M302.627515,197.127108 L272.478772,194.368446 C268.549566,205.924301 262.97419,216.720687 256.024523,226.482108 L283.800845,238.242723 C291.979552,225.674241 298.370564,211.854867 302.627515,197.127108" id="Fill-206" fill="#BF7F3D" sketch:type="MSShapeGroup"></path>
            <path d="M246.646569,70.5785783 L271.648238,54.2648675 C266.013272,47.6790723 259.856895,41.5623614 253.205178,36.0040843 C253.167934,35.981747 253.138139,35.9519639 253.100895,35.9296265 L233.402723,58.0026506 C238.117771,61.8707349 242.546042,66.0701566 246.646569,70.5785783" id="Fill-207" fill="#BF7F3D" sketch:type="MSShapeGroup"></path>
            <path d="M67.8695502,26.7191928 L79.3294245,54.8940361 C84.7521014,50.7951325 90.5248688,47.1466988 96.580688,43.9636265 L86.1226681,16.0828916 C80.0072591,19.1133253 74.1078633,22.5160482 68.4803462,26.3022289 C68.2755061,26.4436988 68.0743903,26.574 67.8695502,26.7191928" id="Fill-208" fill="#BF7F3D" sketch:type="MSShapeGroup"></path>
            <g id="logo" transform="translate(64.000000, 81.000000)" sketch:type="MSShapeGroup">
                <path d="M169.829293,58.8623004 C177.508009,25.880632 154.899335,0.036551106 121.627537,0.036551106 C100.404199,0.036551106 83.3922801,15.2771205 73.1170495,15.7360785 C68.8343841,15.9259921 63.6730202,8.67762163 63.6730202,8.67762163 C57.8625278,13.0298092 62.1135284,21.0299212 62.1135284,21.0299212 C53.5086165,14.6915535 43.8350173,15.6886001 43.8350173,15.6886001 C29.419613,17.0813001 25.8889868,27.4632456 25.8889868,27.4632456 C17.48198,30.5809945 14.5767338,35.043965 14.5767338,35.043965 C9.38370507,38.7789332 6.37554821,38.4149321 6.37554821,38.4149321 C8.34668257,49.2637487 19.6589356,48.7493992 19.6589356,48.7493992 C15.1941975,57.3667305 0.667966372,58.7119521 0.667966372,58.7119521 C5.85307886,67.0206738 18.2023544,66.2926715 18.2023544,66.2926715 C22.4296064,66.7437164 28.1767693,64.4568397 31.0107697,63.1749226 C29.1108811,64.1640562 28.2321827,64.9474499 28.2321827,64.9474499 C22.7779193,68.785288 22.9045785,75.7804404 20.0943267,80.7577603 C19.009807,82.9971586 15.8670747,84.0733359 14.1334264,85.4422967 C16.0095664,86.3760387 18.1548572,87.1673456 20.1734888,87.5313467 C20.1259915,91.0051837 21.8121426,99.4246883 22.9283272,102.779829 C18.8831478,99.7728633 12.6055994,101.125998 12.6055994,101.125998 C19.556025,109.790808 16.2945496,115.132129 19.7776786,123.195545 C20.9571928,127.175819 24.5907296,130.602177 28.2480151,133.031489 C37.7237092,137.296633 44.2624923,131.694181 44.2624923,131.694181 C43.1779726,136.932632 33.3143845,140.881253 33.3143845,140.881253 C35.6259156,143.405522 41.2939164,145.312571 44.682051,145.54205 C58.068349,146.420401 58.7570586,131.852442 73.5920217,133.371751 C82.1969335,134.250102 90.081471,141.482646 104.441462,141.482646 C140.373104,141.482646 163.702152,105.114184 166.528236,85.5451666 L125.807292,85.5451666 C125.807292,85.5451666 120.812168,101.877739 108.708295,101.877739 C96.1769467,101.877739 92.2109294,91.1317928 92.2109294,81.4382842 C92.2109294,66.7120641 104.441462,38.8818031 124.406124,38.8818031 C133.810572,38.8818031 135.259237,49.2004441 131.934432,58.8623004 L169.829293,58.8623004 L169.829293,58.8623004 Z M34.3197422,92.4137098 C31.0424345,91.7490121 29.4037806,89.7470058 27.345568,87.1436064 L27.0843333,86.7004745 C29.5146074,85.9091677 30.9236914,83.1395938 33.0373174,81.8022853 C36.3779548,80.7735864 37.4149773,85.4976882 43.7716877,87.5076075 C45.5924142,88.4096973 46.676934,88.5679586 48.5530739,89.4779615 C44.1595816,92.2475354 40.0748213,94.0517149 34.3197422,92.4137098 L34.3197422,92.4137098 Z" id="Fill-105" fill="#FFC558"></path>
                <path d="M46.9619172,38.1538008 C44.7295482,37.7977128 42.1251177,36.7136224 39.5286033,37.362494 C34.9134574,38.0113656 31.9527977,42.5613799 27.4801435,43.4239043 C22.492936,45.2993015 15.1387841,45.5841719 11.2440126,41.1132884 C11.2440126,40.8996355 10.8798673,40.7492872 10.9511131,40.5356344 C17.2999073,39.8155452 20.6247123,32.6700446 26.8310149,31.5147366 C34.2643288,28.776815 41.8401344,32.0923906 46.5977719,37.6473645 C46.5977719,37.8689304 46.8906714,37.940148 46.9619172,38.1538008" id="Fill-106" fill="#EC2224"></path>
                <path d="M33.1085633,119.057011 C40.7556147,123.456677 46.4552803,114.942215 54.2448233,117.830485 L54.2448233,118.115355 C48.1889286,120.354754 45.5211684,126.993818 39.9639944,129.882088 C37.0745806,131.251049 33.0373174,131.251049 30.2191494,129.73174 C23.4349641,126.060076 21.4163325,117.901703 21.0521872,110.392201 C20.7672039,108.588021 19.9755837,107.005408 19.3977009,105.272446 C26.2531321,107.503931 26.3243779,116.817612 33.1085633,119.057011" id="Fill-107" fill="#EC2224"></path>
                <path d="M166.346164,54.747505 C171.673768,30.9608218 154.131464,4.13552046 121.68295,3.98517216 C101.876612,3.88230227 85.5692357,19.732178 72.6816584,19.732178 C69.4043507,19.732178 66.6495123,17.7301717 64.7179589,15.2771205 C65.2958417,22.3514036 71.8583734,28.2703786 78.1359218,30.6522121 C74.9615247,30.865865 72.2225187,29.6393394 69.4043507,28.9904678 C60.9656791,26.6798519 54.9651977,18.6006092 45.2995148,19.391916 C38.5232456,19.1782632 32.5306805,23.2851456 29.2058755,28.9192502 C30.8761942,27.3999411 32.82358,26.466199 34.9134574,26.0309803 C39.8848324,25.1605428 44.2229113,27.3999411 47.4685542,30.7946474 C51.5058173,37.2121457 55.9863878,43.4239043 62.6201653,47.9027009 C57.8546116,47.9027009 53.6748568,46.0906083 49.4871858,44.6504299 C40.8981063,42.1973787 30.7257864,43.273556 24.2265843,49.414097 C20.9096956,54.8266356 15.3525216,59.2263016 9.21746482,60.5240448 L9.21746482,60.7456107 L11.0223589,61.5369175 C18.0994438,64.5676227 25.8889868,61.6081351 31.8023899,57.9285584 C35.9188151,56.6308152 40.8268605,57.3509044 43.7162743,60.6031755 C45.7349059,64.0611863 49.4871858,67.5271102 52.8040745,70.0513789 C51.9412085,70.4153801 51.0704262,69.6873778 50.0650685,69.6873778 C44.3654029,66.8782386 35.7763234,63.0562266 30.005412,68.318417 C24.5907296,72.4332125 27.3297356,80.377933 21.5588242,84.2711626 C25.6040035,84.6272507 27.9076184,81.6677631 30.2191494,78.7874063 C35.9979771,74.5301756 39.6710949,82.1741995 44.2941571,83.9783791 C49.2022025,86.3602126 55.6934883,85.5689058 59.2320308,90.6174433 C55.4718347,91.3454456 51.648309,91.9943172 48.4026661,93.940932 C43.4233748,97.0428547 36.1325525,97.5492911 30.7257864,94.9538047 C27.9076184,93.4344956 25.9602326,91.3454456 24.0920089,88.7420461 C24.0920089,88.8132638 24.0920089,88.9636121 24.0128469,89.0348297 C24.3769922,99.7174718 28.3430095,111.333856 39.3861117,115.08465 C46.8906714,118.550574 54.9651977,112.91647 62.335182,116.524829 C58.4324943,117.395266 54.8306223,119.492229 52.5190912,122.879023 C48.6955655,127.856342 48.7668114,134.716973 44.0012576,138.974203 C43.1383915,139.76551 41.8401344,140.200729 40.9772683,140.849601 C41.9113802,141.284819 42.8534083,141.498472 43.9300118,141.640907 C49.2022025,142.511345 53.6748568,139.116639 56.6276002,135.144278 C60.8944332,131.037396 67.3540543,128.52104 72.507502,128.869215 C82.9093917,129.565565 90.6593538,137.122545 104.393965,137.170024 C131.744444,137.272894 155.880944,111.21516 161.002727,89.8577888 L128.744203,89.8577888 C128.744203,89.8577888 122.878297,106.198275 108.668714,106.198275 C90.9364208,106.198275 87.8411858,89.6362229 87.8411858,81.4145449 C87.8411858,62.1066584 102.984881,34.5137895 124.374459,34.5137895 C134.515114,34.5137895 140.491847,44.8799089 137.182874,54.7395919 L166.346164,54.747505" id="Fill-108" fill="#EC2224"></path>
                <path d="M68.5494008,143.540044 C68.5494008,141.458907 70.1247251,139.876293 72.1433567,139.876293 C74.1382396,139.876293 75.7135639,141.458907 75.7135639,143.540044 C75.7135639,145.668659 74.1382396,147.227534 72.1433567,147.227534 C70.1247251,147.227534 68.5494008,145.668659 68.5494008,143.540044 L68.5494008,143.540044 Z M72.1433567,147.963449 C74.5419659,147.963449 76.5922623,146.095965 76.5922623,143.540044 C76.5922623,141.007862 74.5419659,139.148291 72.1433567,139.148291 C69.7130826,139.148291 67.6627862,141.007862 67.6627862,143.540044 C67.6627862,146.095965 69.7130826,147.963449 72.1433567,147.963449 L72.1433567,147.963449 Z M71.2092448,143.896132 L72.0958594,143.896132 L73.4336976,146.095965 L74.2965637,146.095965 L72.8558149,143.856566 C73.5999379,143.76161 74.1699044,143.365956 74.1699044,142.455953 C74.1699044,141.458907 73.5761893,141.007862 72.3729265,141.007862 L70.4413732,141.007862 L70.4413732,146.095965 L71.2092448,146.095965 L71.2092448,143.896132 L71.2092448,143.896132 Z M71.2092448,143.239347 L71.2092448,141.664647 L72.2620997,141.664647 C72.7924852,141.664647 73.370368,141.77543 73.370368,142.416388 C73.370368,143.191869 72.784569,143.239347 72.1275242,143.239347 L71.2092448,143.239347 L71.2092448,143.239347 Z" id="Fill-109" fill="#231F1F"></path>
            </g>
        </g>
    </g>
</svg>