<svg xmlns="http://www.w3.org/2000/svg" width="230" height="230" viewBox="0 0 230 230"><path fill="#fff" d="M211.903 109.889l-5.102-2.279c.129-.985.21-2.206.141-3.594-.231-4.646-2.061-9.017-5.287-12.639l-5.253-5.895.23 7.767c-.012.167-.104 1.144-.688 2.639-.477 1.222-1.368 2.999-3.008 5.062l-1.148-.582-2.848-7.397 11.81-24.762.905 4.313 3.779-6.145c.098-.158.972-1.616 1.708-4.084.881-2.951 1.211-6.184.965-9.401l2.577-5.255.342-.696-.055-.773c-.015-.203-1.438-20.307-1.606-23.688-.083-1.656-1.581-4.236-3.643-6.274-1.983-1.96-5.363-4.296-10.202-4.296-1.795 0-3.517.293-5.118.873-1.193.431-2.077.944-2.471 1.253-.382.299-4.993 3.87-11.376 8.812-18.674 14.46-37.021 28.669-41.22 31.953l-.318-.001c-1.75 0-5.391.109-10.108.841-5.491.852-10.842 2.285-15.903 4.26-6.604 2.578-12.639 6.058-17.938 10.346-6.264 5.069-11.55 11.311-15.717 18.559l-57.893 46.52-2.219 1.783 1.761 2.236c.207.263.486.646.811 1.09 1.784 2.444 5.104 6.993 10.359 10.923 6.496 4.858 13.983 7.321 22.254 7.321 2.272 0 4.632-.188 7.014-.562l.043-.007.043-.009 11.189-2.102c.395 1.544.976 3.684 1.764 6.268 2.345 7.689 6.717 19.041 14.224 29.461 4.164 5.779 8.89 10.708 14.045 14.647 6.032 4.609 12.753 7.941 19.976 9.903l6.683 1.815-3.433-6.015c-.039-.07-4.086-7.236-6.852-16.896-1.887-6.589-3.46-15.412-1.983-23.895 1.034 2.532 2.341 5.421 3.925 8.346 2.7 4.985 5.652 9.045 8.776 12.064 4.134 3.996 8.598 6.209 13.268 6.577l7.104.561-4.708-5.313c-.131-.156-3.491-4.188-5.461-11.146-2.245-7.929-1.894-16.328 1.039-25.032.852 1.083 1.868 2.263 3.046 3.443 2.404 2.408 4.997 4.337 7.705 5.731 3.464 1.783 7.112 2.691 10.845 2.698l5.951.013-3.689-4.67c-.979-1.239-1.805-2.875-2.74-4.949-3.211-7.11-4.049-15.396-2.353-22.595l30.786 1.178.638.024.587-.247 14.836-6.238.919-.387.482-.874 9.152-16.569 1.513-2.738-2.855-1.275z"/><path d="M19.26 137.564c2.928 3.719 13.508 21.505 37.734 17.71l13.876-2.606s.728 3.416 2.357 8.759c4.534 14.862 16.869 44.097 46.249 52.076 0 0-16.713-29.287-6.516-51.348 0 0 8.893 31.874 26.374 33.254 0 0-14.95-17.135-2.933-44.218 0 0 7.935 15.123 22.281 15.151-1.193-1.51-2.137-3.403-3.105-5.549-3.207-7.104-4.923-17.153-1.897-26.737l33.063 1.266 14.835-6.239 9.152-16.569-7.207-3.22s2.799-8.356-4.015-16.004c0 0-.029 4.974-5.865 11.241l-4.14-2.099-3.69-9.583 15.448-32.392s1.366 2.702 1.726 4.413c0 0 3.009-4.893 2.185-12.521l2.933-5.98s-1.438-20.297-1.61-23.747c-.06-1.209-3.728-7.839-10.973-7.839-3.477 0-5.627 1.365-5.816 1.514-1.323 1.035-51.827 40.116-53.403 41.4-3.522-.172-39.862-.402-58.722 33.005l-58.321 46.862z"/><path fill="#EFE1C6" d="M50.133 147.531c3.105-.69-3.22-2.875-4.36-8.778 1.715 1.342 8.347 3.833 9.842 2.606 1.121-1.121-2.415-4.888-1.035-13.34 1.432-8.772 6.382-10.178 3.91-11.615-2.76-.46-28.405 20.7-28.405 20.7l4.025 6.67c-.001 0 13.493 5.022 16.023 3.757z"/><path fill="#8E0028" d="M191.502 128.45l8.208-3.44-2.387-5.558-5.821 8.998zM130.135 155.543c-.191 1.265 1.495 1.955 2.108.498s3.986-11.116 5.29-11.231c.498-.044 1.108 2.756 2.836 5.597 2.795 4.592 8.089 10.12 11.041 10.12 1.308 0 1.523-.178 1.523-.178l-3.206-4.743-9.358-25.977-5.75 8.625-4.484 17.289zM117.638 137.564s12.717 47.461 11.894 46.493c-13.444-15.814-14.04-33.345-14.04-33.345s-8.679 10.3-8.929 27.446l-3.089-.23 6.422-25.989 7.742-14.375z"/><path fill="#EFE1C6" d="M200.601 110.108s1.955-6.785-.229-11.644c-1.208 4.198-3.68 6.9-5.765 8.769l-7.432-3.608 15.064 9.751-9.085 2.146-8.318-2.99s1.63-8.817-.508-11.869c-.118.676-.628 1.674-.905 2.343-1.609 3.882-5.089 7.058-5.089 7.058l-8.026-2.899-6.593-17.288 24.111-38.947s2.664 2.683 3.986 5.941c1.61-5.021-.728-11.308-.728-11.308l2.875-4.639 6.995-5.079 1.284 6.383-11.5 31.893 9.124-19.665s.445.403 1.073 1.304c.655.941 1.504 2.408 1.955 3.603 1.073-2.722-.422-10.043-.422-10.043l2.645-4.869-3.22-11.883-12.219 8.438-36.023 41.098s-8.166 3.161-13.829 7.446c-1.21.916-2.25 1.94-3.134 2.933 0 0 9.507 1.802 10.351 8.165 0 0-3.075 1.801-7.629 5.232-16.577 12.494-53.422 45.472-38.908 81.631 2.643 6.585 7.028 13.173 13.513 19.876 0 0-18.304-30.992 3.699-66.173.008.817-.069 33.134 14.433 45.722-10.369-24.495 7.656-53.676 7.656-53.676-3.286 15.055 13.13 27.087 13.13 27.087-7.695-16.229-1.121-31.236-1.121-31.236l34.909 1.39 4.78-2.052 6.004-5.912 2.204 2.472 6.756-12.199-5.864-2.702zm-42.023-20.652l10.963-13.493-7.867 13.417 6.487 17.71-9.583-17.634z"/><path fill="#8E0028" d="M203.821 24.75c-1.064 1.322-2.655 6.842-2.655 6.842s-.162-4.571-2.318-7.446c-2.026-2.7-4.543-.345-6.297-2.846-.803-1.144-.776-2.817-.776-2.817l-4.888 3.68s-1.322 5.29-1.034 11.787c0 0-2.933-2.3-4.601-6.842 0 0-1.149 2.645-1.207 12.42 0 0-3.163-2.875-5.003-7.533 0 0-1.438 6.095-1.265 13.513 0 0-2.76-2.07-5.578-8.28 0 0-1.38 7.245-1.265 14.893 0 0-4.485-4.082-6.21-9.603 0 0-21.477 16.445-22.972 17.595-1.494 1.15-10.781 11.27-13.139 22.167 0 0-.259-5.376.499-10.494 0 0-9.147 6.507-14.284 12.104 0 0-.129-6.891 3.694-12.65 0 0-1.358.874-3.062 2.214-1.074.845-2.115 1.786-3.58 3.09-3.68 3.277-8.203 7.543-11.011 10.422 0 0 7.676-14.49 19.367-22.751 0 0-30.034 6.689-40.556 39.742-.288-.316.518-7.619.518-7.619l-51.405 40.806c11.73 16.177 31.05 13.953 33.197 13.57 6.388-1.141 26.287-4.265 26.287-4.265s-3.249-8.223-2.559-13.656c0 0 2.185 10.608 9.698 17.192l-16.407 2.262s.871 3.348 2.338 8.289c3.704 12.478 13.176 35.967 36.666 46.854 0 0-1.983-2.058-4.84-5.468-8.082-9.647-21.896-31.672-7.791-60.562-11.27 2.684-12.957-4.983-12.957-4.983 15.027 10.503 47.859-33.369 39.838-43.776 0 0 13.714-11.126 23.432-12.506l37.979-39.086 11.49-6.406 3.948 9.852-1.291-19.705zm-147.402 122.015c-1.36.266-3.441.387-4.216.383-4.856-.024-16.072-1.685-20.278-9.046l40.097-32.162c-27.37 26.986 2.491 35.765 6.287 37.03-.001 0-17.462 2.932-21.89 3.795zM179.01 91.104l5.059-7.417-2.759 7.475 2.702 6.957z"/><path fill="#EFE1C6" d="M118.189 68.306s3.876-.949 9.319-.69c.369-1.093-1.385-1.323-2.765-1.323 2.199-1.581 5.678-2.674 5.678-2.674l1.897-2.242c-5.691.46-14.129 6.929-14.129 6.929z"/></svg>