<svg xmlns="http://www.w3.org/2000/svg" width="232.568" height="144.898" viewBox="0 0 232.568 144.898"><g><g><path fill="#fff" d="M63.471 138.03c-9.528 0-18.024-.66-25.255-1.966l-3.521-.634 2.997-1.953 6.663-4.343c-3.881-.446-9.887-1.542-15.951-4.229-9.366-4.152-20.53-13.003-20.53-31.589 0-13.323 5.616-25.858 16.696-37.259 9.77-10.055 23.565-19.036 41-26.696 30.46-13.381 70.5-21.693 104.492-21.693 9.871 0 18.688.714 26.207 2.124l3.504.657-2.994 1.934-6.645 4.289c3.836.507 9.8 1.697 15.822 4.475 9.256 4.27 20.291 13.216 20.291 31.58-.043 13.425-5.749 26.009-16.96 37.406-9.863 10.023-23.776 18.96-41.353 26.553-30.471 13.166-70.5 21.344-104.463 21.344z"/><path fill="#8E8E91" d="M170.062 9.089c9.637 0 18.453.695 25.946 2.1l-10.113 6.528s38.932.914 38.932 35.008c-.177 55.235-99.256 83.885-161.357 83.885-9.32 0-17.808-.646-25.002-1.943l10.198-6.646s-39.372-.202-39.372-34.704c-.001-54.775 98.005-84.228 160.768-84.228m0-2.841c-34.178 0-74.435 8.358-105.063 21.813-17.604 7.734-31.549 16.821-41.449 27.007-11.346 11.674-17.098 24.542-17.098 38.248 0 15.315 7.391 26.688 21.376 32.887 4.498 1.995 8.97 3.136 12.611 3.788l-3.523 2.295-5.994 3.907 7.041 1.271c7.315 1.32 15.897 1.987 25.507 1.987 34.146 0 74.389-8.224 105.027-21.462 17.746-7.668 31.81-16.705 41.802-26.861 11.481-11.67 17.325-24.588 17.369-38.393 0-15.14-7.303-26.506-21.118-32.879-4.481-2.068-8.938-3.279-12.555-3.987l3.554-2.292 5.989-3.866-7.008-1.313c-7.604-1.428-16.509-2.15-26.468-2.15z"/></g><g fill="#231F20"><path d="M181.8 14.166s-5.006-.812-14.611-.812c-50.823 0-152.416 26.502-152.416 78.948 0 28.615 28.21 32.065 43.635 32.065 26.654 0 58.45-10.045 71.235-17.25 0 0-47.693 18.941-88.013 5.275 7.923 1.271 26.113-1.218 33.292-4.261 0 0-20.066-3.314-20.066-23.948 0-51.504 114.162-70.017 126.944-70.017zM69.468 85.908c5.311-9.64 5.446-15.728 11.535-22.899 10.565-12.003 43.972-21.09 62.136-21.09 18.336 0 24.761 11.835 24.862 19.297 0 21.174-44.153 38.424-44.075 38.424 42.586-28.649 41.099-45.037 16.55-45.037-20.296.001-57.918 13.344-71.008 31.305z"/></g><path fill="#E13A3E" d="M52.386 131.673s5.006.813 14.612.813c50.823 0 152.417-26.504 152.417-78.947 0-28.616-28.21-32.066-43.636-32.066-26.654 0-58.449 10.047-71.235 17.25 0 0 47.694-18.942 88.013-5.276-7.924-1.269-26.113 1.217-33.292 4.262 0 0 20.066 3.314 20.066 23.948.001 51.503-114.162 70.016-126.945 70.016z"/><g><path fill="#E13A3E" d="M158.09 62.096c-3.042-8.465-26.742-7.395-48.894.27-23.808 8.556-40.655 22.137-37.612 30.601 3.042 8.466 26.738 7.792 48.615-.163 23.807-8.555 40.932-22.243 37.891-30.708z"/><ellipse transform="matrix(.949 -.316 .316 .949 -18.724 40.127)" fill="#231F20" cx="114.204" cy="77.722" rx="19.101" ry="6.297"/></g></g></svg>