<?xml version="1.0" encoding="UTF-8" standalone="no"?>
<!-- Created with Inkscape (http://www.inkscape.org/) -->
<svg
   xmlns:svg="http://www.w3.org/2000/svg"
   xmlns="http://www.w3.org/2000/svg"
   version="1.0"
   width="300"
   height="200"
   id="svg10174">
  <defs
     id="defs3" />
  <g
     transform="translate(-36.682613,-23.205721)"
     id="layer1">
    <g
       transform="translate(10.000002,7.5264784)"
       id="g10241">
      <path
         d="M 311.36891,26.308565 C 312.39179,30.645526 311.01166,34.148444 309.23701,37.887673 C 308.94121,42.488736 315.27545,41.196001 316.43381,45.060341 C 317.93717,54.776774 312.28083,62.533262 308.7688,70.428741 C 306.3411,74.69619 302.20054,78.491035 298.71302,82.23028 C 298.34335,84.857452 301.80619,84.648966 303.24793,85.886101 C 303.9997,86.358721 304.78839,87.137131 305.20742,87.859974 C 304.17227,92.780755 299.32914,95.699853 295.76776,98.757959 L 289.31046,102.7891 C 288.87918,103.12273 289.50755,103.78996 288.91611,103.83166 C 290.03754,105.12439 292.78555,106.20864 291.63961,108.65512 C 288.12742,112.89476 283.38299,115.73047 278.89744,118.9832 C 274.44865,121.86059 269.60568,123.79276 264.97222,125.75272 C 263.94933,126.12804 263.53031,127.26789 264.23271,128.0324 C 265.23092,128.93596 265.46511,130.32599 265.02141,131.66045 C 262.26114,136.19202 256.62931,138.33269 251.78634,140.27875 C 247.37465,141.86341 242.90135,143.15615 238.25547,144.2265 C 237.55306,144.3377 237.15871,145.29684 237.29436,145.89455 C 237.84886,147.14562 239.16739,148.56346 238.39111,150.24541 C 233.84378,155.06889 226.64714,156.05582 220.16501,156.75086 L 211.35405,157.16788 C 210.02311,157.61269 210.56535,159.05834 210.97196,159.79507 C 211.46485,160.72639 211.55114,161.71334 211.34163,162.76976 C 209.38231,166.3144 205.1432,166.34221 201.63101,166.95382 L 191.0454,167.37083 C 189.02448,168.83038 190.99605,171.61048 188.93819,173.16734 C 183.92264,175.96134 177.82259,175.09952 172.05545,175.47482 C 169.50453,177.25407 168.37068,180.3956 166.07863,182.50848 C 149.15895,202.4279 122.92284,211.99143 96.009002,206.72315 C 67.209713,200.84322 42.649701,176.62856 37.695763,148.73026 C 36.59901,141.61321 36.167729,133.68992 37.560118,126.35046 C 38.053011,118.13526 40.92441,109.78106 44.670628,102.5111 C 54.578504,81.924458 76.94501,67.203837 99.66893,64.743447 C 107.05056,63.770397 115.40573,63.895508 122.86123,65.07706 C 126.57051,62.630566 129.14611,57.890496 132.74443,54.73507 C 142.81246,44.393097 157.46476,40.959691 171.50078,39.52795 C 191.37814,39.611324 210.79954,43.976109 230.35643,44.323602 L 238.88401,44.754519 C 238.92094,45.157645 239.01948,45.352251 239.40158,45.393955 L 239.72206,45.143732 L 239.56173,44.824031 C 255.40933,44.768415 270.61614,41.696397 284.28265,34.607153 C 291.4301,32.216274 297.78885,27.990513 304.04905,23.931583 C 306.25481,22.597112 311.24569,22.944638 311.36891,26.308565"
         id="path718"
         style="fill:#e41837;fill-rule:nonzero;stroke:none" />
      <path
         d="M 305.99611,29.658581 C 303.75325,39.361135 297.76417,47.479028 290.99882,54.415353 C 285.5765,59.155439 278.78647,63.547999 272.08273,66.467098 C 286.24197,64.646143 299.21834,55.013085 309.39717,45.588562 C 309.80394,45.338339 310.22297,45.185436 310.56796,45.51905 C 311.78793,47.020303 310.88844,48.994177 310.87602,50.87073 C 309.49588,57.320572 306.9819,63.242177 303.64228,68.593874 C 298.294,75.293922 291.81202,80.603899 284.39346,85.608087 C 288.02887,86.497728 291.67655,86.497728 295.09003,87.651456 C 295.36115,87.87387 295.9034,88.332595 295.7555,88.819112 C 294.80665,91.265589 292.23105,92.26643 290.24706,94.212496 C 284.51668,98.11854 277.57875,101.21835 271.45419,104.09574 C 274.76913,105.2495 278.21954,105.23559 281.28803,106.83415 C 281.55916,107.16776 281.46061,108.04351 281.14013,108.30759 C 272.02112,115.18835 260.64665,121.15168 249.38332,124.26538 L 255.2245,127.74049 C 255.55723,128.07411 255.2245,128.63013 255.2616,129.04716 C 245.3413,134.35713 235.06375,138.16589 223.92365,139.23621 L 223.3814,139.66713 C 225.85845,141.51591 228.03953,144.1153 229.86337,146.26987 C 229.92498,147.65992 227.91631,148.03523 226.69633,148.29934 C 217.23216,150.21762 207.0409,150.70413 196.83723,149.30017 L 196.52917,149.55039 C 198.10656,152.28878 201.88988,154.56848 203.04824,157.55709 C 203.14679,158.34941 202.25955,158.44672 201.74197,158.59962 C 194.90259,160.01748 187.49628,159.30855 180.38577,158.54402 C 180.12706,160.9905 182.19735,162.86707 181.43333,165.34135 C 177.34195,166.77311 172.47431,165.28575 168.19827,165.68888 C 164.57527,170.91545 161.54372,176.21154 156.82397,180.71532 C 142.11006,195.56105 121.87544,201.55215 100.43311,198.53576 C 76.760176,195.28304 56.081861,178.18542 47.529606,156.18093 C 40.616352,138.11029 42.797437,114.32654 54.171901,98.424345 C 66.457952,80.353709 87.875772,68.093462 110.3655,69.553028 C 115.80008,69.344509 121.76448,70.581644 126.60745,71.40179 C 131.84477,62.018938 140.10138,53.067019 150.98279,49.133184 C 163.93448,44.01778 178.30323,43.114259 193.37455,44.93523 L 228.13824,48.396445 C 239.0811,49.299982 249.28477,48.730058 259.57458,47.284421 C 276.18619,45.824872 290.72769,36.97024 304.81307,27.754202 C 305.90982,27.684707 306.27949,28.713356 305.99611,29.658581"
         id="path720"
         style="fill:#ffffff;fill-rule:nonzero;stroke:none" />
      <path
         d="M 237.42984,60.837403 L 223.92365,60.072872 L 184.34166,56.47265 C 166.3004,55.70812 146.33691,61.031993 136.93435,77.045381 C 135.43083,77.267796 134.07537,76.044557 132.65814,75.502424 L 132.74443,74.626695 C 151.78374,42.516544 192.45021,53.414528 225.30378,55.596904 C 244.13375,56.250236 264.13417,57.807088 280.97997,49.800411 C 286.43923,47.534627 291.38074,44.615512 296.27307,41.223793 C 281.92883,58.265813 259.35281,62.116241 237.42984,60.837403"
         id="path722"
         style="fill:#e41837;fill-rule:nonzero;stroke:none" />
      <path
         d="M 262.8279,90.959784 C 252.71068,93.503565 242.12507,93.934482 231.24367,93.447966 C 229.77725,92.516636 227.73148,92.183023 227.04149,90.431564 L 225.05733,89.625329 C 226.47457,89.375123 228.96387,89.958943 230.22078,88.415986 C 232.66074,88.568905 235.1994,88.84692 236.92469,87.373441 L 236.48099,86.052916 C 238.25547,85.052058 241.53347,86.692335 241.85395,83.662021 C 244.31858,83.731516 246.85708,84.00953 249.44493,84.482151 C 250.62797,84.412656 250.43088,82.71678 251.84795,83.272808 C 253.05567,83.801028 254.2879,83.342303 255.16289,82.549965 C 257.60284,82.814083 260.20311,83.397903 262.11324,82.119064 L 262.19953,81.243335 C 265.52672,80.603899 268.11458,82.174664 271.25693,81.229439 C 272.34143,78.602234 275.90281,82.035673 276.76554,78.782944 C 278.54002,78.574426 281.12788,79.352868 282.10141,77.587497 C 282.02754,77.281691 281.96593,76.975886 282.10141,76.600568 C 288.5958,74.849109 295.04067,70.817954 300.40138,66.675617 C 292.89652,79.742082 276.80248,87.359546 262.8279,90.959784"
         id="path724"
         style="fill:#e41837;fill-rule:nonzero;stroke:none" />
      <path
         d="M 289.74174,68.871888 C 278.03471,74.9881 265.05851,76.822966 251.82327,77.948919 L 242.26055,78.101805 L 207.32428,75.307818 C 206.893,75.544128 206.26447,74.9881 205.67303,75.127107 C 193.85503,75.029803 181.40865,70.734563 170.26855,73.848252 C 155.87512,77.518002 143.60116,89.097109 141.08717,104.08187 C 139.63317,116.52281 137.23015,130.7291 125.30118,136.24762 C 125.05474,134.84365 126.63213,134.81586 127.03873,133.87063 C 134.3094,127.57371 136.95903,118.60788 137.13144,107.79329 C 137.08225,92.822459 145.85627,80.854121 158.00701,74.11237 C 164.90801,70.623348 172.0061,67.648633 179.69578,67.593033 C 184.84681,66.369794 190.99605,67.829344 196.4553,68.218557 C 196.44304,68.413163 196.64014,68.427076 196.714,68.55217 L 197.244,68.301964 C 220.10339,72.750124 243.17247,74.251377 265.85946,74.737894 C 272.19353,74.445984 278.29358,72.736228 284.18394,70.92917 L 284.98506,70.998665 C 286.25439,69.970016 288.17677,69.580803 289.74174,68.871888"
         id="path726"
         style="fill:#e41837;fill-rule:nonzero;stroke:none" />
      <path
         d="M 271.04759,72.360911 L 270.86259,72.138496 L 271.05984,72.152409 L 271.04759,72.360911"
         id="path728"
         style="fill:#ffffff;fill-rule:nonzero;stroke:none" />
      <path
         d="M 230.30707,82.119064 C 223.22124,85.691494 214.74285,86.734039 206.20285,86.511624 L 201.24892,85.872205 C 199.52379,84.593366 197.58899,83.314512 196.17175,81.785451 C 197.18238,81.590844 198.29139,81.326742 199.06783,80.520524 C 200.46039,81.368429 202.14858,82.132977 203.73822,81.910562 C 204.42837,80.103503 205.43884,81.688147 206.51091,81.715955 C 208.22395,82.397078 210.10939,83.981739 211.98242,83.092097 L 212.46306,82.258071 C 214.12674,82.355375 216.76395,84.509959 217.81134,82.049569 C 219.72147,82.549965 222.24771,84.801852 223.6772,82.397078 C 225.0204,81.952266 226.90585,83.425711 227.79309,81.743747 L 230.30707,82.119064"
         id="path730"
         style="fill:#e41837;fill-rule:nonzero;stroke:none" />
      <path
         d="M 192.83231,84.370952 C 191.982,85.955596 189.73914,85.899996 188.17417,86.525536 C 180.80479,88.290891 172.62221,88.388195 164.76011,87.331754 C 164.82172,86.747918 165.22832,85.816605 164.90801,85.191065 C 166.4483,84.468255 168.19827,84.662845 169.62776,83.342303 C 169.78791,82.758483 169.3197,82.605597 168.95003,82.285879 C 169.64001,81.368429 170.9587,82.007865 171.88287,81.618652 C 173.13978,80.854121 175.48119,82.007865 175.70312,79.867193 C 178.20468,78.643937 181.16221,79.366764 183.87328,79.964496 C 184.9331,78.213037 186.8308,79.783785 188.07546,80.214702 C 189.71446,81.465733 191.6862,82.369287 192.83231,84.370952"
         id="path732"
         style="fill:#e41837;fill-rule:nonzero;stroke:none" />
      <path
         d="M 286.32826,94.003994 C 276.05071,100.74573 264.39304,104.61007 252.3902,106.36153 C 244.23229,107.36237 235.65536,107.32067 227.32487,107.00096 L 222.91318,105.83332 C 223.62784,104.65177 222.23529,103.99846 221.36047,103.70655 L 218.88342,103.13662 C 221.2495,102.12187 224.53976,103.55365 226.42521,101.59367 C 226.43763,100.60672 227.596,100.74573 228.22437,100.50942 C 231.24367,99.953423 234.63247,100.41212 237.77483,100.46771 C 238.48966,100.2314 238.48966,99.355691 238.35418,98.744063 C 240.1164,98.841367 241.74298,100.18972 243.57908,99.605897 C 243.80101,99.327883 243.76391,98.841367 243.81327,98.452153 C 245.51388,98.049028 247.79367,99.772712 248.95204,98.229739 C 250.28298,97.673711 251.72473,98.910862 253.0926,98.188035 C 253.00631,95.310624 256.24738,97.145507 257.65219,96.895301 C 259.71022,97.117715 261.86679,98.924774 263.78917,97.548632 C 264.04788,96.895301 263.20999,96.603391 263.04967,96.116858 C 265.48979,95.477455 267.62168,96.700694 270.00002,96.464384 C 270.70243,96.339273 270.61614,95.352327 270.38211,94.83802 L 270.20954,94.615622 C 271.8116,94.282008 273.52447,95.07433 275.00332,94.045698 C 277.46795,94.907531 279.24243,93.030961 281.57158,93.378454 C 282.7422,91.640907 284.9357,93.253376 286.69793,93.253376 L 286.32826,94.003994"
         id="path734"
         style="fill:#e41837;fill-rule:nonzero;stroke:none" />
      <path
         d="M 139.65768,84.537734 C 139.47285,85.399584 138.91834,85.913909 138.35142,86.636735 C 135.76356,85.969508 133.80425,84.092938 131.3272,83.231104 C 108.39376,74.056771 83.365371,80.701202 67.419226,96.895301 C 64.794439,100.25921 61.799816,103.48413 59.544699,107.07046 C 59.00245,106.51443 58.226177,106.44494 57.449738,106.34763 C 68.331144,86.650631 91.190708,74.849109 114.22269,76.642256 C 123.58831,77.462402 132.28847,79.894984 139.65768,84.537734"
         id="path736"
         style="fill:#e41837;fill-rule:nonzero;stroke:none" />
      <path
         d="M 291.66412,93.878882 L 292.04621,93.920586 L 291.66412,93.878882"
         id="path738"
         style="fill:#ee2b3d;fill-rule:nonzero;stroke:none" />
      <path
         d="M 224.82331,97.187211 C 221.22483,98.771871 217.08426,98.716255 213.19014,99.272284 C 204.15725,100.0785 193.84277,99.647601 184.89617,96.811893 C 184.89617,95.032626 181.86461,95.797157 182.38218,93.767683 C 181.72913,92.433229 180.11481,92.85025 179.35063,91.766002 C 181.45801,91.418492 184.53875,92.822459 185.95599,90.62617 C 187.63192,90.695682 189.65285,91.126599 191.27959,90.612274 L 191.8341,89.097109 C 203.3563,88.179692 216.14766,90.139654 224.82331,97.187211"
         id="path740"
         style="fill:#e41837;fill-rule:nonzero;stroke:none" />
      <path
         d="M 179.99142,98.535561 L 179.94223,98.924774 C 171.22966,102.21917 161.16162,102.4138 151.40182,100.66234 C 151.78374,99.925598 152.2397,99.286179 151.54955,98.507753 C 152.33825,96.631182 156.89784,96.436576 155.5177,93.628676 C 156.83622,92.196919 159.52262,92.975361 160.34842,90.792985 C 168.02569,90.751282 174.55702,94.115193 179.99142,98.535561"
         id="path742"
         style="fill:#e41837;fill-rule:nonzero;stroke:none" />
      <path
         d="M 283.66637,108.57171 L 284.30717,108.04351 L 284.07314,108.51613 L 283.66637,108.57171"
         id="path744"
         style="fill:#ee2b3d;fill-rule:nonzero;stroke:none" />
      <path
         d="M 218.07021,108.47441 C 208.85232,115.34126 195.91305,113.95122 184.51408,111.92174 C 182.83814,111.05989 180.52141,110.61508 179.85594,108.65512 C 179.53563,107.94621 178.78386,107.65428 177.99517,107.57089 C 178.80854,106.38934 177.66243,105.17999 176.6273,104.66567 C 178.20468,103.85945 181.14995,104.76297 182.77653,103.47024 L 182.87507,102.49719 C 194.60679,101.49636 208.48265,101.52417 218.07021,108.47441"
         id="path746"
         style="fill:#e41837;fill-rule:nonzero;stroke:none" />
      <path
         d="M 132.99087,97.896125 C 133.37297,99.008182 132.90458,100.53723 132.89233,101.62148 C 125.84343,97.604232 116.99537,94.573918 107.80233,95.060434 C 102.04744,95.421856 96.649795,97.0065 91.658924,99.619776 C 91.634246,99.814416 91.794569,99.091573 91.326188,99.828295 L 91.01813,100.0368 C 78.017251,107.29287 69.994823,120.51224 70.869642,136.0669 C 71.461246,149.71719 80.432526,163.29798 92.780354,169.3586 C 105.81833,176.16985 122.91059,174.7798 134.27246,166.1615 L 139.44817,161.99135 C 140.59428,162.31104 141.83893,162.65856 142.41811,163.60381 L 142.02377,164.63244 C 129.29401,177.53208 110.43953,180.81262 93.655339,173.98747 C 80.728328,168.83038 69.957889,155.4581 67.776639,141.83561 C 64.683471,125.94733 71.485923,109.44744 84.326645,99.911719 C 97.894449,89.263908 118.81921,88.763512 132.99087,97.896125"
         id="path748"
         style="fill:#e41837;fill-rule:nonzero;stroke:none" />
      <path
         d="M 270.76404,112.29706 C 257.46736,120.41494 242.74119,124.62679 226.77037,123.97347 C 220.79354,123.72325 215.14962,123.90396 209.27134,122.77803 C 206.67123,121.31846 204.44063,119.20561 202.07471,117.46803 C 204.36676,116.14749 207.8296,117.00931 210.63922,116.52281 C 211.04599,114.60453 213.0916,115.60537 214.11432,114.53504 C 218.99439,113.00598 225.30378,113.77051 230.30707,114.91034 C 230.77529,115.06324 231.10802,114.79916 231.44076,114.53504 C 231.35447,113.45079 231.90914,112.81135 232.88267,113.01987 L 241.12687,114.10412 C 242.87667,114.31262 241.3117,111.47692 243.38198,112.28315 C 245.05792,112.38045 247.38707,113.50639 248.71785,112.18585 C 250.67733,112.28315 253.03099,113.32568 254.79322,112.53337 C 255.03966,111.97734 254.31258,111.50472 254.05388,111.18501 C 255.76675,110.67068 258.69976,112.76968 259.9936,110.74019 C 261.91598,110.35096 263.65353,112.40826 265.13237,110.61508 C 267.0425,111.1989 269.19907,111.2406 270.76404,112.29706"
         id="path750"
         style="fill:#e41837;fill-rule:nonzero;stroke:none" />
      <path
         d="M 277.32005,112.61675 C 277.60343,112.74186 277.11053,112.78356 277.01199,112.78356 L 277.24601,112.50556 L 277.32005,112.61675"
         id="path752"
         style="fill:#ee2b3d;fill-rule:nonzero;stroke:none" />
      <path
         d="M 173.25075,112.58897 L 173.57107,113.20058 C 169.06083,115.85558 163.60174,116.16139 158.36426,116.3838 C 154.23612,116.4255 149.78733,116.4394 145.81934,114.93813 C 146.76819,113.46468 144.55001,112.13025 146.52175,111.17111 C 147.17496,110.5456 148.0251,110.04517 148.12381,109.07212 L 147.24883,108.09911 C 148.2101,107.40407 149.59024,106.48664 149.34379,105.1661 C 152.48615,104.23475 156.31865,105.3329 159.62133,105.68042 C 164.6985,107.02876 169.30728,109.09993 173.25075,112.58897"
         id="path754"
         style="fill:#e41837;fill-rule:nonzero;stroke:none" />
      <path
         d="M 117.30343,100.91254 L 117.94423,110.53167 L 117.6731,111.1989 C 113.80366,110.57338 109.3181,110.19808 105.42399,110.75409 C 105.4856,107.32067 105.65801,103.01151 106.79186,99.786591 C 109.92196,99.035973 113.6435,99.327883 116.99537,100.18972 L 117.30343,100.91254"
         id="path756"
         style="fill:#e41837;fill-rule:nonzero;stroke:none" />
      <path
         d="M 130.29205,105.56921 L 130.21819,106.15304 L 121.87544,112.33875 C 120.96353,112.72798 121.11143,111.37961 120.97578,110.75409 C 120.91417,107.61259 120.67998,104.33205 120.60611,101.37127 C 122.20818,101.05155 123.69928,101.99679 125.11635,102.53889 C 126.87857,103.42853 128.6408,104.41546 130.29205,105.56921"
         id="path758"
         style="fill:#e41837;fill-rule:nonzero;stroke:none" />
      <path
         d="M 103.08258,101.44076 L 101.77631,111.54643 C 101.09842,112.44996 100.11263,111.46302 99.484095,111.00429 L 92.472296,104.73518 C 94.444033,102.88642 97.118176,101.98286 99.558129,101.06545 C 100.75343,101.09325 103.2058,99.188876 103.08258,101.44076"
         id="path760"
         style="fill:#e41837;fill-rule:nonzero;stroke:none" />
      <path
         d="M 202.28422,120.84586 C 195.38323,124.72409 187.10193,124.82139 178.9687,125.21062 C 174.18735,125.68324 168.93761,125.11332 165.46251,121.77718 C 165.74589,121.02657 167.5328,120.83196 166.892,119.567 L 164.36576,118.31597 C 166.42362,117.35683 169.5784,119.27509 170.88467,117.24562 C 171.98142,117.06491 173.3493,117.21783 174.0517,116.11968 C 173.38623,114.07631 176.52875,115.10494 177.09551,113.49249 C 185.48761,112.33875 193.49778,115.66097 200.27555,119.44191 C 200.91635,119.91453 201.66794,120.28984 202.28422,120.84586"
         id="path762"
         style="fill:#e41837;fill-rule:nonzero;stroke:none" />
      <path
         d="M 132.83072,108.5022 C 133.13878,112.88086 132.51024,116.93983 130.80962,120.79026 C 128.73934,119.09438 126.81696,116.71741 124.58652,114.70182 L 124.94393,114.04852 C 127.81517,112.08854 129.71287,110.03128 132.83072,108.5022"
         id="path764"
         style="fill:#e41837;fill-rule:nonzero;stroke:none" />
      <path
         d="M 97.832838,113.4786 C 96.452705,115.20225 94.628868,115.88337 93.063735,117.49584 L 89.194293,122.29151 C 86.655796,120.24814 84.462124,116.95371 82.367329,114.46553 C 82.798611,112.24145 84.881149,110.4066 86.520151,108.80802 C 87.666259,108.23812 88.701401,106.00012 90.254113,107.04265 C 92.79261,109.08604 95.429819,111.046 97.832838,113.4786"
         id="path766"
         style="fill:#e41837;fill-rule:nonzero;stroke:none" />
      <path
         d="M 159.5473,123.69546 C 156.93477,125.08551 153.74306,125.54424 150.82247,126.10025 C 147.12561,126.58677 143.05891,126.73967 139.6701,125.48864 C 141.35829,122.51392 142.72617,118.9276 144.36517,115.75828 C 146.44788,115.59146 148.59203,116.70352 150.56377,117.50974 C 153.86645,118.95537 156.83622,121.34627 159.5473,123.69546"
         id="path768"
         style="fill:#e41837;fill-rule:nonzero;stroke:none" />
      <path
         d="M 245.69871,130.95152 C 243.55456,132.59178 240.41204,133.4258 237.94741,134.34324 C 225.25459,137.01213 211.11986,139.31962 197.88479,135.23288 C 195.02581,134.32936 192.05587,133.52312 189.45576,132.04965 C 192.17909,131.46584 195.62967,131.35464 198.52558,130.18699 C 198.72267,128.32433 201.11344,128.99156 202.35809,128.42163 L 203.97241,127.12888 C 210.82406,128.36602 217.81134,129.40858 224.04687,131.75775 C 224.45347,131.70215 224.97121,131.46584 224.93411,130.86811 L 224.82331,129.9785 C 226.93052,129.71438 229.53063,131.17393 231.35447,129.79779 C 233.04283,129.68658 235.32262,131.31294 236.33309,129.35296 C 238.11999,129.14446 240.21495,130.65961 241.84153,129.35296 C 243.39424,129.51978 244.70051,130.25648 245.69871,130.95152"
         id="path770"
         style="fill:#e41837;fill-rule:nonzero;stroke:none" />
      <path
         d="M 116.83522,115.24395 L 116.76118,115.92507 L 111.43758,119.77552 C 108.70182,119.48361 107.17379,117.24562 105.09125,115.43856 C 105.71962,114.24313 107.26008,114.60453 108.38151,114.21532 C 111.17887,113.93731 114.2843,114.27092 116.83522,115.24395"
         id="path772"
         style="fill:#e41837;fill-rule:nonzero;stroke:none" />
      <path
         d="M 128.27113,124.25147 C 128.6408,125.37742 127.53179,125.55812 126.84164,125.68324 C 125.19038,125.48864 123.45267,125.89173 122.07253,125.07162 C 121.14836,122.79194 121.94931,119.92842 121.60432,117.62093 C 124.63571,118.84419 126.60745,121.51308 128.27113,124.25147"
         id="path774"
         style="fill:#e41837;fill-rule:nonzero;stroke:none" />
      <path
         d="M 101.13552,117.48193 C 100.35908,120.15084 101.57906,124.32098 98.424442,125.34963 C 96.452705,125.34963 94.591934,126.01684 92.484552,125.59982 C 92.681809,123.75106 94.431612,122.06909 95.589976,120.52615 C 97.315267,119.13608 98.572177,117.59314 100.72875,116.84252 L 101.13552,117.48193"
         id="path776"
         style="fill:#e41837;fill-rule:nonzero;stroke:none" />
      <path
         d="M 118.48648,121.81889 C 117.59923,121.93009 116.77361,121.33239 116.13281,120.87366 C 116.31765,120.10913 117.34037,119.71992 117.99358,119.20561 C 118.52341,119.76161 118.4989,120.83196 118.48648,121.81889"
         id="path778"
         style="fill:#e41837;fill-rule:nonzero;stroke:none" />
      <path
         d="M 105.95381,120.35934 L 104.27788,121.26286 C 104.04369,120.65125 103.9574,119.76161 104.31481,119.10831 C 104.99254,119.17779 105.6335,119.63651 105.95381,120.35934"
         id="path780"
         style="fill:#e41837;fill-rule:nonzero;stroke:none" />
      <path
         d="M 87.49368,125.34963 C 87.555292,126.54506 86.212093,126.19755 85.497431,126.51725 L 76.365828,127.11499 C 76.74792,123.59816 78.226598,119.92842 80.112046,117.07884 C 83.020379,119.3585 84.819538,122.70853 87.49368,125.34963"
         id="path782"
         style="fill:#e41837;fill-rule:nonzero;stroke:none" />
      <path
         d="M 177.60082,132.45277 L 177.55147,132.84198 C 165.30236,137.80447 147.26108,138.9026 136.17033,130.32599 C 136.45371,129.57538 136.62629,128.90815 137.56272,128.50502 C 139.00463,128.96375 140.58202,130.70131 142.27021,129.50588 C 143.19455,130.10358 144.31598,130.71521 145.59757,130.65961 C 147.51995,129.20006 151.08134,132.73079 152.00551,129.58927 C 154.71659,129.18616 157.77282,130.11748 160.29906,129.49197 C 160.11423,127.60149 161.90113,128.28263 163.04707,127.8239 L 164.08221,127.25399 C 169.22099,128.00461 173.80526,129.38077 177.60082,132.45277"
         id="path784"
         style="fill:#e41837;fill-rule:nonzero;stroke:none" />
      <path
         d="M 190.71267,135.03827 C 193.00472,135.78889 194.73001,138.8331 197.41641,137.55426 C 199.44976,137.95737 201.03957,140.59846 203.25759,139.25012 C 204.37902,139.68104 205.34029,140.86257 206.75752,140.61235 C 207.28735,139.20842 208.26088,139.30572 209.25909,140.11196 C 210.68858,140.65406 211.8963,143.04495 213.63384,141.66881 C 215.76574,142.87813 218.46456,141.5993 220.07888,143.83729 C 220.2513,144.15699 220.8058,144.30991 220.57178,144.7686 C 205.8948,147.61822 189.29544,143.55927 175.90022,138.26319 C 177.04632,137.60986 179.05499,138.11029 179.44934,136.28932 C 181.61816,136.33102 183.33103,135.03827 184.92084,133.92623 C 186.69533,135.7055 188.92577,133.2729 190.71267,135.03827"
         id="path786"
         style="fill:#e41837;fill-rule:nonzero;stroke:none" />
      <path
         d="M 125.47376,128.28263 C 125.14102,128.64403 125.07941,129.13056 124.50023,129.17227 C 124.11814,129.03326 124.35233,128.65794 124.29072,128.35212 C 124.63571,127.99072 125.07941,128.24092 125.47376,128.28263"
         id="path788"
         style="fill:#e41837;fill-rule:nonzero;stroke:none" />
      <path
         d="M 116.39151,131.24343 C 117.43908,133.3285 117.61149,136.4005 116.12039,138.20759 C 115.3688,139.80613 113.52028,140.47338 112.07837,141.01548 C 109.811,141.15448 107.1246,140.47338 105.73204,138.74969 C 104.42578,137.13724 103.9574,135.21897 104.17933,133.0644 C 104.6969,130.96541 106.05236,129.43637 108.11038,128.47723 C 109.50294,127.5459 111.62258,127.96291 113.16287,128.42163 C 114.67865,128.88034 115.51653,130.17309 116.39151,131.24343"
         id="path790"
         style="fill:#e41837;fill-rule:nonzero;stroke:none" />
      <path
         d="M 96.304804,130.25648 C 95.57772,130.5623 95.208051,129.43637 94.961604,129.11665 C 95.331274,128.47723 96.095291,128.56064 96.773019,128.72744 L 96.304804,130.25648"
         id="path792"
         style="fill:#e41837;fill-rule:nonzero;stroke:none" />
      <path
         d="M 143.49019,139.0972 L 144.30356,138.09638 C 148.53042,140.82087 151.47568,145.47753 154.61804,149.16116 C 155.57931,149.55039 155.78883,148.39665 156.13382,147.95183 C 158.06862,149.23069 159.32553,151.24623 161.12469,152.83092 C 161.80242,152.99771 162.25838,152.3444 162.39402,151.96908 L 162.48031,151.28794 C 164.87091,152.73361 166.46072,155.3608 168.43229,157.15396 C 170.41645,156.08363 171.16805,159.12784 173.29994,158.65522 C 174.10106,159.33634 174.38444,160.25377 174.40912,161.14342 C 157.60024,158.93323 143.33003,148.82756 134.16166,135.33018 L 133.61941,133.88453 C 136.88499,135.62209 139.59607,138.76359 143.49019,139.0972"
         id="path794"
         style="fill:#e41837;fill-rule:nonzero;stroke:none" />
      <path
         d="M 95.676266,135.10777 C 95.208051,137.60986 93.137768,138.66629 91.720535,140.77917 L 91.067485,140.51505 C 89.933633,137.33185 89.896699,133.18949 90.857973,129.65878 L 91.338609,129.71438 L 95.676266,135.10777"
         id="path796"
         style="fill:#e41837;fill-rule:nonzero;stroke:none" />
      <path
         d="M 86.347572,129.56148 C 86.224349,133.28681 86.175159,137.52645 87.148689,141.2796 C 83.735206,141.89122 80.09979,140.90428 76.575341,140.72357 C 75.330687,139.40302 75.540199,137.45696 75.355365,135.6638 C 75.330687,133.99574 74.948761,131.98017 75.922291,130.4094 C 79.311095,129.9785 82.897156,129.49197 86.347572,129.56148"
         id="path798"
         style="fill:#e41837;fill-rule:nonzero;stroke:none" />
      <path
         d="M 171.04482,143.94849 C 171.79658,144.30991 172.49899,144.1153 173.22607,143.79558 C 176.78745,145.35244 179.96691,147.86843 183.41732,149.71719 C 184.35392,150.12031 184.66198,149.16116 185.10568,148.61906 C 186.94177,148.91097 187.54563,151.63546 189.62817,150.59294 C 191.35346,151.06556 192.72134,152.98382 194.13857,154.22095 L 194.38502,154.63797 L 193.78116,154.97159 C 184.29231,155.22179 175.75231,152.23318 167.60666,149.38358 L 167.37264,148.77196 C 167.17538,148.74416 167.26167,148.95268 167.24942,149.06387 C 162.11064,147.4097 157.39073,144.53231 153.64451,140.97377 C 155.50528,140.09806 158.15475,142.85036 159.32553,140.32046 C 161.34646,139.84784 163.95899,141.19619 165.84444,140.04244 C 167.71763,141.01548 169.4305,142.48894 171.04482,143.94849"
         id="path800"
         style="fill:#e41837;fill-rule:nonzero;stroke:none" />
      <path
         d="M 131.15478,140.32046 C 132.15299,142.00242 132.35008,144.78253 134.79003,144.94931 C 135.08583,146.85369 137.78466,147.34021 138.04336,149.43918 C 138.47464,150.07861 139.46059,150.07861 139.97816,149.745 C 140.47105,150.69024 140.93927,151.81616 141.88829,152.21929 C 142.72617,153.49814 142.84939,155.0828 144.24195,156.01412 C 145.69612,155.27741 146.41078,156.75086 147.08867,157.7934 C 149.52862,157.97411 149.73814,160.64299 150.63763,162.31104 C 147.44592,161.86624 144.61162,159.79507 141.83893,158.21041 C 135.43083,153.67884 127.96307,148.93878 124.56184,141.18229 C 124.13056,139.86175 124.93151,138.74969 125.1657,137.51256 C 126.02827,136.81752 127.16195,136.44221 128.17258,136.05301 C 129.12143,137.44305 129.36788,139.54203 131.15478,140.32046"
         id="path802"
         style="fill:#e41837;fill-rule:nonzero;stroke:none" />
      <path
         d="M 87.764805,174.71031 C 102.52791,183.00889 122.8243,182.84209 136.84806,173.32024 C 140.24929,171.13786 143.45325,167.84345 146.31223,164.99384 C 149.9599,165.80008 153.42274,167.53764 157.19364,167.25963 C 157.9083,167.03721 157.92072,166.0642 157.56331,165.73058 C 155.87512,163.07559 153.50903,160.36497 152.56018,157.30688 C 156.20785,158.19649 159.49811,160.6152 163.09643,161.99135 C 162.44321,165.17455 160.02794,167.46813 158.53684,170.26215 C 144.02018,188.9722 119.18888,198.20215 95.392885,191.5021 C 87.604648,188.98611 79.976567,185.789 73.777975,180.2844 C 68.565334,176.48956 64.079611,171.56878 60.370327,166.73141 C 52.964181,155.98633 50.326972,143.99019 50.26536,130.86811 C 50.696642,131.41024 51.435981,131.88286 51.978229,131.35464 L 52.988859,130.28429 C 53.321594,130.82641 53.826743,131.54925 54.640116,131.35464 C 55.478001,130.95152 55.379455,129.95068 56.365407,130.85421 C 56.316051,131.34073 56.550242,131.95234 57.092324,132.31376 C 58.226177,132.73079 58.682136,131.29903 59.544699,132.48056 C 60.703063,131.81335 62.292875,133.3702 62.785767,131.64655 L 63.352528,130.13139 C 62.637866,148.46616 71.387378,165.85568 87.764805,174.71031"
         id="path804"
         style="fill:#e41837;fill-rule:nonzero;stroke:none" />
      <path
         d="M 84.844215,132.45277 C 84.905827,132.75858 84.708736,132.84198 84.585347,133.02269 L 84.659381,132.42496 L 84.844215,132.45277"
         id="path806"
         style="fill:#ee2b3d;fill-rule:nonzero;stroke:none" />
      <path
         d="M 97.980739,142.04413 C 97.093498,142.15532 95.984324,142.43334 95.146439,141.84952 C 95.737877,141.11278 95.885778,140.54287 96.822374,140.15366 C 97.463168,140.51505 97.561714,141.4186 97.980739,142.04413"
         id="path808"
         style="fill:#e41837;fill-rule:nonzero;stroke:none" />
      <path
         d="M 124.35233,149.63378 C 123.39106,150.21762 122.67639,151.41307 121.61658,151.20453 C 121.82609,149.35577 121.46867,147.14562 122.26979,145.26903 C 122.84897,146.21427 125.41215,147.96573 124.35233,149.63378"
         id="path810"
         style="fill:#e41837;fill-rule:nonzero;stroke:none" />
      <path
         d="M 118.2031,150.03691 C 117.40214,150.0647 116.40394,149.27239 115.99717,148.53565 C 116.4778,147.68772 117.61149,147.32629 118.38793,147.3124 C 118.30164,148.17423 118.78228,149.23069 118.2031,150.03691"
         id="path812"
         style="fill:#e41837;fill-rule:nonzero;stroke:none" />
      <path
         d="M 100.95068,147.49311 L 101.14777,152.05247 C 97.919127,150.91264 95.454497,148.27154 93.593727,145.31073 C 95.774811,145.17173 98.239607,145.22733 100.43311,145.76946 L 100.95068,147.49311"
         id="path814"
         style="fill:#e41837;fill-rule:nonzero;stroke:none" />
      <path
         d="M 88.134474,144.92154 C 86.421605,147.97963 83.870686,150.66243 81.517023,153.26183 C 80.198335,152.73361 80.136724,151.34354 79.187872,150.25932 C 78.214342,148.17423 77.253069,146.31157 77.0313,143.82338 C 80.531071,143.30907 84.067942,144.2821 87.777061,144.4906 L 88.134474,144.92154"
         id="path816"
         style="fill:#e41837;fill-rule:nonzero;stroke:none" />
      <path
         d="M 107.01363,148.74416 C 106.3359,149.55039 105.69511,150.07861 104.83238,150.66243 C 104.21627,150.1064 104.549,148.75807 104.549,147.88232 C 105.41156,148.17423 106.39752,148.07693 107.01363,148.74416"
         id="path818"
         style="fill:#e41837;fill-rule:nonzero;stroke:none" />
      <path
         d="M 116.84747,153.34524 L 116.81054,153.73444 C 113.53254,154.86039 109.94648,155.2635 106.63154,154.10975 C 107.90087,152.38609 109.60148,151.28794 111.24049,149.7867 C 113.33545,150.41222 115.03606,151.96908 116.84747,153.34524"
         id="path820"
         style="fill:#e41837;fill-rule:nonzero;stroke:none" />
      <path
         d="M 98.78169,155.52762 C 99.200715,156.26434 98.399764,156.57014 98.04235,157.02887 L 90.993452,163.04778 C 88.072863,161.75504 85.521943,159.01664 83.735206,156.45895 C 84.14181,155.41642 84.474546,154.16535 85.423398,153.59543 L 90.241691,148.10474 C 92.928255,150.56513 95.355952,153.67884 98.78169,155.52762"
         id="path822"
         style="fill:#e41837;fill-rule:nonzero;stroke:none" />
      <path
         d="M 135.13519,159.05834 C 134.92568,160.01748 133.9644,160.8098 133.24974,161.1295 C 130.08254,159.40585 126.97712,157.19567 124.48797,154.76309 C 125.41215,153.48425 126.33632,152.99771 127.40856,152.21929 L 128.55451,152.65021 L 135.13519,159.05834"
         id="path824"
         style="fill:#e41837;fill-rule:nonzero;stroke:none" />
      <path
         d="M 130.04561,163.33969 C 127.61791,165.73058 123.36654,167.27352 119.92839,168.09367 L 120.06387,167.37083 C 120.64305,163.79841 120.5445,160.15647 121.19755,156.87595 C 124.58652,158.30771 127.26066,160.9766 130.04561,163.33969"
         id="path826"
         style="fill:#e41837;fill-rule:nonzero;stroke:none" />
      <path
         d="M 116.95844,167.92685 C 116.37926,169.63661 114.25962,169.21961 112.84255,169.55322 C 110.16841,169.63661 108.25829,170.03974 106.32348,168.747 C 105.81833,165.24405 105.39931,161.85235 105.4856,158.2243 C 109.33036,158.3355 113.21222,158.76642 116.87215,157.7795 L 117.53762,157.96018 L 116.95844,167.92685"
         id="path828"
         style="fill:#e41837;fill-rule:nonzero;stroke:none" />
      <path
         d="M 102.7621,168.06586 C 100.3344,168.59407 98.067028,166.77311 95.787233,166.03639 C 95.331274,165.68888 94.764348,165.52206 94.308389,165.09115 C 96.538828,162.76976 98.929591,160.65688 101.62841,158.50231 C 102.38017,161.53263 102.70049,164.91044 102.7621,168.06586"
         id="path830"
         style="fill:#e41837;fill-rule:nonzero;stroke:none" />
      <path
         d="M 170.76144,188.7081 L 170.99563,186.65082 L 172.81947,186.85934 C 173.62042,186.94273 174.48298,187.13733 174.39686,188.04089 C 174.27364,189.23632 172.88108,188.94441 171.95674,188.83319 L 170.76144,188.7081 z M 172.97963,189.52823 C 174.12574,189.61164 175.04991,189.29192 175.17313,188.13818 C 175.23474,187.66557 175.04991,187.10954 174.58169,186.80372 C 174.13799,186.49792 173.60816,186.4284 173.06592,186.35891 L 170.26855,186.0531 L 169.65243,191.86351 L 170.41645,191.94692 L 170.71209,189.26411 L 172.154,189.43093 L 173.69429,192.29444 L 174.61863,192.40562 L 172.97963,189.52823 z M 171.52546,194.39341 C 174.68024,194.7409 177.4776,192.68364 177.79791,189.80624 C 178.09372,186.94273 175.81393,184.32943 172.64689,183.99582 C 169.46743,183.64833 166.65781,185.70559 166.3375,188.56909 C 166.02927,191.4465 168.34617,194.0459 171.52546,194.39341 M 171.58707,193.76789 C 168.80213,193.46206 166.76878,191.18239 167.05216,188.63859 C 167.32328,186.1226 169.80017,184.31554 172.58528,184.62134 C 175.34571,184.91325 177.37905,187.20685 177.10793,189.73673 C 176.82438,192.26663 174.37218,194.07369 171.58707,193.76789"
         id="path832"
         style="fill:#e41837;fill-rule:nonzero;stroke:none" />
      <path
         d="M 170.76144,188.7081 L 170.99563,186.65082 L 172.81947,186.85934 C 173.62042,186.94273 174.48298,187.13733 174.39686,188.04089 C 174.27364,189.23632 172.88108,188.94441 171.95674,188.83319 L 170.76144,188.7081 z M 172.97963,189.52823 C 174.12574,189.61164 175.04991,189.29192 175.17313,188.13818 C 175.23474,187.66557 175.04991,187.10954 174.58169,186.80372 C 174.13799,186.49792 173.60816,186.4284 173.06592,186.35891 L 170.26855,186.0531 L 169.65243,191.86351 L 170.41645,191.94692 L 170.71209,189.26411 L 172.154,189.43093 L 173.69429,192.29444 L 174.61863,192.40562 L 172.97963,189.52823 z M 171.52546,194.39341 C 174.68024,194.7409 177.4776,192.68364 177.79791,189.80624 C 178.09372,186.94273 175.81393,184.32943 172.64689,183.99582 C 169.46743,183.64833 166.65781,185.70559 166.3375,188.56909 C 166.02927,191.4465 168.34617,194.0459 171.52546,194.39341 z M 171.58707,193.76789 C 168.80213,193.46206 166.76878,191.18239 167.05216,188.63859 C 167.32328,186.1226 169.80017,184.31554 172.58528,184.62134 C 175.34571,184.91325 177.37905,187.20685 177.10793,189.73673 C 176.82438,192.26663 174.37218,194.07369 171.58707,193.76789 z"
         id="path834"
         style="fill:none;fill-rule:nonzero;stroke:#ee2b3d;stroke-width:0.00130882;stroke-linecap:butt;stroke-linejoin:miter;stroke-miterlimit:4;stroke-dasharray:none" />
    </g>
  </g>
</svg>
