<?xml version="1.0" encoding="UTF-8" standalone="no"?>
<!-- Created with Inkscape (http://www.inkscape.org/) -->

<svg
   xmlns:dc="http://purl.org/dc/elements/1.1/"
   xmlns:cc="http://creativecommons.org/ns#"
   xmlns:rdf="http://www.w3.org/1999/02/22-rdf-syntax-ns#"
   xmlns:svg="http://www.w3.org/2000/svg"
   xmlns="http://www.w3.org/2000/svg"
   xmlns:sodipodi="http://sodipodi.sourceforge.net/DTD/sodipodi-0.dtd"
   xmlns:inkscape="http://www.inkscape.org/namespaces/inkscape"
   version="1.1"
   width="500"
   height="281.87103"
   id="svg3771"
   inkscape:version="0.48.3.1 r9886"
   sodipodi:docname="Logo Anaheim Ducks.svg">
  <sodipodi:namedview
     pagecolor="#ffffff"
     bordercolor="#666666"
     borderopacity="1"
     objecttolerance="10"
     gridtolerance="10"
     guidetolerance="10"
     inkscape:pageopacity="0"
     inkscape:pageshadow="2"
     inkscape:window-width="1920"
     inkscape:window-height="1018"
     id="namedview29"
     showgrid="false"
     inkscape:zoom="1.4"
     inkscape:cx="445.25256"
     inkscape:cy="169.38018"
     inkscape:window-x="-8"
     inkscape:window-y="-8"
     inkscape:window-maximized="1"
     inkscape:current-layer="svg3771" />
  <defs
     id="defs3773">
    <clipPath
       id="clipPath3173">
      <path
         d="m 116.514,483.71 126.972,0 0,71.018 -126.972,0 0,-71.018 z"
         id="path3175" />
    </clipPath>
  </defs>
  <metadata
     id="metadata3776">
    <rdf:RDF>
      <cc:Work
         rdf:about="">
        <dc:format>image/svg+xml</dc:format>
        <dc:type
           rdf:resource="http://purl.org/dc/dcmitype/StillImage" />
        <dc:title />
      </cc:Work>
    </rdf:RDF>
  </metadata>
  <g
     transform="translate(-129.79454,-658.60187)"
     id="layer1">
    <g
       transform="matrix(4.1552833,0,0,-4.1552833,-354.35539,2959.5596)"
       id="g3169">
      <g
         clip-path="url(#clipPath3173)"
         id="g3171">
        <g
           transform="translate(165.3228,491.6981)"
           id="g3177">
          <path
             d="m 0,0 c -12.712,-1.568 -24.12,-0.318 -24.12,-0.318 0,0 1.951,0.405 4.763,1.266 8.769,0.136 14.85,0.49 21.661,1.322 34.256,4.194 59.81,24.057 64.559,31.871 0.175,-0.524 0.219,-0.975 0.118,-1.332 C 65.752,28.402 42.589,5.253 0,0 m -18.758,5.373 c 0.177,0.052 17.546,5.238 20.249,14.96 0.313,1.126 0.247,2.141 -0.207,3.111 -1.328,2.855 -5.422,4.225 -5.464,4.239 l -2.788,0.915 2.682,1.261 c 0.097,0.049 9.72,4.641 11.277,10.233 0.502,1.807 0.36,3.302 -0.433,4.574 -2.316,3.731 -9.738,4.727 -12.404,4.799 l -7.041,0.181 6.806,2.088 c 0.095,0.029 9.759,2.964 21.741,4.372 25.696,3.023 43.69,-7.753 49,-15.253 1.202,-1.705 1.654,-3.154 1.334,-4.307 C 65.223,33.767 57.859,26.779 47.307,20.322 37.633,14.404 21.945,6.856 2.143,4.489 -9.813,3.065 -18.431,3.098 -18.516,3.101 l -7.841,0.048 7.599,2.224 z M 69.77,38.098 c -0.556,2.729 -2.834,7.953 -9.064,12.295 -9.269,6.488 -24.893,12.077 -46.097,9.585 -25.006,-2.941 -43.032,-13.892 -43.032,-13.892 0,0 29.444,1.74 27.583,-6.175 -1.587,-6.745 -19.863,-13.726 -19.863,-13.726 0,0 17.162,-1.016 14.396,-7.682 C -9.844,9.971 -44.105,0.645 -44.105,0.645 c 0,0 18.754,-6.991 43.753,-3.966 34.703,4.206 56.362,18.165 66.346,28.378 4.737,5.493 4.332,10.312 3.776,13.041"
             id="path3179"
             style="fill:#000000;fill-opacity:1;fill-rule:nonzero;stroke:none" />
        </g>
        <g
           transform="translate(121.2173,492.3427)"
           id="g3181">
          <g
             id="g4006">
            <path
               d="m 0,0 c 0,0 34.262,9.326 37.799,17.858 2.765,6.666 -14.396,7.682 -14.396,7.682 0,0 18.275,6.982 19.862,13.727 1.861,7.914 -27.582,6.174 -27.582,6.174 0,0 18.026,10.952 43.032,13.892 21.203,2.492 36.828,-3.097 46.097,-9.585 6.23,-4.341 8.507,-9.566 9.063,-12.295 0.557,-2.729 0.962,-7.547 -3.775,-13.041 C 100.116,14.199 78.457,0.241 43.753,-3.966 18.754,-6.99 0,0 0,0 M 95.638,56.356 C 84.785,60.899 72.321,62.385 58.588,60.766 33.626,57.835 15.275,46.827 15.093,46.713 L 10.07,43.667 15.743,44 c 8.814,0.518 23.496,0.059 25.924,-3.398 0.219,-0.309 0.271,-0.581 0.185,-0.956 C 40.822,35.277 29.824,29.516 23.005,26.91 l -6.314,-2.415 6.649,-0.397 c 4.776,-0.285 11.774,-1.939 13.042,-4.382 0.151,-0.292 0.269,-0.688 -0.024,-1.39 C 33.971,12.564 12.728,4.947 -0.29,1.407 l -4.413,-1.204 4.321,-1.58 c 0.19,-0.063 19.144,-7.256 44.124,-4.378 26.08,3.006 44.119,11.681 54.465,18.526 4.535,2.998 8.213,5.978 11.114,8.726 12.947,11.999 4.757,27.627 -13.683,34.859"
               id="path3183"
               style="fill:#c6cdd2;fill-opacity:1;fill-rule:nonzero;stroke:none" />
          </g>
        </g>
        <g
           transform="translate(167.7745,511.6821)"
           id="g3185">
          <path
             d="m 0,0 c 1.717,6.179 -6.355,8.808 -6.355,8.808 0,0 10.13,4.771 11.851,10.948 2.915,10.455 -13.771,10.877 -13.771,10.877 0,0 9.547,2.924 21.584,4.342 C 45.184,38.721 63.743,21.082 62.582,16.91 61.423,12.741 36.206,-9.979 -0.415,-14.346 c -12.04,-1.435 -20.549,-1.383 -20.549,-1.383 0,0 18.052,5.274 20.964,15.729 m -0.309,-15.495 c 19.803,2.366 35.49,9.915 45.164,15.833 10.552,6.457 17.916,13.445 18.688,16.224 0.319,1.153 -0.133,2.601 -1.335,4.307 -5.309,7.499 -23.303,18.276 -49,15.253 C 1.226,34.714 -8.438,31.779 -8.533,31.75 l -6.806,-2.088 7.042,-0.181 C -5.632,29.409 1.791,28.413 4.106,24.682 4.899,23.41 5.042,21.915 4.54,20.108 2.982,14.516 -6.64,9.924 -6.738,9.875 L -9.42,8.614 -6.632,7.699 C -6.59,7.685 -2.496,6.315 -1.168,3.46 -0.714,2.49 -0.648,1.475 -0.961,0.349 -3.664,-9.373 -21.032,-14.559 -21.21,-14.611 l -7.599,-2.224 7.841,-0.048 c 0.085,-0.003 8.703,-0.036 20.659,1.388"
             id="path3187"
             style="fill:#ffffff;fill-opacity:1;fill-rule:nonzero;stroke:none" />
        </g>
        <g
           transform="translate(172.2541,522.4372)"
           id="g3189">
          <path
             d="m 0,0 c 0,0 26.681,6.907 30.737,7.956 -3.072,1.865 -8.001,4.373 -16.405,6.582 l -6.408,1.686 6.554,0.588 c 0.702,0.068 17.328,1.42 30.89,-9.905 L 46.475,5.984 45.376,5.045 C 29.663,-8.344 8.341,-13.109 8.127,-13.157 l -9.161,-1.997 8.583,4.192 C 18.04,-5.83 24.831,-1.867 29.142,0.952 23.845,0.783 0,0 0,0 M -4.894,-25.101 C 31.726,-20.735 56.944,1.986 58.102,6.155 59.263,10.326 40.705,27.966 8.83,24.22 -3.207,22.802 -12.754,19.879 -12.754,19.879 c 0,0 16.685,-0.423 13.77,-10.878 -1.721,-6.177 -11.85,-10.948 -11.85,-10.948 0,0 8.071,-2.629 6.354,-8.808 -2.912,-10.455 -20.963,-15.729 -20.963,-15.729 0,0 8.509,-0.052 20.549,1.383"
             id="path3191"
             style="fill:#af9667;fill-opacity:1;fill-rule:nonzero;stroke:none" />
        </g>
        <g
           transform="translate(205.2168,524.6719)"
           id="g3193">
          <path
             d="M 0,0 -22.621,-0.742 0.56,5.259 c -3.581,2.38 -8.65,5.457 -18.965,8.173 0,0 16.805,1.515 30.219,-9.694 C -3.897,-9.648 -25.022,-14.257 -25.022,-14.257 -12.412,-8.094 -4.595,-3.352 0,0 m -33.997,-17.389 9.161,1.998 c 0.215,0.047 21.536,4.813 37.249,18.201 l 1.099,0.94 -1.106,0.922 c -13.563,11.325 -30.189,9.974 -30.891,9.905 l -6.554,-0.588 6.409,-1.687 c 8.404,-2.207 13.333,-4.715 16.404,-6.58 -4.056,-1.05 -30.737,-7.957 -30.737,-7.957 0,0 23.845,0.784 29.142,0.953 -4.311,-2.819 -11.102,-6.783 -21.593,-11.915 l -8.583,-4.192 z"
             id="path3195"
             style="fill:#ffffff;fill-opacity:1;fill-rule:nonzero;stroke:none" />
        </g>
        <g
           transform="translate(186.8121,538.1041)"
           id="g3197">
          <path
             d="m 0,0 c 10.315,-2.716 15.384,-5.793 18.964,-8.173 l -23.18,-6.001 22.621,0.742 c -4.595,-3.353 -12.412,-8.094 -25.022,-14.257 0,0 21.124,4.608 36.835,17.994 C 16.805,1.515 0,0 0,0"
             id="path3199"
             style="fill:#000000;fill-opacity:1;fill-rule:nonzero;stroke:none" />
        </g>
        <g
           transform="translate(232.1859,525.8392)"
           id="g3201">
          <path
             d="m 0,0 c -4.75,-7.814 -30.304,-27.677 -64.559,-31.871 -6.811,-0.833 -12.892,-1.187 -21.662,-1.322 -2.811,-0.861 -4.763,-1.266 -4.763,-1.266 0,0 11.409,-1.25 24.121,0.318 42.59,5.253 65.752,28.402 66.98,32.809 C 0.219,-0.975 0.175,-0.525 0,0"
             id="path3203"
             style="fill:#da7c39;fill-opacity:1;fill-rule:nonzero;stroke:none" />
        </g>
        <g
           transform="translate(214.4701,500.4757)"
           id="g3205" />
        <g
           transform="translate(216.7411,499.6622)"
           id="g3209" />
      </g>
    </g>
  </g>
</svg>
