<?xml version="1.0" encoding="utf-8"?>
<!-- Generator: Adobe Illustrator 14.0.0, SVG Export Plug-In . SVG Version: 6.00 Build 43363)  -->
<!DOCTYPE svg PUBLIC "-//W3C//DTD SVG 1.1//EN" "http://www.w3.org/Graphics/SVG/1.1/DTD/svg11.dtd">
<svg version="1.1" id="Layer_1" xmlns="http://www.w3.org/2000/svg" xmlns:xlink="http://www.w3.org/1999/xlink" x="0px" y="0px"
	 width="250px" height="250px" viewBox="0 0 250 250" enable-background="new 0 0 250 250" xml:space="preserve">
<g>
	<path fill="#FFFFFF" d="M130.66,106.921c-16.013,0.519-30.418,4.518-30.426,4.518c-0.107-0.713-0.218-1.407-0.329-2.128
		c-0.5,0.84-0.967,1.645-1.462,2.477c-0.004,0-7.244,2.659-12.028,5.167c6.131-2.112,11.104-3.42,11.104-3.42
		c-0.5,1.078-0.983,2.096-1.482,3.154c0.919-0.824,1.795-1.605,2.715-2.429c0.654,0.353,1.292,0.698,1.954,1.05
		c-0.091-0.785-0.178-1.545-0.273-2.342C100.436,112.968,116.593,108.475,130.66,106.921"/>
	<path fill="#EEE1C6" d="M124.999,5.001C58.722,5.001,5,58.727,5,125c0,66.276,53.722,119.999,119.999,119.999
		C191.27,244.999,245,191.276,245,125C245,58.727,191.27,5.001,124.999,5.001 M124.999,237.339
		C62.955,237.339,12.66,187.04,12.66,125c0-62.041,50.294-112.338,112.338-112.338c62.039,0,112.336,50.298,112.336,112.338
		C237.335,187.04,187.037,237.339,124.999,237.339"/>
	<path fill="#EEE1C6" d="M124.999,58.787c-36.57,0-66.217,29.643-66.217,66.213c0,36.566,29.647,66.214,66.217,66.214
		c36.565,0,66.215-29.647,66.215-66.214C191.214,88.43,161.563,58.787,124.999,58.787 M185.325,104.559l-27.099,30.843h6.959
		l-29.572,30.622c0,0-7.766-12.586-32.998-7.086c0,0-8.853-2.354-11.223-5.5l2.116-1.229c-1.569-0.583-3.523-2.628-3.523-3.646
		c0-0.245,0.234-0.439,0.618-0.439c0.995,0,3.079,1.252,7.474,1.252c4.902,0,9.111-0.971,9.111-3.809
		c0-1.957-5.374-2.032-5.374-3.487c0-1.874,7.91-2.904,11.937-2.904c0,0-5.541-0.341-10.431-0.341
		c-8.18,0-10.328,1.343-10.328,2.311c0,1.319,3.579,1.676,3.579,2.853c0,0.687-1.954,0.893-3.697,0.893
		c-4.771,0-9.246-1.775-9.246-1.775s-1.403,0.78-2.699,1.077c0,0-9.004-3.503-13.106-6.353c0,0-4.418-5.706-5.928-10.423
		c0,0,10.676-8.639,20.976-13.708l-4.006-3.02c0,0,16.446-10.042,33.919-13.486c0,0,3.816-11.401,16.583-11.401
		c13.196,0,15.915,10.3,15.915,10.3s13.577-1.252,33.393,2.718l-3.662,2.834C175.014,101.654,180.91,102.887,185.325,104.559"/>
	<polygon fill="#EEE1C6" points="92.11,208.908 92.042,208.881 94.127,195.518 90.093,193.6 80.998,203.657 80.942,203.621 
		83.34,190.401 78.497,188.11 74.8,213.882 76.983,214.92 88.19,202.658 88.254,202.683 85.971,219.164 88.143,220.211 
		105.715,201.018 100.868,198.716 	"/>
	<polygon fill="#EEE1C6" points="110.118,225.422 115.666,226.088 118.551,201.716 113.019,201.046 	"/>
	<polygon fill="#EEE1C6" points="136.787,221.328 134.242,201.37 128.708,202.084 131.825,226.425 146.274,224.586 145.711,220.19 	
		"/>
	<path fill="#EEE1C6" d="M156.752,195.081l-6.555,3.107l10.51,22.196l6.816-3.222c6.856-3.258,6.404-10.601,3.995-15.689
		C168.942,196.072,163.703,191.804,156.752,195.081 M165.178,213.699l-1.221,0.571l-6.959-14.719l1.458-0.701
		c3.487-1.649,6.063,1.117,8.037,5.298C168.625,208.599,168.815,211.972,165.178,213.699"/>
	<polygon fill="#EEE1C6" points="33.612,81.891 40.845,90.926 29.352,92.353 27.478,97.029 50.237,106.247 52.191,101.385 
		37.647,95.472 37.674,95.417 48.113,94.449 48.517,93.443 41.685,85.489 41.732,85.414 56.261,91.311 58.25,86.456 35.495,77.23 	
		"/>
	<polygon fill="#EEE1C6" points="67.619,74.611 48.608,59.068 45.073,63.384 64.08,78.926 	"/>
	<polygon fill="#EEE1C6" points="78.806,64.152 70.547,52.259 70.603,52.212 84.576,60.13 88.571,57.372 74.582,37.204 
		70.262,40.196 78.156,51.598 78.105,51.633 64.734,44.028 60.505,46.981 74.482,67.152 	"/>
	<polygon fill="#EEE1C6" points="102.386,52.021 98.696,38.005 98.776,37.989 109.202,50.219 113.898,49.002 107.668,25.244 
		102.588,26.583 106.119,40.014 106.044,40.03 96.093,28.271 91.076,29.595 97.293,53.345 	"/>
	<polygon fill="#EEE1C6" points="138.372,45.166 129.328,44.56 129.74,38.46 137.841,39.011 138.134,34.779 130.034,34.216 
		130.398,28.529 139.125,29.124 139.418,24.883 125.146,23.912 123.473,48.408 138.078,49.39 	"/>
	<path fill="#EEE1C6" d="M151.22,53.658c3.813,1.411,7.681-0.277,9.06-3.923c2.053-5.465-4.138-11.58-3.107-14.306
		c0.349-0.943,1.459-1.249,2.711-0.796c1.126,0.436,2.014,1.185,3.813,3.329l1.625-4.312c-1.419-1.653-2.846-2.671-4.479-3.297
		c-3.741-1.399-7.577,0.095-8.806,3.396c-2.093,5.572,4.138,10.795,2.869,14.144c-0.412,1.118-1.585,1.601-2.829,1.138
		c-1.388-0.531-2.426-1.653-3.955-4.241l-1.847,4.946C147.962,51.808,149.437,52.989,151.22,53.658"/>
	<path fill="#EEE1C6" d="M171.232,64.711c3.313,2.524,9.504,3.527,15.345-4.085c5.612-7.296,3.639-13.114,0.024-15.892
		c-3.789-2.925-10.105-2.703-15.202,3.916C165.78,55.933,167.484,61.826,171.232,64.711 M175.774,52.275
		c2.948-3.824,5.501-5.568,7.895-3.721c2.615,2.009,0.998,5.219-1.562,8.58c-3.599,4.672-5.873,5.342-7.926,3.757
		C171.771,59.017,172.786,56.155,175.774,52.275"/>
	<polygon fill="#EEE1C6" points="184.659,77.345 187.973,81.819 204.284,69.708 207.629,74.222 211.037,71.69 201.059,58.216 
		197.626,60.732 200.987,65.242 	"/>
	<path fill="#EEE1C6" d="M218.717,87.149l-25.395,2.544l1.879,5.069l5.184-0.666l1.926,5.199l-4.375,2.854l1.854,5.049
		l20.925-14.627L218.717,87.149z M205.759,97.128l-1.355-3.67l9.043-1.284l0.024,0.067L205.759,97.128z"/>
	<path fill="#EEE1C6" d="M219.161,213.152c-3.321,0-6,2.683-6,6.004c0,3.31,2.679,6,6,6c3.305,0,5.992-2.69,5.992-6
		C225.153,215.835,222.466,213.152,219.161,213.152 M219.161,223.872c-2.607,0-4.716-2.112-4.716-4.716s2.108-4.712,4.716-4.712
		c2.592,0,4.708,2.108,4.708,4.712S221.753,223.872,219.161,223.872"/>
	<path fill="#EEE1C6" d="M221.618,217.762c0-1.122-0.903-2.033-2.037-2.033h-2.893v6.852h1.292v-2.785h0.919l1.3,2.785h1.419
		l-1.348-2.896C221.056,219.402,221.618,218.649,221.618,217.762 M219.581,218.511h-1.601v-1.494h1.601
		c0.42,0,0.753,0.333,0.753,0.745C220.334,218.178,220.001,218.511,219.581,218.511"/>
	<path fill="#EEB111" d="M38.324,135.542l7.898-5.73l-8.394-0.009c-0.083-1.593-0.135-3.186-0.135-4.803
		c0-6.119,0.634-12.087,1.815-17.821l-0.023-0.123c0,0-4.372,13.09-5.318,22.743l-10.268-0.008l6.896,5.021l-2.644,8.104
		l6.285-4.558c1.994,13.541,10.958,40.581,37.843,56.215C53.903,180.641,41.221,159.601,38.324,135.542"/>
	<path fill="#EEB111" d="M226.097,129.795l-10.265,0.008c-0.951-9.653-5.326-22.747-5.326-22.747l-0.023,0.119
		c1.181,5.743,1.814,11.703,1.814,17.826c0,1.613-0.047,3.21-0.126,4.803l-8.395,0.013l7.895,5.73
		c-2.893,24.055-15.574,45.095-33.955,59.028c26.886-15.638,35.85-42.674,37.839-56.215l6.285,4.554l-2.639-8.101L226.097,129.795z"
		/>
	<path fill="#EEB111" d="M117.073,100.984c-0.06,0.495-0.095,0.995-0.095,1.506c0,0.563,0.044,1.122,0.119,1.665
		c7.601-0.813,15.973-1.086,24.343-0.198c0.056-0.479,0.087-0.971,0.087-1.466c0-1.006-0.119-1.985-0.349-2.917
		C133.046,99.308,124.884,99.792,117.073,100.984"/>
	<path fill="#EEB111" d="M129.257,114.764c4.518,0,8.465-2.441,10.597-6.083c-6.665,0.852-13.044,1.965-18.644,3.079
		C123.366,113.63,126.176,114.764,129.257,114.764"/>
	<path fill="#EEB111" d="M129.257,90.213c-6.275,0-11.443,4.704-12.184,10.771c0,0,6.155-2.77,22.9-4.458
		C137.881,92.765,133.862,90.213,129.257,90.213"/>
	<path fill="#C41230" d="M141.178,99.574c0.229,0.935,0.349,1.91,0.349,2.917c0,0.496-0.031,0.987-0.087,1.466
		c5.326,0.563,10.652,1.597,15.78,3.262c-5.786,0.194-11.675,0.737-17.366,1.462c-2.132,3.642-6.079,6.087-10.597,6.087
		c-3.081,0-5.887-1.137-8.047-3.008c-11.853,2.362-20.179,4.748-20.179,4.748c5.865,0.266,9.182,1.625,9.182,1.625
		c-15.17,3.067-29.274,8.913-33.856,10.914c1.094,1.74,2.524,3.777,2.524,3.777l-2.271,2.802c4.05,0.741,9.067,0.309,9.067,0.309
		l7.525-4.604l5.905,1.768l1.775-2.434h-1.941l3.892-6.266l3.27,6.266h-1.462l0.987,2.16l4.082-0.726l1.732-2.211h-1.554
		l2.323-3.563h-1.748l3.67-6.218l3.135,6.416h-1.391l2.108,3.745h-1.661l3.396,6.187l3.392-4.764h-2.33l3.511-5.278h-2.251
		l5.057-8.683l4.393,8.793h-1.831l2.988,5.168h-2.108l2.893,6.404l4.914-8.021h-2.71l4.01-6.531h-2.465l5.374-10.918l5.644,11.433
		h-1.981l3.63,6.008h-2.48l2.781,5.957l4.534-6.908h-2.434l5.271-7.593h-2.837l8.441-11.651l4.446,8.013l9.464-11.647
		C166.137,102.157,153.692,99.982,141.178,99.574"/>
	<path fill="#C41230" d="M116.978,102.49c0-0.511,0.036-1.011,0.099-1.506c-11.413,1.748-22.058,5.009-30.689,9.689
		c0,0,13.327-4.665,30.709-6.519C117.017,103.612,116.978,103.057,116.978,102.49"/>
	<path fill="#00502F" d="M124.999,12.662C62.955,12.662,12.66,62.959,12.66,125c0,62.04,50.294,112.339,112.338,112.339
		c62.039,0,112.336-50.299,112.336-112.339C237.335,62.959,187.037,12.662,124.999,12.662 M220.715,92.571l-20.925,14.627
		l-1.854-5.049l4.375-2.854l-1.926-5.199l-5.184,0.67l-1.879-5.073l25.403-2.544L220.715,92.571z M201.059,58.216l9.979,13.478
		l-3.408,2.528l-3.345-4.51l-16.312,12.103l-3.313-4.466l16.328-12.111l-3.361-4.502L201.059,58.216z M171.399,48.649
		c5.097-6.623,11.413-6.84,15.202-3.916c3.614,2.782,5.588,8.596-0.024,15.888c-5.841,7.617-12.031,6.614-15.345,4.089
		C167.484,61.826,165.78,55.933,171.399,48.649 M148.121,44.793c1.529,2.583,2.567,3.705,3.963,4.236
		c1.236,0.463,2.409-0.02,2.821-1.138c1.269-3.349-4.962-8.572-2.869-14.144c1.236-3.301,5.064-4.795,8.798-3.396
		c1.641,0.626,3.067,1.649,4.486,3.297l-1.625,4.312c-1.799-2.144-2.687-2.893-3.813-3.329c-1.252-0.452-2.362-0.147-2.711,0.796
		c-1.022,2.727,5.16,8.841,3.107,14.306c-1.379,3.646-5.247,5.334-9.06,3.923c-1.783-0.669-3.258-1.847-4.945-3.923L148.121,44.793z
		 M125.142,23.912l14.276,0.971l-0.293,4.24l-8.727-0.598l-0.373,5.69l8.101,0.563l-0.285,4.229l-8.108-0.547l-0.412,6.099
		l9.044,0.606l-0.277,4.224l-14.618-0.987L125.142,23.912z M96.089,28.275l9.951,11.75l0.079-0.016l-3.527-13.422l5.076-1.339
		l6.234,23.754l-4.7,1.221L98.776,37.989L98.7,38.005l3.69,14.017l-5.093,1.324l-6.222-23.75L96.089,28.275z M64.734,44.028
		l13.367,7.605l0.051-0.036l-7.886-11.405l4.315-2.988l13.99,20.167l-3.995,2.754l-13.973-7.918l-0.06,0.051l8.263,11.893l-4.324,3
		L60.501,46.981L64.734,44.028z M48.612,59.068l19.006,15.543l-3.539,4.315L45.073,63.384L48.612,59.068z M29.352,92.353
		l11.497-1.427l-7.236-9.036l1.887-4.66l22.751,9.226l-1.986,4.858l-14.532-5.896l-0.047,0.071l6.832,7.954l-0.404,1.006
		l-10.434,0.967l-0.032,0.055l14.544,5.913l-1.954,4.862l-22.76-9.222L29.352,92.353z M34.441,138.359l-6.286,4.558l2.636-8.104
		l-6.896-5.021l10.268,0.008c0.955-9.653,5.327-22.743,5.327-22.743l0.023,0.119c-1.181,5.739-1.819,11.707-1.819,17.83
		c0,1.609,0.052,3.21,0.139,4.799l8.386,0.009l-7.89,5.73c2.893,24.055,15.574,45.099,33.951,59.032
		C45.395,178.94,36.426,151.9,34.441,138.359 M88.143,220.215l-2.168-1.047l2.279-16.485l-0.063-0.028l-11.211,12.27l-2.18-1.038
		l3.697-25.779l4.843,2.295l-2.397,13.225l0.056,0.031l9.095-10.054l4.034,1.914l-2.088,13.363l0.071,0.027l8.758-10.188
		l4.847,2.298L88.143,220.215z M115.666,226.088l-5.548-0.666l2.905-24.376l5.528,0.67L115.666,226.088z M58.785,125
		c0-36.566,29.643-66.213,66.213-66.213c36.573,0,66.215,29.647,66.215,66.213s-29.643,66.214-66.215,66.214
		C88.428,191.214,58.785,161.566,58.785,125 M131.825,226.429l-3.117-24.345l5.534-0.709l2.545,19.957l8.916-1.138l0.571,4.396
		L131.825,226.429z M167.523,217.167l-6.816,3.218l-10.518-22.196l6.563-3.111c6.951-3.273,12.19,0.995,14.767,6.396
		C173.928,206.566,174.38,213.909,167.523,217.167 M215.555,138.359c-1.989,13.541-10.953,40.581-37.839,56.215
		c18.381-13.934,31.063-34.978,33.955-59.032l-7.895-5.73l8.395-0.009c0.079-1.589,0.134-3.189,0.134-4.799
		c0-6.123-0.642-12.091-1.822-17.83l0.023-0.119c0,0,4.375,13.09,5.326,22.743l10.265-0.008l-6.896,5.021l2.639,8.104
		L215.555,138.359z"/>
	<path fill="#00502F" d="M174.182,60.887c2.053,1.589,4.319,0.919,7.926-3.753c2.56-3.36,4.177-6.57,1.562-8.576
		c-2.394-1.851-4.946-0.107-7.902,3.717C172.786,56.151,171.771,59.017,174.182,60.887"/>
	<polygon fill="#00502F" points="213.479,92.242 213.446,92.175 204.403,93.462 205.759,97.128 	"/>
	<path fill="#00502F" d="M158.456,198.846l-1.45,0.706l6.951,14.723l1.221-0.579c3.638-1.724,3.439-5.101,1.315-9.543
		C164.52,199.968,161.943,197.205,158.456,198.846"/>
	<path fill="#00502F" d="M185.325,104.559c-4.415-1.672-10.312-2.901-10.312-2.901l3.67-2.833c-19.823-3.975-33.4-2.723-33.4-2.723
		s-2.719-10.3-15.915-10.3c-12.767,0-16.583,11.401-16.583,11.401c-17.477,3.444-33.919,13.486-33.919,13.486l4.006,3.02
		c-10.3,5.069-20.976,13.708-20.976,13.708c1.51,4.717,5.928,10.423,5.928,10.423c4.102,2.85,13.106,6.353,13.106,6.353
		c1.296-0.297,2.695-1.077,2.695-1.077s4.478,1.775,9.25,1.775c1.744,0,3.697-0.206,3.697-0.893c0-1.177-3.579-1.533-3.579-2.853
		c0-0.968,2.148-2.307,10.328-2.307c4.89,0,10.435,0.341,10.435,0.341c-4.034,0-11.94,1.026-11.94,2.9
		c0,1.455,5.374,1.53,5.374,3.487c0,2.842-4.208,3.809-9.111,3.809c-4.395,0-6.476-1.252-7.474-1.252
		c-0.384,0-0.618,0.194-0.618,0.439c0,1.019,1.958,3.063,3.523,3.646l-2.12,1.229c2.374,3.146,11.227,5.5,11.227,5.5
		c25.232-5.5,32.998,7.086,32.998,7.086l29.572-30.622h-6.959L185.325,104.559z M154.691,129.113l-4.542,6.908l-2.781-5.953h2.48
		l-3.63-6.012h1.981l-5.636-11.433l-5.374,10.918h2.457l-4.01,6.535h2.71l-4.914,8.018l-2.893-6.404h2.108l-2.988-5.164h1.823
		l-4.385-8.797l-5.057,8.683h2.251l-3.507,5.278h2.326l-3.392,4.764l-3.396-6.187h1.661l-2.104-3.741h1.387l-3.131-6.416
		l-3.67,6.217h1.74l-2.314,3.56h1.553l-1.736,2.215l-4.082,0.718l-0.987-2.16h1.462l-3.27-6.266l-3.888,6.27h1.938l-1.775,2.438
		l-5.905-1.775l-7.525,4.604c0,0-5.017,0.433-9.067-0.309l2.267-2.802c0,0-1.426-2.033-2.521-3.773
		c4.582-1.997,18.686-7.846,33.856-10.914c0,0-3.317-1.359-9.186-1.625c0,0,8.33-2.386,20.188-4.748
		c5.591-1.114,11.974-2.227,18.639-3.079c5.691-0.726,11.58-1.269,17.366-1.458c-5.128-1.668-10.454-2.703-15.788-3.266
		c-8.362-0.888-16.738-0.614-24.339,0.194c-17.378,1.858-30.705,6.519-30.705,6.519c8.635-4.676,19.28-7.938,30.685-9.682
		c0.745-6.071,5.909-10.771,12.184-10.771c4.613,0,8.624,2.548,10.724,6.309c-16.749,1.685-22.908,4.462-22.908,4.462
		c7.807-1.197,15.973-1.676,24.105-1.415c12.522,0.412,24.951,2.587,35.857,6.666l-9.464,11.647l-4.446-8.017l-8.434,11.651h2.821
		l-5.271,7.593H154.691z M100.706,115.311c-0.666-0.353-1.296-0.702-1.954-1.054c-0.919,0.824-1.795,1.613-2.715,2.433
		c0.503-1.058,0.987-2.077,1.486-3.15c0,0-4.978,1.304-11.108,3.416c4.779-2.513,12.024-5.167,12.028-5.167
		c0.491-0.833,0.967-1.633,1.462-2.477c0.111,0.717,0.222,1.411,0.333,2.124c0.004,0,14.409-3.995,30.43-4.51
		c-14.075,1.554-30.232,6.047-30.236,6.047C100.527,113.761,100.615,114.53,100.706,115.311"/>
</g>
</svg>
