<svg xmlns="http://www.w3.org/2000/svg" width="262.602" height="262.601" viewBox="0 0 262.602 262.60097"><pattern x="-224.529" y="472.97" width="69" height="69" patternUnits="userSpaceOnUse" viewBox="2.125 -70.896 69 69" overflow="visible"><g><path fill="none" d="M71.125-1.896h-69v-69h69z"/><path fill="#F6BB60" d="M71.125-1.896h-69v-69h69z"/><g fill="#fff"><path d="M61.772-71.653c.018.072.007.127-.026.19l-.165.128c-.05.063-.099.276-.079.362-.169.058-.01.227-.015.35l-.045.161c-.01.119.017.266.068.37.097.198.268.413.435.544.19.148.365.572.608.631.177.042.384-.104.543-.143.18-.043.397.01.571-.053.222-.079.127-.337.288-.45.104-.074.287-.01.406-.051.2-.069.339-.263.376-.46l.039-.221c.039-.103.111-.16.09-.293l-.064-.187v-.337c-.003-.2.017-.379-.078-.55-.38-.688-1.236-.929-1.975-.789-.18.034-.287.126-.442.207-.17.088-.139.166-.318.224-.081.026-.216.124-.215.224l.012.169-.03-.025"/><path d="M54.105-71.653c.018.072.007.127-.026.19l-.165.128c-.05.063-.099.276-.079.362-.169.058-.01.227-.015.35l-.045.161c-.01.119.017.266.068.37.097.198.268.413.435.544.19.148.365.572.608.631.177.042.384-.104.543-.143.18-.043.397.01.571-.053.222-.079.127-.337.288-.45.104-.074.287-.01.406-.051.2-.069.339-.263.376-.46l.039-.221c.039-.103.111-.16.09-.293l-.064-.187v-.337c-.003-.2.017-.379-.078-.55-.38-.688-1.236-.929-1.975-.789-.18.034-.287.126-.442.207-.17.088-.139.166-.318.224-.081.026-.216.124-.215.224l.012.169-.03-.025"/><path d="M46.439-71.653c.018.072.007.127-.026.19l-.165.128c-.05.063-.099.276-.079.362-.169.058-.01.227-.015.35l-.045.161c-.01.119.017.266.068.37.097.198.268.413.435.544.19.148.365.572.608.631.177.042.384-.104.543-.143.18-.043.397.01.571-.053.222-.079.127-.337.288-.45.104-.074.287-.01.406-.051.2-.069.339-.263.376-.46l.039-.221c.039-.103.111-.16.09-.293l-.064-.187v-.337c-.003-.2.017-.379-.078-.55-.38-.688-1.236-.929-1.975-.789-.18.034-.287.126-.442.207-.17.088-.139.166-.318.224-.081.026-.216.124-.215.224l.012.169-.03-.025"/><path d="M38.772-71.653c.018.072.007.127-.026.19l-.165.128c-.05.063-.099.276-.079.362-.169.058-.01.227-.015.35l-.045.161c-.01.119.017.266.068.37.097.198.268.413.435.544.19.148.365.572.608.631.177.042.384-.104.543-.143.18-.043.397.01.571-.053.222-.079.127-.337.288-.45.104-.074.287-.01.406-.051.2-.069.339-.263.376-.46l.039-.221c.039-.103.111-.16.09-.293l-.064-.187v-.337c-.003-.2.017-.379-.078-.55-.38-.688-1.236-.929-1.975-.789-.18.034-.287.126-.442.207-.17.088-.139.166-.318.224-.081.026-.216.124-.215.224l.012.169-.03-.025"/><path d="M31.105-71.653c.018.072.007.127-.026.19l-.165.128c-.05.063-.099.276-.079.362-.169.058-.01.227-.015.35l-.045.161c-.01.119.017.266.068.37.097.198.268.413.435.544.19.148.365.572.608.631.177.042.384-.104.543-.143.18-.043.397.01.571-.053.222-.079.127-.337.288-.45.104-.074.287-.01.406-.051.2-.069.339-.263.376-.46l.039-.221c.039-.103.111-.16.09-.293l-.064-.187v-.337c-.003-.2.017-.379-.078-.55-.38-.688-1.236-.929-1.975-.789-.18.034-.287.126-.442.207-.17.088-.139.166-.318.224-.081.026-.216.124-.215.224l.012.169-.03-.025"/><path d="M23.439-71.653c.018.072.007.127-.026.19l-.165.128c-.05.063-.099.276-.079.362-.169.058-.01.227-.015.35l-.045.161c-.01.119.017.266.068.37.097.198.268.413.435.544.19.148.365.572.608.631.177.042.384-.104.543-.143.18-.043.397.01.571-.053.222-.079.127-.337.288-.45.104-.074.287-.01.406-.051.2-.069.339-.263.376-.46l.039-.221c.039-.103.111-.16.09-.293l-.064-.187v-.337c-.003-.2.017-.379-.078-.55-.38-.688-1.236-.929-1.975-.789-.18.034-.287.126-.442.207-.17.088-.139.166-.318.224-.081.026-.216.124-.215.224l.012.169-.03-.025"/><path d="M15.772-71.653c.018.072.007.127-.026.19l-.165.128c-.05.063-.099.276-.079.362-.169.058-.01.227-.015.35l-.045.161c-.01.119.017.266.068.37.097.198.268.413.435.544.19.148.365.572.608.631.177.042.384-.104.543-.143.18-.043.397.01.571-.053.222-.079.127-.337.288-.45.104-.074.287-.01.406-.051.2-.069.339-.263.376-.46l.039-.221c.039-.103.111-.16.09-.293l-.064-.187v-.337c-.003-.2.017-.379-.078-.55-.38-.688-1.236-.929-1.975-.789-.18.034-.287.126-.442.207-.17.088-.139.166-.318.224-.081.026-.216.124-.215.224l.012.169-.03-.025"/><path d="M8.105-71.653c.018.072.007.127-.026.19l-.165.128c-.05.063-.099.276-.079.362-.169.058-.01.227-.015.35l-.045.161c-.01.119.017.266.068.37.097.198.268.413.435.544.19.148.365.572.608.631.177.042.384-.104.543-.143.18-.043.397.01.571-.053.222-.079.127-.337.288-.45.104-.074.287-.01.406-.051.2-.069.339-.263.376-.46l.039-.221c.039-.103.111-.16.09-.293l-.064-.187v-.337c-.003-.2.017-.379-.078-.55-.38-.688-1.236-.929-1.975-.789-.18.034-.287.126-.442.207-.17.088-.139.166-.318.224-.081.026-.216.124-.215.224l.012.169-.03-.025"/><path d="M.439-71.653c.018.072.008.127-.026.19l-.165.128c-.051.063-.099.276-.079.362-.169.058-.01.227-.015.35l-.045.161c-.01.119.017.266.068.37.097.198.268.413.435.544.19.148.365.572.608.631.177.042.384-.104.543-.143.18-.043.397.01.571-.053.222-.079.127-.337.288-.45.104-.074.287-.01.406-.051.2-.07.339-.263.376-.46l.039-.221c.038-.103.111-.16.09-.293l-.064-.187v-.337c-.003-.2.017-.379-.078-.55-.38-.688-1.236-.929-1.975-.789-.18.034-.287.126-.442.207-.17.088-.139.166-.318.224-.081.026-.215.124-.215.224l.012.169-.03-.025"/></g><path fill="#fff" d="M69.439-71.653c.018.072.008.127-.026.19l-.165.128c-.051.063-.099.276-.079.362-.169.058-.01.227-.015.35l-.045.161c-.01.119.017.266.068.37.097.198.268.413.435.544.19.148.365.572.608.631.177.042.384-.104.543-.143.18-.043.397.01.571-.053.222-.079.127-.337.288-.45.104-.074.287-.01.406-.051.2-.07.339-.263.376-.46l.039-.221c.038-.103.111-.16.09-.293l-.064-.187v-.337c-.003-.2.017-.379-.078-.55-.38-.688-1.236-.929-1.975-.789-.18.034-.287.126-.442.207-.17.088-.139.166-.318.224-.081.026-.215.124-.215.224l.012.169-.03-.025"/><path fill="#fff" d="M.495-71.653c.018.072.008.127-.026.19l-.165.128c-.051.063-.099.276-.079.362-.169.058-.01.227-.015.35l-.045.161c-.01.119.017.266.068.37.097.198.268.413.435.544.19.148.365.572.608.631.177.042.384-.104.543-.143.18-.043.397.01.571-.053.222-.079.127-.337.288-.45.104-.074.287-.01.406-.051.2-.07.339-.263.376-.46l.039-.221c.038-.103.111-.16.09-.293l-.064-.187v-.337c-.003-.2.017-.379-.078-.55-.38-.688-1.236-.929-1.975-.789-.18.034-.287.126-.442.207-.17.088-.139.166-.318.224-.081.026-.215.124-.215.224l.013.17-.03-.025"/><g fill="#fff"><g><path d="M69.439-64.001c.018.072.007.127-.026.19l-.165.128c-.05.063-.099.276-.079.362-.169.058-.01.227-.015.35l-.045.161c-.01.119.017.266.068.37.097.198.268.413.435.544.19.148.365.572.608.631.177.042.384-.104.543-.143.18-.043.397.01.571-.053.222-.079.127-.337.288-.45.104-.074.287-.01.406-.051.2-.069.339-.263.376-.46l.039-.221c.039-.103.111-.16.09-.293l-.064-.187v-.337c-.003-.2.017-.379-.078-.55-.38-.688-1.236-.929-1.975-.789-.18.034-.287.126-.442.207-.17.088-.139.166-.318.224-.081.026-.216.124-.215.224l.012.169-.03-.025"/><path d="M61.778-64.001c.018.072.007.127-.026.19l-.165.128c-.05.063-.099.276-.079.362-.169.058-.009.227-.015.35l-.045.161c-.01.119.017.266.068.37.097.198.268.413.435.544.19.148.365.572.608.631.177.042.384-.104.543-.143.18-.043.397.01.571-.053.222-.079.127-.337.288-.45.104-.074.287-.01.406-.051.2-.069.339-.263.376-.46l.039-.221c.039-.103.111-.16.09-.293l-.064-.187v-.337c-.003-.2.017-.379-.078-.55-.38-.688-1.236-.929-1.975-.789-.18.034-.287.126-.442.207-.17.088-.139.166-.318.224-.081.026-.216.124-.215.224l.012.169-.03-.025"/><path d="M54.118-64.001c.018.072.007.127-.026.19l-.165.128c-.05.063-.099.276-.079.362-.169.058-.009.227-.015.35l-.045.161c-.01.119.017.266.068.37.097.198.268.413.435.544.19.148.365.572.608.631.177.042.384-.104.543-.143.18-.043.397.01.571-.053.222-.079.127-.337.288-.45.104-.074.287-.01.406-.051.2-.069.339-.263.376-.46l.039-.221c.039-.103.111-.16.09-.293l-.064-.187v-.337c-.003-.2.017-.379-.078-.55-.38-.688-1.236-.929-1.975-.789-.18.034-.287.126-.442.207-.17.088-.139.166-.318.224-.081.026-.216.124-.215.224l.012.169-.03-.025"/><path d="M46.458-64.001c.018.072.007.127-.026.19l-.165.128c-.05.063-.099.276-.079.362-.169.058-.009.227-.015.35l-.045.161c-.01.119.017.266.068.37.097.198.268.413.435.544.19.148.365.572.608.631.177.042.384-.104.543-.143.18-.043.397.01.571-.053.222-.079.127-.337.288-.45.104-.074.287-.01.406-.051.2-.069.339-.263.376-.46l.039-.221c.039-.103.111-.16.09-.293l-.064-.187v-.337c-.003-.2.017-.379-.078-.55-.38-.688-1.236-.929-1.975-.789-.18.034-.287.126-.442.207-.17.088-.139.166-.318.224-.081.026-.216.124-.215.224l.012.169-.03-.025"/><path d="M38.797-64.001c.018.072.007.127-.026.19l-.165.128c-.05.063-.099.276-.079.362-.169.058-.009.227-.015.35l-.045.161c-.01.119.017.266.068.37.097.198.268.413.435.544.19.148.365.572.608.631.177.042.384-.104.543-.143.18-.043.397.01.571-.053.222-.079.127-.337.288-.45.104-.074.287-.01.406-.051.2-.069.339-.263.376-.46l.039-.221c.039-.103.111-.16.09-.293l-.064-.187v-.337c-.003-.2.017-.379-.078-.55-.38-.688-1.236-.929-1.975-.789-.18.034-.287.126-.442.207-.17.088-.139.166-.318.224-.081.026-.216.124-.215.224l.012.169-.03-.025"/><path d="M31.137-64.001c.018.072.007.127-.026.19l-.165.128c-.05.063-.099.276-.079.362-.169.058-.009.227-.015.35l-.045.161c-.01.119.017.266.068.37.097.198.268.413.435.544.19.148.365.572.608.631.177.042.384-.104.543-.143.18-.043.397.01.571-.053.222-.079.127-.337.288-.45.104-.074.287-.01.406-.051.2-.069.339-.263.376-.46l.039-.221c.039-.103.111-.16.09-.293l-.064-.187v-.337c-.003-.2.017-.379-.078-.55-.38-.688-1.236-.929-1.975-.789-.18.034-.287.126-.442.207-.17.088-.139.166-.318.224-.081.026-.216.124-.215.224l.012.169-.03-.025"/><path d="M23.477-64.001c.018.072.007.127-.026.19l-.165.128c-.05.063-.099.276-.079.362-.169.058-.009.227-.015.35l-.045.161c-.01.119.017.266.068.37.097.198.268.413.435.544.19.148.365.572.608.631.177.042.384-.104.543-.143.18-.043.397.01.571-.053.222-.079.127-.337.288-.45.104-.074.287-.01.406-.051.2-.069.339-.263.376-.46l.039-.221c.039-.103.111-.16.09-.293l-.064-.187v-.337c-.003-.2.017-.379-.078-.55-.38-.688-1.236-.929-1.975-.789-.18.034-.287.126-.442.207-.17.088-.139.166-.318.224-.081.026-.216.124-.215.224l.012.169-.03-.025"/><path d="M15.816-64.001c.018.072.007.127-.026.19l-.165.128c-.05.063-.099.276-.079.362-.169.058-.009.227-.015.35l-.045.161c-.01.119.017.266.068.37.097.198.268.413.435.544.19.148.365.572.608.631.177.042.384-.104.543-.143.18-.043.397.01.571-.053.222-.079.127-.337.288-.45.104-.074.287-.01.406-.051.2-.069.339-.263.376-.46l.039-.221c.039-.103.111-.16.09-.293l-.064-.187v-.337c-.003-.2.017-.379-.078-.55-.38-.688-1.236-.929-1.975-.789-.18.034-.287.126-.442.207-.17.088-.139.166-.318.224-.081.026-.216.124-.215.224l.012.169-.03-.025"/><path d="M8.156-64.001c.018.072.007.127-.026.19l-.165.128c-.05.063-.099.276-.079.362-.169.058-.009.227-.015.35l-.045.161c-.01.119.017.266.068.37.097.198.268.413.435.544.19.148.365.572.608.631.177.042.384-.104.543-.143.18-.043.397.01.571-.053.222-.079.127-.337.288-.45.104-.074.287-.01.406-.051.2-.069.339-.263.376-.46l.039-.221c.039-.103.111-.16.09-.293l-.064-.187v-.337c-.003-.2.017-.379-.078-.55-.38-.688-1.236-.929-1.975-.789-.18.034-.287.126-.442.207-.17.088-.139.166-.318.224-.081.026-.216.124-.215.224l.012.169-.03-.025"/><path d="M.495-64.001c.018.072.007.127-.026.19l-.165.128c-.05.063-.099.276-.079.362-.169.058-.01.227-.015.35l-.045.161c-.01.119.017.266.068.37.097.198.268.413.435.544.19.148.365.572.608.631.177.042.384-.104.543-.143.181-.042.398.011.572-.052.222-.079.127-.337.288-.45.104-.074.287-.01.406-.051.2-.069.339-.263.376-.46l.039-.221c.039-.103.111-.16.09-.293l-.064-.187v-.337c-.003-.2.017-.379-.078-.55-.38-.688-1.236-.929-1.975-.789-.18.034-.287.126-.442.207-.17.088-.139.166-.318.224-.081.026-.216.124-.215.224l.012.169-.03-.025"/></g><g><path d="M69.439-56.348c.018.072.007.127-.026.19l-.165.128c-.05.063-.099.276-.079.362-.169.058-.01.227-.015.35l-.045.161c-.01.119.017.266.068.37.097.198.268.413.435.544.19.148.365.572.608.631.177.042.384-.104.543-.143.18-.043.397.01.571-.053.222-.079.127-.337.288-.45.104-.074.287-.01.406-.051.2-.069.339-.263.376-.46l.039-.221c.039-.103.111-.16.09-.293l-.064-.187v-.337c-.003-.2.017-.379-.078-.55-.38-.688-1.236-.929-1.975-.789-.18.034-.287.126-.442.207-.17.088-.139.166-.318.224-.081.026-.216.124-.215.224l.012.169-.03-.025"/><path d="M61.778-56.348c.018.072.007.127-.026.19l-.165.128c-.05.063-.099.276-.079.362-.169.058-.009.227-.015.35l-.045.161c-.01.119.017.266.068.37.097.198.268.413.435.544.19.148.365.572.608.631.177.042.384-.104.543-.143.18-.043.397.01.571-.053.222-.079.127-.337.288-.45.104-.074.287-.01.406-.051.2-.069.339-.263.376-.46l.039-.221c.039-.103.111-.16.09-.293l-.064-.187v-.337c-.003-.2.017-.379-.078-.55-.38-.688-1.236-.929-1.975-.789-.18.034-.287.126-.442.207-.17.088-.139.166-.318.224-.081.026-.216.124-.215.224l.012.169-.03-.025"/><path d="M54.118-56.348c.018.072.007.127-.026.19l-.165.128c-.05.063-.099.276-.079.362-.169.058-.009.227-.015.35l-.045.161c-.01.119.017.266.068.37.097.198.268.413.435.544.19.148.365.572.608.631.177.042.384-.104.543-.143.18-.043.397.01.571-.053.222-.079.127-.337.288-.45.104-.074.287-.01.406-.051.2-.069.339-.263.376-.46l.039-.221c.039-.103.111-.16.09-.293l-.064-.187v-.337c-.003-.2.017-.379-.078-.55-.38-.688-1.236-.929-1.975-.789-.18.034-.287.126-.442.207-.17.088-.139.166-.318.224-.081.026-.216.124-.215.224l.012.169-.03-.025"/><path d="M46.458-56.348c.018.072.007.127-.026.19l-.165.128c-.05.063-.099.276-.079.362-.169.058-.009.227-.015.35l-.045.161c-.01.119.017.266.068.37.097.198.268.413.435.544.19.148.365.572.608.631.177.042.384-.104.543-.143.18-.043.397.01.571-.053.222-.079.127-.337.288-.45.104-.074.287-.01.406-.051.2-.069.339-.263.376-.46l.039-.221c.039-.103.111-.16.09-.293l-.064-.187v-.337c-.003-.2.017-.379-.078-.55-.38-.688-1.236-.929-1.975-.789-.18.034-.287.126-.442.207-.17.088-.139.166-.318.224-.081.026-.216.124-.215.224l.012.169-.03-.025"/><path d="M38.797-56.348c.018.072.007.127-.026.19l-.165.128c-.05.063-.099.276-.079.362-.169.058-.009.227-.015.35l-.045.161c-.01.119.017.266.068.37.097.198.268.413.435.544.19.148.365.572.608.631.177.042.384-.104.543-.143.18-.043.397.01.571-.053.222-.079.127-.337.288-.45.104-.074.287-.01.406-.051.2-.069.339-.263.376-.46l.039-.221c.039-.103.111-.16.09-.293l-.064-.187v-.337c-.003-.2.017-.379-.078-.55-.38-.688-1.236-.929-1.975-.789-.18.034-.287.126-.442.207-.17.088-.139.166-.318.224-.081.026-.216.124-.215.224l.012.169-.03-.025"/><path d="M31.137-56.348c.018.072.007.127-.026.19l-.165.128c-.05.063-.099.276-.079.362-.169.058-.009.227-.015.35l-.045.161c-.01.119.017.266.068.37.097.198.268.413.435.544.19.148.365.572.608.631.177.042.384-.104.543-.143.18-.043.397.01.571-.053.222-.079.127-.337.288-.45.104-.074.287-.01.406-.051.2-.069.339-.263.376-.46l.039-.221c.039-.103.111-.16.09-.293l-.064-.187v-.337c-.003-.2.017-.379-.078-.55-.38-.688-1.236-.929-1.975-.789-.18.034-.287.126-.442.207-.17.088-.139.166-.318.224-.081.026-.216.124-.215.224l.012.169-.03-.025"/><path d="M23.477-56.348c.018.072.007.127-.026.19l-.165.128c-.05.063-.099.276-.079.362-.169.058-.009.227-.015.35l-.045.161c-.01.119.017.266.068.37.097.198.268.413.435.544.19.148.365.572.608.631.177.042.384-.104.543-.143.18-.043.397.01.571-.053.222-.079.127-.337.288-.45.104-.074.287-.01.406-.051.2-.069.339-.263.376-.46l.039-.221c.039-.103.111-.16.09-.293l-.064-.187v-.337c-.003-.2.017-.379-.078-.55-.38-.688-1.236-.929-1.975-.789-.18.034-.287.126-.442.207-.17.088-.139.166-.318.224-.081.026-.216.124-.215.224l.012.169-.03-.025"/><path d="M15.816-56.348c.018.072.007.127-.026.19l-.165.128c-.05.063-.099.276-.079.362-.169.058-.009.227-.015.35l-.045.161c-.01.119.017.266.068.37.097.198.268.413.435.544.19.148.365.572.608.631.177.042.384-.104.543-.143.18-.043.397.01.571-.053.222-.079.127-.337.288-.45.104-.074.287-.01.406-.051.2-.069.339-.263.376-.46l.039-.221c.039-.103.111-.16.09-.293l-.064-.187v-.337c-.003-.2.017-.379-.078-.55-.38-.688-1.236-.929-1.975-.789-.18.034-.287.126-.442.207-.17.088-.139.166-.318.224-.081.026-.216.124-.215.224l.012.169-.03-.025"/><path d="M8.156-56.348c.018.072.007.127-.026.19l-.165.128c-.05.063-.099.276-.079.362-.169.058-.009.227-.015.35l-.045.161c-.01.119.017.266.068.37.097.198.268.413.435.544.19.148.365.572.608.631.177.042.384-.104.543-.143.18-.043.397.01.571-.053.222-.079.127-.337.288-.45.104-.074.287-.01.406-.051.2-.069.339-.263.376-.46l.039-.221c.039-.103.111-.16.09-.293l-.064-.187v-.337c-.003-.2.017-.379-.078-.55-.38-.688-1.236-.929-1.975-.789-.18.034-.287.126-.442.207-.17.088-.139.166-.318.224-.081.026-.216.124-.215.224l.012.169-.03-.025"/><path d="M.495-56.348c.018.072.007.127-.026.19l-.165.128c-.05.063-.099.276-.079.362-.169.058-.01.227-.015.35l-.045.161c-.01.119.017.266.068.37.097.198.268.413.435.544.19.148.365.572.608.631.177.042.384-.104.543-.143.18-.043.397.01.571-.053.222-.079.127-.337.288-.45.104-.074.287-.01.406-.051.2-.069.339-.263.376-.46l.039-.221c.039-.103.111-.16.09-.293l-.064-.187v-.337c-.003-.2.017-.379-.078-.55-.38-.688-1.236-.929-1.975-.789-.18.034-.287.126-.442.207-.17.088-.139.166-.318.224-.081.026-.216.124-.215.224l.013.171-.03-.025"/></g><g><path d="M69.439-48.695c.018.072.007.127-.026.19l-.165.128c-.05.063-.099.276-.079.362-.169.058-.01.227-.015.35l-.045.161c-.01.119.017.266.068.37.097.198.268.413.435.544.19.148.365.572.608.631.177.042.384-.104.543-.143.18-.043.397.01.571-.053.222-.079.127-.337.288-.45.104-.074.287-.01.406-.051.2-.069.339-.263.376-.46l.039-.221c.039-.103.111-.16.09-.293l-.064-.187v-.337c-.003-.2.017-.379-.078-.55-.38-.688-1.236-.929-1.975-.789-.18.034-.287.126-.442.207-.17.088-.139.166-.318.224-.081.026-.216.124-.215.224l.012.169-.03-.025"/><path d="M61.778-48.695c.018.072.007.127-.026.19l-.165.128c-.05.063-.099.276-.079.362-.169.058-.009.227-.015.35l-.045.161c-.01.119.017.266.068.37.097.198.268.413.435.544.19.148.365.572.608.631.177.042.384-.104.543-.143.18-.043.397.01.571-.053.222-.079.127-.337.288-.45.104-.074.287-.01.406-.051.2-.069.339-.263.376-.46l.039-.221c.039-.103.111-.16.09-.293l-.064-.187v-.337c-.003-.2.017-.379-.078-.55-.38-.688-1.236-.929-1.975-.789-.18.034-.287.126-.442.207-.17.088-.139.166-.318.224-.081.026-.216.124-.215.224l.012.169-.03-.025"/><path d="M54.118-48.695c.018.072.007.127-.026.19l-.165.128c-.05.063-.099.276-.079.362-.169.058-.009.227-.015.35l-.045.161c-.01.119.017.266.068.37.097.198.268.413.435.544.19.148.365.572.608.631.177.042.384-.104.543-.143.18-.043.397.01.571-.053.222-.079.127-.337.288-.45.104-.074.287-.01.406-.051.2-.069.339-.263.376-.46l.039-.221c.039-.103.111-.16.09-.293l-.064-.187v-.337c-.003-.2.017-.379-.078-.55-.38-.688-1.236-.929-1.975-.789-.18.034-.287.126-.442.207-.17.088-.139.166-.318.224-.081.026-.216.124-.215.224l.012.169-.03-.025"/><path d="M46.458-48.695c.018.072.007.127-.026.19l-.165.128c-.05.063-.099.276-.079.362-.169.058-.009.227-.015.35l-.045.161c-.01.119.017.266.068.37.097.198.268.413.435.544.19.148.365.572.608.631.177.042.384-.104.543-.143.18-.043.397.01.571-.053.222-.079.127-.337.288-.45.104-.074.287-.01.406-.051.2-.069.339-.263.376-.46l.039-.221c.039-.103.111-.16.09-.293l-.064-.187v-.337c-.003-.2.017-.379-.078-.55-.38-.688-1.236-.929-1.975-.789-.18.034-.287.126-.442.207-.17.088-.139.166-.318.224-.081.026-.216.124-.215.224l.012.169-.03-.025"/><path d="M38.797-48.695c.018.072.007.127-.026.19l-.165.128c-.05.063-.099.276-.079.362-.169.058-.009.227-.015.35l-.045.161c-.01.119.017.266.068.37.097.198.268.413.435.544.19.148.365.572.608.631.177.042.384-.104.543-.143.18-.043.397.01.571-.053.222-.079.127-.337.288-.45.104-.074.287-.01.406-.051.2-.069.339-.263.376-.46l.039-.221c.039-.103.111-.16.09-.293l-.064-.187v-.337c-.003-.2.017-.379-.078-.55-.38-.688-1.236-.929-1.975-.789-.18.034-.287.126-.442.207-.17.088-.139.166-.318.224-.081.026-.216.124-.215.224l.012.169-.03-.025"/><path d="M31.137-48.695c.018.072.007.127-.026.19l-.165.128c-.05.063-.099.276-.079.362-.169.058-.009.227-.015.35l-.045.161c-.01.119.017.266.068.37.097.198.268.413.435.544.19.148.365.572.608.631.177.042.384-.104.543-.143.18-.043.397.01.571-.053.222-.079.127-.337.288-.45.104-.074.287-.01.406-.051.2-.069.339-.263.376-.46l.039-.221c.039-.103.111-.16.09-.293l-.064-.187v-.337c-.003-.2.017-.379-.078-.55-.38-.688-1.236-.929-1.975-.789-.18.034-.287.126-.442.207-.17.088-.139.166-.318.224-.081.026-.216.124-.215.224l.012.169-.03-.025"/><path d="M23.477-48.695c.018.072.007.127-.026.19l-.165.128c-.05.063-.099.276-.079.362-.169.058-.009.227-.015.35l-.045.161c-.01.119.017.266.068.37.097.198.268.413.435.544.19.148.365.572.608.631.177.042.384-.104.543-.143.18-.043.397.01.571-.053.222-.079.127-.337.288-.45.104-.074.287-.01.406-.051.2-.069.339-.263.376-.46l.039-.221c.039-.103.111-.16.09-.293l-.064-.187v-.337c-.003-.2.017-.379-.078-.55-.38-.688-1.236-.929-1.975-.789-.18.034-.287.126-.442.207-.17.088-.139.166-.318.224-.081.026-.216.124-.215.224l.012.169-.03-.025"/><path d="M15.816-48.695c.018.072.007.127-.026.19l-.165.128c-.05.063-.099.276-.079.362-.169.058-.009.227-.015.35l-.045.161c-.01.119.017.266.068.37.097.198.268.413.435.544.19.148.365.572.608.631.177.042.384-.104.543-.143.18-.043.397.01.571-.053.222-.079.127-.337.288-.45.104-.074.287-.01.406-.051.2-.069.339-.263.376-.46l.039-.221c.039-.103.111-.16.09-.293l-.064-.187v-.337c-.003-.2.017-.379-.078-.55-.38-.688-1.236-.929-1.975-.789-.18.034-.287.126-.442.207-.17.088-.139.166-.318.224-.081.026-.216.124-.215.224l.012.169-.03-.025"/><path d="M8.156-48.695c.018.072.007.127-.026.19l-.165.128c-.05.063-.099.276-.079.362-.169.058-.009.227-.015.35l-.045.161c-.01.119.017.266.068.37.097.198.268.413.435.544.19.148.365.572.608.631.177.042.384-.104.543-.143.18-.043.397.01.571-.053.222-.079.127-.337.288-.45.104-.074.287-.01.406-.051.2-.069.339-.263.376-.46l.039-.221c.039-.103.111-.16.09-.293l-.064-.187v-.337c-.003-.2.017-.379-.078-.55-.38-.688-1.236-.929-1.975-.789-.18.034-.287.126-.442.207-.17.088-.139.166-.318.224-.081.026-.216.124-.215.224l.012.169-.03-.025"/><path d="M.495-48.695c.018.072.007.127-.026.19l-.165.128c-.05.063-.099.276-.079.362-.169.058-.01.227-.015.35l-.045.161c-.01.119.017.266.068.37.097.198.268.413.435.544.19.148.365.572.608.631.177.042.384-.104.543-.143.18-.043.397.01.571-.053.222-.079.127-.337.288-.45.104-.074.287-.01.406-.051.2-.069.339-.263.376-.46l.039-.221c.039-.103.111-.16.09-.293l-.064-.187v-.337c-.003-.2.017-.379-.078-.55-.38-.688-1.236-.929-1.975-.789-.18.034-.287.126-.442.207-.17.088-.139.166-.318.224-.081.026-.216.124-.215.224l.012.169-.03-.025"/></g><g><path d="M69.439-41.042c.018.072.007.127-.026.19l-.165.128c-.05.063-.099.276-.079.362-.169.058-.01.227-.015.35l-.045.161c-.01.119.017.266.068.37.097.198.268.413.435.544.19.148.365.572.608.631.177.042.384-.104.543-.143.18-.043.397.01.571-.053.222-.079.127-.337.288-.45.104-.074.287-.01.406-.051.2-.069.339-.263.376-.46l.039-.221c.039-.103.111-.16.09-.293l-.064-.187v-.337c-.003-.2.017-.379-.078-.55-.38-.688-1.236-.929-1.975-.789-.18.034-.287.126-.442.207-.17.088-.139.166-.318.224-.081.026-.216.124-.215.224l.012.169-.03-.025"/><path d="M61.778-41.042c.018.072.007.127-.026.19l-.165.128c-.05.063-.099.276-.079.362-.169.058-.009.227-.015.35l-.045.161c-.01.119.017.266.068.37.097.198.268.413.435.544.19.148.365.572.608.631.177.042.384-.104.543-.143.18-.043.397.01.571-.053.222-.079.127-.337.288-.45.104-.074.287-.01.406-.051.2-.069.339-.263.376-.46l.039-.221c.039-.103.111-.16.09-.293l-.064-.187v-.337c-.003-.2.017-.379-.078-.55-.38-.688-1.236-.929-1.975-.789-.18.034-.287.126-.442.207-.17.088-.139.166-.318.224-.081.026-.216.124-.215.224l.012.169-.03-.025"/><path d="M54.118-41.042c.018.072.007.127-.026.19l-.165.128c-.05.063-.099.276-.079.362-.169.058-.009.227-.015.35l-.045.161c-.01.119.017.266.068.37.097.198.268.413.435.544.19.148.365.572.608.631.177.042.384-.104.543-.143.18-.043.397.01.571-.053.222-.079.127-.337.288-.45.104-.074.287-.01.406-.051.2-.069.339-.263.376-.46l.039-.221c.039-.103.111-.16.09-.293l-.064-.187v-.337c-.003-.2.017-.379-.078-.55-.38-.688-1.236-.929-1.975-.789-.18.034-.287.126-.442.207-.17.088-.139.166-.318.224-.081.026-.216.124-.215.224l.012.169-.03-.025"/><path d="M46.458-41.042c.018.072.007.127-.026.19l-.165.128c-.05.063-.099.276-.079.362-.169.058-.009.227-.015.35l-.045.161c-.01.119.017.266.068.37.097.198.268.413.435.544.19.148.365.572.608.631.177.042.384-.104.543-.143.18-.043.397.01.571-.053.222-.079.127-.337.288-.45.104-.074.287-.01.406-.051.2-.069.339-.263.376-.46l.039-.221c.039-.103.111-.16.09-.293l-.064-.187v-.337c-.003-.2.017-.379-.078-.55-.38-.688-1.236-.929-1.975-.789-.18.034-.287.126-.442.207-.17.088-.139.166-.318.224-.081.026-.216.124-.215.224l.012.169-.03-.025"/><path d="M38.797-41.042c.018.072.007.127-.026.19l-.165.128c-.05.063-.099.276-.079.362-.169.058-.009.227-.015.35l-.045.161c-.01.119.017.266.068.37.097.198.268.413.435.544.19.148.365.572.608.631.177.042.384-.104.543-.143.18-.043.397.01.571-.053.222-.079.127-.337.288-.45.104-.074.287-.01.406-.051.2-.069.339-.263.376-.46l.039-.221c.039-.103.111-.16.09-.293l-.064-.187v-.337c-.003-.2.017-.379-.078-.55-.38-.688-1.236-.929-1.975-.789-.18.034-.287.126-.442.207-.17.088-.139.166-.318.224-.081.026-.216.124-.215.224l.012.169-.03-.025"/><path d="M31.137-41.042c.018.072.007.127-.026.19l-.165.128c-.05.063-.099.276-.079.362-.169.058-.009.227-.015.35l-.045.161c-.01.119.017.266.068.37.097.198.268.413.435.544.19.148.365.572.608.631.177.042.384-.104.543-.143.18-.043.397.01.571-.053.222-.079.127-.337.288-.45.104-.074.287-.01.406-.051.2-.069.339-.263.376-.46l.039-.221c.039-.103.111-.16.09-.293l-.064-.187v-.337c-.003-.2.017-.379-.078-.55-.38-.688-1.236-.929-1.975-.789-.18.034-.287.126-.442.207-.17.088-.139.166-.318.224-.081.026-.216.124-.215.224l.012.169-.03-.025"/><path d="M23.477-41.042c.018.072.007.127-.026.19l-.165.128c-.05.063-.099.276-.079.362-.169.058-.009.227-.015.35l-.045.161c-.01.119.017.266.068.37.097.198.268.413.435.544.19.148.365.572.608.631.177.042.384-.104.543-.143.18-.043.397.01.571-.053.222-.079.127-.337.288-.45.104-.074.287-.01.406-.051.2-.069.339-.263.376-.46l.039-.221c.039-.103.111-.16.09-.293l-.064-.187v-.337c-.003-.2.017-.379-.078-.55-.38-.688-1.236-.929-1.975-.789-.18.034-.287.126-.442.207-.17.088-.139.166-.318.224-.081.026-.216.124-.215.224l.012.169-.03-.025"/><path d="M15.816-41.042c.018.072.007.127-.026.19l-.165.128c-.05.063-.099.276-.079.362-.169.058-.009.227-.015.35l-.045.161c-.01.119.017.266.068.37.097.198.268.413.435.544.19.148.365.572.608.631.177.042.384-.104.543-.143.18-.043.397.01.571-.053.222-.079.127-.337.288-.45.104-.074.287-.01.406-.051.2-.069.339-.263.376-.46l.039-.221c.039-.103.111-.16.09-.293l-.064-.187v-.337c-.003-.2.017-.379-.078-.55-.38-.688-1.236-.929-1.975-.789-.18.034-.287.126-.442.207-.17.088-.139.166-.318.224-.081.026-.216.124-.215.224l.012.169-.03-.025"/><path d="M8.156-41.042c.018.072.007.127-.026.19l-.165.128c-.05.063-.099.276-.079.362-.169.058-.009.227-.015.35l-.045.161c-.01.119.017.266.068.37.097.198.268.413.435.544.19.148.365.572.608.631.177.042.384-.104.543-.143.18-.043.397.01.571-.053.222-.079.127-.337.288-.45.104-.074.287-.01.406-.051.2-.069.339-.263.376-.46l.039-.221c.039-.103.111-.16.09-.293l-.064-.187v-.337c-.003-.2.017-.379-.078-.55-.38-.688-1.236-.929-1.975-.789-.18.034-.287.126-.442.207-.17.088-.139.166-.318.224-.081.026-.216.124-.215.224l.012.169-.03-.024"/><path d="M.495-41.042c.018.072.007.127-.026.19l-.165.128c-.05.063-.099.276-.079.362-.169.058-.01.227-.015.35l-.045.161c-.01.119.017.266.068.37.097.198.268.413.435.544.19.148.365.572.608.631.177.042.384-.104.543-.143.18-.043.397.01.571-.053.222-.079.127-.337.288-.45.104-.074.287-.01.406-.051.2-.069.339-.263.376-.46l.039-.221c.039-.103.111-.16.09-.293l-.064-.187v-.337c-.003-.2.017-.379-.078-.55-.38-.688-1.236-.929-1.975-.789-.18.034-.287.126-.442.207-.17.088-.139.166-.318.224-.081.026-.216.124-.215.224l.012.169-.03-.025"/></g><g><path d="M69.439-33.39c.018.072.007.127-.026.19l-.165.128c-.05.063-.099.276-.079.362-.169.058-.01.227-.015.35l-.045.161c-.01.119.017.266.068.37.097.198.268.413.435.544.19.148.365.572.608.631.177.042.384-.104.543-.143.18-.043.397.01.571-.053.222-.079.127-.337.288-.45.104-.074.287-.01.406-.051.2-.069.339-.263.376-.46l.039-.221c.039-.103.111-.16.09-.293l-.064-.187v-.337c-.003-.2.017-.379-.078-.55-.38-.688-1.236-.929-1.975-.789-.18.034-.287.126-.442.207-.17.088-.139.166-.318.224-.081.026-.216.124-.215.224l.012.169-.03-.025"/><path d="M61.778-33.39c.018.072.007.127-.026.19l-.165.128c-.05.063-.099.276-.079.362-.169.058-.009.227-.015.35l-.045.161c-.01.119.017.266.068.37.097.198.268.413.435.544.19.148.365.572.608.631.177.042.384-.104.543-.143.18-.043.397.01.571-.053.222-.079.127-.337.288-.45.104-.074.287-.01.406-.051.2-.069.339-.263.376-.46l.039-.221c.039-.103.111-.16.09-.293l-.064-.187v-.337c-.003-.2.017-.379-.078-.55-.38-.688-1.236-.929-1.975-.789-.18.034-.287.126-.442.207-.17.088-.139.166-.318.224-.081.026-.216.124-.215.224l.012.169-.03-.025"/><path d="M54.118-33.39c.018.072.007.127-.026.19l-.165.128c-.05.063-.099.276-.079.362-.169.058-.009.227-.015.35l-.045.161c-.01.119.017.266.068.37.097.198.268.413.435.544.19.148.365.572.608.631.177.042.384-.104.543-.143.18-.043.397.01.571-.053.222-.079.127-.337.288-.45.104-.074.287-.01.406-.051.2-.069.339-.263.376-.46l.039-.221c.039-.103.111-.16.09-.293l-.064-.187v-.337c-.003-.2.017-.379-.078-.55-.38-.688-1.236-.929-1.975-.789-.18.034-.287.126-.442.207-.17.088-.139.166-.318.224-.081.026-.216.124-.215.224l.012.169-.03-.025"/><path d="M46.458-33.39c.018.072.007.127-.026.19l-.165.128c-.05.063-.099.276-.079.362-.169.058-.009.227-.015.35l-.045.161c-.01.119.017.266.068.37.097.198.268.413.435.544.19.148.365.572.608.631.177.042.384-.104.543-.143.18-.043.397.01.571-.053.222-.079.127-.337.288-.45.104-.074.287-.01.406-.051.2-.069.339-.263.376-.46l.039-.221c.039-.103.111-.16.09-.293l-.064-.187v-.337c-.003-.2.017-.379-.078-.55-.38-.688-1.236-.929-1.975-.789-.18.034-.287.126-.442.207-.17.088-.139.166-.318.224-.081.026-.216.124-.215.224l.012.169-.03-.025"/><path d="M38.797-33.39c.018.072.007.127-.026.19l-.165.128c-.05.063-.099.276-.079.362-.169.058-.009.227-.015.35l-.045.161c-.01.119.017.266.068.37.097.198.268.413.435.544.19.148.365.572.608.631.177.042.384-.104.543-.143.18-.043.397.01.571-.053.222-.079.127-.337.288-.45.104-.074.287-.01.406-.051.2-.069.339-.263.376-.46l.039-.221c.039-.103.111-.16.09-.293l-.064-.187v-.337c-.003-.2.017-.379-.078-.55-.38-.688-1.236-.929-1.975-.789-.18.034-.287.126-.442.207-.17.088-.139.166-.318.224-.081.026-.216.124-.215.224l.012.169-.03-.025"/><path d="M31.137-33.39c.018.072.007.127-.026.19l-.165.128c-.05.063-.099.276-.079.362-.169.058-.009.227-.015.35l-.045.161c-.01.119.017.266.068.37.097.198.268.413.435.544.19.148.365.572.608.631.177.042.384-.104.543-.143.18-.043.397.01.571-.053.222-.079.127-.337.288-.45.104-.074.287-.01.406-.051.2-.069.339-.263.376-.46l.039-.221c.039-.103.111-.16.09-.293l-.064-.187v-.337c-.003-.2.017-.379-.078-.55-.38-.688-1.236-.929-1.975-.789-.18.034-.287.126-.442.207-.17.088-.139.166-.318.224-.081.026-.216.124-.215.224l.012.169-.03-.025"/><path d="M23.477-33.39c.018.072.007.127-.026.19l-.165.128c-.05.063-.099.276-.079.362-.169.058-.009.227-.015.35l-.045.161c-.01.119.017.266.068.37.097.198.268.413.435.544.19.148.365.572.608.631.177.042.384-.104.543-.143.18-.043.397.01.571-.053.222-.079.127-.337.288-.45.104-.074.287-.01.406-.051.2-.069.339-.263.376-.46l.039-.221c.039-.103.111-.16.09-.293l-.064-.187v-.337c-.003-.2.017-.379-.078-.55-.38-.688-1.236-.929-1.975-.789-.18.034-.287.126-.442.207-.17.088-.139.166-.318.224-.081.026-.216.124-.215.224l.012.169-.03-.025"/><path d="M15.816-33.39c.018.072.007.127-.026.19l-.165.128c-.05.063-.099.276-.079.362-.169.058-.009.227-.015.35l-.045.161c-.01.119.017.266.068.37.097.198.268.413.435.544.19.148.365.572.608.631.177.042.384-.104.543-.143.18-.043.397.01.571-.053.222-.079.127-.337.288-.45.104-.074.287-.01.406-.051.2-.069.339-.263.376-.46l.039-.221c.039-.103.111-.16.09-.293l-.064-.187v-.337c-.003-.2.017-.379-.078-.55-.38-.688-1.236-.929-1.975-.789-.18.034-.287.126-.442.207-.17.088-.139.166-.318.224-.081.026-.216.124-.215.224l.012.169-.03-.025"/><path d="M8.156-33.39c.018.072.007.127-.026.19l-.165.128c-.05.063-.099.276-.079.362-.169.058-.009.227-.015.35l-.045.161c-.01.119.017.266.068.37.097.198.268.413.435.544.19.148.365.572.608.631.177.042.384-.104.543-.143.18-.043.397.01.571-.053.222-.079.127-.337.288-.45.104-.074.287-.01.406-.051.2-.069.339-.263.376-.46l.039-.221c.039-.103.111-.16.09-.293l-.064-.187v-.337c-.003-.2.017-.379-.078-.55-.38-.688-1.236-.929-1.975-.789-.18.034-.287.126-.442.207-.17.088-.139.166-.318.224-.081.026-.216.124-.215.224l.012.169-.03-.025"/><path d="M.495-33.39c.018.072.007.127-.026.19l-.165.128c-.05.063-.099.276-.079.362-.169.058-.01.227-.015.35l-.045.161c-.01.119.017.266.068.37.097.198.268.413.435.544.19.148.365.572.608.631.177.042.384-.104.543-.143.18-.043.397.01.571-.053.222-.079.127-.337.288-.45.104-.074.287-.01.406-.051.2-.069.339-.263.376-.46l.039-.221c.039-.103.111-.16.09-.293l-.064-.187v-.337c-.003-.2.017-.379-.078-.55-.38-.688-1.236-.929-1.975-.789-.18.034-.287.126-.442.207-.17.088-.139.166-.318.224-.081.026-.216.124-.215.224l.013.171-.03-.025"/></g><g><path d="M69.439-25.736c.018.072.007.127-.026.19l-.165.128c-.05.063-.099.276-.079.362-.169.058-.01.227-.015.35l-.045.161c-.01.119.017.266.068.37.097.198.268.413.435.544.19.148.365.572.608.631.177.042.384-.104.543-.143.18-.043.397.01.571-.053.222-.079.127-.337.288-.45.104-.074.287-.01.406-.051.2-.069.339-.263.376-.46l.039-.221c.039-.103.111-.16.09-.293l-.064-.187v-.337c-.003-.2.017-.379-.078-.55-.38-.688-1.236-.929-1.975-.789-.18.034-.287.126-.442.207-.17.088-.139.166-.318.224-.081.026-.216.124-.215.224l.012.169-.03-.025"/><path d="M61.778-25.736c.018.072.007.127-.026.19l-.165.128c-.05.063-.099.276-.079.362-.169.058-.009.227-.015.35l-.045.161c-.01.119.017.266.068.37.097.198.268.413.435.544.19.148.365.572.608.631.177.042.384-.104.543-.143.18-.043.397.01.571-.053.222-.079.127-.337.288-.45.104-.074.287-.01.406-.051.2-.069.339-.263.376-.46l.039-.221c.039-.103.111-.16.09-.293l-.064-.187v-.337c-.003-.2.017-.379-.078-.55-.38-.688-1.236-.929-1.975-.789-.18.034-.287.126-.442.207-.17.088-.139.166-.318.224-.081.026-.216.124-.215.224l.012.169-.03-.025"/><path d="M54.118-25.736c.018.072.007.127-.026.19l-.165.128c-.05.063-.099.276-.079.362-.169.058-.009.227-.015.35l-.045.161c-.01.119.017.266.068.37.097.198.268.413.435.544.19.148.365.572.608.631.177.042.384-.104.543-.143.18-.043.397.01.571-.053.222-.079.127-.337.288-.45.104-.074.287-.01.406-.051.2-.069.339-.263.376-.46l.039-.221c.039-.103.111-.16.09-.293l-.064-.187v-.337c-.003-.2.017-.379-.078-.55-.38-.688-1.236-.929-1.975-.789-.18.034-.287.126-.442.207-.17.088-.139.166-.318.224-.081.026-.216.124-.215.224l.012.169-.03-.025"/><path d="M46.458-25.736c.018.072.007.127-.026.19l-.165.128c-.05.063-.099.276-.079.362-.169.058-.009.227-.015.35l-.045.161c-.01.119.017.266.068.37.097.198.268.413.435.544.19.148.365.572.608.631.177.042.384-.104.543-.143.18-.043.397.01.571-.053.222-.079.127-.337.288-.45.104-.074.287-.01.406-.051.2-.069.339-.263.376-.46l.039-.221c.039-.103.111-.16.09-.293l-.064-.187v-.337c-.003-.2.017-.379-.078-.55-.38-.688-1.236-.929-1.975-.789-.18.034-.287.126-.442.207-.17.088-.139.166-.318.224-.081.026-.216.124-.215.224l.012.169-.03-.025"/><path d="M38.797-25.736c.018.072.007.127-.026.19l-.165.128c-.05.063-.099.276-.079.362-.169.058-.009.227-.015.35l-.045.161c-.01.119.017.266.068.37.097.198.268.413.435.544.19.148.365.572.608.631.177.042.384-.104.543-.143.18-.043.397.01.571-.053.222-.079.127-.337.288-.45.104-.074.287-.01.406-.051.2-.069.339-.263.376-.46l.039-.221c.039-.103.111-.16.09-.293l-.064-.187v-.337c-.003-.2.017-.379-.078-.55-.38-.688-1.236-.929-1.975-.789-.18.034-.287.126-.442.207-.17.088-.139.166-.318.224-.081.026-.216.124-.215.224l.012.169-.03-.025"/><path d="M31.137-25.736c.018.072.007.127-.026.19l-.165.128c-.05.063-.099.276-.079.362-.169.058-.009.227-.015.35l-.045.161c-.01.119.017.266.068.37.097.198.268.413.435.544.19.148.365.572.608.631.177.042.384-.104.543-.143.18-.043.397.01.571-.053.222-.079.127-.337.288-.45.104-.074.287-.01.406-.051.2-.069.339-.263.376-.46l.039-.221c.039-.103.111-.16.09-.293l-.064-.187v-.337c-.003-.2.017-.379-.078-.55-.38-.688-1.236-.929-1.975-.789-.18.034-.287.126-.442.207-.17.088-.139.166-.318.224-.081.026-.216.124-.215.224l.012.169-.03-.025"/><path d="M23.477-25.736c.018.072.007.127-.026.19l-.165.128c-.05.063-.099.276-.079.362-.169.058-.009.227-.015.35l-.045.161c-.01.119.017.266.068.37.097.198.268.413.435.544.19.148.365.572.608.631.177.042.384-.104.543-.143.18-.043.397.01.571-.053.222-.079.127-.337.288-.45.104-.074.287-.01.406-.051.2-.069.339-.263.376-.46l.039-.221c.039-.103.111-.16.09-.293l-.064-.187v-.337c-.003-.2.017-.379-.078-.55-.38-.688-1.236-.929-1.975-.789-.18.034-.287.126-.442.207-.17.088-.139.166-.318.224-.081.026-.216.124-.215.224l.012.169-.03-.025"/><path d="M15.816-25.736c.018.072.007.127-.026.19l-.165.128c-.05.063-.099.276-.079.362-.169.058-.009.227-.015.35l-.045.161c-.01.119.017.266.068.37.097.198.268.413.435.544.19.148.365.572.608.631.177.042.384-.104.543-.143.18-.043.397.01.571-.053.222-.079.127-.337.288-.45.104-.074.287-.01.406-.051.2-.069.339-.263.376-.46l.039-.221c.039-.103.111-.16.09-.293l-.064-.187v-.337c-.003-.2.017-.379-.078-.55-.38-.688-1.236-.929-1.975-.789-.18.034-.287.126-.442.207-.17.088-.139.166-.318.224-.081.026-.216.124-.215.224l.012.169-.03-.025"/><path d="M8.156-25.736c.018.072.007.127-.026.19l-.165.128c-.05.063-.099.276-.079.362-.169.058-.009.227-.015.35l-.045.161c-.01.119.017.266.068.37.097.198.268.413.435.544.19.148.365.572.608.631.177.042.384-.104.543-.143.18-.043.397.01.571-.053.222-.079.127-.337.288-.45.104-.074.287-.01.406-.051.2-.069.339-.263.376-.46l.039-.221c.039-.103.111-.16.09-.293l-.064-.187v-.337c-.003-.2.017-.379-.078-.55-.38-.688-1.236-.929-1.975-.789-.18.034-.287.126-.442.207-.17.088-.139.166-.318.224-.081.026-.216.124-.215.224l.012.169-.03-.025"/><path d="M.495-25.736c.018.072.007.127-.026.19l-.165.128c-.05.063-.099.276-.079.362-.169.058-.01.227-.015.35l-.045.161c-.01.119.017.266.068.37.097.198.268.413.435.544.19.148.365.572.608.631.177.042.384-.104.543-.143.18-.043.397.01.571-.053.222-.079.127-.337.288-.45.104-.074.287-.01.406-.051.2-.069.339-.263.376-.46l.039-.221c.039-.103.111-.16.09-.293l-.064-.187v-.337c-.003-.2.017-.379-.078-.55-.38-.688-1.236-.929-1.975-.789-.18.034-.287.126-.442.207-.17.088-.139.166-.318.224-.081.026-.216.124-.215.224l.012.169-.03-.025"/></g><g><path d="M69.439-18.084c.018.072.007.127-.026.19l-.165.128c-.05.063-.099.276-.079.362-.169.058-.01.227-.015.35l-.045.161c-.01.119.017.266.068.37.097.198.268.413.435.544.19.148.365.572.608.631.177.042.384-.104.543-.143.18-.043.397.01.571-.053.222-.079.127-.337.288-.45.104-.074.287-.01.406-.051.2-.069.339-.263.376-.46l.039-.221c.039-.103.111-.16.09-.293l-.064-.187v-.337c-.003-.2.017-.379-.078-.55-.38-.688-1.236-.929-1.975-.789-.18.034-.287.126-.442.207-.17.088-.139.166-.318.224-.081.026-.216.124-.215.224l.012.169-.03-.025"/><path d="M61.778-18.084c.018.072.007.127-.026.19l-.165.128c-.05.063-.099.276-.079.362-.169.058-.009.227-.015.35l-.045.161c-.01.119.017.266.068.37.097.198.268.413.435.544.19.148.365.572.608.631.177.042.384-.104.543-.143.18-.043.397.01.571-.053.222-.079.127-.337.288-.45.104-.074.287-.01.406-.051.2-.069.339-.263.376-.46l.039-.221c.039-.103.111-.16.09-.293l-.064-.187v-.337c-.003-.2.017-.379-.078-.55-.38-.688-1.236-.929-1.975-.789-.18.034-.287.126-.442.207-.17.088-.139.166-.318.224-.081.026-.216.124-.215.224l.012.169-.03-.025"/><path d="M54.118-18.084c.018.072.007.127-.026.19l-.165.128c-.05.063-.099.276-.079.362-.169.058-.009.227-.015.35l-.045.161c-.01.119.017.266.068.37.097.198.268.413.435.544.19.148.365.572.608.631.177.042.384-.104.543-.143.18-.043.397.01.571-.053.222-.079.127-.337.288-.45.104-.074.287-.01.406-.051.2-.069.339-.263.376-.46l.039-.221c.039-.103.111-.16.09-.293l-.064-.187v-.337c-.003-.2.017-.379-.078-.55-.38-.688-1.236-.929-1.975-.789-.18.034-.287.126-.442.207-.17.088-.139.166-.318.224-.081.026-.216.124-.215.224l.012.169-.03-.025"/><path d="M46.458-18.084c.018.072.007.127-.026.19l-.165.128c-.05.063-.099.276-.079.362-.169.058-.009.227-.015.35l-.045.161c-.01.119.017.266.068.37.097.198.268.413.435.544.19.148.365.572.608.631.177.042.384-.104.543-.143.18-.043.397.01.571-.053.222-.079.127-.337.288-.45.104-.074.287-.01.406-.051.2-.069.339-.263.376-.46l.039-.221c.039-.103.111-.16.09-.293l-.064-.187v-.337c-.003-.2.017-.379-.078-.55-.38-.688-1.236-.929-1.975-.789-.18.034-.287.126-.442.207-.17.088-.139.166-.318.224-.081.026-.216.124-.215.224l.012.169-.03-.025"/><path d="M38.797-18.084c.018.072.007.127-.026.19l-.165.128c-.05.063-.099.276-.079.362-.169.058-.009.227-.015.35l-.045.161c-.01.119.017.266.068.37.097.198.268.413.435.544.19.148.365.572.608.631.177.042.384-.104.543-.143.18-.043.397.01.571-.053.222-.079.127-.337.288-.45.104-.074.287-.01.406-.051.2-.069.339-.263.376-.46l.039-.221c.039-.103.111-.16.09-.293l-.064-.187v-.337c-.003-.2.017-.379-.078-.55-.38-.688-1.236-.929-1.975-.789-.18.034-.287.126-.442.207-.17.088-.139.166-.318.224-.081.026-.216.124-.215.224l.012.169-.03-.025"/><path d="M31.137-18.084c.018.072.007.127-.026.19l-.165.128c-.05.063-.099.276-.079.362-.169.058-.009.227-.015.35l-.045.161c-.01.119.017.266.068.37.097.198.268.413.435.544.19.148.365.572.608.631.177.042.384-.104.543-.143.18-.043.397.01.571-.053.222-.079.127-.337.288-.45.104-.074.287-.01.406-.051.2-.069.339-.263.376-.46l.039-.221c.039-.103.111-.16.09-.293l-.064-.187v-.337c-.003-.2.017-.379-.078-.55-.38-.688-1.236-.929-1.975-.789-.18.034-.287.126-.442.207-.17.088-.139.166-.318.224-.081.026-.216.124-.215.224l.012.169-.03-.025"/><path d="M23.477-18.084c.018.072.007.127-.026.19l-.165.128c-.05.063-.099.276-.079.362-.169.058-.009.227-.015.35l-.045.161c-.01.119.017.266.068.37.097.198.268.413.435.544.19.148.365.572.608.631.177.042.384-.104.543-.143.18-.043.397.01.571-.053.222-.079.127-.337.288-.45.104-.074.287-.01.406-.051.2-.069.339-.263.376-.46l.039-.221c.039-.103.111-.16.09-.293l-.064-.187v-.337c-.003-.2.017-.379-.078-.55-.38-.688-1.236-.929-1.975-.789-.18.034-.287.126-.442.207-.17.088-.139.166-.318.224-.081.026-.216.124-.215.224l.012.169-.03-.025"/><path d="M15.816-18.084c.018.072.007.127-.026.19l-.165.128c-.05.063-.099.276-.079.362-.169.058-.009.227-.015.35l-.045.161c-.01.119.017.266.068.37.097.198.268.413.435.544.19.148.365.572.608.631.177.042.384-.104.543-.143.18-.043.397.01.571-.053.222-.079.127-.337.288-.45.104-.074.287-.01.406-.051.2-.069.339-.263.376-.46l.039-.221c.039-.103.111-.16.09-.293l-.064-.187v-.337c-.003-.2.017-.379-.078-.55-.38-.688-1.236-.929-1.975-.789-.18.034-.287.126-.442.207-.17.088-.139.166-.318.224-.081.026-.216.124-.215.224l.012.169-.03-.025"/><path d="M8.156-18.084c.018.072.007.127-.026.19l-.165.128c-.05.063-.099.276-.079.362-.169.058-.009.227-.015.35l-.045.161c-.01.119.017.266.068.37.097.198.268.413.435.544.19.148.365.572.608.631.177.042.384-.104.543-.143.18-.043.397.01.571-.053.222-.079.127-.337.288-.45.104-.074.287-.01.406-.051.2-.069.339-.263.376-.46l.039-.221c.039-.103.111-.16.09-.293l-.064-.187v-.337c-.003-.2.017-.379-.078-.55-.38-.688-1.236-.929-1.975-.789-.18.034-.287.126-.442.207-.17.088-.139.166-.318.224-.081.026-.216.124-.215.224l.012.169-.03-.025"/><path d="M.495-18.084c.018.072.007.127-.026.19l-.165.128c-.05.063-.099.276-.079.362-.169.058-.01.227-.015.35l-.045.161c-.01.119.017.266.068.37.097.198.268.413.435.544.19.148.365.572.608.631.177.042.384-.104.543-.143.18-.043.397.01.571-.053.222-.079.127-.337.288-.45.104-.074.287-.01.406-.051.2-.069.339-.263.376-.46l.039-.221c.039-.103.111-.16.09-.293l-.064-.187v-.337c-.003-.2.017-.379-.078-.55-.38-.688-1.236-.929-1.975-.789-.18.034-.287.126-.442.207-.17.088-.139.166-.318.224-.081.026-.216.124-.215.224l.013.17-.03-.025"/></g><g><path d="M69.439-10.431c.018.072.007.127-.026.19l-.165.128c-.05.063-.099.276-.079.362-.169.059-.01.228-.015.351l-.045.161c-.01.119.017.266.068.37.097.198.268.413.435.544.19.148.365.572.608.631.177.042.384-.104.543-.143.18-.043.397.01.571-.053.222-.079.127-.337.288-.45.104-.074.287-.01.406-.051.2-.069.339-.263.376-.46l.039-.221c.039-.103.111-.16.09-.293l-.064-.187v-.337c-.003-.2.017-.379-.078-.55-.38-.688-1.236-.929-1.975-.789-.18.034-.287.126-.442.207-.17.088-.139.166-.318.224-.081.026-.216.124-.215.224l.012.169-.03-.025"/><path d="M61.778-10.431c.018.072.007.127-.026.19l-.165.128c-.05.063-.099.276-.079.362-.169.058-.009.227-.015.35l-.045.161c-.01.119.017.266.068.37.097.198.268.413.435.544.19.148.365.572.608.631.177.042.384-.104.543-.143.18-.043.397.01.571-.053.222-.079.127-.337.288-.45.104-.074.287-.01.406-.051.2-.069.339-.263.376-.46l.039-.221c.039-.103.111-.16.09-.293l-.064-.187v-.337c-.003-.2.017-.379-.078-.55-.38-.688-1.236-.929-1.975-.789-.18.034-.287.126-.442.207-.17.088-.139.166-.318.224-.081.026-.216.124-.215.224l.012.169-.03-.025"/><path d="M54.118-10.431c.018.072.007.127-.026.19l-.165.128c-.05.063-.099.276-.079.362-.169.058-.009.227-.015.35l-.045.161c-.01.119.017.266.068.37.097.198.268.413.435.544.19.148.365.572.608.631.177.042.384-.104.543-.143.18-.043.397.01.571-.053.222-.079.127-.337.288-.45.104-.074.287-.01.406-.051.2-.069.339-.263.376-.46l.039-.221c.039-.103.111-.16.09-.293l-.064-.187v-.337c-.003-.2.017-.379-.078-.55-.38-.688-1.236-.929-1.975-.789-.18.034-.287.126-.442.207-.17.088-.139.166-.318.224-.081.026-.216.124-.215.224l.012.169-.03-.025"/><path d="M46.458-10.431c.018.072.007.127-.026.19l-.165.128c-.05.063-.099.276-.079.362-.169.058-.009.227-.015.35l-.045.161c-.01.119.017.266.068.37.097.198.268.413.435.544.19.148.365.572.608.631.177.042.384-.104.543-.143.18-.043.397.01.571-.053.222-.079.127-.337.288-.45.104-.074.287-.01.406-.051.2-.069.339-.263.376-.46l.039-.221c.039-.103.111-.16.09-.293l-.064-.187v-.337c-.003-.2.017-.379-.078-.55-.38-.688-1.236-.929-1.975-.789-.18.034-.287.126-.442.207-.17.088-.139.166-.318.224-.081.026-.216.124-.215.224l.012.169-.03-.025"/><path d="M38.797-10.431c.018.072.007.127-.026.19l-.165.128c-.05.063-.099.276-.079.362-.169.058-.009.227-.015.35l-.045.161c-.01.119.017.266.068.37.097.198.268.413.435.544.19.148.365.572.608.631.177.042.384-.104.543-.143.18-.043.397.01.571-.053.222-.079.127-.337.288-.45.104-.074.287-.01.406-.051.2-.069.339-.263.376-.46l.039-.221c.039-.103.111-.16.09-.293l-.064-.187v-.337c-.003-.2.017-.379-.078-.55-.38-.688-1.236-.929-1.975-.789-.18.034-.287.126-.442.207-.17.088-.139.166-.318.224-.081.026-.216.124-.215.224l.012.169-.03-.025"/><path d="M31.137-10.431c.018.072.007.127-.026.19l-.165.128c-.05.063-.099.276-.079.362-.169.058-.009.227-.015.35l-.045.161c-.01.119.017.266.068.37.097.198.268.413.435.544.19.148.365.572.608.631.177.042.384-.104.543-.143.18-.043.397.01.571-.053.222-.079.127-.337.288-.45.104-.074.287-.01.406-.051.2-.069.339-.263.376-.46l.039-.221c.039-.103.111-.16.09-.293l-.064-.187v-.337c-.003-.2.017-.379-.078-.55-.38-.688-1.236-.929-1.975-.789-.18.034-.287.126-.442.207-.17.088-.139.166-.318.224-.081.026-.216.124-.215.224l.012.169-.03-.025"/><path d="M23.477-10.431c.018.072.007.127-.026.19l-.165.128c-.05.063-.099.276-.079.362-.169.058-.009.227-.015.35l-.045.161c-.01.119.017.266.068.37.097.198.268.413.435.544.19.148.365.572.608.631.177.042.384-.104.543-.143.18-.043.397.01.571-.053.222-.079.127-.337.288-.45.104-.074.287-.01.406-.051.2-.069.339-.263.376-.46l.039-.221c.039-.103.111-.16.09-.293l-.064-.187v-.337c-.003-.2.017-.379-.078-.55-.38-.688-1.236-.929-1.975-.789-.18.034-.287.126-.442.207-.17.088-.139.166-.318.224-.081.026-.216.124-.215.224l.012.169-.03-.025"/><path d="M15.816-10.431c.018.072.007.127-.026.19l-.165.128c-.05.063-.099.276-.079.362-.169.058-.009.227-.015.35l-.045.161c-.01.119.017.266.068.37.097.198.268.413.435.544.19.148.365.572.608.631.177.042.384-.104.543-.143.18-.043.397.01.571-.053.222-.078.128-.336.289-.449.104-.074.287-.01.406-.051.2-.069.339-.263.376-.46l.039-.221c.039-.103.111-.16.09-.293l-.064-.187v-.337c-.003-.2.017-.379-.078-.55-.38-.688-1.236-.929-1.975-.789-.18.034-.287.126-.442.207-.17.088-.139.166-.318.224-.081.026-.216.124-.215.224l.012.169-.03-.025"/><path d="M8.156-10.431c.018.072.007.127-.026.19l-.165.128c-.05.063-.099.277-.079.363-.169.058-.01.227-.015.35l-.045.161c-.01.119.017.266.068.37.097.198.268.413.435.544.19.148.365.572.608.631.177.042.384-.105.543-.143.18-.043.397.01.571-.053.222-.079.127-.337.288-.45.104-.074.287-.01.406-.051.2-.069.339-.263.376-.46l.039-.221c.039-.103.111-.16.09-.293l-.064-.187v-.337c-.003-.2.017-.379-.078-.55-.38-.688-1.236-.929-1.975-.789-.18.034-.287.126-.442.207-.17.088-.139.166-.318.224-.081.026-.216.124-.215.224l.012.169-.03-.025"/><path d="M.495-10.431c.018.072.007.127-.026.19l-.165.128c-.05.063-.099.277-.079.363-.169.058-.01.227-.015.35l-.045.161c-.01.119.017.266.068.37.097.198.268.413.435.544.19.148.365.572.608.631.178.042.384-.105.543-.143.181-.043.398.01.572-.053.222-.079.127-.337.288-.45.104-.074.287-.01.406-.051.2-.069.339-.263.376-.46l.039-.22c.039-.103.111-.16.09-.293l-.064-.187v-.337c-.003-.2.017-.379-.078-.55-.38-.688-1.236-.929-1.975-.789-.18.034-.287.126-.442.207-.17.088-.139.166-.318.224-.081.026-.216.124-.215.224l.012.169-.03-.025"/></g></g><g fill="#fff"><path d="M69.439-2.778c.018.072.008.127-.026.19l-.165.128c-.051.063-.099.276-.079.362-.169.058-.01.227-.015.35l-.045.161c-.01.119.017.266.068.37.097.198.268.413.435.544.19.148.365.572.608.631.177.042.384-.104.543-.143.18-.043.397.01.571-.053.222-.079.127-.337.288-.45.104-.074.287-.01.406-.051.2-.07.339-.263.376-.46l.039-.221c.038-.103.111-.16.09-.293l-.064-.187v-.337c-.003-.2.017-.379-.078-.55-.38-.688-1.236-.929-1.975-.789-.18.034-.287.126-.442.207-.17.088-.139.166-.318.224-.081.026-.215.124-.215.224l.012.169-.03-.025"/><path d="M61.778-2.778c.018.072.007.127-.026.19l-.165.128c-.05.063-.099.276-.079.362-.169.058-.01.227-.015.35l-.045.161c-.01.119.017.266.068.37.097.198.268.413.435.544.19.148.365.572.608.631.178.042.384-.104.544-.143.18-.043.397.01.571-.053.222-.079.127-.337.288-.45.104-.074.287-.01.406-.051.2-.069.339-.263.376-.46l.039-.221c.039-.103.111-.16.09-.293l-.064-.187v-.337c-.003-.2.017-.379-.078-.55-.38-.688-1.236-.929-1.975-.789-.18.034-.287.126-.442.207-.17.088-.139.166-.318.224-.081.028-.216.125-.215.225l.012.169-.03-.025"/><path d="M54.118-2.778c.018.072.007.127-.026.19l-.165.128c-.05.063-.099.276-.079.362-.169.058-.01.227-.015.35l-.045.161c-.01.119.017.266.068.37.097.198.268.413.435.544.19.148.365.572.608.631.178.042.384-.104.543-.143.18-.043.397.01.571-.053.222-.079.127-.337.288-.45.104-.074.287-.01.406-.051.2-.069.339-.263.376-.46l.039-.221c.039-.103.111-.16.09-.293l-.064-.187v-.337c-.003-.2.017-.379-.078-.55-.38-.688-1.236-.929-1.975-.789-.18.034-.287.126-.442.207-.17.088-.139.166-.318.224-.08.028-.215.125-.214.225l.012.169-.03-.025"/><path d="M46.458-2.778c.018.072.007.127-.026.19l-.165.128c-.05.063-.099.276-.079.362-.169.058-.01.227-.015.35l-.045.161c-.01.119.017.266.068.37.097.198.268.413.435.544.19.148.365.572.608.631.177.042.384-.104.543-.143.18-.043.397.01.571-.053.222-.079.127-.337.288-.45.104-.074.287-.01.406-.051.2-.069.339-.263.376-.46l.039-.221c.039-.103.111-.16.09-.293l-.064-.187v-.337c-.003-.2.017-.379-.078-.55-.38-.688-1.236-.929-1.975-.789-.18.034-.287.126-.442.207-.17.088-.139.166-.318.224-.081.028-.216.125-.215.225l.012.169-.03-.025"/><path d="M38.797-2.778c.018.072.007.127-.026.19l-.165.128c-.05.063-.099.276-.079.362-.169.058-.01.227-.015.35l-.045.161c-.01.119.017.266.068.37.097.198.268.413.435.544.19.148.365.572.608.631.178.042.384-.104.544-.143.18-.043.397.01.571-.053.222-.079.127-.337.288-.45.104-.074.287-.01.406-.051.2-.069.339-.263.376-.46l.039-.221c.039-.103.111-.16.09-.293l-.064-.187v-.337c-.003-.2.017-.379-.078-.55-.38-.688-1.236-.929-1.975-.789-.18.034-.287.126-.442.207-.17.088-.139.166-.318.224-.081.028-.216.125-.215.225l.012.169-.03-.025"/><path d="M31.137-2.778c.018.072.007.127-.026.19l-.165.128c-.05.063-.099.276-.079.362-.169.058-.01.227-.015.35l-.045.161c-.01.119.017.266.068.37.097.198.268.413.435.544.19.148.365.572.608.631.177.042.384-.104.543-.143.18-.043.397.01.571-.053.222-.079.127-.337.288-.45.104-.074.287-.01.406-.051.2-.069.339-.263.376-.46l.039-.221c.039-.103.111-.16.09-.293l-.064-.187v-.337c-.003-.2.017-.379-.078-.55-.38-.688-1.236-.929-1.975-.789-.18.034-.287.126-.442.207-.17.088-.139.166-.318.224-.081.028-.215.125-.214.225l.012.169-.03-.025"/><path d="M23.477-2.778c.018.072.007.127-.026.19l-.165.128c-.05.063-.099.276-.079.362-.169.058-.01.227-.015.35l-.045.161c-.01.119.017.266.068.37.097.198.268.413.435.544.19.148.365.572.608.631.177.042.384-.104.543-.143.18-.043.397.01.571-.053.222-.079.127-.337.288-.45.104-.074.287-.01.406-.051.2-.069.339-.263.376-.46l.039-.221c.039-.103.111-.16.09-.293l-.064-.187v-.337c-.003-.2.017-.379-.078-.55-.38-.688-1.236-.929-1.975-.789-.18.034-.287.126-.442.207-.17.088-.139.166-.318.224-.081.026-.216.124-.215.224l.012.169-.03-.025"/><path d="M15.816-2.778c.018.072.007.127-.026.19l-.165.128c-.05.063-.099.276-.079.362-.169.058-.01.227-.015.35l-.045.161c-.01.119.017.266.068.37.097.198.268.413.435.544.19.148.365.572.608.631.177.042.384-.104.543-.143.18-.043.397.01.571-.053.222-.079.127-.337.288-.45.104-.074.287-.01.406-.051.2-.069.339-.263.376-.46l.039-.221c.039-.103.111-.16.09-.293l-.064-.187v-.337c-.003-.2.017-.379-.078-.55-.38-.688-1.236-.929-1.975-.789-.18.034-.287.126-.442.207-.17.088-.139.166-.318.224-.081.026-.216.124-.215.224l.012.169-.03-.024"/><path d="M8.156-2.778c.018.072.007.127-.026.19l-.165.128c-.05.063-.099.276-.079.362-.169.058-.01.227-.015.35l-.045.161c-.01.119.017.266.068.37.097.198.268.413.435.544.19.148.365.572.608.631.177.042.384-.104.543-.143.18-.043.397.01.571-.053.222-.079.127-.337.288-.45.104-.074.287-.01.406-.051.2-.069.339-.263.376-.46l.039-.221c.039-.103.111-.16.09-.293l-.064-.187v-.337c-.003-.2.017-.379-.078-.55-.38-.688-1.236-.929-1.975-.789-.179.036-.286.128-.441.209-.17.088-.139.166-.318.224-.082.026-.216.123-.215.223l.011.169-.03-.025"/><path d="M.495-2.778c.018.072.008.127-.026.19l-.165.128c-.051.063-.099.276-.079.362-.169.058-.01.227-.015.35l-.045.161c-.01.119.017.266.068.37.097.198.268.413.435.544.19.148.365.572.608.631.178.042.384-.104.543-.143.181-.043.398.01.572-.052.222-.079.127-.337.288-.45.104-.074.287-.01.406-.051.2-.07.339-.263.376-.46l.039-.221c.038-.103.111-.16.09-.293l-.064-.187v-.337c-.003-.2.017-.379-.078-.55-.38-.688-1.236-.929-1.975-.789-.18.035-.286.127-.442.208-.17.088-.139.166-.318.224-.081.026-.215.123-.215.223l.012.169-.031-.025"/></g></g></pattern><path d="M233.246 79.616c-.184-1.286-1.134-.313-1.134-.313s-38.491 42.778-100.816 89.785c-62.315-47.007-100.807-89.785-100.807-89.785s-.949-.973-1.134.313c0 0-1.401 7.071 4.121 12.819 0 0 38.206 42.41 90.656 82.009-4.914 3.613-9.948 7.246-15.12 10.869l1.65 8.823c7.043-4.654 13.939-9.477 20.633-14.373 6.693 4.896 13.6 9.718 20.643 14.373l1.65-8.823c-5.181-3.623-10.206-7.256-15.12-10.869 52.45-39.599 90.647-82.009 90.647-82.009 5.532-5.747 4.131-12.819 4.131-12.819" fill="#fff"/><path d="M51.556 86.144c7.846 6.27 10.216 10.293 12.022 12.105 1.54 1.53 3.062 1.683 4.721 3.342 2.489 2.48 3.245 5.467 5.614 5.467 2.425 0 5.099-5.306 10.336-5.306 3.503 0-2.167 2.36-2.167 4.643 0 1.954 4.306-.724 5.246-.724 1.567 0 7.643 2.724 11.229-2.107-1.613-1.622-6.408-.963-6.408-7.288 0-1.747 1.494-5.214 5.302-5.214 3.052 0 5.384 2.692 4.416 5.763-.313.959 1.328 2.093 1.328 3.858 0 5.315-3.66 5.91-3.66 8.242 0 4.684 3.318 4.324 5.153 4.214 4.278 0 10.889 3.559 13.129 3.559 2.738 0 4.904-1.189 4.904-2.54 0-1.36-3.199-7.376-4.987-7.376-1.005 0-2.093 1.918-3.642 1.918-1.725 0-2.701-1.079-2.074-2.144.341-.604-.646-1.586-.646-3.181 0-1.937 2.673-6.108 7.873-6.108 4.306 0 8.805 3.738 8.805 9.764 0 5.002-1.355 7.892-1.355 8.883 0 1.849 3.522 4.011 5.781 4.011 2.249 0 10.676-3.144 13.387-3.144 2.701 0 5.836.198 5.836-2.305 0-2.499-1.715-7.279-3.54-7.279-1.808 0-5.975 5.873-11.322 5.873-.627 0-1.346-.129-1.346-1.028 0-.898 1.429-2.937 2.176-3.379.737-.434 4.656-2.116 4.656-3.531 0-.802-3.577-1.802-3.577-3.388 0-1.618 3.586-.323 3.586-1.881 0-1.406-3.272-2.72-3.272-6.477 0-2.711 1.862-5.514 5.365-5.514 6.786 0 11.036 5.07 17.406 5.07 5.403 0 11.341-2.862 13.94-2.862 7.901 0 7.698 8.925 15.544 8.925 3.651 0 4.951-1.379 4.951-5.656 0-2.342-1.134-2.116-2.508-2.116-1.364 0-1.558-1.046-3.586-1.046-2.969 0-6.251-1.54-6.251-3.052 0-1.549 11.101-5.099 12.723-5.099 5.68 0 6.214 11.331 15.342 11.331 2.305 0 4.011-.498 4.011-4.522 0-4.02-.646-3.655-1.384-3.559-.719.105-4.416 1.134-4.416-.019 0-1.162 1.752-2.314-.359-2.655-9.681-1.604-6.859-10.667-10.63-10.667-1.798 0-8.059 3.397-8.059-.507 0-2.153 1.494-5.09 1.494-9.728 0-5.126-2.932-8.163-.11-8.163 6.167 0 16.954 3.144 16.954 4.642 0 1.079-6.066.456-6.066 3.172 0 1.6 3.485 3.54 8.768 3.54 5.302 0 7.432-1.632 4.795-1.632-2.628 0-6.693-.074-6.693-1.908 0-1.83 4.692-1.02 4.692-2.946 0-2.839-4.785-2.623-13.553-5.126-43.655-12.414-58.849-28.612-86.249-28.612-33.726 0-28.332 22.998-48.827 28.188-16.208 4.116-17.711 12.387-17.711 22.251 0 5.546 1.88 10.197 2.913 11.028m15.489 8.555c-1.798 0-1.337-1.259-1.337-1.259 2.333-3.181 1.134-10.713 4.048-10.713 1.641 0-.71 1.678-.71 3.623 0 2.194 3.245 1.549 3.245 4.117 0 1.646-2.655 4.232-5.246 4.232m6.979 10.713s-1.347-.973-1.347-1.678c0-1.604 2.72-2.07 2.72-1.567 0 1.359-1.373 3.245-1.373 3.245m2.195-29.171c0 1.116-2.287 3.785-3.734 3.785-1.097 0-2.849-4.269-2.849-4.643 0-.368.507-1.078 2.111-1.078 1.613.001 4.472.811 4.472 1.936m-13.139-16.964c6.473 0 9.819 3.813 9.819 7.993 0 4.186-3.513 7.215-7.403 7.215-2.48 0-3.218-2.074-3.218-3.126 0-1.434 2.148-2.71 2.148-4.406 0-2.126-2.591-3.587-5.173-3.587-4.379 0-7.329 3.757-7.329 1.904.001-2.207 4.427-5.993 11.156-5.993" fill="#fff"/><path d="M141.419 128.903c-11.082 4.107-15.617 5.818-14.99 7.505.35.937 2.637 3.646 17.701-1.913 15-5.563 44.549-19.103 43.525-21.859-.497-1.356-21.388 7.071-46.236 16.267" fill="#fff"/><path d="M165.63 31.503c18.301 5.029 28.839 9.677 29.31 7.994.461-1.688-14.088-6.938-27.521-10.631-13.434-3.688-27.373-5.522-26.922-5.098 1.411 1.333 6.823 2.702 25.133 7.735" fill="#fff"/><path d="M131.296 0c-72.401 0-131.296 58.899-131.296 131.301 0 72.406 58.895 131.3 131.296 131.3 72.411 0 131.306-58.895 131.306-131.3 0-72.402-58.895-131.301-131.306-131.301m0 260.951c-71.488 0-129.655-58.146-129.655-129.65 0-71.493 58.167-129.66 129.655-129.66 71.498 0 129.655 58.167 129.655 129.66 0 71.503-58.157 129.65-129.655 129.65" fill="#b0b7bb"/><path d="M131.296 14.147c-64.592 0-117.144 52.557-117.144 117.148 0 64.612 52.552 117.155 117.144 117.155 64.602 0 117.153-52.543 117.153-117.155 0-64.591-52.552-117.148-117.153-117.148m31.919 178.081c.977.176 1.733.932 2.166 2.074 0 0 1.854-.699 2.886 1.992 0 0 1.937-.627 2.867 1.973 0 0 1.909-.627 2.877 1.992 0 0 1.816-.684 2.867 1.973 0 0 1.937-.617 2.867 1.992 0 0 1.854-.627 2.867 1.99 0 0 1.927-.627 2.886 1.973 0 0 1.844-.645 2.849 1.975.24-.037.461-.111.691-.074 1.909.332 2.951 2.82 2.435 5.779-.019.158-.056.314-.093.471 3.099-3.217 5.763-5.752 9.248-3.568 2.978 1.881 3.559 5.984 1.392 9.432-2.766 4.389-6.324 2.104-8.03.758-3.54 2.682-12.658 13.516-29.456 2.912-21.989-13.865-6.869-37.994-9.736-41.635-.756-.959-2.664-2.296-1.696-3.854.802-1.272 3.255-1.697 5.485-.296 4.251 2.692 3.836 7.228 2.775 12.558.58-.37 1.207-.526 1.853-.417m-8.261-7.476l-2.121 11.468c-6.822-4.49-15.056-10.197-21.537-14.926-6.49 4.729-14.714 10.436-21.527 14.926l-2.121-11.468c4.693-3.301 9.93-7.054 14.401-10.336-51.316-39.013-89.043-80.657-89.485-81.146-5.91-6.146-4.49-13.576-4.443-13.83.184-1.618 1.908-2.429 3.291-.973.424.479 38.796 42.834 99.885 89.053 61.09-46.219 99.461-88.573 99.895-89.053 1.383-1.456 3.098-.646 3.282.973.056.254 1.476 7.685-4.435 13.83-.434.488-38.179 42.133-89.504 81.146 4.489 3.282 9.726 7.035 14.419 10.336m-94.372 37.449c-2.167-3.447-1.586-7.551 1.392-9.432 3.477-2.184 6.15.352 9.238 3.568l-.092-.471c-.507-2.959.534-5.447 2.434-5.779.24-.037.461.037.691.074 1.015-2.619 2.858-1.975 2.858-1.975.949-2.6 2.886-1.973 2.886-1.973 1.014-2.617 2.867-1.99 2.867-1.99.922-2.609 2.867-1.992 2.867-1.992 1.051-2.656 2.867-1.973 2.867-1.973.969-2.619 2.877-1.992 2.877-1.992.931-2.6 2.867-1.973 2.867-1.973 1.023-2.691 2.886-1.992 2.886-1.992.434-1.143 1.18-1.898 2.167-2.074.636-.109 1.271.047 1.853.416-1.069-5.33-1.484-9.866 2.775-12.558 2.231-1.401 4.684-.977 5.485.296.968 1.558-.94 2.895-1.696 3.854-2.867 3.641 12.253 27.77-9.754 41.635-16.789 10.604-25.898-.23-29.438-2.912-1.706 1.346-5.264 3.631-8.03-.757m143.577 99.857c0 1.53-1.125 2.015-3.255 2.213 1.152.973 3.245 1.517 3.245 3.056 0 1.766-2.139 3.062-5.265 4.61-.387.244-1.226 1.442-1.466 2.084 4.905 0 8.731-5.873 11.331-5.873 2.969 0 4.776 5.933 4.776 8.528 0 2.918-2.435 3.549-6.528 3.549-3.835 0-11.063 3.145-13.939 3.145-2.646 0-7.025-2.467-7.025-5.26 0-1.106 1.364-4.219 1.364-8.884 0-5.26-3.928-8.514-7.578-8.514-4.555 0-6.629 3.725-6.629 4.867 0 1.567 1.309 2.421.451 3.771.047.083.378.309 1.033.309.903 0 2.093-1.918 3.65-1.918 2.821 0 6.214 6.929 6.214 8.611 0 2.153-2.627 3.785-6.14 3.785-2.757 0-9.238-3.56-13.055-3.56-2.389.217-6.473.098-6.473-5.458 0-3.056 3.651-3.388 3.651-8.237 0-1.313-1.779-2.531-1.264-4.241.812-2.71-1.493-4.135-3.236-4.135-3.088 0-4.038 2.909-4.038 3.965 0 5.439 3.605 4.153 6.039 6.412.434.433.507 1.143.12 1.613-2.02 2.466-4.675 4.559-12.161 2.613-3.337 1.586-6.555 2.296-6.555-.516 0-1.24.848-2.277 1.752-3.153-3.845 1.056-5.864 5.057-8.694 5.057-3.199 0-4.14-3.489-6.481-5.831-1.125-1.125-3.789-2.287-4.711-3.343-5.136-6.314-7.92-8.574-11.939-12.008-1.586-1.277-3.365-6.675-3.365-12 0-9.869 1.42-19.079 18.642-23.454 19.481-4.946 15.084-28.226 49.122-28.226 28.01 0 45.711 17.416 86.591 28.663 9.146 2.508 14.466 2.31 14.466 6.315 0 2.379-2.867 2.453-4.453 3.048.479.253 1.751.558 5.218.558 3.328 0 4.333 4.126-4.794 4.126-5.624 0-10.021-2.107-10.021-4.785 0-2.531 2.766-3.195 4.674-3.541-2.996-1.276-9.606-3.005-14.244-3.023 0 0 1.272 3.683 1.272 6.919 0 4.873-1.493 7.837-1.493 9.727 0 1.794 4.979-.737 6.822-.737 5.319 0 1.724 9.271 10.833 10.677 2.194.438 2.462 1.7 1.733 3.134 0 0 1.327-.165 2.784-.479 1.936-.305 2.674.907 2.674 4.803 0 5.08-2.646 5.771-5.256 5.771-9.727 0-10.759-11.331-15.332-11.331-1.475 0-9.542 2.72-11.284 4.043.525.613 2.489 1.623 4.821 1.623 2.038 0 2.913 1.037 3.587 1.037 1.779 0 3.733.097 3.733 3.36 0 4.9-1.788 6.901-6.187 6.901-8.564 0-8.481-8.92-15.544-8.92-2.268 0-8.344 2.862-13.931 2.862-6.666 0-11.082-5.071-17.425-5.071-2.701 0-4.112 2.153-4.112 4.27.002 3.33 3.275 4.284 3.275 6.473m-18.688 12.825c-.913-2.945-3.817-8.385-7.146-8.385-1.733 0-3.235 1.539-3.235 1.539-.065-.944-.646-1.783-.646-2.457.036-.631 1.576-3.623 5.375-3.623 3.042 0 6.324 2.775 6.324 7.27.001 2.415-.34 4.264-.672 5.656m-24.331-10.529c-2.212-2.974-5.919-1.019-5.919-5.882 0-.669.646-2.721 2.803-2.721 1.098 0 2.158.692 2.158 1.872 0 .434-.268.964-.268 1.604 0 2.237 2.019 3.089 1.226 5.127m30.738-86.355c43.858 0 82.101 24.575 101.646 60.679-.885-.051-1.854.3-2.674 1.162-.147.147-4.26 4.697-11.829 12.335.028-.359.056-.737.056-1.134 0-6.172-2.13-6.407-5.19-5.831 0 0 .092-2.259-3.052-2.854-8.188-.991-4.435-10.695-11.045-10.695-1.53 0-3.522.955-5.477 1.301.378-2.536 1.392-4.597 1.392-9.045 0-2.318-.488-4.162-.903-5.587 2.84.226 6.149.927 8.796 1.691-1.171.696-2.084 1.784-2.084 3.541 0 3.489 4.739 6.029 11.267 6.029 11.506 0 9.598-6.983 4.241-6.624.581-.567 1.032-1.268 1.032-2.352 0-4.891-5.992-5.107-15.369-7.514-26.746-7.647-42.382-16.457-56.793-22.274 4.638 1.466 11.35 2.996 19.656 5.278 20.744 5.702 30.896 11.603 32.37 6.251 1.245-4.522-12.17-8.989-29.263-13.691-28.276-7.776-29.493-4.938-29.908-3.435-.424 1.586.563 2.803 2.757 3.909-8.059-2.918-16.042-4.748-25.751-4.748-34.453 0-30.95 23.603-49.426 28.263-18.08 4.592-19.583 14.701-19.583 24.662 0 5.371 1.762 11.309 3.836 12.973 7.495 6.002 9.606 9.694 11.819 11.911 1.3 1.452 3.78 2.397 4.721 3.343 2.342 2.217 3.355 6.204 7.366 6.204 2.452 0 4.26-2.125 5.716-3.222-.009 1.447.969 5.278 7.883 1.871 0 0 5.615 1.784 9.69-.35-.083.341-.147.677-.147 1.073 0 6.593 5.024 6.961 7.79 6.708 3.596 0 9.772 3.559 12.981 3.559 2.932 0 5.273-1.098 6.49-2.692.498 3.314 5.09 5.919 8.169 5.919 3.07 0 10.538-3.144 13.931-3.144 3.66 0 7.781-.415 7.781-4.794 0-2.692-1.862-9.773-6.021-9.773-1.3 0-2.415.747-3.706 1.757.185-.425.341-.849.341-1.333 0-1.244-.71-2.019-1.549-2.613 1.171-.701 1.567-1.729 1.567-2.655 0-2.886-3.272-3.803-3.272-6.472 0-1.042.608-3.024 2.867-3.024 5.938 0 10.408 5.07 17.425 5.07 5.504 0 12.041-2.862 13.931-2.862 6.205 0 6.436 8.925 15.544 8.925 6.676 0 7.432-4.646 7.432-8.15 0-3.499-2.13-4.882-4.96-4.605-2.204-1.415-3.946-.765-5.809-1.396 2.821-1.23 7.486-2.72 8.73-2.826 3.089 0 5.356 11.341 15.268 11.341l.581-.019c-16.862 16.586-45.02 42.646-81.262 70.124-60.545-45.918-98.539-87.854-98.963-88.323-.83-.862-1.788-1.213-2.674-1.162 19.547-36.105 57.772-60.68 101.638-60.68m8.04 7.601c-.028-.964 7.56-1.466 28.415 4.264 15.258 4.195 29.234 9.054 28.387 12.161-.968 3.521-11.321-1.757-30.849-7.127-17.923-4.927-25.889-6.343-25.953-9.298m15.793 131.296c0-17.484 3.919-34.08 10.907-48.951.092 2.982.986 7.647 4.941 11.755.434.493 37.588 41.502 88.333 80.289-2.646 1.937-5.882 4.278-8.989 6.481-.056-.378-.193-.766-.442-1.162-1.134-1.798-4.296-2.498-7.191-.673-4.472 2.821-4.609 7.062-3.771 11.921l-.406.045c-1.152.203-2.047.941-2.674 2.012 0 0-1.502-.166-2.876 1.98 0 0-1.586-.137-2.867 1.982 0 0-1.512-.203-2.858 1.982 0 0-1.576-.119-2.876 1.992 0 0-1.586-.156-2.877 1.982 0 0-1.54-.158-2.867 1.99 0 0-1.559-.156-2.877 1.975 0 0-1.484-.166-2.857 1.99l-.194-.018c-1.954.332-3.264 2.082-3.54 4.48-2.6-2.379-5.163-3.734-8.5-1.623-2.333 1.475-4.361 5.016-2.738 9.229-26.084-21.193-42.781-53.508-42.781-89.658m115.503 115.504c-24.561 0-47.36-7.717-66.104-20.838 1.318-.201 2.508-.848 3.356-1.438 3.365 2.738 13.507 12.916 30.176 2.406 13.599-8.584 13.607-20.568 12.05-29.844 6.417-4.297 14.825-10.105 20.522-14.253 5.698 4.148 14.115 9.957 20.532 14.253-1.558 9.275-1.549 21.26 12.05 29.844 16.669 10.51 26.811.332 30.167-2.406.848.59 2.047 1.236 3.365 1.438-18.743 13.121-41.544 20.838-66.114 20.838m72.733-25.843c1.623-4.232-.405-7.754-2.738-9.229-3.337-2.111-5.9-.756-8.5 1.623-.276-2.398-1.586-4.148-3.54-4.48l-.194.018c-1.373-2.156-2.867-1.99-2.867-1.99-1.309-2.131-2.876-1.975-2.876-1.975-1.328-2.148-2.867-1.99-2.867-1.99-1.291-2.139-2.867-1.982-2.867-1.982-1.301-2.111-2.877-1.992-2.877-1.992-1.355-2.186-2.867-1.982-2.867-1.982-1.272-2.119-2.867-1.982-2.867-1.982-1.365-2.146-2.867-1.98-2.867-1.98-.627-1.07-1.521-1.809-2.674-2.012l-.415-.045c.848-4.859.71-9.1-3.762-11.921-2.895-1.825-6.058-1.125-7.191.673-.258.396-.387.784-.442 1.162-3.107-2.203-6.343-4.545-8.989-6.481 50.735-38.787 87.899-79.796 88.343-80.289 3.945-4.107 4.84-8.772 4.932-11.755 6.989 14.871 10.907 31.467 10.907 48.951-.002 36.147-16.708 68.462-42.782 89.658" fill="#b0b7bb"/><path d="M159.738 201.513c-.719 6.637.425 13.553 9.34 19.176 8.445 5.33 13.848 3.236 18.043-.221-.913-.213-1.623-.959-2.028-2.047 0 0-1.872.701-2.904-1.982 0 0-1.927.617-2.867-1.982 0 0-1.899.627-2.858-1.99 0 0-1.835.682-2.876-1.982 0 0-1.937.635-2.877-1.982 0 0-1.844.627-2.867-1.982 0 0-1.927.617-2.867-1.982 0 0-1.862.646-2.867-1.973-.23.027-.461.111-.683.064-.693-.113-1.264-.509-1.689-1.117m1.061 2.25l.415.092.203-.01c1.364 2.148 2.857 1.973 2.857 1.973 1.31 2.131 2.867 1.982 2.867 1.982 1.347 2.148 2.877 1.992 2.877 1.992 1.291 2.139 2.867 1.99 2.867 1.99 1.3 2.111 2.867 1.975 2.867 1.975 1.364 2.193 2.867 1.99 2.867 1.99 1.291 2.131 2.877 1.973 2.877 1.973 1.355 2.158 2.858 1.992 2.858 1.992.184.313.396.59.636.848-3.752 2.471-8.445 3.355-15.249-.922-7.43-4.701-9.145-10.279-8.942-15.875" fill="#b0b7bb"/><path d="M93.523 220.689c8.906-5.623 10.068-12.539 9.34-19.176-.425.607-1.005.996-1.688 1.125-.23.037-.461-.037-.683-.074-1.014 2.619-2.876 1.973-2.876 1.973-.94 2.6-2.867 1.973-2.867 1.973-1.023 2.619-2.867 1.992-2.867 1.992-.932 2.617-2.877 1.99-2.877 1.99-1.042 2.656-2.867 1.982-2.867 1.982-.959 2.609-2.867 1.982-2.867 1.982-.932 2.6-2.867 1.982-2.867 1.982-1.023 2.684-2.896 1.982-2.896 1.982-.405 1.088-1.115 1.826-2.028 2.047 4.186 3.468 9.589 5.542 18.043.222m-15.286-.977s1.503.166 2.858-1.982c0 0 1.595.139 2.876-1.982 0 0 1.503.203 2.867-1.99 0 0 1.577.129 2.877-1.982 0 0 1.576.156 2.867-1.982 0 0 1.53.166 2.877-1.982 0 0 1.558.139 2.867-1.982 0 0 1.493.184 2.857-1.982l.203.018.406-.1c.202 5.596-1.503 11.182-8.943 15.865-6.795 4.297-11.497 3.402-15.23.932.222-.251.444-.538.618-.851" fill="#b0b7bb"/><path d="M144.987 136.818c28.369-10.487 46.753-20.324 45.01-25.045-1.77-4.789-14.954 2.038-49.444 14.793-16.604 6.146-17.582 7.685-16.457 10.704.894 2.412 3.899 5.836 20.891-.452m-4.001-9.081c29.668-10.98 46.706-18.609 47.85-15.53 1.374 3.738-22.598 15.429-44.282 23.45-16.014 5.928-18.669 2.854-19.287 1.189-.876-2.36 1.871-3.983 15.719-9.109" fill="#b0b7bb"/><path d="M131.296 3.292c-70.695 0-128.004 57.304-128.004 128.009 0 70.701 57.309 128.009 128.004 128.009 70.696 0 128.015-57.309 128.015-128.009 0-70.705-57.319-128.009-128.015-128.009m0 246.807c-65.597 0-118.794-53.195-118.794-118.798 0-65.606 53.197-118.794 118.794-118.794 65.607 0 118.795 53.188 118.795 118.794 0 65.603-53.188 118.798-118.795 118.798" fill="#fdbb30"/><path d="M161.629 201.402c.47.092.931-.129 1.364-.543.369 3.227 2.213 2.766 2.877 1.982.368 3.227 2.203 2.766 2.867 1.98.368 3.229 2.222 2.768 2.867 1.982.368 3.227 2.222 2.766 2.876 1.992.369 3.227 2.213 2.766 2.868 1.982.368 3.236 2.222 2.766 2.876 1.982.359 3.227 2.213 2.766 2.867 1.982.359 3.234 2.213 2.773 2.877 1.98.11 1.385.673 2.398 1.493 2.545 1.162.203 2.406-1.42 2.794-3.613.368-2.195-.268-4.141-1.43-4.334-.461-.072-.931.129-1.364.545-.359-3.219-2.213-2.766-2.876-1.982-.36-3.227-2.194-2.766-2.868-1.982-.359-3.236-2.212-2.766-2.857-1.982-.369-3.227-2.223-2.766-2.886-1.982-.351-3.236-2.204-2.775-2.867-2-.36-3.227-2.204-2.766-2.867-1.973-.36-3.227-2.213-2.766-2.868-1.992-.359-3.227-2.212-2.766-2.876-1.973-.11-1.373-.664-2.396-1.503-2.545-1.144-.203-2.406 1.42-2.784 3.615-.378 2.195.268 4.14 1.42 4.334" fill="#fdbb30"/><path d="M75.14 219.269c.82-.137 1.383-1.17 1.503-2.545.654.793 2.498 1.254 2.867-1.973.664.775 2.508 1.246 2.867-1.99.664.793 2.508 1.244 2.877-1.973.654.773 2.508 1.234 2.867-1.992.654.773 2.508 1.234 2.867-1.992.664.793 2.498 1.254 2.867-1.973.664.775 2.508 1.236 2.877-1.99.654.773 2.507 1.234 2.867-1.992.433.424.903.637 1.364.553 1.161-.203 1.798-2.139 1.42-4.332-.378-2.195-1.623-3.818-2.784-3.615-.83.139-1.393 1.162-1.503 2.535-.655-.783-2.499-1.244-2.867 1.992-.664-.793-2.499-1.244-2.867 1.982-.664-.783-2.518-1.246-2.877 1.982-.654-.785-2.508-1.236-2.867 1.982-.664-.775-2.499-1.246-2.867 1.99-.664-.783-2.518-1.244-2.877 1.982-.654-.783-2.508-1.244-2.867 1.982-.664-.783-2.508-1.244-2.876 1.992-.425-.426-.904-.646-1.365-.555-1.161.203-1.788 2.139-1.41 4.334.377 2.196 1.622 3.819 2.784 3.616" fill="#fdbb30"/><path d="M199.964 213.83c-7.219-4.555-12.096 20.174-31.55 7.91-21.444-13.533-.405-34.232-10.501-40.602-1.724-1.079-3.393-.664-3.752-.093-.369.581.737 1.318 1.604 2.416 3.743 4.72-12.16 27.742 9.441 41.359 18.476 11.654 27.475-4.195 28.995-3.246 1.235.793 4.241 3.947 6.768-.035 2.24-3.561.737-6.622-1.005-7.709" fill="#fdbb30"/><path d="M106.827 183.461c.886-1.106 1.992-1.825 1.623-2.425-.369-.563-2.047-.986-3.771.102-10.087 6.362 10.962 27.069-10.502 40.602-19.443 12.264-24.33-12.465-31.54-7.91-1.742 1.098-3.245 4.141-.995 7.709 2.507 3.982 5.522.82 6.758.045 1.521-.967 10.528 14.891 28.986 3.236 21.602-13.617 5.698-36.639 9.441-41.359" fill="#fdbb30"/><path d="M69.129 89.729c-.443 0-.867.733-.867 1.001 0 .281.691 1.235 1.208 1.235.304 0 .682-.134.682-.406-.001-1.059-.047-1.83-1.023-1.83" fill="#e31837"/><path d="M131.296 1.641c-71.488 0-129.655 58.162-129.655 129.66 0 71.494 58.167 129.65 129.655 129.65 71.498 0 129.655-58.156 129.655-129.65 0-71.498-58.157-129.66-129.655-129.66m0 257.669c-70.695 0-128.004-57.309-128.004-128.009 0-70.705 57.309-128.009 128.004-128.009 70.696 0 128.015 57.304 128.015 128.009 0 70.7-57.319 128.009-128.015 128.009" fill="#002d62"/><path d="M131.296 12.502c-65.597 0-118.794 53.192-118.794 118.794 0 65.616 53.197 118.795 118.794 118.795 65.607 0 118.795-53.18 118.795-118.795 0-65.602-53.188-118.794-118.795-118.794m0 235.949c-64.592 0-117.144-52.543-117.144-117.155 0-64.592 52.552-117.148 117.144-117.148 64.602 0 117.153 52.557 117.153 117.148 0 64.612-52.552 117.155-117.153 117.155" fill="#002d62"/><path d="M235.901 82.345c-.092 2.982-.977 7.647-4.932 11.765-.452.479-37.607 41.492-88.352 80.279 2.646 1.937 5.891 4.278 8.998 6.481.056-.378.185-.766.434-1.162 1.143-1.798 4.306-2.498 7.2-.673 4.48 2.821 4.609 7.062 3.762 11.912l.415.055c1.143.195 2.047.941 2.683 2.012 0 0 1.503-.166 2.858 1.98 0 0 1.595-.137 2.867 1.982 0 0 1.512-.203 2.876 1.992 0 0 1.577-.129 2.868 1.982 0 0 1.576-.156 2.867 1.982 0 0 1.539-.148 2.867 1.99 0 0 1.558-.146 2.876 1.982 0 0 1.503-.174 2.867 1.973l.203-.018c1.955.342 3.245 2.092 3.531 4.49 2.591-2.379 5.172-3.734 8.491-1.623 2.342 1.467 4.37 5.006 2.747 9.229 26.073-21.195 42.779-53.51 42.779-89.661.003-17.482-3.915-34.078-10.905-48.949" fill="#002d62"/><path d="M119.246 99.751c-3.808 0-5.348 2.992-5.384 3.628 0 .669.571 1.508.654 2.462 0 0 1.493-1.549 3.227-1.549 3.328 0 6.232 5.439 7.146 8.386.332-1.388.683-3.231.683-5.647-.001-4.495-3.293-7.28-6.326-7.28" fill="#002d62"/><path d="M163.878 226.931c-13.589-8.574-13.599-20.568-12.04-29.854-6.427-4.277-14.835-10.096-20.542-14.244-5.697 4.148-14.115 9.966-20.531 14.244 1.566 9.285 1.549 21.279-12.041 29.854-16.669 10.52-26.811.332-30.176-2.406-.839.609-2.038 1.244-3.365 1.438 18.743 13.121 41.553 20.838 66.113 20.838 24.58 0 47.371-7.717 66.114-20.838-1.328-.193-2.518-.828-3.356-1.438-3.366 2.738-13.507 12.926-30.176 2.406" fill="#002d62"/><path d="M97.441 93.547c-2.147 0-2.803 2.051-2.803 2.729 0 4.854 3.716 2.909 5.919 5.873.784-2.028-1.226-2.881-1.226-5.117 0-.649.268-1.18.268-1.613.001-1.172-1.06-1.872-2.158-1.872" fill="#002d62"/><path d="M61.311 211.728c3.337-2.111 5.9-.756 8.5 1.623.276-2.398 1.586-4.148 3.54-4.49l.194.018c1.373-2.146 2.857-1.973 2.857-1.973 1.318-2.129 2.877-1.982 2.877-1.982 1.327-2.139 2.867-1.99 2.867-1.99 1.291-2.139 2.877-1.982 2.877-1.982 1.3-2.111 2.876-1.982 2.876-1.982 1.347-2.195 2.858-1.992 2.858-1.992 1.281-2.119 2.867-1.982 2.867-1.982 1.374-2.146 2.876-1.98 2.876-1.98.627-1.07 1.521-1.816 2.674-2.012l.415-.055c-.848-4.85-.71-9.09 3.762-11.912 2.896-1.825 6.058-1.125 7.191.673.249.396.387.784.442 1.162 3.107-2.203 6.343-4.545 8.989-6.481-50.745-38.787-87.899-79.8-88.333-80.279-3.955-4.117-4.85-8.782-4.941-11.765-6.988 14.871-10.907 31.467-10.907 48.951 0 36.15 16.697 68.465 42.779 89.661-1.622-4.225.407-7.764 2.74-9.231" fill="#002d62"/><path d="M131.306 165.962c36.232-27.488 64.38-53.543 81.243-70.129l-.563.019c-9.921 0-12.188-11.331-15.277-11.331-1.244.106-5.909 1.595-8.73 2.813 1.862.645 3.614-.01 5.809 1.405 2.83-.271 4.969 1.106 4.969 4.61 0 3.494-.774 8.136-7.449 8.136-9.091 0-9.33-8.91-15.535-8.91-1.89 0-8.436 2.862-13.94 2.862-6.997 0-11.478-5.07-17.406-5.07-2.277 0-2.867 1.973-2.867 3.02 0 2.673 3.264 3.586 3.264 6.477 0 .927-.396 1.954-1.567 2.655.83.595 1.559 1.369 1.559 2.613 0 .479-.166.903-.351 1.323 1.291-1 2.406-1.747 3.706-1.747 4.167 0 6.021 7.081 6.021 9.769 0 4.384-4.131 4.789-7.781 4.789-3.393 0-10.86 3.144-13.931 3.144-3.079 0-7.662-2.608-8.169-5.909-1.208 1.595-3.559 2.678-6.49 2.678-3.218 0-9.386-3.559-12.981-3.559-2.775.263-7.79-.102-7.79-6.693 0-.396.064-.747.147-1.074-4.075 2.13-9.699.351-9.699.351-6.905 3.406-7.893-.429-7.883-1.871-1.447 1.097-3.255 3.217-5.707 3.217-4.011 0-5.024-3.982-7.366-6.2-.94-.944-3.421-1.898-4.721-3.342-2.213-2.222-4.324-5.91-11.819-11.916-2.074-1.669-3.845-7.611-3.845-12.973 0-9.957 1.512-20.07 19.592-24.657 18.476-4.665 14.973-28.268 49.426-28.268 9.699 0 17.692 1.835 25.751 4.748-2.194-1.11-3.181-2.323-2.748-3.909.406-1.498 1.613-4.342 29.908 3.439 17.084 4.692 30.499 9.164 29.254 13.69-1.466 5.343-11.626-.558-32.379-6.26-8.298-2.277-15.01-3.816-19.647-5.278 14.411 5.822 30.047 14.622 56.803 22.279 9.367 2.397 15.359 2.628 15.359 7.514 0 1.079-.451 1.784-1.032 2.352 5.356-.359 7.274 6.619-4.251 6.619-6.518 0-11.257-2.53-11.257-6.024 0-1.766.913-2.84 2.084-3.55-2.655-.751-5.956-1.452-8.796-1.678.415 1.424.903 3.264.903 5.577 0 4.458-1.022 6.514-1.401 9.054 1.955-.359 3.956-1.313 5.486-1.313 6.619 0 2.857 9.708 11.035 10.699 3.145.604 3.062 2.858 3.062 2.858 3.061-.576 5.182-.337 5.182 5.836 0 .396-.028.766-.056 1.134 7.588-7.639 11.69-12.188 11.829-12.34.82-.867 1.798-1.208 2.683-1.162-19.555-36.1-57.788-60.684-101.637-60.684-43.867 0-82.101 24.584-101.655 60.684.895-.046 1.862.295 2.683 1.162.419.467 38.413 42.408 98.968 88.321m9.247-39.391c34.49-12.755 47.665-19.592 49.444-14.793 1.743 4.721-16.641 14.549-45.01 25.045-16.992 6.288-19.997 2.854-20.892.452-1.115-3.029-.147-4.559 16.458-10.704" fill="#002d62"/><path d="M181.497 217.73s-1.586.139-2.867-1.982c0 0-1.513.203-2.877-1.99 0 0-1.567.129-2.867-1.982 0 0-1.576.156-2.867-1.982 0 0-1.54.156-2.877-1.982 0 0-1.566.139-2.867-1.982 0 0-1.493.176-2.857-1.992l-.203.027-.415-.1c-.203 5.586 1.512 11.182 8.943 15.875 6.804 4.287 11.497 3.393 15.249.922-.24-.258-.442-.535-.636-.848-.001-.002-1.503.164-2.859-1.984" fill="#002d62"/><path d="M98.327 205.828c-1.31 2.129-2.867 1.973-2.867 1.973-1.347 2.148-2.886 1.992-2.886 1.992-1.282 2.139-2.858 1.973-2.858 1.973-1.3 2.121-2.867 1.992-2.867 1.992-1.364 2.193-2.886 1.99-2.886 1.99-1.272 2.131-2.858 1.973-2.858 1.973-1.355 2.158-2.867 1.992-2.867 1.992-.185.313-.387.59-.627.848 3.753 2.471 8.445 3.355 15.249-.922 7.432-4.701 9.146-10.27 8.943-15.875l-.415.092h-.203c-1.365 2.147-2.858 1.972-2.858 1.972" fill="#002d62"/><path d="M71.747 74.306c-1.604 0-2.111.71-2.111 1.078 0 .378 1.752 4.643 2.849 4.643 1.447 0 3.734-2.669 3.734-3.785 0-1.121-2.868-1.936-4.472-1.936" fill="#002d62"/><path d="M72.678 103.734c0 .705 1.347 1.678 1.347 1.678s1.373-1.886 1.373-3.245c-.001-.503-2.72-.041-2.72 1.567" fill="#002d62"/><path d="M72.908 67.275c0-4.181-3.355-7.998-9.818-7.998-6.73 0-11.175 3.775-11.175 5.997 0 1.849 2.969-1.908 7.349-1.908 2.572 0 5.153 1.457 5.153 3.577 0 1.701-2.139 2.979-2.139 4.421 0 1.037.737 3.125 3.227 3.125 3.882 0 7.403-3.033 7.403-7.214" fill="#002d62"/><path d="M144.416 89.116c6.352 0 10.759 5.071 17.425 5.071 5.587 0 11.663-2.862 13.922-2.862 7.071 0 6.988 8.924 15.553 8.924 4.398 0 6.187-2.005 6.187-6.9 0-3.277-1.954-3.365-3.733-3.365-.674 0-1.549-1.037-3.587-1.037-2.332 0-4.296-1.01-4.821-1.623 1.742-1.323 9.81-4.043 11.284-4.043 4.573 0 5.605 11.331 15.332 11.331 2.609 0 5.265-.691 5.265-5.767 0-3.9-.747-5.107-2.683-4.808-1.457.313-2.784.483-2.784.483.729-1.438.461-2.701-1.733-3.135-9.109-1.405-5.514-10.689-10.833-10.689-1.844 0-6.822 2.54-6.822.746 0-1.885 1.493-4.85 1.493-9.722 0-3.241-1.272-6.919-1.272-6.919 4.638.009 11.257 1.742 14.244 3.019-1.908.351-4.674 1.01-4.674 3.541 0 2.683 4.397 4.785 10.021 4.785 9.127 0 8.122-4.126 4.794-4.126-3.467 0-4.738-.3-5.218-.554 1.586-.599 4.453-.673 4.453-3.052 0-4.001-5.32-3.803-14.466-6.315-40.88-11.243-58.581-28.663-86.591-28.663-34.029 0-29.641 23.279-49.122 28.23-17.222 4.37-18.642 13.585-18.642 23.449 0 5.325 1.779 10.723 3.365 12 4.028 3.425 6.804 5.693 11.93 12.008.932 1.056 3.596 2.218 4.721 3.343 2.342 2.342 3.282 5.836 6.481 5.836 2.83 0 4.858-4.006 8.694-5.062-.904.876-1.752 1.908-1.752 3.153 0 2.812 3.208 2.106 6.564.516 7.486 1.937 10.132-.147 12.151-2.613.387-.471.313-1.181-.12-1.623-2.434-2.245-6.039-.963-6.039-6.402 0-1.056.95-3.974 4.038-3.974 1.743 0 4.048 1.438 3.236 4.144-.516 1.71 1.264 2.928 1.264 4.241 0 4.854-3.651 5.172-3.651 8.242 0 5.541 4.094 5.675 6.473 5.453 3.816 0 10.298 3.55 13.055 3.55 3.513 0 6.14-1.622 6.14-3.775 0-1.678-3.393-8.606-6.214-8.606-1.558 0-2.747 1.913-3.65 1.913-.655 0-.986-.226-1.033-.309.849-1.351-.442-2.204-.442-3.78 0-1.129 2.065-4.858 6.62-4.858 3.65 0 7.578 3.254 7.578 8.514 0 4.665-1.364 7.781-1.364 8.884 0 2.793 4.379 5.26 7.025 5.26 2.876 0 10.104-3.145 13.939-3.145 4.094 0 6.528-.641 6.528-3.549 0-2.605-1.808-8.524-4.776-8.524-2.6 0-6.426 5.873-11.331 5.873.24-.646 1.079-1.844 1.466-2.088 3.126-1.549 5.265-2.845 5.265-4.605 0-1.539-2.093-2.098-3.245-3.061 2.13-.208 3.255-.683 3.255-2.208 0-2.199-3.273-3.145-3.273-6.477-.002-2.126 1.418-4.27 4.11-4.27m-5.348 4.27c0 3.757 3.264 5.07 3.264 6.477 0 1.567-3.596.263-3.596 1.885 0 1.577 3.587 2.577 3.587 3.384 0 1.415-3.919 3.094-4.665 3.526-.738.447-2.158 2.485-2.158 3.394 0 .894.71 1.019 1.337 1.019 5.348 0 9.506-5.873 11.331-5.873 1.816 0 3.531 4.785 3.531 7.279 0 2.503-3.125 2.305-5.836 2.305-2.72 0-11.128 3.144-13.387 3.144-2.259 0-5.781-2.162-5.781-4.015 0-.991 1.365-3.882 1.365-8.884 0-6.024-4.509-9.759-8.823-9.759-5.2 0-7.874 4.172-7.874 6.104 0 1.6.996 2.581.646 3.194-.627 1.065.369 2.135 2.084 2.135 1.539 0 2.637-1.918 3.65-1.918 1.779 0 4.97 6.012 4.97 7.371 0 1.351-2.157 2.54-4.896 2.54-2.25 0-8.851-3.559-13.138-3.559-1.826.115-5.145.484-5.145-4.209 0-2.332 3.66-2.927 3.66-8.242 0-1.766-1.642-2.899-1.337-3.863.977-3.065-1.347-5.758-4.417-5.758-3.808 0-5.282 3.467-5.282 5.21 0 6.338 4.785 5.665 6.407 7.292-3.586 4.841-9.671 2.103-11.238 2.103-.932 0-5.237 2.683-5.237.729 0-2.287 5.661-4.647 2.158-4.647-5.246 0-7.911 5.307-10.345 5.307-2.36 0-3.126-2.982-5.605-5.463-1.65-1.664-3.181-1.807-4.711-3.347-1.826-1.812-4.187-5.831-12.032-12.101-1.023-.82-2.904-5.486-2.904-11.027 0-9.864 1.503-18.135 17.711-22.251 20.477-5.195 15.084-28.193 48.809-28.193 27.419 0 42.604 16.203 86.25 28.617 8.776 2.503 13.571 2.287 13.571 5.126 0 1.927-4.693 1.116-4.693 2.946s4.048 1.908 6.693 1.908c2.637 0 .498 1.632-4.794 1.632-5.302 0-8.786-1.937-8.786-3.54 0-2.711 6.075-2.098 6.075-3.172 0-1.503-10.787-4.638-16.945-4.638-2.83 0 .092 3.033.092 8.169 0 4.633-1.484 7.569-1.484 9.722 0 3.9 6.251.503 8.059.503 3.771 0 .94 9.063 10.639 10.667 2.094.341.36 1.503.36 2.65 0 1.162 3.688.125 4.416.032.737-.105 1.374-.475 1.374 3.55 0 4.02-1.715 4.522-4.021 4.522-9.108 0-9.644-11.331-15.341-11.331-1.613 0-12.714 3.55-12.714 5.107 0 1.512 3.282 3.052 6.26 3.052 2.028 0 2.213 1.037 3.587 1.037 1.364 0 2.498-.226 2.498 2.116 0 4.273-1.3 5.651-4.951 5.651-7.846 0-7.652-8.92-15.553-8.92-2.582 0-8.528 2.862-13.922 2.862-6.371 0-10.621-5.07-17.425-5.07-3.485-.001-5.348 2.802-5.348 5.513" fill="#002d62"/><path d="M69.055 86.346c0-1.945 2.342-3.613.701-3.613-2.914 0-1.706 7.532-4.048 10.703 0 0-.461 1.259 1.337 1.259 2.6 0 5.236-2.581 5.236-4.223 0-2.568-3.226-1.927-3.226-4.126m.415 5.62c-.507 0-1.208-.954-1.208-1.235 0-.268.424-1.005.867-1.005.986 0 1.014.774 1.014 1.834 0 .272-.378.406-.673.406" fill="#002d62"/><path d="M200.628 212.779c-3.477-2.203-6.149.352-9.248 3.541l.093-.443c.517-2.977-.535-5.457-2.435-5.781-.221-.045-.461.037-.691.066-.995-2.619-2.857-1.975-2.857-1.975-.94-2.6-2.867-1.982-2.867-1.982-1.023-2.607-2.867-1.98-2.867-1.98-.94-2.619-2.877-1.982-2.877-1.982-1.042-2.666-2.867-1.982-2.867-1.982-.978-2.619-2.867-1.992-2.867-1.992-.94-2.6-2.886-1.982-2.886-1.982-1.015-2.682-2.886-1.982-2.886-1.982-.424-1.133-1.181-1.908-2.157-2.082-.646-.102-1.282.055-1.845.424 1.052-5.33 1.476-9.866-2.784-12.558-2.23-1.401-4.684-.977-5.477.296-.986 1.549.932 2.895 1.679 3.854 2.867 3.651-12.253 27.77 9.754 41.645 16.798 10.594 25.916-.23 29.447-2.922 1.706 1.346 5.265 3.623 8.021-.758 2.176-3.441 1.594-7.544-1.383-9.425m-37.626-19.324c.821.139 1.374 1.162 1.503 2.535.646-.783 2.499-1.244 2.867 1.982.664-.783 2.499-1.234 2.868 1.992.663-.783 2.507-1.246 2.876 1.982.654-.785 2.499-1.246 2.867 1.982.664-.785 2.499-1.246 2.867 1.98.664-.773 2.508-1.234 2.877 2.002.654-.793 2.498-1.254 2.867 1.973.664-.775 2.498-1.244 2.867 1.992.434-.426.903-.637 1.374-.555 1.161.203 1.788 2.139 1.41 4.334-.378 2.193-1.622 3.816-2.784 3.613-.83-.137-1.383-1.17-1.503-2.535-.654.783-2.508 1.244-2.867-1.982-.664.775-2.498 1.236-2.867-1.99-.664.793-2.517 1.244-2.876-1.992-.655.793-2.508 1.254-2.868-1.973-.663.773-2.508 1.234-2.876-1.992-.654.793-2.489 1.254-2.858-1.973-.664.775-2.517 1.236-2.876-1.99-.655.773-2.508 1.234-2.877-1.992-.424.424-.895.637-1.364.553-1.152-.203-1.789-2.139-1.411-4.332.378-2.204 1.623-3.818 2.784-3.614m24.109 27.003c-4.176 3.467-9.588 5.561-18.033.23-8.906-5.623-10.067-12.539-9.34-19.176.434.607.996.996 1.688 1.125.23.037.452-.037.691-.074.996 2.619 2.858 1.973 2.858 1.973.94 2.6 2.867 1.982 2.867 1.982 1.023 2.609 2.877 1.982 2.877 1.982.931 2.617 2.867 1.982 2.867 1.982 1.051 2.664 2.867 1.99 2.867 1.99.977 2.609 2.867 1.982 2.867 1.982.94 2.6 2.876 1.982 2.876 1.982 1.023 2.684 2.896 1.982 2.896 1.982.406 1.091 1.116 1.83 2.019 2.04m13.849 1.081c-2.518 3.982-5.523.82-6.768.045-1.521-.967-10.511 14.891-28.986 3.236-21.602-13.627-5.688-36.629-9.432-41.359-.885-1.106-1.982-1.825-1.623-2.416.369-.571 2.047-.995 3.771.093 10.086 6.362-10.963 27.069 10.491 40.602 19.444 12.264 24.331-12.465 31.55-7.91 1.734 1.097 3.246 4.14.997 7.709" fill="#002d62"/><path d="M98.051 225.88c22.007-13.875 6.887-37.994 9.754-41.645.756-.959 2.664-2.305 1.696-3.863-.802-1.263-3.254-1.688-5.485-.286-4.26 2.692-3.845 7.228-2.775 12.558-.581-.369-1.217-.525-1.853-.406-.987.156-1.733.932-2.167 2.064 0 0-1.862-.699-2.886 1.975 0 0-1.937-.609-2.867 2 0 0-1.908-.637-2.877 1.982 0 0-1.816-.684-2.867 1.982 0 0-1.945-.627-2.867 1.982 0 0-1.854-.627-2.867 1.99 0 0-1.937-.627-2.886 1.973 0 0-1.844-.645-2.849 1.975-.24-.029-.461-.111-.701-.066-1.899.324-2.94 2.805-2.434 5.781l.092.461c-3.088-3.207-5.762-5.762-9.238-3.559-2.978 1.881-3.559 5.984-1.392 9.422 2.766 4.389 6.324 2.104 8.03.758 3.54 2.692 12.659 13.516 29.439 2.922m-24.285-14.558c.461-.092.94.129 1.365.555.368-3.236 2.222-2.775 2.876-1.992.359-3.227 2.203-2.766 2.867-1.982.369-3.227 2.213-2.766 2.867-1.982.369-3.236 2.223-2.766 2.867-1.99.369-3.219 2.223-2.768 2.877-1.982.369-3.229 2.213-2.766 2.867-1.982.369-3.227 2.222-2.775 2.867-1.982.369-3.236 2.222-2.775 2.886-1.992.11-1.373.664-2.396 1.494-2.535 1.152-.203 2.415 1.42 2.784 3.615.378 2.193-.259 4.129-1.411 4.332-.47.084-.949-.129-1.373-.553-.369 3.227-2.213 2.766-2.867 1.992-.369 3.227-2.223 2.766-2.868 1.99-.368 3.227-2.212 2.766-2.867 1.973-.368 3.227-2.213 2.766-2.876 1.992-.369 3.227-2.204 2.766-2.867 1.992-.369 3.217-2.223 2.766-2.867 1.973-.369 3.236-2.223 2.766-2.877 1.99-.369 3.227-2.213 2.766-2.867 1.973-.12 1.375-.683 2.408-1.503 2.545-1.171.203-2.416-1.42-2.794-3.613-.378-2.199.267-4.134 1.42-4.337m29.097-9.809c.729 6.637-.425 13.553-9.34 19.176-8.454 5.32-13.848 3.246-18.043-.221.913-.221 1.623-.959 2.028-2.047 0 0 1.872.701 2.896-1.982 0 0 1.936.617 2.867-1.982 0 0 1.908.627 2.867-1.982 0 0 1.825.674 2.877-1.982 0 0 1.936.627 2.876-1.99 0 0 1.844.627 2.867-1.992 0 0 1.918.627 2.858-1.973 0 0 1.862.646 2.876-1.973.222.037.461.111.683.074.683-.13 1.263-.518 1.688-1.126m-34.463 20.07c-1.235.775-4.251 3.938-6.758-.045-2.25-3.561-.747-6.611.986-7.709 7.228-4.555 12.105 20.174 31.559 7.91 21.444-13.533.415-34.24 10.492-40.602 1.732-1.088 3.401-.664 3.761-.093.379.591-.737 1.328-1.604 2.416-3.753 4.73 12.16 27.732-9.441 41.369-18.475 11.645-27.474-4.212-28.995-3.246" fill="#002d62"/><path d="M122.059 174.407c-4.481 3.301-9.718 7.044-14.411 10.354l2.121 11.459c6.813-4.498 15.046-10.197 21.527-14.926 6.491 4.729 14.724 10.428 21.528 14.926l2.13-11.459c-4.702-3.31-9.939-7.053-14.41-10.354 51.315-39.004 89.061-80.64 89.494-81.142 5.91-6.146 4.499-13.576 4.435-13.829-.185-1.604-1.89-2.425-3.291-.964-.425.475-38.796 42.825-99.886 89.048-61.089-46.223-99.461-88.573-99.885-89.048-1.383-1.461-3.107-.641-3.291.964-.047.253-1.467 7.684 4.435 13.829.442.503 38.177 42.138 89.504 81.142m29.355 79.616c.193-1.286 1.134-.313 1.134-.313s38.492 42.778 100.807 89.785c62.325-47.007 100.808-89.785 100.808-89.785s.959-.973 1.143.313c0 0 1.393 7.071-4.13 12.819 0 0-38.197 42.41-90.647 82.009 4.905 3.613 9.948 7.246 15.12 10.869l-1.641 8.823c-7.053-4.654-13.959-9.477-20.652-14.373-6.693 4.896-13.58 9.718-20.643 14.373l-1.632-8.823c5.173-3.623 10.197-7.256 15.111-10.869-52.441-39.599-90.647-82.009-90.647-82.009-5.532-5.747-4.131-12.819-4.131-12.819" fill="#002d62"/><path d="M144.554 135.657c21.685-8.025 45.656-19.716 44.272-23.455-1.134-3.074-18.172 4.56-47.84 15.531-13.839 5.126-16.586 6.753-15.72 9.113.609 1.66 3.264 4.739 19.288-1.189m-3.135-6.754c24.848-9.196 45.739-17.623 46.236-16.268 1.023 2.757-28.525 16.296-43.525 21.859-15.064 5.56-17.352 2.85-17.701 1.913-.627-1.685 3.908-3.396 14.99-7.504" fill="#002d62"/><path d="M196.138 39.824c.848-3.107-13.129-7.966-28.387-12.161-20.855-5.729-28.434-5.228-28.415-4.264.064 2.955 8.021 4.37 25.962 9.298 19.518 5.37 29.872 10.649 30.84 7.127m-28.719-10.958c13.424 3.688 27.981 8.948 27.521 10.631-.471 1.687-11.009-2.969-29.31-7.998-18.31-5.034-23.731-6.403-25.133-7.73-.451-.429 13.498 1.405 26.922 5.097" fill="#002d62"/></svg>