<?xml version="1.0" encoding="utf-8"?>
<!-- Generator: Adobe Illustrator 17.0.0, SVG Export Plug-In . SVG Version: 6.00 Build 0)  -->
<!DOCTYPE svg PUBLIC "-//W3C//DTD SVG 1.1//EN" "http://www.w3.org/Graphics/SVG/1.1/DTD/svg11.dtd">
<svg version="1.1" id="Layer_1" xmlns="http://www.w3.org/2000/svg" xmlns:xlink="http://www.w3.org/1999/xlink" x="0px" y="0px"
	 width="540px" height="435px" viewBox="0 0 540 435" enable-background="new 0 0 540 435" xml:space="preserve">
<g>
	<path fill="#010101" d="M307.987,117.392c55.262-5.991,108.893-16.26,112.049-16.871l15.037-2.927l-41.945,65.302l13.37-4.32
		l46.498-73.419l-7.545,1.685l-26.971,5.252c-0.819,0.161-63.186,12.162-122.927,17.933c2.541-0.243,5.285-0.514,7.662-0.771
		L307.987,117.392z"/>
	<path fill="#F28F20" d="M273.821,343.901l-32.497,50.592l-30.562-47.578c-0.425,0.001-0.706-0.003-0.823-0.013
		c-0.257-0.024-0.827,0.299-1.647,0.903l33.032,51.422l35.724-55.616C276.019,343.709,274.941,343.805,273.821,343.901z"/>
	<path fill="#F28F20" d="M140.912,238.175l-8.453-13.159c-0.932,0.091-1.894,0.173-2.888,0.242l8.418,13.105
		C138.986,238.3,139.962,238.237,140.912,238.175z"/>
	<path fill="#F28F20" d="M184.287,310.435l7.162,11.149c0.96,0.079,2.033,0.175,3.225,0.286l-6.73-10.477
		C186.752,311.083,185.531,310.763,184.287,310.435z"/>
	<path fill="#F28F20" d="M420.036,100.521c-3.155,0.611-56.787,10.88-112.049,16.871l1.446,2.465
		c54.985-6.022,107.934-16.17,111.07-16.776l9.149-1.783l-40.363,62.838l3.838-1.24l41.945-65.302L420.036,100.521z"/>
	<path fill="#05535D" d="M280.563,324.604c-0.627-0.393-1.248-0.781-1.861-1.164l-0.779,1.204
		C278.824,324.633,279.705,324.619,280.563,324.604z"/>
	<path fill="#05535D" d="M187.944,311.393l6.73,10.477c2.48,0.229,5.48,0.518,9.042,0.83l-5.607-8.723
		C194.922,313.191,191.542,312.33,187.944,311.393z"/>
	<path fill="#05535D" d="M140.912,238.175c2.934-0.192,5.638-0.379,8.111-0.558l-8.677-13.499c1.6-0.176,3.122-0.314,4.591-0.365
		c0,0,7.56,7.666,14.471,13.059c2.521-0.21,4.512-0.388,5.965-0.524c-2.519-4.712-9.326-10.783-23.008-18.827
		c-5.728,0.198-12.801,1.567-21.777,1.567c0,0,0,0,0,0c0,0,0,0,0,0c0.573,1.506,2.004,3.854,3.117,6.442
		c2.083,0,4.028-0.084,5.868-0.212c0.994-0.069,1.955-0.151,2.888-0.242L140.912,238.175z"/>
	<path fill="#05535D" d="M420.503,103.081c-3.136,0.607-56.085,10.754-111.07,16.776l3.315,5.652
		c46.295-5.085,89.994-12.81,101.723-14.951l2.202-0.4l-36.909,57.056l9.525-3.078l40.363-62.838L420.503,103.081z"/>
	<path fill="#05535D" d="M273.821,343.901c-2.714,0.231-5.672,0.451-8.782,0.661l-23.71,36.651l-22.173-34.494
		c-4.017,0.123-6.997,0.19-8.394,0.195l30.562,47.578L273.821,343.901z"/>
	<path fill="#FFFFFF" d="M265.039,344.562c-15.486,1.044-34.701,1.816-45.883,2.158l22.173,34.494L265.039,344.562z"/>
	<path fill="#FFFFFF" d="M144.936,223.753c-1.469,0.051-2.99,0.189-4.591,0.365l8.677,13.499c4.109-0.297,7.572-0.571,10.384-0.805
		C152.497,231.419,144.936,223.753,144.936,223.753z"/>
	<path fill="#FFFFFF" d="M313.26,346.017c0.442-0.168,0.847-0.326,1.25-0.482c-0.726-0.423-1.462-0.855-2.21-1.296
		c-3.455,1.82-4.61,4.416-4.61,4.416s0.296,0.228,0.71,0.645C309.344,348.232,310.886,346.919,313.26,346.017z"/>
	<path fill="#010101" d="M441.933,282.324c0,0-5.199-23.142-9.405-28.234c-4.201-5.096-11.462-8.225-11.462-8.225
		s-0.805-1.031-2.26-2.828c6.413-11.04,17.055-30.714,26.282-54.172c14.329-36.436,20.346-52.002,15.48-50.242
		c-4.876,1.765-38.105,18.804-58.456,27.321c-0.129,0.054-0.255,0.107-0.384,0.161l1.277-2.017l-1.277,2.017
		c-20.12,8.438-33.436,14.551-35.423,17.174c-0.891,1.176-1.498,2.169-2.154,3.049c-13.62-11.795-29.376-24.258-45.917-35.91
		c-8.292-13.781-17.413-27.75-26.543-40.03c-2.646-3.559-5.292-6.978-7.919-10.207c-30.902-37.989-75.396-76.589-108.341-91.276
		c-3.575-1.595,27.79,53.179,40.678,89.313c1.83,5.129,3.347,9.885,4.62,14.294C154.556,109.285,68.185,92.86,64.154,92.088
		l-34.26-6.381l97.141,153.306c-7.833,0.436-16.727,0.871-26.661,1.268c-44.122,1.765-91.141,2.165-91.358,3.063
		c-0.858,3.525,56.871,30.615,126.558,49.522c11.777,3.194,21.952,5.975,30.902,8.39l14.751,23.279
		c-8.53,6.502-29.153,22.791-42.202,36.28c-16.314,16.884-29.592,34.314-37.648,44.318c-8.051,9.985-11.409,15.849-11.206,16.625
		c0.106,0.4,2.052,3.43,2.308,4.075c0.395,0.969,15.152-0.734,27.087-1.054c11.934-0.315,27.665-0.475,28.224-1.261
		c0.564-0.781,8.879-22.244,25.366-40.488c9.668-10.686,19.978-21.305,27.244-28.238l40.925,64.587l48.844-77.124
		c5.418-0.573,10.872-1.168,15.92-1.748c2.126,1.294,4.205,2.543,6.213,3.73c0.747,0.442,1.484,0.874,2.21,1.296
		c-0.403,0.157-0.808,0.314-1.25,0.482c-2.374,0.901-3.916,2.215-4.859,3.283c-0.898,1.017-1.255,1.813-1.255,1.813
		s0.944,0.715,1.84,2c0.896,1.285,1.127,3.106,1.185,3.675c0.058,0.565,4.972-0.094,4.972-0.094
		c0.981-0.239,3.178-5.333,4.383-8.301c3.316,1.841,6.245,3.352,8.609,4.392c-0.247,1.994-0.237,4.348,0.324,6.977
		c3.816,0.913,7.675-2.913,7.675-2.913s0.297-0.95,0.362-1.907c8.365,1.365,18.485,2.888,24.379,2.634
		c6.866-0.287,10.975-1.92,10.975-1.92s9.313,2.743,18.477,2.743c9.173,0,15.798-3.539,15.798-3.539s6.875,4.113,21.772,5.289
		c0,0,9.761,0.795,18.93,0.682c9.467,0.212,16.352-1.412,17.417-2.71c1.739-2.122-9.178-46.497-15.292-59.814
		C442.844,284.987,441.933,282.324,441.933,282.324z M252.227,278.644c0,0-5.603-18.065-2.009-40.685l4.534,6.409
		C254.752,244.368,251.172,268.357,252.227,278.644z M226.855,152.639c0,0-12.125-0.694-26.536,0.095l-3.141-2.653
		c-17.952-14.493-35.147-22.724-35.147-22.724s16.815-6.263,29.423-8.616c7.497-1.397,18.913-2.778,30.068-3.421
		C228.317,140.111,226.855,152.639,226.855,152.639z M123.704,225.47c-1.113-2.588-2.544-4.936-3.117-6.442c0,0,0,0,0,0c0,0,0,0,0,0
		c8.976,0,16.049-1.369,21.777-1.567c13.683,8.043,20.49,14.115,23.008,18.827c-1.453,0.135-3.444,0.313-5.965,0.524
		c-2.812,0.235-6.275,0.508-10.384,0.805c-2.474,0.179-5.178,0.366-8.111,0.558c-0.949,0.062-1.925,0.125-2.922,0.188l-8.418-13.105
		C127.732,225.386,125.786,225.47,123.704,225.47z M167.367,301.498c47.473,12.798,60.16,15.16,95.463,14.423
		c-0.961-1.38-1.954-2.699-3.005-3.995c2.449,1.507,4.908,2.999,7.352,4.448c3.296,1.954,7.237,4.387,11.525,7.066
		c0.613,0.383,1.234,0.771,1.861,1.164c-0.859,0.016-1.739,0.029-2.64,0.04c-2.257,0.027-4.643,0.038-7.177,0.029
		c0,0-37.893,0.202-56.856-1.158c-3.812-0.274-7.189-0.553-10.174-0.814c-3.562-0.312-6.562-0.601-9.042-0.83
		c-1.193-0.11-2.265-0.207-3.225-0.286l-7.162-11.149c-4.176-1.1-8.637-2.294-13.466-3.597L167.367,301.498z M262.61,285.585
		c0,0-4.905-16.884-1.421-38.05l4.534,7.36C265.722,254.895,261.559,277.806,262.61,285.585z M272.443,291.33
		c0,0-3.662-14.823-0.169-33.269l4.538,6.409C276.813,264.471,271.846,285.161,272.443,291.33z M294.76,309.993
		c-0.361,0.965-0.978,2.118-1.667,2.823l-0.911,0.941l1.19,0.494c2.419,1.016,6.721,0.184,9.395-0.504
		c-0.275,0.894-0.848,2.226-2.236,4.165l-0.718,0.998l1.156,0.362c2.438,0.772,6.957-0.193,10.595-0.96c0,0,0.66-0.132,1.301-0.254
		c-0.728,1.222-1.762,2.781-2.836,4.346c-2.481,0.39-5.726,0.836-10.069,1.229c-6.343-6.208-13.901-11.685-21.418-11.961
		C278.543,311.673,284.459,309.894,294.76,309.993z M330.302,288.164c4.013,5.882,10.696,16.653,10.696,16.653
		s-8.981-4.113-11.457-5.487c-2.481-1.374-4.582-2.936-4.582-2.936s-2.867-6.659-3.633-10.771c-0.766-4.117-1.72-9.6-1.72-9.6
		S326.288,282.291,330.302,288.164z M144.893,418.268c-3.084,0.315-17.441,0.762-25.02,0.979l-13.534,0.715
		c-4.167,0.249-8.981,0.536-12.045,0.678c1.031-1.939,3.382-5.6,8.696-12.239c6.061-1.03,15.104-2.216,25.135-2.654l3.136-0.137
		c10.055-0.456,14.463-0.649,19.681,0.447C148.67,410.155,146.574,414.32,144.893,418.268z M131.19,403.859L128.049,404
		c-8.856,0.391-17.219,1.369-23.43,2.358l3.199-4c2.086-2.64,4.375-5.52,6.841-8.569c7.164-0.358,15.943-0.504,25.617-0.409
		c7.521,0.075,12.825,1.374,16.463,2.866c-1.653,2.64-3.315,5.402-4.914,8.225C146.111,403.196,141.573,403.398,131.19,403.859z
		 M153.546,408.071c-0.125-0.823-0.251-1.68-0.381-2.503c1.301-2.301,2.655-4.588,4.008-6.786c0.125,0.772,0.265,1.576,0.4,2.381
		C156.195,403.398,154.851,405.704,153.546,408.071z M140.287,391.634c-9.019-0.099-17.258,0.033-24.162,0.344
		c1.012-1.242,2.052-2.517,3.117-3.807c3.45-0.649,8.682-1.478,16.318-2.325l2.043-0.226c10.098-1.129,21.213-2.367,27.327-1.511
		c-2.154,2.941-4.664,6.588-7.232,10.616C153.859,393.102,148.27,391.714,140.287,391.634z M158.937,398.975
		c-0.13-0.767-0.27-1.572-0.405-2.376c2.351-3.722,4.664-7.148,6.726-10.018c0.164,0.96,0.318,1.901,0.453,2.734
		C163.374,392.363,161.11,395.582,158.937,398.975z M137.425,383.874l-2.048,0.235c-6.321,0.696-10.995,1.379-14.401,1.962
		c1.152-1.379,2.327-2.767,3.532-4.197c4.654-0.541,11.828-1.04,23.444-1.398c9.25-0.287,15.095,0.329,18.776,1.242
		c-0.217,0.268-0.424,0.555-0.646,0.852C159.9,381.38,148.915,382.604,137.425,383.874z M167.147,387.502
		c-0.159-0.936-0.323-1.906-0.472-2.856c0.193-0.259,0.376-0.518,0.564-0.772c0.164,0.809,0.357,1.798,0.559,2.8
		C167.566,386.947,167.363,387.229,167.147,387.502z M147.899,378.722c-10.209,0.32-17.022,0.739-21.719,1.205
		c3.339-3.868,6.88-7.859,10.619-11.863c12.421-1.501,31.235-3.044,43.342-1.656c-3.768,4.164-7.391,8.244-10.469,11.745
		l-0.212,0.235c-0.458,0.508-0.993,1.134-1.58,1.868C163.34,378.985,156.619,378.458,147.899,378.722z M171.907,381.846
		c-0.915,1.012-1.812,2.075-2.708,3.134c-0.217-1.115-0.429-2.179-0.573-2.903c0.8-1.007,1.503-1.854,2.086-2.503l0.226-0.254
		c3.233-3.68,6.345-7.167,9.299-10.442c0.197,1.304,0.371,2.508,0.486,3.449C175.689,377.672,172.022,381.719,171.907,381.846z
		 M138.653,366.087c0.776-0.819,1.561-1.642,2.351-2.466c3.479-3.59,7.487-7.388,11.664-11.129
		c4.514,0.052,10.354,0.259,17.865,0.734c8.87,0.569,14.348,2.367,17.74,4.386c-2.221,2.353-4.481,4.79-6.707,7.233
		C169.175,363.094,149.971,364.783,138.653,366.087z M182.232,370.722c-0.154-1.092-0.332-2.31-0.501-3.482
		c2.308-2.532,4.51-4.918,6.596-7.134c0.255,0.983,0.564,2.15,0.877,3.346C186.78,365.936,184.414,368.421,182.232,370.722z
		 M170.64,351.48c-6.538-0.409-11.799-0.626-16.044-0.706c0.241-0.226,0.491-0.433,0.732-0.649
		c8.518,0.395,26.735,1.407,31.664,3.082c1.388,0.475,2.727,1.012,3.956,1.59c-0.482,0.499-0.954,1.002-1.441,1.506
		C185.243,353.636,178.931,352.017,170.64,351.48z M190.595,362.026c-0.294-1.125-0.607-2.306-0.887-3.388
		c0.593-0.635,1.18-1.252,1.754-1.854c0.174,1.332,0.347,2.687,0.496,3.849C191.506,361.099,191.048,361.56,190.595,362.026z
		 M187.527,351.546c-4.828-1.638-21.127-2.64-30.3-3.087c4.095-3.557,8.234-7.007,12.04-10.108
		c4.596-0.071,10.349,0.212,17.566,1.106c7.959,0.979,12.811,2.475,15.745,4.07c-2.867,2.433-6.461,5.943-10.359,9.952
		C190.716,352.737,189.107,352.083,187.527,351.546z M193.481,359.108c-0.164-1.308-0.347-2.682-0.496-3.901
		c3.787-3.929,7.02-7.11,9.53-9.393c0.039,1.435,0.077,3.063,0.106,4.536C199.913,352.775,196.743,355.838,193.481,359.108z
		 M208.292,347.805c0.82-0.604,1.391-0.927,1.647-0.903c0.116,0.01,0.397,0.015,0.823,0.013c1.396-0.005,4.377-0.072,8.394-0.195
		c11.182-0.342,30.397-1.113,45.883-2.158c3.11-0.21,6.069-0.431,8.782-0.661c1.12-0.095,2.198-0.192,3.227-0.29l-35.724,55.616
		L208.292,347.805z M277.424,337.359c-20.852,2.132-66.396,2.856-69.186,2.659c-0.8-0.071-2.284,0.795-4.23,2.334
		c-3.575-2.132-9.241-3.68-16.974-4.635c-6.191-0.767-11.327-1.082-15.605-1.111c8.123-6.555,14.415-11.261,15.244-11.835
		c0.92-0.301,5.213,0.094,10.662,0.602l17.2,1.454c18.804,1.351,56.606,1.167,56.987,1.167c25.66,0.094,36.983-1.84,42.422-2.762
		l1.388-0.235c2.91-0.475,4.254-0.259,5.815-0.009c0.983,0.155,2.105,0.334,3.609,0.32c1.132-0.009,1.257,0.052,1.301,2.061
		l0.063,1.223c0.231,1.972,1.71,2.682,2.693,3.148c0.352,0.169,0.655,0.344,0.935,0.541c-1.975,0.174-4.264,0.306-5.685,0.315
		h-0.149l-0.145,0.061c-0.491,0.193-2.332,0.372-9.202,1.026L277.424,337.359z M310.471,352.304
		c-0.429-0.616-0.853-1.096-1.228-1.473c0.665-0.922,2.057-2.452,4.669-3.445l2.794-1.082c0.544-0.212,1.094-0.423,1.6-0.621
		c-0.472,1.868-4.298,6.484-6.345,9.266C311.757,354.389,310.832,352.817,310.471,352.304z M329.694,358.068l-0.043-0.471
		c-0.299-3.11,0.236-5.699,0.737-7.327l0.217-0.701l0.332,0.744c0.949,2.174,2.077,4.009,2.857,5.186l0.212,0.306l-0.236,0.207
		c-0.925,0.767-1.826,1.332-2.674,1.675L329.694,358.068z M370.623,352.396c-2.428,0.555-10.879,2.141-22.938,0.8
		c-5.405-0.6-10.418-1.686-14.863-3.026c-0.295-0.388-0.561-0.819-0.757-1.344c-0.424-1.111-0.694-2.508-1.643-2.988
		c0,0-0.741,1.115-1.406,3.082c-3.208-1.16-6.005-2.44-8.32-3.737c0.165-0.64,0.29-1.364,0.095-1.613
		c-0.19-0.241-0.908-0.073-2.154,0.374c-1.521-0.991-2.752-1.972-3.612-2.894c-0.337-0.361-0.76-0.861-1.245-1.454
		c8.397-1.036,14.49-1.945,15.255-2.477c1.691-1.186,5.266-3.308,3.927-4.847c-0.058-0.067-0.725-0.639-1.53-1.451
		c3.164-0.24,6.36-0.541,8.989-0.824c-1.426,1.374-3.459,3.012-5.358,4.522c-1.768,1.402-3.44,2.734-4.553,3.802l-1.156,1.106
		l1.527,0.391c4.143,1.064,17.961,1.511,26.489,1.158c-2.211,1.751-5.671,3.915-8.677,5.741l-2.019,1.219l2.303,0.405
		c5.271,0.941,18.337,0.932,25.612,0.927C373.234,350.504,371.914,351.549,370.623,352.396z M384.735,354.372
		c-3.228-0.141-8.533-1.148-11.394-1.736c1.918-1.468,3.377-2.941,4.042-3.633l1.474-1.506l-3.927,0.005
		c-6.22,0.005-17.08,0.014-23.227-0.588c3.686-2.278,7.227-4.644,8.687-6.343l1.378-1.609l-2.086,0.141
		c-7.53,0.532-20.963,0.146-26.648-0.678c0.92-0.776,1.947-1.609,3.083-2.518c2.963-2.353,6.022-4.79,7.184-6.541l1.07-1.591
		l-1.874,0.216c-3.806,0.445-8.385,0.88-12.556,1.17c-0.193-0.242-0.378-0.489-0.549-0.739c-0.067-1.233-0.313-3.91-1.31-4.819
		c-0.081-0.481-0.426-0.835-0.936-1.09c0.087-0.225,0.178-0.451,0.237-0.667l0.366-1.336l-3.161,0.546
		c-1.161,0.201-2.474,0.427-3.827,0.652c-1.641-0.262-3.21-0.542-6.46-0.014c-0.566,0.092-1.204,0.202-1.92,0.324
		c1.434-2.142,2.477-3.81,2.903-4.825l0.646-1.525l-4.717,0.913c-2.732,0.583-6.244,1.299-8.518,1.153
		c1.672-2.673,2.048-4.4,2.048-5.2v-1.167l-1.099,0.315c-2.809,0.828-6.244,1.482-8.451,1.219c0.549-0.838,1.065-1.878,1.368-2.87
		c4.587,0.141,9.959,0.659,15.981,1.84c21.006,4.113,31.514,12.536,48.893,21.735c17.378,9.209,32.275,15.679,41.637,19.985
		C396.385,355.153,390.078,354.593,384.735,354.372z M460.039,354.843c-1.908,1.962-21.156-5.548-42.61-14.804
		c-24.649-10.644-52.978-29.33-55.994-31.697c3.059-4.306,1.527-12.926,1.527-12.926s-1.869,3.887-3.016,5.068
		c-1.147,1.176-5.767,1.2-7.299,1.2c-1.523,0-13.37-17.627-15.278-21.152c-1.908-3.529-3.055-6.268-5.733-12.536
		c-2.669-6.273-27.506-5.877-27.506-5.877s-7.834-7.858-23.107-21.575c-15.283-13.708-31.895-24.258-31.895-24.258
		s7.641,3.529,9.549,2.353c1.627-1.003-3.131-8.844-10.965-19.633c8.597-0.256,19.681,0.127,31.431,2.404
		c25.786,4.993,70.072,21.18,72.703,19.491c2.801-1.79-10.286-30.527-28.786-62.328c20.729,15.17,39.806,31.259,54.418,45.177
		c21.396,20.371,40.109,44.309,40.109,44.309s7.261,3.134,11.457,8.23c4.206,5.092,9.405,28.234,9.405,28.234
		s0.911,2.668,7.025,15.985C451.584,313.824,461.952,352.885,460.039,354.843z"/>
	<path fill="#FFFFFF" d="M348.976,348.34l-2.303-0.405l2.019-1.219c3.006-1.826,6.466-3.99,8.677-5.741
		c-8.528,0.353-22.346-0.094-26.489-1.158l-1.527-0.391l1.156-1.106c1.113-1.068,2.785-2.4,4.553-3.802
		c1.898-1.511,3.931-3.148,5.358-4.522c-2.629,0.282-5.825,0.583-8.989,0.824c0.805,0.812,1.473,1.385,1.53,1.451
		c1.339,1.539-2.236,3.661-3.927,4.847c-0.766,0.533-6.858,1.442-15.255,2.477c0.486,0.593,0.908,1.093,1.245,1.454
		c0.861,0.922,2.091,1.903,3.612,2.894c1.246-0.448,1.965-0.616,2.154-0.374c0.195,0.249,0.07,0.973-0.095,1.613
		c2.315,1.297,5.112,2.577,8.32,3.737c0.665-1.967,1.406-3.082,1.406-3.082c0.949,0.48,1.219,1.878,1.643,2.988
		c0.196,0.524,0.463,0.956,0.757,1.344c4.445,1.34,9.458,2.426,14.863,3.026c12.059,1.341,20.51-0.245,22.938-0.8
		c1.291-0.847,2.611-1.892,3.965-3.129C367.313,349.271,354.247,349.281,348.976,348.34z"/>
	<path fill="#FFFFFF" d="M299.961,323.634c4.343-0.393,7.589-0.839,10.069-1.229c1.074-1.565,2.108-3.124,2.836-4.346
		c-0.641,0.122-1.301,0.254-1.301,0.254c-3.638,0.767-8.157,1.732-10.595,0.96l-1.156-0.362l0.718-0.998
		c1.388-1.939,1.961-3.27,2.236-4.165c-2.674,0.687-6.976,1.52-9.395,0.504l-1.19-0.494l0.911-0.941
		c0.689-0.706,1.306-1.859,1.667-2.823c-10.301-0.099-16.217,1.68-16.217,1.68C286.06,311.949,293.617,317.426,299.961,323.634z"/>
	<path fill="#FFFFFF" d="M312.543,311.871c-6.022-1.181-11.394-1.699-15.981-1.84c-0.303,0.993-0.819,2.033-1.368,2.87
		c2.207,0.264,5.642-0.391,8.451-1.219l1.099-0.315v1.167c0,0.8-0.376,2.527-2.048,5.2c2.274,0.146,5.786-0.569,8.518-1.153
		l4.717-0.913l-0.646,1.525c-0.427,1.016-1.47,2.684-2.903,4.825c0.716-0.122,1.354-0.232,1.92-0.324
		c3.25-0.528,4.819-0.248,6.46,0.014c1.352-0.225,2.666-0.451,3.827-0.652l3.161-0.546l-0.366,1.336
		c-0.059,0.216-0.15,0.442-0.237,0.667c0.509,0.255,0.855,0.609,0.936,1.09c0.997,0.908,1.243,3.586,1.31,4.819
		c0.171,0.25,0.357,0.497,0.549,0.739c4.171-0.29,8.75-0.725,12.556-1.17l1.874-0.216l-1.07,1.591
		c-1.161,1.75-4.221,4.188-7.184,6.541c-1.137,0.908-2.163,1.741-3.083,2.518c5.685,0.824,19.118,1.209,26.648,0.678l2.086-0.141
		l-1.378,1.609c-1.46,1.699-5.001,4.066-8.687,6.343c6.148,0.602,17.007,0.593,23.227,0.588l3.927-0.005l-1.474,1.506
		c-0.665,0.692-2.125,2.165-4.042,3.633c2.862,0.588,8.166,1.595,11.394,1.736c5.343,0.221,11.65,0.781,18.337-0.781
		c-9.361-4.306-24.258-10.776-41.637-19.985C344.057,324.407,333.549,315.983,312.543,311.871z"/>
	<path fill="#05535D" stroke="#05535D" stroke-miterlimit="10" d="M438.45,284.521c0,0-5.199-23.142-9.405-28.234
		c-4.196-5.096-11.457-8.23-11.457-8.23s-18.713-23.938-40.109-44.309c-14.612-13.918-33.69-30.008-54.418-45.177
		c18.5,31.801,31.586,60.538,28.786,62.328c-2.631,1.689-46.917-14.498-72.703-19.491c-11.749-2.277-22.834-2.659-31.431-2.404
		c7.834,10.789,12.592,18.63,10.965,19.633c-1.908,1.176-9.549-2.353-9.549-2.353s16.612,10.55,31.895,24.258
		c15.273,13.717,23.107,21.575,23.107,21.575s24.836-0.395,27.506,5.877c2.679,6.268,3.825,9.007,5.733,12.536
		c1.908,3.525,13.755,21.152,15.278,21.152c1.532,0,6.152-0.024,7.299-1.2c1.147-1.181,3.016-5.068,3.016-5.068
		s1.532,8.621-1.527,12.926c3.016,2.367,31.346,21.053,55.994,31.697c21.454,9.256,40.702,16.766,42.61,14.804
		c1.913-1.958-8.456-41.019-14.565-54.336C439.361,287.19,438.45,284.521,438.45,284.521z"/>
	<path fill="#05535D" stroke="#05535D" stroke-miterlimit="10" d="M191.454,118.741c-12.609,2.353-29.423,8.616-29.423,8.616
		s17.195,8.23,35.147,22.724l3.141,2.653c14.411-0.789,26.536-0.095,26.536-0.095s1.462-12.528-5.333-37.319
		C210.367,115.963,198.951,117.344,191.454,118.741z"/>
	<path fill="#F28F20" d="M321.326,285.622c0.766,4.113,3.633,10.771,3.633,10.771s2.101,1.562,4.582,2.936
		c2.476,1.374,11.457,5.487,11.457,5.487s-6.683-10.771-10.696-16.653c-4.013-5.873-10.696-12.141-10.696-12.141
		S320.56,281.505,321.326,285.622z"/>
	<path fill="#05535D" stroke="#05535D" stroke-miterlimit="10" d="M272.275,258.061c-3.493,18.446,0.169,33.269,0.169,33.269
		c-0.597-6.169,4.37-26.86,4.37-26.86L272.275,258.061z"/>
	<path fill="#05535D" stroke="#05535D" stroke-miterlimit="10" d="M261.189,247.535c-3.483,21.166,1.421,38.05,1.421,38.05
		c-1.05-7.779,3.112-30.69,3.112-30.69L261.189,247.535z"/>
	<path fill="#05535D" stroke="#05535D" stroke-miterlimit="10" d="M250.218,237.959c-3.594,22.62,2.009,40.685,2.009,40.685
		c-1.055-10.287,2.525-34.276,2.525-34.276L250.218,237.959z"/>
	<path fill="#FFFFFF" d="M187.944,311.393c3.598,0.936,6.977,1.798,10.165,2.584l5.607,8.723c2.985,0.262,6.362,0.54,10.174,0.814
		c18.963,1.36,56.856,1.158,56.856,1.158c2.534,0.009,4.92-0.002,7.177-0.029l0.779-1.204c-4.288-2.678-8.229-5.112-11.525-7.066
		c-2.444-1.449-4.902-2.941-7.352-4.448c1.05,1.295,2.044,2.615,3.005,3.995c-35.303,0.738-47.99-1.625-95.463-14.423l3.453,5.34
		c4.829,1.304,9.29,2.498,13.466,3.597C185.531,310.763,186.752,311.083,187.944,311.393z"/>
	<path fill="#FFFFFF" d="M170.534,353.226c-7.511-0.475-13.35-0.682-17.865-0.734c-4.177,3.741-8.186,7.538-11.664,11.129
		c-0.79,0.824-1.575,1.647-2.351,2.466c11.317-1.303,30.522-2.993,42.913-1.242c2.226-2.442,4.486-4.88,6.707-7.233
		C184.881,355.593,179.403,353.796,170.534,353.226z"/>
	<path fill="#FFFFFF" d="M169.671,378.152c3.079-3.501,6.702-7.581,10.469-11.745c-12.107-1.388-30.921,0.155-43.342,1.656
		c-3.739,4.004-7.28,7.995-10.619,11.863c4.698-0.466,11.51-0.885,21.719-1.205c8.72-0.264,15.441,0.263,19.98,1.534
		c0.588-0.734,1.123-1.36,1.58-1.868L169.671,378.152z"/>
	<path fill="#FFFFFF" d="M147.952,380.477c-11.616,0.358-18.79,0.856-23.444,1.398c-1.204,1.43-2.38,2.819-3.532,4.197
		c3.406-0.584,8.08-1.266,14.401-1.962l2.048-0.235c11.491-1.27,22.476-2.494,28.657-1.303c0.222-0.296,0.429-0.584,0.646-0.852
		C163.046,380.806,157.202,380.19,147.952,380.477z"/>
	<path fill="#FFFFFF" d="M140.277,393.38c-9.674-0.094-18.453,0.052-25.617,0.409c-2.467,3.049-4.755,5.929-6.841,8.569l-3.199,4
		c6.21-0.988,14.574-1.967,23.43-2.358l3.141-0.141c10.383-0.461,14.921-0.664,20.635,0.612c1.6-2.823,3.262-5.586,4.914-8.225
		C153.102,394.754,147.798,393.455,140.277,393.38z"/>
	<path fill="#FFFFFF" d="M137.603,385.62l-2.043,0.226c-7.636,0.847-12.869,1.675-16.318,2.325
		c-1.065,1.289-2.105,2.565-3.117,3.807c6.904-0.311,15.143-0.442,24.162-0.344c7.983,0.08,13.572,1.468,17.412,3.092
		c2.568-4.028,5.078-7.675,7.232-10.616C158.816,383.253,147.701,384.491,137.603,385.62z"/>
	<path fill="#FFFFFF" d="M186.992,353.207c-4.929-1.675-23.145-2.687-31.664-3.082c-0.241,0.216-0.491,0.423-0.732,0.649
		c4.245,0.08,9.506,0.296,16.044,0.706c8.292,0.537,14.603,2.155,18.867,4.823c0.487-0.504,0.959-1.007,1.441-1.506
		C189.719,354.219,188.379,353.683,186.992,353.207z"/>
	<path fill="#FFFFFF" d="M202.578,343.528c-2.934-1.595-7.786-3.092-15.745-4.07c-7.217-0.894-12.97-1.176-17.566-1.106
		c-3.806,3.101-7.945,6.55-12.04,10.108c9.173,0.447,25.472,1.449,30.3,3.087c1.58,0.536,3.189,1.191,4.693,1.934
		C196.117,349.471,199.711,345.961,202.578,343.528z"/>
	<path fill="#FFFFFF" d="M158.532,396.598c0.135,0.805,0.275,1.609,0.405,2.376c2.173-3.393,4.437-6.611,6.774-9.661
		c-0.135-0.833-0.289-1.774-0.453-2.734C163.196,389.45,160.883,392.876,158.532,396.598z"/>
	<path fill="#FFFFFF" d="M170.938,379.319l-0.226,0.254c-0.583,0.649-1.286,1.496-2.086,2.503c0.145,0.725,0.357,1.788,0.573,2.903
		c0.896-1.059,1.792-2.122,2.708-3.134c0.116-0.127,3.782-4.174,8.817-9.52c-0.116-0.941-0.289-2.146-0.486-3.449
		C177.283,372.152,174.171,375.639,170.938,379.319z"/>
	<path fill="#FFFFFF" d="M189.709,358.638c0.279,1.082,0.593,2.263,0.887,3.388c0.453-0.466,0.911-0.927,1.363-1.393
		c-0.149-1.162-0.323-2.518-0.496-3.849C190.889,357.386,190.302,358.002,189.709,358.638z"/>
	<path fill="#FFFFFF" d="M202.515,345.815c-2.51,2.282-5.743,5.463-9.53,9.393c0.149,1.219,0.332,2.593,0.496,3.901
		c3.262-3.27,6.432-6.334,9.14-8.757C202.592,348.878,202.554,347.25,202.515,345.815z"/>
	<path fill="#FFFFFF" d="M153.165,405.567c0.13,0.823,0.255,1.68,0.381,2.503c1.306-2.367,2.65-4.673,4.028-6.908
		c-0.135-0.805-0.275-1.609-0.4-2.381C155.82,400.979,154.466,403.266,153.165,405.567z"/>
	<path fill="#FFFFFF" d="M181.73,367.24c0.169,1.172,0.347,2.39,0.501,3.482c2.182-2.301,4.548-4.786,6.971-7.27
		c-0.313-1.195-0.621-2.362-0.877-3.346C186.24,362.322,184.038,364.708,181.73,367.24z"/>
	<path fill="#FFFFFF" d="M166.674,384.646c0.149,0.95,0.313,1.92,0.472,2.856c0.217-0.273,0.419-0.555,0.65-0.828
		c-0.202-1.002-0.395-1.991-0.559-2.8C167.05,384.128,166.867,384.387,166.674,384.646z"/>
	<path fill="#F28F20" d="M314.566,333.684c6.87-0.654,8.711-0.833,9.202-1.026l0.145-0.061h0.149
		c1.421-0.009,3.71-0.141,5.685-0.315c-0.279-0.198-0.583-0.372-0.935-0.541c-0.983-0.466-2.462-1.176-2.693-3.148l-0.063-1.223
		c-0.043-2.009-0.169-2.071-1.301-2.061c-1.503,0.014-2.626-0.165-3.609-0.32c-1.561-0.249-2.905-0.466-5.815,0.009l-1.388,0.235
		c-5.439,0.922-16.762,2.856-42.422,2.762c-0.381,0-38.182,0.184-56.987-1.167l-17.2-1.454c-5.449-0.508-9.742-0.904-10.662-0.602
		c-0.829,0.574-7.121,5.28-15.244,11.835c4.278,0.028,9.414,0.344,15.605,1.111c7.733,0.955,13.399,2.503,16.974,4.635
		c1.947-1.539,3.43-2.405,4.23-2.334c2.79,0.198,48.334-0.527,69.186-2.659L314.566,333.684z"/>
	<path fill="#F28F20" d="M131.263,405.61l-3.136,0.137c-10.031,0.438-19.074,1.623-25.135,2.654
		c-5.314,6.64-7.665,10.301-8.696,12.239c3.064-0.141,7.877-0.428,12.045-0.678l13.534-0.715c7.579-0.216,21.936-0.663,25.02-0.979
		c1.681-3.948,3.777-8.113,6.051-12.211C145.726,404.96,141.318,405.153,131.263,405.61z"/>
	<path fill="#010101" d="M512.082,154.718c-4.9-0.118-13.134,1.167-13.134,1.167s-4.596,6.729-5.676,9.623
		c-0.289,0.739,1.219,7.906,1.219,7.906s-7.053,12.889-11.934,22.451c-4.871,9.562-12.869,24.465-24.215,42.544
		c-10.233,16.3-17.908,28.615-17.908,28.615l3.517,8.348l3.305-2.485l0.838-0.325l2.862,0.24c0,0,5.218-6.023,11.934-12.931
		c6.726-6.899,21.69-30.869,31.278-44.501c9.573-13.632,18.795-33.824,18.795-33.824s4.755-0.508,7.477-1.751
		c2.722-1.247,3.358-5.374,3.358-5.374s0.173-3.397,0.756-7.76c0.665-4.946,0.665-9.609,0.665-9.609
		S516.982,154.845,512.082,154.718z M445.729,269.282c0.202,0.645,0.381,1.167,0.525,1.586c-0.222,0.165-0.935,0.701-1.31,0.983
		c-0.246-0.522-1.879-3.901-2.115-4.39c0.713-0.292,2.626-0.701,4.09-1.958c0.048-0.014,0.506-0.141,1.002-0.292
		C447.281,266.087,446.471,267.974,445.729,269.282z M482.828,220.329c-13.736,23.034-28.884,44.125-31.649,46.068
		c-0.222,0.137-2.766,2.193-2.987,2.334c0.805-1.111,3.695-6.367,3.695-6.367s-1.85,0.955-2.443,1.134
		c0.255-0.555,0.414-1.355,0.414-1.463l0.626-1.873l-1.267,1.223c-0.573,0.551-4.832,2.72-5.801,3.553
		c4.803-5.421,11.751-15.242,17.85-25.359c9.318-15.458,18.857-32.718,23.574-41.97c4.828-9.473,11.631-22.112,11.684-22.192
		c0,0,1.657-3.03,2.308-3.769l1.788-0.626c1.479-0.598,3.141-1.285,6.23-1.11c1.893,0.104,4.071,0.226,5.531,0.405
		C504.123,183.23,489.173,209.675,482.828,220.329z M516.948,164.92c-0.665-0.009-10.657-0.216-10.657-0.216
		c-3.734-0.056-6.832,0.362-9.193,0.885c1.031-1.915,2.626-4.226,3.527-5.458c1.551-0.424,6.774-1.746,10.696-1.647
		c3.459,0.085,7.66,0.546,9.737,0.795C519.699,161.767,517.632,164.158,516.948,164.92z"/>
	<path fill="#F28F20" d="M500.625,160.13c-0.901,1.233-2.496,3.543-3.527,5.458c2.361-0.522,5.459-0.941,9.193-0.885
		c0,0,9.992,0.207,10.657,0.216c0.684-0.762,2.751-3.153,4.11-5.642c-2.077-0.249-6.278-0.711-9.737-0.795
		C507.399,158.384,502.176,159.706,500.625,160.13z"/>
	<path fill="#F28F20" d="M500.62,171.023l-1.788,0.626c-0.65,0.739-2.308,3.769-2.308,3.769c-0.053,0.08-6.856,12.719-11.684,22.192
		c-4.717,9.251-14.256,26.512-23.574,41.97c-6.099,10.117-13.047,19.938-17.85,25.359c0.968-0.833,5.227-3.002,5.801-3.553
		l1.267-1.223l-0.626,1.873c0,0.108-0.159,0.908-0.414,1.463c0.593-0.179,2.443-1.134,2.443-1.134s-2.891,5.256-3.695,6.367
		c0.222-0.141,2.765-2.197,2.987-2.334c2.766-1.943,17.913-23.034,31.649-46.068c6.345-10.654,21.295-37.099,29.553-50.012
		c-1.46-0.179-3.638-0.301-5.531-0.405C503.762,169.738,502.099,170.425,500.62,171.023z"/>
	<path fill="#F28F20" d="M442.829,267.461c0.236,0.489,1.869,3.868,2.115,4.39c0.376-0.282,1.089-0.819,1.31-0.983
		c-0.145-0.419-0.323-0.941-0.525-1.586c0.742-1.308,1.551-3.195,2.192-4.07c-0.496,0.151-0.954,0.278-1.002,0.292
		C445.455,266.76,443.542,267.169,442.829,267.461z"/>
	<path fill="#F28F20" d="M318.305,345.683c-0.506,0.198-1.055,0.409-1.6,0.621l-2.794,1.082c-2.611,0.993-4.004,2.522-4.669,3.445
		c0.376,0.376,0.8,0.856,1.228,1.473c0.361,0.513,1.286,2.085,1.489,2.645C314.007,352.167,317.832,347.551,318.305,345.683z"/>
	<path fill="#010101" d="M463.778,278.877c-0.174-1.769,0.077-3.049,0.077-3.049s-3.411-2.193-8.229-0.918
		c-4.823,1.285-7.569,1.784-7.526,2.475c0.029,0.692,0.655,2.574,0.655,2.574s11.356,6.767,12.666,6.197
		c0,0,4.278-2.499,3.936-3.059C465.021,282.524,463.961,280.656,463.778,278.877z M451.473,277.804
		c0.525-0.151,1.098-0.287,1.667-0.433l2.92-0.753c2.698-0.72,4.823-0.179,5.969,0.273c-0.029,0.593-0.039,1.313,0.048,2.165
		c0.067,0.711,0.246,1.407,0.462,2.061C459.056,279.799,454.628,278.289,451.473,277.804z"/>
	<path fill="#F28F20" d="M462.029,276.891c-1.147-0.452-3.271-0.993-5.969-0.273l-2.92,0.753c-0.569,0.146-1.142,0.282-1.667,0.433
		c3.156,0.485,7.583,1.995,11.067,3.313c-0.217-0.654-0.395-1.351-0.462-2.061C461.99,278.204,462,277.484,462.029,276.891z"/>
	<path fill="#F28F20" d="M333.77,356.012l0.236-0.207l-0.212-0.306c-0.781-1.176-1.908-3.012-2.857-5.186l-0.332-0.744l-0.217,0.701
		c-0.501,1.628-1.036,4.216-0.737,7.327l0.043,0.471l1.402-0.381C331.944,357.344,332.845,356.779,333.77,356.012z"/>
	<path fill="#FFFFFF" d="M318.236,150.418c16.541,11.652,32.297,24.115,45.917,35.91c0.655-0.88,1.262-1.873,2.154-3.049
		c1.987-2.623,15.303-8.736,35.423-17.174l1.277-2.017l3.491-5.513l0,0l-13.37,4.32l-3.838,1.24l-9.525,3.078l36.909-57.056
		l-2.202,0.4c-11.729,2.14-55.428,9.866-101.723,14.951l-3.315-5.652l-1.446-2.465l-4.773-8.137
		c-2.377,0.257-5.12,0.528-7.662,0.771c-1.377,0.131-2.693,0.254-3.859,0.362C300.823,122.668,309.944,136.637,318.236,150.418z"/>
</g>
</svg>
